G04 #@! TF.GenerationSoftware,KiCad,Pcbnew,7.0.7*
G04 #@! TF.CreationDate,2024-01-05T02:17:43-08:00*
G04 #@! TF.ProjectId,adsbee_1090,61647362-6565-45f3-9130-39302e6b6963,B*
G04 #@! TF.SameCoordinates,Original*
G04 #@! TF.FileFunction,Legend,Bot*
G04 #@! TF.FilePolarity,Positive*
%FSLAX46Y46*%
G04 Gerber Fmt 4.6, Leading zero omitted, Abs format (unit mm)*
G04 Created by KiCad (PCBNEW 7.0.7) date 2024-01-05 02:17:43*
%MOMM*%
%LPD*%
G01*
G04 APERTURE LIST*
%ADD10C,0.100000*%
%ADD11C,0.150000*%
%ADD12C,0.300000*%
%ADD13C,0.400000*%
%ADD14C,0.125000*%
%ADD15C,0.120000*%
G04 APERTURE END LIST*
D10*
D11*
X311800000Y-235400000D02*
X419800000Y-235400000D01*
X419800000Y-267400000D01*
X311800000Y-267400000D01*
X311800000Y-235400000D01*
D10*
D11*
X10000000Y-10000000D02*
X421800000Y-10000000D01*
X421800000Y-269400000D01*
X10000000Y-269400000D01*
X10000000Y-10000000D01*
D10*
D11*
X12000000Y-12000000D02*
X419800000Y-12000000D01*
X419800000Y-267400000D01*
X12000000Y-267400000D01*
X12000000Y-12000000D01*
D10*
D11*
X60000000Y-12000000D02*
X60000000Y-10000000D01*
D10*
D11*
X110000000Y-12000000D02*
X110000000Y-10000000D01*
D10*
D11*
X160000000Y-12000000D02*
X160000000Y-10000000D01*
D10*
D11*
X210000000Y-12000000D02*
X210000000Y-10000000D01*
D10*
D11*
X260000000Y-12000000D02*
X260000000Y-10000000D01*
D10*
D11*
X310000000Y-12000000D02*
X310000000Y-10000000D01*
D10*
D11*
X360000000Y-12000000D02*
X360000000Y-10000000D01*
D10*
D11*
X410000000Y-12000000D02*
X410000000Y-10000000D01*
D10*
D11*
X36089160Y-11593604D02*
X35346303Y-11593604D01*
X35717731Y-11593604D02*
X35717731Y-10293604D01*
X35717731Y-10293604D02*
X35593922Y-10479319D01*
X35593922Y-10479319D02*
X35470112Y-10603128D01*
X35470112Y-10603128D02*
X35346303Y-10665033D01*
D10*
D11*
X85346303Y-10417414D02*
X85408207Y-10355509D01*
X85408207Y-10355509D02*
X85532017Y-10293604D01*
X85532017Y-10293604D02*
X85841541Y-10293604D01*
X85841541Y-10293604D02*
X85965350Y-10355509D01*
X85965350Y-10355509D02*
X86027255Y-10417414D01*
X86027255Y-10417414D02*
X86089160Y-10541223D01*
X86089160Y-10541223D02*
X86089160Y-10665033D01*
X86089160Y-10665033D02*
X86027255Y-10850747D01*
X86027255Y-10850747D02*
X85284398Y-11593604D01*
X85284398Y-11593604D02*
X86089160Y-11593604D01*
D10*
D11*
X135284398Y-10293604D02*
X136089160Y-10293604D01*
X136089160Y-10293604D02*
X135655826Y-10788842D01*
X135655826Y-10788842D02*
X135841541Y-10788842D01*
X135841541Y-10788842D02*
X135965350Y-10850747D01*
X135965350Y-10850747D02*
X136027255Y-10912652D01*
X136027255Y-10912652D02*
X136089160Y-11036461D01*
X136089160Y-11036461D02*
X136089160Y-11345985D01*
X136089160Y-11345985D02*
X136027255Y-11469795D01*
X136027255Y-11469795D02*
X135965350Y-11531700D01*
X135965350Y-11531700D02*
X135841541Y-11593604D01*
X135841541Y-11593604D02*
X135470112Y-11593604D01*
X135470112Y-11593604D02*
X135346303Y-11531700D01*
X135346303Y-11531700D02*
X135284398Y-11469795D01*
D10*
D11*
X185965350Y-10726938D02*
X185965350Y-11593604D01*
X185655826Y-10231700D02*
X185346303Y-11160271D01*
X185346303Y-11160271D02*
X186151064Y-11160271D01*
D10*
D11*
X236027255Y-10293604D02*
X235408207Y-10293604D01*
X235408207Y-10293604D02*
X235346303Y-10912652D01*
X235346303Y-10912652D02*
X235408207Y-10850747D01*
X235408207Y-10850747D02*
X235532017Y-10788842D01*
X235532017Y-10788842D02*
X235841541Y-10788842D01*
X235841541Y-10788842D02*
X235965350Y-10850747D01*
X235965350Y-10850747D02*
X236027255Y-10912652D01*
X236027255Y-10912652D02*
X236089160Y-11036461D01*
X236089160Y-11036461D02*
X236089160Y-11345985D01*
X236089160Y-11345985D02*
X236027255Y-11469795D01*
X236027255Y-11469795D02*
X235965350Y-11531700D01*
X235965350Y-11531700D02*
X235841541Y-11593604D01*
X235841541Y-11593604D02*
X235532017Y-11593604D01*
X235532017Y-11593604D02*
X235408207Y-11531700D01*
X235408207Y-11531700D02*
X235346303Y-11469795D01*
D10*
D11*
X285965350Y-10293604D02*
X285717731Y-10293604D01*
X285717731Y-10293604D02*
X285593922Y-10355509D01*
X285593922Y-10355509D02*
X285532017Y-10417414D01*
X285532017Y-10417414D02*
X285408207Y-10603128D01*
X285408207Y-10603128D02*
X285346303Y-10850747D01*
X285346303Y-10850747D02*
X285346303Y-11345985D01*
X285346303Y-11345985D02*
X285408207Y-11469795D01*
X285408207Y-11469795D02*
X285470112Y-11531700D01*
X285470112Y-11531700D02*
X285593922Y-11593604D01*
X285593922Y-11593604D02*
X285841541Y-11593604D01*
X285841541Y-11593604D02*
X285965350Y-11531700D01*
X285965350Y-11531700D02*
X286027255Y-11469795D01*
X286027255Y-11469795D02*
X286089160Y-11345985D01*
X286089160Y-11345985D02*
X286089160Y-11036461D01*
X286089160Y-11036461D02*
X286027255Y-10912652D01*
X286027255Y-10912652D02*
X285965350Y-10850747D01*
X285965350Y-10850747D02*
X285841541Y-10788842D01*
X285841541Y-10788842D02*
X285593922Y-10788842D01*
X285593922Y-10788842D02*
X285470112Y-10850747D01*
X285470112Y-10850747D02*
X285408207Y-10912652D01*
X285408207Y-10912652D02*
X285346303Y-11036461D01*
D10*
D11*
X335284398Y-10293604D02*
X336151064Y-10293604D01*
X336151064Y-10293604D02*
X335593922Y-11593604D01*
D10*
D11*
X385593922Y-10850747D02*
X385470112Y-10788842D01*
X385470112Y-10788842D02*
X385408207Y-10726938D01*
X385408207Y-10726938D02*
X385346303Y-10603128D01*
X385346303Y-10603128D02*
X385346303Y-10541223D01*
X385346303Y-10541223D02*
X385408207Y-10417414D01*
X385408207Y-10417414D02*
X385470112Y-10355509D01*
X385470112Y-10355509D02*
X385593922Y-10293604D01*
X385593922Y-10293604D02*
X385841541Y-10293604D01*
X385841541Y-10293604D02*
X385965350Y-10355509D01*
X385965350Y-10355509D02*
X386027255Y-10417414D01*
X386027255Y-10417414D02*
X386089160Y-10541223D01*
X386089160Y-10541223D02*
X386089160Y-10603128D01*
X386089160Y-10603128D02*
X386027255Y-10726938D01*
X386027255Y-10726938D02*
X385965350Y-10788842D01*
X385965350Y-10788842D02*
X385841541Y-10850747D01*
X385841541Y-10850747D02*
X385593922Y-10850747D01*
X385593922Y-10850747D02*
X385470112Y-10912652D01*
X385470112Y-10912652D02*
X385408207Y-10974557D01*
X385408207Y-10974557D02*
X385346303Y-11098366D01*
X385346303Y-11098366D02*
X385346303Y-11345985D01*
X385346303Y-11345985D02*
X385408207Y-11469795D01*
X385408207Y-11469795D02*
X385470112Y-11531700D01*
X385470112Y-11531700D02*
X385593922Y-11593604D01*
X385593922Y-11593604D02*
X385841541Y-11593604D01*
X385841541Y-11593604D02*
X385965350Y-11531700D01*
X385965350Y-11531700D02*
X386027255Y-11469795D01*
X386027255Y-11469795D02*
X386089160Y-11345985D01*
X386089160Y-11345985D02*
X386089160Y-11098366D01*
X386089160Y-11098366D02*
X386027255Y-10974557D01*
X386027255Y-10974557D02*
X385965350Y-10912652D01*
X385965350Y-10912652D02*
X385841541Y-10850747D01*
D10*
D11*
X60000000Y-267400000D02*
X60000000Y-269400000D01*
D10*
D11*
X110000000Y-267400000D02*
X110000000Y-269400000D01*
D10*
D11*
X160000000Y-267400000D02*
X160000000Y-269400000D01*
D10*
D11*
X210000000Y-267400000D02*
X210000000Y-269400000D01*
D10*
D11*
X260000000Y-267400000D02*
X260000000Y-269400000D01*
D10*
D11*
X310000000Y-267400000D02*
X310000000Y-269400000D01*
D10*
D11*
X360000000Y-267400000D02*
X360000000Y-269400000D01*
D10*
D11*
X410000000Y-267400000D02*
X410000000Y-269400000D01*
D10*
D11*
X36089160Y-268993604D02*
X35346303Y-268993604D01*
X35717731Y-268993604D02*
X35717731Y-267693604D01*
X35717731Y-267693604D02*
X35593922Y-267879319D01*
X35593922Y-267879319D02*
X35470112Y-268003128D01*
X35470112Y-268003128D02*
X35346303Y-268065033D01*
D10*
D11*
X85346303Y-267817414D02*
X85408207Y-267755509D01*
X85408207Y-267755509D02*
X85532017Y-267693604D01*
X85532017Y-267693604D02*
X85841541Y-267693604D01*
X85841541Y-267693604D02*
X85965350Y-267755509D01*
X85965350Y-267755509D02*
X86027255Y-267817414D01*
X86027255Y-267817414D02*
X86089160Y-267941223D01*
X86089160Y-267941223D02*
X86089160Y-268065033D01*
X86089160Y-268065033D02*
X86027255Y-268250747D01*
X86027255Y-268250747D02*
X85284398Y-268993604D01*
X85284398Y-268993604D02*
X86089160Y-268993604D01*
D10*
D11*
X135284398Y-267693604D02*
X136089160Y-267693604D01*
X136089160Y-267693604D02*
X135655826Y-268188842D01*
X135655826Y-268188842D02*
X135841541Y-268188842D01*
X135841541Y-268188842D02*
X135965350Y-268250747D01*
X135965350Y-268250747D02*
X136027255Y-268312652D01*
X136027255Y-268312652D02*
X136089160Y-268436461D01*
X136089160Y-268436461D02*
X136089160Y-268745985D01*
X136089160Y-268745985D02*
X136027255Y-268869795D01*
X136027255Y-268869795D02*
X135965350Y-268931700D01*
X135965350Y-268931700D02*
X135841541Y-268993604D01*
X135841541Y-268993604D02*
X135470112Y-268993604D01*
X135470112Y-268993604D02*
X135346303Y-268931700D01*
X135346303Y-268931700D02*
X135284398Y-268869795D01*
D10*
D11*
X185965350Y-268126938D02*
X185965350Y-268993604D01*
X185655826Y-267631700D02*
X185346303Y-268560271D01*
X185346303Y-268560271D02*
X186151064Y-268560271D01*
D10*
D11*
X236027255Y-267693604D02*
X235408207Y-267693604D01*
X235408207Y-267693604D02*
X235346303Y-268312652D01*
X235346303Y-268312652D02*
X235408207Y-268250747D01*
X235408207Y-268250747D02*
X235532017Y-268188842D01*
X235532017Y-268188842D02*
X235841541Y-268188842D01*
X235841541Y-268188842D02*
X235965350Y-268250747D01*
X235965350Y-268250747D02*
X236027255Y-268312652D01*
X236027255Y-268312652D02*
X236089160Y-268436461D01*
X236089160Y-268436461D02*
X236089160Y-268745985D01*
X236089160Y-268745985D02*
X236027255Y-268869795D01*
X236027255Y-268869795D02*
X235965350Y-268931700D01*
X235965350Y-268931700D02*
X235841541Y-268993604D01*
X235841541Y-268993604D02*
X235532017Y-268993604D01*
X235532017Y-268993604D02*
X235408207Y-268931700D01*
X235408207Y-268931700D02*
X235346303Y-268869795D01*
D10*
D11*
X285965350Y-267693604D02*
X285717731Y-267693604D01*
X285717731Y-267693604D02*
X285593922Y-267755509D01*
X285593922Y-267755509D02*
X285532017Y-267817414D01*
X285532017Y-267817414D02*
X285408207Y-268003128D01*
X285408207Y-268003128D02*
X285346303Y-268250747D01*
X285346303Y-268250747D02*
X285346303Y-268745985D01*
X285346303Y-268745985D02*
X285408207Y-268869795D01*
X285408207Y-268869795D02*
X285470112Y-268931700D01*
X285470112Y-268931700D02*
X285593922Y-268993604D01*
X285593922Y-268993604D02*
X285841541Y-268993604D01*
X285841541Y-268993604D02*
X285965350Y-268931700D01*
X285965350Y-268931700D02*
X286027255Y-268869795D01*
X286027255Y-268869795D02*
X286089160Y-268745985D01*
X286089160Y-268745985D02*
X286089160Y-268436461D01*
X286089160Y-268436461D02*
X286027255Y-268312652D01*
X286027255Y-268312652D02*
X285965350Y-268250747D01*
X285965350Y-268250747D02*
X285841541Y-268188842D01*
X285841541Y-268188842D02*
X285593922Y-268188842D01*
X285593922Y-268188842D02*
X285470112Y-268250747D01*
X285470112Y-268250747D02*
X285408207Y-268312652D01*
X285408207Y-268312652D02*
X285346303Y-268436461D01*
D10*
D11*
X335284398Y-267693604D02*
X336151064Y-267693604D01*
X336151064Y-267693604D02*
X335593922Y-268993604D01*
D10*
D11*
X385593922Y-268250747D02*
X385470112Y-268188842D01*
X385470112Y-268188842D02*
X385408207Y-268126938D01*
X385408207Y-268126938D02*
X385346303Y-268003128D01*
X385346303Y-268003128D02*
X385346303Y-267941223D01*
X385346303Y-267941223D02*
X385408207Y-267817414D01*
X385408207Y-267817414D02*
X385470112Y-267755509D01*
X385470112Y-267755509D02*
X385593922Y-267693604D01*
X385593922Y-267693604D02*
X385841541Y-267693604D01*
X385841541Y-267693604D02*
X385965350Y-267755509D01*
X385965350Y-267755509D02*
X386027255Y-267817414D01*
X386027255Y-267817414D02*
X386089160Y-267941223D01*
X386089160Y-267941223D02*
X386089160Y-268003128D01*
X386089160Y-268003128D02*
X386027255Y-268126938D01*
X386027255Y-268126938D02*
X385965350Y-268188842D01*
X385965350Y-268188842D02*
X385841541Y-268250747D01*
X385841541Y-268250747D02*
X385593922Y-268250747D01*
X385593922Y-268250747D02*
X385470112Y-268312652D01*
X385470112Y-268312652D02*
X385408207Y-268374557D01*
X385408207Y-268374557D02*
X385346303Y-268498366D01*
X385346303Y-268498366D02*
X385346303Y-268745985D01*
X385346303Y-268745985D02*
X385408207Y-268869795D01*
X385408207Y-268869795D02*
X385470112Y-268931700D01*
X385470112Y-268931700D02*
X385593922Y-268993604D01*
X385593922Y-268993604D02*
X385841541Y-268993604D01*
X385841541Y-268993604D02*
X385965350Y-268931700D01*
X385965350Y-268931700D02*
X386027255Y-268869795D01*
X386027255Y-268869795D02*
X386089160Y-268745985D01*
X386089160Y-268745985D02*
X386089160Y-268498366D01*
X386089160Y-268498366D02*
X386027255Y-268374557D01*
X386027255Y-268374557D02*
X385965350Y-268312652D01*
X385965350Y-268312652D02*
X385841541Y-268250747D01*
D10*
D11*
X10000000Y-60000000D02*
X12000000Y-60000000D01*
D10*
D11*
X10000000Y-110000000D02*
X12000000Y-110000000D01*
D10*
D11*
X10000000Y-160000000D02*
X12000000Y-160000000D01*
D10*
D11*
X10000000Y-210000000D02*
X12000000Y-210000000D01*
D10*
D11*
X10000000Y-260000000D02*
X12000000Y-260000000D01*
D10*
D11*
X10690476Y-35222176D02*
X11309523Y-35222176D01*
X10566666Y-35593604D02*
X10999999Y-34293604D01*
X10999999Y-34293604D02*
X11433333Y-35593604D01*
D10*
D11*
X11092857Y-84912652D02*
X11278571Y-84974557D01*
X11278571Y-84974557D02*
X11340476Y-85036461D01*
X11340476Y-85036461D02*
X11402380Y-85160271D01*
X11402380Y-85160271D02*
X11402380Y-85345985D01*
X11402380Y-85345985D02*
X11340476Y-85469795D01*
X11340476Y-85469795D02*
X11278571Y-85531700D01*
X11278571Y-85531700D02*
X11154761Y-85593604D01*
X11154761Y-85593604D02*
X10659523Y-85593604D01*
X10659523Y-85593604D02*
X10659523Y-84293604D01*
X10659523Y-84293604D02*
X11092857Y-84293604D01*
X11092857Y-84293604D02*
X11216666Y-84355509D01*
X11216666Y-84355509D02*
X11278571Y-84417414D01*
X11278571Y-84417414D02*
X11340476Y-84541223D01*
X11340476Y-84541223D02*
X11340476Y-84665033D01*
X11340476Y-84665033D02*
X11278571Y-84788842D01*
X11278571Y-84788842D02*
X11216666Y-84850747D01*
X11216666Y-84850747D02*
X11092857Y-84912652D01*
X11092857Y-84912652D02*
X10659523Y-84912652D01*
D10*
D11*
X11402380Y-135469795D02*
X11340476Y-135531700D01*
X11340476Y-135531700D02*
X11154761Y-135593604D01*
X11154761Y-135593604D02*
X11030952Y-135593604D01*
X11030952Y-135593604D02*
X10845238Y-135531700D01*
X10845238Y-135531700D02*
X10721428Y-135407890D01*
X10721428Y-135407890D02*
X10659523Y-135284080D01*
X10659523Y-135284080D02*
X10597619Y-135036461D01*
X10597619Y-135036461D02*
X10597619Y-134850747D01*
X10597619Y-134850747D02*
X10659523Y-134603128D01*
X10659523Y-134603128D02*
X10721428Y-134479319D01*
X10721428Y-134479319D02*
X10845238Y-134355509D01*
X10845238Y-134355509D02*
X11030952Y-134293604D01*
X11030952Y-134293604D02*
X11154761Y-134293604D01*
X11154761Y-134293604D02*
X11340476Y-134355509D01*
X11340476Y-134355509D02*
X11402380Y-134417414D01*
D10*
D11*
X10659523Y-185593604D02*
X10659523Y-184293604D01*
X10659523Y-184293604D02*
X10969047Y-184293604D01*
X10969047Y-184293604D02*
X11154761Y-184355509D01*
X11154761Y-184355509D02*
X11278571Y-184479319D01*
X11278571Y-184479319D02*
X11340476Y-184603128D01*
X11340476Y-184603128D02*
X11402380Y-184850747D01*
X11402380Y-184850747D02*
X11402380Y-185036461D01*
X11402380Y-185036461D02*
X11340476Y-185284080D01*
X11340476Y-185284080D02*
X11278571Y-185407890D01*
X11278571Y-185407890D02*
X11154761Y-185531700D01*
X11154761Y-185531700D02*
X10969047Y-185593604D01*
X10969047Y-185593604D02*
X10659523Y-185593604D01*
D10*
D11*
X10721428Y-234912652D02*
X11154762Y-234912652D01*
X11340476Y-235593604D02*
X10721428Y-235593604D01*
X10721428Y-235593604D02*
X10721428Y-234293604D01*
X10721428Y-234293604D02*
X11340476Y-234293604D01*
D10*
D11*
X421800000Y-60000000D02*
X419800000Y-60000000D01*
D10*
D11*
X421800000Y-110000000D02*
X419800000Y-110000000D01*
D10*
D11*
X421800000Y-160000000D02*
X419800000Y-160000000D01*
D10*
D11*
X421800000Y-210000000D02*
X419800000Y-210000000D01*
D10*
D11*
X421800000Y-260000000D02*
X419800000Y-260000000D01*
D10*
D11*
X420490476Y-35222176D02*
X421109523Y-35222176D01*
X420366666Y-35593604D02*
X420799999Y-34293604D01*
X420799999Y-34293604D02*
X421233333Y-35593604D01*
D10*
D11*
X420892857Y-84912652D02*
X421078571Y-84974557D01*
X421078571Y-84974557D02*
X421140476Y-85036461D01*
X421140476Y-85036461D02*
X421202380Y-85160271D01*
X421202380Y-85160271D02*
X421202380Y-85345985D01*
X421202380Y-85345985D02*
X421140476Y-85469795D01*
X421140476Y-85469795D02*
X421078571Y-85531700D01*
X421078571Y-85531700D02*
X420954761Y-85593604D01*
X420954761Y-85593604D02*
X420459523Y-85593604D01*
X420459523Y-85593604D02*
X420459523Y-84293604D01*
X420459523Y-84293604D02*
X420892857Y-84293604D01*
X420892857Y-84293604D02*
X421016666Y-84355509D01*
X421016666Y-84355509D02*
X421078571Y-84417414D01*
X421078571Y-84417414D02*
X421140476Y-84541223D01*
X421140476Y-84541223D02*
X421140476Y-84665033D01*
X421140476Y-84665033D02*
X421078571Y-84788842D01*
X421078571Y-84788842D02*
X421016666Y-84850747D01*
X421016666Y-84850747D02*
X420892857Y-84912652D01*
X420892857Y-84912652D02*
X420459523Y-84912652D01*
D10*
D11*
X421202380Y-135469795D02*
X421140476Y-135531700D01*
X421140476Y-135531700D02*
X420954761Y-135593604D01*
X420954761Y-135593604D02*
X420830952Y-135593604D01*
X420830952Y-135593604D02*
X420645238Y-135531700D01*
X420645238Y-135531700D02*
X420521428Y-135407890D01*
X420521428Y-135407890D02*
X420459523Y-135284080D01*
X420459523Y-135284080D02*
X420397619Y-135036461D01*
X420397619Y-135036461D02*
X420397619Y-134850747D01*
X420397619Y-134850747D02*
X420459523Y-134603128D01*
X420459523Y-134603128D02*
X420521428Y-134479319D01*
X420521428Y-134479319D02*
X420645238Y-134355509D01*
X420645238Y-134355509D02*
X420830952Y-134293604D01*
X420830952Y-134293604D02*
X420954761Y-134293604D01*
X420954761Y-134293604D02*
X421140476Y-134355509D01*
X421140476Y-134355509D02*
X421202380Y-134417414D01*
D10*
D11*
X420459523Y-185593604D02*
X420459523Y-184293604D01*
X420459523Y-184293604D02*
X420769047Y-184293604D01*
X420769047Y-184293604D02*
X420954761Y-184355509D01*
X420954761Y-184355509D02*
X421078571Y-184479319D01*
X421078571Y-184479319D02*
X421140476Y-184603128D01*
X421140476Y-184603128D02*
X421202380Y-184850747D01*
X421202380Y-184850747D02*
X421202380Y-185036461D01*
X421202380Y-185036461D02*
X421140476Y-185284080D01*
X421140476Y-185284080D02*
X421078571Y-185407890D01*
X421078571Y-185407890D02*
X420954761Y-185531700D01*
X420954761Y-185531700D02*
X420769047Y-185593604D01*
X420769047Y-185593604D02*
X420459523Y-185593604D01*
D10*
D11*
X420521428Y-234912652D02*
X420954762Y-234912652D01*
X421140476Y-235593604D02*
X420521428Y-235593604D01*
X420521428Y-235593604D02*
X420521428Y-234293604D01*
X420521428Y-234293604D02*
X421140476Y-234293604D01*
D10*
D11*
X335255826Y-263186128D02*
X335255826Y-261686128D01*
X335255826Y-261686128D02*
X335612969Y-261686128D01*
X335612969Y-261686128D02*
X335827255Y-261757557D01*
X335827255Y-261757557D02*
X335970112Y-261900414D01*
X335970112Y-261900414D02*
X336041541Y-262043271D01*
X336041541Y-262043271D02*
X336112969Y-262328985D01*
X336112969Y-262328985D02*
X336112969Y-262543271D01*
X336112969Y-262543271D02*
X336041541Y-262828985D01*
X336041541Y-262828985D02*
X335970112Y-262971842D01*
X335970112Y-262971842D02*
X335827255Y-263114700D01*
X335827255Y-263114700D02*
X335612969Y-263186128D01*
X335612969Y-263186128D02*
X335255826Y-263186128D01*
X337398684Y-263186128D02*
X337398684Y-262400414D01*
X337398684Y-262400414D02*
X337327255Y-262257557D01*
X337327255Y-262257557D02*
X337184398Y-262186128D01*
X337184398Y-262186128D02*
X336898684Y-262186128D01*
X336898684Y-262186128D02*
X336755826Y-262257557D01*
X337398684Y-263114700D02*
X337255826Y-263186128D01*
X337255826Y-263186128D02*
X336898684Y-263186128D01*
X336898684Y-263186128D02*
X336755826Y-263114700D01*
X336755826Y-263114700D02*
X336684398Y-262971842D01*
X336684398Y-262971842D02*
X336684398Y-262828985D01*
X336684398Y-262828985D02*
X336755826Y-262686128D01*
X336755826Y-262686128D02*
X336898684Y-262614700D01*
X336898684Y-262614700D02*
X337255826Y-262614700D01*
X337255826Y-262614700D02*
X337398684Y-262543271D01*
X337898684Y-262186128D02*
X338470112Y-262186128D01*
X338112969Y-261686128D02*
X338112969Y-262971842D01*
X338112969Y-262971842D02*
X338184398Y-263114700D01*
X338184398Y-263114700D02*
X338327255Y-263186128D01*
X338327255Y-263186128D02*
X338470112Y-263186128D01*
X339541541Y-263114700D02*
X339398684Y-263186128D01*
X339398684Y-263186128D02*
X339112970Y-263186128D01*
X339112970Y-263186128D02*
X338970112Y-263114700D01*
X338970112Y-263114700D02*
X338898684Y-262971842D01*
X338898684Y-262971842D02*
X338898684Y-262400414D01*
X338898684Y-262400414D02*
X338970112Y-262257557D01*
X338970112Y-262257557D02*
X339112970Y-262186128D01*
X339112970Y-262186128D02*
X339398684Y-262186128D01*
X339398684Y-262186128D02*
X339541541Y-262257557D01*
X339541541Y-262257557D02*
X339612970Y-262400414D01*
X339612970Y-262400414D02*
X339612970Y-262543271D01*
X339612970Y-262543271D02*
X338898684Y-262686128D01*
X340255826Y-263043271D02*
X340327255Y-263114700D01*
X340327255Y-263114700D02*
X340255826Y-263186128D01*
X340255826Y-263186128D02*
X340184398Y-263114700D01*
X340184398Y-263114700D02*
X340255826Y-263043271D01*
X340255826Y-263043271D02*
X340255826Y-263186128D01*
X340255826Y-262257557D02*
X340327255Y-262328985D01*
X340327255Y-262328985D02*
X340255826Y-262400414D01*
X340255826Y-262400414D02*
X340184398Y-262328985D01*
X340184398Y-262328985D02*
X340255826Y-262257557D01*
X340255826Y-262257557D02*
X340255826Y-262400414D01*
X342041541Y-261828985D02*
X342112969Y-261757557D01*
X342112969Y-261757557D02*
X342255827Y-261686128D01*
X342255827Y-261686128D02*
X342612969Y-261686128D01*
X342612969Y-261686128D02*
X342755827Y-261757557D01*
X342755827Y-261757557D02*
X342827255Y-261828985D01*
X342827255Y-261828985D02*
X342898684Y-261971842D01*
X342898684Y-261971842D02*
X342898684Y-262114700D01*
X342898684Y-262114700D02*
X342827255Y-262328985D01*
X342827255Y-262328985D02*
X341970112Y-263186128D01*
X341970112Y-263186128D02*
X342898684Y-263186128D01*
X343827255Y-261686128D02*
X343970112Y-261686128D01*
X343970112Y-261686128D02*
X344112969Y-261757557D01*
X344112969Y-261757557D02*
X344184398Y-261828985D01*
X344184398Y-261828985D02*
X344255826Y-261971842D01*
X344255826Y-261971842D02*
X344327255Y-262257557D01*
X344327255Y-262257557D02*
X344327255Y-262614700D01*
X344327255Y-262614700D02*
X344255826Y-262900414D01*
X344255826Y-262900414D02*
X344184398Y-263043271D01*
X344184398Y-263043271D02*
X344112969Y-263114700D01*
X344112969Y-263114700D02*
X343970112Y-263186128D01*
X343970112Y-263186128D02*
X343827255Y-263186128D01*
X343827255Y-263186128D02*
X343684398Y-263114700D01*
X343684398Y-263114700D02*
X343612969Y-263043271D01*
X343612969Y-263043271D02*
X343541540Y-262900414D01*
X343541540Y-262900414D02*
X343470112Y-262614700D01*
X343470112Y-262614700D02*
X343470112Y-262257557D01*
X343470112Y-262257557D02*
X343541540Y-261971842D01*
X343541540Y-261971842D02*
X343612969Y-261828985D01*
X343612969Y-261828985D02*
X343684398Y-261757557D01*
X343684398Y-261757557D02*
X343827255Y-261686128D01*
X344898683Y-261828985D02*
X344970111Y-261757557D01*
X344970111Y-261757557D02*
X345112969Y-261686128D01*
X345112969Y-261686128D02*
X345470111Y-261686128D01*
X345470111Y-261686128D02*
X345612969Y-261757557D01*
X345612969Y-261757557D02*
X345684397Y-261828985D01*
X345684397Y-261828985D02*
X345755826Y-261971842D01*
X345755826Y-261971842D02*
X345755826Y-262114700D01*
X345755826Y-262114700D02*
X345684397Y-262328985D01*
X345684397Y-262328985D02*
X344827254Y-263186128D01*
X344827254Y-263186128D02*
X345755826Y-263186128D01*
X347041540Y-262186128D02*
X347041540Y-263186128D01*
X346684397Y-261614700D02*
X346327254Y-262686128D01*
X346327254Y-262686128D02*
X347255825Y-262686128D01*
X347827253Y-262614700D02*
X348970111Y-262614700D01*
X349970111Y-261686128D02*
X350112968Y-261686128D01*
X350112968Y-261686128D02*
X350255825Y-261757557D01*
X350255825Y-261757557D02*
X350327254Y-261828985D01*
X350327254Y-261828985D02*
X350398682Y-261971842D01*
X350398682Y-261971842D02*
X350470111Y-262257557D01*
X350470111Y-262257557D02*
X350470111Y-262614700D01*
X350470111Y-262614700D02*
X350398682Y-262900414D01*
X350398682Y-262900414D02*
X350327254Y-263043271D01*
X350327254Y-263043271D02*
X350255825Y-263114700D01*
X350255825Y-263114700D02*
X350112968Y-263186128D01*
X350112968Y-263186128D02*
X349970111Y-263186128D01*
X349970111Y-263186128D02*
X349827254Y-263114700D01*
X349827254Y-263114700D02*
X349755825Y-263043271D01*
X349755825Y-263043271D02*
X349684396Y-262900414D01*
X349684396Y-262900414D02*
X349612968Y-262614700D01*
X349612968Y-262614700D02*
X349612968Y-262257557D01*
X349612968Y-262257557D02*
X349684396Y-261971842D01*
X349684396Y-261971842D02*
X349755825Y-261828985D01*
X349755825Y-261828985D02*
X349827254Y-261757557D01*
X349827254Y-261757557D02*
X349970111Y-261686128D01*
X351898682Y-263186128D02*
X351041539Y-263186128D01*
X351470110Y-263186128D02*
X351470110Y-261686128D01*
X351470110Y-261686128D02*
X351327253Y-261900414D01*
X351327253Y-261900414D02*
X351184396Y-262043271D01*
X351184396Y-262043271D02*
X351041539Y-262114700D01*
X352541538Y-262614700D02*
X353684396Y-262614700D01*
X354684396Y-261686128D02*
X354827253Y-261686128D01*
X354827253Y-261686128D02*
X354970110Y-261757557D01*
X354970110Y-261757557D02*
X355041539Y-261828985D01*
X355041539Y-261828985D02*
X355112967Y-261971842D01*
X355112967Y-261971842D02*
X355184396Y-262257557D01*
X355184396Y-262257557D02*
X355184396Y-262614700D01*
X355184396Y-262614700D02*
X355112967Y-262900414D01*
X355112967Y-262900414D02*
X355041539Y-263043271D01*
X355041539Y-263043271D02*
X354970110Y-263114700D01*
X354970110Y-263114700D02*
X354827253Y-263186128D01*
X354827253Y-263186128D02*
X354684396Y-263186128D01*
X354684396Y-263186128D02*
X354541539Y-263114700D01*
X354541539Y-263114700D02*
X354470110Y-263043271D01*
X354470110Y-263043271D02*
X354398681Y-262900414D01*
X354398681Y-262900414D02*
X354327253Y-262614700D01*
X354327253Y-262614700D02*
X354327253Y-262257557D01*
X354327253Y-262257557D02*
X354398681Y-261971842D01*
X354398681Y-261971842D02*
X354470110Y-261828985D01*
X354470110Y-261828985D02*
X354541539Y-261757557D01*
X354541539Y-261757557D02*
X354684396Y-261686128D01*
X356541538Y-261686128D02*
X355827252Y-261686128D01*
X355827252Y-261686128D02*
X355755824Y-262400414D01*
X355755824Y-262400414D02*
X355827252Y-262328985D01*
X355827252Y-262328985D02*
X355970110Y-262257557D01*
X355970110Y-262257557D02*
X356327252Y-262257557D01*
X356327252Y-262257557D02*
X356470110Y-262328985D01*
X356470110Y-262328985D02*
X356541538Y-262400414D01*
X356541538Y-262400414D02*
X356612967Y-262543271D01*
X356612967Y-262543271D02*
X356612967Y-262900414D01*
X356612967Y-262900414D02*
X356541538Y-263043271D01*
X356541538Y-263043271D02*
X356470110Y-263114700D01*
X356470110Y-263114700D02*
X356327252Y-263186128D01*
X356327252Y-263186128D02*
X355970110Y-263186128D01*
X355970110Y-263186128D02*
X355827252Y-263114700D01*
X355827252Y-263114700D02*
X355755824Y-263043271D01*
D10*
D11*
X311800000Y-263900000D02*
X419800000Y-263900000D01*
D10*
D11*
X313255826Y-265986128D02*
X313255826Y-264486128D01*
X314112969Y-265986128D02*
X313470112Y-265128985D01*
X314112969Y-264486128D02*
X313255826Y-265343271D01*
X314755826Y-265986128D02*
X314755826Y-264986128D01*
X314755826Y-264486128D02*
X314684398Y-264557557D01*
X314684398Y-264557557D02*
X314755826Y-264628985D01*
X314755826Y-264628985D02*
X314827255Y-264557557D01*
X314827255Y-264557557D02*
X314755826Y-264486128D01*
X314755826Y-264486128D02*
X314755826Y-264628985D01*
X316327255Y-265843271D02*
X316255827Y-265914700D01*
X316255827Y-265914700D02*
X316041541Y-265986128D01*
X316041541Y-265986128D02*
X315898684Y-265986128D01*
X315898684Y-265986128D02*
X315684398Y-265914700D01*
X315684398Y-265914700D02*
X315541541Y-265771842D01*
X315541541Y-265771842D02*
X315470112Y-265628985D01*
X315470112Y-265628985D02*
X315398684Y-265343271D01*
X315398684Y-265343271D02*
X315398684Y-265128985D01*
X315398684Y-265128985D02*
X315470112Y-264843271D01*
X315470112Y-264843271D02*
X315541541Y-264700414D01*
X315541541Y-264700414D02*
X315684398Y-264557557D01*
X315684398Y-264557557D02*
X315898684Y-264486128D01*
X315898684Y-264486128D02*
X316041541Y-264486128D01*
X316041541Y-264486128D02*
X316255827Y-264557557D01*
X316255827Y-264557557D02*
X316327255Y-264628985D01*
X317612970Y-265986128D02*
X317612970Y-265200414D01*
X317612970Y-265200414D02*
X317541541Y-265057557D01*
X317541541Y-265057557D02*
X317398684Y-264986128D01*
X317398684Y-264986128D02*
X317112970Y-264986128D01*
X317112970Y-264986128D02*
X316970112Y-265057557D01*
X317612970Y-265914700D02*
X317470112Y-265986128D01*
X317470112Y-265986128D02*
X317112970Y-265986128D01*
X317112970Y-265986128D02*
X316970112Y-265914700D01*
X316970112Y-265914700D02*
X316898684Y-265771842D01*
X316898684Y-265771842D02*
X316898684Y-265628985D01*
X316898684Y-265628985D02*
X316970112Y-265486128D01*
X316970112Y-265486128D02*
X317112970Y-265414700D01*
X317112970Y-265414700D02*
X317470112Y-265414700D01*
X317470112Y-265414700D02*
X317612970Y-265343271D01*
X318970113Y-265986128D02*
X318970113Y-264486128D01*
X318970113Y-265914700D02*
X318827255Y-265986128D01*
X318827255Y-265986128D02*
X318541541Y-265986128D01*
X318541541Y-265986128D02*
X318398684Y-265914700D01*
X318398684Y-265914700D02*
X318327255Y-265843271D01*
X318327255Y-265843271D02*
X318255827Y-265700414D01*
X318255827Y-265700414D02*
X318255827Y-265271842D01*
X318255827Y-265271842D02*
X318327255Y-265128985D01*
X318327255Y-265128985D02*
X318398684Y-265057557D01*
X318398684Y-265057557D02*
X318541541Y-264986128D01*
X318541541Y-264986128D02*
X318827255Y-264986128D01*
X318827255Y-264986128D02*
X318970113Y-265057557D01*
X320827255Y-265200414D02*
X321327255Y-265200414D01*
X321541541Y-265986128D02*
X320827255Y-265986128D01*
X320827255Y-265986128D02*
X320827255Y-264486128D01*
X320827255Y-264486128D02*
X321541541Y-264486128D01*
X322184398Y-265843271D02*
X322255827Y-265914700D01*
X322255827Y-265914700D02*
X322184398Y-265986128D01*
X322184398Y-265986128D02*
X322112970Y-265914700D01*
X322112970Y-265914700D02*
X322184398Y-265843271D01*
X322184398Y-265843271D02*
X322184398Y-265986128D01*
X322898684Y-265986128D02*
X322898684Y-264486128D01*
X322898684Y-264486128D02*
X323255827Y-264486128D01*
X323255827Y-264486128D02*
X323470113Y-264557557D01*
X323470113Y-264557557D02*
X323612970Y-264700414D01*
X323612970Y-264700414D02*
X323684399Y-264843271D01*
X323684399Y-264843271D02*
X323755827Y-265128985D01*
X323755827Y-265128985D02*
X323755827Y-265343271D01*
X323755827Y-265343271D02*
X323684399Y-265628985D01*
X323684399Y-265628985D02*
X323612970Y-265771842D01*
X323612970Y-265771842D02*
X323470113Y-265914700D01*
X323470113Y-265914700D02*
X323255827Y-265986128D01*
X323255827Y-265986128D02*
X322898684Y-265986128D01*
X324398684Y-265843271D02*
X324470113Y-265914700D01*
X324470113Y-265914700D02*
X324398684Y-265986128D01*
X324398684Y-265986128D02*
X324327256Y-265914700D01*
X324327256Y-265914700D02*
X324398684Y-265843271D01*
X324398684Y-265843271D02*
X324398684Y-265986128D01*
X325041542Y-265557557D02*
X325755828Y-265557557D01*
X324898685Y-265986128D02*
X325398685Y-264486128D01*
X325398685Y-264486128D02*
X325898685Y-265986128D01*
X326398684Y-265843271D02*
X326470113Y-265914700D01*
X326470113Y-265914700D02*
X326398684Y-265986128D01*
X326398684Y-265986128D02*
X326327256Y-265914700D01*
X326327256Y-265914700D02*
X326398684Y-265843271D01*
X326398684Y-265843271D02*
X326398684Y-265986128D01*
X329398684Y-265986128D02*
X329398684Y-264486128D01*
X329541542Y-265414700D02*
X329970113Y-265986128D01*
X329970113Y-264986128D02*
X329398684Y-265557557D01*
X330612970Y-265986128D02*
X330612970Y-264986128D01*
X330612970Y-264486128D02*
X330541542Y-264557557D01*
X330541542Y-264557557D02*
X330612970Y-264628985D01*
X330612970Y-264628985D02*
X330684399Y-264557557D01*
X330684399Y-264557557D02*
X330612970Y-264486128D01*
X330612970Y-264486128D02*
X330612970Y-264628985D01*
X331970114Y-265914700D02*
X331827256Y-265986128D01*
X331827256Y-265986128D02*
X331541542Y-265986128D01*
X331541542Y-265986128D02*
X331398685Y-265914700D01*
X331398685Y-265914700D02*
X331327256Y-265843271D01*
X331327256Y-265843271D02*
X331255828Y-265700414D01*
X331255828Y-265700414D02*
X331255828Y-265271842D01*
X331255828Y-265271842D02*
X331327256Y-265128985D01*
X331327256Y-265128985D02*
X331398685Y-265057557D01*
X331398685Y-265057557D02*
X331541542Y-264986128D01*
X331541542Y-264986128D02*
X331827256Y-264986128D01*
X331827256Y-264986128D02*
X331970114Y-265057557D01*
X333255828Y-265986128D02*
X333255828Y-265200414D01*
X333255828Y-265200414D02*
X333184399Y-265057557D01*
X333184399Y-265057557D02*
X333041542Y-264986128D01*
X333041542Y-264986128D02*
X332755828Y-264986128D01*
X332755828Y-264986128D02*
X332612970Y-265057557D01*
X333255828Y-265914700D02*
X333112970Y-265986128D01*
X333112970Y-265986128D02*
X332755828Y-265986128D01*
X332755828Y-265986128D02*
X332612970Y-265914700D01*
X332612970Y-265914700D02*
X332541542Y-265771842D01*
X332541542Y-265771842D02*
X332541542Y-265628985D01*
X332541542Y-265628985D02*
X332612970Y-265486128D01*
X332612970Y-265486128D02*
X332755828Y-265414700D01*
X332755828Y-265414700D02*
X333112970Y-265414700D01*
X333112970Y-265414700D02*
X333255828Y-265343271D01*
X334612971Y-265986128D02*
X334612971Y-264486128D01*
X334612971Y-265914700D02*
X334470113Y-265986128D01*
X334470113Y-265986128D02*
X334184399Y-265986128D01*
X334184399Y-265986128D02*
X334041542Y-265914700D01*
X334041542Y-265914700D02*
X333970113Y-265843271D01*
X333970113Y-265843271D02*
X333898685Y-265700414D01*
X333898685Y-265700414D02*
X333898685Y-265271842D01*
X333898685Y-265271842D02*
X333970113Y-265128985D01*
X333970113Y-265128985D02*
X334041542Y-265057557D01*
X334041542Y-265057557D02*
X334184399Y-264986128D01*
X334184399Y-264986128D02*
X334470113Y-264986128D01*
X334470113Y-264986128D02*
X334612971Y-265057557D01*
X336327256Y-264486128D02*
X337327256Y-264486128D01*
X337327256Y-264486128D02*
X336684399Y-265986128D01*
X337898684Y-265843271D02*
X337970113Y-265914700D01*
X337970113Y-265914700D02*
X337898684Y-265986128D01*
X337898684Y-265986128D02*
X337827256Y-265914700D01*
X337827256Y-265914700D02*
X337898684Y-265843271D01*
X337898684Y-265843271D02*
X337898684Y-265986128D01*
X338898685Y-264486128D02*
X339041542Y-264486128D01*
X339041542Y-264486128D02*
X339184399Y-264557557D01*
X339184399Y-264557557D02*
X339255828Y-264628985D01*
X339255828Y-264628985D02*
X339327256Y-264771842D01*
X339327256Y-264771842D02*
X339398685Y-265057557D01*
X339398685Y-265057557D02*
X339398685Y-265414700D01*
X339398685Y-265414700D02*
X339327256Y-265700414D01*
X339327256Y-265700414D02*
X339255828Y-265843271D01*
X339255828Y-265843271D02*
X339184399Y-265914700D01*
X339184399Y-265914700D02*
X339041542Y-265986128D01*
X339041542Y-265986128D02*
X338898685Y-265986128D01*
X338898685Y-265986128D02*
X338755828Y-265914700D01*
X338755828Y-265914700D02*
X338684399Y-265843271D01*
X338684399Y-265843271D02*
X338612970Y-265700414D01*
X338612970Y-265700414D02*
X338541542Y-265414700D01*
X338541542Y-265414700D02*
X338541542Y-265057557D01*
X338541542Y-265057557D02*
X338612970Y-264771842D01*
X338612970Y-264771842D02*
X338684399Y-264628985D01*
X338684399Y-264628985D02*
X338755828Y-264557557D01*
X338755828Y-264557557D02*
X338898685Y-264486128D01*
X340041541Y-265843271D02*
X340112970Y-265914700D01*
X340112970Y-265914700D02*
X340041541Y-265986128D01*
X340041541Y-265986128D02*
X339970113Y-265914700D01*
X339970113Y-265914700D02*
X340041541Y-265843271D01*
X340041541Y-265843271D02*
X340041541Y-265986128D01*
X340612970Y-264486128D02*
X341612970Y-264486128D01*
X341612970Y-264486128D02*
X340970113Y-265986128D01*
D10*
D11*
X311800000Y-260900000D02*
X419800000Y-260900000D01*
D10*
D12*
X399211653Y-263178328D02*
X398711653Y-262464042D01*
X398354510Y-263178328D02*
X398354510Y-261678328D01*
X398354510Y-261678328D02*
X398925939Y-261678328D01*
X398925939Y-261678328D02*
X399068796Y-261749757D01*
X399068796Y-261749757D02*
X399140225Y-261821185D01*
X399140225Y-261821185D02*
X399211653Y-261964042D01*
X399211653Y-261964042D02*
X399211653Y-262178328D01*
X399211653Y-262178328D02*
X399140225Y-262321185D01*
X399140225Y-262321185D02*
X399068796Y-262392614D01*
X399068796Y-262392614D02*
X398925939Y-262464042D01*
X398925939Y-262464042D02*
X398354510Y-262464042D01*
X400425939Y-263106900D02*
X400283082Y-263178328D01*
X400283082Y-263178328D02*
X399997368Y-263178328D01*
X399997368Y-263178328D02*
X399854510Y-263106900D01*
X399854510Y-263106900D02*
X399783082Y-262964042D01*
X399783082Y-262964042D02*
X399783082Y-262392614D01*
X399783082Y-262392614D02*
X399854510Y-262249757D01*
X399854510Y-262249757D02*
X399997368Y-262178328D01*
X399997368Y-262178328D02*
X400283082Y-262178328D01*
X400283082Y-262178328D02*
X400425939Y-262249757D01*
X400425939Y-262249757D02*
X400497368Y-262392614D01*
X400497368Y-262392614D02*
X400497368Y-262535471D01*
X400497368Y-262535471D02*
X399783082Y-262678328D01*
X400997367Y-262178328D02*
X401354510Y-263178328D01*
X401354510Y-263178328D02*
X401711653Y-262178328D01*
X402283081Y-263035471D02*
X402354510Y-263106900D01*
X402354510Y-263106900D02*
X402283081Y-263178328D01*
X402283081Y-263178328D02*
X402211653Y-263106900D01*
X402211653Y-263106900D02*
X402283081Y-263035471D01*
X402283081Y-263035471D02*
X402283081Y-263178328D01*
X402283081Y-262249757D02*
X402354510Y-262321185D01*
X402354510Y-262321185D02*
X402283081Y-262392614D01*
X402283081Y-262392614D02*
X402211653Y-262321185D01*
X402211653Y-262321185D02*
X402283081Y-262249757D01*
X402283081Y-262249757D02*
X402283081Y-262392614D01*
X404640224Y-262392614D02*
X404854510Y-262464042D01*
X404854510Y-262464042D02*
X404925939Y-262535471D01*
X404925939Y-262535471D02*
X404997367Y-262678328D01*
X404997367Y-262678328D02*
X404997367Y-262892614D01*
X404997367Y-262892614D02*
X404925939Y-263035471D01*
X404925939Y-263035471D02*
X404854510Y-263106900D01*
X404854510Y-263106900D02*
X404711653Y-263178328D01*
X404711653Y-263178328D02*
X404140224Y-263178328D01*
X404140224Y-263178328D02*
X404140224Y-261678328D01*
X404140224Y-261678328D02*
X404640224Y-261678328D01*
X404640224Y-261678328D02*
X404783082Y-261749757D01*
X404783082Y-261749757D02*
X404854510Y-261821185D01*
X404854510Y-261821185D02*
X404925939Y-261964042D01*
X404925939Y-261964042D02*
X404925939Y-262106900D01*
X404925939Y-262106900D02*
X404854510Y-262249757D01*
X404854510Y-262249757D02*
X404783082Y-262321185D01*
X404783082Y-262321185D02*
X404640224Y-262392614D01*
X404640224Y-262392614D02*
X404140224Y-262392614D01*
D10*
D11*
X313184398Y-263114700D02*
X313398684Y-263186128D01*
X313398684Y-263186128D02*
X313755826Y-263186128D01*
X313755826Y-263186128D02*
X313898684Y-263114700D01*
X313898684Y-263114700D02*
X313970112Y-263043271D01*
X313970112Y-263043271D02*
X314041541Y-262900414D01*
X314041541Y-262900414D02*
X314041541Y-262757557D01*
X314041541Y-262757557D02*
X313970112Y-262614700D01*
X313970112Y-262614700D02*
X313898684Y-262543271D01*
X313898684Y-262543271D02*
X313755826Y-262471842D01*
X313755826Y-262471842D02*
X313470112Y-262400414D01*
X313470112Y-262400414D02*
X313327255Y-262328985D01*
X313327255Y-262328985D02*
X313255826Y-262257557D01*
X313255826Y-262257557D02*
X313184398Y-262114700D01*
X313184398Y-262114700D02*
X313184398Y-261971842D01*
X313184398Y-261971842D02*
X313255826Y-261828985D01*
X313255826Y-261828985D02*
X313327255Y-261757557D01*
X313327255Y-261757557D02*
X313470112Y-261686128D01*
X313470112Y-261686128D02*
X313827255Y-261686128D01*
X313827255Y-261686128D02*
X314041541Y-261757557D01*
X314684397Y-263186128D02*
X314684397Y-262186128D01*
X314684397Y-261686128D02*
X314612969Y-261757557D01*
X314612969Y-261757557D02*
X314684397Y-261828985D01*
X314684397Y-261828985D02*
X314755826Y-261757557D01*
X314755826Y-261757557D02*
X314684397Y-261686128D01*
X314684397Y-261686128D02*
X314684397Y-261828985D01*
X315255826Y-262186128D02*
X316041541Y-262186128D01*
X316041541Y-262186128D02*
X315255826Y-263186128D01*
X315255826Y-263186128D02*
X316041541Y-263186128D01*
X317184398Y-263114700D02*
X317041541Y-263186128D01*
X317041541Y-263186128D02*
X316755827Y-263186128D01*
X316755827Y-263186128D02*
X316612969Y-263114700D01*
X316612969Y-263114700D02*
X316541541Y-262971842D01*
X316541541Y-262971842D02*
X316541541Y-262400414D01*
X316541541Y-262400414D02*
X316612969Y-262257557D01*
X316612969Y-262257557D02*
X316755827Y-262186128D01*
X316755827Y-262186128D02*
X317041541Y-262186128D01*
X317041541Y-262186128D02*
X317184398Y-262257557D01*
X317184398Y-262257557D02*
X317255827Y-262400414D01*
X317255827Y-262400414D02*
X317255827Y-262543271D01*
X317255827Y-262543271D02*
X316541541Y-262686128D01*
X317898683Y-263043271D02*
X317970112Y-263114700D01*
X317970112Y-263114700D02*
X317898683Y-263186128D01*
X317898683Y-263186128D02*
X317827255Y-263114700D01*
X317827255Y-263114700D02*
X317898683Y-263043271D01*
X317898683Y-263043271D02*
X317898683Y-263186128D01*
X317898683Y-262257557D02*
X317970112Y-262328985D01*
X317970112Y-262328985D02*
X317898683Y-262400414D01*
X317898683Y-262400414D02*
X317827255Y-262328985D01*
X317827255Y-262328985D02*
X317898683Y-262257557D01*
X317898683Y-262257557D02*
X317898683Y-262400414D01*
X320255826Y-262400414D02*
X320470112Y-262471842D01*
X320470112Y-262471842D02*
X320541541Y-262543271D01*
X320541541Y-262543271D02*
X320612969Y-262686128D01*
X320612969Y-262686128D02*
X320612969Y-262900414D01*
X320612969Y-262900414D02*
X320541541Y-263043271D01*
X320541541Y-263043271D02*
X320470112Y-263114700D01*
X320470112Y-263114700D02*
X320327255Y-263186128D01*
X320327255Y-263186128D02*
X319755826Y-263186128D01*
X319755826Y-263186128D02*
X319755826Y-261686128D01*
X319755826Y-261686128D02*
X320255826Y-261686128D01*
X320255826Y-261686128D02*
X320398684Y-261757557D01*
X320398684Y-261757557D02*
X320470112Y-261828985D01*
X320470112Y-261828985D02*
X320541541Y-261971842D01*
X320541541Y-261971842D02*
X320541541Y-262114700D01*
X320541541Y-262114700D02*
X320470112Y-262257557D01*
X320470112Y-262257557D02*
X320398684Y-262328985D01*
X320398684Y-262328985D02*
X320255826Y-262400414D01*
X320255826Y-262400414D02*
X319755826Y-262400414D01*
D10*
D11*
X398255826Y-265986128D02*
X398255826Y-264486128D01*
X399612970Y-265986128D02*
X399612970Y-264486128D01*
X399612970Y-265914700D02*
X399470112Y-265986128D01*
X399470112Y-265986128D02*
X399184398Y-265986128D01*
X399184398Y-265986128D02*
X399041541Y-265914700D01*
X399041541Y-265914700D02*
X398970112Y-265843271D01*
X398970112Y-265843271D02*
X398898684Y-265700414D01*
X398898684Y-265700414D02*
X398898684Y-265271842D01*
X398898684Y-265271842D02*
X398970112Y-265128985D01*
X398970112Y-265128985D02*
X399041541Y-265057557D01*
X399041541Y-265057557D02*
X399184398Y-264986128D01*
X399184398Y-264986128D02*
X399470112Y-264986128D01*
X399470112Y-264986128D02*
X399612970Y-265057557D01*
X400327255Y-265843271D02*
X400398684Y-265914700D01*
X400398684Y-265914700D02*
X400327255Y-265986128D01*
X400327255Y-265986128D02*
X400255827Y-265914700D01*
X400255827Y-265914700D02*
X400327255Y-265843271D01*
X400327255Y-265843271D02*
X400327255Y-265986128D01*
X400327255Y-265057557D02*
X400398684Y-265128985D01*
X400398684Y-265128985D02*
X400327255Y-265200414D01*
X400327255Y-265200414D02*
X400255827Y-265128985D01*
X400255827Y-265128985D02*
X400327255Y-265057557D01*
X400327255Y-265057557D02*
X400327255Y-265200414D01*
X402970113Y-265986128D02*
X402112970Y-265986128D01*
X402541541Y-265986128D02*
X402541541Y-264486128D01*
X402541541Y-264486128D02*
X402398684Y-264700414D01*
X402398684Y-264700414D02*
X402255827Y-264843271D01*
X402255827Y-264843271D02*
X402112970Y-264914700D01*
X404684398Y-264414700D02*
X403398684Y-266343271D01*
X405970113Y-265986128D02*
X405112970Y-265986128D01*
X405541541Y-265986128D02*
X405541541Y-264486128D01*
X405541541Y-264486128D02*
X405398684Y-264700414D01*
X405398684Y-264700414D02*
X405255827Y-264843271D01*
X405255827Y-264843271D02*
X405112970Y-264914700D01*
D10*
D11*
X311800000Y-256900000D02*
X419800000Y-256900000D01*
D10*
D13*
X313491728Y-257604438D02*
X314634585Y-257604438D01*
X313813157Y-259604438D02*
X314063157Y-257604438D01*
X315051252Y-259604438D02*
X315217919Y-258271104D01*
X315301252Y-257604438D02*
X315194109Y-257699676D01*
X315194109Y-257699676D02*
X315277443Y-257794914D01*
X315277443Y-257794914D02*
X315384586Y-257699676D01*
X315384586Y-257699676D02*
X315301252Y-257604438D01*
X315301252Y-257604438D02*
X315277443Y-257794914D01*
X315884586Y-258271104D02*
X316646490Y-258271104D01*
X316253633Y-257604438D02*
X316039348Y-259318723D01*
X316039348Y-259318723D02*
X316110776Y-259509200D01*
X316110776Y-259509200D02*
X316289348Y-259604438D01*
X316289348Y-259604438D02*
X316479824Y-259604438D01*
X317432205Y-259604438D02*
X317253633Y-259509200D01*
X317253633Y-259509200D02*
X317182205Y-259318723D01*
X317182205Y-259318723D02*
X317396490Y-257604438D01*
X318967919Y-259509200D02*
X318765538Y-259604438D01*
X318765538Y-259604438D02*
X318384585Y-259604438D01*
X318384585Y-259604438D02*
X318206014Y-259509200D01*
X318206014Y-259509200D02*
X318134585Y-259318723D01*
X318134585Y-259318723D02*
X318229824Y-258556819D01*
X318229824Y-258556819D02*
X318348871Y-258366342D01*
X318348871Y-258366342D02*
X318551252Y-258271104D01*
X318551252Y-258271104D02*
X318932204Y-258271104D01*
X318932204Y-258271104D02*
X319110776Y-258366342D01*
X319110776Y-258366342D02*
X319182204Y-258556819D01*
X319182204Y-258556819D02*
X319158395Y-258747295D01*
X319158395Y-258747295D02*
X318182204Y-258937771D01*
X319932205Y-259413961D02*
X320015538Y-259509200D01*
X320015538Y-259509200D02*
X319908395Y-259604438D01*
X319908395Y-259604438D02*
X319825062Y-259509200D01*
X319825062Y-259509200D02*
X319932205Y-259413961D01*
X319932205Y-259413961D02*
X319908395Y-259604438D01*
X320063157Y-258366342D02*
X320146490Y-258461580D01*
X320146490Y-258461580D02*
X320039348Y-258556819D01*
X320039348Y-258556819D02*
X319956014Y-258461580D01*
X319956014Y-258461580D02*
X320063157Y-258366342D01*
X320063157Y-258366342D02*
X320039348Y-258556819D01*
X322360777Y-259033009D02*
X323313158Y-259033009D01*
X322098872Y-259604438D02*
X323015539Y-257604438D01*
X323015539Y-257604438D02*
X323432205Y-259604438D01*
X324098872Y-259604438D02*
X324348872Y-257604438D01*
X324348872Y-257604438D02*
X324825063Y-257604438D01*
X324825063Y-257604438D02*
X325098872Y-257699676D01*
X325098872Y-257699676D02*
X325265539Y-257890152D01*
X325265539Y-257890152D02*
X325336967Y-258080628D01*
X325336967Y-258080628D02*
X325384587Y-258461580D01*
X325384587Y-258461580D02*
X325348872Y-258747295D01*
X325348872Y-258747295D02*
X325206015Y-259128247D01*
X325206015Y-259128247D02*
X325086967Y-259318723D01*
X325086967Y-259318723D02*
X324872682Y-259509200D01*
X324872682Y-259509200D02*
X324575063Y-259604438D01*
X324575063Y-259604438D02*
X324098872Y-259604438D01*
X326015539Y-259509200D02*
X326289348Y-259604438D01*
X326289348Y-259604438D02*
X326765539Y-259604438D01*
X326765539Y-259604438D02*
X326967920Y-259509200D01*
X326967920Y-259509200D02*
X327075063Y-259413961D01*
X327075063Y-259413961D02*
X327194110Y-259223485D01*
X327194110Y-259223485D02*
X327217920Y-259033009D01*
X327217920Y-259033009D02*
X327146491Y-258842533D01*
X327146491Y-258842533D02*
X327063158Y-258747295D01*
X327063158Y-258747295D02*
X326884587Y-258652057D01*
X326884587Y-258652057D02*
X326515539Y-258556819D01*
X326515539Y-258556819D02*
X326336967Y-258461580D01*
X326336967Y-258461580D02*
X326253634Y-258366342D01*
X326253634Y-258366342D02*
X326182206Y-258175866D01*
X326182206Y-258175866D02*
X326206015Y-257985390D01*
X326206015Y-257985390D02*
X326325063Y-257794914D01*
X326325063Y-257794914D02*
X326432206Y-257699676D01*
X326432206Y-257699676D02*
X326634587Y-257604438D01*
X326634587Y-257604438D02*
X327110777Y-257604438D01*
X327110777Y-257604438D02*
X327384587Y-257699676D01*
X328801253Y-258556819D02*
X329075063Y-258652057D01*
X329075063Y-258652057D02*
X329158396Y-258747295D01*
X329158396Y-258747295D02*
X329229825Y-258937771D01*
X329229825Y-258937771D02*
X329194110Y-259223485D01*
X329194110Y-259223485D02*
X329075063Y-259413961D01*
X329075063Y-259413961D02*
X328967920Y-259509200D01*
X328967920Y-259509200D02*
X328765539Y-259604438D01*
X328765539Y-259604438D02*
X328003634Y-259604438D01*
X328003634Y-259604438D02*
X328253634Y-257604438D01*
X328253634Y-257604438D02*
X328920301Y-257604438D01*
X328920301Y-257604438D02*
X329098872Y-257699676D01*
X329098872Y-257699676D02*
X329182206Y-257794914D01*
X329182206Y-257794914D02*
X329253634Y-257985390D01*
X329253634Y-257985390D02*
X329229825Y-258175866D01*
X329229825Y-258175866D02*
X329110777Y-258366342D01*
X329110777Y-258366342D02*
X329003634Y-258461580D01*
X329003634Y-258461580D02*
X328801253Y-258556819D01*
X328801253Y-258556819D02*
X328134587Y-258556819D01*
X330777444Y-259509200D02*
X330575063Y-259604438D01*
X330575063Y-259604438D02*
X330194110Y-259604438D01*
X330194110Y-259604438D02*
X330015539Y-259509200D01*
X330015539Y-259509200D02*
X329944110Y-259318723D01*
X329944110Y-259318723D02*
X330039349Y-258556819D01*
X330039349Y-258556819D02*
X330158396Y-258366342D01*
X330158396Y-258366342D02*
X330360777Y-258271104D01*
X330360777Y-258271104D02*
X330741729Y-258271104D01*
X330741729Y-258271104D02*
X330920301Y-258366342D01*
X330920301Y-258366342D02*
X330991729Y-258556819D01*
X330991729Y-258556819D02*
X330967920Y-258747295D01*
X330967920Y-258747295D02*
X329991729Y-258937771D01*
X332491730Y-259509200D02*
X332289349Y-259604438D01*
X332289349Y-259604438D02*
X331908396Y-259604438D01*
X331908396Y-259604438D02*
X331729825Y-259509200D01*
X331729825Y-259509200D02*
X331658396Y-259318723D01*
X331658396Y-259318723D02*
X331753635Y-258556819D01*
X331753635Y-258556819D02*
X331872682Y-258366342D01*
X331872682Y-258366342D02*
X332075063Y-258271104D01*
X332075063Y-258271104D02*
X332456015Y-258271104D01*
X332456015Y-258271104D02*
X332634587Y-258366342D01*
X332634587Y-258366342D02*
X332706015Y-258556819D01*
X332706015Y-258556819D02*
X332682206Y-258747295D01*
X332682206Y-258747295D02*
X331706015Y-258937771D01*
X336003635Y-259604438D02*
X334860778Y-259604438D01*
X335432207Y-259604438D02*
X335682207Y-257604438D01*
X335682207Y-257604438D02*
X335456016Y-257890152D01*
X335456016Y-257890152D02*
X335241731Y-258080628D01*
X335241731Y-258080628D02*
X335039350Y-258175866D01*
X337491731Y-257604438D02*
X337682207Y-257604438D01*
X337682207Y-257604438D02*
X337860778Y-257699676D01*
X337860778Y-257699676D02*
X337944112Y-257794914D01*
X337944112Y-257794914D02*
X338015540Y-257985390D01*
X338015540Y-257985390D02*
X338063159Y-258366342D01*
X338063159Y-258366342D02*
X338003635Y-258842533D01*
X338003635Y-258842533D02*
X337860778Y-259223485D01*
X337860778Y-259223485D02*
X337741731Y-259413961D01*
X337741731Y-259413961D02*
X337634588Y-259509200D01*
X337634588Y-259509200D02*
X337432207Y-259604438D01*
X337432207Y-259604438D02*
X337241731Y-259604438D01*
X337241731Y-259604438D02*
X337063159Y-259509200D01*
X337063159Y-259509200D02*
X336979826Y-259413961D01*
X336979826Y-259413961D02*
X336908397Y-259223485D01*
X336908397Y-259223485D02*
X336860778Y-258842533D01*
X336860778Y-258842533D02*
X336920302Y-258366342D01*
X336920302Y-258366342D02*
X337063159Y-257985390D01*
X337063159Y-257985390D02*
X337182207Y-257794914D01*
X337182207Y-257794914D02*
X337289350Y-257699676D01*
X337289350Y-257699676D02*
X337491731Y-257604438D01*
X338860778Y-259604438D02*
X339241731Y-259604438D01*
X339241731Y-259604438D02*
X339444112Y-259509200D01*
X339444112Y-259509200D02*
X339551255Y-259413961D01*
X339551255Y-259413961D02*
X339777445Y-259128247D01*
X339777445Y-259128247D02*
X339920302Y-258747295D01*
X339920302Y-258747295D02*
X340015540Y-257985390D01*
X340015540Y-257985390D02*
X339944112Y-257794914D01*
X339944112Y-257794914D02*
X339860778Y-257699676D01*
X339860778Y-257699676D02*
X339682207Y-257604438D01*
X339682207Y-257604438D02*
X339301255Y-257604438D01*
X339301255Y-257604438D02*
X339098874Y-257699676D01*
X339098874Y-257699676D02*
X338991731Y-257794914D01*
X338991731Y-257794914D02*
X338872683Y-257985390D01*
X338872683Y-257985390D02*
X338813159Y-258461580D01*
X338813159Y-258461580D02*
X338884588Y-258652057D01*
X338884588Y-258652057D02*
X338967921Y-258747295D01*
X338967921Y-258747295D02*
X339146493Y-258842533D01*
X339146493Y-258842533D02*
X339527445Y-258842533D01*
X339527445Y-258842533D02*
X339729826Y-258747295D01*
X339729826Y-258747295D02*
X339836969Y-258652057D01*
X339836969Y-258652057D02*
X339956016Y-258461580D01*
X341301255Y-257604438D02*
X341491731Y-257604438D01*
X341491731Y-257604438D02*
X341670302Y-257699676D01*
X341670302Y-257699676D02*
X341753636Y-257794914D01*
X341753636Y-257794914D02*
X341825064Y-257985390D01*
X341825064Y-257985390D02*
X341872683Y-258366342D01*
X341872683Y-258366342D02*
X341813159Y-258842533D01*
X341813159Y-258842533D02*
X341670302Y-259223485D01*
X341670302Y-259223485D02*
X341551255Y-259413961D01*
X341551255Y-259413961D02*
X341444112Y-259509200D01*
X341444112Y-259509200D02*
X341241731Y-259604438D01*
X341241731Y-259604438D02*
X341051255Y-259604438D01*
X341051255Y-259604438D02*
X340872683Y-259509200D01*
X340872683Y-259509200D02*
X340789350Y-259413961D01*
X340789350Y-259413961D02*
X340717921Y-259223485D01*
X340717921Y-259223485D02*
X340670302Y-258842533D01*
X340670302Y-258842533D02*
X340729826Y-258366342D01*
X340729826Y-258366342D02*
X340872683Y-257985390D01*
X340872683Y-257985390D02*
X340991731Y-257794914D01*
X340991731Y-257794914D02*
X341098874Y-257699676D01*
X341098874Y-257699676D02*
X341301255Y-257604438D01*
D10*
D11*
X313755826Y-255000414D02*
X313255826Y-255000414D01*
X313255826Y-255786128D02*
X313255826Y-254286128D01*
X313255826Y-254286128D02*
X313970112Y-254286128D01*
X314541540Y-255786128D02*
X314541540Y-254786128D01*
X314541540Y-254286128D02*
X314470112Y-254357557D01*
X314470112Y-254357557D02*
X314541540Y-254428985D01*
X314541540Y-254428985D02*
X314612969Y-254357557D01*
X314612969Y-254357557D02*
X314541540Y-254286128D01*
X314541540Y-254286128D02*
X314541540Y-254428985D01*
X315470112Y-255786128D02*
X315327255Y-255714700D01*
X315327255Y-255714700D02*
X315255826Y-255571842D01*
X315255826Y-255571842D02*
X315255826Y-254286128D01*
X316612969Y-255714700D02*
X316470112Y-255786128D01*
X316470112Y-255786128D02*
X316184398Y-255786128D01*
X316184398Y-255786128D02*
X316041540Y-255714700D01*
X316041540Y-255714700D02*
X315970112Y-255571842D01*
X315970112Y-255571842D02*
X315970112Y-255000414D01*
X315970112Y-255000414D02*
X316041540Y-254857557D01*
X316041540Y-254857557D02*
X316184398Y-254786128D01*
X316184398Y-254786128D02*
X316470112Y-254786128D01*
X316470112Y-254786128D02*
X316612969Y-254857557D01*
X316612969Y-254857557D02*
X316684398Y-255000414D01*
X316684398Y-255000414D02*
X316684398Y-255143271D01*
X316684398Y-255143271D02*
X315970112Y-255286128D01*
X317327254Y-255643271D02*
X317398683Y-255714700D01*
X317398683Y-255714700D02*
X317327254Y-255786128D01*
X317327254Y-255786128D02*
X317255826Y-255714700D01*
X317255826Y-255714700D02*
X317327254Y-255643271D01*
X317327254Y-255643271D02*
X317327254Y-255786128D01*
X317327254Y-254857557D02*
X317398683Y-254928985D01*
X317398683Y-254928985D02*
X317327254Y-255000414D01*
X317327254Y-255000414D02*
X317255826Y-254928985D01*
X317255826Y-254928985D02*
X317327254Y-254857557D01*
X317327254Y-254857557D02*
X317327254Y-255000414D01*
X319827255Y-255786128D02*
X319827255Y-255000414D01*
X319827255Y-255000414D02*
X319755826Y-254857557D01*
X319755826Y-254857557D02*
X319612969Y-254786128D01*
X319612969Y-254786128D02*
X319327255Y-254786128D01*
X319327255Y-254786128D02*
X319184397Y-254857557D01*
X319827255Y-255714700D02*
X319684397Y-255786128D01*
X319684397Y-255786128D02*
X319327255Y-255786128D01*
X319327255Y-255786128D02*
X319184397Y-255714700D01*
X319184397Y-255714700D02*
X319112969Y-255571842D01*
X319112969Y-255571842D02*
X319112969Y-255428985D01*
X319112969Y-255428985D02*
X319184397Y-255286128D01*
X319184397Y-255286128D02*
X319327255Y-255214700D01*
X319327255Y-255214700D02*
X319684397Y-255214700D01*
X319684397Y-255214700D02*
X319827255Y-255143271D01*
X321184398Y-255786128D02*
X321184398Y-254286128D01*
X321184398Y-255714700D02*
X321041540Y-255786128D01*
X321041540Y-255786128D02*
X320755826Y-255786128D01*
X320755826Y-255786128D02*
X320612969Y-255714700D01*
X320612969Y-255714700D02*
X320541540Y-255643271D01*
X320541540Y-255643271D02*
X320470112Y-255500414D01*
X320470112Y-255500414D02*
X320470112Y-255071842D01*
X320470112Y-255071842D02*
X320541540Y-254928985D01*
X320541540Y-254928985D02*
X320612969Y-254857557D01*
X320612969Y-254857557D02*
X320755826Y-254786128D01*
X320755826Y-254786128D02*
X321041540Y-254786128D01*
X321041540Y-254786128D02*
X321184398Y-254857557D01*
X321827255Y-255714700D02*
X321970112Y-255786128D01*
X321970112Y-255786128D02*
X322255826Y-255786128D01*
X322255826Y-255786128D02*
X322398683Y-255714700D01*
X322398683Y-255714700D02*
X322470112Y-255571842D01*
X322470112Y-255571842D02*
X322470112Y-255500414D01*
X322470112Y-255500414D02*
X322398683Y-255357557D01*
X322398683Y-255357557D02*
X322255826Y-255286128D01*
X322255826Y-255286128D02*
X322041541Y-255286128D01*
X322041541Y-255286128D02*
X321898683Y-255214700D01*
X321898683Y-255214700D02*
X321827255Y-255071842D01*
X321827255Y-255071842D02*
X321827255Y-255000414D01*
X321827255Y-255000414D02*
X321898683Y-254857557D01*
X321898683Y-254857557D02*
X322041541Y-254786128D01*
X322041541Y-254786128D02*
X322255826Y-254786128D01*
X322255826Y-254786128D02*
X322398683Y-254857557D01*
X323112969Y-255786128D02*
X323112969Y-254286128D01*
X323112969Y-254857557D02*
X323255827Y-254786128D01*
X323255827Y-254786128D02*
X323541541Y-254786128D01*
X323541541Y-254786128D02*
X323684398Y-254857557D01*
X323684398Y-254857557D02*
X323755827Y-254928985D01*
X323755827Y-254928985D02*
X323827255Y-255071842D01*
X323827255Y-255071842D02*
X323827255Y-255500414D01*
X323827255Y-255500414D02*
X323755827Y-255643271D01*
X323755827Y-255643271D02*
X323684398Y-255714700D01*
X323684398Y-255714700D02*
X323541541Y-255786128D01*
X323541541Y-255786128D02*
X323255827Y-255786128D01*
X323255827Y-255786128D02*
X323112969Y-255714700D01*
X325041541Y-255714700D02*
X324898684Y-255786128D01*
X324898684Y-255786128D02*
X324612970Y-255786128D01*
X324612970Y-255786128D02*
X324470112Y-255714700D01*
X324470112Y-255714700D02*
X324398684Y-255571842D01*
X324398684Y-255571842D02*
X324398684Y-255000414D01*
X324398684Y-255000414D02*
X324470112Y-254857557D01*
X324470112Y-254857557D02*
X324612970Y-254786128D01*
X324612970Y-254786128D02*
X324898684Y-254786128D01*
X324898684Y-254786128D02*
X325041541Y-254857557D01*
X325041541Y-254857557D02*
X325112970Y-255000414D01*
X325112970Y-255000414D02*
X325112970Y-255143271D01*
X325112970Y-255143271D02*
X324398684Y-255286128D01*
X326327255Y-255714700D02*
X326184398Y-255786128D01*
X326184398Y-255786128D02*
X325898684Y-255786128D01*
X325898684Y-255786128D02*
X325755826Y-255714700D01*
X325755826Y-255714700D02*
X325684398Y-255571842D01*
X325684398Y-255571842D02*
X325684398Y-255000414D01*
X325684398Y-255000414D02*
X325755826Y-254857557D01*
X325755826Y-254857557D02*
X325898684Y-254786128D01*
X325898684Y-254786128D02*
X326184398Y-254786128D01*
X326184398Y-254786128D02*
X326327255Y-254857557D01*
X326327255Y-254857557D02*
X326398684Y-255000414D01*
X326398684Y-255000414D02*
X326398684Y-255143271D01*
X326398684Y-255143271D02*
X325684398Y-255286128D01*
X326684398Y-255928985D02*
X327827255Y-255928985D01*
X328970112Y-255786128D02*
X328112969Y-255786128D01*
X328541540Y-255786128D02*
X328541540Y-254286128D01*
X328541540Y-254286128D02*
X328398683Y-254500414D01*
X328398683Y-254500414D02*
X328255826Y-254643271D01*
X328255826Y-254643271D02*
X328112969Y-254714700D01*
X329898683Y-254286128D02*
X330041540Y-254286128D01*
X330041540Y-254286128D02*
X330184397Y-254357557D01*
X330184397Y-254357557D02*
X330255826Y-254428985D01*
X330255826Y-254428985D02*
X330327254Y-254571842D01*
X330327254Y-254571842D02*
X330398683Y-254857557D01*
X330398683Y-254857557D02*
X330398683Y-255214700D01*
X330398683Y-255214700D02*
X330327254Y-255500414D01*
X330327254Y-255500414D02*
X330255826Y-255643271D01*
X330255826Y-255643271D02*
X330184397Y-255714700D01*
X330184397Y-255714700D02*
X330041540Y-255786128D01*
X330041540Y-255786128D02*
X329898683Y-255786128D01*
X329898683Y-255786128D02*
X329755826Y-255714700D01*
X329755826Y-255714700D02*
X329684397Y-255643271D01*
X329684397Y-255643271D02*
X329612968Y-255500414D01*
X329612968Y-255500414D02*
X329541540Y-255214700D01*
X329541540Y-255214700D02*
X329541540Y-254857557D01*
X329541540Y-254857557D02*
X329612968Y-254571842D01*
X329612968Y-254571842D02*
X329684397Y-254428985D01*
X329684397Y-254428985D02*
X329755826Y-254357557D01*
X329755826Y-254357557D02*
X329898683Y-254286128D01*
X331112968Y-255786128D02*
X331398682Y-255786128D01*
X331398682Y-255786128D02*
X331541539Y-255714700D01*
X331541539Y-255714700D02*
X331612968Y-255643271D01*
X331612968Y-255643271D02*
X331755825Y-255428985D01*
X331755825Y-255428985D02*
X331827254Y-255143271D01*
X331827254Y-255143271D02*
X331827254Y-254571842D01*
X331827254Y-254571842D02*
X331755825Y-254428985D01*
X331755825Y-254428985D02*
X331684397Y-254357557D01*
X331684397Y-254357557D02*
X331541539Y-254286128D01*
X331541539Y-254286128D02*
X331255825Y-254286128D01*
X331255825Y-254286128D02*
X331112968Y-254357557D01*
X331112968Y-254357557D02*
X331041539Y-254428985D01*
X331041539Y-254428985D02*
X330970111Y-254571842D01*
X330970111Y-254571842D02*
X330970111Y-254928985D01*
X330970111Y-254928985D02*
X331041539Y-255071842D01*
X331041539Y-255071842D02*
X331112968Y-255143271D01*
X331112968Y-255143271D02*
X331255825Y-255214700D01*
X331255825Y-255214700D02*
X331541539Y-255214700D01*
X331541539Y-255214700D02*
X331684397Y-255143271D01*
X331684397Y-255143271D02*
X331755825Y-255071842D01*
X331755825Y-255071842D02*
X331827254Y-254928985D01*
X332755825Y-254286128D02*
X332898682Y-254286128D01*
X332898682Y-254286128D02*
X333041539Y-254357557D01*
X333041539Y-254357557D02*
X333112968Y-254428985D01*
X333112968Y-254428985D02*
X333184396Y-254571842D01*
X333184396Y-254571842D02*
X333255825Y-254857557D01*
X333255825Y-254857557D02*
X333255825Y-255214700D01*
X333255825Y-255214700D02*
X333184396Y-255500414D01*
X333184396Y-255500414D02*
X333112968Y-255643271D01*
X333112968Y-255643271D02*
X333041539Y-255714700D01*
X333041539Y-255714700D02*
X332898682Y-255786128D01*
X332898682Y-255786128D02*
X332755825Y-255786128D01*
X332755825Y-255786128D02*
X332612968Y-255714700D01*
X332612968Y-255714700D02*
X332541539Y-255643271D01*
X332541539Y-255643271D02*
X332470110Y-255500414D01*
X332470110Y-255500414D02*
X332398682Y-255214700D01*
X332398682Y-255214700D02*
X332398682Y-254857557D01*
X332398682Y-254857557D02*
X332470110Y-254571842D01*
X332470110Y-254571842D02*
X332541539Y-254428985D01*
X332541539Y-254428985D02*
X332612968Y-254357557D01*
X332612968Y-254357557D02*
X332755825Y-254286128D01*
X333898681Y-255643271D02*
X333970110Y-255714700D01*
X333970110Y-255714700D02*
X333898681Y-255786128D01*
X333898681Y-255786128D02*
X333827253Y-255714700D01*
X333827253Y-255714700D02*
X333898681Y-255643271D01*
X333898681Y-255643271D02*
X333898681Y-255786128D01*
X334612967Y-255786128D02*
X334612967Y-254286128D01*
X334755825Y-255214700D02*
X335184396Y-255786128D01*
X335184396Y-254786128D02*
X334612967Y-255357557D01*
X335827253Y-255786128D02*
X335827253Y-254786128D01*
X335827253Y-254286128D02*
X335755825Y-254357557D01*
X335755825Y-254357557D02*
X335827253Y-254428985D01*
X335827253Y-254428985D02*
X335898682Y-254357557D01*
X335898682Y-254357557D02*
X335827253Y-254286128D01*
X335827253Y-254286128D02*
X335827253Y-254428985D01*
X337184397Y-255714700D02*
X337041539Y-255786128D01*
X337041539Y-255786128D02*
X336755825Y-255786128D01*
X336755825Y-255786128D02*
X336612968Y-255714700D01*
X336612968Y-255714700D02*
X336541539Y-255643271D01*
X336541539Y-255643271D02*
X336470111Y-255500414D01*
X336470111Y-255500414D02*
X336470111Y-255071842D01*
X336470111Y-255071842D02*
X336541539Y-254928985D01*
X336541539Y-254928985D02*
X336612968Y-254857557D01*
X336612968Y-254857557D02*
X336755825Y-254786128D01*
X336755825Y-254786128D02*
X337041539Y-254786128D01*
X337041539Y-254786128D02*
X337184397Y-254857557D01*
X338470111Y-255786128D02*
X338470111Y-255000414D01*
X338470111Y-255000414D02*
X338398682Y-254857557D01*
X338398682Y-254857557D02*
X338255825Y-254786128D01*
X338255825Y-254786128D02*
X337970111Y-254786128D01*
X337970111Y-254786128D02*
X337827253Y-254857557D01*
X338470111Y-255714700D02*
X338327253Y-255786128D01*
X338327253Y-255786128D02*
X337970111Y-255786128D01*
X337970111Y-255786128D02*
X337827253Y-255714700D01*
X337827253Y-255714700D02*
X337755825Y-255571842D01*
X337755825Y-255571842D02*
X337755825Y-255428985D01*
X337755825Y-255428985D02*
X337827253Y-255286128D01*
X337827253Y-255286128D02*
X337970111Y-255214700D01*
X337970111Y-255214700D02*
X338327253Y-255214700D01*
X338327253Y-255214700D02*
X338470111Y-255143271D01*
X339827254Y-255786128D02*
X339827254Y-254286128D01*
X339827254Y-255714700D02*
X339684396Y-255786128D01*
X339684396Y-255786128D02*
X339398682Y-255786128D01*
X339398682Y-255786128D02*
X339255825Y-255714700D01*
X339255825Y-255714700D02*
X339184396Y-255643271D01*
X339184396Y-255643271D02*
X339112968Y-255500414D01*
X339112968Y-255500414D02*
X339112968Y-255071842D01*
X339112968Y-255071842D02*
X339184396Y-254928985D01*
X339184396Y-254928985D02*
X339255825Y-254857557D01*
X339255825Y-254857557D02*
X339398682Y-254786128D01*
X339398682Y-254786128D02*
X339684396Y-254786128D01*
X339684396Y-254786128D02*
X339827254Y-254857557D01*
X340184397Y-255928985D02*
X341327254Y-255928985D01*
X341684396Y-254786128D02*
X341684396Y-256286128D01*
X341684396Y-254857557D02*
X341827254Y-254786128D01*
X341827254Y-254786128D02*
X342112968Y-254786128D01*
X342112968Y-254786128D02*
X342255825Y-254857557D01*
X342255825Y-254857557D02*
X342327254Y-254928985D01*
X342327254Y-254928985D02*
X342398682Y-255071842D01*
X342398682Y-255071842D02*
X342398682Y-255500414D01*
X342398682Y-255500414D02*
X342327254Y-255643271D01*
X342327254Y-255643271D02*
X342255825Y-255714700D01*
X342255825Y-255714700D02*
X342112968Y-255786128D01*
X342112968Y-255786128D02*
X341827254Y-255786128D01*
X341827254Y-255786128D02*
X341684396Y-255714700D01*
X343684397Y-255714700D02*
X343541539Y-255786128D01*
X343541539Y-255786128D02*
X343255825Y-255786128D01*
X343255825Y-255786128D02*
X343112968Y-255714700D01*
X343112968Y-255714700D02*
X343041539Y-255643271D01*
X343041539Y-255643271D02*
X342970111Y-255500414D01*
X342970111Y-255500414D02*
X342970111Y-255071842D01*
X342970111Y-255071842D02*
X343041539Y-254928985D01*
X343041539Y-254928985D02*
X343112968Y-254857557D01*
X343112968Y-254857557D02*
X343255825Y-254786128D01*
X343255825Y-254786128D02*
X343541539Y-254786128D01*
X343541539Y-254786128D02*
X343684397Y-254857557D01*
X344327253Y-255786128D02*
X344327253Y-254286128D01*
X344327253Y-254857557D02*
X344470111Y-254786128D01*
X344470111Y-254786128D02*
X344755825Y-254786128D01*
X344755825Y-254786128D02*
X344898682Y-254857557D01*
X344898682Y-254857557D02*
X344970111Y-254928985D01*
X344970111Y-254928985D02*
X345041539Y-255071842D01*
X345041539Y-255071842D02*
X345041539Y-255500414D01*
X345041539Y-255500414D02*
X344970111Y-255643271D01*
X344970111Y-255643271D02*
X344898682Y-255714700D01*
X344898682Y-255714700D02*
X344755825Y-255786128D01*
X344755825Y-255786128D02*
X344470111Y-255786128D01*
X344470111Y-255786128D02*
X344327253Y-255714700D01*
D10*
D11*
X311800000Y-250900000D02*
X419800000Y-250900000D01*
D10*
D11*
X313184398Y-253014700D02*
X313398684Y-253086128D01*
X313398684Y-253086128D02*
X313755826Y-253086128D01*
X313755826Y-253086128D02*
X313898684Y-253014700D01*
X313898684Y-253014700D02*
X313970112Y-252943271D01*
X313970112Y-252943271D02*
X314041541Y-252800414D01*
X314041541Y-252800414D02*
X314041541Y-252657557D01*
X314041541Y-252657557D02*
X313970112Y-252514700D01*
X313970112Y-252514700D02*
X313898684Y-252443271D01*
X313898684Y-252443271D02*
X313755826Y-252371842D01*
X313755826Y-252371842D02*
X313470112Y-252300414D01*
X313470112Y-252300414D02*
X313327255Y-252228985D01*
X313327255Y-252228985D02*
X313255826Y-252157557D01*
X313255826Y-252157557D02*
X313184398Y-252014700D01*
X313184398Y-252014700D02*
X313184398Y-251871842D01*
X313184398Y-251871842D02*
X313255826Y-251728985D01*
X313255826Y-251728985D02*
X313327255Y-251657557D01*
X313327255Y-251657557D02*
X313470112Y-251586128D01*
X313470112Y-251586128D02*
X313827255Y-251586128D01*
X313827255Y-251586128D02*
X314041541Y-251657557D01*
X314684397Y-253086128D02*
X314684397Y-251586128D01*
X315327255Y-253086128D02*
X315327255Y-252300414D01*
X315327255Y-252300414D02*
X315255826Y-252157557D01*
X315255826Y-252157557D02*
X315112969Y-252086128D01*
X315112969Y-252086128D02*
X314898683Y-252086128D01*
X314898683Y-252086128D02*
X314755826Y-252157557D01*
X314755826Y-252157557D02*
X314684397Y-252228985D01*
X316612969Y-253014700D02*
X316470112Y-253086128D01*
X316470112Y-253086128D02*
X316184398Y-253086128D01*
X316184398Y-253086128D02*
X316041540Y-253014700D01*
X316041540Y-253014700D02*
X315970112Y-252871842D01*
X315970112Y-252871842D02*
X315970112Y-252300414D01*
X315970112Y-252300414D02*
X316041540Y-252157557D01*
X316041540Y-252157557D02*
X316184398Y-252086128D01*
X316184398Y-252086128D02*
X316470112Y-252086128D01*
X316470112Y-252086128D02*
X316612969Y-252157557D01*
X316612969Y-252157557D02*
X316684398Y-252300414D01*
X316684398Y-252300414D02*
X316684398Y-252443271D01*
X316684398Y-252443271D02*
X315970112Y-252586128D01*
X317898683Y-253014700D02*
X317755826Y-253086128D01*
X317755826Y-253086128D02*
X317470112Y-253086128D01*
X317470112Y-253086128D02*
X317327254Y-253014700D01*
X317327254Y-253014700D02*
X317255826Y-252871842D01*
X317255826Y-252871842D02*
X317255826Y-252300414D01*
X317255826Y-252300414D02*
X317327254Y-252157557D01*
X317327254Y-252157557D02*
X317470112Y-252086128D01*
X317470112Y-252086128D02*
X317755826Y-252086128D01*
X317755826Y-252086128D02*
X317898683Y-252157557D01*
X317898683Y-252157557D02*
X317970112Y-252300414D01*
X317970112Y-252300414D02*
X317970112Y-252443271D01*
X317970112Y-252443271D02*
X317255826Y-252586128D01*
X318398683Y-252086128D02*
X318970111Y-252086128D01*
X318612968Y-251586128D02*
X318612968Y-252871842D01*
X318612968Y-252871842D02*
X318684397Y-253014700D01*
X318684397Y-253014700D02*
X318827254Y-253086128D01*
X318827254Y-253086128D02*
X318970111Y-253086128D01*
X319470111Y-252943271D02*
X319541540Y-253014700D01*
X319541540Y-253014700D02*
X319470111Y-253086128D01*
X319470111Y-253086128D02*
X319398683Y-253014700D01*
X319398683Y-253014700D02*
X319470111Y-252943271D01*
X319470111Y-252943271D02*
X319470111Y-253086128D01*
X319470111Y-252157557D02*
X319541540Y-252228985D01*
X319541540Y-252228985D02*
X319470111Y-252300414D01*
X319470111Y-252300414D02*
X319398683Y-252228985D01*
X319398683Y-252228985D02*
X319470111Y-252157557D01*
X319470111Y-252157557D02*
X319470111Y-252300414D01*
D10*
D12*
X313354510Y-249078328D02*
X313354510Y-250578328D01*
X313354510Y-249149757D02*
X313497368Y-249078328D01*
X313497368Y-249078328D02*
X313783082Y-249078328D01*
X313783082Y-249078328D02*
X313925939Y-249149757D01*
X313925939Y-249149757D02*
X313997368Y-249221185D01*
X313997368Y-249221185D02*
X314068796Y-249364042D01*
X314068796Y-249364042D02*
X314068796Y-249792614D01*
X314068796Y-249792614D02*
X313997368Y-249935471D01*
X313997368Y-249935471D02*
X313925939Y-250006900D01*
X313925939Y-250006900D02*
X313783082Y-250078328D01*
X313783082Y-250078328D02*
X313497368Y-250078328D01*
X313497368Y-250078328D02*
X313354510Y-250006900D01*
X315354511Y-250078328D02*
X315354511Y-249292614D01*
X315354511Y-249292614D02*
X315283082Y-249149757D01*
X315283082Y-249149757D02*
X315140225Y-249078328D01*
X315140225Y-249078328D02*
X314854511Y-249078328D01*
X314854511Y-249078328D02*
X314711653Y-249149757D01*
X315354511Y-250006900D02*
X315211653Y-250078328D01*
X315211653Y-250078328D02*
X314854511Y-250078328D01*
X314854511Y-250078328D02*
X314711653Y-250006900D01*
X314711653Y-250006900D02*
X314640225Y-249864042D01*
X314640225Y-249864042D02*
X314640225Y-249721185D01*
X314640225Y-249721185D02*
X314711653Y-249578328D01*
X314711653Y-249578328D02*
X314854511Y-249506900D01*
X314854511Y-249506900D02*
X315211653Y-249506900D01*
X315211653Y-249506900D02*
X315354511Y-249435471D01*
X316068796Y-249078328D02*
X316068796Y-250078328D01*
X316068796Y-249221185D02*
X316140225Y-249149757D01*
X316140225Y-249149757D02*
X316283082Y-249078328D01*
X316283082Y-249078328D02*
X316497368Y-249078328D01*
X316497368Y-249078328D02*
X316640225Y-249149757D01*
X316640225Y-249149757D02*
X316711654Y-249292614D01*
X316711654Y-249292614D02*
X316711654Y-250078328D01*
X317211654Y-249078328D02*
X317783082Y-249078328D01*
X317425939Y-248578328D02*
X317425939Y-249864042D01*
X317425939Y-249864042D02*
X317497368Y-250006900D01*
X317497368Y-250006900D02*
X317640225Y-250078328D01*
X317640225Y-250078328D02*
X317783082Y-250078328D01*
X318211654Y-250006900D02*
X318354511Y-250078328D01*
X318354511Y-250078328D02*
X318640225Y-250078328D01*
X318640225Y-250078328D02*
X318783082Y-250006900D01*
X318783082Y-250006900D02*
X318854511Y-249864042D01*
X318854511Y-249864042D02*
X318854511Y-249792614D01*
X318854511Y-249792614D02*
X318783082Y-249649757D01*
X318783082Y-249649757D02*
X318640225Y-249578328D01*
X318640225Y-249578328D02*
X318425940Y-249578328D01*
X318425940Y-249578328D02*
X318283082Y-249506900D01*
X318283082Y-249506900D02*
X318211654Y-249364042D01*
X318211654Y-249364042D02*
X318211654Y-249292614D01*
X318211654Y-249292614D02*
X318283082Y-249149757D01*
X318283082Y-249149757D02*
X318425940Y-249078328D01*
X318425940Y-249078328D02*
X318640225Y-249078328D01*
X318640225Y-249078328D02*
X318783082Y-249149757D01*
X319283083Y-249078328D02*
X319854511Y-249078328D01*
X319497368Y-250078328D02*
X319497368Y-248792614D01*
X319497368Y-248792614D02*
X319568797Y-248649757D01*
X319568797Y-248649757D02*
X319711654Y-248578328D01*
X319711654Y-248578328D02*
X319854511Y-248578328D01*
X320568797Y-250078328D02*
X320425940Y-250006900D01*
X320425940Y-250006900D02*
X320354511Y-249935471D01*
X320354511Y-249935471D02*
X320283083Y-249792614D01*
X320283083Y-249792614D02*
X320283083Y-249364042D01*
X320283083Y-249364042D02*
X320354511Y-249221185D01*
X320354511Y-249221185D02*
X320425940Y-249149757D01*
X320425940Y-249149757D02*
X320568797Y-249078328D01*
X320568797Y-249078328D02*
X320783083Y-249078328D01*
X320783083Y-249078328D02*
X320925940Y-249149757D01*
X320925940Y-249149757D02*
X320997369Y-249221185D01*
X320997369Y-249221185D02*
X321068797Y-249364042D01*
X321068797Y-249364042D02*
X321068797Y-249792614D01*
X321068797Y-249792614D02*
X320997369Y-249935471D01*
X320997369Y-249935471D02*
X320925940Y-250006900D01*
X320925940Y-250006900D02*
X320783083Y-250078328D01*
X320783083Y-250078328D02*
X320568797Y-250078328D01*
X321711654Y-250078328D02*
X321711654Y-249078328D01*
X321711654Y-249364042D02*
X321783083Y-249221185D01*
X321783083Y-249221185D02*
X321854512Y-249149757D01*
X321854512Y-249149757D02*
X321997369Y-249078328D01*
X321997369Y-249078328D02*
X322140226Y-249078328D01*
X322640225Y-250078328D02*
X322640225Y-248578328D01*
X322640225Y-249149757D02*
X322783083Y-249078328D01*
X322783083Y-249078328D02*
X323068797Y-249078328D01*
X323068797Y-249078328D02*
X323211654Y-249149757D01*
X323211654Y-249149757D02*
X323283083Y-249221185D01*
X323283083Y-249221185D02*
X323354511Y-249364042D01*
X323354511Y-249364042D02*
X323354511Y-249792614D01*
X323354511Y-249792614D02*
X323283083Y-249935471D01*
X323283083Y-249935471D02*
X323211654Y-250006900D01*
X323211654Y-250006900D02*
X323068797Y-250078328D01*
X323068797Y-250078328D02*
X322783083Y-250078328D01*
X322783083Y-250078328D02*
X322640225Y-250006900D01*
X323997368Y-250078328D02*
X323997368Y-249078328D01*
X323997368Y-248578328D02*
X323925940Y-248649757D01*
X323925940Y-248649757D02*
X323997368Y-248721185D01*
X323997368Y-248721185D02*
X324068797Y-248649757D01*
X324068797Y-248649757D02*
X323997368Y-248578328D01*
X323997368Y-248578328D02*
X323997368Y-248721185D01*
X324711654Y-250078328D02*
X324711654Y-249078328D01*
X324711654Y-249364042D02*
X324783083Y-249221185D01*
X324783083Y-249221185D02*
X324854512Y-249149757D01*
X324854512Y-249149757D02*
X324997369Y-249078328D01*
X324997369Y-249078328D02*
X325140226Y-249078328D01*
X326283083Y-250078328D02*
X326283083Y-248578328D01*
X326283083Y-250006900D02*
X326140225Y-250078328D01*
X326140225Y-250078328D02*
X325854511Y-250078328D01*
X325854511Y-250078328D02*
X325711654Y-250006900D01*
X325711654Y-250006900D02*
X325640225Y-249935471D01*
X325640225Y-249935471D02*
X325568797Y-249792614D01*
X325568797Y-249792614D02*
X325568797Y-249364042D01*
X325568797Y-249364042D02*
X325640225Y-249221185D01*
X325640225Y-249221185D02*
X325711654Y-249149757D01*
X325711654Y-249149757D02*
X325854511Y-249078328D01*
X325854511Y-249078328D02*
X326140225Y-249078328D01*
X326140225Y-249078328D02*
X326283083Y-249149757D01*
X326925940Y-250006900D02*
X327068797Y-250078328D01*
X327068797Y-250078328D02*
X327354511Y-250078328D01*
X327354511Y-250078328D02*
X327497368Y-250006900D01*
X327497368Y-250006900D02*
X327568797Y-249864042D01*
X327568797Y-249864042D02*
X327568797Y-249792614D01*
X327568797Y-249792614D02*
X327497368Y-249649757D01*
X327497368Y-249649757D02*
X327354511Y-249578328D01*
X327354511Y-249578328D02*
X327140226Y-249578328D01*
X327140226Y-249578328D02*
X326997368Y-249506900D01*
X326997368Y-249506900D02*
X326925940Y-249364042D01*
X326925940Y-249364042D02*
X326925940Y-249292614D01*
X326925940Y-249292614D02*
X326997368Y-249149757D01*
X326997368Y-249149757D02*
X327140226Y-249078328D01*
X327140226Y-249078328D02*
X327354511Y-249078328D01*
X327354511Y-249078328D02*
X327497368Y-249149757D01*
X328211654Y-249935471D02*
X328283083Y-250006900D01*
X328283083Y-250006900D02*
X328211654Y-250078328D01*
X328211654Y-250078328D02*
X328140226Y-250006900D01*
X328140226Y-250006900D02*
X328211654Y-249935471D01*
X328211654Y-249935471D02*
X328211654Y-250078328D01*
X329568798Y-250006900D02*
X329425940Y-250078328D01*
X329425940Y-250078328D02*
X329140226Y-250078328D01*
X329140226Y-250078328D02*
X328997369Y-250006900D01*
X328997369Y-250006900D02*
X328925940Y-249935471D01*
X328925940Y-249935471D02*
X328854512Y-249792614D01*
X328854512Y-249792614D02*
X328854512Y-249364042D01*
X328854512Y-249364042D02*
X328925940Y-249221185D01*
X328925940Y-249221185D02*
X328997369Y-249149757D01*
X328997369Y-249149757D02*
X329140226Y-249078328D01*
X329140226Y-249078328D02*
X329425940Y-249078328D01*
X329425940Y-249078328D02*
X329568798Y-249149757D01*
X330425940Y-250078328D02*
X330283083Y-250006900D01*
X330283083Y-250006900D02*
X330211654Y-249935471D01*
X330211654Y-249935471D02*
X330140226Y-249792614D01*
X330140226Y-249792614D02*
X330140226Y-249364042D01*
X330140226Y-249364042D02*
X330211654Y-249221185D01*
X330211654Y-249221185D02*
X330283083Y-249149757D01*
X330283083Y-249149757D02*
X330425940Y-249078328D01*
X330425940Y-249078328D02*
X330640226Y-249078328D01*
X330640226Y-249078328D02*
X330783083Y-249149757D01*
X330783083Y-249149757D02*
X330854512Y-249221185D01*
X330854512Y-249221185D02*
X330925940Y-249364042D01*
X330925940Y-249364042D02*
X330925940Y-249792614D01*
X330925940Y-249792614D02*
X330854512Y-249935471D01*
X330854512Y-249935471D02*
X330783083Y-250006900D01*
X330783083Y-250006900D02*
X330640226Y-250078328D01*
X330640226Y-250078328D02*
X330425940Y-250078328D01*
X331568797Y-250078328D02*
X331568797Y-249078328D01*
X331568797Y-249221185D02*
X331640226Y-249149757D01*
X331640226Y-249149757D02*
X331783083Y-249078328D01*
X331783083Y-249078328D02*
X331997369Y-249078328D01*
X331997369Y-249078328D02*
X332140226Y-249149757D01*
X332140226Y-249149757D02*
X332211655Y-249292614D01*
X332211655Y-249292614D02*
X332211655Y-250078328D01*
X332211655Y-249292614D02*
X332283083Y-249149757D01*
X332283083Y-249149757D02*
X332425940Y-249078328D01*
X332425940Y-249078328D02*
X332640226Y-249078328D01*
X332640226Y-249078328D02*
X332783083Y-249149757D01*
X332783083Y-249149757D02*
X332854512Y-249292614D01*
X332854512Y-249292614D02*
X332854512Y-250078328D01*
D10*
D11*
X313684398Y-245586128D02*
X313684398Y-246657557D01*
X313684398Y-246657557D02*
X313612969Y-246871842D01*
X313612969Y-246871842D02*
X313470112Y-247014700D01*
X313470112Y-247014700D02*
X313255826Y-247086128D01*
X313255826Y-247086128D02*
X313112969Y-247086128D01*
X314612969Y-247086128D02*
X314470112Y-247014700D01*
X314470112Y-247014700D02*
X314398683Y-246943271D01*
X314398683Y-246943271D02*
X314327255Y-246800414D01*
X314327255Y-246800414D02*
X314327255Y-246371842D01*
X314327255Y-246371842D02*
X314398683Y-246228985D01*
X314398683Y-246228985D02*
X314470112Y-246157557D01*
X314470112Y-246157557D02*
X314612969Y-246086128D01*
X314612969Y-246086128D02*
X314827255Y-246086128D01*
X314827255Y-246086128D02*
X314970112Y-246157557D01*
X314970112Y-246157557D02*
X315041541Y-246228985D01*
X315041541Y-246228985D02*
X315112969Y-246371842D01*
X315112969Y-246371842D02*
X315112969Y-246800414D01*
X315112969Y-246800414D02*
X315041541Y-246943271D01*
X315041541Y-246943271D02*
X314970112Y-247014700D01*
X314970112Y-247014700D02*
X314827255Y-247086128D01*
X314827255Y-247086128D02*
X314612969Y-247086128D01*
X315755826Y-247086128D02*
X315755826Y-245586128D01*
X316398684Y-247086128D02*
X316398684Y-246300414D01*
X316398684Y-246300414D02*
X316327255Y-246157557D01*
X316327255Y-246157557D02*
X316184398Y-246086128D01*
X316184398Y-246086128D02*
X315970112Y-246086128D01*
X315970112Y-246086128D02*
X315827255Y-246157557D01*
X315827255Y-246157557D02*
X315755826Y-246228985D01*
X317112969Y-246086128D02*
X317112969Y-247086128D01*
X317112969Y-246228985D02*
X317184398Y-246157557D01*
X317184398Y-246157557D02*
X317327255Y-246086128D01*
X317327255Y-246086128D02*
X317541541Y-246086128D01*
X317541541Y-246086128D02*
X317684398Y-246157557D01*
X317684398Y-246157557D02*
X317755827Y-246300414D01*
X317755827Y-246300414D02*
X317755827Y-247086128D01*
X319612969Y-247086128D02*
X319612969Y-245586128D01*
X319612969Y-245586128D02*
X320112969Y-246657557D01*
X320112969Y-246657557D02*
X320612969Y-245586128D01*
X320612969Y-245586128D02*
X320612969Y-247086128D01*
X321970113Y-247014700D02*
X321827255Y-247086128D01*
X321827255Y-247086128D02*
X321541541Y-247086128D01*
X321541541Y-247086128D02*
X321398684Y-247014700D01*
X321398684Y-247014700D02*
X321327255Y-246943271D01*
X321327255Y-246943271D02*
X321255827Y-246800414D01*
X321255827Y-246800414D02*
X321255827Y-246371842D01*
X321255827Y-246371842D02*
X321327255Y-246228985D01*
X321327255Y-246228985D02*
X321398684Y-246157557D01*
X321398684Y-246157557D02*
X321541541Y-246086128D01*
X321541541Y-246086128D02*
X321827255Y-246086128D01*
X321827255Y-246086128D02*
X321970113Y-246157557D01*
X322612969Y-247086128D02*
X322612969Y-245586128D01*
X322612969Y-245586128D02*
X323470112Y-247086128D01*
X323470112Y-247086128D02*
X323470112Y-245586128D01*
X324755827Y-247014700D02*
X324612970Y-247086128D01*
X324612970Y-247086128D02*
X324327256Y-247086128D01*
X324327256Y-247086128D02*
X324184398Y-247014700D01*
X324184398Y-247014700D02*
X324112970Y-246871842D01*
X324112970Y-246871842D02*
X324112970Y-246300414D01*
X324112970Y-246300414D02*
X324184398Y-246157557D01*
X324184398Y-246157557D02*
X324327256Y-246086128D01*
X324327256Y-246086128D02*
X324612970Y-246086128D01*
X324612970Y-246086128D02*
X324755827Y-246157557D01*
X324755827Y-246157557D02*
X324827256Y-246300414D01*
X324827256Y-246300414D02*
X324827256Y-246443271D01*
X324827256Y-246443271D02*
X324112970Y-246586128D01*
X325684398Y-247086128D02*
X325541541Y-247014700D01*
X325541541Y-247014700D02*
X325470112Y-246871842D01*
X325470112Y-246871842D02*
X325470112Y-245586128D01*
X326470112Y-247086128D02*
X326327255Y-247014700D01*
X326327255Y-247014700D02*
X326255826Y-246871842D01*
X326255826Y-246871842D02*
X326255826Y-245586128D01*
X326898683Y-246086128D02*
X327255826Y-247086128D01*
X327612969Y-246086128D02*
X327255826Y-247086128D01*
X327255826Y-247086128D02*
X327112969Y-247443271D01*
X327112969Y-247443271D02*
X327041540Y-247514700D01*
X327041540Y-247514700D02*
X326898683Y-247586128D01*
X329327254Y-246514700D02*
X330470112Y-246514700D01*
X332327254Y-246086128D02*
X332327254Y-247371842D01*
X332327254Y-247371842D02*
X332255826Y-247514700D01*
X332255826Y-247514700D02*
X332112969Y-247586128D01*
X332112969Y-247586128D02*
X332041540Y-247586128D01*
X332327254Y-245586128D02*
X332255826Y-245657557D01*
X332255826Y-245657557D02*
X332327254Y-245728985D01*
X332327254Y-245728985D02*
X332398683Y-245657557D01*
X332398683Y-245657557D02*
X332327254Y-245586128D01*
X332327254Y-245586128D02*
X332327254Y-245728985D01*
X333041540Y-247086128D02*
X333041540Y-245586128D01*
X333184398Y-246514700D02*
X333612969Y-247086128D01*
X333612969Y-246086128D02*
X333041540Y-246657557D01*
X334898684Y-247086128D02*
X334898684Y-246300414D01*
X334898684Y-246300414D02*
X334827255Y-246157557D01*
X334827255Y-246157557D02*
X334684398Y-246086128D01*
X334684398Y-246086128D02*
X334398684Y-246086128D01*
X334398684Y-246086128D02*
X334255826Y-246157557D01*
X334898684Y-247014700D02*
X334755826Y-247086128D01*
X334755826Y-247086128D02*
X334398684Y-247086128D01*
X334398684Y-247086128D02*
X334255826Y-247014700D01*
X334255826Y-247014700D02*
X334184398Y-246871842D01*
X334184398Y-246871842D02*
X334184398Y-246728985D01*
X334184398Y-246728985D02*
X334255826Y-246586128D01*
X334255826Y-246586128D02*
X334398684Y-246514700D01*
X334398684Y-246514700D02*
X334755826Y-246514700D01*
X334755826Y-246514700D02*
X334898684Y-246443271D01*
X335612969Y-247086128D02*
X335612969Y-246086128D01*
X335612969Y-245586128D02*
X335541541Y-245657557D01*
X335541541Y-245657557D02*
X335612969Y-245728985D01*
X335612969Y-245728985D02*
X335684398Y-245657557D01*
X335684398Y-245657557D02*
X335612969Y-245586128D01*
X335612969Y-245586128D02*
X335612969Y-245728985D01*
X336541541Y-247086128D02*
X336398684Y-247014700D01*
X336398684Y-247014700D02*
X336327255Y-246871842D01*
X336327255Y-246871842D02*
X336327255Y-245586128D01*
X337112969Y-247086128D02*
X337112969Y-246086128D01*
X337112969Y-245586128D02*
X337041541Y-245657557D01*
X337041541Y-245657557D02*
X337112969Y-245728985D01*
X337112969Y-245728985D02*
X337184398Y-245657557D01*
X337184398Y-245657557D02*
X337112969Y-245586128D01*
X337112969Y-245586128D02*
X337112969Y-245728985D01*
X337827255Y-247086128D02*
X337827255Y-246086128D01*
X337827255Y-246228985D02*
X337898684Y-246157557D01*
X337898684Y-246157557D02*
X338041541Y-246086128D01*
X338041541Y-246086128D02*
X338255827Y-246086128D01*
X338255827Y-246086128D02*
X338398684Y-246157557D01*
X338398684Y-246157557D02*
X338470113Y-246300414D01*
X338470113Y-246300414D02*
X338470113Y-247086128D01*
X338470113Y-246300414D02*
X338541541Y-246157557D01*
X338541541Y-246157557D02*
X338684398Y-246086128D01*
X338684398Y-246086128D02*
X338898684Y-246086128D01*
X338898684Y-246086128D02*
X339041541Y-246157557D01*
X339041541Y-246157557D02*
X339112970Y-246300414D01*
X339112970Y-246300414D02*
X339112970Y-247086128D01*
X340470113Y-247014700D02*
X340327255Y-247086128D01*
X340327255Y-247086128D02*
X340041541Y-247086128D01*
X340041541Y-247086128D02*
X339898684Y-247014700D01*
X339898684Y-247014700D02*
X339827255Y-246943271D01*
X339827255Y-246943271D02*
X339755827Y-246800414D01*
X339755827Y-246800414D02*
X339755827Y-246371842D01*
X339755827Y-246371842D02*
X339827255Y-246228985D01*
X339827255Y-246228985D02*
X339898684Y-246157557D01*
X339898684Y-246157557D02*
X340041541Y-246086128D01*
X340041541Y-246086128D02*
X340327255Y-246086128D01*
X340327255Y-246086128D02*
X340470113Y-246157557D01*
X341112969Y-246086128D02*
X341112969Y-247086128D01*
X341112969Y-246228985D02*
X341184398Y-246157557D01*
X341184398Y-246157557D02*
X341327255Y-246086128D01*
X341327255Y-246086128D02*
X341541541Y-246086128D01*
X341541541Y-246086128D02*
X341684398Y-246157557D01*
X341684398Y-246157557D02*
X341755827Y-246300414D01*
X341755827Y-246300414D02*
X341755827Y-247086128D01*
X343041541Y-247014700D02*
X342898684Y-247086128D01*
X342898684Y-247086128D02*
X342612970Y-247086128D01*
X342612970Y-247086128D02*
X342470112Y-247014700D01*
X342470112Y-247014700D02*
X342398684Y-246871842D01*
X342398684Y-246871842D02*
X342398684Y-246300414D01*
X342398684Y-246300414D02*
X342470112Y-246157557D01*
X342470112Y-246157557D02*
X342612970Y-246086128D01*
X342612970Y-246086128D02*
X342898684Y-246086128D01*
X342898684Y-246086128D02*
X343041541Y-246157557D01*
X343041541Y-246157557D02*
X343112970Y-246300414D01*
X343112970Y-246300414D02*
X343112970Y-246443271D01*
X343112970Y-246443271D02*
X342398684Y-246586128D01*
X343970112Y-247086128D02*
X343827255Y-247014700D01*
X343827255Y-247014700D02*
X343755826Y-246871842D01*
X343755826Y-246871842D02*
X343755826Y-245586128D01*
X344755826Y-247086128D02*
X344612969Y-247014700D01*
X344612969Y-247014700D02*
X344541540Y-246871842D01*
X344541540Y-246871842D02*
X344541540Y-245586128D01*
X345184397Y-246086128D02*
X345541540Y-247086128D01*
X345898683Y-246086128D02*
X345541540Y-247086128D01*
X345541540Y-247086128D02*
X345398683Y-247443271D01*
X345398683Y-247443271D02*
X345327254Y-247514700D01*
X345327254Y-247514700D02*
X345184397Y-247586128D01*
X347398683Y-246371842D02*
X347327254Y-246300414D01*
X347327254Y-246300414D02*
X347184397Y-246228985D01*
X347184397Y-246228985D02*
X347041540Y-246228985D01*
X347041540Y-246228985D02*
X346898683Y-246300414D01*
X346898683Y-246300414D02*
X346827254Y-246371842D01*
X346827254Y-246371842D02*
X346755826Y-246514700D01*
X346755826Y-246514700D02*
X346755826Y-246657557D01*
X346755826Y-246657557D02*
X346827254Y-246800414D01*
X346827254Y-246800414D02*
X346898683Y-246871842D01*
X346898683Y-246871842D02*
X347041540Y-246943271D01*
X347041540Y-246943271D02*
X347184397Y-246943271D01*
X347184397Y-246943271D02*
X347327254Y-246871842D01*
X347327254Y-246871842D02*
X347398683Y-246800414D01*
X347398683Y-246228985D02*
X347398683Y-246800414D01*
X347398683Y-246800414D02*
X347470111Y-246871842D01*
X347470111Y-246871842D02*
X347541540Y-246871842D01*
X347541540Y-246871842D02*
X347684397Y-246800414D01*
X347684397Y-246800414D02*
X347755826Y-246657557D01*
X347755826Y-246657557D02*
X347755826Y-246300414D01*
X347755826Y-246300414D02*
X347612969Y-246086128D01*
X347612969Y-246086128D02*
X347398683Y-245943271D01*
X347398683Y-245943271D02*
X347112969Y-245871842D01*
X347112969Y-245871842D02*
X346827254Y-245943271D01*
X346827254Y-245943271D02*
X346612969Y-246086128D01*
X346612969Y-246086128D02*
X346470111Y-246300414D01*
X346470111Y-246300414D02*
X346398683Y-246586128D01*
X346398683Y-246586128D02*
X346470111Y-246871842D01*
X346470111Y-246871842D02*
X346612969Y-247086128D01*
X346612969Y-247086128D02*
X346827254Y-247228985D01*
X346827254Y-247228985D02*
X347112969Y-247300414D01*
X347112969Y-247300414D02*
X347398683Y-247228985D01*
X347398683Y-247228985D02*
X347612969Y-247086128D01*
X349041540Y-246086128D02*
X349041540Y-247300414D01*
X349041540Y-247300414D02*
X348970111Y-247443271D01*
X348970111Y-247443271D02*
X348898682Y-247514700D01*
X348898682Y-247514700D02*
X348755825Y-247586128D01*
X348755825Y-247586128D02*
X348541540Y-247586128D01*
X348541540Y-247586128D02*
X348398682Y-247514700D01*
X349041540Y-247014700D02*
X348898682Y-247086128D01*
X348898682Y-247086128D02*
X348612968Y-247086128D01*
X348612968Y-247086128D02*
X348470111Y-247014700D01*
X348470111Y-247014700D02*
X348398682Y-246943271D01*
X348398682Y-246943271D02*
X348327254Y-246800414D01*
X348327254Y-246800414D02*
X348327254Y-246371842D01*
X348327254Y-246371842D02*
X348398682Y-246228985D01*
X348398682Y-246228985D02*
X348470111Y-246157557D01*
X348470111Y-246157557D02*
X348612968Y-246086128D01*
X348612968Y-246086128D02*
X348898682Y-246086128D01*
X348898682Y-246086128D02*
X349041540Y-246157557D01*
X349755825Y-247086128D02*
X349755825Y-246086128D01*
X349755825Y-246228985D02*
X349827254Y-246157557D01*
X349827254Y-246157557D02*
X349970111Y-246086128D01*
X349970111Y-246086128D02*
X350184397Y-246086128D01*
X350184397Y-246086128D02*
X350327254Y-246157557D01*
X350327254Y-246157557D02*
X350398683Y-246300414D01*
X350398683Y-246300414D02*
X350398683Y-247086128D01*
X350398683Y-246300414D02*
X350470111Y-246157557D01*
X350470111Y-246157557D02*
X350612968Y-246086128D01*
X350612968Y-246086128D02*
X350827254Y-246086128D01*
X350827254Y-246086128D02*
X350970111Y-246157557D01*
X350970111Y-246157557D02*
X351041540Y-246300414D01*
X351041540Y-246300414D02*
X351041540Y-247086128D01*
X352398683Y-247086128D02*
X352398683Y-246300414D01*
X352398683Y-246300414D02*
X352327254Y-246157557D01*
X352327254Y-246157557D02*
X352184397Y-246086128D01*
X352184397Y-246086128D02*
X351898683Y-246086128D01*
X351898683Y-246086128D02*
X351755825Y-246157557D01*
X352398683Y-247014700D02*
X352255825Y-247086128D01*
X352255825Y-247086128D02*
X351898683Y-247086128D01*
X351898683Y-247086128D02*
X351755825Y-247014700D01*
X351755825Y-247014700D02*
X351684397Y-246871842D01*
X351684397Y-246871842D02*
X351684397Y-246728985D01*
X351684397Y-246728985D02*
X351755825Y-246586128D01*
X351755825Y-246586128D02*
X351898683Y-246514700D01*
X351898683Y-246514700D02*
X352255825Y-246514700D01*
X352255825Y-246514700D02*
X352398683Y-246443271D01*
X353112968Y-247086128D02*
X353112968Y-246086128D01*
X353112968Y-245586128D02*
X353041540Y-245657557D01*
X353041540Y-245657557D02*
X353112968Y-245728985D01*
X353112968Y-245728985D02*
X353184397Y-245657557D01*
X353184397Y-245657557D02*
X353112968Y-245586128D01*
X353112968Y-245586128D02*
X353112968Y-245728985D01*
X354041540Y-247086128D02*
X353898683Y-247014700D01*
X353898683Y-247014700D02*
X353827254Y-246871842D01*
X353827254Y-246871842D02*
X353827254Y-245586128D01*
X354612968Y-246943271D02*
X354684397Y-247014700D01*
X354684397Y-247014700D02*
X354612968Y-247086128D01*
X354612968Y-247086128D02*
X354541540Y-247014700D01*
X354541540Y-247014700D02*
X354612968Y-246943271D01*
X354612968Y-246943271D02*
X354612968Y-247086128D01*
X355970112Y-247014700D02*
X355827254Y-247086128D01*
X355827254Y-247086128D02*
X355541540Y-247086128D01*
X355541540Y-247086128D02*
X355398683Y-247014700D01*
X355398683Y-247014700D02*
X355327254Y-246943271D01*
X355327254Y-246943271D02*
X355255826Y-246800414D01*
X355255826Y-246800414D02*
X355255826Y-246371842D01*
X355255826Y-246371842D02*
X355327254Y-246228985D01*
X355327254Y-246228985D02*
X355398683Y-246157557D01*
X355398683Y-246157557D02*
X355541540Y-246086128D01*
X355541540Y-246086128D02*
X355827254Y-246086128D01*
X355827254Y-246086128D02*
X355970112Y-246157557D01*
X356827254Y-247086128D02*
X356684397Y-247014700D01*
X356684397Y-247014700D02*
X356612968Y-246943271D01*
X356612968Y-246943271D02*
X356541540Y-246800414D01*
X356541540Y-246800414D02*
X356541540Y-246371842D01*
X356541540Y-246371842D02*
X356612968Y-246228985D01*
X356612968Y-246228985D02*
X356684397Y-246157557D01*
X356684397Y-246157557D02*
X356827254Y-246086128D01*
X356827254Y-246086128D02*
X357041540Y-246086128D01*
X357041540Y-246086128D02*
X357184397Y-246157557D01*
X357184397Y-246157557D02*
X357255826Y-246228985D01*
X357255826Y-246228985D02*
X357327254Y-246371842D01*
X357327254Y-246371842D02*
X357327254Y-246800414D01*
X357327254Y-246800414D02*
X357255826Y-246943271D01*
X357255826Y-246943271D02*
X357184397Y-247014700D01*
X357184397Y-247014700D02*
X357041540Y-247086128D01*
X357041540Y-247086128D02*
X356827254Y-247086128D01*
X357970111Y-247086128D02*
X357970111Y-246086128D01*
X357970111Y-246228985D02*
X358041540Y-246157557D01*
X358041540Y-246157557D02*
X358184397Y-246086128D01*
X358184397Y-246086128D02*
X358398683Y-246086128D01*
X358398683Y-246086128D02*
X358541540Y-246157557D01*
X358541540Y-246157557D02*
X358612969Y-246300414D01*
X358612969Y-246300414D02*
X358612969Y-247086128D01*
X358612969Y-246300414D02*
X358684397Y-246157557D01*
X358684397Y-246157557D02*
X358827254Y-246086128D01*
X358827254Y-246086128D02*
X359041540Y-246086128D01*
X359041540Y-246086128D02*
X359184397Y-246157557D01*
X359184397Y-246157557D02*
X359255826Y-246300414D01*
X359255826Y-246300414D02*
X359255826Y-247086128D01*
D10*
D11*
D10*
D11*
D10*
D11*
D10*
D11*
X331800000Y-260900000D02*
X331800000Y-263900000D01*
D10*
D11*
X395800000Y-260900000D02*
X395800000Y-267400000D01*
D14*
X54398716Y-57232309D02*
X54398716Y-56732309D01*
X54398716Y-56732309D02*
X54232049Y-57089452D01*
X54232049Y-57089452D02*
X54065383Y-56732309D01*
X54065383Y-56732309D02*
X54065383Y-57232309D01*
X53898715Y-56732309D02*
X53613001Y-56732309D01*
X53755858Y-57232309D02*
X53755858Y-56732309D01*
X53208240Y-57232309D02*
X53446335Y-57232309D01*
X53446335Y-57232309D02*
X53446335Y-56732309D01*
X53160621Y-57279928D02*
X52779668Y-57279928D01*
X52660621Y-57232309D02*
X52660621Y-56732309D01*
X52660621Y-56970404D02*
X52374907Y-56970404D01*
X52374907Y-57232309D02*
X52374907Y-56732309D01*
X52136811Y-57232309D02*
X52136811Y-56732309D01*
X52017764Y-57279928D02*
X51636811Y-57279928D01*
X51351097Y-56970404D02*
X51279669Y-56994214D01*
X51279669Y-56994214D02*
X51255859Y-57018023D01*
X51255859Y-57018023D02*
X51232050Y-57065642D01*
X51232050Y-57065642D02*
X51232050Y-57137071D01*
X51232050Y-57137071D02*
X51255859Y-57184690D01*
X51255859Y-57184690D02*
X51279669Y-57208500D01*
X51279669Y-57208500D02*
X51327288Y-57232309D01*
X51327288Y-57232309D02*
X51517764Y-57232309D01*
X51517764Y-57232309D02*
X51517764Y-56732309D01*
X51517764Y-56732309D02*
X51351097Y-56732309D01*
X51351097Y-56732309D02*
X51303478Y-56756119D01*
X51303478Y-56756119D02*
X51279669Y-56779928D01*
X51279669Y-56779928D02*
X51255859Y-56827547D01*
X51255859Y-56827547D02*
X51255859Y-56875166D01*
X51255859Y-56875166D02*
X51279669Y-56922785D01*
X51279669Y-56922785D02*
X51303478Y-56946595D01*
X51303478Y-56946595D02*
X51351097Y-56970404D01*
X51351097Y-56970404D02*
X51517764Y-56970404D01*
X51017764Y-57232309D02*
X51017764Y-56732309D01*
X50803478Y-57089452D02*
X50565383Y-57089452D01*
X50851097Y-57232309D02*
X50684431Y-56732309D01*
X50684431Y-56732309D02*
X50517764Y-57232309D01*
X50374907Y-57208500D02*
X50303479Y-57232309D01*
X50303479Y-57232309D02*
X50184431Y-57232309D01*
X50184431Y-57232309D02*
X50136812Y-57208500D01*
X50136812Y-57208500D02*
X50113003Y-57184690D01*
X50113003Y-57184690D02*
X50089193Y-57137071D01*
X50089193Y-57137071D02*
X50089193Y-57089452D01*
X50089193Y-57089452D02*
X50113003Y-57041833D01*
X50113003Y-57041833D02*
X50136812Y-57018023D01*
X50136812Y-57018023D02*
X50184431Y-56994214D01*
X50184431Y-56994214D02*
X50279669Y-56970404D01*
X50279669Y-56970404D02*
X50327288Y-56946595D01*
X50327288Y-56946595D02*
X50351098Y-56922785D01*
X50351098Y-56922785D02*
X50374907Y-56875166D01*
X50374907Y-56875166D02*
X50374907Y-56827547D01*
X50374907Y-56827547D02*
X50351098Y-56779928D01*
X50351098Y-56779928D02*
X50327288Y-56756119D01*
X50327288Y-56756119D02*
X50279669Y-56732309D01*
X50279669Y-56732309D02*
X50160622Y-56732309D01*
X50160622Y-56732309D02*
X50089193Y-56756119D01*
X59113002Y-61632309D02*
X59279668Y-61394214D01*
X59398716Y-61632309D02*
X59398716Y-61132309D01*
X59398716Y-61132309D02*
X59208240Y-61132309D01*
X59208240Y-61132309D02*
X59160621Y-61156119D01*
X59160621Y-61156119D02*
X59136811Y-61179928D01*
X59136811Y-61179928D02*
X59113002Y-61227547D01*
X59113002Y-61227547D02*
X59113002Y-61298976D01*
X59113002Y-61298976D02*
X59136811Y-61346595D01*
X59136811Y-61346595D02*
X59160621Y-61370404D01*
X59160621Y-61370404D02*
X59208240Y-61394214D01*
X59208240Y-61394214D02*
X59398716Y-61394214D01*
X58922525Y-61608500D02*
X58851097Y-61632309D01*
X58851097Y-61632309D02*
X58732049Y-61632309D01*
X58732049Y-61632309D02*
X58684430Y-61608500D01*
X58684430Y-61608500D02*
X58660621Y-61584690D01*
X58660621Y-61584690D02*
X58636811Y-61537071D01*
X58636811Y-61537071D02*
X58636811Y-61489452D01*
X58636811Y-61489452D02*
X58660621Y-61441833D01*
X58660621Y-61441833D02*
X58684430Y-61418023D01*
X58684430Y-61418023D02*
X58732049Y-61394214D01*
X58732049Y-61394214D02*
X58827287Y-61370404D01*
X58827287Y-61370404D02*
X58874906Y-61346595D01*
X58874906Y-61346595D02*
X58898716Y-61322785D01*
X58898716Y-61322785D02*
X58922525Y-61275166D01*
X58922525Y-61275166D02*
X58922525Y-61227547D01*
X58922525Y-61227547D02*
X58898716Y-61179928D01*
X58898716Y-61179928D02*
X58874906Y-61156119D01*
X58874906Y-61156119D02*
X58827287Y-61132309D01*
X58827287Y-61132309D02*
X58708240Y-61132309D01*
X58708240Y-61132309D02*
X58636811Y-61156119D01*
X58446335Y-61608500D02*
X58374907Y-61632309D01*
X58374907Y-61632309D02*
X58255859Y-61632309D01*
X58255859Y-61632309D02*
X58208240Y-61608500D01*
X58208240Y-61608500D02*
X58184431Y-61584690D01*
X58184431Y-61584690D02*
X58160621Y-61537071D01*
X58160621Y-61537071D02*
X58160621Y-61489452D01*
X58160621Y-61489452D02*
X58184431Y-61441833D01*
X58184431Y-61441833D02*
X58208240Y-61418023D01*
X58208240Y-61418023D02*
X58255859Y-61394214D01*
X58255859Y-61394214D02*
X58351097Y-61370404D01*
X58351097Y-61370404D02*
X58398716Y-61346595D01*
X58398716Y-61346595D02*
X58422526Y-61322785D01*
X58422526Y-61322785D02*
X58446335Y-61275166D01*
X58446335Y-61275166D02*
X58446335Y-61227547D01*
X58446335Y-61227547D02*
X58422526Y-61179928D01*
X58422526Y-61179928D02*
X58398716Y-61156119D01*
X58398716Y-61156119D02*
X58351097Y-61132309D01*
X58351097Y-61132309D02*
X58232050Y-61132309D01*
X58232050Y-61132309D02*
X58160621Y-61156119D01*
X57946336Y-61632309D02*
X57946336Y-61132309D01*
X57827289Y-61679928D02*
X57446336Y-61679928D01*
X57327289Y-61632309D02*
X57327289Y-61132309D01*
X57327289Y-61370404D02*
X57041575Y-61370404D01*
X57041575Y-61632309D02*
X57041575Y-61132309D01*
X56708241Y-61132309D02*
X56613003Y-61132309D01*
X56613003Y-61132309D02*
X56565384Y-61156119D01*
X56565384Y-61156119D02*
X56517765Y-61203738D01*
X56517765Y-61203738D02*
X56493955Y-61298976D01*
X56493955Y-61298976D02*
X56493955Y-61465642D01*
X56493955Y-61465642D02*
X56517765Y-61560880D01*
X56517765Y-61560880D02*
X56565384Y-61608500D01*
X56565384Y-61608500D02*
X56613003Y-61632309D01*
X56613003Y-61632309D02*
X56708241Y-61632309D01*
X56708241Y-61632309D02*
X56755860Y-61608500D01*
X56755860Y-61608500D02*
X56803479Y-61560880D01*
X56803479Y-61560880D02*
X56827288Y-61465642D01*
X56827288Y-61465642D02*
X56827288Y-61298976D01*
X56827288Y-61298976D02*
X56803479Y-61203738D01*
X56803479Y-61203738D02*
X56755860Y-61156119D01*
X56755860Y-61156119D02*
X56708241Y-61132309D01*
X56041574Y-61632309D02*
X56279669Y-61632309D01*
X56279669Y-61632309D02*
X56279669Y-61132309D01*
X55874907Y-61632309D02*
X55874907Y-61132309D01*
X55874907Y-61132309D02*
X55755859Y-61132309D01*
X55755859Y-61132309D02*
X55684431Y-61156119D01*
X55684431Y-61156119D02*
X55636812Y-61203738D01*
X55636812Y-61203738D02*
X55613002Y-61251357D01*
X55613002Y-61251357D02*
X55589193Y-61346595D01*
X55589193Y-61346595D02*
X55589193Y-61418023D01*
X55589193Y-61418023D02*
X55613002Y-61513261D01*
X55613002Y-61513261D02*
X55636812Y-61560880D01*
X55636812Y-61560880D02*
X55684431Y-61608500D01*
X55684431Y-61608500D02*
X55755859Y-61632309D01*
X55755859Y-61632309D02*
X55874907Y-61632309D01*
X60313002Y-58932309D02*
X60479668Y-58694214D01*
X60598716Y-58932309D02*
X60598716Y-58432309D01*
X60598716Y-58432309D02*
X60408240Y-58432309D01*
X60408240Y-58432309D02*
X60360621Y-58456119D01*
X60360621Y-58456119D02*
X60336811Y-58479928D01*
X60336811Y-58479928D02*
X60313002Y-58527547D01*
X60313002Y-58527547D02*
X60313002Y-58598976D01*
X60313002Y-58598976D02*
X60336811Y-58646595D01*
X60336811Y-58646595D02*
X60360621Y-58670404D01*
X60360621Y-58670404D02*
X60408240Y-58694214D01*
X60408240Y-58694214D02*
X60598716Y-58694214D01*
X59932049Y-58670404D02*
X60098716Y-58670404D01*
X60098716Y-58932309D02*
X60098716Y-58432309D01*
X60098716Y-58432309D02*
X59860621Y-58432309D01*
X59789193Y-58979928D02*
X59408240Y-58979928D01*
X59289193Y-58932309D02*
X59289193Y-58432309D01*
X59289193Y-58432309D02*
X59170145Y-58432309D01*
X59170145Y-58432309D02*
X59098717Y-58456119D01*
X59098717Y-58456119D02*
X59051098Y-58503738D01*
X59051098Y-58503738D02*
X59027288Y-58551357D01*
X59027288Y-58551357D02*
X59003479Y-58646595D01*
X59003479Y-58646595D02*
X59003479Y-58718023D01*
X59003479Y-58718023D02*
X59027288Y-58813261D01*
X59027288Y-58813261D02*
X59051098Y-58860880D01*
X59051098Y-58860880D02*
X59098717Y-58908500D01*
X59098717Y-58908500D02*
X59170145Y-58932309D01*
X59170145Y-58932309D02*
X59289193Y-58932309D01*
X58789193Y-58670404D02*
X58622526Y-58670404D01*
X58551098Y-58932309D02*
X58789193Y-58932309D01*
X58789193Y-58932309D02*
X58789193Y-58432309D01*
X58789193Y-58432309D02*
X58551098Y-58432309D01*
X58408240Y-58432309D02*
X58122526Y-58432309D01*
X58265383Y-58932309D02*
X58265383Y-58432309D01*
X58074908Y-58979928D02*
X57693955Y-58979928D01*
X57479670Y-58432309D02*
X57384432Y-58432309D01*
X57384432Y-58432309D02*
X57336813Y-58456119D01*
X57336813Y-58456119D02*
X57289194Y-58503738D01*
X57289194Y-58503738D02*
X57265384Y-58598976D01*
X57265384Y-58598976D02*
X57265384Y-58765642D01*
X57265384Y-58765642D02*
X57289194Y-58860880D01*
X57289194Y-58860880D02*
X57336813Y-58908500D01*
X57336813Y-58908500D02*
X57384432Y-58932309D01*
X57384432Y-58932309D02*
X57479670Y-58932309D01*
X57479670Y-58932309D02*
X57527289Y-58908500D01*
X57527289Y-58908500D02*
X57574908Y-58860880D01*
X57574908Y-58860880D02*
X57598717Y-58765642D01*
X57598717Y-58765642D02*
X57598717Y-58598976D01*
X57598717Y-58598976D02*
X57574908Y-58503738D01*
X57574908Y-58503738D02*
X57527289Y-58456119D01*
X57527289Y-58456119D02*
X57479670Y-58432309D01*
X57051098Y-58432309D02*
X57051098Y-58837071D01*
X57051098Y-58837071D02*
X57027288Y-58884690D01*
X57027288Y-58884690D02*
X57003479Y-58908500D01*
X57003479Y-58908500D02*
X56955860Y-58932309D01*
X56955860Y-58932309D02*
X56860622Y-58932309D01*
X56860622Y-58932309D02*
X56813003Y-58908500D01*
X56813003Y-58908500D02*
X56789193Y-58884690D01*
X56789193Y-58884690D02*
X56765384Y-58837071D01*
X56765384Y-58837071D02*
X56765384Y-58432309D01*
X56598716Y-58432309D02*
X56313002Y-58432309D01*
X56455859Y-58932309D02*
X56455859Y-58432309D01*
X57398716Y-55832309D02*
X57398716Y-55332309D01*
X57398716Y-55332309D02*
X57232049Y-55689452D01*
X57232049Y-55689452D02*
X57065383Y-55332309D01*
X57065383Y-55332309D02*
X57065383Y-55832309D01*
X56898715Y-55332309D02*
X56613001Y-55332309D01*
X56755858Y-55832309D02*
X56755858Y-55332309D01*
X56208240Y-55832309D02*
X56446335Y-55832309D01*
X56446335Y-55832309D02*
X56446335Y-55332309D01*
X56160621Y-55879928D02*
X55779668Y-55879928D01*
X55493954Y-55570404D02*
X55422526Y-55594214D01*
X55422526Y-55594214D02*
X55398716Y-55618023D01*
X55398716Y-55618023D02*
X55374907Y-55665642D01*
X55374907Y-55665642D02*
X55374907Y-55737071D01*
X55374907Y-55737071D02*
X55398716Y-55784690D01*
X55398716Y-55784690D02*
X55422526Y-55808500D01*
X55422526Y-55808500D02*
X55470145Y-55832309D01*
X55470145Y-55832309D02*
X55660621Y-55832309D01*
X55660621Y-55832309D02*
X55660621Y-55332309D01*
X55660621Y-55332309D02*
X55493954Y-55332309D01*
X55493954Y-55332309D02*
X55446335Y-55356119D01*
X55446335Y-55356119D02*
X55422526Y-55379928D01*
X55422526Y-55379928D02*
X55398716Y-55427547D01*
X55398716Y-55427547D02*
X55398716Y-55475166D01*
X55398716Y-55475166D02*
X55422526Y-55522785D01*
X55422526Y-55522785D02*
X55446335Y-55546595D01*
X55446335Y-55546595D02*
X55493954Y-55570404D01*
X55493954Y-55570404D02*
X55660621Y-55570404D01*
X55160621Y-55832309D02*
X55160621Y-55332309D01*
X54946335Y-55689452D02*
X54708240Y-55689452D01*
X54993954Y-55832309D02*
X54827288Y-55332309D01*
X54827288Y-55332309D02*
X54660621Y-55832309D01*
X54517764Y-55808500D02*
X54446336Y-55832309D01*
X54446336Y-55832309D02*
X54327288Y-55832309D01*
X54327288Y-55832309D02*
X54279669Y-55808500D01*
X54279669Y-55808500D02*
X54255860Y-55784690D01*
X54255860Y-55784690D02*
X54232050Y-55737071D01*
X54232050Y-55737071D02*
X54232050Y-55689452D01*
X54232050Y-55689452D02*
X54255860Y-55641833D01*
X54255860Y-55641833D02*
X54279669Y-55618023D01*
X54279669Y-55618023D02*
X54327288Y-55594214D01*
X54327288Y-55594214D02*
X54422526Y-55570404D01*
X54422526Y-55570404D02*
X54470145Y-55546595D01*
X54470145Y-55546595D02*
X54493955Y-55522785D01*
X54493955Y-55522785D02*
X54517764Y-55475166D01*
X54517764Y-55475166D02*
X54517764Y-55427547D01*
X54517764Y-55427547D02*
X54493955Y-55379928D01*
X54493955Y-55379928D02*
X54470145Y-55356119D01*
X54470145Y-55356119D02*
X54422526Y-55332309D01*
X54422526Y-55332309D02*
X54303479Y-55332309D01*
X54303479Y-55332309D02*
X54232050Y-55356119D01*
X48898716Y-50932309D02*
X48898716Y-50432309D01*
X48898716Y-50432309D02*
X48732049Y-50789452D01*
X48732049Y-50789452D02*
X48565383Y-50432309D01*
X48565383Y-50432309D02*
X48565383Y-50932309D01*
X48398715Y-50432309D02*
X48113001Y-50432309D01*
X48255858Y-50932309D02*
X48255858Y-50432309D01*
X47708240Y-50932309D02*
X47946335Y-50932309D01*
X47946335Y-50932309D02*
X47946335Y-50432309D01*
X47660621Y-50979928D02*
X47279668Y-50979928D01*
X46922526Y-50932309D02*
X47160621Y-50932309D01*
X47160621Y-50932309D02*
X47160621Y-50432309D01*
X46660621Y-50432309D02*
X46565383Y-50432309D01*
X46565383Y-50432309D02*
X46517764Y-50456119D01*
X46517764Y-50456119D02*
X46470145Y-50503738D01*
X46470145Y-50503738D02*
X46446335Y-50598976D01*
X46446335Y-50598976D02*
X46446335Y-50765642D01*
X46446335Y-50765642D02*
X46470145Y-50860880D01*
X46470145Y-50860880D02*
X46517764Y-50908500D01*
X46517764Y-50908500D02*
X46565383Y-50932309D01*
X46565383Y-50932309D02*
X46660621Y-50932309D01*
X46660621Y-50932309D02*
X46708240Y-50908500D01*
X46708240Y-50908500D02*
X46755859Y-50860880D01*
X46755859Y-50860880D02*
X46779668Y-50765642D01*
X46779668Y-50765642D02*
X46779668Y-50598976D01*
X46779668Y-50598976D02*
X46755859Y-50503738D01*
X46755859Y-50503738D02*
X46708240Y-50456119D01*
X46708240Y-50456119D02*
X46660621Y-50432309D01*
X46351097Y-50979928D02*
X45970144Y-50979928D01*
X45684430Y-50670404D02*
X45613002Y-50694214D01*
X45613002Y-50694214D02*
X45589192Y-50718023D01*
X45589192Y-50718023D02*
X45565383Y-50765642D01*
X45565383Y-50765642D02*
X45565383Y-50837071D01*
X45565383Y-50837071D02*
X45589192Y-50884690D01*
X45589192Y-50884690D02*
X45613002Y-50908500D01*
X45613002Y-50908500D02*
X45660621Y-50932309D01*
X45660621Y-50932309D02*
X45851097Y-50932309D01*
X45851097Y-50932309D02*
X45851097Y-50432309D01*
X45851097Y-50432309D02*
X45684430Y-50432309D01*
X45684430Y-50432309D02*
X45636811Y-50456119D01*
X45636811Y-50456119D02*
X45613002Y-50479928D01*
X45613002Y-50479928D02*
X45589192Y-50527547D01*
X45589192Y-50527547D02*
X45589192Y-50575166D01*
X45589192Y-50575166D02*
X45613002Y-50622785D01*
X45613002Y-50622785D02*
X45636811Y-50646595D01*
X45636811Y-50646595D02*
X45684430Y-50670404D01*
X45684430Y-50670404D02*
X45851097Y-50670404D01*
X45351097Y-50932309D02*
X45351097Y-50432309D01*
X45136811Y-50789452D02*
X44898716Y-50789452D01*
X45184430Y-50932309D02*
X45017764Y-50432309D01*
X45017764Y-50432309D02*
X44851097Y-50932309D01*
X44708240Y-50908500D02*
X44636812Y-50932309D01*
X44636812Y-50932309D02*
X44517764Y-50932309D01*
X44517764Y-50932309D02*
X44470145Y-50908500D01*
X44470145Y-50908500D02*
X44446336Y-50884690D01*
X44446336Y-50884690D02*
X44422526Y-50837071D01*
X44422526Y-50837071D02*
X44422526Y-50789452D01*
X44422526Y-50789452D02*
X44446336Y-50741833D01*
X44446336Y-50741833D02*
X44470145Y-50718023D01*
X44470145Y-50718023D02*
X44517764Y-50694214D01*
X44517764Y-50694214D02*
X44613002Y-50670404D01*
X44613002Y-50670404D02*
X44660621Y-50646595D01*
X44660621Y-50646595D02*
X44684431Y-50622785D01*
X44684431Y-50622785D02*
X44708240Y-50575166D01*
X44708240Y-50575166D02*
X44708240Y-50527547D01*
X44708240Y-50527547D02*
X44684431Y-50479928D01*
X44684431Y-50479928D02*
X44660621Y-50456119D01*
X44660621Y-50456119D02*
X44613002Y-50432309D01*
X44613002Y-50432309D02*
X44493955Y-50432309D01*
X44493955Y-50432309D02*
X44422526Y-50456119D01*
X53298716Y-47932309D02*
X53298716Y-47432309D01*
X53298716Y-47432309D02*
X53108240Y-47432309D01*
X53108240Y-47432309D02*
X53060621Y-47456119D01*
X53060621Y-47456119D02*
X53036811Y-47479928D01*
X53036811Y-47479928D02*
X53013002Y-47527547D01*
X53013002Y-47527547D02*
X53013002Y-47598976D01*
X53013002Y-47598976D02*
X53036811Y-47646595D01*
X53036811Y-47646595D02*
X53060621Y-47670404D01*
X53060621Y-47670404D02*
X53108240Y-47694214D01*
X53108240Y-47694214D02*
X53298716Y-47694214D01*
X52798716Y-47432309D02*
X52798716Y-47837071D01*
X52798716Y-47837071D02*
X52774906Y-47884690D01*
X52774906Y-47884690D02*
X52751097Y-47908500D01*
X52751097Y-47908500D02*
X52703478Y-47932309D01*
X52703478Y-47932309D02*
X52608240Y-47932309D01*
X52608240Y-47932309D02*
X52560621Y-47908500D01*
X52560621Y-47908500D02*
X52536811Y-47884690D01*
X52536811Y-47884690D02*
X52513002Y-47837071D01*
X52513002Y-47837071D02*
X52513002Y-47432309D01*
X52036811Y-47932309D02*
X52274906Y-47932309D01*
X52274906Y-47932309D02*
X52274906Y-47432309D01*
X51893953Y-47908500D02*
X51822525Y-47932309D01*
X51822525Y-47932309D02*
X51703477Y-47932309D01*
X51703477Y-47932309D02*
X51655858Y-47908500D01*
X51655858Y-47908500D02*
X51632049Y-47884690D01*
X51632049Y-47884690D02*
X51608239Y-47837071D01*
X51608239Y-47837071D02*
X51608239Y-47789452D01*
X51608239Y-47789452D02*
X51632049Y-47741833D01*
X51632049Y-47741833D02*
X51655858Y-47718023D01*
X51655858Y-47718023D02*
X51703477Y-47694214D01*
X51703477Y-47694214D02*
X51798715Y-47670404D01*
X51798715Y-47670404D02*
X51846334Y-47646595D01*
X51846334Y-47646595D02*
X51870144Y-47622785D01*
X51870144Y-47622785D02*
X51893953Y-47575166D01*
X51893953Y-47575166D02*
X51893953Y-47527547D01*
X51893953Y-47527547D02*
X51870144Y-47479928D01*
X51870144Y-47479928D02*
X51846334Y-47456119D01*
X51846334Y-47456119D02*
X51798715Y-47432309D01*
X51798715Y-47432309D02*
X51679668Y-47432309D01*
X51679668Y-47432309D02*
X51608239Y-47456119D01*
X51393954Y-47670404D02*
X51227287Y-47670404D01*
X51155859Y-47932309D02*
X51393954Y-47932309D01*
X51393954Y-47932309D02*
X51393954Y-47432309D01*
X51393954Y-47432309D02*
X51155859Y-47432309D01*
X50965382Y-47908500D02*
X50893954Y-47932309D01*
X50893954Y-47932309D02*
X50774906Y-47932309D01*
X50774906Y-47932309D02*
X50727287Y-47908500D01*
X50727287Y-47908500D02*
X50703478Y-47884690D01*
X50703478Y-47884690D02*
X50679668Y-47837071D01*
X50679668Y-47837071D02*
X50679668Y-47789452D01*
X50679668Y-47789452D02*
X50703478Y-47741833D01*
X50703478Y-47741833D02*
X50727287Y-47718023D01*
X50727287Y-47718023D02*
X50774906Y-47694214D01*
X50774906Y-47694214D02*
X50870144Y-47670404D01*
X50870144Y-47670404D02*
X50917763Y-47646595D01*
X50917763Y-47646595D02*
X50941573Y-47622785D01*
X50941573Y-47622785D02*
X50965382Y-47575166D01*
X50965382Y-47575166D02*
X50965382Y-47527547D01*
X50965382Y-47527547D02*
X50941573Y-47479928D01*
X50941573Y-47479928D02*
X50917763Y-47456119D01*
X50917763Y-47456119D02*
X50870144Y-47432309D01*
X50870144Y-47432309D02*
X50751097Y-47432309D01*
X50751097Y-47432309D02*
X50679668Y-47456119D01*
X49913002Y-40232309D02*
X50079668Y-39994214D01*
X50198716Y-40232309D02*
X50198716Y-39732309D01*
X50198716Y-39732309D02*
X50008240Y-39732309D01*
X50008240Y-39732309D02*
X49960621Y-39756119D01*
X49960621Y-39756119D02*
X49936811Y-39779928D01*
X49936811Y-39779928D02*
X49913002Y-39827547D01*
X49913002Y-39827547D02*
X49913002Y-39898976D01*
X49913002Y-39898976D02*
X49936811Y-39946595D01*
X49936811Y-39946595D02*
X49960621Y-39970404D01*
X49960621Y-39970404D02*
X50008240Y-39994214D01*
X50008240Y-39994214D02*
X50198716Y-39994214D01*
X49698716Y-39970404D02*
X49532049Y-39970404D01*
X49460621Y-40232309D02*
X49698716Y-40232309D01*
X49698716Y-40232309D02*
X49698716Y-39732309D01*
X49698716Y-39732309D02*
X49460621Y-39732309D01*
X48960621Y-40184690D02*
X48984430Y-40208500D01*
X48984430Y-40208500D02*
X49055859Y-40232309D01*
X49055859Y-40232309D02*
X49103478Y-40232309D01*
X49103478Y-40232309D02*
X49174906Y-40208500D01*
X49174906Y-40208500D02*
X49222525Y-40160880D01*
X49222525Y-40160880D02*
X49246335Y-40113261D01*
X49246335Y-40113261D02*
X49270144Y-40018023D01*
X49270144Y-40018023D02*
X49270144Y-39946595D01*
X49270144Y-39946595D02*
X49246335Y-39851357D01*
X49246335Y-39851357D02*
X49222525Y-39803738D01*
X49222525Y-39803738D02*
X49174906Y-39756119D01*
X49174906Y-39756119D02*
X49103478Y-39732309D01*
X49103478Y-39732309D02*
X49055859Y-39732309D01*
X49055859Y-39732309D02*
X48984430Y-39756119D01*
X48984430Y-39756119D02*
X48960621Y-39779928D01*
X48651097Y-39732309D02*
X48555859Y-39732309D01*
X48555859Y-39732309D02*
X48508240Y-39756119D01*
X48508240Y-39756119D02*
X48460621Y-39803738D01*
X48460621Y-39803738D02*
X48436811Y-39898976D01*
X48436811Y-39898976D02*
X48436811Y-40065642D01*
X48436811Y-40065642D02*
X48460621Y-40160880D01*
X48460621Y-40160880D02*
X48508240Y-40208500D01*
X48508240Y-40208500D02*
X48555859Y-40232309D01*
X48555859Y-40232309D02*
X48651097Y-40232309D01*
X48651097Y-40232309D02*
X48698716Y-40208500D01*
X48698716Y-40208500D02*
X48746335Y-40160880D01*
X48746335Y-40160880D02*
X48770144Y-40065642D01*
X48770144Y-40065642D02*
X48770144Y-39898976D01*
X48770144Y-39898976D02*
X48746335Y-39803738D01*
X48746335Y-39803738D02*
X48698716Y-39756119D01*
X48698716Y-39756119D02*
X48651097Y-39732309D01*
X48293953Y-39732309D02*
X48127287Y-40232309D01*
X48127287Y-40232309D02*
X47960620Y-39732309D01*
X47793954Y-39970404D02*
X47627287Y-39970404D01*
X47555859Y-40232309D02*
X47793954Y-40232309D01*
X47793954Y-40232309D02*
X47793954Y-39732309D01*
X47793954Y-39732309D02*
X47555859Y-39732309D01*
X47055859Y-40232309D02*
X47222525Y-39994214D01*
X47341573Y-40232309D02*
X47341573Y-39732309D01*
X47341573Y-39732309D02*
X47151097Y-39732309D01*
X47151097Y-39732309D02*
X47103478Y-39756119D01*
X47103478Y-39756119D02*
X47079668Y-39779928D01*
X47079668Y-39779928D02*
X47055859Y-39827547D01*
X47055859Y-39827547D02*
X47055859Y-39898976D01*
X47055859Y-39898976D02*
X47079668Y-39946595D01*
X47079668Y-39946595D02*
X47103478Y-39970404D01*
X47103478Y-39970404D02*
X47151097Y-39994214D01*
X47151097Y-39994214D02*
X47341573Y-39994214D01*
X46841573Y-39970404D02*
X46674906Y-39970404D01*
X46603478Y-40232309D02*
X46841573Y-40232309D01*
X46841573Y-40232309D02*
X46841573Y-39732309D01*
X46841573Y-39732309D02*
X46603478Y-39732309D01*
X46389192Y-40232309D02*
X46389192Y-39732309D01*
X46389192Y-39732309D02*
X46270144Y-39732309D01*
X46270144Y-39732309D02*
X46198716Y-39756119D01*
X46198716Y-39756119D02*
X46151097Y-39803738D01*
X46151097Y-39803738D02*
X46127287Y-39851357D01*
X46127287Y-39851357D02*
X46103478Y-39946595D01*
X46103478Y-39946595D02*
X46103478Y-40018023D01*
X46103478Y-40018023D02*
X46127287Y-40113261D01*
X46127287Y-40113261D02*
X46151097Y-40160880D01*
X46151097Y-40160880D02*
X46198716Y-40208500D01*
X46198716Y-40208500D02*
X46270144Y-40232309D01*
X46270144Y-40232309D02*
X46389192Y-40232309D01*
X46008240Y-40279928D02*
X45627287Y-40279928D01*
X45222526Y-40184690D02*
X45246335Y-40208500D01*
X45246335Y-40208500D02*
X45317764Y-40232309D01*
X45317764Y-40232309D02*
X45365383Y-40232309D01*
X45365383Y-40232309D02*
X45436811Y-40208500D01*
X45436811Y-40208500D02*
X45484430Y-40160880D01*
X45484430Y-40160880D02*
X45508240Y-40113261D01*
X45508240Y-40113261D02*
X45532049Y-40018023D01*
X45532049Y-40018023D02*
X45532049Y-39946595D01*
X45532049Y-39946595D02*
X45508240Y-39851357D01*
X45508240Y-39851357D02*
X45484430Y-39803738D01*
X45484430Y-39803738D02*
X45436811Y-39756119D01*
X45436811Y-39756119D02*
X45365383Y-39732309D01*
X45365383Y-39732309D02*
X45317764Y-39732309D01*
X45317764Y-39732309D02*
X45246335Y-39756119D01*
X45246335Y-39756119D02*
X45222526Y-39779928D01*
X44770145Y-40232309D02*
X45008240Y-40232309D01*
X45008240Y-40232309D02*
X45008240Y-39732309D01*
X44603478Y-40232309D02*
X44603478Y-39732309D01*
X44317764Y-40232309D02*
X44532049Y-39946595D01*
X44317764Y-39732309D02*
X44603478Y-40018023D01*
X53813002Y-42932309D02*
X53979668Y-42694214D01*
X54098716Y-42932309D02*
X54098716Y-42432309D01*
X54098716Y-42432309D02*
X53908240Y-42432309D01*
X53908240Y-42432309D02*
X53860621Y-42456119D01*
X53860621Y-42456119D02*
X53836811Y-42479928D01*
X53836811Y-42479928D02*
X53813002Y-42527547D01*
X53813002Y-42527547D02*
X53813002Y-42598976D01*
X53813002Y-42598976D02*
X53836811Y-42646595D01*
X53836811Y-42646595D02*
X53860621Y-42670404D01*
X53860621Y-42670404D02*
X53908240Y-42694214D01*
X53908240Y-42694214D02*
X54098716Y-42694214D01*
X53598716Y-42670404D02*
X53432049Y-42670404D01*
X53360621Y-42932309D02*
X53598716Y-42932309D01*
X53598716Y-42932309D02*
X53598716Y-42432309D01*
X53598716Y-42432309D02*
X53360621Y-42432309D01*
X53170144Y-42908500D02*
X53098716Y-42932309D01*
X53098716Y-42932309D02*
X52979668Y-42932309D01*
X52979668Y-42932309D02*
X52932049Y-42908500D01*
X52932049Y-42908500D02*
X52908240Y-42884690D01*
X52908240Y-42884690D02*
X52884430Y-42837071D01*
X52884430Y-42837071D02*
X52884430Y-42789452D01*
X52884430Y-42789452D02*
X52908240Y-42741833D01*
X52908240Y-42741833D02*
X52932049Y-42718023D01*
X52932049Y-42718023D02*
X52979668Y-42694214D01*
X52979668Y-42694214D02*
X53074906Y-42670404D01*
X53074906Y-42670404D02*
X53122525Y-42646595D01*
X53122525Y-42646595D02*
X53146335Y-42622785D01*
X53146335Y-42622785D02*
X53170144Y-42575166D01*
X53170144Y-42575166D02*
X53170144Y-42527547D01*
X53170144Y-42527547D02*
X53146335Y-42479928D01*
X53146335Y-42479928D02*
X53122525Y-42456119D01*
X53122525Y-42456119D02*
X53074906Y-42432309D01*
X53074906Y-42432309D02*
X52955859Y-42432309D01*
X52955859Y-42432309D02*
X52884430Y-42456119D01*
X52670145Y-42670404D02*
X52503478Y-42670404D01*
X52432050Y-42932309D02*
X52670145Y-42932309D01*
X52670145Y-42932309D02*
X52670145Y-42432309D01*
X52670145Y-42432309D02*
X52432050Y-42432309D01*
X52289192Y-42432309D02*
X52003478Y-42432309D01*
X52146335Y-42932309D02*
X52146335Y-42432309D01*
X54167764Y-42293500D02*
X52005860Y-42293500D01*
X54122525Y-38708500D02*
X54051097Y-38732309D01*
X54051097Y-38732309D02*
X53932049Y-38732309D01*
X53932049Y-38732309D02*
X53884430Y-38708500D01*
X53884430Y-38708500D02*
X53860621Y-38684690D01*
X53860621Y-38684690D02*
X53836811Y-38637071D01*
X53836811Y-38637071D02*
X53836811Y-38589452D01*
X53836811Y-38589452D02*
X53860621Y-38541833D01*
X53860621Y-38541833D02*
X53884430Y-38518023D01*
X53884430Y-38518023D02*
X53932049Y-38494214D01*
X53932049Y-38494214D02*
X54027287Y-38470404D01*
X54027287Y-38470404D02*
X54074906Y-38446595D01*
X54074906Y-38446595D02*
X54098716Y-38422785D01*
X54098716Y-38422785D02*
X54122525Y-38375166D01*
X54122525Y-38375166D02*
X54122525Y-38327547D01*
X54122525Y-38327547D02*
X54098716Y-38279928D01*
X54098716Y-38279928D02*
X54074906Y-38256119D01*
X54074906Y-38256119D02*
X54027287Y-38232309D01*
X54027287Y-38232309D02*
X53908240Y-38232309D01*
X53908240Y-38232309D02*
X53836811Y-38256119D01*
X53670145Y-38232309D02*
X53551097Y-38732309D01*
X53551097Y-38732309D02*
X53455859Y-38375166D01*
X53455859Y-38375166D02*
X53360621Y-38732309D01*
X53360621Y-38732309D02*
X53241574Y-38232309D01*
X53051097Y-38732309D02*
X53051097Y-38232309D01*
X53051097Y-38232309D02*
X52932049Y-38232309D01*
X52932049Y-38232309D02*
X52860621Y-38256119D01*
X52860621Y-38256119D02*
X52813002Y-38303738D01*
X52813002Y-38303738D02*
X52789192Y-38351357D01*
X52789192Y-38351357D02*
X52765383Y-38446595D01*
X52765383Y-38446595D02*
X52765383Y-38518023D01*
X52765383Y-38518023D02*
X52789192Y-38613261D01*
X52789192Y-38613261D02*
X52813002Y-38660880D01*
X52813002Y-38660880D02*
X52860621Y-38708500D01*
X52860621Y-38708500D02*
X52932049Y-38732309D01*
X52932049Y-38732309D02*
X53051097Y-38732309D01*
X52265383Y-38684690D02*
X52289192Y-38708500D01*
X52289192Y-38708500D02*
X52360621Y-38732309D01*
X52360621Y-38732309D02*
X52408240Y-38732309D01*
X52408240Y-38732309D02*
X52479668Y-38708500D01*
X52479668Y-38708500D02*
X52527287Y-38660880D01*
X52527287Y-38660880D02*
X52551097Y-38613261D01*
X52551097Y-38613261D02*
X52574906Y-38518023D01*
X52574906Y-38518023D02*
X52574906Y-38446595D01*
X52574906Y-38446595D02*
X52551097Y-38351357D01*
X52551097Y-38351357D02*
X52527287Y-38303738D01*
X52527287Y-38303738D02*
X52479668Y-38256119D01*
X52479668Y-38256119D02*
X52408240Y-38232309D01*
X52408240Y-38232309D02*
X52360621Y-38232309D01*
X52360621Y-38232309D02*
X52289192Y-38256119D01*
X52289192Y-38256119D02*
X52265383Y-38279928D01*
X51813002Y-38732309D02*
X52051097Y-38732309D01*
X52051097Y-38732309D02*
X52051097Y-38232309D01*
X51646335Y-38732309D02*
X51646335Y-38232309D01*
X51360621Y-38732309D02*
X51574906Y-38446595D01*
X51360621Y-38232309D02*
X51646335Y-38518023D01*
X54122525Y-37408500D02*
X54051097Y-37432309D01*
X54051097Y-37432309D02*
X53932049Y-37432309D01*
X53932049Y-37432309D02*
X53884430Y-37408500D01*
X53884430Y-37408500D02*
X53860621Y-37384690D01*
X53860621Y-37384690D02*
X53836811Y-37337071D01*
X53836811Y-37337071D02*
X53836811Y-37289452D01*
X53836811Y-37289452D02*
X53860621Y-37241833D01*
X53860621Y-37241833D02*
X53884430Y-37218023D01*
X53884430Y-37218023D02*
X53932049Y-37194214D01*
X53932049Y-37194214D02*
X54027287Y-37170404D01*
X54027287Y-37170404D02*
X54074906Y-37146595D01*
X54074906Y-37146595D02*
X54098716Y-37122785D01*
X54098716Y-37122785D02*
X54122525Y-37075166D01*
X54122525Y-37075166D02*
X54122525Y-37027547D01*
X54122525Y-37027547D02*
X54098716Y-36979928D01*
X54098716Y-36979928D02*
X54074906Y-36956119D01*
X54074906Y-36956119D02*
X54027287Y-36932309D01*
X54027287Y-36932309D02*
X53908240Y-36932309D01*
X53908240Y-36932309D02*
X53836811Y-36956119D01*
X53670145Y-36932309D02*
X53551097Y-37432309D01*
X53551097Y-37432309D02*
X53455859Y-37075166D01*
X53455859Y-37075166D02*
X53360621Y-37432309D01*
X53360621Y-37432309D02*
X53241574Y-36932309D01*
X53051097Y-37432309D02*
X53051097Y-36932309D01*
X53051097Y-36932309D02*
X52932049Y-36932309D01*
X52932049Y-36932309D02*
X52860621Y-36956119D01*
X52860621Y-36956119D02*
X52813002Y-37003738D01*
X52813002Y-37003738D02*
X52789192Y-37051357D01*
X52789192Y-37051357D02*
X52765383Y-37146595D01*
X52765383Y-37146595D02*
X52765383Y-37218023D01*
X52765383Y-37218023D02*
X52789192Y-37313261D01*
X52789192Y-37313261D02*
X52813002Y-37360880D01*
X52813002Y-37360880D02*
X52860621Y-37408500D01*
X52860621Y-37408500D02*
X52932049Y-37432309D01*
X52932049Y-37432309D02*
X53051097Y-37432309D01*
X52551097Y-37432309D02*
X52551097Y-36932309D01*
X52217764Y-36932309D02*
X52122526Y-36932309D01*
X52122526Y-36932309D02*
X52074907Y-36956119D01*
X52074907Y-36956119D02*
X52027288Y-37003738D01*
X52027288Y-37003738D02*
X52003478Y-37098976D01*
X52003478Y-37098976D02*
X52003478Y-37265642D01*
X52003478Y-37265642D02*
X52027288Y-37360880D01*
X52027288Y-37360880D02*
X52074907Y-37408500D01*
X52074907Y-37408500D02*
X52122526Y-37432309D01*
X52122526Y-37432309D02*
X52217764Y-37432309D01*
X52217764Y-37432309D02*
X52265383Y-37408500D01*
X52265383Y-37408500D02*
X52313002Y-37360880D01*
X52313002Y-37360880D02*
X52336811Y-37265642D01*
X52336811Y-37265642D02*
X52336811Y-37098976D01*
X52336811Y-37098976D02*
X52313002Y-37003738D01*
X52313002Y-37003738D02*
X52265383Y-36956119D01*
X52265383Y-36956119D02*
X52217764Y-36932309D01*
X62798716Y-37341833D02*
X62417764Y-37341833D01*
X62608240Y-37532309D02*
X62608240Y-37151357D01*
X62227287Y-37032309D02*
X61917763Y-37032309D01*
X61917763Y-37032309D02*
X62084430Y-37222785D01*
X62084430Y-37222785D02*
X62013001Y-37222785D01*
X62013001Y-37222785D02*
X61965382Y-37246595D01*
X61965382Y-37246595D02*
X61941573Y-37270404D01*
X61941573Y-37270404D02*
X61917763Y-37318023D01*
X61917763Y-37318023D02*
X61917763Y-37437071D01*
X61917763Y-37437071D02*
X61941573Y-37484690D01*
X61941573Y-37484690D02*
X61965382Y-37508500D01*
X61965382Y-37508500D02*
X62013001Y-37532309D01*
X62013001Y-37532309D02*
X62155858Y-37532309D01*
X62155858Y-37532309D02*
X62203477Y-37508500D01*
X62203477Y-37508500D02*
X62227287Y-37484690D01*
X61774906Y-37032309D02*
X61608240Y-37532309D01*
X61608240Y-37532309D02*
X61441573Y-37032309D01*
X61322526Y-37032309D02*
X61013002Y-37032309D01*
X61013002Y-37032309D02*
X61179669Y-37222785D01*
X61179669Y-37222785D02*
X61108240Y-37222785D01*
X61108240Y-37222785D02*
X61060621Y-37246595D01*
X61060621Y-37246595D02*
X61036812Y-37270404D01*
X61036812Y-37270404D02*
X61013002Y-37318023D01*
X61013002Y-37318023D02*
X61013002Y-37437071D01*
X61013002Y-37437071D02*
X61036812Y-37484690D01*
X61036812Y-37484690D02*
X61060621Y-37508500D01*
X61060621Y-37508500D02*
X61108240Y-37532309D01*
X61108240Y-37532309D02*
X61251097Y-37532309D01*
X61251097Y-37532309D02*
X61298716Y-37508500D01*
X61298716Y-37508500D02*
X61322526Y-37484690D01*
X62036811Y-39556119D02*
X62084430Y-39532309D01*
X62084430Y-39532309D02*
X62155859Y-39532309D01*
X62155859Y-39532309D02*
X62227287Y-39556119D01*
X62227287Y-39556119D02*
X62274906Y-39603738D01*
X62274906Y-39603738D02*
X62298716Y-39651357D01*
X62298716Y-39651357D02*
X62322525Y-39746595D01*
X62322525Y-39746595D02*
X62322525Y-39818023D01*
X62322525Y-39818023D02*
X62298716Y-39913261D01*
X62298716Y-39913261D02*
X62274906Y-39960880D01*
X62274906Y-39960880D02*
X62227287Y-40008500D01*
X62227287Y-40008500D02*
X62155859Y-40032309D01*
X62155859Y-40032309D02*
X62108240Y-40032309D01*
X62108240Y-40032309D02*
X62036811Y-40008500D01*
X62036811Y-40008500D02*
X62013002Y-39984690D01*
X62013002Y-39984690D02*
X62013002Y-39818023D01*
X62013002Y-39818023D02*
X62108240Y-39818023D01*
X61798716Y-40032309D02*
X61798716Y-39532309D01*
X61798716Y-39532309D02*
X61513002Y-40032309D01*
X61513002Y-40032309D02*
X61513002Y-39532309D01*
X61274906Y-40032309D02*
X61274906Y-39532309D01*
X61274906Y-39532309D02*
X61155858Y-39532309D01*
X61155858Y-39532309D02*
X61084430Y-39556119D01*
X61084430Y-39556119D02*
X61036811Y-39603738D01*
X61036811Y-39603738D02*
X61013001Y-39651357D01*
X61013001Y-39651357D02*
X60989192Y-39746595D01*
X60989192Y-39746595D02*
X60989192Y-39818023D01*
X60989192Y-39818023D02*
X61013001Y-39913261D01*
X61013001Y-39913261D02*
X61036811Y-39960880D01*
X61036811Y-39960880D02*
X61084430Y-40008500D01*
X61084430Y-40008500D02*
X61155858Y-40032309D01*
X61155858Y-40032309D02*
X61274906Y-40032309D01*
D11*
X40900000Y-59000000D02*
X40200000Y-59000000D01*
X41500000Y-52000000D02*
X40600000Y-52000000D01*
X40200000Y-59000000D02*
X39900000Y-57800000D01*
X40600000Y-52000000D02*
X40000000Y-53200000D01*
X49063220Y-54769819D02*
X49063220Y-53769819D01*
X49063220Y-53769819D02*
X48825125Y-53769819D01*
X48825125Y-53769819D02*
X48682268Y-53817438D01*
X48682268Y-53817438D02*
X48587030Y-53912676D01*
X48587030Y-53912676D02*
X48539411Y-54007914D01*
X48539411Y-54007914D02*
X48491792Y-54198390D01*
X48491792Y-54198390D02*
X48491792Y-54341247D01*
X48491792Y-54341247D02*
X48539411Y-54531723D01*
X48539411Y-54531723D02*
X48587030Y-54626961D01*
X48587030Y-54626961D02*
X48682268Y-54722200D01*
X48682268Y-54722200D02*
X48825125Y-54769819D01*
X48825125Y-54769819D02*
X49063220Y-54769819D01*
X48063220Y-54246009D02*
X47729887Y-54246009D01*
X47587030Y-54769819D02*
X48063220Y-54769819D01*
X48063220Y-54769819D02*
X48063220Y-53769819D01*
X48063220Y-53769819D02*
X47587030Y-53769819D01*
X46587030Y-54674580D02*
X46634649Y-54722200D01*
X46634649Y-54722200D02*
X46777506Y-54769819D01*
X46777506Y-54769819D02*
X46872744Y-54769819D01*
X46872744Y-54769819D02*
X47015601Y-54722200D01*
X47015601Y-54722200D02*
X47110839Y-54626961D01*
X47110839Y-54626961D02*
X47158458Y-54531723D01*
X47158458Y-54531723D02*
X47206077Y-54341247D01*
X47206077Y-54341247D02*
X47206077Y-54198390D01*
X47206077Y-54198390D02*
X47158458Y-54007914D01*
X47158458Y-54007914D02*
X47110839Y-53912676D01*
X47110839Y-53912676D02*
X47015601Y-53817438D01*
X47015601Y-53817438D02*
X46872744Y-53769819D01*
X46872744Y-53769819D02*
X46777506Y-53769819D01*
X46777506Y-53769819D02*
X46634649Y-53817438D01*
X46634649Y-53817438D02*
X46587030Y-53865057D01*
X45967982Y-53769819D02*
X45777506Y-53769819D01*
X45777506Y-53769819D02*
X45682268Y-53817438D01*
X45682268Y-53817438D02*
X45587030Y-53912676D01*
X45587030Y-53912676D02*
X45539411Y-54103152D01*
X45539411Y-54103152D02*
X45539411Y-54436485D01*
X45539411Y-54436485D02*
X45587030Y-54626961D01*
X45587030Y-54626961D02*
X45682268Y-54722200D01*
X45682268Y-54722200D02*
X45777506Y-54769819D01*
X45777506Y-54769819D02*
X45967982Y-54769819D01*
X45967982Y-54769819D02*
X46063220Y-54722200D01*
X46063220Y-54722200D02*
X46158458Y-54626961D01*
X46158458Y-54626961D02*
X46206077Y-54436485D01*
X46206077Y-54436485D02*
X46206077Y-54103152D01*
X46206077Y-54103152D02*
X46158458Y-53912676D01*
X46158458Y-53912676D02*
X46063220Y-53817438D01*
X46063220Y-53817438D02*
X45967982Y-53769819D01*
X45110839Y-54769819D02*
X45110839Y-53769819D01*
X45110839Y-53769819D02*
X44872744Y-53769819D01*
X44872744Y-53769819D02*
X44729887Y-53817438D01*
X44729887Y-53817438D02*
X44634649Y-53912676D01*
X44634649Y-53912676D02*
X44587030Y-54007914D01*
X44587030Y-54007914D02*
X44539411Y-54198390D01*
X44539411Y-54198390D02*
X44539411Y-54341247D01*
X44539411Y-54341247D02*
X44587030Y-54531723D01*
X44587030Y-54531723D02*
X44634649Y-54626961D01*
X44634649Y-54626961D02*
X44729887Y-54722200D01*
X44729887Y-54722200D02*
X44872744Y-54769819D01*
X44872744Y-54769819D02*
X45110839Y-54769819D01*
X44110839Y-54246009D02*
X43777506Y-54246009D01*
X43634649Y-54769819D02*
X44110839Y-54769819D01*
X44110839Y-54769819D02*
X44110839Y-53769819D01*
X44110839Y-53769819D02*
X43634649Y-53769819D01*
D14*
X44298716Y-47432309D02*
X44298716Y-46932309D01*
X44298716Y-46932309D02*
X44179668Y-46932309D01*
X44179668Y-46932309D02*
X44108240Y-46956119D01*
X44108240Y-46956119D02*
X44060621Y-47003738D01*
X44060621Y-47003738D02*
X44036811Y-47051357D01*
X44036811Y-47051357D02*
X44013002Y-47146595D01*
X44013002Y-47146595D02*
X44013002Y-47218023D01*
X44013002Y-47218023D02*
X44036811Y-47313261D01*
X44036811Y-47313261D02*
X44060621Y-47360880D01*
X44060621Y-47360880D02*
X44108240Y-47408500D01*
X44108240Y-47408500D02*
X44179668Y-47432309D01*
X44179668Y-47432309D02*
X44298716Y-47432309D01*
X43798716Y-47170404D02*
X43632049Y-47170404D01*
X43560621Y-47432309D02*
X43798716Y-47432309D01*
X43798716Y-47432309D02*
X43798716Y-46932309D01*
X43798716Y-46932309D02*
X43560621Y-46932309D01*
X43060621Y-47384690D02*
X43084430Y-47408500D01*
X43084430Y-47408500D02*
X43155859Y-47432309D01*
X43155859Y-47432309D02*
X43203478Y-47432309D01*
X43203478Y-47432309D02*
X43274906Y-47408500D01*
X43274906Y-47408500D02*
X43322525Y-47360880D01*
X43322525Y-47360880D02*
X43346335Y-47313261D01*
X43346335Y-47313261D02*
X43370144Y-47218023D01*
X43370144Y-47218023D02*
X43370144Y-47146595D01*
X43370144Y-47146595D02*
X43346335Y-47051357D01*
X43346335Y-47051357D02*
X43322525Y-47003738D01*
X43322525Y-47003738D02*
X43274906Y-46956119D01*
X43274906Y-46956119D02*
X43203478Y-46932309D01*
X43203478Y-46932309D02*
X43155859Y-46932309D01*
X43155859Y-46932309D02*
X43084430Y-46956119D01*
X43084430Y-46956119D02*
X43060621Y-46979928D01*
X42751097Y-46932309D02*
X42655859Y-46932309D01*
X42655859Y-46932309D02*
X42608240Y-46956119D01*
X42608240Y-46956119D02*
X42560621Y-47003738D01*
X42560621Y-47003738D02*
X42536811Y-47098976D01*
X42536811Y-47098976D02*
X42536811Y-47265642D01*
X42536811Y-47265642D02*
X42560621Y-47360880D01*
X42560621Y-47360880D02*
X42608240Y-47408500D01*
X42608240Y-47408500D02*
X42655859Y-47432309D01*
X42655859Y-47432309D02*
X42751097Y-47432309D01*
X42751097Y-47432309D02*
X42798716Y-47408500D01*
X42798716Y-47408500D02*
X42846335Y-47360880D01*
X42846335Y-47360880D02*
X42870144Y-47265642D01*
X42870144Y-47265642D02*
X42870144Y-47098976D01*
X42870144Y-47098976D02*
X42846335Y-47003738D01*
X42846335Y-47003738D02*
X42798716Y-46956119D01*
X42798716Y-46956119D02*
X42751097Y-46932309D01*
X42322525Y-47432309D02*
X42322525Y-46932309D01*
X42322525Y-46932309D02*
X42203477Y-46932309D01*
X42203477Y-46932309D02*
X42132049Y-46956119D01*
X42132049Y-46956119D02*
X42084430Y-47003738D01*
X42084430Y-47003738D02*
X42060620Y-47051357D01*
X42060620Y-47051357D02*
X42036811Y-47146595D01*
X42036811Y-47146595D02*
X42036811Y-47218023D01*
X42036811Y-47218023D02*
X42060620Y-47313261D01*
X42060620Y-47313261D02*
X42084430Y-47360880D01*
X42084430Y-47360880D02*
X42132049Y-47408500D01*
X42132049Y-47408500D02*
X42203477Y-47432309D01*
X42203477Y-47432309D02*
X42322525Y-47432309D01*
X41822525Y-47170404D02*
X41655858Y-47170404D01*
X41584430Y-47432309D02*
X41822525Y-47432309D01*
X41822525Y-47432309D02*
X41822525Y-46932309D01*
X41822525Y-46932309D02*
X41584430Y-46932309D01*
D11*
X38363220Y-51988866D02*
X37601316Y-51988866D01*
X37982268Y-52369819D02*
X37982268Y-51607914D01*
X36648935Y-51369819D02*
X37125125Y-51369819D01*
X37125125Y-51369819D02*
X37172744Y-51846009D01*
X37172744Y-51846009D02*
X37125125Y-51798390D01*
X37125125Y-51798390D02*
X37029887Y-51750771D01*
X37029887Y-51750771D02*
X36791792Y-51750771D01*
X36791792Y-51750771D02*
X36696554Y-51798390D01*
X36696554Y-51798390D02*
X36648935Y-51846009D01*
X36648935Y-51846009D02*
X36601316Y-51941247D01*
X36601316Y-51941247D02*
X36601316Y-52179342D01*
X36601316Y-52179342D02*
X36648935Y-52274580D01*
X36648935Y-52274580D02*
X36696554Y-52322200D01*
X36696554Y-52322200D02*
X36791792Y-52369819D01*
X36791792Y-52369819D02*
X37029887Y-52369819D01*
X37029887Y-52369819D02*
X37125125Y-52322200D01*
X37125125Y-52322200D02*
X37172744Y-52274580D01*
X36315601Y-51369819D02*
X35982268Y-52369819D01*
X35982268Y-52369819D02*
X35648935Y-51369819D01*
X47363220Y-51469819D02*
X47363220Y-52279342D01*
X47363220Y-52279342D02*
X47315601Y-52374580D01*
X47315601Y-52374580D02*
X47267982Y-52422200D01*
X47267982Y-52422200D02*
X47172744Y-52469819D01*
X47172744Y-52469819D02*
X46982268Y-52469819D01*
X46982268Y-52469819D02*
X46887030Y-52422200D01*
X46887030Y-52422200D02*
X46839411Y-52374580D01*
X46839411Y-52374580D02*
X46791792Y-52279342D01*
X46791792Y-52279342D02*
X46791792Y-51469819D01*
X46363220Y-52184104D02*
X45887030Y-52184104D01*
X46458458Y-52469819D02*
X46125125Y-51469819D01*
X46125125Y-51469819D02*
X45791792Y-52469819D01*
X44887030Y-52469819D02*
X45220363Y-51993628D01*
X45458458Y-52469819D02*
X45458458Y-51469819D01*
X45458458Y-51469819D02*
X45077506Y-51469819D01*
X45077506Y-51469819D02*
X44982268Y-51517438D01*
X44982268Y-51517438D02*
X44934649Y-51565057D01*
X44934649Y-51565057D02*
X44887030Y-51660295D01*
X44887030Y-51660295D02*
X44887030Y-51803152D01*
X44887030Y-51803152D02*
X44934649Y-51898390D01*
X44934649Y-51898390D02*
X44982268Y-51946009D01*
X44982268Y-51946009D02*
X45077506Y-51993628D01*
X45077506Y-51993628D02*
X45458458Y-51993628D01*
X44601315Y-51469819D02*
X44029887Y-51469819D01*
X44315601Y-52469819D02*
X44315601Y-51469819D01*
X43934649Y-52565057D02*
X43172744Y-52565057D01*
X43077505Y-51469819D02*
X42506077Y-51469819D01*
X42791791Y-52469819D02*
X42791791Y-51469819D01*
X42267981Y-51469819D02*
X41601315Y-52469819D01*
X41601315Y-51469819D02*
X42267981Y-52469819D01*
X45739411Y-56417438D02*
X45834649Y-56369819D01*
X45834649Y-56369819D02*
X45977506Y-56369819D01*
X45977506Y-56369819D02*
X46120363Y-56417438D01*
X46120363Y-56417438D02*
X46215601Y-56512676D01*
X46215601Y-56512676D02*
X46263220Y-56607914D01*
X46263220Y-56607914D02*
X46310839Y-56798390D01*
X46310839Y-56798390D02*
X46310839Y-56941247D01*
X46310839Y-56941247D02*
X46263220Y-57131723D01*
X46263220Y-57131723D02*
X46215601Y-57226961D01*
X46215601Y-57226961D02*
X46120363Y-57322200D01*
X46120363Y-57322200D02*
X45977506Y-57369819D01*
X45977506Y-57369819D02*
X45882268Y-57369819D01*
X45882268Y-57369819D02*
X45739411Y-57322200D01*
X45739411Y-57322200D02*
X45691792Y-57274580D01*
X45691792Y-57274580D02*
X45691792Y-56941247D01*
X45691792Y-56941247D02*
X45882268Y-56941247D01*
X45263220Y-57369819D02*
X45263220Y-56369819D01*
X45263220Y-56369819D02*
X44691792Y-57369819D01*
X44691792Y-57369819D02*
X44691792Y-56369819D01*
X44215601Y-57369819D02*
X44215601Y-56369819D01*
X44215601Y-56369819D02*
X43977506Y-56369819D01*
X43977506Y-56369819D02*
X43834649Y-56417438D01*
X43834649Y-56417438D02*
X43739411Y-56512676D01*
X43739411Y-56512676D02*
X43691792Y-56607914D01*
X43691792Y-56607914D02*
X43644173Y-56798390D01*
X43644173Y-56798390D02*
X43644173Y-56941247D01*
X43644173Y-56941247D02*
X43691792Y-57131723D01*
X43691792Y-57131723D02*
X43739411Y-57226961D01*
X43739411Y-57226961D02*
X43834649Y-57322200D01*
X43834649Y-57322200D02*
X43977506Y-57369819D01*
X43977506Y-57369819D02*
X44215601Y-57369819D01*
X47063220Y-58469819D02*
X47063220Y-59279342D01*
X47063220Y-59279342D02*
X47015601Y-59374580D01*
X47015601Y-59374580D02*
X46967982Y-59422200D01*
X46967982Y-59422200D02*
X46872744Y-59469819D01*
X46872744Y-59469819D02*
X46682268Y-59469819D01*
X46682268Y-59469819D02*
X46587030Y-59422200D01*
X46587030Y-59422200D02*
X46539411Y-59374580D01*
X46539411Y-59374580D02*
X46491792Y-59279342D01*
X46491792Y-59279342D02*
X46491792Y-58469819D01*
X46063220Y-59184104D02*
X45587030Y-59184104D01*
X46158458Y-59469819D02*
X45825125Y-58469819D01*
X45825125Y-58469819D02*
X45491792Y-59469819D01*
X44587030Y-59469819D02*
X44920363Y-58993628D01*
X45158458Y-59469819D02*
X45158458Y-58469819D01*
X45158458Y-58469819D02*
X44777506Y-58469819D01*
X44777506Y-58469819D02*
X44682268Y-58517438D01*
X44682268Y-58517438D02*
X44634649Y-58565057D01*
X44634649Y-58565057D02*
X44587030Y-58660295D01*
X44587030Y-58660295D02*
X44587030Y-58803152D01*
X44587030Y-58803152D02*
X44634649Y-58898390D01*
X44634649Y-58898390D02*
X44682268Y-58946009D01*
X44682268Y-58946009D02*
X44777506Y-58993628D01*
X44777506Y-58993628D02*
X45158458Y-58993628D01*
X44301315Y-58469819D02*
X43729887Y-58469819D01*
X44015601Y-59469819D02*
X44015601Y-58469819D01*
X43634649Y-59565057D02*
X42872744Y-59565057D01*
X42063220Y-59469819D02*
X42396553Y-58993628D01*
X42634648Y-59469819D02*
X42634648Y-58469819D01*
X42634648Y-58469819D02*
X42253696Y-58469819D01*
X42253696Y-58469819D02*
X42158458Y-58517438D01*
X42158458Y-58517438D02*
X42110839Y-58565057D01*
X42110839Y-58565057D02*
X42063220Y-58660295D01*
X42063220Y-58660295D02*
X42063220Y-58803152D01*
X42063220Y-58803152D02*
X42110839Y-58898390D01*
X42110839Y-58898390D02*
X42158458Y-58946009D01*
X42158458Y-58946009D02*
X42253696Y-58993628D01*
X42253696Y-58993628D02*
X42634648Y-58993628D01*
X41729886Y-58469819D02*
X41063220Y-59469819D01*
X41063220Y-58469819D02*
X41729886Y-59469819D01*
X37639411Y-58417438D02*
X37734649Y-58369819D01*
X37734649Y-58369819D02*
X37877506Y-58369819D01*
X37877506Y-58369819D02*
X38020363Y-58417438D01*
X38020363Y-58417438D02*
X38115601Y-58512676D01*
X38115601Y-58512676D02*
X38163220Y-58607914D01*
X38163220Y-58607914D02*
X38210839Y-58798390D01*
X38210839Y-58798390D02*
X38210839Y-58941247D01*
X38210839Y-58941247D02*
X38163220Y-59131723D01*
X38163220Y-59131723D02*
X38115601Y-59226961D01*
X38115601Y-59226961D02*
X38020363Y-59322200D01*
X38020363Y-59322200D02*
X37877506Y-59369819D01*
X37877506Y-59369819D02*
X37782268Y-59369819D01*
X37782268Y-59369819D02*
X37639411Y-59322200D01*
X37639411Y-59322200D02*
X37591792Y-59274580D01*
X37591792Y-59274580D02*
X37591792Y-58941247D01*
X37591792Y-58941247D02*
X37782268Y-58941247D01*
X37163220Y-59369819D02*
X37163220Y-58369819D01*
X37163220Y-58369819D02*
X36591792Y-59369819D01*
X36591792Y-59369819D02*
X36591792Y-58369819D01*
X36115601Y-59369819D02*
X36115601Y-58369819D01*
X36115601Y-58369819D02*
X35877506Y-58369819D01*
X35877506Y-58369819D02*
X35734649Y-58417438D01*
X35734649Y-58417438D02*
X35639411Y-58512676D01*
X35639411Y-58512676D02*
X35591792Y-58607914D01*
X35591792Y-58607914D02*
X35544173Y-58798390D01*
X35544173Y-58798390D02*
X35544173Y-58941247D01*
X35544173Y-58941247D02*
X35591792Y-59131723D01*
X35591792Y-59131723D02*
X35639411Y-59226961D01*
X35639411Y-59226961D02*
X35734649Y-59322200D01*
X35734649Y-59322200D02*
X35877506Y-59369819D01*
X35877506Y-59369819D02*
X36115601Y-59369819D01*
D14*
X62036811Y-38256119D02*
X62084430Y-38232309D01*
X62084430Y-38232309D02*
X62155859Y-38232309D01*
X62155859Y-38232309D02*
X62227287Y-38256119D01*
X62227287Y-38256119D02*
X62274906Y-38303738D01*
X62274906Y-38303738D02*
X62298716Y-38351357D01*
X62298716Y-38351357D02*
X62322525Y-38446595D01*
X62322525Y-38446595D02*
X62322525Y-38518023D01*
X62322525Y-38518023D02*
X62298716Y-38613261D01*
X62298716Y-38613261D02*
X62274906Y-38660880D01*
X62274906Y-38660880D02*
X62227287Y-38708500D01*
X62227287Y-38708500D02*
X62155859Y-38732309D01*
X62155859Y-38732309D02*
X62108240Y-38732309D01*
X62108240Y-38732309D02*
X62036811Y-38708500D01*
X62036811Y-38708500D02*
X62013002Y-38684690D01*
X62013002Y-38684690D02*
X62013002Y-38518023D01*
X62013002Y-38518023D02*
X62108240Y-38518023D01*
X61798716Y-38732309D02*
X61798716Y-38232309D01*
X61798716Y-38232309D02*
X61513002Y-38732309D01*
X61513002Y-38732309D02*
X61513002Y-38232309D01*
X61274906Y-38732309D02*
X61274906Y-38232309D01*
X61274906Y-38232309D02*
X61155858Y-38232309D01*
X61155858Y-38232309D02*
X61084430Y-38256119D01*
X61084430Y-38256119D02*
X61036811Y-38303738D01*
X61036811Y-38303738D02*
X61013001Y-38351357D01*
X61013001Y-38351357D02*
X60989192Y-38446595D01*
X60989192Y-38446595D02*
X60989192Y-38518023D01*
X60989192Y-38518023D02*
X61013001Y-38613261D01*
X61013001Y-38613261D02*
X61036811Y-38660880D01*
X61036811Y-38660880D02*
X61084430Y-38708500D01*
X61084430Y-38708500D02*
X61155858Y-38732309D01*
X61155858Y-38732309D02*
X61274906Y-38732309D01*
D15*
G04 #@! TO.C,TP6*
X49900000Y-57300000D02*
G75*
G03*
X49900000Y-57300000I-700000J0D01*
G01*
G04 #@! TO.C,TP2*
X56100000Y-58400000D02*
G75*
G03*
X56100000Y-58400000I-700000J0D01*
G01*
G04 #@! TO.C,TP1*
X54100000Y-54800000D02*
G75*
G03*
X54100000Y-54800000I-700000J0D01*
G01*
G04 #@! TO.C,GRAPHIC1*
G36*
X56517141Y-51913996D02*
G01*
X56591978Y-51945983D01*
X56620698Y-51961312D01*
X56672319Y-51996994D01*
X56698551Y-52031449D01*
X56700166Y-52066079D01*
X56677934Y-52102283D01*
X56665241Y-52113309D01*
X56625596Y-52125209D01*
X56571677Y-52116728D01*
X56502156Y-52087754D01*
X56447971Y-52057970D01*
X56412969Y-52031299D01*
X56395043Y-52004513D01*
X56390000Y-51973333D01*
X56395699Y-51937129D01*
X56418765Y-51909601D01*
X56459324Y-51901879D01*
X56517141Y-51913996D01*
G37*
G36*
X54415561Y-52186655D02*
G01*
X54450783Y-52230026D01*
X54484408Y-52298444D01*
X54495939Y-52329032D01*
X54510749Y-52386780D01*
X54509133Y-52429786D01*
X54491267Y-52462283D01*
X54460132Y-52482236D01*
X54419855Y-52483668D01*
X54383334Y-52463263D01*
X54381435Y-52461189D01*
X54364297Y-52434757D01*
X54342769Y-52392605D01*
X54321045Y-52342843D01*
X54282089Y-52245825D01*
X54309030Y-52209579D01*
X54343453Y-52176642D01*
X54379523Y-52168728D01*
X54415561Y-52186655D01*
G37*
G36*
X58397890Y-53655655D02*
G01*
X58420000Y-53673333D01*
X58437592Y-53695346D01*
X58447086Y-53732804D01*
X58430838Y-53770938D01*
X58388569Y-53810245D01*
X58320000Y-53851220D01*
X58319268Y-53851595D01*
X58255272Y-53878704D01*
X58206352Y-53885791D01*
X58169788Y-53872670D01*
X58142859Y-53839155D01*
X58135578Y-53805677D01*
X58150636Y-53771587D01*
X58189538Y-53735906D01*
X58253487Y-53697088D01*
X58298995Y-53673704D01*
X58342907Y-53655052D01*
X58374032Y-53649299D01*
X58397890Y-53655655D01*
G37*
G36*
X57538438Y-50597224D02*
G01*
X57577505Y-50628423D01*
X57624646Y-50682272D01*
X57661193Y-50733347D01*
X57682298Y-50779318D01*
X57683152Y-50816676D01*
X57664601Y-50848950D01*
X57652518Y-50860592D01*
X57620859Y-50875113D01*
X57585367Y-50867951D01*
X57543681Y-50838223D01*
X57493439Y-50785048D01*
X57461946Y-50745851D01*
X57432426Y-50698969D01*
X57422834Y-50662190D01*
X57432494Y-50631777D01*
X57460731Y-50603992D01*
X57471777Y-50596686D01*
X57504258Y-50587152D01*
X57538438Y-50597224D01*
G37*
G36*
X55648951Y-49988733D02*
G01*
X55652141Y-49991729D01*
X55671444Y-50020772D01*
X55673019Y-50055243D01*
X55655894Y-50097686D01*
X55619093Y-50150646D01*
X55561642Y-50216666D01*
X55554294Y-50224237D01*
X55511779Y-50253718D01*
X55471345Y-50256765D01*
X55433334Y-50233333D01*
X55414649Y-50207434D01*
X55409725Y-50174268D01*
X55423345Y-50134479D01*
X55456584Y-50085143D01*
X55510518Y-50023333D01*
X55533267Y-50000959D01*
X55575801Y-49972643D01*
X55613560Y-49968769D01*
X55648951Y-49988733D01*
G37*
G36*
X55526733Y-52288298D02*
G01*
X55567983Y-52324503D01*
X55617742Y-52383738D01*
X55646734Y-52424946D01*
X55668634Y-52471708D01*
X55669889Y-52509608D01*
X55651267Y-52542283D01*
X55639104Y-52554011D01*
X55607102Y-52568734D01*
X55571462Y-52561441D01*
X55529940Y-52531282D01*
X55480294Y-52477405D01*
X55456448Y-52447473D01*
X55423419Y-52398178D01*
X55409272Y-52359870D01*
X55412935Y-52328496D01*
X55433334Y-52300000D01*
X55459222Y-52280193D01*
X55491358Y-52273927D01*
X55526733Y-52288298D01*
G37*
G36*
X58490158Y-52237328D02*
G01*
X58520650Y-52265785D01*
X58521271Y-52266743D01*
X58535067Y-52299636D01*
X58532570Y-52334885D01*
X58512379Y-52377389D01*
X58473092Y-52432049D01*
X58464837Y-52442349D01*
X58432965Y-52477442D01*
X58406986Y-52495127D01*
X58380643Y-52500000D01*
X58368169Y-52499478D01*
X58326934Y-52486431D01*
X58304871Y-52458051D01*
X58302343Y-52417296D01*
X58319714Y-52367126D01*
X58357347Y-52310499D01*
X58362277Y-52304530D01*
X58410361Y-52256867D01*
X58453192Y-52234411D01*
X58490158Y-52237328D01*
G37*
G36*
X55012924Y-53157566D02*
G01*
X55058153Y-53185577D01*
X55112896Y-53236666D01*
X55154985Y-53283943D01*
X55184315Y-53328405D01*
X55192347Y-53363551D01*
X55179619Y-53392258D01*
X55146667Y-53417400D01*
X55123843Y-53428059D01*
X55101747Y-53429755D01*
X55077034Y-53419074D01*
X55044476Y-53393676D01*
X54998846Y-53351219D01*
X54978272Y-53330857D01*
X54935215Y-53280632D01*
X54914189Y-53239598D01*
X54914209Y-53205051D01*
X54934286Y-53174285D01*
X54941680Y-53167525D01*
X54974876Y-53151820D01*
X55012924Y-53157566D01*
G37*
G36*
X58402429Y-50051118D02*
G01*
X58434068Y-50070560D01*
X58470944Y-50108115D01*
X58516372Y-50166666D01*
X58545608Y-50211180D01*
X58559873Y-50248157D01*
X58556007Y-50277995D01*
X58534768Y-50306444D01*
X58531958Y-50309173D01*
X58502256Y-50331033D01*
X58476555Y-50340000D01*
X58465385Y-50337486D01*
X58434883Y-50317627D01*
X58399145Y-50283005D01*
X58362981Y-50239667D01*
X58331197Y-50193664D01*
X58308601Y-50151044D01*
X58300000Y-50117857D01*
X58308203Y-50085605D01*
X58336416Y-50057396D01*
X58378458Y-50046666D01*
X58402429Y-50051118D01*
G37*
G36*
X57152140Y-52006251D02*
G01*
X57175202Y-52024123D01*
X57187980Y-52053815D01*
X57190368Y-52069786D01*
X57180288Y-52110868D01*
X57148064Y-52143707D01*
X57096905Y-52164407D01*
X57049623Y-52172830D01*
X56988131Y-52177949D01*
X56935710Y-52176048D01*
X56900658Y-52167018D01*
X56894034Y-52162785D01*
X56872046Y-52132362D01*
X56866013Y-52092441D01*
X56878174Y-52054249D01*
X56890619Y-52040382D01*
X56913843Y-52027977D01*
X56951943Y-52017804D01*
X57010783Y-52007812D01*
X57058468Y-52001630D01*
X57114620Y-51999114D01*
X57152140Y-52006251D01*
G37*
G36*
X57096543Y-50361989D02*
G01*
X57162226Y-50377758D01*
X57228274Y-50401151D01*
X57279146Y-50428955D01*
X57305094Y-50459137D01*
X57307048Y-50492848D01*
X57285933Y-50531238D01*
X57264086Y-50553967D01*
X57238836Y-50564484D01*
X57204055Y-50562117D01*
X57152376Y-50547778D01*
X57137948Y-50543259D01*
X57092659Y-50530057D01*
X57056836Y-50520899D01*
X57036795Y-50514059D01*
X57003394Y-50487517D01*
X56986643Y-50451105D01*
X56991246Y-50412590D01*
X56992402Y-50410107D01*
X57015769Y-50377321D01*
X57049104Y-50361563D01*
X57096543Y-50361989D01*
G37*
G36*
X56272762Y-49500132D02*
G01*
X56315158Y-49512776D01*
X56343229Y-49541370D01*
X56352958Y-49579294D01*
X56340325Y-49619930D01*
X56339440Y-49621160D01*
X56319452Y-49637193D01*
X56282972Y-49658970D01*
X56237196Y-49682149D01*
X56174809Y-49709198D01*
X56127528Y-49723216D01*
X56093787Y-49722686D01*
X56069020Y-49707498D01*
X56048661Y-49677539D01*
X56038898Y-49644024D01*
X56049544Y-49608961D01*
X56084348Y-49575203D01*
X56144521Y-49541024D01*
X56192352Y-49520567D01*
X56236864Y-49505682D01*
X56267524Y-49500000D01*
X56272762Y-49500132D01*
G37*
G36*
X56128572Y-52812731D02*
G01*
X56167568Y-52826770D01*
X56224771Y-52852047D01*
X56287104Y-52883831D01*
X56330838Y-52915950D01*
X56350294Y-52947147D01*
X56346530Y-52979214D01*
X56320607Y-53013939D01*
X56300837Y-53032532D01*
X56282357Y-53042788D01*
X56260031Y-53042853D01*
X56226966Y-53032639D01*
X56176265Y-53012055D01*
X56115995Y-52983579D01*
X56063515Y-52947773D01*
X56037024Y-52911594D01*
X56036150Y-52874475D01*
X56060520Y-52835847D01*
X56063756Y-52832416D01*
X56082372Y-52816117D01*
X56102076Y-52809368D01*
X56128572Y-52812731D01*
G37*
G36*
X55226672Y-50697575D02*
G01*
X55251576Y-50714813D01*
X55271500Y-50742097D01*
X55274331Y-50766565D01*
X55270293Y-50811358D01*
X55260122Y-50865090D01*
X55245822Y-50919155D01*
X55229398Y-50964947D01*
X55212854Y-50993863D01*
X55181520Y-51016012D01*
X55144987Y-51014563D01*
X55105457Y-50986668D01*
X55097298Y-50978137D01*
X55084521Y-50959960D01*
X55078968Y-50938186D01*
X55080646Y-50907299D01*
X55089562Y-50861784D01*
X55105725Y-50796123D01*
X55122358Y-50751128D01*
X55151872Y-50711405D01*
X55187818Y-50692597D01*
X55226672Y-50697575D01*
G37*
G36*
X57890343Y-52768438D02*
G01*
X57919599Y-52786966D01*
X57943465Y-52817772D01*
X57953334Y-52851009D01*
X57952277Y-52861789D01*
X57934289Y-52896438D01*
X57892911Y-52932449D01*
X57826667Y-52971220D01*
X57802884Y-52982777D01*
X57747139Y-53002181D01*
X57704485Y-53002677D01*
X57671050Y-52984600D01*
X57665958Y-52979402D01*
X57649193Y-52943549D01*
X57650504Y-52903171D01*
X57670000Y-52870230D01*
X57688727Y-52856669D01*
X57726388Y-52834462D01*
X57772046Y-52810536D01*
X57817963Y-52788712D01*
X57856400Y-52772815D01*
X57879620Y-52766666D01*
X57890343Y-52768438D01*
G37*
G36*
X56753497Y-50361187D02*
G01*
X56772567Y-50371605D01*
X56795893Y-50392354D01*
X56813428Y-50420297D01*
X56813591Y-50420815D01*
X56814591Y-50456099D01*
X56793215Y-50487353D01*
X56748033Y-50515868D01*
X56677614Y-50542935D01*
X56612712Y-50560933D01*
X56559740Y-50567266D01*
X56524925Y-50558427D01*
X56505825Y-50533721D01*
X56500000Y-50492456D01*
X56501562Y-50472751D01*
X56513036Y-50445042D01*
X56539016Y-50422037D01*
X56583440Y-50400740D01*
X56650245Y-50378155D01*
X56660565Y-50375018D01*
X56705178Y-50362482D01*
X56733595Y-50358009D01*
X56753497Y-50361187D01*
G37*
G36*
X56113333Y-51046973D02*
G01*
X56146146Y-51077677D01*
X56149896Y-51085034D01*
X56157842Y-51122020D01*
X56159604Y-51172415D01*
X56155950Y-51228224D01*
X56147647Y-51281453D01*
X56135463Y-51324108D01*
X56120166Y-51348194D01*
X56092120Y-51362436D01*
X56049577Y-51362842D01*
X56012067Y-51338482D01*
X56002666Y-51326148D01*
X55993216Y-51302235D01*
X55989302Y-51266518D01*
X55989622Y-51211646D01*
X55989735Y-51208150D01*
X55993247Y-51156198D01*
X55999279Y-51112716D01*
X56006594Y-51086803D01*
X56035992Y-51052795D01*
X56074232Y-51038834D01*
X56113333Y-51046973D01*
G37*
G36*
X55185144Y-51522385D02*
G01*
X55219832Y-51546463D01*
X55220316Y-51547066D01*
X55233117Y-51573500D01*
X55246950Y-51617144D01*
X55259636Y-51669123D01*
X55268999Y-51720559D01*
X55272859Y-51762577D01*
X55268068Y-51794908D01*
X55243700Y-51825910D01*
X55241622Y-51827354D01*
X55209018Y-51844012D01*
X55180967Y-51840768D01*
X55147523Y-51816666D01*
X55132295Y-51797484D01*
X55111995Y-51754763D01*
X55095244Y-51701703D01*
X55084111Y-51646866D01*
X55080664Y-51598810D01*
X55086972Y-51566097D01*
X55108110Y-51539292D01*
X55145273Y-51520383D01*
X55185144Y-51522385D01*
G37*
G36*
X59253706Y-52896091D02*
G01*
X59289697Y-52913997D01*
X59314796Y-52944550D01*
X59316469Y-52948516D01*
X59320557Y-52978877D01*
X59309183Y-53014631D01*
X59280566Y-53059540D01*
X59232924Y-53117367D01*
X59206091Y-53146647D01*
X59180409Y-53168585D01*
X59157151Y-53177339D01*
X59128557Y-53177367D01*
X59112650Y-53174741D01*
X59075779Y-53155269D01*
X59056054Y-53123051D01*
X59058236Y-53084383D01*
X59067548Y-53066493D01*
X59091562Y-53031125D01*
X59123382Y-52989651D01*
X59157302Y-52949109D01*
X59187616Y-52916531D01*
X59208618Y-52898955D01*
X59217454Y-52895398D01*
X59253706Y-52896091D01*
G37*
G36*
X57564639Y-51748767D02*
G01*
X57595355Y-51773144D01*
X57611734Y-51808805D01*
X57607612Y-51849947D01*
X57604323Y-51856790D01*
X57581075Y-51888639D01*
X57544831Y-51927320D01*
X57502343Y-51966041D01*
X57460367Y-51998009D01*
X57455034Y-52001509D01*
X57422734Y-52017295D01*
X57395446Y-52014464D01*
X57361799Y-51992365D01*
X57348040Y-51980286D01*
X57329519Y-51951300D01*
X57331542Y-51919103D01*
X57354929Y-51880272D01*
X57400505Y-51831386D01*
X57405657Y-51826435D01*
X57444470Y-51790929D01*
X57478062Y-51763005D01*
X57499656Y-51748341D01*
X57525750Y-51741473D01*
X57564639Y-51748767D01*
G37*
G36*
X57087067Y-53011252D02*
G01*
X57109201Y-53018899D01*
X57130132Y-53033196D01*
X57140764Y-53042489D01*
X57163657Y-53079196D01*
X57160594Y-53116958D01*
X57131536Y-53152365D01*
X57115172Y-53163387D01*
X57087876Y-53173616D01*
X57049196Y-53178653D01*
X56991536Y-53180000D01*
X56979426Y-53179912D01*
X56911677Y-53174419D01*
X56866449Y-53159414D01*
X56841187Y-53133530D01*
X56833334Y-53095399D01*
X56833612Y-53088008D01*
X56843599Y-53058212D01*
X56870296Y-53037039D01*
X56916947Y-53022761D01*
X56986798Y-53013650D01*
X57009093Y-53011804D01*
X57056206Y-53009229D01*
X57087067Y-53011252D01*
G37*
G36*
X55281679Y-49023621D02*
G01*
X55310902Y-49049697D01*
X55325037Y-49086022D01*
X55318326Y-49126555D01*
X55316377Y-49129930D01*
X55296683Y-49152591D01*
X55263099Y-49184211D01*
X55221634Y-49219039D01*
X55209976Y-49228191D01*
X55169645Y-49257977D01*
X55137659Y-49278819D01*
X55120099Y-49286666D01*
X55100650Y-49281476D01*
X55069605Y-49259679D01*
X55043990Y-49229484D01*
X55033334Y-49200370D01*
X55042334Y-49177777D01*
X55067452Y-49144112D01*
X55103036Y-49105769D01*
X55143413Y-49068386D01*
X55182907Y-49037598D01*
X55215845Y-49019045D01*
X55243124Y-49013833D01*
X55281679Y-49023621D01*
G37*
G36*
X64007704Y-50808094D02*
G01*
X64068642Y-50841372D01*
X64117701Y-50885186D01*
X64151011Y-50928479D01*
X64169371Y-50976570D01*
X64177455Y-51037909D01*
X64171921Y-51125295D01*
X64143478Y-51200088D01*
X64092626Y-51260717D01*
X64019905Y-51306259D01*
X63975663Y-51319573D01*
X63904742Y-51322827D01*
X63832358Y-51309202D01*
X63768718Y-51279774D01*
X63727106Y-51244875D01*
X63681285Y-51180726D01*
X63654869Y-51106531D01*
X63651290Y-51029604D01*
X63653432Y-51014914D01*
X63679677Y-50936658D01*
X63727461Y-50870925D01*
X63793512Y-50822479D01*
X63860003Y-50799267D01*
X63935512Y-50793878D01*
X64007704Y-50808094D01*
G37*
G36*
X57266762Y-53994210D02*
G01*
X57291106Y-53998241D01*
X57306262Y-54007024D01*
X57318358Y-54021701D01*
X57336318Y-54059920D01*
X57333972Y-54100176D01*
X57307814Y-54132354D01*
X57259349Y-54153103D01*
X57238148Y-54157020D01*
X57189221Y-54162548D01*
X57137187Y-54165301D01*
X57129158Y-54165412D01*
X57084329Y-54163467D01*
X57055580Y-54154970D01*
X57033853Y-54137485D01*
X57012888Y-54107447D01*
X57009844Y-54071225D01*
X57032147Y-54031477D01*
X57039896Y-54022674D01*
X57056447Y-54010412D01*
X57080608Y-54002833D01*
X57118733Y-53998356D01*
X57177172Y-53995401D01*
X57227098Y-53993789D01*
X57266762Y-53994210D01*
G37*
G36*
X56346588Y-50612055D02*
G01*
X56360682Y-50622799D01*
X56379939Y-50653693D01*
X56380662Y-50698121D01*
X56379705Y-50701358D01*
X56366830Y-50724323D01*
X56342413Y-50760000D01*
X56310648Y-50802154D01*
X56289052Y-50829320D01*
X56261295Y-50861268D01*
X56240234Y-50878298D01*
X56220068Y-50884517D01*
X56194995Y-50884032D01*
X56182046Y-50882555D01*
X56149686Y-50870731D01*
X56129490Y-50843588D01*
X56121747Y-50823398D01*
X56120539Y-50800044D01*
X56130218Y-50772675D01*
X56152877Y-50735828D01*
X56190608Y-50684038D01*
X56220290Y-50648326D01*
X56265327Y-50610948D01*
X56307085Y-50599015D01*
X56346588Y-50612055D01*
G37*
G36*
X56163181Y-51529882D02*
G01*
X56195820Y-51550000D01*
X56196266Y-51550524D01*
X56215155Y-51576344D01*
X56239695Y-51614323D01*
X56265834Y-51657566D01*
X56289522Y-51699180D01*
X56306706Y-51732271D01*
X56313334Y-51749946D01*
X56313288Y-51750762D01*
X56304680Y-51770464D01*
X56285699Y-51798201D01*
X56253573Y-51827053D01*
X56218011Y-51832913D01*
X56180338Y-51813157D01*
X56140057Y-51767518D01*
X56096670Y-51695726D01*
X56095297Y-51693134D01*
X56071777Y-51644737D01*
X56062082Y-51610778D01*
X56065359Y-51583789D01*
X56080757Y-51556300D01*
X56089240Y-51546561D01*
X56123908Y-51528941D01*
X56163181Y-51529882D01*
G37*
G36*
X55958900Y-53800565D02*
G01*
X55993332Y-53809428D01*
X56046238Y-53826523D01*
X56046344Y-53826558D01*
X56118653Y-53854592D01*
X56165539Y-53882843D01*
X56188205Y-53912908D01*
X56187857Y-53946384D01*
X56165699Y-53984868D01*
X56164605Y-53986235D01*
X56138040Y-54010128D01*
X56112670Y-54020000D01*
X56093448Y-54016888D01*
X56053754Y-54005509D01*
X56005078Y-53988767D01*
X55956010Y-53969836D01*
X55915137Y-53951891D01*
X55891052Y-53938105D01*
X55876709Y-53916242D01*
X55872680Y-53878752D01*
X55882964Y-53840436D01*
X55906223Y-53812397D01*
X55918811Y-53804845D01*
X55936280Y-53799261D01*
X55958900Y-53800565D01*
G37*
G36*
X54550590Y-49924389D02*
G01*
X54581421Y-49948241D01*
X54593334Y-49981714D01*
X54592371Y-49989055D01*
X54582343Y-50020234D01*
X54564283Y-50063433D01*
X54541760Y-50111287D01*
X54518342Y-50156434D01*
X54497597Y-50191512D01*
X54483095Y-50209156D01*
X54470814Y-50215077D01*
X54432330Y-50217750D01*
X54394147Y-50203731D01*
X54364983Y-50177449D01*
X54353551Y-50143333D01*
X54354100Y-50138933D01*
X54362979Y-50111105D01*
X54380443Y-50069042D01*
X54403551Y-50020000D01*
X54418225Y-49990921D01*
X54439647Y-49952393D01*
X54457023Y-49930386D01*
X54474922Y-49919847D01*
X54497914Y-49915728D01*
X54508200Y-49915247D01*
X54550590Y-49924389D01*
G37*
G36*
X54217360Y-51025656D02*
G01*
X54252823Y-51048646D01*
X54267585Y-51061021D01*
X54279486Y-51076523D01*
X54285248Y-51098180D01*
X54286438Y-51132816D01*
X54284621Y-51187256D01*
X54282952Y-51219167D01*
X54277587Y-51269820D01*
X54268591Y-51303099D01*
X54254601Y-51325276D01*
X54219181Y-51348815D01*
X54177990Y-51349342D01*
X54138686Y-51325352D01*
X54132638Y-51318951D01*
X54121286Y-51301583D01*
X54115362Y-51277816D01*
X54113756Y-51240923D01*
X54115354Y-51184173D01*
X54116319Y-51162461D01*
X54119870Y-51113049D01*
X54125767Y-51081485D01*
X54135730Y-51061166D01*
X54151479Y-51045487D01*
X54157981Y-51040358D01*
X54189007Y-51022995D01*
X54217360Y-51025656D01*
G37*
G36*
X65288192Y-51446601D02*
G01*
X65321705Y-51480730D01*
X65325328Y-51486411D01*
X65335080Y-51508436D01*
X65334226Y-51532885D01*
X65322912Y-51570842D01*
X65290682Y-51644566D01*
X65229782Y-51731759D01*
X65152148Y-51801605D01*
X65061112Y-51851287D01*
X64960000Y-51877988D01*
X64946151Y-51879269D01*
X64901800Y-51879961D01*
X64853334Y-51877485D01*
X64753367Y-51861284D01*
X64643099Y-51821879D01*
X64548708Y-51761101D01*
X64470068Y-51678885D01*
X64451284Y-51652453D01*
X64425858Y-51601551D01*
X64422951Y-51559773D01*
X64442067Y-51524383D01*
X64454763Y-51512351D01*
X64484134Y-51499750D01*
X64518146Y-51506865D01*
X64559806Y-51534757D01*
X64612120Y-51584491D01*
X64664634Y-51634910D01*
X64712174Y-51669677D01*
X64759042Y-51691158D01*
X64793802Y-51700949D01*
X64871362Y-51711789D01*
X64946853Y-51709499D01*
X65009772Y-51693962D01*
X65031897Y-51682522D01*
X65083576Y-51640838D01*
X65130899Y-51583816D01*
X65167106Y-51518976D01*
X65181616Y-51490566D01*
X65214719Y-51452367D01*
X65251387Y-51437429D01*
X65288192Y-51446601D01*
G37*
G36*
X65566667Y-49126173D02*
G01*
X65582642Y-49133148D01*
X65668715Y-49172073D01*
X65772221Y-49220600D01*
X65888181Y-49276262D01*
X66011616Y-49336590D01*
X66137548Y-49399117D01*
X66260998Y-49461375D01*
X66376986Y-49520896D01*
X66480536Y-49575211D01*
X66566667Y-49621854D01*
X66621324Y-49652413D01*
X66667003Y-49679323D01*
X66696289Y-49699508D01*
X66713030Y-49716129D01*
X66721075Y-49732348D01*
X66724272Y-49751326D01*
X66724764Y-49760593D01*
X66715764Y-49803796D01*
X66691123Y-49834795D01*
X66655810Y-49846666D01*
X66646074Y-49844399D01*
X66613955Y-49831439D01*
X66566015Y-49808924D01*
X66506889Y-49779069D01*
X66441210Y-49744088D01*
X66319725Y-49678958D01*
X66175119Y-49603840D01*
X66023488Y-49527207D01*
X65870858Y-49452024D01*
X65723258Y-49381257D01*
X65586711Y-49317871D01*
X65467245Y-49264831D01*
X65459176Y-49261359D01*
X65381409Y-49228101D01*
X65324078Y-49204359D01*
X65283516Y-49189047D01*
X65256058Y-49181082D01*
X65238039Y-49179379D01*
X65225792Y-49182856D01*
X65215654Y-49190427D01*
X65210345Y-49195660D01*
X65184390Y-49227401D01*
X65149411Y-49276285D01*
X65108479Y-49337518D01*
X65064666Y-49406308D01*
X65021046Y-49477862D01*
X64980689Y-49547386D01*
X64946667Y-49610087D01*
X64880000Y-49739027D01*
X64988020Y-49849513D01*
X65030299Y-49894002D01*
X65177111Y-50071112D01*
X65302148Y-50260418D01*
X65403925Y-50459462D01*
X65480959Y-50665790D01*
X65485009Y-50678804D01*
X65506903Y-50741678D01*
X65525081Y-50780111D01*
X65539124Y-50793186D01*
X65548202Y-50794703D01*
X65578802Y-50805045D01*
X65617303Y-50821921D01*
X65659629Y-50848701D01*
X65711397Y-50904641D01*
X65746251Y-50973667D01*
X65761310Y-51049370D01*
X65753691Y-51125340D01*
X65746688Y-51146014D01*
X65714455Y-51204016D01*
X65669451Y-51256614D01*
X65620022Y-51293322D01*
X65606680Y-51301416D01*
X65603146Y-51303560D01*
X65591998Y-51317161D01*
X65584975Y-51339869D01*
X65580280Y-51377525D01*
X65576113Y-51435974D01*
X65573839Y-51467325D01*
X65548203Y-51661458D01*
X65503810Y-51856851D01*
X65442885Y-52045159D01*
X65367652Y-52218040D01*
X65288678Y-52361220D01*
X65157811Y-52553856D01*
X65008133Y-52729651D01*
X64841400Y-52887318D01*
X64659367Y-53025569D01*
X64463788Y-53143116D01*
X64256420Y-53238671D01*
X64039017Y-53310946D01*
X63813334Y-53358652D01*
X63789087Y-53361174D01*
X63734792Y-53364326D01*
X63657588Y-53367201D01*
X63559630Y-53369801D01*
X63443070Y-53372123D01*
X63310064Y-53374168D01*
X63162766Y-53375935D01*
X63003331Y-53377423D01*
X62833911Y-53378632D01*
X62656662Y-53379561D01*
X62473737Y-53380209D01*
X62287291Y-53380577D01*
X62099479Y-53380663D01*
X61912454Y-53380467D01*
X61728370Y-53379988D01*
X61549382Y-53379226D01*
X61377644Y-53378180D01*
X61215311Y-53376850D01*
X61064535Y-53375235D01*
X60927473Y-53373334D01*
X60806277Y-53371147D01*
X60703102Y-53368673D01*
X60620102Y-53365913D01*
X60559432Y-53362864D01*
X60523246Y-53359527D01*
X60400811Y-53337611D01*
X60172635Y-53276647D01*
X59954991Y-53191348D01*
X59748870Y-53082202D01*
X59555260Y-52949697D01*
X59375152Y-52794318D01*
X59371436Y-52790730D01*
X59211685Y-52617993D01*
X59074274Y-52430781D01*
X58959539Y-52229682D01*
X58867818Y-52015286D01*
X58799447Y-51788179D01*
X58789786Y-51749302D01*
X58776704Y-51699786D01*
X58766412Y-51664549D01*
X58760548Y-51649436D01*
X58755952Y-51648208D01*
X58728321Y-51643196D01*
X58677662Y-51634878D01*
X58606145Y-51623586D01*
X58515940Y-51609651D01*
X58409217Y-51593404D01*
X58288145Y-51575177D01*
X58154893Y-51555302D01*
X58011632Y-51534109D01*
X57860531Y-51511931D01*
X57779945Y-51500106D01*
X57631756Y-51478134D01*
X57492082Y-51457135D01*
X57363159Y-51437460D01*
X57247221Y-51419463D01*
X57146504Y-51403494D01*
X57063243Y-51389907D01*
X56999672Y-51379054D01*
X56958027Y-51371286D01*
X56940543Y-51366957D01*
X56914733Y-51340953D01*
X56903615Y-51301937D01*
X56906899Y-51286597D01*
X57513334Y-51286597D01*
X57520918Y-51288794D01*
X57552155Y-51294668D01*
X57605120Y-51303569D01*
X57677169Y-51315083D01*
X57765658Y-51328796D01*
X57867944Y-51344294D01*
X57981384Y-51361164D01*
X58103334Y-51378990D01*
X58194562Y-51392243D01*
X58312031Y-51409395D01*
X58419742Y-51425221D01*
X58514922Y-51439308D01*
X58594798Y-51451243D01*
X58656598Y-51460614D01*
X58697548Y-51467008D01*
X58714878Y-51470012D01*
X58716018Y-51470269D01*
X58723867Y-51468794D01*
X58729747Y-51458500D01*
X58734132Y-51435818D01*
X58737496Y-51397179D01*
X58740312Y-51339013D01*
X58741628Y-51300000D01*
X58910925Y-51300000D01*
X58914957Y-51430900D01*
X58941721Y-51654665D01*
X58993572Y-51869387D01*
X59070511Y-52075072D01*
X59172541Y-52271730D01*
X59299666Y-52459366D01*
X59405378Y-52584865D01*
X59536587Y-52714481D01*
X59679830Y-52833180D01*
X59830235Y-52937290D01*
X59982928Y-53023140D01*
X60133034Y-53087059D01*
X60157572Y-53095723D01*
X60198838Y-53110463D01*
X60226667Y-53120624D01*
X60230218Y-53121293D01*
X60224904Y-53112897D01*
X60202669Y-53092805D01*
X60166667Y-53063997D01*
X60154434Y-53054504D01*
X59989751Y-52909031D01*
X59840951Y-52743827D01*
X59709845Y-52561694D01*
X59598247Y-52365434D01*
X59507968Y-52157849D01*
X59440820Y-51941741D01*
X59427768Y-51886813D01*
X59388615Y-51666145D01*
X59368371Y-51440066D01*
X59367309Y-51300000D01*
X60044059Y-51300000D01*
X60045561Y-51417399D01*
X60052927Y-51560653D01*
X60067288Y-51691577D01*
X60089586Y-51818129D01*
X60120763Y-51948269D01*
X60174679Y-52121088D01*
X60264263Y-52333207D01*
X60375244Y-52530714D01*
X60506731Y-52712415D01*
X60657837Y-52877115D01*
X60827673Y-53023620D01*
X60971881Y-53121293D01*
X61015349Y-53150734D01*
X61131541Y-53220000D01*
X61352295Y-53220000D01*
X61573049Y-53220000D01*
X61486525Y-53161577D01*
X61363786Y-53070455D01*
X61205524Y-52925607D01*
X61062403Y-52761352D01*
X60936102Y-52580178D01*
X60828299Y-52384571D01*
X60740675Y-52177016D01*
X60674909Y-51960000D01*
X60663051Y-51910174D01*
X60639507Y-51796265D01*
X60622597Y-51685754D01*
X60611517Y-51571181D01*
X60605460Y-51445083D01*
X60603620Y-51300000D01*
X61243808Y-51300000D01*
X61246426Y-51444629D01*
X61261180Y-51650802D01*
X61289939Y-51842125D01*
X61333841Y-52023993D01*
X61394021Y-52201797D01*
X61471616Y-52380930D01*
X61523463Y-52480217D01*
X61627181Y-52642492D01*
X61749057Y-52797141D01*
X61884805Y-52939406D01*
X62030140Y-53064534D01*
X62180776Y-53167770D01*
X62268218Y-53220000D01*
X62914109Y-53218166D01*
X63036450Y-53217634D01*
X63166437Y-53216666D01*
X63289289Y-53215349D01*
X63401751Y-53213735D01*
X63500567Y-53211879D01*
X63582483Y-53209836D01*
X63644243Y-53207659D01*
X63682591Y-53205402D01*
X63836533Y-53184935D01*
X64047254Y-53134655D01*
X64250427Y-53060429D01*
X64443939Y-52963676D01*
X64625678Y-52845814D01*
X64793533Y-52708260D01*
X64945392Y-52552432D01*
X65079141Y-52379748D01*
X65192671Y-52191626D01*
X65220819Y-52135963D01*
X65306128Y-51931504D01*
X65366323Y-51723016D01*
X65402008Y-51512365D01*
X65413786Y-51301416D01*
X65402261Y-51092034D01*
X65368036Y-50886086D01*
X65311716Y-50685435D01*
X65233903Y-50491948D01*
X65135202Y-50307490D01*
X65016215Y-50133926D01*
X64877547Y-49973122D01*
X64719801Y-49826942D01*
X64543581Y-49697253D01*
X64349490Y-49585919D01*
X64291670Y-49557966D01*
X64239853Y-49534772D01*
X64200394Y-49519093D01*
X64178937Y-49513333D01*
X64171275Y-49514627D01*
X64153962Y-49525717D01*
X64132690Y-49549988D01*
X64106035Y-49589654D01*
X64072569Y-49646931D01*
X64030869Y-49724033D01*
X63979509Y-49823173D01*
X63973000Y-49835883D01*
X63936211Y-49905950D01*
X63907984Y-49955561D01*
X63886138Y-49988015D01*
X63868490Y-50006610D01*
X63852860Y-50014643D01*
X63835234Y-50016982D01*
X63794929Y-50006916D01*
X63765031Y-49979123D01*
X63753334Y-49939487D01*
X63753420Y-49937493D01*
X63760991Y-49908291D01*
X63779236Y-49861077D01*
X63805948Y-49800507D01*
X63838917Y-49731241D01*
X63875936Y-49657934D01*
X63914794Y-49585245D01*
X63953285Y-49517832D01*
X63994189Y-49448998D01*
X63901990Y-49428028D01*
X63885199Y-49424415D01*
X63801516Y-49410348D01*
X63700570Y-49398204D01*
X63589915Y-49388664D01*
X63477108Y-49382407D01*
X63369703Y-49380114D01*
X63232738Y-49379999D01*
X63171967Y-49436017D01*
X63154931Y-49452895D01*
X63101524Y-49518712D01*
X63044945Y-49605566D01*
X62987167Y-49709732D01*
X62930160Y-49827484D01*
X62875898Y-49955097D01*
X62826353Y-50088846D01*
X62777557Y-50231026D01*
X62833311Y-50301561D01*
X62845232Y-50317088D01*
X62911554Y-50420630D01*
X62968098Y-50537937D01*
X63009517Y-50658191D01*
X63014941Y-50679812D01*
X63031706Y-50780772D01*
X63039482Y-50893835D01*
X63039233Y-50917803D01*
X63038279Y-51009693D01*
X63028106Y-51119043D01*
X63008971Y-51212578D01*
X62997985Y-51247988D01*
X62961646Y-51342323D01*
X62916850Y-51435460D01*
X62867870Y-51519030D01*
X62818980Y-51584661D01*
X62767116Y-51643582D01*
X62891063Y-51788457D01*
X62948094Y-51853188D01*
X63021946Y-51932270D01*
X63096531Y-52007589D01*
X63168299Y-52075792D01*
X63233699Y-52133525D01*
X63289180Y-52177435D01*
X63331193Y-52204169D01*
X63338881Y-52207906D01*
X63421624Y-52237294D01*
X63521247Y-52254435D01*
X63641478Y-52260000D01*
X63688482Y-52259730D01*
X63725729Y-52257700D01*
X63747836Y-52252138D01*
X63761096Y-52241273D01*
X63771801Y-52223333D01*
X63819042Y-52159530D01*
X63884146Y-52110184D01*
X63961903Y-52076544D01*
X64047495Y-52059108D01*
X64136106Y-52058372D01*
X64222916Y-52074836D01*
X64303109Y-52108997D01*
X64371867Y-52161351D01*
X64417837Y-52223511D01*
X64442829Y-52296154D01*
X64443980Y-52372047D01*
X64420387Y-52445908D01*
X64375164Y-52509849D01*
X64310465Y-52562131D01*
X64233058Y-52598048D01*
X64147628Y-52617070D01*
X64058856Y-52618671D01*
X63971426Y-52602323D01*
X63890021Y-52567496D01*
X63819323Y-52513665D01*
X63758645Y-52453247D01*
X63625990Y-52449104D01*
X63585165Y-52447382D01*
X63448428Y-52433593D01*
X63334958Y-52408067D01*
X63244162Y-52370682D01*
X63227038Y-52360838D01*
X63156785Y-52312371D01*
X63075687Y-52245966D01*
X62987079Y-52164784D01*
X62894297Y-52071984D01*
X62800677Y-51970727D01*
X62709554Y-51864173D01*
X62689406Y-51840083D01*
X62656051Y-51802347D01*
X62630619Y-51776349D01*
X62617434Y-51766666D01*
X62615780Y-51766809D01*
X62594246Y-51774013D01*
X62562672Y-51788743D01*
X62508684Y-51811353D01*
X62415802Y-51834597D01*
X62313956Y-51845753D01*
X62212303Y-51844000D01*
X62120000Y-51828515D01*
X62083928Y-51817595D01*
X61969658Y-51765566D01*
X61863422Y-51690648D01*
X61767498Y-51595366D01*
X61684162Y-51482245D01*
X61615692Y-51353807D01*
X61564364Y-51212578D01*
X61559592Y-51194682D01*
X61542174Y-51096079D01*
X61533938Y-50983648D01*
X61534345Y-50933333D01*
X61672052Y-50933333D01*
X61672616Y-50972614D01*
X61683222Y-51091898D01*
X61708564Y-51197970D01*
X61750346Y-51298793D01*
X61781638Y-51351540D01*
X61831230Y-51415101D01*
X61886080Y-51469261D01*
X61939048Y-51506174D01*
X61950002Y-51511184D01*
X61995344Y-51525499D01*
X62044051Y-51534223D01*
X62091179Y-51534667D01*
X62169941Y-51516200D01*
X62242716Y-51475565D01*
X62307986Y-51415469D01*
X62364234Y-51338617D01*
X62409941Y-51247718D01*
X62443589Y-51145478D01*
X62463662Y-51034604D01*
X62468640Y-50917803D01*
X62457006Y-50797781D01*
X62437147Y-50707652D01*
X62398796Y-50599179D01*
X62349083Y-50507432D01*
X62289998Y-50433605D01*
X62223531Y-50378891D01*
X62151673Y-50344484D01*
X62076412Y-50331577D01*
X61999739Y-50341364D01*
X61923644Y-50375038D01*
X61850117Y-50433793D01*
X61832609Y-50452114D01*
X61761931Y-50548278D01*
X61711805Y-50659993D01*
X61681942Y-50788074D01*
X61672052Y-50933333D01*
X61534345Y-50933333D01*
X61534885Y-50866667D01*
X61545016Y-50754417D01*
X61564332Y-50656177D01*
X61591372Y-50571826D01*
X61650635Y-50441779D01*
X61726249Y-50324191D01*
X61815622Y-50221860D01*
X61916161Y-50137584D01*
X62025275Y-50074162D01*
X62140371Y-50034392D01*
X62177847Y-50028076D01*
X62235111Y-50022489D01*
X62293334Y-50020142D01*
X62386667Y-50019632D01*
X62409929Y-49946366D01*
X62423529Y-49908296D01*
X62454410Y-49835362D01*
X62494213Y-49751423D01*
X62539489Y-49663350D01*
X62586792Y-49578015D01*
X62632677Y-49502287D01*
X62648821Y-49476867D01*
X62675111Y-49434185D01*
X62693242Y-49402977D01*
X62700000Y-49388668D01*
X62694145Y-49386665D01*
X62666051Y-49384016D01*
X62618722Y-49381903D01*
X62556597Y-49380505D01*
X62484109Y-49380000D01*
X62268218Y-49380000D01*
X62180776Y-49432229D01*
X62089782Y-49491429D01*
X61941821Y-49608402D01*
X61801738Y-49744407D01*
X61740967Y-49815803D01*
X61673819Y-49894690D01*
X61562350Y-50054496D01*
X61471616Y-50219069D01*
X61419107Y-50336011D01*
X61352969Y-50513667D01*
X61303506Y-50693501D01*
X61269583Y-50880906D01*
X61250062Y-51081275D01*
X61243808Y-51300000D01*
X60603620Y-51300000D01*
X60606269Y-51152553D01*
X60621110Y-50942597D01*
X60649896Y-50748250D01*
X60693644Y-50564625D01*
X60753369Y-50386837D01*
X60830084Y-50210000D01*
X60842466Y-50183881D01*
X60861999Y-50140800D01*
X60874244Y-50111080D01*
X60876952Y-50099999D01*
X60875523Y-50100195D01*
X60855197Y-50104430D01*
X60815116Y-50113355D01*
X60760227Y-50125858D01*
X60695474Y-50140826D01*
X60692382Y-50141545D01*
X60615652Y-50158629D01*
X60557082Y-50169463D01*
X60509389Y-50174884D01*
X60465289Y-50175731D01*
X60417497Y-50172845D01*
X60314993Y-50164038D01*
X60267539Y-50258268D01*
X60187302Y-50439154D01*
X60123642Y-50634355D01*
X60078989Y-50840844D01*
X60052682Y-51061699D01*
X60044059Y-51300000D01*
X59367309Y-51300000D01*
X59366645Y-51212380D01*
X59383046Y-50986888D01*
X59417180Y-50767393D01*
X59468657Y-50557698D01*
X59537084Y-50361605D01*
X59622070Y-50182917D01*
X59631311Y-50165967D01*
X59653255Y-50123655D01*
X59667436Y-50093106D01*
X59671136Y-50080024D01*
X59667917Y-50078805D01*
X59644605Y-50073628D01*
X59604672Y-50066098D01*
X59554930Y-50057363D01*
X59502188Y-50048572D01*
X59453258Y-50040871D01*
X59414951Y-50035409D01*
X59394077Y-50033333D01*
X59391626Y-50033973D01*
X59373559Y-50049365D01*
X59345115Y-50082155D01*
X59309359Y-50128159D01*
X59269354Y-50183191D01*
X59228164Y-50243067D01*
X59188852Y-50303601D01*
X59154483Y-50360609D01*
X59104785Y-50453039D01*
X59019443Y-50651385D01*
X58958920Y-50857754D01*
X58926701Y-51050549D01*
X58922865Y-51073506D01*
X58910925Y-51300000D01*
X58741628Y-51300000D01*
X58743054Y-51257753D01*
X58744544Y-51206507D01*
X58746246Y-51139865D01*
X58747325Y-51086380D01*
X58747696Y-51050549D01*
X58747273Y-51036873D01*
X58738743Y-51037677D01*
X58707011Y-51043063D01*
X58654781Y-51052743D01*
X58585163Y-51066087D01*
X58501269Y-51082467D01*
X58406210Y-51101252D01*
X58303095Y-51121813D01*
X58195037Y-51143521D01*
X58085146Y-51165745D01*
X57976533Y-51187857D01*
X57872309Y-51209226D01*
X57775584Y-51229224D01*
X57689469Y-51247220D01*
X57617076Y-51262584D01*
X57561516Y-51274689D01*
X57525898Y-51282903D01*
X57513334Y-51286597D01*
X56906899Y-51286597D01*
X56912098Y-51262309D01*
X56912556Y-51261485D01*
X56935587Y-51238869D01*
X56969898Y-51221599D01*
X56976210Y-51219927D01*
X57007874Y-51212780D01*
X57062361Y-51201169D01*
X57137390Y-51185558D01*
X57230678Y-51166413D01*
X57339945Y-51144198D01*
X57462908Y-51119377D01*
X57597286Y-51092417D01*
X57740798Y-51063781D01*
X57891162Y-51033934D01*
X57967307Y-51018841D01*
X58112979Y-50989870D01*
X58249875Y-50962517D01*
X58375820Y-50937224D01*
X58488642Y-50914432D01*
X58586166Y-50894583D01*
X58666220Y-50878118D01*
X58726629Y-50865479D01*
X58765221Y-50857107D01*
X58779822Y-50853443D01*
X58785293Y-50845387D01*
X58796056Y-50817009D01*
X58807127Y-50776707D01*
X58816317Y-50739903D01*
X58873331Y-50565719D01*
X58953470Y-50385715D01*
X59055261Y-50202907D01*
X59177227Y-50020309D01*
X59184227Y-50008261D01*
X59180586Y-49999254D01*
X59159825Y-49993069D01*
X59117227Y-49987092D01*
X59089733Y-49983190D01*
X59033703Y-49974135D01*
X58958738Y-49961304D01*
X58868939Y-49945456D01*
X58768412Y-49927348D01*
X58661257Y-49907736D01*
X58551579Y-49887380D01*
X58443480Y-49867035D01*
X58341063Y-49847461D01*
X58248431Y-49829414D01*
X58169687Y-49813651D01*
X58108934Y-49800931D01*
X58048683Y-49788615D01*
X57985050Y-49777232D01*
X57932420Y-49769510D01*
X57898272Y-49766666D01*
X57893540Y-49766587D01*
X57846116Y-49759798D01*
X57804238Y-49745410D01*
X57797757Y-49742411D01*
X57763001Y-49729517D01*
X57710310Y-49712450D01*
X57645629Y-49693079D01*
X57574900Y-49673273D01*
X57572500Y-49672623D01*
X57488058Y-49649149D01*
X57397098Y-49622865D01*
X57310397Y-49596936D01*
X57238733Y-49574529D01*
X57166586Y-49552475D01*
X57103166Y-49537013D01*
X57047481Y-49528972D01*
X56990799Y-49526666D01*
X56972096Y-49526484D01*
X56913624Y-49521596D01*
X56875557Y-49508197D01*
X56853344Y-49483813D01*
X56842436Y-49445968D01*
X56827588Y-49416186D01*
X56791190Y-49386666D01*
X56783018Y-49381912D01*
X56665699Y-49302233D01*
X56545450Y-49200551D01*
X56425823Y-49080414D01*
X56310369Y-48945366D01*
X56202639Y-48798954D01*
X56200527Y-48795860D01*
X56159819Y-48741261D01*
X56125446Y-48706838D01*
X56093344Y-48688485D01*
X56058350Y-48668808D01*
X56037079Y-48633403D01*
X56039182Y-48585181D01*
X56040068Y-48580385D01*
X56037100Y-48549231D01*
X56021453Y-48502216D01*
X55992116Y-48436143D01*
X55947325Y-48338333D01*
X55872127Y-48150267D01*
X55816769Y-47974175D01*
X55781365Y-47810903D01*
X55766026Y-47661293D01*
X55766972Y-47634881D01*
X55931607Y-47634881D01*
X55941355Y-47755284D01*
X55966707Y-47888547D01*
X56007431Y-48032788D01*
X56063291Y-48186122D01*
X56134053Y-48346666D01*
X56176738Y-48431997D01*
X56296502Y-48637960D01*
X56431669Y-48828245D01*
X56579015Y-48998130D01*
X56606462Y-49026231D01*
X56690298Y-49105971D01*
X56769914Y-49170505D01*
X56852856Y-49225552D01*
X56946667Y-49276831D01*
X57064172Y-49330292D01*
X57211621Y-49386527D01*
X57383754Y-49443155D01*
X57579565Y-49499951D01*
X57798050Y-49556691D01*
X58038205Y-49613148D01*
X58299024Y-49669098D01*
X58579503Y-49724317D01*
X58878637Y-49778578D01*
X59195421Y-49831657D01*
X59528851Y-49883330D01*
X59877923Y-49933370D01*
X59935697Y-49941307D01*
X60037670Y-49955199D01*
X60136371Y-49968511D01*
X60226014Y-49980468D01*
X60300814Y-49990296D01*
X60354988Y-49997220D01*
X60496641Y-50014837D01*
X60919642Y-49918319D01*
X60983452Y-49903707D01*
X61080827Y-49881192D01*
X61167747Y-49860832D01*
X61241099Y-49843369D01*
X61297773Y-49829548D01*
X61334657Y-49820111D01*
X61348641Y-49815803D01*
X61343088Y-49804040D01*
X61322480Y-49773877D01*
X61288591Y-49727684D01*
X61243248Y-49667787D01*
X61188278Y-49596511D01*
X61125509Y-49516182D01*
X61056768Y-49429125D01*
X61017620Y-49380000D01*
X61231768Y-49380000D01*
X61289042Y-49453333D01*
X61321225Y-49492065D01*
X61350553Y-49519020D01*
X61371608Y-49525454D01*
X61386928Y-49512911D01*
X61388597Y-49510821D01*
X61407575Y-49494487D01*
X61441458Y-49469230D01*
X61484239Y-49439577D01*
X61573049Y-49380000D01*
X61402408Y-49380000D01*
X61231768Y-49380000D01*
X61017620Y-49380000D01*
X60995806Y-49352627D01*
X64273334Y-49352627D01*
X64279144Y-49358591D01*
X64304500Y-49374612D01*
X64345363Y-49396952D01*
X64396667Y-49422731D01*
X64418812Y-49433692D01*
X64489403Y-49470958D01*
X64560630Y-49511353D01*
X64620000Y-49547877D01*
X64640264Y-49561142D01*
X64683769Y-49589629D01*
X64716809Y-49611276D01*
X64733460Y-49622200D01*
X64738846Y-49620842D01*
X64755646Y-49601923D01*
X64779270Y-49565547D01*
X64806793Y-49515954D01*
X64833507Y-49467118D01*
X64874240Y-49397389D01*
X64919536Y-49323534D01*
X64963622Y-49255152D01*
X64971420Y-49243406D01*
X65005959Y-49190632D01*
X65033483Y-49147360D01*
X65051358Y-49117793D01*
X65056955Y-49106132D01*
X65055392Y-49105311D01*
X65035610Y-49098578D01*
X64999075Y-49087508D01*
X64952850Y-49074119D01*
X64903999Y-49060434D01*
X64859583Y-49048471D01*
X64826667Y-49040253D01*
X64800574Y-49036328D01*
X64753137Y-49032839D01*
X64700806Y-49031745D01*
X64663568Y-49032776D01*
X64622979Y-49038746D01*
X64587279Y-49053620D01*
X64543735Y-49081427D01*
X64518431Y-49100795D01*
X64478738Y-49135124D01*
X64433568Y-49177059D01*
X64387142Y-49222367D01*
X64343684Y-49266812D01*
X64307415Y-49306160D01*
X64282558Y-49336176D01*
X64273334Y-49352627D01*
X60995806Y-49352627D01*
X60983883Y-49337666D01*
X60908679Y-49244130D01*
X60832986Y-49150843D01*
X60758629Y-49060130D01*
X60687437Y-48974317D01*
X60603744Y-48874708D01*
X60390472Y-48626153D01*
X60184437Y-48393710D01*
X59986385Y-48178114D01*
X59797063Y-47980099D01*
X59617218Y-47800400D01*
X59447596Y-47639750D01*
X59288945Y-47498886D01*
X59142009Y-47378541D01*
X59007537Y-47279450D01*
X58886275Y-47202347D01*
X58784435Y-47151118D01*
X58650563Y-47098793D01*
X58499462Y-47052656D01*
X58335979Y-47014168D01*
X58165041Y-46984805D01*
X58834872Y-46984805D01*
X58836289Y-46985721D01*
X58854676Y-46996192D01*
X58889022Y-47015140D01*
X58933334Y-47039253D01*
X58942837Y-47044442D01*
X59072701Y-47123820D01*
X59215303Y-47225709D01*
X59370085Y-47349571D01*
X59536488Y-47494868D01*
X59713954Y-47661063D01*
X59901925Y-47847616D01*
X60099841Y-48053991D01*
X60307144Y-48279650D01*
X60523277Y-48524054D01*
X60747680Y-48786666D01*
X60783363Y-48829155D01*
X60846761Y-48904913D01*
X60906881Y-48977070D01*
X60960241Y-49041432D01*
X61003359Y-49093806D01*
X61032755Y-49130000D01*
X61104786Y-49220000D01*
X61829060Y-49220000D01*
X61890864Y-49219978D01*
X62054711Y-49219666D01*
X62193303Y-49218964D01*
X62307691Y-49217850D01*
X62398924Y-49216304D01*
X62468054Y-49214304D01*
X62516132Y-49211829D01*
X62544209Y-49208859D01*
X62553334Y-49205371D01*
X62552757Y-49202578D01*
X62542944Y-49179120D01*
X62522164Y-49136075D01*
X62491941Y-49076309D01*
X62453798Y-49002686D01*
X62409259Y-48918072D01*
X62359848Y-48825331D01*
X62307089Y-48727329D01*
X62252506Y-48626929D01*
X62197622Y-48526998D01*
X62143961Y-48430400D01*
X62093047Y-48340000D01*
X62010702Y-48196680D01*
X61875835Y-47970103D01*
X61748581Y-47767341D01*
X61628260Y-47587514D01*
X61514193Y-47429740D01*
X61405699Y-47293137D01*
X61302098Y-47176824D01*
X61202711Y-47079919D01*
X61106857Y-47001542D01*
X61013857Y-46940809D01*
X60974480Y-46919231D01*
X60802713Y-46840998D01*
X60611249Y-46776792D01*
X60402886Y-46727309D01*
X60180426Y-46693248D01*
X59946667Y-46675303D01*
X59756374Y-46671907D01*
X59577742Y-46677535D01*
X59414663Y-46691926D01*
X59268618Y-46714721D01*
X59141089Y-46745560D01*
X59033557Y-46784084D01*
X58947505Y-46829935D01*
X58884414Y-46882752D01*
X58845765Y-46942178D01*
X58845126Y-46943734D01*
X58835815Y-46971216D01*
X58834872Y-46984805D01*
X58165041Y-46984805D01*
X58164965Y-46984792D01*
X58160789Y-46984213D01*
X58061608Y-46973794D01*
X57942413Y-46966371D01*
X57809390Y-46961944D01*
X57668724Y-46960513D01*
X57526599Y-46962079D01*
X57389203Y-46966641D01*
X57262719Y-46974201D01*
X57153334Y-46984758D01*
X57076521Y-46994753D01*
X56890263Y-47024334D01*
X56714551Y-47059822D01*
X56551687Y-47100471D01*
X56403972Y-47145537D01*
X56273707Y-47194272D01*
X56163196Y-47245931D01*
X56074738Y-47299768D01*
X56010637Y-47355037D01*
X55998340Y-47369666D01*
X55959866Y-47440188D01*
X55937699Y-47529221D01*
X55931607Y-47634881D01*
X55766972Y-47634881D01*
X55770865Y-47526189D01*
X55795993Y-47406436D01*
X55841523Y-47302877D01*
X55878854Y-47251697D01*
X55952067Y-47183805D01*
X56049513Y-47119051D01*
X56169837Y-47057962D01*
X56311687Y-47001065D01*
X56473708Y-46948886D01*
X56654547Y-46901952D01*
X56852849Y-46860791D01*
X57067262Y-46825928D01*
X57084352Y-46823651D01*
X57168134Y-46815241D01*
X57271327Y-46808170D01*
X57388183Y-46802555D01*
X57512953Y-46798512D01*
X57639892Y-46796157D01*
X57763250Y-46795607D01*
X57877282Y-46796978D01*
X57976238Y-46800387D01*
X58054372Y-46805949D01*
X58125436Y-46813956D01*
X58251360Y-46831608D01*
X58374373Y-46852863D01*
X58486558Y-46876298D01*
X58580000Y-46900489D01*
X58581109Y-46900816D01*
X58624740Y-46912209D01*
X58656698Y-46917806D01*
X58670133Y-46916399D01*
X58672317Y-46910660D01*
X58696749Y-46863543D01*
X58732670Y-46809739D01*
X58772956Y-46759136D01*
X58810481Y-46721624D01*
X58834951Y-46702959D01*
X58929214Y-46648317D01*
X59045040Y-46601984D01*
X59179478Y-46564174D01*
X59329580Y-46535101D01*
X59492397Y-46514978D01*
X59664979Y-46504019D01*
X59844377Y-46502437D01*
X60027642Y-46510445D01*
X60211825Y-46528258D01*
X60393976Y-46556088D01*
X60571147Y-46594150D01*
X60633758Y-46610638D01*
X60810774Y-46667205D01*
X60975357Y-46734611D01*
X61120674Y-46810169D01*
X61204379Y-46865606D01*
X61303245Y-46945869D01*
X61405931Y-47044774D01*
X61512903Y-47162984D01*
X61624628Y-47301165D01*
X61741574Y-47459979D01*
X61864208Y-47640090D01*
X61992995Y-47842162D01*
X62128403Y-48066858D01*
X62270899Y-48314843D01*
X62420950Y-48586780D01*
X62579023Y-48883333D01*
X62579713Y-48884648D01*
X62631056Y-48982286D01*
X62671734Y-49058867D01*
X62703400Y-49116948D01*
X62727705Y-49159082D01*
X62746300Y-49187826D01*
X62760542Y-49205371D01*
X62760837Y-49205735D01*
X62772967Y-49215363D01*
X62784342Y-49219266D01*
X62796612Y-49220000D01*
X62800644Y-49219863D01*
X62841098Y-49209223D01*
X62882001Y-49186044D01*
X62898342Y-49174263D01*
X62970595Y-49131879D01*
X63056477Y-49092557D01*
X63145873Y-49060551D01*
X63228670Y-49040121D01*
X63258773Y-49035335D01*
X63343868Y-49025128D01*
X63438566Y-49017445D01*
X63535673Y-49012580D01*
X63627996Y-49010831D01*
X63708341Y-49012493D01*
X63769515Y-49017862D01*
X63823992Y-49029166D01*
X63922231Y-49064065D01*
X64013558Y-49113829D01*
X64088381Y-49173768D01*
X64146667Y-49232136D01*
X64281178Y-49096068D01*
X64347391Y-49031123D01*
X64419900Y-48966942D01*
X64483739Y-48920294D01*
X64542701Y-48888843D01*
X64600579Y-48870256D01*
X64661165Y-48862198D01*
X64720883Y-48862288D01*
X64825690Y-48873858D01*
X64945781Y-48898427D01*
X65076828Y-48935234D01*
X65183663Y-48968983D01*
X65271832Y-48882743D01*
X65314193Y-48842732D01*
X65405973Y-48767365D01*
X65490434Y-48715117D01*
X65569329Y-48684824D01*
X65602479Y-48678339D01*
X65673457Y-48670935D01*
X65763951Y-48666812D01*
X65869735Y-48665873D01*
X65986580Y-48668023D01*
X66110257Y-48673166D01*
X66236539Y-48681204D01*
X66361196Y-48692041D01*
X66480000Y-48705581D01*
X66550471Y-48714973D01*
X66681566Y-48733562D01*
X66818246Y-48754202D01*
X66957848Y-48776400D01*
X67097708Y-48799659D01*
X67235162Y-48823485D01*
X67367547Y-48847381D01*
X67492197Y-48870851D01*
X67606450Y-48893402D01*
X67707642Y-48914536D01*
X67793108Y-48933760D01*
X67860185Y-48950576D01*
X67906209Y-48964490D01*
X67928516Y-48975006D01*
X67946019Y-48998589D01*
X67953365Y-49036817D01*
X67943258Y-49074005D01*
X67918408Y-49102171D01*
X67881526Y-49113333D01*
X67864427Y-49111520D01*
X67823958Y-49105052D01*
X67766335Y-49094732D01*
X67696438Y-49081439D01*
X67619146Y-49066053D01*
X67560318Y-49054201D01*
X67162269Y-48979643D01*
X66762455Y-48914205D01*
X66373334Y-48859946D01*
X66327729Y-48854484D01*
X66205012Y-48842555D01*
X66082551Y-48834312D01*
X65964085Y-48829747D01*
X65853350Y-48828851D01*
X65754085Y-48831616D01*
X65670026Y-48838033D01*
X65604911Y-48848094D01*
X65562477Y-48861790D01*
X65538191Y-48876655D01*
X65501589Y-48903169D01*
X65461231Y-48935266D01*
X65422142Y-48968633D01*
X65389342Y-48998962D01*
X65367854Y-49021941D01*
X65362699Y-49033261D01*
X65368999Y-49036931D01*
X65396645Y-49050348D01*
X65441766Y-49071044D01*
X65499921Y-49096993D01*
X65520825Y-49106132D01*
X65566667Y-49126173D01*
G37*
G04 #@! TO.C,TP8*
X55300000Y-61300000D02*
G75*
G03*
X55300000Y-61300000I-700000J0D01*
G01*
G04 #@! TO.C,TP5*
X43300000Y-46000000D02*
G75*
G03*
X43300000Y-46000000I-700000J0D01*
G01*
G04 #@! TO.C,J4*
X60690000Y-36630000D02*
X59365000Y-36630000D01*
X59365000Y-43035000D02*
X55835000Y-43035000D01*
X59365000Y-42970000D02*
X59365000Y-43035000D01*
X59365000Y-36565000D02*
X59365000Y-36630000D01*
X59365000Y-36565000D02*
X55835000Y-36565000D01*
X55835000Y-42970000D02*
X55835000Y-43035000D01*
X55835000Y-36565000D02*
X55835000Y-36630000D01*
G04 #@! TO.C,TP7*
X51800000Y-40000000D02*
G75*
G03*
X51800000Y-40000000I-700000J0D01*
G01*
G04 #@! TO.C,TP4*
X53700000Y-46500000D02*
G75*
G03*
X53700000Y-46500000I-700000J0D01*
G01*
G04 #@! TO.C,J3*
X43385000Y-52895000D02*
X43385000Y-58095000D01*
X38245000Y-52895000D02*
X43385000Y-52895000D01*
X38245000Y-52895000D02*
X38245000Y-55495000D01*
X36975000Y-52895000D02*
X35645000Y-52895000D01*
X35645000Y-52895000D02*
X35645000Y-54225000D01*
X38245000Y-55495000D02*
X35645000Y-55495000D01*
X35645000Y-55495000D02*
X35645000Y-58095000D01*
X35645000Y-58095000D02*
X43385000Y-58095000D01*
G04 #@! TO.C,TP3*
X50400000Y-49700000D02*
G75*
G03*
X50400000Y-49700000I-700000J0D01*
G01*
G04 #@! TD*
M02*
