G04 #@! TF.GenerationSoftware,KiCad,Pcbnew,8.0.3*
G04 #@! TF.CreationDate,2024-06-22T03:08:14-07:00*
G04 #@! TF.ProjectId,adsbee_1090,61647362-6565-45f3-9130-39302e6b6963,D*
G04 #@! TF.SameCoordinates,Original*
G04 #@! TF.FileFunction,Soldermask,Bot*
G04 #@! TF.FilePolarity,Negative*
%FSLAX46Y46*%
G04 Gerber Fmt 4.6, Leading zero omitted, Abs format (unit mm)*
G04 Created by KiCad (PCBNEW 8.0.3) date 2024-06-22 03:08:14*
%MOMM*%
%LPD*%
G01*
G04 APERTURE LIST*
G04 Aperture macros list*
%AMRoundRect*
0 Rectangle with rounded corners*
0 $1 Rounding radius*
0 $2 $3 $4 $5 $6 $7 $8 $9 X,Y pos of 4 corners*
0 Add a 4 corners polygon primitive as box body*
4,1,4,$2,$3,$4,$5,$6,$7,$8,$9,$2,$3,0*
0 Add four circle primitives for the rounded corners*
1,1,$1+$1,$2,$3*
1,1,$1+$1,$4,$5*
1,1,$1+$1,$6,$7*
1,1,$1+$1,$8,$9*
0 Add four rect primitives between the rounded corners*
20,1,$1+$1,$2,$3,$4,$5,0*
20,1,$1+$1,$4,$5,$6,$7,0*
20,1,$1+$1,$6,$7,$8,$9,0*
20,1,$1+$1,$8,$9,$2,$3,0*%
%AMFreePoly0*
4,1,6,0.725000,-0.725000,-0.125000,-0.725000,-0.725000,-0.125000,-0.725000,0.725000,0.725000,0.725000,0.725000,-0.725000,0.725000,-0.725000,$1*%
G04 Aperture macros list end*
%ADD10C,0.100000*%
%ADD11C,0.150000*%
%ADD12C,0.300000*%
%ADD13C,0.400000*%
%ADD14C,1.875000*%
%ADD15R,1.700000X1.700000*%
%ADD16O,1.700000X1.700000*%
%ADD17C,5.000000*%
%ADD18C,0.650000*%
%ADD19O,2.100000X1.000000*%
%ADD20O,1.800000X1.000000*%
%ADD21RoundRect,0.225000X-0.225000X-0.250000X0.225000X-0.250000X0.225000X0.250000X-0.225000X0.250000X0*%
%ADD22RoundRect,0.140000X-0.140000X-0.170000X0.140000X-0.170000X0.140000X0.170000X-0.140000X0.170000X0*%
%ADD23RoundRect,0.135000X0.135000X0.185000X-0.135000X0.185000X-0.135000X-0.185000X0.135000X-0.185000X0*%
%ADD24C,1.000000*%
%ADD25R,2.400000X0.740000*%
%ADD26RoundRect,0.135000X-0.135000X-0.185000X0.135000X-0.185000X0.135000X0.185000X-0.135000X0.185000X0*%
%ADD27RoundRect,0.140000X0.140000X0.170000X-0.140000X0.170000X-0.140000X-0.170000X0.140000X-0.170000X0*%
%ADD28RoundRect,0.250000X-0.250000X-0.475000X0.250000X-0.475000X0.250000X0.475000X-0.250000X0.475000X0*%
%ADD29RoundRect,0.225000X0.225000X0.375000X-0.225000X0.375000X-0.225000X-0.375000X0.225000X-0.375000X0*%
%ADD30RoundRect,0.250000X-0.475000X0.250000X-0.475000X-0.250000X0.475000X-0.250000X0.475000X0.250000X0*%
%ADD31RoundRect,0.147500X0.147500X0.172500X-0.147500X0.172500X-0.147500X-0.172500X0.147500X-0.172500X0*%
%ADD32R,0.800000X0.400000*%
%ADD33R,0.400000X0.800000*%
%ADD34R,1.450000X1.450000*%
%ADD35FreePoly0,180.000000*%
%ADD36R,0.700000X0.700000*%
%ADD37RoundRect,0.147500X-0.147500X-0.172500X0.147500X-0.172500X0.147500X0.172500X-0.147500X0.172500X0*%
%ADD38RoundRect,0.375000X-0.625000X-0.375000X0.625000X-0.375000X0.625000X0.375000X-0.625000X0.375000X0*%
%ADD39RoundRect,0.500000X-0.500000X-1.400000X0.500000X-1.400000X0.500000X1.400000X-0.500000X1.400000X0*%
G04 APERTURE END LIST*
D10*
X311457819Y-235654619D02*
X311457819Y-251240982D01*
X327044182Y-251240982D01*
X327044182Y-235654619D01*
X311457819Y-235654619D01*
D11*
X311800000Y-235400000D02*
X419800000Y-235400000D01*
X419800000Y-267400000D01*
X311800000Y-267400000D01*
X311800000Y-235400000D01*
D10*
D11*
X10000000Y-10000000D02*
X421800000Y-10000000D01*
X421800000Y-269400000D01*
X10000000Y-269400000D01*
X10000000Y-10000000D01*
D10*
D11*
X12000000Y-12000000D02*
X419800000Y-12000000D01*
X419800000Y-267400000D01*
X12000000Y-267400000D01*
X12000000Y-12000000D01*
D10*
D11*
X60000000Y-12000000D02*
X60000000Y-10000000D01*
D10*
D11*
X110000000Y-12000000D02*
X110000000Y-10000000D01*
D10*
D11*
X160000000Y-12000000D02*
X160000000Y-10000000D01*
D10*
D11*
X210000000Y-12000000D02*
X210000000Y-10000000D01*
D10*
D11*
X260000000Y-12000000D02*
X260000000Y-10000000D01*
D10*
D11*
X310000000Y-12000000D02*
X310000000Y-10000000D01*
D10*
D11*
X360000000Y-12000000D02*
X360000000Y-10000000D01*
D10*
D11*
X410000000Y-12000000D02*
X410000000Y-10000000D01*
D10*
D11*
X36089160Y-11593604D02*
X35346303Y-11593604D01*
X35717731Y-11593604D02*
X35717731Y-10293604D01*
X35717731Y-10293604D02*
X35593922Y-10479319D01*
X35593922Y-10479319D02*
X35470112Y-10603128D01*
X35470112Y-10603128D02*
X35346303Y-10665033D01*
D10*
D11*
X85346303Y-10417414D02*
X85408207Y-10355509D01*
X85408207Y-10355509D02*
X85532017Y-10293604D01*
X85532017Y-10293604D02*
X85841541Y-10293604D01*
X85841541Y-10293604D02*
X85965350Y-10355509D01*
X85965350Y-10355509D02*
X86027255Y-10417414D01*
X86027255Y-10417414D02*
X86089160Y-10541223D01*
X86089160Y-10541223D02*
X86089160Y-10665033D01*
X86089160Y-10665033D02*
X86027255Y-10850747D01*
X86027255Y-10850747D02*
X85284398Y-11593604D01*
X85284398Y-11593604D02*
X86089160Y-11593604D01*
D10*
D11*
X135284398Y-10293604D02*
X136089160Y-10293604D01*
X136089160Y-10293604D02*
X135655826Y-10788842D01*
X135655826Y-10788842D02*
X135841541Y-10788842D01*
X135841541Y-10788842D02*
X135965350Y-10850747D01*
X135965350Y-10850747D02*
X136027255Y-10912652D01*
X136027255Y-10912652D02*
X136089160Y-11036461D01*
X136089160Y-11036461D02*
X136089160Y-11345985D01*
X136089160Y-11345985D02*
X136027255Y-11469795D01*
X136027255Y-11469795D02*
X135965350Y-11531700D01*
X135965350Y-11531700D02*
X135841541Y-11593604D01*
X135841541Y-11593604D02*
X135470112Y-11593604D01*
X135470112Y-11593604D02*
X135346303Y-11531700D01*
X135346303Y-11531700D02*
X135284398Y-11469795D01*
D10*
D11*
X185965350Y-10726938D02*
X185965350Y-11593604D01*
X185655826Y-10231700D02*
X185346303Y-11160271D01*
X185346303Y-11160271D02*
X186151064Y-11160271D01*
D10*
D11*
X236027255Y-10293604D02*
X235408207Y-10293604D01*
X235408207Y-10293604D02*
X235346303Y-10912652D01*
X235346303Y-10912652D02*
X235408207Y-10850747D01*
X235408207Y-10850747D02*
X235532017Y-10788842D01*
X235532017Y-10788842D02*
X235841541Y-10788842D01*
X235841541Y-10788842D02*
X235965350Y-10850747D01*
X235965350Y-10850747D02*
X236027255Y-10912652D01*
X236027255Y-10912652D02*
X236089160Y-11036461D01*
X236089160Y-11036461D02*
X236089160Y-11345985D01*
X236089160Y-11345985D02*
X236027255Y-11469795D01*
X236027255Y-11469795D02*
X235965350Y-11531700D01*
X235965350Y-11531700D02*
X235841541Y-11593604D01*
X235841541Y-11593604D02*
X235532017Y-11593604D01*
X235532017Y-11593604D02*
X235408207Y-11531700D01*
X235408207Y-11531700D02*
X235346303Y-11469795D01*
D10*
D11*
X285965350Y-10293604D02*
X285717731Y-10293604D01*
X285717731Y-10293604D02*
X285593922Y-10355509D01*
X285593922Y-10355509D02*
X285532017Y-10417414D01*
X285532017Y-10417414D02*
X285408207Y-10603128D01*
X285408207Y-10603128D02*
X285346303Y-10850747D01*
X285346303Y-10850747D02*
X285346303Y-11345985D01*
X285346303Y-11345985D02*
X285408207Y-11469795D01*
X285408207Y-11469795D02*
X285470112Y-11531700D01*
X285470112Y-11531700D02*
X285593922Y-11593604D01*
X285593922Y-11593604D02*
X285841541Y-11593604D01*
X285841541Y-11593604D02*
X285965350Y-11531700D01*
X285965350Y-11531700D02*
X286027255Y-11469795D01*
X286027255Y-11469795D02*
X286089160Y-11345985D01*
X286089160Y-11345985D02*
X286089160Y-11036461D01*
X286089160Y-11036461D02*
X286027255Y-10912652D01*
X286027255Y-10912652D02*
X285965350Y-10850747D01*
X285965350Y-10850747D02*
X285841541Y-10788842D01*
X285841541Y-10788842D02*
X285593922Y-10788842D01*
X285593922Y-10788842D02*
X285470112Y-10850747D01*
X285470112Y-10850747D02*
X285408207Y-10912652D01*
X285408207Y-10912652D02*
X285346303Y-11036461D01*
D10*
D11*
X335284398Y-10293604D02*
X336151064Y-10293604D01*
X336151064Y-10293604D02*
X335593922Y-11593604D01*
D10*
D11*
X385593922Y-10850747D02*
X385470112Y-10788842D01*
X385470112Y-10788842D02*
X385408207Y-10726938D01*
X385408207Y-10726938D02*
X385346303Y-10603128D01*
X385346303Y-10603128D02*
X385346303Y-10541223D01*
X385346303Y-10541223D02*
X385408207Y-10417414D01*
X385408207Y-10417414D02*
X385470112Y-10355509D01*
X385470112Y-10355509D02*
X385593922Y-10293604D01*
X385593922Y-10293604D02*
X385841541Y-10293604D01*
X385841541Y-10293604D02*
X385965350Y-10355509D01*
X385965350Y-10355509D02*
X386027255Y-10417414D01*
X386027255Y-10417414D02*
X386089160Y-10541223D01*
X386089160Y-10541223D02*
X386089160Y-10603128D01*
X386089160Y-10603128D02*
X386027255Y-10726938D01*
X386027255Y-10726938D02*
X385965350Y-10788842D01*
X385965350Y-10788842D02*
X385841541Y-10850747D01*
X385841541Y-10850747D02*
X385593922Y-10850747D01*
X385593922Y-10850747D02*
X385470112Y-10912652D01*
X385470112Y-10912652D02*
X385408207Y-10974557D01*
X385408207Y-10974557D02*
X385346303Y-11098366D01*
X385346303Y-11098366D02*
X385346303Y-11345985D01*
X385346303Y-11345985D02*
X385408207Y-11469795D01*
X385408207Y-11469795D02*
X385470112Y-11531700D01*
X385470112Y-11531700D02*
X385593922Y-11593604D01*
X385593922Y-11593604D02*
X385841541Y-11593604D01*
X385841541Y-11593604D02*
X385965350Y-11531700D01*
X385965350Y-11531700D02*
X386027255Y-11469795D01*
X386027255Y-11469795D02*
X386089160Y-11345985D01*
X386089160Y-11345985D02*
X386089160Y-11098366D01*
X386089160Y-11098366D02*
X386027255Y-10974557D01*
X386027255Y-10974557D02*
X385965350Y-10912652D01*
X385965350Y-10912652D02*
X385841541Y-10850747D01*
D10*
D11*
X60000000Y-267400000D02*
X60000000Y-269400000D01*
D10*
D11*
X110000000Y-267400000D02*
X110000000Y-269400000D01*
D10*
D11*
X160000000Y-267400000D02*
X160000000Y-269400000D01*
D10*
D11*
X210000000Y-267400000D02*
X210000000Y-269400000D01*
D10*
D11*
X260000000Y-267400000D02*
X260000000Y-269400000D01*
D10*
D11*
X310000000Y-267400000D02*
X310000000Y-269400000D01*
D10*
D11*
X360000000Y-267400000D02*
X360000000Y-269400000D01*
D10*
D11*
X410000000Y-267400000D02*
X410000000Y-269400000D01*
D10*
D11*
X36089160Y-268993604D02*
X35346303Y-268993604D01*
X35717731Y-268993604D02*
X35717731Y-267693604D01*
X35717731Y-267693604D02*
X35593922Y-267879319D01*
X35593922Y-267879319D02*
X35470112Y-268003128D01*
X35470112Y-268003128D02*
X35346303Y-268065033D01*
D10*
D11*
X85346303Y-267817414D02*
X85408207Y-267755509D01*
X85408207Y-267755509D02*
X85532017Y-267693604D01*
X85532017Y-267693604D02*
X85841541Y-267693604D01*
X85841541Y-267693604D02*
X85965350Y-267755509D01*
X85965350Y-267755509D02*
X86027255Y-267817414D01*
X86027255Y-267817414D02*
X86089160Y-267941223D01*
X86089160Y-267941223D02*
X86089160Y-268065033D01*
X86089160Y-268065033D02*
X86027255Y-268250747D01*
X86027255Y-268250747D02*
X85284398Y-268993604D01*
X85284398Y-268993604D02*
X86089160Y-268993604D01*
D10*
D11*
X135284398Y-267693604D02*
X136089160Y-267693604D01*
X136089160Y-267693604D02*
X135655826Y-268188842D01*
X135655826Y-268188842D02*
X135841541Y-268188842D01*
X135841541Y-268188842D02*
X135965350Y-268250747D01*
X135965350Y-268250747D02*
X136027255Y-268312652D01*
X136027255Y-268312652D02*
X136089160Y-268436461D01*
X136089160Y-268436461D02*
X136089160Y-268745985D01*
X136089160Y-268745985D02*
X136027255Y-268869795D01*
X136027255Y-268869795D02*
X135965350Y-268931700D01*
X135965350Y-268931700D02*
X135841541Y-268993604D01*
X135841541Y-268993604D02*
X135470112Y-268993604D01*
X135470112Y-268993604D02*
X135346303Y-268931700D01*
X135346303Y-268931700D02*
X135284398Y-268869795D01*
D10*
D11*
X185965350Y-268126938D02*
X185965350Y-268993604D01*
X185655826Y-267631700D02*
X185346303Y-268560271D01*
X185346303Y-268560271D02*
X186151064Y-268560271D01*
D10*
D11*
X236027255Y-267693604D02*
X235408207Y-267693604D01*
X235408207Y-267693604D02*
X235346303Y-268312652D01*
X235346303Y-268312652D02*
X235408207Y-268250747D01*
X235408207Y-268250747D02*
X235532017Y-268188842D01*
X235532017Y-268188842D02*
X235841541Y-268188842D01*
X235841541Y-268188842D02*
X235965350Y-268250747D01*
X235965350Y-268250747D02*
X236027255Y-268312652D01*
X236027255Y-268312652D02*
X236089160Y-268436461D01*
X236089160Y-268436461D02*
X236089160Y-268745985D01*
X236089160Y-268745985D02*
X236027255Y-268869795D01*
X236027255Y-268869795D02*
X235965350Y-268931700D01*
X235965350Y-268931700D02*
X235841541Y-268993604D01*
X235841541Y-268993604D02*
X235532017Y-268993604D01*
X235532017Y-268993604D02*
X235408207Y-268931700D01*
X235408207Y-268931700D02*
X235346303Y-268869795D01*
D10*
D11*
X285965350Y-267693604D02*
X285717731Y-267693604D01*
X285717731Y-267693604D02*
X285593922Y-267755509D01*
X285593922Y-267755509D02*
X285532017Y-267817414D01*
X285532017Y-267817414D02*
X285408207Y-268003128D01*
X285408207Y-268003128D02*
X285346303Y-268250747D01*
X285346303Y-268250747D02*
X285346303Y-268745985D01*
X285346303Y-268745985D02*
X285408207Y-268869795D01*
X285408207Y-268869795D02*
X285470112Y-268931700D01*
X285470112Y-268931700D02*
X285593922Y-268993604D01*
X285593922Y-268993604D02*
X285841541Y-268993604D01*
X285841541Y-268993604D02*
X285965350Y-268931700D01*
X285965350Y-268931700D02*
X286027255Y-268869795D01*
X286027255Y-268869795D02*
X286089160Y-268745985D01*
X286089160Y-268745985D02*
X286089160Y-268436461D01*
X286089160Y-268436461D02*
X286027255Y-268312652D01*
X286027255Y-268312652D02*
X285965350Y-268250747D01*
X285965350Y-268250747D02*
X285841541Y-268188842D01*
X285841541Y-268188842D02*
X285593922Y-268188842D01*
X285593922Y-268188842D02*
X285470112Y-268250747D01*
X285470112Y-268250747D02*
X285408207Y-268312652D01*
X285408207Y-268312652D02*
X285346303Y-268436461D01*
D10*
D11*
X335284398Y-267693604D02*
X336151064Y-267693604D01*
X336151064Y-267693604D02*
X335593922Y-268993604D01*
D10*
D11*
X385593922Y-268250747D02*
X385470112Y-268188842D01*
X385470112Y-268188842D02*
X385408207Y-268126938D01*
X385408207Y-268126938D02*
X385346303Y-268003128D01*
X385346303Y-268003128D02*
X385346303Y-267941223D01*
X385346303Y-267941223D02*
X385408207Y-267817414D01*
X385408207Y-267817414D02*
X385470112Y-267755509D01*
X385470112Y-267755509D02*
X385593922Y-267693604D01*
X385593922Y-267693604D02*
X385841541Y-267693604D01*
X385841541Y-267693604D02*
X385965350Y-267755509D01*
X385965350Y-267755509D02*
X386027255Y-267817414D01*
X386027255Y-267817414D02*
X386089160Y-267941223D01*
X386089160Y-267941223D02*
X386089160Y-268003128D01*
X386089160Y-268003128D02*
X386027255Y-268126938D01*
X386027255Y-268126938D02*
X385965350Y-268188842D01*
X385965350Y-268188842D02*
X385841541Y-268250747D01*
X385841541Y-268250747D02*
X385593922Y-268250747D01*
X385593922Y-268250747D02*
X385470112Y-268312652D01*
X385470112Y-268312652D02*
X385408207Y-268374557D01*
X385408207Y-268374557D02*
X385346303Y-268498366D01*
X385346303Y-268498366D02*
X385346303Y-268745985D01*
X385346303Y-268745985D02*
X385408207Y-268869795D01*
X385408207Y-268869795D02*
X385470112Y-268931700D01*
X385470112Y-268931700D02*
X385593922Y-268993604D01*
X385593922Y-268993604D02*
X385841541Y-268993604D01*
X385841541Y-268993604D02*
X385965350Y-268931700D01*
X385965350Y-268931700D02*
X386027255Y-268869795D01*
X386027255Y-268869795D02*
X386089160Y-268745985D01*
X386089160Y-268745985D02*
X386089160Y-268498366D01*
X386089160Y-268498366D02*
X386027255Y-268374557D01*
X386027255Y-268374557D02*
X385965350Y-268312652D01*
X385965350Y-268312652D02*
X385841541Y-268250747D01*
D10*
D11*
X10000000Y-60000000D02*
X12000000Y-60000000D01*
D10*
D11*
X10000000Y-110000000D02*
X12000000Y-110000000D01*
D10*
D11*
X10000000Y-160000000D02*
X12000000Y-160000000D01*
D10*
D11*
X10000000Y-210000000D02*
X12000000Y-210000000D01*
D10*
D11*
X10000000Y-260000000D02*
X12000000Y-260000000D01*
D10*
D11*
X10690476Y-35222176D02*
X11309523Y-35222176D01*
X10566666Y-35593604D02*
X10999999Y-34293604D01*
X10999999Y-34293604D02*
X11433333Y-35593604D01*
D10*
D11*
X11092857Y-84912652D02*
X11278571Y-84974557D01*
X11278571Y-84974557D02*
X11340476Y-85036461D01*
X11340476Y-85036461D02*
X11402380Y-85160271D01*
X11402380Y-85160271D02*
X11402380Y-85345985D01*
X11402380Y-85345985D02*
X11340476Y-85469795D01*
X11340476Y-85469795D02*
X11278571Y-85531700D01*
X11278571Y-85531700D02*
X11154761Y-85593604D01*
X11154761Y-85593604D02*
X10659523Y-85593604D01*
X10659523Y-85593604D02*
X10659523Y-84293604D01*
X10659523Y-84293604D02*
X11092857Y-84293604D01*
X11092857Y-84293604D02*
X11216666Y-84355509D01*
X11216666Y-84355509D02*
X11278571Y-84417414D01*
X11278571Y-84417414D02*
X11340476Y-84541223D01*
X11340476Y-84541223D02*
X11340476Y-84665033D01*
X11340476Y-84665033D02*
X11278571Y-84788842D01*
X11278571Y-84788842D02*
X11216666Y-84850747D01*
X11216666Y-84850747D02*
X11092857Y-84912652D01*
X11092857Y-84912652D02*
X10659523Y-84912652D01*
D10*
D11*
X11402380Y-135469795D02*
X11340476Y-135531700D01*
X11340476Y-135531700D02*
X11154761Y-135593604D01*
X11154761Y-135593604D02*
X11030952Y-135593604D01*
X11030952Y-135593604D02*
X10845238Y-135531700D01*
X10845238Y-135531700D02*
X10721428Y-135407890D01*
X10721428Y-135407890D02*
X10659523Y-135284080D01*
X10659523Y-135284080D02*
X10597619Y-135036461D01*
X10597619Y-135036461D02*
X10597619Y-134850747D01*
X10597619Y-134850747D02*
X10659523Y-134603128D01*
X10659523Y-134603128D02*
X10721428Y-134479319D01*
X10721428Y-134479319D02*
X10845238Y-134355509D01*
X10845238Y-134355509D02*
X11030952Y-134293604D01*
X11030952Y-134293604D02*
X11154761Y-134293604D01*
X11154761Y-134293604D02*
X11340476Y-134355509D01*
X11340476Y-134355509D02*
X11402380Y-134417414D01*
D10*
D11*
X10659523Y-185593604D02*
X10659523Y-184293604D01*
X10659523Y-184293604D02*
X10969047Y-184293604D01*
X10969047Y-184293604D02*
X11154761Y-184355509D01*
X11154761Y-184355509D02*
X11278571Y-184479319D01*
X11278571Y-184479319D02*
X11340476Y-184603128D01*
X11340476Y-184603128D02*
X11402380Y-184850747D01*
X11402380Y-184850747D02*
X11402380Y-185036461D01*
X11402380Y-185036461D02*
X11340476Y-185284080D01*
X11340476Y-185284080D02*
X11278571Y-185407890D01*
X11278571Y-185407890D02*
X11154761Y-185531700D01*
X11154761Y-185531700D02*
X10969047Y-185593604D01*
X10969047Y-185593604D02*
X10659523Y-185593604D01*
D10*
D11*
X10721428Y-234912652D02*
X11154762Y-234912652D01*
X11340476Y-235593604D02*
X10721428Y-235593604D01*
X10721428Y-235593604D02*
X10721428Y-234293604D01*
X10721428Y-234293604D02*
X11340476Y-234293604D01*
D10*
D11*
X421800000Y-60000000D02*
X419800000Y-60000000D01*
D10*
D11*
X421800000Y-110000000D02*
X419800000Y-110000000D01*
D10*
D11*
X421800000Y-160000000D02*
X419800000Y-160000000D01*
D10*
D11*
X421800000Y-210000000D02*
X419800000Y-210000000D01*
D10*
D11*
X421800000Y-260000000D02*
X419800000Y-260000000D01*
D10*
D11*
X420490476Y-35222176D02*
X421109523Y-35222176D01*
X420366666Y-35593604D02*
X420799999Y-34293604D01*
X420799999Y-34293604D02*
X421233333Y-35593604D01*
D10*
D11*
X420892857Y-84912652D02*
X421078571Y-84974557D01*
X421078571Y-84974557D02*
X421140476Y-85036461D01*
X421140476Y-85036461D02*
X421202380Y-85160271D01*
X421202380Y-85160271D02*
X421202380Y-85345985D01*
X421202380Y-85345985D02*
X421140476Y-85469795D01*
X421140476Y-85469795D02*
X421078571Y-85531700D01*
X421078571Y-85531700D02*
X420954761Y-85593604D01*
X420954761Y-85593604D02*
X420459523Y-85593604D01*
X420459523Y-85593604D02*
X420459523Y-84293604D01*
X420459523Y-84293604D02*
X420892857Y-84293604D01*
X420892857Y-84293604D02*
X421016666Y-84355509D01*
X421016666Y-84355509D02*
X421078571Y-84417414D01*
X421078571Y-84417414D02*
X421140476Y-84541223D01*
X421140476Y-84541223D02*
X421140476Y-84665033D01*
X421140476Y-84665033D02*
X421078571Y-84788842D01*
X421078571Y-84788842D02*
X421016666Y-84850747D01*
X421016666Y-84850747D02*
X420892857Y-84912652D01*
X420892857Y-84912652D02*
X420459523Y-84912652D01*
D10*
D11*
X421202380Y-135469795D02*
X421140476Y-135531700D01*
X421140476Y-135531700D02*
X420954761Y-135593604D01*
X420954761Y-135593604D02*
X420830952Y-135593604D01*
X420830952Y-135593604D02*
X420645238Y-135531700D01*
X420645238Y-135531700D02*
X420521428Y-135407890D01*
X420521428Y-135407890D02*
X420459523Y-135284080D01*
X420459523Y-135284080D02*
X420397619Y-135036461D01*
X420397619Y-135036461D02*
X420397619Y-134850747D01*
X420397619Y-134850747D02*
X420459523Y-134603128D01*
X420459523Y-134603128D02*
X420521428Y-134479319D01*
X420521428Y-134479319D02*
X420645238Y-134355509D01*
X420645238Y-134355509D02*
X420830952Y-134293604D01*
X420830952Y-134293604D02*
X420954761Y-134293604D01*
X420954761Y-134293604D02*
X421140476Y-134355509D01*
X421140476Y-134355509D02*
X421202380Y-134417414D01*
D10*
D11*
X420459523Y-185593604D02*
X420459523Y-184293604D01*
X420459523Y-184293604D02*
X420769047Y-184293604D01*
X420769047Y-184293604D02*
X420954761Y-184355509D01*
X420954761Y-184355509D02*
X421078571Y-184479319D01*
X421078571Y-184479319D02*
X421140476Y-184603128D01*
X421140476Y-184603128D02*
X421202380Y-184850747D01*
X421202380Y-184850747D02*
X421202380Y-185036461D01*
X421202380Y-185036461D02*
X421140476Y-185284080D01*
X421140476Y-185284080D02*
X421078571Y-185407890D01*
X421078571Y-185407890D02*
X420954761Y-185531700D01*
X420954761Y-185531700D02*
X420769047Y-185593604D01*
X420769047Y-185593604D02*
X420459523Y-185593604D01*
D10*
D11*
X420521428Y-234912652D02*
X420954762Y-234912652D01*
X421140476Y-235593604D02*
X420521428Y-235593604D01*
X420521428Y-235593604D02*
X420521428Y-234293604D01*
X420521428Y-234293604D02*
X421140476Y-234293604D01*
D10*
D11*
X335255826Y-263186128D02*
X335255826Y-261686128D01*
X335255826Y-261686128D02*
X335612969Y-261686128D01*
X335612969Y-261686128D02*
X335827255Y-261757557D01*
X335827255Y-261757557D02*
X335970112Y-261900414D01*
X335970112Y-261900414D02*
X336041541Y-262043271D01*
X336041541Y-262043271D02*
X336112969Y-262328985D01*
X336112969Y-262328985D02*
X336112969Y-262543271D01*
X336112969Y-262543271D02*
X336041541Y-262828985D01*
X336041541Y-262828985D02*
X335970112Y-262971842D01*
X335970112Y-262971842D02*
X335827255Y-263114700D01*
X335827255Y-263114700D02*
X335612969Y-263186128D01*
X335612969Y-263186128D02*
X335255826Y-263186128D01*
X337398684Y-263186128D02*
X337398684Y-262400414D01*
X337398684Y-262400414D02*
X337327255Y-262257557D01*
X337327255Y-262257557D02*
X337184398Y-262186128D01*
X337184398Y-262186128D02*
X336898684Y-262186128D01*
X336898684Y-262186128D02*
X336755826Y-262257557D01*
X337398684Y-263114700D02*
X337255826Y-263186128D01*
X337255826Y-263186128D02*
X336898684Y-263186128D01*
X336898684Y-263186128D02*
X336755826Y-263114700D01*
X336755826Y-263114700D02*
X336684398Y-262971842D01*
X336684398Y-262971842D02*
X336684398Y-262828985D01*
X336684398Y-262828985D02*
X336755826Y-262686128D01*
X336755826Y-262686128D02*
X336898684Y-262614700D01*
X336898684Y-262614700D02*
X337255826Y-262614700D01*
X337255826Y-262614700D02*
X337398684Y-262543271D01*
X337898684Y-262186128D02*
X338470112Y-262186128D01*
X338112969Y-261686128D02*
X338112969Y-262971842D01*
X338112969Y-262971842D02*
X338184398Y-263114700D01*
X338184398Y-263114700D02*
X338327255Y-263186128D01*
X338327255Y-263186128D02*
X338470112Y-263186128D01*
X339541541Y-263114700D02*
X339398684Y-263186128D01*
X339398684Y-263186128D02*
X339112970Y-263186128D01*
X339112970Y-263186128D02*
X338970112Y-263114700D01*
X338970112Y-263114700D02*
X338898684Y-262971842D01*
X338898684Y-262971842D02*
X338898684Y-262400414D01*
X338898684Y-262400414D02*
X338970112Y-262257557D01*
X338970112Y-262257557D02*
X339112970Y-262186128D01*
X339112970Y-262186128D02*
X339398684Y-262186128D01*
X339398684Y-262186128D02*
X339541541Y-262257557D01*
X339541541Y-262257557D02*
X339612970Y-262400414D01*
X339612970Y-262400414D02*
X339612970Y-262543271D01*
X339612970Y-262543271D02*
X338898684Y-262686128D01*
X340255826Y-263043271D02*
X340327255Y-263114700D01*
X340327255Y-263114700D02*
X340255826Y-263186128D01*
X340255826Y-263186128D02*
X340184398Y-263114700D01*
X340184398Y-263114700D02*
X340255826Y-263043271D01*
X340255826Y-263043271D02*
X340255826Y-263186128D01*
X340255826Y-262257557D02*
X340327255Y-262328985D01*
X340327255Y-262328985D02*
X340255826Y-262400414D01*
X340255826Y-262400414D02*
X340184398Y-262328985D01*
X340184398Y-262328985D02*
X340255826Y-262257557D01*
X340255826Y-262257557D02*
X340255826Y-262400414D01*
X342041541Y-261828985D02*
X342112969Y-261757557D01*
X342112969Y-261757557D02*
X342255827Y-261686128D01*
X342255827Y-261686128D02*
X342612969Y-261686128D01*
X342612969Y-261686128D02*
X342755827Y-261757557D01*
X342755827Y-261757557D02*
X342827255Y-261828985D01*
X342827255Y-261828985D02*
X342898684Y-261971842D01*
X342898684Y-261971842D02*
X342898684Y-262114700D01*
X342898684Y-262114700D02*
X342827255Y-262328985D01*
X342827255Y-262328985D02*
X341970112Y-263186128D01*
X341970112Y-263186128D02*
X342898684Y-263186128D01*
X343827255Y-261686128D02*
X343970112Y-261686128D01*
X343970112Y-261686128D02*
X344112969Y-261757557D01*
X344112969Y-261757557D02*
X344184398Y-261828985D01*
X344184398Y-261828985D02*
X344255826Y-261971842D01*
X344255826Y-261971842D02*
X344327255Y-262257557D01*
X344327255Y-262257557D02*
X344327255Y-262614700D01*
X344327255Y-262614700D02*
X344255826Y-262900414D01*
X344255826Y-262900414D02*
X344184398Y-263043271D01*
X344184398Y-263043271D02*
X344112969Y-263114700D01*
X344112969Y-263114700D02*
X343970112Y-263186128D01*
X343970112Y-263186128D02*
X343827255Y-263186128D01*
X343827255Y-263186128D02*
X343684398Y-263114700D01*
X343684398Y-263114700D02*
X343612969Y-263043271D01*
X343612969Y-263043271D02*
X343541540Y-262900414D01*
X343541540Y-262900414D02*
X343470112Y-262614700D01*
X343470112Y-262614700D02*
X343470112Y-262257557D01*
X343470112Y-262257557D02*
X343541540Y-261971842D01*
X343541540Y-261971842D02*
X343612969Y-261828985D01*
X343612969Y-261828985D02*
X343684398Y-261757557D01*
X343684398Y-261757557D02*
X343827255Y-261686128D01*
X344898683Y-261828985D02*
X344970111Y-261757557D01*
X344970111Y-261757557D02*
X345112969Y-261686128D01*
X345112969Y-261686128D02*
X345470111Y-261686128D01*
X345470111Y-261686128D02*
X345612969Y-261757557D01*
X345612969Y-261757557D02*
X345684397Y-261828985D01*
X345684397Y-261828985D02*
X345755826Y-261971842D01*
X345755826Y-261971842D02*
X345755826Y-262114700D01*
X345755826Y-262114700D02*
X345684397Y-262328985D01*
X345684397Y-262328985D02*
X344827254Y-263186128D01*
X344827254Y-263186128D02*
X345755826Y-263186128D01*
X347041540Y-262186128D02*
X347041540Y-263186128D01*
X346684397Y-261614700D02*
X346327254Y-262686128D01*
X346327254Y-262686128D02*
X347255825Y-262686128D01*
X347827253Y-262614700D02*
X348970111Y-262614700D01*
X349970111Y-261686128D02*
X350112968Y-261686128D01*
X350112968Y-261686128D02*
X350255825Y-261757557D01*
X350255825Y-261757557D02*
X350327254Y-261828985D01*
X350327254Y-261828985D02*
X350398682Y-261971842D01*
X350398682Y-261971842D02*
X350470111Y-262257557D01*
X350470111Y-262257557D02*
X350470111Y-262614700D01*
X350470111Y-262614700D02*
X350398682Y-262900414D01*
X350398682Y-262900414D02*
X350327254Y-263043271D01*
X350327254Y-263043271D02*
X350255825Y-263114700D01*
X350255825Y-263114700D02*
X350112968Y-263186128D01*
X350112968Y-263186128D02*
X349970111Y-263186128D01*
X349970111Y-263186128D02*
X349827254Y-263114700D01*
X349827254Y-263114700D02*
X349755825Y-263043271D01*
X349755825Y-263043271D02*
X349684396Y-262900414D01*
X349684396Y-262900414D02*
X349612968Y-262614700D01*
X349612968Y-262614700D02*
X349612968Y-262257557D01*
X349612968Y-262257557D02*
X349684396Y-261971842D01*
X349684396Y-261971842D02*
X349755825Y-261828985D01*
X349755825Y-261828985D02*
X349827254Y-261757557D01*
X349827254Y-261757557D02*
X349970111Y-261686128D01*
X351755825Y-261686128D02*
X351470110Y-261686128D01*
X351470110Y-261686128D02*
X351327253Y-261757557D01*
X351327253Y-261757557D02*
X351255825Y-261828985D01*
X351255825Y-261828985D02*
X351112967Y-262043271D01*
X351112967Y-262043271D02*
X351041539Y-262328985D01*
X351041539Y-262328985D02*
X351041539Y-262900414D01*
X351041539Y-262900414D02*
X351112967Y-263043271D01*
X351112967Y-263043271D02*
X351184396Y-263114700D01*
X351184396Y-263114700D02*
X351327253Y-263186128D01*
X351327253Y-263186128D02*
X351612967Y-263186128D01*
X351612967Y-263186128D02*
X351755825Y-263114700D01*
X351755825Y-263114700D02*
X351827253Y-263043271D01*
X351827253Y-263043271D02*
X351898682Y-262900414D01*
X351898682Y-262900414D02*
X351898682Y-262543271D01*
X351898682Y-262543271D02*
X351827253Y-262400414D01*
X351827253Y-262400414D02*
X351755825Y-262328985D01*
X351755825Y-262328985D02*
X351612967Y-262257557D01*
X351612967Y-262257557D02*
X351327253Y-262257557D01*
X351327253Y-262257557D02*
X351184396Y-262328985D01*
X351184396Y-262328985D02*
X351112967Y-262400414D01*
X351112967Y-262400414D02*
X351041539Y-262543271D01*
X352541538Y-262614700D02*
X353684396Y-262614700D01*
X354327253Y-261828985D02*
X354398681Y-261757557D01*
X354398681Y-261757557D02*
X354541539Y-261686128D01*
X354541539Y-261686128D02*
X354898681Y-261686128D01*
X354898681Y-261686128D02*
X355041539Y-261757557D01*
X355041539Y-261757557D02*
X355112967Y-261828985D01*
X355112967Y-261828985D02*
X355184396Y-261971842D01*
X355184396Y-261971842D02*
X355184396Y-262114700D01*
X355184396Y-262114700D02*
X355112967Y-262328985D01*
X355112967Y-262328985D02*
X354255824Y-263186128D01*
X354255824Y-263186128D02*
X355184396Y-263186128D01*
X355755824Y-261828985D02*
X355827252Y-261757557D01*
X355827252Y-261757557D02*
X355970110Y-261686128D01*
X355970110Y-261686128D02*
X356327252Y-261686128D01*
X356327252Y-261686128D02*
X356470110Y-261757557D01*
X356470110Y-261757557D02*
X356541538Y-261828985D01*
X356541538Y-261828985D02*
X356612967Y-261971842D01*
X356612967Y-261971842D02*
X356612967Y-262114700D01*
X356612967Y-262114700D02*
X356541538Y-262328985D01*
X356541538Y-262328985D02*
X355684395Y-263186128D01*
X355684395Y-263186128D02*
X356612967Y-263186128D01*
D10*
D11*
X311800000Y-263900000D02*
X419800000Y-263900000D01*
D10*
D11*
X313255826Y-265986128D02*
X313255826Y-264486128D01*
X314112969Y-265986128D02*
X313470112Y-265128985D01*
X314112969Y-264486128D02*
X313255826Y-265343271D01*
X314755826Y-265986128D02*
X314755826Y-264986128D01*
X314755826Y-264486128D02*
X314684398Y-264557557D01*
X314684398Y-264557557D02*
X314755826Y-264628985D01*
X314755826Y-264628985D02*
X314827255Y-264557557D01*
X314827255Y-264557557D02*
X314755826Y-264486128D01*
X314755826Y-264486128D02*
X314755826Y-264628985D01*
X316327255Y-265843271D02*
X316255827Y-265914700D01*
X316255827Y-265914700D02*
X316041541Y-265986128D01*
X316041541Y-265986128D02*
X315898684Y-265986128D01*
X315898684Y-265986128D02*
X315684398Y-265914700D01*
X315684398Y-265914700D02*
X315541541Y-265771842D01*
X315541541Y-265771842D02*
X315470112Y-265628985D01*
X315470112Y-265628985D02*
X315398684Y-265343271D01*
X315398684Y-265343271D02*
X315398684Y-265128985D01*
X315398684Y-265128985D02*
X315470112Y-264843271D01*
X315470112Y-264843271D02*
X315541541Y-264700414D01*
X315541541Y-264700414D02*
X315684398Y-264557557D01*
X315684398Y-264557557D02*
X315898684Y-264486128D01*
X315898684Y-264486128D02*
X316041541Y-264486128D01*
X316041541Y-264486128D02*
X316255827Y-264557557D01*
X316255827Y-264557557D02*
X316327255Y-264628985D01*
X317612970Y-265986128D02*
X317612970Y-265200414D01*
X317612970Y-265200414D02*
X317541541Y-265057557D01*
X317541541Y-265057557D02*
X317398684Y-264986128D01*
X317398684Y-264986128D02*
X317112970Y-264986128D01*
X317112970Y-264986128D02*
X316970112Y-265057557D01*
X317612970Y-265914700D02*
X317470112Y-265986128D01*
X317470112Y-265986128D02*
X317112970Y-265986128D01*
X317112970Y-265986128D02*
X316970112Y-265914700D01*
X316970112Y-265914700D02*
X316898684Y-265771842D01*
X316898684Y-265771842D02*
X316898684Y-265628985D01*
X316898684Y-265628985D02*
X316970112Y-265486128D01*
X316970112Y-265486128D02*
X317112970Y-265414700D01*
X317112970Y-265414700D02*
X317470112Y-265414700D01*
X317470112Y-265414700D02*
X317612970Y-265343271D01*
X318970113Y-265986128D02*
X318970113Y-264486128D01*
X318970113Y-265914700D02*
X318827255Y-265986128D01*
X318827255Y-265986128D02*
X318541541Y-265986128D01*
X318541541Y-265986128D02*
X318398684Y-265914700D01*
X318398684Y-265914700D02*
X318327255Y-265843271D01*
X318327255Y-265843271D02*
X318255827Y-265700414D01*
X318255827Y-265700414D02*
X318255827Y-265271842D01*
X318255827Y-265271842D02*
X318327255Y-265128985D01*
X318327255Y-265128985D02*
X318398684Y-265057557D01*
X318398684Y-265057557D02*
X318541541Y-264986128D01*
X318541541Y-264986128D02*
X318827255Y-264986128D01*
X318827255Y-264986128D02*
X318970113Y-265057557D01*
X320827255Y-265200414D02*
X321327255Y-265200414D01*
X321541541Y-265986128D02*
X320827255Y-265986128D01*
X320827255Y-265986128D02*
X320827255Y-264486128D01*
X320827255Y-264486128D02*
X321541541Y-264486128D01*
X322184398Y-265843271D02*
X322255827Y-265914700D01*
X322255827Y-265914700D02*
X322184398Y-265986128D01*
X322184398Y-265986128D02*
X322112970Y-265914700D01*
X322112970Y-265914700D02*
X322184398Y-265843271D01*
X322184398Y-265843271D02*
X322184398Y-265986128D01*
X322898684Y-265986128D02*
X322898684Y-264486128D01*
X322898684Y-264486128D02*
X323255827Y-264486128D01*
X323255827Y-264486128D02*
X323470113Y-264557557D01*
X323470113Y-264557557D02*
X323612970Y-264700414D01*
X323612970Y-264700414D02*
X323684399Y-264843271D01*
X323684399Y-264843271D02*
X323755827Y-265128985D01*
X323755827Y-265128985D02*
X323755827Y-265343271D01*
X323755827Y-265343271D02*
X323684399Y-265628985D01*
X323684399Y-265628985D02*
X323612970Y-265771842D01*
X323612970Y-265771842D02*
X323470113Y-265914700D01*
X323470113Y-265914700D02*
X323255827Y-265986128D01*
X323255827Y-265986128D02*
X322898684Y-265986128D01*
X324398684Y-265843271D02*
X324470113Y-265914700D01*
X324470113Y-265914700D02*
X324398684Y-265986128D01*
X324398684Y-265986128D02*
X324327256Y-265914700D01*
X324327256Y-265914700D02*
X324398684Y-265843271D01*
X324398684Y-265843271D02*
X324398684Y-265986128D01*
X325041542Y-265557557D02*
X325755828Y-265557557D01*
X324898685Y-265986128D02*
X325398685Y-264486128D01*
X325398685Y-264486128D02*
X325898685Y-265986128D01*
X326398684Y-265843271D02*
X326470113Y-265914700D01*
X326470113Y-265914700D02*
X326398684Y-265986128D01*
X326398684Y-265986128D02*
X326327256Y-265914700D01*
X326327256Y-265914700D02*
X326398684Y-265843271D01*
X326398684Y-265843271D02*
X326398684Y-265986128D01*
X328470113Y-265128985D02*
X328327256Y-265057557D01*
X328327256Y-265057557D02*
X328255827Y-264986128D01*
X328255827Y-264986128D02*
X328184399Y-264843271D01*
X328184399Y-264843271D02*
X328184399Y-264771842D01*
X328184399Y-264771842D02*
X328255827Y-264628985D01*
X328255827Y-264628985D02*
X328327256Y-264557557D01*
X328327256Y-264557557D02*
X328470113Y-264486128D01*
X328470113Y-264486128D02*
X328755827Y-264486128D01*
X328755827Y-264486128D02*
X328898685Y-264557557D01*
X328898685Y-264557557D02*
X328970113Y-264628985D01*
X328970113Y-264628985D02*
X329041542Y-264771842D01*
X329041542Y-264771842D02*
X329041542Y-264843271D01*
X329041542Y-264843271D02*
X328970113Y-264986128D01*
X328970113Y-264986128D02*
X328898685Y-265057557D01*
X328898685Y-265057557D02*
X328755827Y-265128985D01*
X328755827Y-265128985D02*
X328470113Y-265128985D01*
X328470113Y-265128985D02*
X328327256Y-265200414D01*
X328327256Y-265200414D02*
X328255827Y-265271842D01*
X328255827Y-265271842D02*
X328184399Y-265414700D01*
X328184399Y-265414700D02*
X328184399Y-265700414D01*
X328184399Y-265700414D02*
X328255827Y-265843271D01*
X328255827Y-265843271D02*
X328327256Y-265914700D01*
X328327256Y-265914700D02*
X328470113Y-265986128D01*
X328470113Y-265986128D02*
X328755827Y-265986128D01*
X328755827Y-265986128D02*
X328898685Y-265914700D01*
X328898685Y-265914700D02*
X328970113Y-265843271D01*
X328970113Y-265843271D02*
X329041542Y-265700414D01*
X329041542Y-265700414D02*
X329041542Y-265414700D01*
X329041542Y-265414700D02*
X328970113Y-265271842D01*
X328970113Y-265271842D02*
X328898685Y-265200414D01*
X328898685Y-265200414D02*
X328755827Y-265128985D01*
X329684398Y-265843271D02*
X329755827Y-265914700D01*
X329755827Y-265914700D02*
X329684398Y-265986128D01*
X329684398Y-265986128D02*
X329612970Y-265914700D01*
X329612970Y-265914700D02*
X329684398Y-265843271D01*
X329684398Y-265843271D02*
X329684398Y-265986128D01*
X330684399Y-264486128D02*
X330827256Y-264486128D01*
X330827256Y-264486128D02*
X330970113Y-264557557D01*
X330970113Y-264557557D02*
X331041542Y-264628985D01*
X331041542Y-264628985D02*
X331112970Y-264771842D01*
X331112970Y-264771842D02*
X331184399Y-265057557D01*
X331184399Y-265057557D02*
X331184399Y-265414700D01*
X331184399Y-265414700D02*
X331112970Y-265700414D01*
X331112970Y-265700414D02*
X331041542Y-265843271D01*
X331041542Y-265843271D02*
X330970113Y-265914700D01*
X330970113Y-265914700D02*
X330827256Y-265986128D01*
X330827256Y-265986128D02*
X330684399Y-265986128D01*
X330684399Y-265986128D02*
X330541542Y-265914700D01*
X330541542Y-265914700D02*
X330470113Y-265843271D01*
X330470113Y-265843271D02*
X330398684Y-265700414D01*
X330398684Y-265700414D02*
X330327256Y-265414700D01*
X330327256Y-265414700D02*
X330327256Y-265057557D01*
X330327256Y-265057557D02*
X330398684Y-264771842D01*
X330398684Y-264771842D02*
X330470113Y-264628985D01*
X330470113Y-264628985D02*
X330541542Y-264557557D01*
X330541542Y-264557557D02*
X330684399Y-264486128D01*
X331827255Y-265843271D02*
X331898684Y-265914700D01*
X331898684Y-265914700D02*
X331827255Y-265986128D01*
X331827255Y-265986128D02*
X331755827Y-265914700D01*
X331755827Y-265914700D02*
X331827255Y-265843271D01*
X331827255Y-265843271D02*
X331827255Y-265986128D01*
X332398684Y-264486128D02*
X333327256Y-264486128D01*
X333327256Y-264486128D02*
X332827256Y-265057557D01*
X332827256Y-265057557D02*
X333041541Y-265057557D01*
X333041541Y-265057557D02*
X333184399Y-265128985D01*
X333184399Y-265128985D02*
X333255827Y-265200414D01*
X333255827Y-265200414D02*
X333327256Y-265343271D01*
X333327256Y-265343271D02*
X333327256Y-265700414D01*
X333327256Y-265700414D02*
X333255827Y-265843271D01*
X333255827Y-265843271D02*
X333184399Y-265914700D01*
X333184399Y-265914700D02*
X333041541Y-265986128D01*
X333041541Y-265986128D02*
X332612970Y-265986128D01*
X332612970Y-265986128D02*
X332470113Y-265914700D01*
X332470113Y-265914700D02*
X332398684Y-265843271D01*
D10*
D11*
X311800000Y-260900000D02*
X419800000Y-260900000D01*
D10*
D12*
X399211653Y-263178328D02*
X398711653Y-262464042D01*
X398354510Y-263178328D02*
X398354510Y-261678328D01*
X398354510Y-261678328D02*
X398925939Y-261678328D01*
X398925939Y-261678328D02*
X399068796Y-261749757D01*
X399068796Y-261749757D02*
X399140225Y-261821185D01*
X399140225Y-261821185D02*
X399211653Y-261964042D01*
X399211653Y-261964042D02*
X399211653Y-262178328D01*
X399211653Y-262178328D02*
X399140225Y-262321185D01*
X399140225Y-262321185D02*
X399068796Y-262392614D01*
X399068796Y-262392614D02*
X398925939Y-262464042D01*
X398925939Y-262464042D02*
X398354510Y-262464042D01*
X400425939Y-263106900D02*
X400283082Y-263178328D01*
X400283082Y-263178328D02*
X399997368Y-263178328D01*
X399997368Y-263178328D02*
X399854510Y-263106900D01*
X399854510Y-263106900D02*
X399783082Y-262964042D01*
X399783082Y-262964042D02*
X399783082Y-262392614D01*
X399783082Y-262392614D02*
X399854510Y-262249757D01*
X399854510Y-262249757D02*
X399997368Y-262178328D01*
X399997368Y-262178328D02*
X400283082Y-262178328D01*
X400283082Y-262178328D02*
X400425939Y-262249757D01*
X400425939Y-262249757D02*
X400497368Y-262392614D01*
X400497368Y-262392614D02*
X400497368Y-262535471D01*
X400497368Y-262535471D02*
X399783082Y-262678328D01*
X400997367Y-262178328D02*
X401354510Y-263178328D01*
X401354510Y-263178328D02*
X401711653Y-262178328D01*
X402283081Y-263035471D02*
X402354510Y-263106900D01*
X402354510Y-263106900D02*
X402283081Y-263178328D01*
X402283081Y-263178328D02*
X402211653Y-263106900D01*
X402211653Y-263106900D02*
X402283081Y-263035471D01*
X402283081Y-263035471D02*
X402283081Y-263178328D01*
X402283081Y-262249757D02*
X402354510Y-262321185D01*
X402354510Y-262321185D02*
X402283081Y-262392614D01*
X402283081Y-262392614D02*
X402211653Y-262321185D01*
X402211653Y-262321185D02*
X402283081Y-262249757D01*
X402283081Y-262249757D02*
X402283081Y-262392614D01*
X404140224Y-263178328D02*
X404140224Y-261678328D01*
X404140224Y-261678328D02*
X404497367Y-261678328D01*
X404497367Y-261678328D02*
X404711653Y-261749757D01*
X404711653Y-261749757D02*
X404854510Y-261892614D01*
X404854510Y-261892614D02*
X404925939Y-262035471D01*
X404925939Y-262035471D02*
X404997367Y-262321185D01*
X404997367Y-262321185D02*
X404997367Y-262535471D01*
X404997367Y-262535471D02*
X404925939Y-262821185D01*
X404925939Y-262821185D02*
X404854510Y-262964042D01*
X404854510Y-262964042D02*
X404711653Y-263106900D01*
X404711653Y-263106900D02*
X404497367Y-263178328D01*
X404497367Y-263178328D02*
X404140224Y-263178328D01*
D10*
D11*
X313184398Y-263114700D02*
X313398684Y-263186128D01*
X313398684Y-263186128D02*
X313755826Y-263186128D01*
X313755826Y-263186128D02*
X313898684Y-263114700D01*
X313898684Y-263114700D02*
X313970112Y-263043271D01*
X313970112Y-263043271D02*
X314041541Y-262900414D01*
X314041541Y-262900414D02*
X314041541Y-262757557D01*
X314041541Y-262757557D02*
X313970112Y-262614700D01*
X313970112Y-262614700D02*
X313898684Y-262543271D01*
X313898684Y-262543271D02*
X313755826Y-262471842D01*
X313755826Y-262471842D02*
X313470112Y-262400414D01*
X313470112Y-262400414D02*
X313327255Y-262328985D01*
X313327255Y-262328985D02*
X313255826Y-262257557D01*
X313255826Y-262257557D02*
X313184398Y-262114700D01*
X313184398Y-262114700D02*
X313184398Y-261971842D01*
X313184398Y-261971842D02*
X313255826Y-261828985D01*
X313255826Y-261828985D02*
X313327255Y-261757557D01*
X313327255Y-261757557D02*
X313470112Y-261686128D01*
X313470112Y-261686128D02*
X313827255Y-261686128D01*
X313827255Y-261686128D02*
X314041541Y-261757557D01*
X314684397Y-263186128D02*
X314684397Y-262186128D01*
X314684397Y-261686128D02*
X314612969Y-261757557D01*
X314612969Y-261757557D02*
X314684397Y-261828985D01*
X314684397Y-261828985D02*
X314755826Y-261757557D01*
X314755826Y-261757557D02*
X314684397Y-261686128D01*
X314684397Y-261686128D02*
X314684397Y-261828985D01*
X315255826Y-262186128D02*
X316041541Y-262186128D01*
X316041541Y-262186128D02*
X315255826Y-263186128D01*
X315255826Y-263186128D02*
X316041541Y-263186128D01*
X317184398Y-263114700D02*
X317041541Y-263186128D01*
X317041541Y-263186128D02*
X316755827Y-263186128D01*
X316755827Y-263186128D02*
X316612969Y-263114700D01*
X316612969Y-263114700D02*
X316541541Y-262971842D01*
X316541541Y-262971842D02*
X316541541Y-262400414D01*
X316541541Y-262400414D02*
X316612969Y-262257557D01*
X316612969Y-262257557D02*
X316755827Y-262186128D01*
X316755827Y-262186128D02*
X317041541Y-262186128D01*
X317041541Y-262186128D02*
X317184398Y-262257557D01*
X317184398Y-262257557D02*
X317255827Y-262400414D01*
X317255827Y-262400414D02*
X317255827Y-262543271D01*
X317255827Y-262543271D02*
X316541541Y-262686128D01*
X317898683Y-263043271D02*
X317970112Y-263114700D01*
X317970112Y-263114700D02*
X317898683Y-263186128D01*
X317898683Y-263186128D02*
X317827255Y-263114700D01*
X317827255Y-263114700D02*
X317898683Y-263043271D01*
X317898683Y-263043271D02*
X317898683Y-263186128D01*
X317898683Y-262257557D02*
X317970112Y-262328985D01*
X317970112Y-262328985D02*
X317898683Y-262400414D01*
X317898683Y-262400414D02*
X317827255Y-262328985D01*
X317827255Y-262328985D02*
X317898683Y-262257557D01*
X317898683Y-262257557D02*
X317898683Y-262400414D01*
X320255826Y-262400414D02*
X320470112Y-262471842D01*
X320470112Y-262471842D02*
X320541541Y-262543271D01*
X320541541Y-262543271D02*
X320612969Y-262686128D01*
X320612969Y-262686128D02*
X320612969Y-262900414D01*
X320612969Y-262900414D02*
X320541541Y-263043271D01*
X320541541Y-263043271D02*
X320470112Y-263114700D01*
X320470112Y-263114700D02*
X320327255Y-263186128D01*
X320327255Y-263186128D02*
X319755826Y-263186128D01*
X319755826Y-263186128D02*
X319755826Y-261686128D01*
X319755826Y-261686128D02*
X320255826Y-261686128D01*
X320255826Y-261686128D02*
X320398684Y-261757557D01*
X320398684Y-261757557D02*
X320470112Y-261828985D01*
X320470112Y-261828985D02*
X320541541Y-261971842D01*
X320541541Y-261971842D02*
X320541541Y-262114700D01*
X320541541Y-262114700D02*
X320470112Y-262257557D01*
X320470112Y-262257557D02*
X320398684Y-262328985D01*
X320398684Y-262328985D02*
X320255826Y-262400414D01*
X320255826Y-262400414D02*
X319755826Y-262400414D01*
D10*
D11*
X398255826Y-265986128D02*
X398255826Y-264486128D01*
X399612970Y-265986128D02*
X399612970Y-264486128D01*
X399612970Y-265914700D02*
X399470112Y-265986128D01*
X399470112Y-265986128D02*
X399184398Y-265986128D01*
X399184398Y-265986128D02*
X399041541Y-265914700D01*
X399041541Y-265914700D02*
X398970112Y-265843271D01*
X398970112Y-265843271D02*
X398898684Y-265700414D01*
X398898684Y-265700414D02*
X398898684Y-265271842D01*
X398898684Y-265271842D02*
X398970112Y-265128985D01*
X398970112Y-265128985D02*
X399041541Y-265057557D01*
X399041541Y-265057557D02*
X399184398Y-264986128D01*
X399184398Y-264986128D02*
X399470112Y-264986128D01*
X399470112Y-264986128D02*
X399612970Y-265057557D01*
X400327255Y-265843271D02*
X400398684Y-265914700D01*
X400398684Y-265914700D02*
X400327255Y-265986128D01*
X400327255Y-265986128D02*
X400255827Y-265914700D01*
X400255827Y-265914700D02*
X400327255Y-265843271D01*
X400327255Y-265843271D02*
X400327255Y-265986128D01*
X400327255Y-265057557D02*
X400398684Y-265128985D01*
X400398684Y-265128985D02*
X400327255Y-265200414D01*
X400327255Y-265200414D02*
X400255827Y-265128985D01*
X400255827Y-265128985D02*
X400327255Y-265057557D01*
X400327255Y-265057557D02*
X400327255Y-265200414D01*
X402970113Y-265986128D02*
X402112970Y-265986128D01*
X402541541Y-265986128D02*
X402541541Y-264486128D01*
X402541541Y-264486128D02*
X402398684Y-264700414D01*
X402398684Y-264700414D02*
X402255827Y-264843271D01*
X402255827Y-264843271D02*
X402112970Y-264914700D01*
X404684398Y-264414700D02*
X403398684Y-266343271D01*
X405970113Y-265986128D02*
X405112970Y-265986128D01*
X405541541Y-265986128D02*
X405541541Y-264486128D01*
X405541541Y-264486128D02*
X405398684Y-264700414D01*
X405398684Y-264700414D02*
X405255827Y-264843271D01*
X405255827Y-264843271D02*
X405112970Y-264914700D01*
D10*
D11*
X311800000Y-256900000D02*
X419800000Y-256900000D01*
D10*
D13*
X313491728Y-257604438D02*
X314634585Y-257604438D01*
X313813157Y-259604438D02*
X314063157Y-257604438D01*
X315051252Y-259604438D02*
X315217919Y-258271104D01*
X315301252Y-257604438D02*
X315194109Y-257699676D01*
X315194109Y-257699676D02*
X315277443Y-257794914D01*
X315277443Y-257794914D02*
X315384586Y-257699676D01*
X315384586Y-257699676D02*
X315301252Y-257604438D01*
X315301252Y-257604438D02*
X315277443Y-257794914D01*
X315884586Y-258271104D02*
X316646490Y-258271104D01*
X316253633Y-257604438D02*
X316039348Y-259318723D01*
X316039348Y-259318723D02*
X316110776Y-259509200D01*
X316110776Y-259509200D02*
X316289348Y-259604438D01*
X316289348Y-259604438D02*
X316479824Y-259604438D01*
X317432205Y-259604438D02*
X317253633Y-259509200D01*
X317253633Y-259509200D02*
X317182205Y-259318723D01*
X317182205Y-259318723D02*
X317396490Y-257604438D01*
X318967919Y-259509200D02*
X318765538Y-259604438D01*
X318765538Y-259604438D02*
X318384585Y-259604438D01*
X318384585Y-259604438D02*
X318206014Y-259509200D01*
X318206014Y-259509200D02*
X318134585Y-259318723D01*
X318134585Y-259318723D02*
X318229824Y-258556819D01*
X318229824Y-258556819D02*
X318348871Y-258366342D01*
X318348871Y-258366342D02*
X318551252Y-258271104D01*
X318551252Y-258271104D02*
X318932204Y-258271104D01*
X318932204Y-258271104D02*
X319110776Y-258366342D01*
X319110776Y-258366342D02*
X319182204Y-258556819D01*
X319182204Y-258556819D02*
X319158395Y-258747295D01*
X319158395Y-258747295D02*
X318182204Y-258937771D01*
X319932205Y-259413961D02*
X320015538Y-259509200D01*
X320015538Y-259509200D02*
X319908395Y-259604438D01*
X319908395Y-259604438D02*
X319825062Y-259509200D01*
X319825062Y-259509200D02*
X319932205Y-259413961D01*
X319932205Y-259413961D02*
X319908395Y-259604438D01*
X320063157Y-258366342D02*
X320146490Y-258461580D01*
X320146490Y-258461580D02*
X320039348Y-258556819D01*
X320039348Y-258556819D02*
X319956014Y-258461580D01*
X319956014Y-258461580D02*
X320063157Y-258366342D01*
X320063157Y-258366342D02*
X320039348Y-258556819D01*
X322360777Y-259033009D02*
X323313158Y-259033009D01*
X322098872Y-259604438D02*
X323015539Y-257604438D01*
X323015539Y-257604438D02*
X323432205Y-259604438D01*
X324098872Y-259604438D02*
X324348872Y-257604438D01*
X324348872Y-257604438D02*
X324825063Y-257604438D01*
X324825063Y-257604438D02*
X325098872Y-257699676D01*
X325098872Y-257699676D02*
X325265539Y-257890152D01*
X325265539Y-257890152D02*
X325336967Y-258080628D01*
X325336967Y-258080628D02*
X325384587Y-258461580D01*
X325384587Y-258461580D02*
X325348872Y-258747295D01*
X325348872Y-258747295D02*
X325206015Y-259128247D01*
X325206015Y-259128247D02*
X325086967Y-259318723D01*
X325086967Y-259318723D02*
X324872682Y-259509200D01*
X324872682Y-259509200D02*
X324575063Y-259604438D01*
X324575063Y-259604438D02*
X324098872Y-259604438D01*
X326015539Y-259509200D02*
X326289348Y-259604438D01*
X326289348Y-259604438D02*
X326765539Y-259604438D01*
X326765539Y-259604438D02*
X326967920Y-259509200D01*
X326967920Y-259509200D02*
X327075063Y-259413961D01*
X327075063Y-259413961D02*
X327194110Y-259223485D01*
X327194110Y-259223485D02*
X327217920Y-259033009D01*
X327217920Y-259033009D02*
X327146491Y-258842533D01*
X327146491Y-258842533D02*
X327063158Y-258747295D01*
X327063158Y-258747295D02*
X326884587Y-258652057D01*
X326884587Y-258652057D02*
X326515539Y-258556819D01*
X326515539Y-258556819D02*
X326336967Y-258461580D01*
X326336967Y-258461580D02*
X326253634Y-258366342D01*
X326253634Y-258366342D02*
X326182206Y-258175866D01*
X326182206Y-258175866D02*
X326206015Y-257985390D01*
X326206015Y-257985390D02*
X326325063Y-257794914D01*
X326325063Y-257794914D02*
X326432206Y-257699676D01*
X326432206Y-257699676D02*
X326634587Y-257604438D01*
X326634587Y-257604438D02*
X327110777Y-257604438D01*
X327110777Y-257604438D02*
X327384587Y-257699676D01*
X328801253Y-258556819D02*
X329075063Y-258652057D01*
X329075063Y-258652057D02*
X329158396Y-258747295D01*
X329158396Y-258747295D02*
X329229825Y-258937771D01*
X329229825Y-258937771D02*
X329194110Y-259223485D01*
X329194110Y-259223485D02*
X329075063Y-259413961D01*
X329075063Y-259413961D02*
X328967920Y-259509200D01*
X328967920Y-259509200D02*
X328765539Y-259604438D01*
X328765539Y-259604438D02*
X328003634Y-259604438D01*
X328003634Y-259604438D02*
X328253634Y-257604438D01*
X328253634Y-257604438D02*
X328920301Y-257604438D01*
X328920301Y-257604438D02*
X329098872Y-257699676D01*
X329098872Y-257699676D02*
X329182206Y-257794914D01*
X329182206Y-257794914D02*
X329253634Y-257985390D01*
X329253634Y-257985390D02*
X329229825Y-258175866D01*
X329229825Y-258175866D02*
X329110777Y-258366342D01*
X329110777Y-258366342D02*
X329003634Y-258461580D01*
X329003634Y-258461580D02*
X328801253Y-258556819D01*
X328801253Y-258556819D02*
X328134587Y-258556819D01*
X330777444Y-259509200D02*
X330575063Y-259604438D01*
X330575063Y-259604438D02*
X330194110Y-259604438D01*
X330194110Y-259604438D02*
X330015539Y-259509200D01*
X330015539Y-259509200D02*
X329944110Y-259318723D01*
X329944110Y-259318723D02*
X330039349Y-258556819D01*
X330039349Y-258556819D02*
X330158396Y-258366342D01*
X330158396Y-258366342D02*
X330360777Y-258271104D01*
X330360777Y-258271104D02*
X330741729Y-258271104D01*
X330741729Y-258271104D02*
X330920301Y-258366342D01*
X330920301Y-258366342D02*
X330991729Y-258556819D01*
X330991729Y-258556819D02*
X330967920Y-258747295D01*
X330967920Y-258747295D02*
X329991729Y-258937771D01*
X332491730Y-259509200D02*
X332289349Y-259604438D01*
X332289349Y-259604438D02*
X331908396Y-259604438D01*
X331908396Y-259604438D02*
X331729825Y-259509200D01*
X331729825Y-259509200D02*
X331658396Y-259318723D01*
X331658396Y-259318723D02*
X331753635Y-258556819D01*
X331753635Y-258556819D02*
X331872682Y-258366342D01*
X331872682Y-258366342D02*
X332075063Y-258271104D01*
X332075063Y-258271104D02*
X332456015Y-258271104D01*
X332456015Y-258271104D02*
X332634587Y-258366342D01*
X332634587Y-258366342D02*
X332706015Y-258556819D01*
X332706015Y-258556819D02*
X332682206Y-258747295D01*
X332682206Y-258747295D02*
X331706015Y-258937771D01*
X336003635Y-259604438D02*
X334860778Y-259604438D01*
X335432207Y-259604438D02*
X335682207Y-257604438D01*
X335682207Y-257604438D02*
X335456016Y-257890152D01*
X335456016Y-257890152D02*
X335241731Y-258080628D01*
X335241731Y-258080628D02*
X335039350Y-258175866D01*
X337491731Y-257604438D02*
X337682207Y-257604438D01*
X337682207Y-257604438D02*
X337860778Y-257699676D01*
X337860778Y-257699676D02*
X337944112Y-257794914D01*
X337944112Y-257794914D02*
X338015540Y-257985390D01*
X338015540Y-257985390D02*
X338063159Y-258366342D01*
X338063159Y-258366342D02*
X338003635Y-258842533D01*
X338003635Y-258842533D02*
X337860778Y-259223485D01*
X337860778Y-259223485D02*
X337741731Y-259413961D01*
X337741731Y-259413961D02*
X337634588Y-259509200D01*
X337634588Y-259509200D02*
X337432207Y-259604438D01*
X337432207Y-259604438D02*
X337241731Y-259604438D01*
X337241731Y-259604438D02*
X337063159Y-259509200D01*
X337063159Y-259509200D02*
X336979826Y-259413961D01*
X336979826Y-259413961D02*
X336908397Y-259223485D01*
X336908397Y-259223485D02*
X336860778Y-258842533D01*
X336860778Y-258842533D02*
X336920302Y-258366342D01*
X336920302Y-258366342D02*
X337063159Y-257985390D01*
X337063159Y-257985390D02*
X337182207Y-257794914D01*
X337182207Y-257794914D02*
X337289350Y-257699676D01*
X337289350Y-257699676D02*
X337491731Y-257604438D01*
X338860778Y-259604438D02*
X339241731Y-259604438D01*
X339241731Y-259604438D02*
X339444112Y-259509200D01*
X339444112Y-259509200D02*
X339551255Y-259413961D01*
X339551255Y-259413961D02*
X339777445Y-259128247D01*
X339777445Y-259128247D02*
X339920302Y-258747295D01*
X339920302Y-258747295D02*
X340015540Y-257985390D01*
X340015540Y-257985390D02*
X339944112Y-257794914D01*
X339944112Y-257794914D02*
X339860778Y-257699676D01*
X339860778Y-257699676D02*
X339682207Y-257604438D01*
X339682207Y-257604438D02*
X339301255Y-257604438D01*
X339301255Y-257604438D02*
X339098874Y-257699676D01*
X339098874Y-257699676D02*
X338991731Y-257794914D01*
X338991731Y-257794914D02*
X338872683Y-257985390D01*
X338872683Y-257985390D02*
X338813159Y-258461580D01*
X338813159Y-258461580D02*
X338884588Y-258652057D01*
X338884588Y-258652057D02*
X338967921Y-258747295D01*
X338967921Y-258747295D02*
X339146493Y-258842533D01*
X339146493Y-258842533D02*
X339527445Y-258842533D01*
X339527445Y-258842533D02*
X339729826Y-258747295D01*
X339729826Y-258747295D02*
X339836969Y-258652057D01*
X339836969Y-258652057D02*
X339956016Y-258461580D01*
X341301255Y-257604438D02*
X341491731Y-257604438D01*
X341491731Y-257604438D02*
X341670302Y-257699676D01*
X341670302Y-257699676D02*
X341753636Y-257794914D01*
X341753636Y-257794914D02*
X341825064Y-257985390D01*
X341825064Y-257985390D02*
X341872683Y-258366342D01*
X341872683Y-258366342D02*
X341813159Y-258842533D01*
X341813159Y-258842533D02*
X341670302Y-259223485D01*
X341670302Y-259223485D02*
X341551255Y-259413961D01*
X341551255Y-259413961D02*
X341444112Y-259509200D01*
X341444112Y-259509200D02*
X341241731Y-259604438D01*
X341241731Y-259604438D02*
X341051255Y-259604438D01*
X341051255Y-259604438D02*
X340872683Y-259509200D01*
X340872683Y-259509200D02*
X340789350Y-259413961D01*
X340789350Y-259413961D02*
X340717921Y-259223485D01*
X340717921Y-259223485D02*
X340670302Y-258842533D01*
X340670302Y-258842533D02*
X340729826Y-258366342D01*
X340729826Y-258366342D02*
X340872683Y-257985390D01*
X340872683Y-257985390D02*
X340991731Y-257794914D01*
X340991731Y-257794914D02*
X341098874Y-257699676D01*
X341098874Y-257699676D02*
X341301255Y-257604438D01*
D10*
D11*
X313755826Y-255000414D02*
X313255826Y-255000414D01*
X313255826Y-255786128D02*
X313255826Y-254286128D01*
X313255826Y-254286128D02*
X313970112Y-254286128D01*
X314541540Y-255786128D02*
X314541540Y-254786128D01*
X314541540Y-254286128D02*
X314470112Y-254357557D01*
X314470112Y-254357557D02*
X314541540Y-254428985D01*
X314541540Y-254428985D02*
X314612969Y-254357557D01*
X314612969Y-254357557D02*
X314541540Y-254286128D01*
X314541540Y-254286128D02*
X314541540Y-254428985D01*
X315470112Y-255786128D02*
X315327255Y-255714700D01*
X315327255Y-255714700D02*
X315255826Y-255571842D01*
X315255826Y-255571842D02*
X315255826Y-254286128D01*
X316612969Y-255714700D02*
X316470112Y-255786128D01*
X316470112Y-255786128D02*
X316184398Y-255786128D01*
X316184398Y-255786128D02*
X316041540Y-255714700D01*
X316041540Y-255714700D02*
X315970112Y-255571842D01*
X315970112Y-255571842D02*
X315970112Y-255000414D01*
X315970112Y-255000414D02*
X316041540Y-254857557D01*
X316041540Y-254857557D02*
X316184398Y-254786128D01*
X316184398Y-254786128D02*
X316470112Y-254786128D01*
X316470112Y-254786128D02*
X316612969Y-254857557D01*
X316612969Y-254857557D02*
X316684398Y-255000414D01*
X316684398Y-255000414D02*
X316684398Y-255143271D01*
X316684398Y-255143271D02*
X315970112Y-255286128D01*
X317327254Y-255643271D02*
X317398683Y-255714700D01*
X317398683Y-255714700D02*
X317327254Y-255786128D01*
X317327254Y-255786128D02*
X317255826Y-255714700D01*
X317255826Y-255714700D02*
X317327254Y-255643271D01*
X317327254Y-255643271D02*
X317327254Y-255786128D01*
X317327254Y-254857557D02*
X317398683Y-254928985D01*
X317398683Y-254928985D02*
X317327254Y-255000414D01*
X317327254Y-255000414D02*
X317255826Y-254928985D01*
X317255826Y-254928985D02*
X317327254Y-254857557D01*
X317327254Y-254857557D02*
X317327254Y-255000414D01*
X319827255Y-255786128D02*
X319827255Y-255000414D01*
X319827255Y-255000414D02*
X319755826Y-254857557D01*
X319755826Y-254857557D02*
X319612969Y-254786128D01*
X319612969Y-254786128D02*
X319327255Y-254786128D01*
X319327255Y-254786128D02*
X319184397Y-254857557D01*
X319827255Y-255714700D02*
X319684397Y-255786128D01*
X319684397Y-255786128D02*
X319327255Y-255786128D01*
X319327255Y-255786128D02*
X319184397Y-255714700D01*
X319184397Y-255714700D02*
X319112969Y-255571842D01*
X319112969Y-255571842D02*
X319112969Y-255428985D01*
X319112969Y-255428985D02*
X319184397Y-255286128D01*
X319184397Y-255286128D02*
X319327255Y-255214700D01*
X319327255Y-255214700D02*
X319684397Y-255214700D01*
X319684397Y-255214700D02*
X319827255Y-255143271D01*
X321184398Y-255786128D02*
X321184398Y-254286128D01*
X321184398Y-255714700D02*
X321041540Y-255786128D01*
X321041540Y-255786128D02*
X320755826Y-255786128D01*
X320755826Y-255786128D02*
X320612969Y-255714700D01*
X320612969Y-255714700D02*
X320541540Y-255643271D01*
X320541540Y-255643271D02*
X320470112Y-255500414D01*
X320470112Y-255500414D02*
X320470112Y-255071842D01*
X320470112Y-255071842D02*
X320541540Y-254928985D01*
X320541540Y-254928985D02*
X320612969Y-254857557D01*
X320612969Y-254857557D02*
X320755826Y-254786128D01*
X320755826Y-254786128D02*
X321041540Y-254786128D01*
X321041540Y-254786128D02*
X321184398Y-254857557D01*
X321827255Y-255714700D02*
X321970112Y-255786128D01*
X321970112Y-255786128D02*
X322255826Y-255786128D01*
X322255826Y-255786128D02*
X322398683Y-255714700D01*
X322398683Y-255714700D02*
X322470112Y-255571842D01*
X322470112Y-255571842D02*
X322470112Y-255500414D01*
X322470112Y-255500414D02*
X322398683Y-255357557D01*
X322398683Y-255357557D02*
X322255826Y-255286128D01*
X322255826Y-255286128D02*
X322041541Y-255286128D01*
X322041541Y-255286128D02*
X321898683Y-255214700D01*
X321898683Y-255214700D02*
X321827255Y-255071842D01*
X321827255Y-255071842D02*
X321827255Y-255000414D01*
X321827255Y-255000414D02*
X321898683Y-254857557D01*
X321898683Y-254857557D02*
X322041541Y-254786128D01*
X322041541Y-254786128D02*
X322255826Y-254786128D01*
X322255826Y-254786128D02*
X322398683Y-254857557D01*
X323112969Y-255786128D02*
X323112969Y-254286128D01*
X323112969Y-254857557D02*
X323255827Y-254786128D01*
X323255827Y-254786128D02*
X323541541Y-254786128D01*
X323541541Y-254786128D02*
X323684398Y-254857557D01*
X323684398Y-254857557D02*
X323755827Y-254928985D01*
X323755827Y-254928985D02*
X323827255Y-255071842D01*
X323827255Y-255071842D02*
X323827255Y-255500414D01*
X323827255Y-255500414D02*
X323755827Y-255643271D01*
X323755827Y-255643271D02*
X323684398Y-255714700D01*
X323684398Y-255714700D02*
X323541541Y-255786128D01*
X323541541Y-255786128D02*
X323255827Y-255786128D01*
X323255827Y-255786128D02*
X323112969Y-255714700D01*
X325041541Y-255714700D02*
X324898684Y-255786128D01*
X324898684Y-255786128D02*
X324612970Y-255786128D01*
X324612970Y-255786128D02*
X324470112Y-255714700D01*
X324470112Y-255714700D02*
X324398684Y-255571842D01*
X324398684Y-255571842D02*
X324398684Y-255000414D01*
X324398684Y-255000414D02*
X324470112Y-254857557D01*
X324470112Y-254857557D02*
X324612970Y-254786128D01*
X324612970Y-254786128D02*
X324898684Y-254786128D01*
X324898684Y-254786128D02*
X325041541Y-254857557D01*
X325041541Y-254857557D02*
X325112970Y-255000414D01*
X325112970Y-255000414D02*
X325112970Y-255143271D01*
X325112970Y-255143271D02*
X324398684Y-255286128D01*
X326327255Y-255714700D02*
X326184398Y-255786128D01*
X326184398Y-255786128D02*
X325898684Y-255786128D01*
X325898684Y-255786128D02*
X325755826Y-255714700D01*
X325755826Y-255714700D02*
X325684398Y-255571842D01*
X325684398Y-255571842D02*
X325684398Y-255000414D01*
X325684398Y-255000414D02*
X325755826Y-254857557D01*
X325755826Y-254857557D02*
X325898684Y-254786128D01*
X325898684Y-254786128D02*
X326184398Y-254786128D01*
X326184398Y-254786128D02*
X326327255Y-254857557D01*
X326327255Y-254857557D02*
X326398684Y-255000414D01*
X326398684Y-255000414D02*
X326398684Y-255143271D01*
X326398684Y-255143271D02*
X325684398Y-255286128D01*
X326684398Y-255928985D02*
X327827255Y-255928985D01*
X328970112Y-255786128D02*
X328112969Y-255786128D01*
X328541540Y-255786128D02*
X328541540Y-254286128D01*
X328541540Y-254286128D02*
X328398683Y-254500414D01*
X328398683Y-254500414D02*
X328255826Y-254643271D01*
X328255826Y-254643271D02*
X328112969Y-254714700D01*
X329898683Y-254286128D02*
X330041540Y-254286128D01*
X330041540Y-254286128D02*
X330184397Y-254357557D01*
X330184397Y-254357557D02*
X330255826Y-254428985D01*
X330255826Y-254428985D02*
X330327254Y-254571842D01*
X330327254Y-254571842D02*
X330398683Y-254857557D01*
X330398683Y-254857557D02*
X330398683Y-255214700D01*
X330398683Y-255214700D02*
X330327254Y-255500414D01*
X330327254Y-255500414D02*
X330255826Y-255643271D01*
X330255826Y-255643271D02*
X330184397Y-255714700D01*
X330184397Y-255714700D02*
X330041540Y-255786128D01*
X330041540Y-255786128D02*
X329898683Y-255786128D01*
X329898683Y-255786128D02*
X329755826Y-255714700D01*
X329755826Y-255714700D02*
X329684397Y-255643271D01*
X329684397Y-255643271D02*
X329612968Y-255500414D01*
X329612968Y-255500414D02*
X329541540Y-255214700D01*
X329541540Y-255214700D02*
X329541540Y-254857557D01*
X329541540Y-254857557D02*
X329612968Y-254571842D01*
X329612968Y-254571842D02*
X329684397Y-254428985D01*
X329684397Y-254428985D02*
X329755826Y-254357557D01*
X329755826Y-254357557D02*
X329898683Y-254286128D01*
X331112968Y-255786128D02*
X331398682Y-255786128D01*
X331398682Y-255786128D02*
X331541539Y-255714700D01*
X331541539Y-255714700D02*
X331612968Y-255643271D01*
X331612968Y-255643271D02*
X331755825Y-255428985D01*
X331755825Y-255428985D02*
X331827254Y-255143271D01*
X331827254Y-255143271D02*
X331827254Y-254571842D01*
X331827254Y-254571842D02*
X331755825Y-254428985D01*
X331755825Y-254428985D02*
X331684397Y-254357557D01*
X331684397Y-254357557D02*
X331541539Y-254286128D01*
X331541539Y-254286128D02*
X331255825Y-254286128D01*
X331255825Y-254286128D02*
X331112968Y-254357557D01*
X331112968Y-254357557D02*
X331041539Y-254428985D01*
X331041539Y-254428985D02*
X330970111Y-254571842D01*
X330970111Y-254571842D02*
X330970111Y-254928985D01*
X330970111Y-254928985D02*
X331041539Y-255071842D01*
X331041539Y-255071842D02*
X331112968Y-255143271D01*
X331112968Y-255143271D02*
X331255825Y-255214700D01*
X331255825Y-255214700D02*
X331541539Y-255214700D01*
X331541539Y-255214700D02*
X331684397Y-255143271D01*
X331684397Y-255143271D02*
X331755825Y-255071842D01*
X331755825Y-255071842D02*
X331827254Y-254928985D01*
X332755825Y-254286128D02*
X332898682Y-254286128D01*
X332898682Y-254286128D02*
X333041539Y-254357557D01*
X333041539Y-254357557D02*
X333112968Y-254428985D01*
X333112968Y-254428985D02*
X333184396Y-254571842D01*
X333184396Y-254571842D02*
X333255825Y-254857557D01*
X333255825Y-254857557D02*
X333255825Y-255214700D01*
X333255825Y-255214700D02*
X333184396Y-255500414D01*
X333184396Y-255500414D02*
X333112968Y-255643271D01*
X333112968Y-255643271D02*
X333041539Y-255714700D01*
X333041539Y-255714700D02*
X332898682Y-255786128D01*
X332898682Y-255786128D02*
X332755825Y-255786128D01*
X332755825Y-255786128D02*
X332612968Y-255714700D01*
X332612968Y-255714700D02*
X332541539Y-255643271D01*
X332541539Y-255643271D02*
X332470110Y-255500414D01*
X332470110Y-255500414D02*
X332398682Y-255214700D01*
X332398682Y-255214700D02*
X332398682Y-254857557D01*
X332398682Y-254857557D02*
X332470110Y-254571842D01*
X332470110Y-254571842D02*
X332541539Y-254428985D01*
X332541539Y-254428985D02*
X332612968Y-254357557D01*
X332612968Y-254357557D02*
X332755825Y-254286128D01*
X333898681Y-255643271D02*
X333970110Y-255714700D01*
X333970110Y-255714700D02*
X333898681Y-255786128D01*
X333898681Y-255786128D02*
X333827253Y-255714700D01*
X333827253Y-255714700D02*
X333898681Y-255643271D01*
X333898681Y-255643271D02*
X333898681Y-255786128D01*
X334612967Y-255786128D02*
X334612967Y-254286128D01*
X334755825Y-255214700D02*
X335184396Y-255786128D01*
X335184396Y-254786128D02*
X334612967Y-255357557D01*
X335827253Y-255786128D02*
X335827253Y-254786128D01*
X335827253Y-254286128D02*
X335755825Y-254357557D01*
X335755825Y-254357557D02*
X335827253Y-254428985D01*
X335827253Y-254428985D02*
X335898682Y-254357557D01*
X335898682Y-254357557D02*
X335827253Y-254286128D01*
X335827253Y-254286128D02*
X335827253Y-254428985D01*
X337184397Y-255714700D02*
X337041539Y-255786128D01*
X337041539Y-255786128D02*
X336755825Y-255786128D01*
X336755825Y-255786128D02*
X336612968Y-255714700D01*
X336612968Y-255714700D02*
X336541539Y-255643271D01*
X336541539Y-255643271D02*
X336470111Y-255500414D01*
X336470111Y-255500414D02*
X336470111Y-255071842D01*
X336470111Y-255071842D02*
X336541539Y-254928985D01*
X336541539Y-254928985D02*
X336612968Y-254857557D01*
X336612968Y-254857557D02*
X336755825Y-254786128D01*
X336755825Y-254786128D02*
X337041539Y-254786128D01*
X337041539Y-254786128D02*
X337184397Y-254857557D01*
X338470111Y-255786128D02*
X338470111Y-255000414D01*
X338470111Y-255000414D02*
X338398682Y-254857557D01*
X338398682Y-254857557D02*
X338255825Y-254786128D01*
X338255825Y-254786128D02*
X337970111Y-254786128D01*
X337970111Y-254786128D02*
X337827253Y-254857557D01*
X338470111Y-255714700D02*
X338327253Y-255786128D01*
X338327253Y-255786128D02*
X337970111Y-255786128D01*
X337970111Y-255786128D02*
X337827253Y-255714700D01*
X337827253Y-255714700D02*
X337755825Y-255571842D01*
X337755825Y-255571842D02*
X337755825Y-255428985D01*
X337755825Y-255428985D02*
X337827253Y-255286128D01*
X337827253Y-255286128D02*
X337970111Y-255214700D01*
X337970111Y-255214700D02*
X338327253Y-255214700D01*
X338327253Y-255214700D02*
X338470111Y-255143271D01*
X339827254Y-255786128D02*
X339827254Y-254286128D01*
X339827254Y-255714700D02*
X339684396Y-255786128D01*
X339684396Y-255786128D02*
X339398682Y-255786128D01*
X339398682Y-255786128D02*
X339255825Y-255714700D01*
X339255825Y-255714700D02*
X339184396Y-255643271D01*
X339184396Y-255643271D02*
X339112968Y-255500414D01*
X339112968Y-255500414D02*
X339112968Y-255071842D01*
X339112968Y-255071842D02*
X339184396Y-254928985D01*
X339184396Y-254928985D02*
X339255825Y-254857557D01*
X339255825Y-254857557D02*
X339398682Y-254786128D01*
X339398682Y-254786128D02*
X339684396Y-254786128D01*
X339684396Y-254786128D02*
X339827254Y-254857557D01*
X340184397Y-255928985D02*
X341327254Y-255928985D01*
X341684396Y-254786128D02*
X341684396Y-256286128D01*
X341684396Y-254857557D02*
X341827254Y-254786128D01*
X341827254Y-254786128D02*
X342112968Y-254786128D01*
X342112968Y-254786128D02*
X342255825Y-254857557D01*
X342255825Y-254857557D02*
X342327254Y-254928985D01*
X342327254Y-254928985D02*
X342398682Y-255071842D01*
X342398682Y-255071842D02*
X342398682Y-255500414D01*
X342398682Y-255500414D02*
X342327254Y-255643271D01*
X342327254Y-255643271D02*
X342255825Y-255714700D01*
X342255825Y-255714700D02*
X342112968Y-255786128D01*
X342112968Y-255786128D02*
X341827254Y-255786128D01*
X341827254Y-255786128D02*
X341684396Y-255714700D01*
X343684397Y-255714700D02*
X343541539Y-255786128D01*
X343541539Y-255786128D02*
X343255825Y-255786128D01*
X343255825Y-255786128D02*
X343112968Y-255714700D01*
X343112968Y-255714700D02*
X343041539Y-255643271D01*
X343041539Y-255643271D02*
X342970111Y-255500414D01*
X342970111Y-255500414D02*
X342970111Y-255071842D01*
X342970111Y-255071842D02*
X343041539Y-254928985D01*
X343041539Y-254928985D02*
X343112968Y-254857557D01*
X343112968Y-254857557D02*
X343255825Y-254786128D01*
X343255825Y-254786128D02*
X343541539Y-254786128D01*
X343541539Y-254786128D02*
X343684397Y-254857557D01*
X344327253Y-255786128D02*
X344327253Y-254286128D01*
X344327253Y-254857557D02*
X344470111Y-254786128D01*
X344470111Y-254786128D02*
X344755825Y-254786128D01*
X344755825Y-254786128D02*
X344898682Y-254857557D01*
X344898682Y-254857557D02*
X344970111Y-254928985D01*
X344970111Y-254928985D02*
X345041539Y-255071842D01*
X345041539Y-255071842D02*
X345041539Y-255500414D01*
X345041539Y-255500414D02*
X344970111Y-255643271D01*
X344970111Y-255643271D02*
X344898682Y-255714700D01*
X344898682Y-255714700D02*
X344755825Y-255786128D01*
X344755825Y-255786128D02*
X344470111Y-255786128D01*
X344470111Y-255786128D02*
X344327253Y-255714700D01*
D10*
D11*
X311800000Y-250900000D02*
X419800000Y-250900000D01*
D10*
D11*
X313184398Y-253014700D02*
X313398684Y-253086128D01*
X313398684Y-253086128D02*
X313755826Y-253086128D01*
X313755826Y-253086128D02*
X313898684Y-253014700D01*
X313898684Y-253014700D02*
X313970112Y-252943271D01*
X313970112Y-252943271D02*
X314041541Y-252800414D01*
X314041541Y-252800414D02*
X314041541Y-252657557D01*
X314041541Y-252657557D02*
X313970112Y-252514700D01*
X313970112Y-252514700D02*
X313898684Y-252443271D01*
X313898684Y-252443271D02*
X313755826Y-252371842D01*
X313755826Y-252371842D02*
X313470112Y-252300414D01*
X313470112Y-252300414D02*
X313327255Y-252228985D01*
X313327255Y-252228985D02*
X313255826Y-252157557D01*
X313255826Y-252157557D02*
X313184398Y-252014700D01*
X313184398Y-252014700D02*
X313184398Y-251871842D01*
X313184398Y-251871842D02*
X313255826Y-251728985D01*
X313255826Y-251728985D02*
X313327255Y-251657557D01*
X313327255Y-251657557D02*
X313470112Y-251586128D01*
X313470112Y-251586128D02*
X313827255Y-251586128D01*
X313827255Y-251586128D02*
X314041541Y-251657557D01*
X314684397Y-253086128D02*
X314684397Y-251586128D01*
X315327255Y-253086128D02*
X315327255Y-252300414D01*
X315327255Y-252300414D02*
X315255826Y-252157557D01*
X315255826Y-252157557D02*
X315112969Y-252086128D01*
X315112969Y-252086128D02*
X314898683Y-252086128D01*
X314898683Y-252086128D02*
X314755826Y-252157557D01*
X314755826Y-252157557D02*
X314684397Y-252228985D01*
X316612969Y-253014700D02*
X316470112Y-253086128D01*
X316470112Y-253086128D02*
X316184398Y-253086128D01*
X316184398Y-253086128D02*
X316041540Y-253014700D01*
X316041540Y-253014700D02*
X315970112Y-252871842D01*
X315970112Y-252871842D02*
X315970112Y-252300414D01*
X315970112Y-252300414D02*
X316041540Y-252157557D01*
X316041540Y-252157557D02*
X316184398Y-252086128D01*
X316184398Y-252086128D02*
X316470112Y-252086128D01*
X316470112Y-252086128D02*
X316612969Y-252157557D01*
X316612969Y-252157557D02*
X316684398Y-252300414D01*
X316684398Y-252300414D02*
X316684398Y-252443271D01*
X316684398Y-252443271D02*
X315970112Y-252586128D01*
X317898683Y-253014700D02*
X317755826Y-253086128D01*
X317755826Y-253086128D02*
X317470112Y-253086128D01*
X317470112Y-253086128D02*
X317327254Y-253014700D01*
X317327254Y-253014700D02*
X317255826Y-252871842D01*
X317255826Y-252871842D02*
X317255826Y-252300414D01*
X317255826Y-252300414D02*
X317327254Y-252157557D01*
X317327254Y-252157557D02*
X317470112Y-252086128D01*
X317470112Y-252086128D02*
X317755826Y-252086128D01*
X317755826Y-252086128D02*
X317898683Y-252157557D01*
X317898683Y-252157557D02*
X317970112Y-252300414D01*
X317970112Y-252300414D02*
X317970112Y-252443271D01*
X317970112Y-252443271D02*
X317255826Y-252586128D01*
X318398683Y-252086128D02*
X318970111Y-252086128D01*
X318612968Y-251586128D02*
X318612968Y-252871842D01*
X318612968Y-252871842D02*
X318684397Y-253014700D01*
X318684397Y-253014700D02*
X318827254Y-253086128D01*
X318827254Y-253086128D02*
X318970111Y-253086128D01*
X319470111Y-252943271D02*
X319541540Y-253014700D01*
X319541540Y-253014700D02*
X319470111Y-253086128D01*
X319470111Y-253086128D02*
X319398683Y-253014700D01*
X319398683Y-253014700D02*
X319470111Y-252943271D01*
X319470111Y-252943271D02*
X319470111Y-253086128D01*
X319470111Y-252157557D02*
X319541540Y-252228985D01*
X319541540Y-252228985D02*
X319470111Y-252300414D01*
X319470111Y-252300414D02*
X319398683Y-252228985D01*
X319398683Y-252228985D02*
X319470111Y-252157557D01*
X319470111Y-252157557D02*
X319470111Y-252300414D01*
D10*
D12*
X328594510Y-250078128D02*
X328594510Y-248578128D01*
X328594510Y-248578128D02*
X329165939Y-248578128D01*
X329165939Y-248578128D02*
X329308796Y-248649557D01*
X329308796Y-248649557D02*
X329380225Y-248720985D01*
X329380225Y-248720985D02*
X329451653Y-248863842D01*
X329451653Y-248863842D02*
X329451653Y-249078128D01*
X329451653Y-249078128D02*
X329380225Y-249220985D01*
X329380225Y-249220985D02*
X329308796Y-249292414D01*
X329308796Y-249292414D02*
X329165939Y-249363842D01*
X329165939Y-249363842D02*
X328594510Y-249363842D01*
X330737368Y-250078128D02*
X330737368Y-249292414D01*
X330737368Y-249292414D02*
X330665939Y-249149557D01*
X330665939Y-249149557D02*
X330523082Y-249078128D01*
X330523082Y-249078128D02*
X330237368Y-249078128D01*
X330237368Y-249078128D02*
X330094510Y-249149557D01*
X330737368Y-250006700D02*
X330594510Y-250078128D01*
X330594510Y-250078128D02*
X330237368Y-250078128D01*
X330237368Y-250078128D02*
X330094510Y-250006700D01*
X330094510Y-250006700D02*
X330023082Y-249863842D01*
X330023082Y-249863842D02*
X330023082Y-249720985D01*
X330023082Y-249720985D02*
X330094510Y-249578128D01*
X330094510Y-249578128D02*
X330237368Y-249506700D01*
X330237368Y-249506700D02*
X330594510Y-249506700D01*
X330594510Y-249506700D02*
X330737368Y-249435271D01*
X331451653Y-249078128D02*
X331451653Y-250078128D01*
X331451653Y-249220985D02*
X331523082Y-249149557D01*
X331523082Y-249149557D02*
X331665939Y-249078128D01*
X331665939Y-249078128D02*
X331880225Y-249078128D01*
X331880225Y-249078128D02*
X332023082Y-249149557D01*
X332023082Y-249149557D02*
X332094511Y-249292414D01*
X332094511Y-249292414D02*
X332094511Y-250078128D01*
X332594511Y-249078128D02*
X333165939Y-249078128D01*
X332808796Y-248578128D02*
X332808796Y-249863842D01*
X332808796Y-249863842D02*
X332880225Y-250006700D01*
X332880225Y-250006700D02*
X333023082Y-250078128D01*
X333023082Y-250078128D02*
X333165939Y-250078128D01*
X333594511Y-250006700D02*
X333737368Y-250078128D01*
X333737368Y-250078128D02*
X334023082Y-250078128D01*
X334023082Y-250078128D02*
X334165939Y-250006700D01*
X334165939Y-250006700D02*
X334237368Y-249863842D01*
X334237368Y-249863842D02*
X334237368Y-249792414D01*
X334237368Y-249792414D02*
X334165939Y-249649557D01*
X334165939Y-249649557D02*
X334023082Y-249578128D01*
X334023082Y-249578128D02*
X333808797Y-249578128D01*
X333808797Y-249578128D02*
X333665939Y-249506700D01*
X333665939Y-249506700D02*
X333594511Y-249363842D01*
X333594511Y-249363842D02*
X333594511Y-249292414D01*
X333594511Y-249292414D02*
X333665939Y-249149557D01*
X333665939Y-249149557D02*
X333808797Y-249078128D01*
X333808797Y-249078128D02*
X334023082Y-249078128D01*
X334023082Y-249078128D02*
X334165939Y-249149557D01*
X335808797Y-249078128D02*
X336380225Y-249078128D01*
X336023082Y-250078128D02*
X336023082Y-248792414D01*
X336023082Y-248792414D02*
X336094511Y-248649557D01*
X336094511Y-248649557D02*
X336237368Y-248578128D01*
X336237368Y-248578128D02*
X336380225Y-248578128D01*
X337094511Y-250078128D02*
X336951654Y-250006700D01*
X336951654Y-250006700D02*
X336880225Y-249935271D01*
X336880225Y-249935271D02*
X336808797Y-249792414D01*
X336808797Y-249792414D02*
X336808797Y-249363842D01*
X336808797Y-249363842D02*
X336880225Y-249220985D01*
X336880225Y-249220985D02*
X336951654Y-249149557D01*
X336951654Y-249149557D02*
X337094511Y-249078128D01*
X337094511Y-249078128D02*
X337308797Y-249078128D01*
X337308797Y-249078128D02*
X337451654Y-249149557D01*
X337451654Y-249149557D02*
X337523083Y-249220985D01*
X337523083Y-249220985D02*
X337594511Y-249363842D01*
X337594511Y-249363842D02*
X337594511Y-249792414D01*
X337594511Y-249792414D02*
X337523083Y-249935271D01*
X337523083Y-249935271D02*
X337451654Y-250006700D01*
X337451654Y-250006700D02*
X337308797Y-250078128D01*
X337308797Y-250078128D02*
X337094511Y-250078128D01*
X338237368Y-250078128D02*
X338237368Y-249078128D01*
X338237368Y-249363842D02*
X338308797Y-249220985D01*
X338308797Y-249220985D02*
X338380226Y-249149557D01*
X338380226Y-249149557D02*
X338523083Y-249078128D01*
X338523083Y-249078128D02*
X338665940Y-249078128D01*
X340808796Y-249292414D02*
X341023082Y-249363842D01*
X341023082Y-249363842D02*
X341094511Y-249435271D01*
X341094511Y-249435271D02*
X341165939Y-249578128D01*
X341165939Y-249578128D02*
X341165939Y-249792414D01*
X341165939Y-249792414D02*
X341094511Y-249935271D01*
X341094511Y-249935271D02*
X341023082Y-250006700D01*
X341023082Y-250006700D02*
X340880225Y-250078128D01*
X340880225Y-250078128D02*
X340308796Y-250078128D01*
X340308796Y-250078128D02*
X340308796Y-248578128D01*
X340308796Y-248578128D02*
X340808796Y-248578128D01*
X340808796Y-248578128D02*
X340951654Y-248649557D01*
X340951654Y-248649557D02*
X341023082Y-248720985D01*
X341023082Y-248720985D02*
X341094511Y-248863842D01*
X341094511Y-248863842D02*
X341094511Y-249006700D01*
X341094511Y-249006700D02*
X341023082Y-249149557D01*
X341023082Y-249149557D02*
X340951654Y-249220985D01*
X340951654Y-249220985D02*
X340808796Y-249292414D01*
X340808796Y-249292414D02*
X340308796Y-249292414D01*
X341808796Y-250078128D02*
X341808796Y-249078128D01*
X341808796Y-248578128D02*
X341737368Y-248649557D01*
X341737368Y-248649557D02*
X341808796Y-248720985D01*
X341808796Y-248720985D02*
X341880225Y-248649557D01*
X341880225Y-248649557D02*
X341808796Y-248578128D01*
X341808796Y-248578128D02*
X341808796Y-248720985D01*
X342523082Y-250078128D02*
X342523082Y-249078128D01*
X342523082Y-249363842D02*
X342594511Y-249220985D01*
X342594511Y-249220985D02*
X342665940Y-249149557D01*
X342665940Y-249149557D02*
X342808797Y-249078128D01*
X342808797Y-249078128D02*
X342951654Y-249078128D01*
X344094511Y-250078128D02*
X344094511Y-248578128D01*
X344094511Y-250006700D02*
X343951653Y-250078128D01*
X343951653Y-250078128D02*
X343665939Y-250078128D01*
X343665939Y-250078128D02*
X343523082Y-250006700D01*
X343523082Y-250006700D02*
X343451653Y-249935271D01*
X343451653Y-249935271D02*
X343380225Y-249792414D01*
X343380225Y-249792414D02*
X343380225Y-249363842D01*
X343380225Y-249363842D02*
X343451653Y-249220985D01*
X343451653Y-249220985D02*
X343523082Y-249149557D01*
X343523082Y-249149557D02*
X343665939Y-249078128D01*
X343665939Y-249078128D02*
X343951653Y-249078128D01*
X343951653Y-249078128D02*
X344094511Y-249149557D01*
X344737368Y-250006700D02*
X344880225Y-250078128D01*
X344880225Y-250078128D02*
X345165939Y-250078128D01*
X345165939Y-250078128D02*
X345308796Y-250006700D01*
X345308796Y-250006700D02*
X345380225Y-249863842D01*
X345380225Y-249863842D02*
X345380225Y-249792414D01*
X345380225Y-249792414D02*
X345308796Y-249649557D01*
X345308796Y-249649557D02*
X345165939Y-249578128D01*
X345165939Y-249578128D02*
X344951654Y-249578128D01*
X344951654Y-249578128D02*
X344808796Y-249506700D01*
X344808796Y-249506700D02*
X344737368Y-249363842D01*
X344737368Y-249363842D02*
X344737368Y-249292414D01*
X344737368Y-249292414D02*
X344808796Y-249149557D01*
X344808796Y-249149557D02*
X344951654Y-249078128D01*
X344951654Y-249078128D02*
X345165939Y-249078128D01*
X345165939Y-249078128D02*
X345308796Y-249149557D01*
D10*
D11*
X328924398Y-245585928D02*
X328924398Y-246657357D01*
X328924398Y-246657357D02*
X328852969Y-246871642D01*
X328852969Y-246871642D02*
X328710112Y-247014500D01*
X328710112Y-247014500D02*
X328495826Y-247085928D01*
X328495826Y-247085928D02*
X328352969Y-247085928D01*
X329852969Y-247085928D02*
X329710112Y-247014500D01*
X329710112Y-247014500D02*
X329638683Y-246943071D01*
X329638683Y-246943071D02*
X329567255Y-246800214D01*
X329567255Y-246800214D02*
X329567255Y-246371642D01*
X329567255Y-246371642D02*
X329638683Y-246228785D01*
X329638683Y-246228785D02*
X329710112Y-246157357D01*
X329710112Y-246157357D02*
X329852969Y-246085928D01*
X329852969Y-246085928D02*
X330067255Y-246085928D01*
X330067255Y-246085928D02*
X330210112Y-246157357D01*
X330210112Y-246157357D02*
X330281541Y-246228785D01*
X330281541Y-246228785D02*
X330352969Y-246371642D01*
X330352969Y-246371642D02*
X330352969Y-246800214D01*
X330352969Y-246800214D02*
X330281541Y-246943071D01*
X330281541Y-246943071D02*
X330210112Y-247014500D01*
X330210112Y-247014500D02*
X330067255Y-247085928D01*
X330067255Y-247085928D02*
X329852969Y-247085928D01*
X330995826Y-247085928D02*
X330995826Y-245585928D01*
X331638684Y-247085928D02*
X331638684Y-246300214D01*
X331638684Y-246300214D02*
X331567255Y-246157357D01*
X331567255Y-246157357D02*
X331424398Y-246085928D01*
X331424398Y-246085928D02*
X331210112Y-246085928D01*
X331210112Y-246085928D02*
X331067255Y-246157357D01*
X331067255Y-246157357D02*
X330995826Y-246228785D01*
X332352969Y-246085928D02*
X332352969Y-247085928D01*
X332352969Y-246228785D02*
X332424398Y-246157357D01*
X332424398Y-246157357D02*
X332567255Y-246085928D01*
X332567255Y-246085928D02*
X332781541Y-246085928D01*
X332781541Y-246085928D02*
X332924398Y-246157357D01*
X332924398Y-246157357D02*
X332995827Y-246300214D01*
X332995827Y-246300214D02*
X332995827Y-247085928D01*
X334852969Y-247085928D02*
X334852969Y-245585928D01*
X334852969Y-245585928D02*
X335352969Y-246657357D01*
X335352969Y-246657357D02*
X335852969Y-245585928D01*
X335852969Y-245585928D02*
X335852969Y-247085928D01*
X337210113Y-247014500D02*
X337067255Y-247085928D01*
X337067255Y-247085928D02*
X336781541Y-247085928D01*
X336781541Y-247085928D02*
X336638684Y-247014500D01*
X336638684Y-247014500D02*
X336567255Y-246943071D01*
X336567255Y-246943071D02*
X336495827Y-246800214D01*
X336495827Y-246800214D02*
X336495827Y-246371642D01*
X336495827Y-246371642D02*
X336567255Y-246228785D01*
X336567255Y-246228785D02*
X336638684Y-246157357D01*
X336638684Y-246157357D02*
X336781541Y-246085928D01*
X336781541Y-246085928D02*
X337067255Y-246085928D01*
X337067255Y-246085928D02*
X337210113Y-246157357D01*
X337852969Y-247085928D02*
X337852969Y-245585928D01*
X337852969Y-245585928D02*
X338710112Y-247085928D01*
X338710112Y-247085928D02*
X338710112Y-245585928D01*
X339995827Y-247014500D02*
X339852970Y-247085928D01*
X339852970Y-247085928D02*
X339567256Y-247085928D01*
X339567256Y-247085928D02*
X339424398Y-247014500D01*
X339424398Y-247014500D02*
X339352970Y-246871642D01*
X339352970Y-246871642D02*
X339352970Y-246300214D01*
X339352970Y-246300214D02*
X339424398Y-246157357D01*
X339424398Y-246157357D02*
X339567256Y-246085928D01*
X339567256Y-246085928D02*
X339852970Y-246085928D01*
X339852970Y-246085928D02*
X339995827Y-246157357D01*
X339995827Y-246157357D02*
X340067256Y-246300214D01*
X340067256Y-246300214D02*
X340067256Y-246443071D01*
X340067256Y-246443071D02*
X339352970Y-246585928D01*
X340924398Y-247085928D02*
X340781541Y-247014500D01*
X340781541Y-247014500D02*
X340710112Y-246871642D01*
X340710112Y-246871642D02*
X340710112Y-245585928D01*
X341710112Y-247085928D02*
X341567255Y-247014500D01*
X341567255Y-247014500D02*
X341495826Y-246871642D01*
X341495826Y-246871642D02*
X341495826Y-245585928D01*
X342138683Y-246085928D02*
X342495826Y-247085928D01*
X342852969Y-246085928D02*
X342495826Y-247085928D01*
X342495826Y-247085928D02*
X342352969Y-247443071D01*
X342352969Y-247443071D02*
X342281540Y-247514500D01*
X342281540Y-247514500D02*
X342138683Y-247585928D01*
X344567254Y-246514500D02*
X345710112Y-246514500D01*
X347567254Y-246085928D02*
X347567254Y-247371642D01*
X347567254Y-247371642D02*
X347495826Y-247514500D01*
X347495826Y-247514500D02*
X347352969Y-247585928D01*
X347352969Y-247585928D02*
X347281540Y-247585928D01*
X347567254Y-245585928D02*
X347495826Y-245657357D01*
X347495826Y-245657357D02*
X347567254Y-245728785D01*
X347567254Y-245728785D02*
X347638683Y-245657357D01*
X347638683Y-245657357D02*
X347567254Y-245585928D01*
X347567254Y-245585928D02*
X347567254Y-245728785D01*
X348495826Y-247085928D02*
X348352969Y-247014500D01*
X348352969Y-247014500D02*
X348281540Y-246943071D01*
X348281540Y-246943071D02*
X348210112Y-246800214D01*
X348210112Y-246800214D02*
X348210112Y-246371642D01*
X348210112Y-246371642D02*
X348281540Y-246228785D01*
X348281540Y-246228785D02*
X348352969Y-246157357D01*
X348352969Y-246157357D02*
X348495826Y-246085928D01*
X348495826Y-246085928D02*
X348710112Y-246085928D01*
X348710112Y-246085928D02*
X348852969Y-246157357D01*
X348852969Y-246157357D02*
X348924398Y-246228785D01*
X348924398Y-246228785D02*
X348995826Y-246371642D01*
X348995826Y-246371642D02*
X348995826Y-246800214D01*
X348995826Y-246800214D02*
X348924398Y-246943071D01*
X348924398Y-246943071D02*
X348852969Y-247014500D01*
X348852969Y-247014500D02*
X348710112Y-247085928D01*
X348710112Y-247085928D02*
X348495826Y-247085928D01*
X349638683Y-247085928D02*
X349638683Y-245585928D01*
X350281541Y-247085928D02*
X350281541Y-246300214D01*
X350281541Y-246300214D02*
X350210112Y-246157357D01*
X350210112Y-246157357D02*
X350067255Y-246085928D01*
X350067255Y-246085928D02*
X349852969Y-246085928D01*
X349852969Y-246085928D02*
X349710112Y-246157357D01*
X349710112Y-246157357D02*
X349638683Y-246228785D01*
X350995826Y-246085928D02*
X350995826Y-247085928D01*
X350995826Y-246228785D02*
X351067255Y-246157357D01*
X351067255Y-246157357D02*
X351210112Y-246085928D01*
X351210112Y-246085928D02*
X351424398Y-246085928D01*
X351424398Y-246085928D02*
X351567255Y-246157357D01*
X351567255Y-246157357D02*
X351638684Y-246300214D01*
X351638684Y-246300214D02*
X351638684Y-247085928D01*
X353281541Y-246371642D02*
X353210112Y-246300214D01*
X353210112Y-246300214D02*
X353067255Y-246228785D01*
X353067255Y-246228785D02*
X352924398Y-246228785D01*
X352924398Y-246228785D02*
X352781541Y-246300214D01*
X352781541Y-246300214D02*
X352710112Y-246371642D01*
X352710112Y-246371642D02*
X352638684Y-246514500D01*
X352638684Y-246514500D02*
X352638684Y-246657357D01*
X352638684Y-246657357D02*
X352710112Y-246800214D01*
X352710112Y-246800214D02*
X352781541Y-246871642D01*
X352781541Y-246871642D02*
X352924398Y-246943071D01*
X352924398Y-246943071D02*
X353067255Y-246943071D01*
X353067255Y-246943071D02*
X353210112Y-246871642D01*
X353210112Y-246871642D02*
X353281541Y-246800214D01*
X353281541Y-246228785D02*
X353281541Y-246800214D01*
X353281541Y-246800214D02*
X353352969Y-246871642D01*
X353352969Y-246871642D02*
X353424398Y-246871642D01*
X353424398Y-246871642D02*
X353567255Y-246800214D01*
X353567255Y-246800214D02*
X353638684Y-246657357D01*
X353638684Y-246657357D02*
X353638684Y-246300214D01*
X353638684Y-246300214D02*
X353495827Y-246085928D01*
X353495827Y-246085928D02*
X353281541Y-245943071D01*
X353281541Y-245943071D02*
X352995827Y-245871642D01*
X352995827Y-245871642D02*
X352710112Y-245943071D01*
X352710112Y-245943071D02*
X352495827Y-246085928D01*
X352495827Y-246085928D02*
X352352969Y-246300214D01*
X352352969Y-246300214D02*
X352281541Y-246585928D01*
X352281541Y-246585928D02*
X352352969Y-246871642D01*
X352352969Y-246871642D02*
X352495827Y-247085928D01*
X352495827Y-247085928D02*
X352710112Y-247228785D01*
X352710112Y-247228785D02*
X352995827Y-247300214D01*
X352995827Y-247300214D02*
X353281541Y-247228785D01*
X353281541Y-247228785D02*
X353495827Y-247085928D01*
X354281540Y-246085928D02*
X354281540Y-247585928D01*
X354281540Y-246157357D02*
X354424398Y-246085928D01*
X354424398Y-246085928D02*
X354710112Y-246085928D01*
X354710112Y-246085928D02*
X354852969Y-246157357D01*
X354852969Y-246157357D02*
X354924398Y-246228785D01*
X354924398Y-246228785D02*
X354995826Y-246371642D01*
X354995826Y-246371642D02*
X354995826Y-246800214D01*
X354995826Y-246800214D02*
X354924398Y-246943071D01*
X354924398Y-246943071D02*
X354852969Y-247014500D01*
X354852969Y-247014500D02*
X354710112Y-247085928D01*
X354710112Y-247085928D02*
X354424398Y-247085928D01*
X354424398Y-247085928D02*
X354281540Y-247014500D01*
X356281541Y-247085928D02*
X356281541Y-246300214D01*
X356281541Y-246300214D02*
X356210112Y-246157357D01*
X356210112Y-246157357D02*
X356067255Y-246085928D01*
X356067255Y-246085928D02*
X355781541Y-246085928D01*
X355781541Y-246085928D02*
X355638683Y-246157357D01*
X356281541Y-247014500D02*
X356138683Y-247085928D01*
X356138683Y-247085928D02*
X355781541Y-247085928D01*
X355781541Y-247085928D02*
X355638683Y-247014500D01*
X355638683Y-247014500D02*
X355567255Y-246871642D01*
X355567255Y-246871642D02*
X355567255Y-246728785D01*
X355567255Y-246728785D02*
X355638683Y-246585928D01*
X355638683Y-246585928D02*
X355781541Y-246514500D01*
X355781541Y-246514500D02*
X356138683Y-246514500D01*
X356138683Y-246514500D02*
X356281541Y-246443071D01*
X356995826Y-246085928D02*
X356995826Y-247085928D01*
X356995826Y-246228785D02*
X357067255Y-246157357D01*
X357067255Y-246157357D02*
X357210112Y-246085928D01*
X357210112Y-246085928D02*
X357424398Y-246085928D01*
X357424398Y-246085928D02*
X357567255Y-246157357D01*
X357567255Y-246157357D02*
X357638684Y-246300214D01*
X357638684Y-246300214D02*
X357638684Y-247085928D01*
X358138684Y-246085928D02*
X358710112Y-246085928D01*
X358352969Y-245585928D02*
X358352969Y-246871642D01*
X358352969Y-246871642D02*
X358424398Y-247014500D01*
X358424398Y-247014500D02*
X358567255Y-247085928D01*
X358567255Y-247085928D02*
X358710112Y-247085928D01*
X359138684Y-247014500D02*
X359281541Y-247085928D01*
X359281541Y-247085928D02*
X359567255Y-247085928D01*
X359567255Y-247085928D02*
X359710112Y-247014500D01*
X359710112Y-247014500D02*
X359781541Y-246871642D01*
X359781541Y-246871642D02*
X359781541Y-246800214D01*
X359781541Y-246800214D02*
X359710112Y-246657357D01*
X359710112Y-246657357D02*
X359567255Y-246585928D01*
X359567255Y-246585928D02*
X359352970Y-246585928D01*
X359352970Y-246585928D02*
X359210112Y-246514500D01*
X359210112Y-246514500D02*
X359138684Y-246371642D01*
X359138684Y-246371642D02*
X359138684Y-246300214D01*
X359138684Y-246300214D02*
X359210112Y-246157357D01*
X359210112Y-246157357D02*
X359352970Y-246085928D01*
X359352970Y-246085928D02*
X359567255Y-246085928D01*
X359567255Y-246085928D02*
X359710112Y-246157357D01*
X360210113Y-246085928D02*
X360781541Y-246085928D01*
X360424398Y-247085928D02*
X360424398Y-245800214D01*
X360424398Y-245800214D02*
X360495827Y-245657357D01*
X360495827Y-245657357D02*
X360638684Y-245585928D01*
X360638684Y-245585928D02*
X360781541Y-245585928D01*
X361495827Y-247085928D02*
X361352970Y-247014500D01*
X361352970Y-247014500D02*
X361281541Y-246943071D01*
X361281541Y-246943071D02*
X361210113Y-246800214D01*
X361210113Y-246800214D02*
X361210113Y-246371642D01*
X361210113Y-246371642D02*
X361281541Y-246228785D01*
X361281541Y-246228785D02*
X361352970Y-246157357D01*
X361352970Y-246157357D02*
X361495827Y-246085928D01*
X361495827Y-246085928D02*
X361710113Y-246085928D01*
X361710113Y-246085928D02*
X361852970Y-246157357D01*
X361852970Y-246157357D02*
X361924399Y-246228785D01*
X361924399Y-246228785D02*
X361995827Y-246371642D01*
X361995827Y-246371642D02*
X361995827Y-246800214D01*
X361995827Y-246800214D02*
X361924399Y-246943071D01*
X361924399Y-246943071D02*
X361852970Y-247014500D01*
X361852970Y-247014500D02*
X361710113Y-247085928D01*
X361710113Y-247085928D02*
X361495827Y-247085928D01*
X362638684Y-247085928D02*
X362638684Y-246085928D01*
X362638684Y-246371642D02*
X362710113Y-246228785D01*
X362710113Y-246228785D02*
X362781542Y-246157357D01*
X362781542Y-246157357D02*
X362924399Y-246085928D01*
X362924399Y-246085928D02*
X363067256Y-246085928D01*
X363567255Y-247085928D02*
X363567255Y-245585928D01*
X363567255Y-246157357D02*
X363710113Y-246085928D01*
X363710113Y-246085928D02*
X363995827Y-246085928D01*
X363995827Y-246085928D02*
X364138684Y-246157357D01*
X364138684Y-246157357D02*
X364210113Y-246228785D01*
X364210113Y-246228785D02*
X364281541Y-246371642D01*
X364281541Y-246371642D02*
X364281541Y-246800214D01*
X364281541Y-246800214D02*
X364210113Y-246943071D01*
X364210113Y-246943071D02*
X364138684Y-247014500D01*
X364138684Y-247014500D02*
X363995827Y-247085928D01*
X363995827Y-247085928D02*
X363710113Y-247085928D01*
X363710113Y-247085928D02*
X363567255Y-247014500D01*
X364924398Y-247085928D02*
X364924398Y-246085928D01*
X364924398Y-245585928D02*
X364852970Y-245657357D01*
X364852970Y-245657357D02*
X364924398Y-245728785D01*
X364924398Y-245728785D02*
X364995827Y-245657357D01*
X364995827Y-245657357D02*
X364924398Y-245585928D01*
X364924398Y-245585928D02*
X364924398Y-245728785D01*
X365638684Y-247085928D02*
X365638684Y-246085928D01*
X365638684Y-246371642D02*
X365710113Y-246228785D01*
X365710113Y-246228785D02*
X365781542Y-246157357D01*
X365781542Y-246157357D02*
X365924399Y-246085928D01*
X365924399Y-246085928D02*
X366067256Y-246085928D01*
X367210113Y-247085928D02*
X367210113Y-245585928D01*
X367210113Y-247014500D02*
X367067255Y-247085928D01*
X367067255Y-247085928D02*
X366781541Y-247085928D01*
X366781541Y-247085928D02*
X366638684Y-247014500D01*
X366638684Y-247014500D02*
X366567255Y-246943071D01*
X366567255Y-246943071D02*
X366495827Y-246800214D01*
X366495827Y-246800214D02*
X366495827Y-246371642D01*
X366495827Y-246371642D02*
X366567255Y-246228785D01*
X366567255Y-246228785D02*
X366638684Y-246157357D01*
X366638684Y-246157357D02*
X366781541Y-246085928D01*
X366781541Y-246085928D02*
X367067255Y-246085928D01*
X367067255Y-246085928D02*
X367210113Y-246157357D01*
X367852970Y-247014500D02*
X367995827Y-247085928D01*
X367995827Y-247085928D02*
X368281541Y-247085928D01*
X368281541Y-247085928D02*
X368424398Y-247014500D01*
X368424398Y-247014500D02*
X368495827Y-246871642D01*
X368495827Y-246871642D02*
X368495827Y-246800214D01*
X368495827Y-246800214D02*
X368424398Y-246657357D01*
X368424398Y-246657357D02*
X368281541Y-246585928D01*
X368281541Y-246585928D02*
X368067256Y-246585928D01*
X368067256Y-246585928D02*
X367924398Y-246514500D01*
X367924398Y-246514500D02*
X367852970Y-246371642D01*
X367852970Y-246371642D02*
X367852970Y-246300214D01*
X367852970Y-246300214D02*
X367924398Y-246157357D01*
X367924398Y-246157357D02*
X368067256Y-246085928D01*
X368067256Y-246085928D02*
X368281541Y-246085928D01*
X368281541Y-246085928D02*
X368424398Y-246157357D01*
X369138684Y-246943071D02*
X369210113Y-247014500D01*
X369210113Y-247014500D02*
X369138684Y-247085928D01*
X369138684Y-247085928D02*
X369067256Y-247014500D01*
X369067256Y-247014500D02*
X369138684Y-246943071D01*
X369138684Y-246943071D02*
X369138684Y-247085928D01*
X370495828Y-247014500D02*
X370352970Y-247085928D01*
X370352970Y-247085928D02*
X370067256Y-247085928D01*
X370067256Y-247085928D02*
X369924399Y-247014500D01*
X369924399Y-247014500D02*
X369852970Y-246943071D01*
X369852970Y-246943071D02*
X369781542Y-246800214D01*
X369781542Y-246800214D02*
X369781542Y-246371642D01*
X369781542Y-246371642D02*
X369852970Y-246228785D01*
X369852970Y-246228785D02*
X369924399Y-246157357D01*
X369924399Y-246157357D02*
X370067256Y-246085928D01*
X370067256Y-246085928D02*
X370352970Y-246085928D01*
X370352970Y-246085928D02*
X370495828Y-246157357D01*
X371352970Y-247085928D02*
X371210113Y-247014500D01*
X371210113Y-247014500D02*
X371138684Y-246943071D01*
X371138684Y-246943071D02*
X371067256Y-246800214D01*
X371067256Y-246800214D02*
X371067256Y-246371642D01*
X371067256Y-246371642D02*
X371138684Y-246228785D01*
X371138684Y-246228785D02*
X371210113Y-246157357D01*
X371210113Y-246157357D02*
X371352970Y-246085928D01*
X371352970Y-246085928D02*
X371567256Y-246085928D01*
X371567256Y-246085928D02*
X371710113Y-246157357D01*
X371710113Y-246157357D02*
X371781542Y-246228785D01*
X371781542Y-246228785D02*
X371852970Y-246371642D01*
X371852970Y-246371642D02*
X371852970Y-246800214D01*
X371852970Y-246800214D02*
X371781542Y-246943071D01*
X371781542Y-246943071D02*
X371710113Y-247014500D01*
X371710113Y-247014500D02*
X371567256Y-247085928D01*
X371567256Y-247085928D02*
X371352970Y-247085928D01*
X372495827Y-247085928D02*
X372495827Y-246085928D01*
X372495827Y-246228785D02*
X372567256Y-246157357D01*
X372567256Y-246157357D02*
X372710113Y-246085928D01*
X372710113Y-246085928D02*
X372924399Y-246085928D01*
X372924399Y-246085928D02*
X373067256Y-246157357D01*
X373067256Y-246157357D02*
X373138685Y-246300214D01*
X373138685Y-246300214D02*
X373138685Y-247085928D01*
X373138685Y-246300214D02*
X373210113Y-246157357D01*
X373210113Y-246157357D02*
X373352970Y-246085928D01*
X373352970Y-246085928D02*
X373567256Y-246085928D01*
X373567256Y-246085928D02*
X373710113Y-246157357D01*
X373710113Y-246157357D02*
X373781542Y-246300214D01*
X373781542Y-246300214D02*
X373781542Y-247085928D01*
D10*
D11*
X331800000Y-260900000D02*
X331800000Y-263900000D01*
D10*
D11*
X395800000Y-260900000D02*
X395800000Y-267400000D01*
D10*
D11*
X326811000Y-235497800D02*
X326811000Y-250897800D01*
D14*
X53337500Y-46400000D02*
G75*
G02*
X51462500Y-46400000I-937500J0D01*
G01*
X51462500Y-46400000D02*
G75*
G02*
X53337500Y-46400000I937500J0D01*
G01*
D11*
X74826664Y-46698684D02*
X74433807Y-46698684D01*
X74433807Y-46698684D02*
X74362378Y-46662969D01*
X74362378Y-46662969D02*
X74326664Y-46591541D01*
X74326664Y-46591541D02*
X74326664Y-46448684D01*
X74326664Y-46448684D02*
X74362378Y-46377255D01*
X74790950Y-46698684D02*
X74826664Y-46627255D01*
X74826664Y-46627255D02*
X74826664Y-46448684D01*
X74826664Y-46448684D02*
X74790950Y-46377255D01*
X74790950Y-46377255D02*
X74719521Y-46341541D01*
X74719521Y-46341541D02*
X74648092Y-46341541D01*
X74648092Y-46341541D02*
X74576664Y-46377255D01*
X74576664Y-46377255D02*
X74540950Y-46448684D01*
X74540950Y-46448684D02*
X74540950Y-46627255D01*
X74540950Y-46627255D02*
X74505235Y-46698684D01*
X74826664Y-47377255D02*
X74076664Y-47377255D01*
X74790950Y-47377255D02*
X74826664Y-47305826D01*
X74826664Y-47305826D02*
X74826664Y-47162969D01*
X74826664Y-47162969D02*
X74790950Y-47091540D01*
X74790950Y-47091540D02*
X74755235Y-47055826D01*
X74755235Y-47055826D02*
X74683807Y-47020112D01*
X74683807Y-47020112D02*
X74469521Y-47020112D01*
X74469521Y-47020112D02*
X74398092Y-47055826D01*
X74398092Y-47055826D02*
X74362378Y-47091540D01*
X74362378Y-47091540D02*
X74326664Y-47162969D01*
X74326664Y-47162969D02*
X74326664Y-47305826D01*
X74326664Y-47305826D02*
X74362378Y-47377255D01*
X74790950Y-47698683D02*
X74826664Y-47770111D01*
X74826664Y-47770111D02*
X74826664Y-47912968D01*
X74826664Y-47912968D02*
X74790950Y-47984397D01*
X74790950Y-47984397D02*
X74719521Y-48020111D01*
X74719521Y-48020111D02*
X74683807Y-48020111D01*
X74683807Y-48020111D02*
X74612378Y-47984397D01*
X74612378Y-47984397D02*
X74576664Y-47912968D01*
X74576664Y-47912968D02*
X74576664Y-47805826D01*
X74576664Y-47805826D02*
X74540950Y-47734397D01*
X74540950Y-47734397D02*
X74469521Y-47698683D01*
X74469521Y-47698683D02*
X74433807Y-47698683D01*
X74433807Y-47698683D02*
X74362378Y-47734397D01*
X74362378Y-47734397D02*
X74326664Y-47805826D01*
X74326664Y-47805826D02*
X74326664Y-47912968D01*
X74326664Y-47912968D02*
X74362378Y-47984397D01*
X74826664Y-48341540D02*
X74076664Y-48341540D01*
X74362378Y-48341540D02*
X74326664Y-48412969D01*
X74326664Y-48412969D02*
X74326664Y-48555826D01*
X74326664Y-48555826D02*
X74362378Y-48627254D01*
X74362378Y-48627254D02*
X74398092Y-48662969D01*
X74398092Y-48662969D02*
X74469521Y-48698683D01*
X74469521Y-48698683D02*
X74683807Y-48698683D01*
X74683807Y-48698683D02*
X74755235Y-48662969D01*
X74755235Y-48662969D02*
X74790950Y-48627254D01*
X74790950Y-48627254D02*
X74826664Y-48555826D01*
X74826664Y-48555826D02*
X74826664Y-48412969D01*
X74826664Y-48412969D02*
X74790950Y-48341540D01*
X74790950Y-49305825D02*
X74826664Y-49234397D01*
X74826664Y-49234397D02*
X74826664Y-49091540D01*
X74826664Y-49091540D02*
X74790950Y-49020111D01*
X74790950Y-49020111D02*
X74719521Y-48984397D01*
X74719521Y-48984397D02*
X74433807Y-48984397D01*
X74433807Y-48984397D02*
X74362378Y-49020111D01*
X74362378Y-49020111D02*
X74326664Y-49091540D01*
X74326664Y-49091540D02*
X74326664Y-49234397D01*
X74326664Y-49234397D02*
X74362378Y-49305825D01*
X74362378Y-49305825D02*
X74433807Y-49341540D01*
X74433807Y-49341540D02*
X74505235Y-49341540D01*
X74505235Y-49341540D02*
X74576664Y-48984397D01*
X74790950Y-49948682D02*
X74826664Y-49877254D01*
X74826664Y-49877254D02*
X74826664Y-49734397D01*
X74826664Y-49734397D02*
X74790950Y-49662968D01*
X74790950Y-49662968D02*
X74719521Y-49627254D01*
X74719521Y-49627254D02*
X74433807Y-49627254D01*
X74433807Y-49627254D02*
X74362378Y-49662968D01*
X74362378Y-49662968D02*
X74326664Y-49734397D01*
X74326664Y-49734397D02*
X74326664Y-49877254D01*
X74326664Y-49877254D02*
X74362378Y-49948682D01*
X74362378Y-49948682D02*
X74433807Y-49984397D01*
X74433807Y-49984397D02*
X74505235Y-49984397D01*
X74505235Y-49984397D02*
X74576664Y-49627254D01*
X74898092Y-50127254D02*
X74898092Y-50698682D01*
X74826664Y-51270111D02*
X74826664Y-50841540D01*
X74826664Y-51055825D02*
X74076664Y-51055825D01*
X74076664Y-51055825D02*
X74183807Y-50984397D01*
X74183807Y-50984397D02*
X74255235Y-50912968D01*
X74255235Y-50912968D02*
X74290950Y-50841540D01*
X74076664Y-51734397D02*
X74076664Y-51805826D01*
X74076664Y-51805826D02*
X74112378Y-51877254D01*
X74112378Y-51877254D02*
X74148092Y-51912969D01*
X74148092Y-51912969D02*
X74219521Y-51948683D01*
X74219521Y-51948683D02*
X74362378Y-51984397D01*
X74362378Y-51984397D02*
X74540950Y-51984397D01*
X74540950Y-51984397D02*
X74683807Y-51948683D01*
X74683807Y-51948683D02*
X74755235Y-51912969D01*
X74755235Y-51912969D02*
X74790950Y-51877254D01*
X74790950Y-51877254D02*
X74826664Y-51805826D01*
X74826664Y-51805826D02*
X74826664Y-51734397D01*
X74826664Y-51734397D02*
X74790950Y-51662969D01*
X74790950Y-51662969D02*
X74755235Y-51627254D01*
X74755235Y-51627254D02*
X74683807Y-51591540D01*
X74683807Y-51591540D02*
X74540950Y-51555826D01*
X74540950Y-51555826D02*
X74362378Y-51555826D01*
X74362378Y-51555826D02*
X74219521Y-51591540D01*
X74219521Y-51591540D02*
X74148092Y-51627254D01*
X74148092Y-51627254D02*
X74112378Y-51662969D01*
X74112378Y-51662969D02*
X74076664Y-51734397D01*
X74826664Y-52341540D02*
X74826664Y-52484397D01*
X74826664Y-52484397D02*
X74790950Y-52555826D01*
X74790950Y-52555826D02*
X74755235Y-52591540D01*
X74755235Y-52591540D02*
X74648092Y-52662969D01*
X74648092Y-52662969D02*
X74505235Y-52698683D01*
X74505235Y-52698683D02*
X74219521Y-52698683D01*
X74219521Y-52698683D02*
X74148092Y-52662969D01*
X74148092Y-52662969D02*
X74112378Y-52627255D01*
X74112378Y-52627255D02*
X74076664Y-52555826D01*
X74076664Y-52555826D02*
X74076664Y-52412969D01*
X74076664Y-52412969D02*
X74112378Y-52341540D01*
X74112378Y-52341540D02*
X74148092Y-52305826D01*
X74148092Y-52305826D02*
X74219521Y-52270112D01*
X74219521Y-52270112D02*
X74398092Y-52270112D01*
X74398092Y-52270112D02*
X74469521Y-52305826D01*
X74469521Y-52305826D02*
X74505235Y-52341540D01*
X74505235Y-52341540D02*
X74540950Y-52412969D01*
X74540950Y-52412969D02*
X74540950Y-52555826D01*
X74540950Y-52555826D02*
X74505235Y-52627255D01*
X74505235Y-52627255D02*
X74469521Y-52662969D01*
X74469521Y-52662969D02*
X74398092Y-52698683D01*
X74076664Y-53162969D02*
X74076664Y-53234398D01*
X74076664Y-53234398D02*
X74112378Y-53305826D01*
X74112378Y-53305826D02*
X74148092Y-53341541D01*
X74148092Y-53341541D02*
X74219521Y-53377255D01*
X74219521Y-53377255D02*
X74362378Y-53412969D01*
X74362378Y-53412969D02*
X74540950Y-53412969D01*
X74540950Y-53412969D02*
X74683807Y-53377255D01*
X74683807Y-53377255D02*
X74755235Y-53341541D01*
X74755235Y-53341541D02*
X74790950Y-53305826D01*
X74790950Y-53305826D02*
X74826664Y-53234398D01*
X74826664Y-53234398D02*
X74826664Y-53162969D01*
X74826664Y-53162969D02*
X74790950Y-53091541D01*
X74790950Y-53091541D02*
X74755235Y-53055826D01*
X74755235Y-53055826D02*
X74683807Y-53020112D01*
X74683807Y-53020112D02*
X74540950Y-52984398D01*
X74540950Y-52984398D02*
X74362378Y-52984398D01*
X74362378Y-52984398D02*
X74219521Y-53020112D01*
X74219521Y-53020112D02*
X74148092Y-53055826D01*
X74148092Y-53055826D02*
X74112378Y-53091541D01*
X74112378Y-53091541D02*
X74076664Y-53162969D01*
X76226665Y-46805826D02*
X75869522Y-46555826D01*
X76226665Y-46377255D02*
X75476665Y-46377255D01*
X75476665Y-46377255D02*
X75476665Y-46662969D01*
X75476665Y-46662969D02*
X75512379Y-46734398D01*
X75512379Y-46734398D02*
X75548093Y-46770112D01*
X75548093Y-46770112D02*
X75619522Y-46805826D01*
X75619522Y-46805826D02*
X75726665Y-46805826D01*
X75726665Y-46805826D02*
X75798093Y-46770112D01*
X75798093Y-46770112D02*
X75833808Y-46734398D01*
X75833808Y-46734398D02*
X75869522Y-46662969D01*
X75869522Y-46662969D02*
X75869522Y-46377255D01*
X75833808Y-47127255D02*
X75833808Y-47377255D01*
X76226665Y-47484398D02*
X76226665Y-47127255D01*
X76226665Y-47127255D02*
X75476665Y-47127255D01*
X75476665Y-47127255D02*
X75476665Y-47484398D01*
X75476665Y-47698683D02*
X76226665Y-47948683D01*
X76226665Y-47948683D02*
X75476665Y-48198683D01*
X76226665Y-49020112D02*
X75476665Y-49020112D01*
X75476665Y-49020112D02*
X75476665Y-49198683D01*
X75476665Y-49198683D02*
X75512379Y-49305826D01*
X75512379Y-49305826D02*
X75583808Y-49377255D01*
X75583808Y-49377255D02*
X75655236Y-49412969D01*
X75655236Y-49412969D02*
X75798093Y-49448683D01*
X75798093Y-49448683D02*
X75905236Y-49448683D01*
X75905236Y-49448683D02*
X76048093Y-49412969D01*
X76048093Y-49412969D02*
X76119522Y-49377255D01*
X76119522Y-49377255D02*
X76190951Y-49305826D01*
X76190951Y-49305826D02*
X76226665Y-49198683D01*
X76226665Y-49198683D02*
X76226665Y-49020112D01*
D15*
G04 #@! TO.C,J6*
X43500000Y-63500000D03*
D16*
X46040000Y-63500000D03*
X48580000Y-63500000D03*
X51120000Y-63500000D03*
X53660000Y-63500000D03*
X56200000Y-63500000D03*
X58740000Y-63500000D03*
X61280000Y-63500000D03*
X63820000Y-63500000D03*
X66360000Y-63500000D03*
X68900000Y-63500000D03*
G04 #@! TD*
D17*
G04 #@! TO.C,H1*
X76500000Y-39000000D03*
G04 #@! TD*
D15*
G04 #@! TO.C,J5*
X78250000Y-45250000D03*
D16*
X78250000Y-47790000D03*
X78250000Y-50330000D03*
X78250000Y-52870000D03*
X78250000Y-55410000D03*
G04 #@! TD*
D17*
G04 #@! TO.C,H2*
X76500000Y-62000000D03*
G04 #@! TD*
G04 #@! TO.C,H4*
X38500000Y-62000000D03*
G04 #@! TD*
G04 #@! TO.C,H3*
X38500000Y-39000000D03*
G04 #@! TD*
D18*
G04 #@! TO.C,J2*
X40165000Y-44610000D03*
X40165000Y-50390000D03*
D19*
X40680000Y-43180000D03*
D20*
X36500000Y-43180000D03*
D19*
X40680000Y-51820000D03*
D20*
X36500000Y-51820000D03*
G04 #@! TD*
D21*
G04 #@! TO.C,C25*
X47125000Y-44500000D03*
X48675000Y-44500000D03*
G04 #@! TD*
D22*
G04 #@! TO.C,C23*
X48020000Y-45800000D03*
X48980000Y-45800000D03*
G04 #@! TD*
D23*
G04 #@! TO.C,R23*
X74810000Y-44100000D03*
X73790000Y-44100000D03*
G04 #@! TD*
D22*
G04 #@! TO.C,C22*
X52420000Y-49700000D03*
X53380000Y-49700000D03*
G04 #@! TD*
D24*
G04 #@! TO.C,TP4*
X58500000Y-39100000D03*
G04 #@! TD*
G04 #@! TO.C,TP5*
X59900000Y-57300000D03*
G04 #@! TD*
D25*
G04 #@! TO.C,J3*
X65950000Y-48930000D03*
X62050000Y-48930000D03*
X65950000Y-50200000D03*
X62050000Y-50200000D03*
X65950000Y-51470000D03*
X62050000Y-51470000D03*
G04 #@! TD*
D24*
G04 #@! TO.C,TP7*
X56300000Y-54400000D03*
G04 #@! TD*
G04 #@! TO.C,TP2*
X71600000Y-48800000D03*
G04 #@! TD*
D26*
G04 #@! TO.C,R16*
X55790001Y-59000000D03*
X56809999Y-59000000D03*
G04 #@! TD*
D23*
G04 #@! TO.C,R19*
X59010000Y-40600000D03*
X57990000Y-40600000D03*
G04 #@! TD*
D27*
G04 #@! TO.C,C17*
X51180000Y-43900000D03*
X50220000Y-43900000D03*
G04 #@! TD*
D28*
G04 #@! TO.C,C31*
X43250000Y-51300000D03*
X45150000Y-51300000D03*
G04 #@! TD*
D29*
G04 #@! TO.C,D3*
X46650000Y-49000000D03*
X43350000Y-49000000D03*
G04 #@! TD*
D24*
G04 #@! TO.C,TP8*
X58100000Y-43600000D03*
G04 #@! TD*
D30*
G04 #@! TO.C,C32*
X51000000Y-56950000D03*
X51000000Y-58850000D03*
G04 #@! TD*
D24*
G04 #@! TO.C,TP6*
X59100000Y-53700000D03*
G04 #@! TD*
G04 #@! TO.C,TP10*
X44400000Y-39700000D03*
G04 #@! TD*
D27*
G04 #@! TO.C,C21*
X55980000Y-46400000D03*
X55020000Y-46400000D03*
G04 #@! TD*
D25*
G04 #@! TO.C,J4*
X52150000Y-36660000D03*
X48250000Y-36660000D03*
X52150000Y-37930000D03*
X48250000Y-37930000D03*
X52150000Y-39200000D03*
X48250000Y-39200000D03*
X52150000Y-40470000D03*
X48250000Y-40470000D03*
X52150000Y-41740000D03*
X48250000Y-41740000D03*
G04 #@! TD*
D21*
G04 #@! TO.C,C24*
X47125000Y-47100000D03*
X48675000Y-47100000D03*
G04 #@! TD*
D27*
G04 #@! TO.C,C16*
X55980000Y-45400000D03*
X55020000Y-45400000D03*
G04 #@! TD*
D31*
G04 #@! TO.C,F2*
X54685000Y-59000000D03*
X53715000Y-59000000D03*
G04 #@! TD*
D24*
G04 #@! TO.C,TP11*
X53900000Y-44000000D03*
G04 #@! TD*
D26*
G04 #@! TO.C,R22*
X61090000Y-53300000D03*
X62110000Y-53300000D03*
G04 #@! TD*
D23*
G04 #@! TO.C,R18*
X74810000Y-43000000D03*
X73790000Y-43000000D03*
G04 #@! TD*
D24*
G04 #@! TO.C,TP3*
X72300000Y-61700000D03*
G04 #@! TD*
D32*
G04 #@! TO.C,U9*
X72300000Y-37400000D03*
X72300000Y-38200000D03*
X72300000Y-39000000D03*
X72300000Y-39800000D03*
X72300000Y-40600000D03*
X72300000Y-41400000D03*
X72300000Y-42200000D03*
X72300000Y-43000000D03*
X72300000Y-43800000D03*
X72300000Y-44600000D03*
X72300000Y-45400000D03*
D33*
X71200000Y-46300000D03*
X70400000Y-46300000D03*
X69600000Y-46300000D03*
X68800000Y-46300000D03*
X68000000Y-46300000D03*
X67200000Y-46300000D03*
X66400000Y-46300000D03*
X65600000Y-46300000D03*
X64800000Y-46300000D03*
X64000000Y-46300000D03*
X63200000Y-46300000D03*
X62400000Y-46300000D03*
X61600000Y-46300000D03*
D32*
X60500000Y-45400000D03*
X60500000Y-44600000D03*
X60500000Y-43800000D03*
X60500000Y-43000000D03*
X60500000Y-42200000D03*
X60500000Y-41400000D03*
X60500000Y-40600000D03*
X60500000Y-39800000D03*
X60500000Y-39000000D03*
X60500000Y-38200000D03*
X60500000Y-37400000D03*
D33*
X61600000Y-36500000D03*
X62400000Y-36500000D03*
X63200000Y-36500000D03*
X64000000Y-36500000D03*
X64800000Y-36500000D03*
X65600000Y-36500000D03*
X66400000Y-36500000D03*
X67200000Y-36500000D03*
X68000000Y-36500000D03*
X68800000Y-36500000D03*
X69600000Y-36500000D03*
X70400000Y-36500000D03*
X71200000Y-36500000D03*
D34*
X68375000Y-43375000D03*
X68375000Y-41400000D03*
D35*
X68375000Y-39425000D03*
D34*
X66400000Y-43375000D03*
X66400000Y-41400000D03*
X66400000Y-39425000D03*
X64425000Y-43375000D03*
X64425000Y-41400000D03*
X64425000Y-39425000D03*
D36*
X60450000Y-36450000D03*
X60450000Y-46350000D03*
X72350000Y-46350000D03*
X72350000Y-36450000D03*
G04 #@! TD*
D37*
G04 #@! TO.C,F1*
X73815000Y-45500000D03*
X74785000Y-45500000D03*
G04 #@! TD*
D38*
G04 #@! TO.C,U10*
X42350000Y-58300000D03*
X42350000Y-56000000D03*
D39*
X48650000Y-56000000D03*
D38*
X42350000Y-53700000D03*
G04 #@! TD*
D24*
G04 #@! TO.C,TP9*
X58300000Y-47000000D03*
G04 #@! TD*
D23*
G04 #@! TO.C,R17*
X59809999Y-59000000D03*
X58790001Y-59000000D03*
G04 #@! TD*
G04 #@! TO.C,R20*
X59010000Y-41700000D03*
X57990000Y-41700000D03*
G04 #@! TD*
D24*
G04 #@! TO.C,TP1*
X58500000Y-37000000D03*
G04 #@! TD*
M02*
