M48
; DRILL file {KiCad 7.0.7} date Fri Jan  5 02:17:45 2024
; FORMAT={-:-/ absolute / metric / decimal}
; #@! TF.CreationDate,2024-01-05T02:17:45-08:00
; #@! TF.GenerationSoftware,Kicad,Pcbnew,7.0.7
; #@! TF.FileFunction,MixedPlating,1,4
FMAT,2
METRIC
; #@! TA.AperFunction,Plated,PTH,ViaDrill
T1C0.200
; #@! TA.AperFunction,Plated,PTH,ComponentDrill
T2C0.500
; #@! TA.AperFunction,Plated,PTH,ComponentDrill
T3C1.000
; #@! TA.AperFunction,NonPlated,NPTH,ComponentDrill
T4C2.700
%
G90
G05
T1
X40.4Y-48.3
X41.0Y-52.5
X41.5Y-40.9
X41.7Y-48.6
X42.0Y-49.4
X42.5Y-36.87
X42.5Y-39.8
X42.6Y-51.0
X43.2Y-39.9
X43.5Y-50.0
X43.5Y-52.1
X43.5Y-61.1
X43.8Y-38.0
X44.1Y-50.5
X44.1Y-61.5
X44.3Y-54.5
X44.5Y-41.8
X44.5Y-48.5
X45.272Y-49.4
X45.6Y-53.6
X45.8Y-42.6
X46.3Y-53.649
X46.726Y-48.126
X46.819Y-54.117
X47.02Y-43.9
X47.082Y-48.782
X47.122Y-49.663
X47.127Y-47.457
X47.2Y-62.0
X47.38Y-46.804
X47.6Y-40.8
X47.6Y-60.9
X47.7Y-42.3
X47.744Y-49.463
X47.925Y-51.1
X48.124Y-58.363
X48.2Y-36.271
X48.2Y-38.0
X48.774Y-54.3
X48.824Y-58.349
X48.9Y-60.8
X49.274Y-41.964
X49.4Y-61.4
X49.4Y-63.4
X49.473Y-50.898
X49.6Y-38.775
X49.6Y-40.8
X49.659Y-56.274
X49.724Y-55.134
X49.75Y-44.5
X49.75Y-45.75
X49.75Y-47.25
X49.75Y-48.5
X49.958Y-51.373
X50.186Y-55.632
X50.539Y-40.808
X50.541Y-41.477
X50.6Y-58.5
X51.0Y-44.5
X51.0Y-48.5
X51.013Y-55.104
X51.125Y-41.194
X51.3Y-51.536
X51.3Y-53.0
X51.374Y-42.003
X51.6Y-58.5
X52.098Y-40.969
X52.12Y-40.32
X52.3Y-58.5
X52.324Y-42.0
X52.475Y-44.5
X52.475Y-48.5
X52.6Y-61.5
X53.1Y-59.2
X53.1Y-62.5
X53.264Y-50.7
X53.3Y-53.0
X53.308Y-51.449
X53.314Y-42.001
X53.314Y-39.7
X53.424Y-37.9
X53.7Y-36.3
X53.75Y-44.5
X53.75Y-45.75
X53.75Y-47.25
X53.75Y-48.5
X53.964Y-39.7
X53.971Y-41.994
X54.1Y-55.65
X54.1Y-58.0
X54.2Y-53.8
X54.5Y-51.6
X54.58Y-60.6
X54.85Y-51.0
X55.4Y-57.6
X55.5Y-51.0
X55.5Y-55.0
X55.7Y-52.1
X55.7Y-53.1
X55.9Y-43.1
X56.3Y-47.9
X56.374Y-43.7
X56.5Y-59.3
X56.6Y-50.0
X56.7Y-43.11
X57.0Y-45.805
X57.0Y-57.5
X57.25Y-36.9
X57.3Y-38.474
X57.302Y-55.1
X57.851Y-43.0
X57.9Y-37.2
X58.002Y-57.0
X58.102Y-54.0
X58.2Y-44.0
X58.3Y-59.3
X58.3Y-63.3
X58.454Y-46.304
X58.802Y-54.0
X58.802Y-57.0
X58.92Y-58.02
X59.502Y-54.0
X59.502Y-57.0
X59.7Y-45.9
X59.9Y-58.0
X60.1Y-36.6
X60.18Y-46.5
X61.1Y-39.124
X61.4Y-57.2
X61.6Y-58.8
X61.874Y-36.6
X61.9Y-45.2
X62.2Y-57.2
X62.302Y-55.2
X62.328Y-54.0
X63.2Y-54.5
X63.2Y-57.2
X63.7Y-50.0
X63.8Y-53.3
X64.4Y-55.5
X65.0Y-50.0
X65.7Y-55.5
X66.3Y-55.5
X66.3Y-56.2
T3
X36.975Y-54.225
X36.975Y-56.765
X39.515Y-54.225
X39.515Y-56.765
X42.055Y-54.225
X42.055Y-56.765
T4
X38.325Y-62.0
X38.5Y-39.0
X65.0Y-39.0
X65.0Y-62.0
T2
G00X36.15Y-43.7
M15
G01X36.85Y-43.7
M16
G05
G00X36.15Y-50.3
M15
G01X36.85Y-50.3
M16
G05
T0
M30
