G04 #@! TF.GenerationSoftware,KiCad,Pcbnew,8.0.3*
G04 #@! TF.CreationDate,2024-06-22T03:08:13-07:00*
G04 #@! TF.ProjectId,adsbee_1090,61647362-6565-45f3-9130-39302e6b6963,D*
G04 #@! TF.SameCoordinates,Original*
G04 #@! TF.FileFunction,Copper,L4,Inr*
G04 #@! TF.FilePolarity,Positive*
%FSLAX46Y46*%
G04 Gerber Fmt 4.6, Leading zero omitted, Abs format (unit mm)*
G04 Created by KiCad (PCBNEW 8.0.3) date 2024-06-22 03:08:13*
%MOMM*%
%LPD*%
G01*
G04 APERTURE LIST*
%ADD10C,0.100000*%
%ADD11C,0.150000*%
%ADD12C,0.300000*%
%ADD13C,0.400000*%
G04 #@! TA.AperFunction,ComponentPad*
%ADD14R,1.700000X1.700000*%
G04 #@! TD*
G04 #@! TA.AperFunction,ComponentPad*
%ADD15O,1.700000X1.700000*%
G04 #@! TD*
G04 #@! TA.AperFunction,ComponentPad*
%ADD16O,2.100000X1.000000*%
G04 #@! TD*
G04 #@! TA.AperFunction,ComponentPad*
%ADD17O,1.800000X1.000000*%
G04 #@! TD*
G04 #@! TA.AperFunction,ViaPad*
%ADD18C,0.400000*%
G04 #@! TD*
G04 #@! TA.AperFunction,ViaPad*
%ADD19C,3.000000*%
G04 #@! TD*
G04 #@! TA.AperFunction,Conductor*
%ADD20C,0.250000*%
G04 #@! TD*
G04 #@! TA.AperFunction,Conductor*
%ADD21C,0.150000*%
G04 #@! TD*
G04 APERTURE END LIST*
D10*
X311457819Y-235654619D02*
X311457819Y-251240982D01*
X327044182Y-251240982D01*
X327044182Y-235654619D01*
X311457819Y-235654619D01*
D11*
X311800000Y-235400000D02*
X419800000Y-235400000D01*
X419800000Y-267400000D01*
X311800000Y-267400000D01*
X311800000Y-235400000D01*
D10*
D11*
X10000000Y-10000000D02*
X421800000Y-10000000D01*
X421800000Y-269400000D01*
X10000000Y-269400000D01*
X10000000Y-10000000D01*
D10*
D11*
X12000000Y-12000000D02*
X419800000Y-12000000D01*
X419800000Y-267400000D01*
X12000000Y-267400000D01*
X12000000Y-12000000D01*
D10*
D11*
X60000000Y-12000000D02*
X60000000Y-10000000D01*
D10*
D11*
X110000000Y-12000000D02*
X110000000Y-10000000D01*
D10*
D11*
X160000000Y-12000000D02*
X160000000Y-10000000D01*
D10*
D11*
X210000000Y-12000000D02*
X210000000Y-10000000D01*
D10*
D11*
X260000000Y-12000000D02*
X260000000Y-10000000D01*
D10*
D11*
X310000000Y-12000000D02*
X310000000Y-10000000D01*
D10*
D11*
X360000000Y-12000000D02*
X360000000Y-10000000D01*
D10*
D11*
X410000000Y-12000000D02*
X410000000Y-10000000D01*
D10*
D11*
X36089160Y-11593604D02*
X35346303Y-11593604D01*
X35717731Y-11593604D02*
X35717731Y-10293604D01*
X35717731Y-10293604D02*
X35593922Y-10479319D01*
X35593922Y-10479319D02*
X35470112Y-10603128D01*
X35470112Y-10603128D02*
X35346303Y-10665033D01*
D10*
D11*
X85346303Y-10417414D02*
X85408207Y-10355509D01*
X85408207Y-10355509D02*
X85532017Y-10293604D01*
X85532017Y-10293604D02*
X85841541Y-10293604D01*
X85841541Y-10293604D02*
X85965350Y-10355509D01*
X85965350Y-10355509D02*
X86027255Y-10417414D01*
X86027255Y-10417414D02*
X86089160Y-10541223D01*
X86089160Y-10541223D02*
X86089160Y-10665033D01*
X86089160Y-10665033D02*
X86027255Y-10850747D01*
X86027255Y-10850747D02*
X85284398Y-11593604D01*
X85284398Y-11593604D02*
X86089160Y-11593604D01*
D10*
D11*
X135284398Y-10293604D02*
X136089160Y-10293604D01*
X136089160Y-10293604D02*
X135655826Y-10788842D01*
X135655826Y-10788842D02*
X135841541Y-10788842D01*
X135841541Y-10788842D02*
X135965350Y-10850747D01*
X135965350Y-10850747D02*
X136027255Y-10912652D01*
X136027255Y-10912652D02*
X136089160Y-11036461D01*
X136089160Y-11036461D02*
X136089160Y-11345985D01*
X136089160Y-11345985D02*
X136027255Y-11469795D01*
X136027255Y-11469795D02*
X135965350Y-11531700D01*
X135965350Y-11531700D02*
X135841541Y-11593604D01*
X135841541Y-11593604D02*
X135470112Y-11593604D01*
X135470112Y-11593604D02*
X135346303Y-11531700D01*
X135346303Y-11531700D02*
X135284398Y-11469795D01*
D10*
D11*
X185965350Y-10726938D02*
X185965350Y-11593604D01*
X185655826Y-10231700D02*
X185346303Y-11160271D01*
X185346303Y-11160271D02*
X186151064Y-11160271D01*
D10*
D11*
X236027255Y-10293604D02*
X235408207Y-10293604D01*
X235408207Y-10293604D02*
X235346303Y-10912652D01*
X235346303Y-10912652D02*
X235408207Y-10850747D01*
X235408207Y-10850747D02*
X235532017Y-10788842D01*
X235532017Y-10788842D02*
X235841541Y-10788842D01*
X235841541Y-10788842D02*
X235965350Y-10850747D01*
X235965350Y-10850747D02*
X236027255Y-10912652D01*
X236027255Y-10912652D02*
X236089160Y-11036461D01*
X236089160Y-11036461D02*
X236089160Y-11345985D01*
X236089160Y-11345985D02*
X236027255Y-11469795D01*
X236027255Y-11469795D02*
X235965350Y-11531700D01*
X235965350Y-11531700D02*
X235841541Y-11593604D01*
X235841541Y-11593604D02*
X235532017Y-11593604D01*
X235532017Y-11593604D02*
X235408207Y-11531700D01*
X235408207Y-11531700D02*
X235346303Y-11469795D01*
D10*
D11*
X285965350Y-10293604D02*
X285717731Y-10293604D01*
X285717731Y-10293604D02*
X285593922Y-10355509D01*
X285593922Y-10355509D02*
X285532017Y-10417414D01*
X285532017Y-10417414D02*
X285408207Y-10603128D01*
X285408207Y-10603128D02*
X285346303Y-10850747D01*
X285346303Y-10850747D02*
X285346303Y-11345985D01*
X285346303Y-11345985D02*
X285408207Y-11469795D01*
X285408207Y-11469795D02*
X285470112Y-11531700D01*
X285470112Y-11531700D02*
X285593922Y-11593604D01*
X285593922Y-11593604D02*
X285841541Y-11593604D01*
X285841541Y-11593604D02*
X285965350Y-11531700D01*
X285965350Y-11531700D02*
X286027255Y-11469795D01*
X286027255Y-11469795D02*
X286089160Y-11345985D01*
X286089160Y-11345985D02*
X286089160Y-11036461D01*
X286089160Y-11036461D02*
X286027255Y-10912652D01*
X286027255Y-10912652D02*
X285965350Y-10850747D01*
X285965350Y-10850747D02*
X285841541Y-10788842D01*
X285841541Y-10788842D02*
X285593922Y-10788842D01*
X285593922Y-10788842D02*
X285470112Y-10850747D01*
X285470112Y-10850747D02*
X285408207Y-10912652D01*
X285408207Y-10912652D02*
X285346303Y-11036461D01*
D10*
D11*
X335284398Y-10293604D02*
X336151064Y-10293604D01*
X336151064Y-10293604D02*
X335593922Y-11593604D01*
D10*
D11*
X385593922Y-10850747D02*
X385470112Y-10788842D01*
X385470112Y-10788842D02*
X385408207Y-10726938D01*
X385408207Y-10726938D02*
X385346303Y-10603128D01*
X385346303Y-10603128D02*
X385346303Y-10541223D01*
X385346303Y-10541223D02*
X385408207Y-10417414D01*
X385408207Y-10417414D02*
X385470112Y-10355509D01*
X385470112Y-10355509D02*
X385593922Y-10293604D01*
X385593922Y-10293604D02*
X385841541Y-10293604D01*
X385841541Y-10293604D02*
X385965350Y-10355509D01*
X385965350Y-10355509D02*
X386027255Y-10417414D01*
X386027255Y-10417414D02*
X386089160Y-10541223D01*
X386089160Y-10541223D02*
X386089160Y-10603128D01*
X386089160Y-10603128D02*
X386027255Y-10726938D01*
X386027255Y-10726938D02*
X385965350Y-10788842D01*
X385965350Y-10788842D02*
X385841541Y-10850747D01*
X385841541Y-10850747D02*
X385593922Y-10850747D01*
X385593922Y-10850747D02*
X385470112Y-10912652D01*
X385470112Y-10912652D02*
X385408207Y-10974557D01*
X385408207Y-10974557D02*
X385346303Y-11098366D01*
X385346303Y-11098366D02*
X385346303Y-11345985D01*
X385346303Y-11345985D02*
X385408207Y-11469795D01*
X385408207Y-11469795D02*
X385470112Y-11531700D01*
X385470112Y-11531700D02*
X385593922Y-11593604D01*
X385593922Y-11593604D02*
X385841541Y-11593604D01*
X385841541Y-11593604D02*
X385965350Y-11531700D01*
X385965350Y-11531700D02*
X386027255Y-11469795D01*
X386027255Y-11469795D02*
X386089160Y-11345985D01*
X386089160Y-11345985D02*
X386089160Y-11098366D01*
X386089160Y-11098366D02*
X386027255Y-10974557D01*
X386027255Y-10974557D02*
X385965350Y-10912652D01*
X385965350Y-10912652D02*
X385841541Y-10850747D01*
D10*
D11*
X60000000Y-267400000D02*
X60000000Y-269400000D01*
D10*
D11*
X110000000Y-267400000D02*
X110000000Y-269400000D01*
D10*
D11*
X160000000Y-267400000D02*
X160000000Y-269400000D01*
D10*
D11*
X210000000Y-267400000D02*
X210000000Y-269400000D01*
D10*
D11*
X260000000Y-267400000D02*
X260000000Y-269400000D01*
D10*
D11*
X310000000Y-267400000D02*
X310000000Y-269400000D01*
D10*
D11*
X360000000Y-267400000D02*
X360000000Y-269400000D01*
D10*
D11*
X410000000Y-267400000D02*
X410000000Y-269400000D01*
D10*
D11*
X36089160Y-268993604D02*
X35346303Y-268993604D01*
X35717731Y-268993604D02*
X35717731Y-267693604D01*
X35717731Y-267693604D02*
X35593922Y-267879319D01*
X35593922Y-267879319D02*
X35470112Y-268003128D01*
X35470112Y-268003128D02*
X35346303Y-268065033D01*
D10*
D11*
X85346303Y-267817414D02*
X85408207Y-267755509D01*
X85408207Y-267755509D02*
X85532017Y-267693604D01*
X85532017Y-267693604D02*
X85841541Y-267693604D01*
X85841541Y-267693604D02*
X85965350Y-267755509D01*
X85965350Y-267755509D02*
X86027255Y-267817414D01*
X86027255Y-267817414D02*
X86089160Y-267941223D01*
X86089160Y-267941223D02*
X86089160Y-268065033D01*
X86089160Y-268065033D02*
X86027255Y-268250747D01*
X86027255Y-268250747D02*
X85284398Y-268993604D01*
X85284398Y-268993604D02*
X86089160Y-268993604D01*
D10*
D11*
X135284398Y-267693604D02*
X136089160Y-267693604D01*
X136089160Y-267693604D02*
X135655826Y-268188842D01*
X135655826Y-268188842D02*
X135841541Y-268188842D01*
X135841541Y-268188842D02*
X135965350Y-268250747D01*
X135965350Y-268250747D02*
X136027255Y-268312652D01*
X136027255Y-268312652D02*
X136089160Y-268436461D01*
X136089160Y-268436461D02*
X136089160Y-268745985D01*
X136089160Y-268745985D02*
X136027255Y-268869795D01*
X136027255Y-268869795D02*
X135965350Y-268931700D01*
X135965350Y-268931700D02*
X135841541Y-268993604D01*
X135841541Y-268993604D02*
X135470112Y-268993604D01*
X135470112Y-268993604D02*
X135346303Y-268931700D01*
X135346303Y-268931700D02*
X135284398Y-268869795D01*
D10*
D11*
X185965350Y-268126938D02*
X185965350Y-268993604D01*
X185655826Y-267631700D02*
X185346303Y-268560271D01*
X185346303Y-268560271D02*
X186151064Y-268560271D01*
D10*
D11*
X236027255Y-267693604D02*
X235408207Y-267693604D01*
X235408207Y-267693604D02*
X235346303Y-268312652D01*
X235346303Y-268312652D02*
X235408207Y-268250747D01*
X235408207Y-268250747D02*
X235532017Y-268188842D01*
X235532017Y-268188842D02*
X235841541Y-268188842D01*
X235841541Y-268188842D02*
X235965350Y-268250747D01*
X235965350Y-268250747D02*
X236027255Y-268312652D01*
X236027255Y-268312652D02*
X236089160Y-268436461D01*
X236089160Y-268436461D02*
X236089160Y-268745985D01*
X236089160Y-268745985D02*
X236027255Y-268869795D01*
X236027255Y-268869795D02*
X235965350Y-268931700D01*
X235965350Y-268931700D02*
X235841541Y-268993604D01*
X235841541Y-268993604D02*
X235532017Y-268993604D01*
X235532017Y-268993604D02*
X235408207Y-268931700D01*
X235408207Y-268931700D02*
X235346303Y-268869795D01*
D10*
D11*
X285965350Y-267693604D02*
X285717731Y-267693604D01*
X285717731Y-267693604D02*
X285593922Y-267755509D01*
X285593922Y-267755509D02*
X285532017Y-267817414D01*
X285532017Y-267817414D02*
X285408207Y-268003128D01*
X285408207Y-268003128D02*
X285346303Y-268250747D01*
X285346303Y-268250747D02*
X285346303Y-268745985D01*
X285346303Y-268745985D02*
X285408207Y-268869795D01*
X285408207Y-268869795D02*
X285470112Y-268931700D01*
X285470112Y-268931700D02*
X285593922Y-268993604D01*
X285593922Y-268993604D02*
X285841541Y-268993604D01*
X285841541Y-268993604D02*
X285965350Y-268931700D01*
X285965350Y-268931700D02*
X286027255Y-268869795D01*
X286027255Y-268869795D02*
X286089160Y-268745985D01*
X286089160Y-268745985D02*
X286089160Y-268436461D01*
X286089160Y-268436461D02*
X286027255Y-268312652D01*
X286027255Y-268312652D02*
X285965350Y-268250747D01*
X285965350Y-268250747D02*
X285841541Y-268188842D01*
X285841541Y-268188842D02*
X285593922Y-268188842D01*
X285593922Y-268188842D02*
X285470112Y-268250747D01*
X285470112Y-268250747D02*
X285408207Y-268312652D01*
X285408207Y-268312652D02*
X285346303Y-268436461D01*
D10*
D11*
X335284398Y-267693604D02*
X336151064Y-267693604D01*
X336151064Y-267693604D02*
X335593922Y-268993604D01*
D10*
D11*
X385593922Y-268250747D02*
X385470112Y-268188842D01*
X385470112Y-268188842D02*
X385408207Y-268126938D01*
X385408207Y-268126938D02*
X385346303Y-268003128D01*
X385346303Y-268003128D02*
X385346303Y-267941223D01*
X385346303Y-267941223D02*
X385408207Y-267817414D01*
X385408207Y-267817414D02*
X385470112Y-267755509D01*
X385470112Y-267755509D02*
X385593922Y-267693604D01*
X385593922Y-267693604D02*
X385841541Y-267693604D01*
X385841541Y-267693604D02*
X385965350Y-267755509D01*
X385965350Y-267755509D02*
X386027255Y-267817414D01*
X386027255Y-267817414D02*
X386089160Y-267941223D01*
X386089160Y-267941223D02*
X386089160Y-268003128D01*
X386089160Y-268003128D02*
X386027255Y-268126938D01*
X386027255Y-268126938D02*
X385965350Y-268188842D01*
X385965350Y-268188842D02*
X385841541Y-268250747D01*
X385841541Y-268250747D02*
X385593922Y-268250747D01*
X385593922Y-268250747D02*
X385470112Y-268312652D01*
X385470112Y-268312652D02*
X385408207Y-268374557D01*
X385408207Y-268374557D02*
X385346303Y-268498366D01*
X385346303Y-268498366D02*
X385346303Y-268745985D01*
X385346303Y-268745985D02*
X385408207Y-268869795D01*
X385408207Y-268869795D02*
X385470112Y-268931700D01*
X385470112Y-268931700D02*
X385593922Y-268993604D01*
X385593922Y-268993604D02*
X385841541Y-268993604D01*
X385841541Y-268993604D02*
X385965350Y-268931700D01*
X385965350Y-268931700D02*
X386027255Y-268869795D01*
X386027255Y-268869795D02*
X386089160Y-268745985D01*
X386089160Y-268745985D02*
X386089160Y-268498366D01*
X386089160Y-268498366D02*
X386027255Y-268374557D01*
X386027255Y-268374557D02*
X385965350Y-268312652D01*
X385965350Y-268312652D02*
X385841541Y-268250747D01*
D10*
D11*
X10000000Y-60000000D02*
X12000000Y-60000000D01*
D10*
D11*
X10000000Y-110000000D02*
X12000000Y-110000000D01*
D10*
D11*
X10000000Y-160000000D02*
X12000000Y-160000000D01*
D10*
D11*
X10000000Y-210000000D02*
X12000000Y-210000000D01*
D10*
D11*
X10000000Y-260000000D02*
X12000000Y-260000000D01*
D10*
D11*
X10690476Y-35222176D02*
X11309523Y-35222176D01*
X10566666Y-35593604D02*
X10999999Y-34293604D01*
X10999999Y-34293604D02*
X11433333Y-35593604D01*
D10*
D11*
X11092857Y-84912652D02*
X11278571Y-84974557D01*
X11278571Y-84974557D02*
X11340476Y-85036461D01*
X11340476Y-85036461D02*
X11402380Y-85160271D01*
X11402380Y-85160271D02*
X11402380Y-85345985D01*
X11402380Y-85345985D02*
X11340476Y-85469795D01*
X11340476Y-85469795D02*
X11278571Y-85531700D01*
X11278571Y-85531700D02*
X11154761Y-85593604D01*
X11154761Y-85593604D02*
X10659523Y-85593604D01*
X10659523Y-85593604D02*
X10659523Y-84293604D01*
X10659523Y-84293604D02*
X11092857Y-84293604D01*
X11092857Y-84293604D02*
X11216666Y-84355509D01*
X11216666Y-84355509D02*
X11278571Y-84417414D01*
X11278571Y-84417414D02*
X11340476Y-84541223D01*
X11340476Y-84541223D02*
X11340476Y-84665033D01*
X11340476Y-84665033D02*
X11278571Y-84788842D01*
X11278571Y-84788842D02*
X11216666Y-84850747D01*
X11216666Y-84850747D02*
X11092857Y-84912652D01*
X11092857Y-84912652D02*
X10659523Y-84912652D01*
D10*
D11*
X11402380Y-135469795D02*
X11340476Y-135531700D01*
X11340476Y-135531700D02*
X11154761Y-135593604D01*
X11154761Y-135593604D02*
X11030952Y-135593604D01*
X11030952Y-135593604D02*
X10845238Y-135531700D01*
X10845238Y-135531700D02*
X10721428Y-135407890D01*
X10721428Y-135407890D02*
X10659523Y-135284080D01*
X10659523Y-135284080D02*
X10597619Y-135036461D01*
X10597619Y-135036461D02*
X10597619Y-134850747D01*
X10597619Y-134850747D02*
X10659523Y-134603128D01*
X10659523Y-134603128D02*
X10721428Y-134479319D01*
X10721428Y-134479319D02*
X10845238Y-134355509D01*
X10845238Y-134355509D02*
X11030952Y-134293604D01*
X11030952Y-134293604D02*
X11154761Y-134293604D01*
X11154761Y-134293604D02*
X11340476Y-134355509D01*
X11340476Y-134355509D02*
X11402380Y-134417414D01*
D10*
D11*
X10659523Y-185593604D02*
X10659523Y-184293604D01*
X10659523Y-184293604D02*
X10969047Y-184293604D01*
X10969047Y-184293604D02*
X11154761Y-184355509D01*
X11154761Y-184355509D02*
X11278571Y-184479319D01*
X11278571Y-184479319D02*
X11340476Y-184603128D01*
X11340476Y-184603128D02*
X11402380Y-184850747D01*
X11402380Y-184850747D02*
X11402380Y-185036461D01*
X11402380Y-185036461D02*
X11340476Y-185284080D01*
X11340476Y-185284080D02*
X11278571Y-185407890D01*
X11278571Y-185407890D02*
X11154761Y-185531700D01*
X11154761Y-185531700D02*
X10969047Y-185593604D01*
X10969047Y-185593604D02*
X10659523Y-185593604D01*
D10*
D11*
X10721428Y-234912652D02*
X11154762Y-234912652D01*
X11340476Y-235593604D02*
X10721428Y-235593604D01*
X10721428Y-235593604D02*
X10721428Y-234293604D01*
X10721428Y-234293604D02*
X11340476Y-234293604D01*
D10*
D11*
X421800000Y-60000000D02*
X419800000Y-60000000D01*
D10*
D11*
X421800000Y-110000000D02*
X419800000Y-110000000D01*
D10*
D11*
X421800000Y-160000000D02*
X419800000Y-160000000D01*
D10*
D11*
X421800000Y-210000000D02*
X419800000Y-210000000D01*
D10*
D11*
X421800000Y-260000000D02*
X419800000Y-260000000D01*
D10*
D11*
X420490476Y-35222176D02*
X421109523Y-35222176D01*
X420366666Y-35593604D02*
X420799999Y-34293604D01*
X420799999Y-34293604D02*
X421233333Y-35593604D01*
D10*
D11*
X420892857Y-84912652D02*
X421078571Y-84974557D01*
X421078571Y-84974557D02*
X421140476Y-85036461D01*
X421140476Y-85036461D02*
X421202380Y-85160271D01*
X421202380Y-85160271D02*
X421202380Y-85345985D01*
X421202380Y-85345985D02*
X421140476Y-85469795D01*
X421140476Y-85469795D02*
X421078571Y-85531700D01*
X421078571Y-85531700D02*
X420954761Y-85593604D01*
X420954761Y-85593604D02*
X420459523Y-85593604D01*
X420459523Y-85593604D02*
X420459523Y-84293604D01*
X420459523Y-84293604D02*
X420892857Y-84293604D01*
X420892857Y-84293604D02*
X421016666Y-84355509D01*
X421016666Y-84355509D02*
X421078571Y-84417414D01*
X421078571Y-84417414D02*
X421140476Y-84541223D01*
X421140476Y-84541223D02*
X421140476Y-84665033D01*
X421140476Y-84665033D02*
X421078571Y-84788842D01*
X421078571Y-84788842D02*
X421016666Y-84850747D01*
X421016666Y-84850747D02*
X420892857Y-84912652D01*
X420892857Y-84912652D02*
X420459523Y-84912652D01*
D10*
D11*
X421202380Y-135469795D02*
X421140476Y-135531700D01*
X421140476Y-135531700D02*
X420954761Y-135593604D01*
X420954761Y-135593604D02*
X420830952Y-135593604D01*
X420830952Y-135593604D02*
X420645238Y-135531700D01*
X420645238Y-135531700D02*
X420521428Y-135407890D01*
X420521428Y-135407890D02*
X420459523Y-135284080D01*
X420459523Y-135284080D02*
X420397619Y-135036461D01*
X420397619Y-135036461D02*
X420397619Y-134850747D01*
X420397619Y-134850747D02*
X420459523Y-134603128D01*
X420459523Y-134603128D02*
X420521428Y-134479319D01*
X420521428Y-134479319D02*
X420645238Y-134355509D01*
X420645238Y-134355509D02*
X420830952Y-134293604D01*
X420830952Y-134293604D02*
X420954761Y-134293604D01*
X420954761Y-134293604D02*
X421140476Y-134355509D01*
X421140476Y-134355509D02*
X421202380Y-134417414D01*
D10*
D11*
X420459523Y-185593604D02*
X420459523Y-184293604D01*
X420459523Y-184293604D02*
X420769047Y-184293604D01*
X420769047Y-184293604D02*
X420954761Y-184355509D01*
X420954761Y-184355509D02*
X421078571Y-184479319D01*
X421078571Y-184479319D02*
X421140476Y-184603128D01*
X421140476Y-184603128D02*
X421202380Y-184850747D01*
X421202380Y-184850747D02*
X421202380Y-185036461D01*
X421202380Y-185036461D02*
X421140476Y-185284080D01*
X421140476Y-185284080D02*
X421078571Y-185407890D01*
X421078571Y-185407890D02*
X420954761Y-185531700D01*
X420954761Y-185531700D02*
X420769047Y-185593604D01*
X420769047Y-185593604D02*
X420459523Y-185593604D01*
D10*
D11*
X420521428Y-234912652D02*
X420954762Y-234912652D01*
X421140476Y-235593604D02*
X420521428Y-235593604D01*
X420521428Y-235593604D02*
X420521428Y-234293604D01*
X420521428Y-234293604D02*
X421140476Y-234293604D01*
D10*
D11*
X335255826Y-263186128D02*
X335255826Y-261686128D01*
X335255826Y-261686128D02*
X335612969Y-261686128D01*
X335612969Y-261686128D02*
X335827255Y-261757557D01*
X335827255Y-261757557D02*
X335970112Y-261900414D01*
X335970112Y-261900414D02*
X336041541Y-262043271D01*
X336041541Y-262043271D02*
X336112969Y-262328985D01*
X336112969Y-262328985D02*
X336112969Y-262543271D01*
X336112969Y-262543271D02*
X336041541Y-262828985D01*
X336041541Y-262828985D02*
X335970112Y-262971842D01*
X335970112Y-262971842D02*
X335827255Y-263114700D01*
X335827255Y-263114700D02*
X335612969Y-263186128D01*
X335612969Y-263186128D02*
X335255826Y-263186128D01*
X337398684Y-263186128D02*
X337398684Y-262400414D01*
X337398684Y-262400414D02*
X337327255Y-262257557D01*
X337327255Y-262257557D02*
X337184398Y-262186128D01*
X337184398Y-262186128D02*
X336898684Y-262186128D01*
X336898684Y-262186128D02*
X336755826Y-262257557D01*
X337398684Y-263114700D02*
X337255826Y-263186128D01*
X337255826Y-263186128D02*
X336898684Y-263186128D01*
X336898684Y-263186128D02*
X336755826Y-263114700D01*
X336755826Y-263114700D02*
X336684398Y-262971842D01*
X336684398Y-262971842D02*
X336684398Y-262828985D01*
X336684398Y-262828985D02*
X336755826Y-262686128D01*
X336755826Y-262686128D02*
X336898684Y-262614700D01*
X336898684Y-262614700D02*
X337255826Y-262614700D01*
X337255826Y-262614700D02*
X337398684Y-262543271D01*
X337898684Y-262186128D02*
X338470112Y-262186128D01*
X338112969Y-261686128D02*
X338112969Y-262971842D01*
X338112969Y-262971842D02*
X338184398Y-263114700D01*
X338184398Y-263114700D02*
X338327255Y-263186128D01*
X338327255Y-263186128D02*
X338470112Y-263186128D01*
X339541541Y-263114700D02*
X339398684Y-263186128D01*
X339398684Y-263186128D02*
X339112970Y-263186128D01*
X339112970Y-263186128D02*
X338970112Y-263114700D01*
X338970112Y-263114700D02*
X338898684Y-262971842D01*
X338898684Y-262971842D02*
X338898684Y-262400414D01*
X338898684Y-262400414D02*
X338970112Y-262257557D01*
X338970112Y-262257557D02*
X339112970Y-262186128D01*
X339112970Y-262186128D02*
X339398684Y-262186128D01*
X339398684Y-262186128D02*
X339541541Y-262257557D01*
X339541541Y-262257557D02*
X339612970Y-262400414D01*
X339612970Y-262400414D02*
X339612970Y-262543271D01*
X339612970Y-262543271D02*
X338898684Y-262686128D01*
X340255826Y-263043271D02*
X340327255Y-263114700D01*
X340327255Y-263114700D02*
X340255826Y-263186128D01*
X340255826Y-263186128D02*
X340184398Y-263114700D01*
X340184398Y-263114700D02*
X340255826Y-263043271D01*
X340255826Y-263043271D02*
X340255826Y-263186128D01*
X340255826Y-262257557D02*
X340327255Y-262328985D01*
X340327255Y-262328985D02*
X340255826Y-262400414D01*
X340255826Y-262400414D02*
X340184398Y-262328985D01*
X340184398Y-262328985D02*
X340255826Y-262257557D01*
X340255826Y-262257557D02*
X340255826Y-262400414D01*
X342041541Y-261828985D02*
X342112969Y-261757557D01*
X342112969Y-261757557D02*
X342255827Y-261686128D01*
X342255827Y-261686128D02*
X342612969Y-261686128D01*
X342612969Y-261686128D02*
X342755827Y-261757557D01*
X342755827Y-261757557D02*
X342827255Y-261828985D01*
X342827255Y-261828985D02*
X342898684Y-261971842D01*
X342898684Y-261971842D02*
X342898684Y-262114700D01*
X342898684Y-262114700D02*
X342827255Y-262328985D01*
X342827255Y-262328985D02*
X341970112Y-263186128D01*
X341970112Y-263186128D02*
X342898684Y-263186128D01*
X343827255Y-261686128D02*
X343970112Y-261686128D01*
X343970112Y-261686128D02*
X344112969Y-261757557D01*
X344112969Y-261757557D02*
X344184398Y-261828985D01*
X344184398Y-261828985D02*
X344255826Y-261971842D01*
X344255826Y-261971842D02*
X344327255Y-262257557D01*
X344327255Y-262257557D02*
X344327255Y-262614700D01*
X344327255Y-262614700D02*
X344255826Y-262900414D01*
X344255826Y-262900414D02*
X344184398Y-263043271D01*
X344184398Y-263043271D02*
X344112969Y-263114700D01*
X344112969Y-263114700D02*
X343970112Y-263186128D01*
X343970112Y-263186128D02*
X343827255Y-263186128D01*
X343827255Y-263186128D02*
X343684398Y-263114700D01*
X343684398Y-263114700D02*
X343612969Y-263043271D01*
X343612969Y-263043271D02*
X343541540Y-262900414D01*
X343541540Y-262900414D02*
X343470112Y-262614700D01*
X343470112Y-262614700D02*
X343470112Y-262257557D01*
X343470112Y-262257557D02*
X343541540Y-261971842D01*
X343541540Y-261971842D02*
X343612969Y-261828985D01*
X343612969Y-261828985D02*
X343684398Y-261757557D01*
X343684398Y-261757557D02*
X343827255Y-261686128D01*
X344898683Y-261828985D02*
X344970111Y-261757557D01*
X344970111Y-261757557D02*
X345112969Y-261686128D01*
X345112969Y-261686128D02*
X345470111Y-261686128D01*
X345470111Y-261686128D02*
X345612969Y-261757557D01*
X345612969Y-261757557D02*
X345684397Y-261828985D01*
X345684397Y-261828985D02*
X345755826Y-261971842D01*
X345755826Y-261971842D02*
X345755826Y-262114700D01*
X345755826Y-262114700D02*
X345684397Y-262328985D01*
X345684397Y-262328985D02*
X344827254Y-263186128D01*
X344827254Y-263186128D02*
X345755826Y-263186128D01*
X347041540Y-262186128D02*
X347041540Y-263186128D01*
X346684397Y-261614700D02*
X346327254Y-262686128D01*
X346327254Y-262686128D02*
X347255825Y-262686128D01*
X347827253Y-262614700D02*
X348970111Y-262614700D01*
X349970111Y-261686128D02*
X350112968Y-261686128D01*
X350112968Y-261686128D02*
X350255825Y-261757557D01*
X350255825Y-261757557D02*
X350327254Y-261828985D01*
X350327254Y-261828985D02*
X350398682Y-261971842D01*
X350398682Y-261971842D02*
X350470111Y-262257557D01*
X350470111Y-262257557D02*
X350470111Y-262614700D01*
X350470111Y-262614700D02*
X350398682Y-262900414D01*
X350398682Y-262900414D02*
X350327254Y-263043271D01*
X350327254Y-263043271D02*
X350255825Y-263114700D01*
X350255825Y-263114700D02*
X350112968Y-263186128D01*
X350112968Y-263186128D02*
X349970111Y-263186128D01*
X349970111Y-263186128D02*
X349827254Y-263114700D01*
X349827254Y-263114700D02*
X349755825Y-263043271D01*
X349755825Y-263043271D02*
X349684396Y-262900414D01*
X349684396Y-262900414D02*
X349612968Y-262614700D01*
X349612968Y-262614700D02*
X349612968Y-262257557D01*
X349612968Y-262257557D02*
X349684396Y-261971842D01*
X349684396Y-261971842D02*
X349755825Y-261828985D01*
X349755825Y-261828985D02*
X349827254Y-261757557D01*
X349827254Y-261757557D02*
X349970111Y-261686128D01*
X351755825Y-261686128D02*
X351470110Y-261686128D01*
X351470110Y-261686128D02*
X351327253Y-261757557D01*
X351327253Y-261757557D02*
X351255825Y-261828985D01*
X351255825Y-261828985D02*
X351112967Y-262043271D01*
X351112967Y-262043271D02*
X351041539Y-262328985D01*
X351041539Y-262328985D02*
X351041539Y-262900414D01*
X351041539Y-262900414D02*
X351112967Y-263043271D01*
X351112967Y-263043271D02*
X351184396Y-263114700D01*
X351184396Y-263114700D02*
X351327253Y-263186128D01*
X351327253Y-263186128D02*
X351612967Y-263186128D01*
X351612967Y-263186128D02*
X351755825Y-263114700D01*
X351755825Y-263114700D02*
X351827253Y-263043271D01*
X351827253Y-263043271D02*
X351898682Y-262900414D01*
X351898682Y-262900414D02*
X351898682Y-262543271D01*
X351898682Y-262543271D02*
X351827253Y-262400414D01*
X351827253Y-262400414D02*
X351755825Y-262328985D01*
X351755825Y-262328985D02*
X351612967Y-262257557D01*
X351612967Y-262257557D02*
X351327253Y-262257557D01*
X351327253Y-262257557D02*
X351184396Y-262328985D01*
X351184396Y-262328985D02*
X351112967Y-262400414D01*
X351112967Y-262400414D02*
X351041539Y-262543271D01*
X352541538Y-262614700D02*
X353684396Y-262614700D01*
X354327253Y-261828985D02*
X354398681Y-261757557D01*
X354398681Y-261757557D02*
X354541539Y-261686128D01*
X354541539Y-261686128D02*
X354898681Y-261686128D01*
X354898681Y-261686128D02*
X355041539Y-261757557D01*
X355041539Y-261757557D02*
X355112967Y-261828985D01*
X355112967Y-261828985D02*
X355184396Y-261971842D01*
X355184396Y-261971842D02*
X355184396Y-262114700D01*
X355184396Y-262114700D02*
X355112967Y-262328985D01*
X355112967Y-262328985D02*
X354255824Y-263186128D01*
X354255824Y-263186128D02*
X355184396Y-263186128D01*
X355755824Y-261828985D02*
X355827252Y-261757557D01*
X355827252Y-261757557D02*
X355970110Y-261686128D01*
X355970110Y-261686128D02*
X356327252Y-261686128D01*
X356327252Y-261686128D02*
X356470110Y-261757557D01*
X356470110Y-261757557D02*
X356541538Y-261828985D01*
X356541538Y-261828985D02*
X356612967Y-261971842D01*
X356612967Y-261971842D02*
X356612967Y-262114700D01*
X356612967Y-262114700D02*
X356541538Y-262328985D01*
X356541538Y-262328985D02*
X355684395Y-263186128D01*
X355684395Y-263186128D02*
X356612967Y-263186128D01*
D10*
D11*
X311800000Y-263900000D02*
X419800000Y-263900000D01*
D10*
D11*
X313255826Y-265986128D02*
X313255826Y-264486128D01*
X314112969Y-265986128D02*
X313470112Y-265128985D01*
X314112969Y-264486128D02*
X313255826Y-265343271D01*
X314755826Y-265986128D02*
X314755826Y-264986128D01*
X314755826Y-264486128D02*
X314684398Y-264557557D01*
X314684398Y-264557557D02*
X314755826Y-264628985D01*
X314755826Y-264628985D02*
X314827255Y-264557557D01*
X314827255Y-264557557D02*
X314755826Y-264486128D01*
X314755826Y-264486128D02*
X314755826Y-264628985D01*
X316327255Y-265843271D02*
X316255827Y-265914700D01*
X316255827Y-265914700D02*
X316041541Y-265986128D01*
X316041541Y-265986128D02*
X315898684Y-265986128D01*
X315898684Y-265986128D02*
X315684398Y-265914700D01*
X315684398Y-265914700D02*
X315541541Y-265771842D01*
X315541541Y-265771842D02*
X315470112Y-265628985D01*
X315470112Y-265628985D02*
X315398684Y-265343271D01*
X315398684Y-265343271D02*
X315398684Y-265128985D01*
X315398684Y-265128985D02*
X315470112Y-264843271D01*
X315470112Y-264843271D02*
X315541541Y-264700414D01*
X315541541Y-264700414D02*
X315684398Y-264557557D01*
X315684398Y-264557557D02*
X315898684Y-264486128D01*
X315898684Y-264486128D02*
X316041541Y-264486128D01*
X316041541Y-264486128D02*
X316255827Y-264557557D01*
X316255827Y-264557557D02*
X316327255Y-264628985D01*
X317612970Y-265986128D02*
X317612970Y-265200414D01*
X317612970Y-265200414D02*
X317541541Y-265057557D01*
X317541541Y-265057557D02*
X317398684Y-264986128D01*
X317398684Y-264986128D02*
X317112970Y-264986128D01*
X317112970Y-264986128D02*
X316970112Y-265057557D01*
X317612970Y-265914700D02*
X317470112Y-265986128D01*
X317470112Y-265986128D02*
X317112970Y-265986128D01*
X317112970Y-265986128D02*
X316970112Y-265914700D01*
X316970112Y-265914700D02*
X316898684Y-265771842D01*
X316898684Y-265771842D02*
X316898684Y-265628985D01*
X316898684Y-265628985D02*
X316970112Y-265486128D01*
X316970112Y-265486128D02*
X317112970Y-265414700D01*
X317112970Y-265414700D02*
X317470112Y-265414700D01*
X317470112Y-265414700D02*
X317612970Y-265343271D01*
X318970113Y-265986128D02*
X318970113Y-264486128D01*
X318970113Y-265914700D02*
X318827255Y-265986128D01*
X318827255Y-265986128D02*
X318541541Y-265986128D01*
X318541541Y-265986128D02*
X318398684Y-265914700D01*
X318398684Y-265914700D02*
X318327255Y-265843271D01*
X318327255Y-265843271D02*
X318255827Y-265700414D01*
X318255827Y-265700414D02*
X318255827Y-265271842D01*
X318255827Y-265271842D02*
X318327255Y-265128985D01*
X318327255Y-265128985D02*
X318398684Y-265057557D01*
X318398684Y-265057557D02*
X318541541Y-264986128D01*
X318541541Y-264986128D02*
X318827255Y-264986128D01*
X318827255Y-264986128D02*
X318970113Y-265057557D01*
X320827255Y-265200414D02*
X321327255Y-265200414D01*
X321541541Y-265986128D02*
X320827255Y-265986128D01*
X320827255Y-265986128D02*
X320827255Y-264486128D01*
X320827255Y-264486128D02*
X321541541Y-264486128D01*
X322184398Y-265843271D02*
X322255827Y-265914700D01*
X322255827Y-265914700D02*
X322184398Y-265986128D01*
X322184398Y-265986128D02*
X322112970Y-265914700D01*
X322112970Y-265914700D02*
X322184398Y-265843271D01*
X322184398Y-265843271D02*
X322184398Y-265986128D01*
X322898684Y-265986128D02*
X322898684Y-264486128D01*
X322898684Y-264486128D02*
X323255827Y-264486128D01*
X323255827Y-264486128D02*
X323470113Y-264557557D01*
X323470113Y-264557557D02*
X323612970Y-264700414D01*
X323612970Y-264700414D02*
X323684399Y-264843271D01*
X323684399Y-264843271D02*
X323755827Y-265128985D01*
X323755827Y-265128985D02*
X323755827Y-265343271D01*
X323755827Y-265343271D02*
X323684399Y-265628985D01*
X323684399Y-265628985D02*
X323612970Y-265771842D01*
X323612970Y-265771842D02*
X323470113Y-265914700D01*
X323470113Y-265914700D02*
X323255827Y-265986128D01*
X323255827Y-265986128D02*
X322898684Y-265986128D01*
X324398684Y-265843271D02*
X324470113Y-265914700D01*
X324470113Y-265914700D02*
X324398684Y-265986128D01*
X324398684Y-265986128D02*
X324327256Y-265914700D01*
X324327256Y-265914700D02*
X324398684Y-265843271D01*
X324398684Y-265843271D02*
X324398684Y-265986128D01*
X325041542Y-265557557D02*
X325755828Y-265557557D01*
X324898685Y-265986128D02*
X325398685Y-264486128D01*
X325398685Y-264486128D02*
X325898685Y-265986128D01*
X326398684Y-265843271D02*
X326470113Y-265914700D01*
X326470113Y-265914700D02*
X326398684Y-265986128D01*
X326398684Y-265986128D02*
X326327256Y-265914700D01*
X326327256Y-265914700D02*
X326398684Y-265843271D01*
X326398684Y-265843271D02*
X326398684Y-265986128D01*
X328470113Y-265128985D02*
X328327256Y-265057557D01*
X328327256Y-265057557D02*
X328255827Y-264986128D01*
X328255827Y-264986128D02*
X328184399Y-264843271D01*
X328184399Y-264843271D02*
X328184399Y-264771842D01*
X328184399Y-264771842D02*
X328255827Y-264628985D01*
X328255827Y-264628985D02*
X328327256Y-264557557D01*
X328327256Y-264557557D02*
X328470113Y-264486128D01*
X328470113Y-264486128D02*
X328755827Y-264486128D01*
X328755827Y-264486128D02*
X328898685Y-264557557D01*
X328898685Y-264557557D02*
X328970113Y-264628985D01*
X328970113Y-264628985D02*
X329041542Y-264771842D01*
X329041542Y-264771842D02*
X329041542Y-264843271D01*
X329041542Y-264843271D02*
X328970113Y-264986128D01*
X328970113Y-264986128D02*
X328898685Y-265057557D01*
X328898685Y-265057557D02*
X328755827Y-265128985D01*
X328755827Y-265128985D02*
X328470113Y-265128985D01*
X328470113Y-265128985D02*
X328327256Y-265200414D01*
X328327256Y-265200414D02*
X328255827Y-265271842D01*
X328255827Y-265271842D02*
X328184399Y-265414700D01*
X328184399Y-265414700D02*
X328184399Y-265700414D01*
X328184399Y-265700414D02*
X328255827Y-265843271D01*
X328255827Y-265843271D02*
X328327256Y-265914700D01*
X328327256Y-265914700D02*
X328470113Y-265986128D01*
X328470113Y-265986128D02*
X328755827Y-265986128D01*
X328755827Y-265986128D02*
X328898685Y-265914700D01*
X328898685Y-265914700D02*
X328970113Y-265843271D01*
X328970113Y-265843271D02*
X329041542Y-265700414D01*
X329041542Y-265700414D02*
X329041542Y-265414700D01*
X329041542Y-265414700D02*
X328970113Y-265271842D01*
X328970113Y-265271842D02*
X328898685Y-265200414D01*
X328898685Y-265200414D02*
X328755827Y-265128985D01*
X329684398Y-265843271D02*
X329755827Y-265914700D01*
X329755827Y-265914700D02*
X329684398Y-265986128D01*
X329684398Y-265986128D02*
X329612970Y-265914700D01*
X329612970Y-265914700D02*
X329684398Y-265843271D01*
X329684398Y-265843271D02*
X329684398Y-265986128D01*
X330684399Y-264486128D02*
X330827256Y-264486128D01*
X330827256Y-264486128D02*
X330970113Y-264557557D01*
X330970113Y-264557557D02*
X331041542Y-264628985D01*
X331041542Y-264628985D02*
X331112970Y-264771842D01*
X331112970Y-264771842D02*
X331184399Y-265057557D01*
X331184399Y-265057557D02*
X331184399Y-265414700D01*
X331184399Y-265414700D02*
X331112970Y-265700414D01*
X331112970Y-265700414D02*
X331041542Y-265843271D01*
X331041542Y-265843271D02*
X330970113Y-265914700D01*
X330970113Y-265914700D02*
X330827256Y-265986128D01*
X330827256Y-265986128D02*
X330684399Y-265986128D01*
X330684399Y-265986128D02*
X330541542Y-265914700D01*
X330541542Y-265914700D02*
X330470113Y-265843271D01*
X330470113Y-265843271D02*
X330398684Y-265700414D01*
X330398684Y-265700414D02*
X330327256Y-265414700D01*
X330327256Y-265414700D02*
X330327256Y-265057557D01*
X330327256Y-265057557D02*
X330398684Y-264771842D01*
X330398684Y-264771842D02*
X330470113Y-264628985D01*
X330470113Y-264628985D02*
X330541542Y-264557557D01*
X330541542Y-264557557D02*
X330684399Y-264486128D01*
X331827255Y-265843271D02*
X331898684Y-265914700D01*
X331898684Y-265914700D02*
X331827255Y-265986128D01*
X331827255Y-265986128D02*
X331755827Y-265914700D01*
X331755827Y-265914700D02*
X331827255Y-265843271D01*
X331827255Y-265843271D02*
X331827255Y-265986128D01*
X332398684Y-264486128D02*
X333327256Y-264486128D01*
X333327256Y-264486128D02*
X332827256Y-265057557D01*
X332827256Y-265057557D02*
X333041541Y-265057557D01*
X333041541Y-265057557D02*
X333184399Y-265128985D01*
X333184399Y-265128985D02*
X333255827Y-265200414D01*
X333255827Y-265200414D02*
X333327256Y-265343271D01*
X333327256Y-265343271D02*
X333327256Y-265700414D01*
X333327256Y-265700414D02*
X333255827Y-265843271D01*
X333255827Y-265843271D02*
X333184399Y-265914700D01*
X333184399Y-265914700D02*
X333041541Y-265986128D01*
X333041541Y-265986128D02*
X332612970Y-265986128D01*
X332612970Y-265986128D02*
X332470113Y-265914700D01*
X332470113Y-265914700D02*
X332398684Y-265843271D01*
D10*
D11*
X311800000Y-260900000D02*
X419800000Y-260900000D01*
D10*
D12*
X399211653Y-263178328D02*
X398711653Y-262464042D01*
X398354510Y-263178328D02*
X398354510Y-261678328D01*
X398354510Y-261678328D02*
X398925939Y-261678328D01*
X398925939Y-261678328D02*
X399068796Y-261749757D01*
X399068796Y-261749757D02*
X399140225Y-261821185D01*
X399140225Y-261821185D02*
X399211653Y-261964042D01*
X399211653Y-261964042D02*
X399211653Y-262178328D01*
X399211653Y-262178328D02*
X399140225Y-262321185D01*
X399140225Y-262321185D02*
X399068796Y-262392614D01*
X399068796Y-262392614D02*
X398925939Y-262464042D01*
X398925939Y-262464042D02*
X398354510Y-262464042D01*
X400425939Y-263106900D02*
X400283082Y-263178328D01*
X400283082Y-263178328D02*
X399997368Y-263178328D01*
X399997368Y-263178328D02*
X399854510Y-263106900D01*
X399854510Y-263106900D02*
X399783082Y-262964042D01*
X399783082Y-262964042D02*
X399783082Y-262392614D01*
X399783082Y-262392614D02*
X399854510Y-262249757D01*
X399854510Y-262249757D02*
X399997368Y-262178328D01*
X399997368Y-262178328D02*
X400283082Y-262178328D01*
X400283082Y-262178328D02*
X400425939Y-262249757D01*
X400425939Y-262249757D02*
X400497368Y-262392614D01*
X400497368Y-262392614D02*
X400497368Y-262535471D01*
X400497368Y-262535471D02*
X399783082Y-262678328D01*
X400997367Y-262178328D02*
X401354510Y-263178328D01*
X401354510Y-263178328D02*
X401711653Y-262178328D01*
X402283081Y-263035471D02*
X402354510Y-263106900D01*
X402354510Y-263106900D02*
X402283081Y-263178328D01*
X402283081Y-263178328D02*
X402211653Y-263106900D01*
X402211653Y-263106900D02*
X402283081Y-263035471D01*
X402283081Y-263035471D02*
X402283081Y-263178328D01*
X402283081Y-262249757D02*
X402354510Y-262321185D01*
X402354510Y-262321185D02*
X402283081Y-262392614D01*
X402283081Y-262392614D02*
X402211653Y-262321185D01*
X402211653Y-262321185D02*
X402283081Y-262249757D01*
X402283081Y-262249757D02*
X402283081Y-262392614D01*
X404140224Y-263178328D02*
X404140224Y-261678328D01*
X404140224Y-261678328D02*
X404497367Y-261678328D01*
X404497367Y-261678328D02*
X404711653Y-261749757D01*
X404711653Y-261749757D02*
X404854510Y-261892614D01*
X404854510Y-261892614D02*
X404925939Y-262035471D01*
X404925939Y-262035471D02*
X404997367Y-262321185D01*
X404997367Y-262321185D02*
X404997367Y-262535471D01*
X404997367Y-262535471D02*
X404925939Y-262821185D01*
X404925939Y-262821185D02*
X404854510Y-262964042D01*
X404854510Y-262964042D02*
X404711653Y-263106900D01*
X404711653Y-263106900D02*
X404497367Y-263178328D01*
X404497367Y-263178328D02*
X404140224Y-263178328D01*
D10*
D11*
X313184398Y-263114700D02*
X313398684Y-263186128D01*
X313398684Y-263186128D02*
X313755826Y-263186128D01*
X313755826Y-263186128D02*
X313898684Y-263114700D01*
X313898684Y-263114700D02*
X313970112Y-263043271D01*
X313970112Y-263043271D02*
X314041541Y-262900414D01*
X314041541Y-262900414D02*
X314041541Y-262757557D01*
X314041541Y-262757557D02*
X313970112Y-262614700D01*
X313970112Y-262614700D02*
X313898684Y-262543271D01*
X313898684Y-262543271D02*
X313755826Y-262471842D01*
X313755826Y-262471842D02*
X313470112Y-262400414D01*
X313470112Y-262400414D02*
X313327255Y-262328985D01*
X313327255Y-262328985D02*
X313255826Y-262257557D01*
X313255826Y-262257557D02*
X313184398Y-262114700D01*
X313184398Y-262114700D02*
X313184398Y-261971842D01*
X313184398Y-261971842D02*
X313255826Y-261828985D01*
X313255826Y-261828985D02*
X313327255Y-261757557D01*
X313327255Y-261757557D02*
X313470112Y-261686128D01*
X313470112Y-261686128D02*
X313827255Y-261686128D01*
X313827255Y-261686128D02*
X314041541Y-261757557D01*
X314684397Y-263186128D02*
X314684397Y-262186128D01*
X314684397Y-261686128D02*
X314612969Y-261757557D01*
X314612969Y-261757557D02*
X314684397Y-261828985D01*
X314684397Y-261828985D02*
X314755826Y-261757557D01*
X314755826Y-261757557D02*
X314684397Y-261686128D01*
X314684397Y-261686128D02*
X314684397Y-261828985D01*
X315255826Y-262186128D02*
X316041541Y-262186128D01*
X316041541Y-262186128D02*
X315255826Y-263186128D01*
X315255826Y-263186128D02*
X316041541Y-263186128D01*
X317184398Y-263114700D02*
X317041541Y-263186128D01*
X317041541Y-263186128D02*
X316755827Y-263186128D01*
X316755827Y-263186128D02*
X316612969Y-263114700D01*
X316612969Y-263114700D02*
X316541541Y-262971842D01*
X316541541Y-262971842D02*
X316541541Y-262400414D01*
X316541541Y-262400414D02*
X316612969Y-262257557D01*
X316612969Y-262257557D02*
X316755827Y-262186128D01*
X316755827Y-262186128D02*
X317041541Y-262186128D01*
X317041541Y-262186128D02*
X317184398Y-262257557D01*
X317184398Y-262257557D02*
X317255827Y-262400414D01*
X317255827Y-262400414D02*
X317255827Y-262543271D01*
X317255827Y-262543271D02*
X316541541Y-262686128D01*
X317898683Y-263043271D02*
X317970112Y-263114700D01*
X317970112Y-263114700D02*
X317898683Y-263186128D01*
X317898683Y-263186128D02*
X317827255Y-263114700D01*
X317827255Y-263114700D02*
X317898683Y-263043271D01*
X317898683Y-263043271D02*
X317898683Y-263186128D01*
X317898683Y-262257557D02*
X317970112Y-262328985D01*
X317970112Y-262328985D02*
X317898683Y-262400414D01*
X317898683Y-262400414D02*
X317827255Y-262328985D01*
X317827255Y-262328985D02*
X317898683Y-262257557D01*
X317898683Y-262257557D02*
X317898683Y-262400414D01*
X320255826Y-262400414D02*
X320470112Y-262471842D01*
X320470112Y-262471842D02*
X320541541Y-262543271D01*
X320541541Y-262543271D02*
X320612969Y-262686128D01*
X320612969Y-262686128D02*
X320612969Y-262900414D01*
X320612969Y-262900414D02*
X320541541Y-263043271D01*
X320541541Y-263043271D02*
X320470112Y-263114700D01*
X320470112Y-263114700D02*
X320327255Y-263186128D01*
X320327255Y-263186128D02*
X319755826Y-263186128D01*
X319755826Y-263186128D02*
X319755826Y-261686128D01*
X319755826Y-261686128D02*
X320255826Y-261686128D01*
X320255826Y-261686128D02*
X320398684Y-261757557D01*
X320398684Y-261757557D02*
X320470112Y-261828985D01*
X320470112Y-261828985D02*
X320541541Y-261971842D01*
X320541541Y-261971842D02*
X320541541Y-262114700D01*
X320541541Y-262114700D02*
X320470112Y-262257557D01*
X320470112Y-262257557D02*
X320398684Y-262328985D01*
X320398684Y-262328985D02*
X320255826Y-262400414D01*
X320255826Y-262400414D02*
X319755826Y-262400414D01*
D10*
D11*
X398255826Y-265986128D02*
X398255826Y-264486128D01*
X399612970Y-265986128D02*
X399612970Y-264486128D01*
X399612970Y-265914700D02*
X399470112Y-265986128D01*
X399470112Y-265986128D02*
X399184398Y-265986128D01*
X399184398Y-265986128D02*
X399041541Y-265914700D01*
X399041541Y-265914700D02*
X398970112Y-265843271D01*
X398970112Y-265843271D02*
X398898684Y-265700414D01*
X398898684Y-265700414D02*
X398898684Y-265271842D01*
X398898684Y-265271842D02*
X398970112Y-265128985D01*
X398970112Y-265128985D02*
X399041541Y-265057557D01*
X399041541Y-265057557D02*
X399184398Y-264986128D01*
X399184398Y-264986128D02*
X399470112Y-264986128D01*
X399470112Y-264986128D02*
X399612970Y-265057557D01*
X400327255Y-265843271D02*
X400398684Y-265914700D01*
X400398684Y-265914700D02*
X400327255Y-265986128D01*
X400327255Y-265986128D02*
X400255827Y-265914700D01*
X400255827Y-265914700D02*
X400327255Y-265843271D01*
X400327255Y-265843271D02*
X400327255Y-265986128D01*
X400327255Y-265057557D02*
X400398684Y-265128985D01*
X400398684Y-265128985D02*
X400327255Y-265200414D01*
X400327255Y-265200414D02*
X400255827Y-265128985D01*
X400255827Y-265128985D02*
X400327255Y-265057557D01*
X400327255Y-265057557D02*
X400327255Y-265200414D01*
X402970113Y-265986128D02*
X402112970Y-265986128D01*
X402541541Y-265986128D02*
X402541541Y-264486128D01*
X402541541Y-264486128D02*
X402398684Y-264700414D01*
X402398684Y-264700414D02*
X402255827Y-264843271D01*
X402255827Y-264843271D02*
X402112970Y-264914700D01*
X404684398Y-264414700D02*
X403398684Y-266343271D01*
X405970113Y-265986128D02*
X405112970Y-265986128D01*
X405541541Y-265986128D02*
X405541541Y-264486128D01*
X405541541Y-264486128D02*
X405398684Y-264700414D01*
X405398684Y-264700414D02*
X405255827Y-264843271D01*
X405255827Y-264843271D02*
X405112970Y-264914700D01*
D10*
D11*
X311800000Y-256900000D02*
X419800000Y-256900000D01*
D10*
D13*
X313491728Y-257604438D02*
X314634585Y-257604438D01*
X313813157Y-259604438D02*
X314063157Y-257604438D01*
X315051252Y-259604438D02*
X315217919Y-258271104D01*
X315301252Y-257604438D02*
X315194109Y-257699676D01*
X315194109Y-257699676D02*
X315277443Y-257794914D01*
X315277443Y-257794914D02*
X315384586Y-257699676D01*
X315384586Y-257699676D02*
X315301252Y-257604438D01*
X315301252Y-257604438D02*
X315277443Y-257794914D01*
X315884586Y-258271104D02*
X316646490Y-258271104D01*
X316253633Y-257604438D02*
X316039348Y-259318723D01*
X316039348Y-259318723D02*
X316110776Y-259509200D01*
X316110776Y-259509200D02*
X316289348Y-259604438D01*
X316289348Y-259604438D02*
X316479824Y-259604438D01*
X317432205Y-259604438D02*
X317253633Y-259509200D01*
X317253633Y-259509200D02*
X317182205Y-259318723D01*
X317182205Y-259318723D02*
X317396490Y-257604438D01*
X318967919Y-259509200D02*
X318765538Y-259604438D01*
X318765538Y-259604438D02*
X318384585Y-259604438D01*
X318384585Y-259604438D02*
X318206014Y-259509200D01*
X318206014Y-259509200D02*
X318134585Y-259318723D01*
X318134585Y-259318723D02*
X318229824Y-258556819D01*
X318229824Y-258556819D02*
X318348871Y-258366342D01*
X318348871Y-258366342D02*
X318551252Y-258271104D01*
X318551252Y-258271104D02*
X318932204Y-258271104D01*
X318932204Y-258271104D02*
X319110776Y-258366342D01*
X319110776Y-258366342D02*
X319182204Y-258556819D01*
X319182204Y-258556819D02*
X319158395Y-258747295D01*
X319158395Y-258747295D02*
X318182204Y-258937771D01*
X319932205Y-259413961D02*
X320015538Y-259509200D01*
X320015538Y-259509200D02*
X319908395Y-259604438D01*
X319908395Y-259604438D02*
X319825062Y-259509200D01*
X319825062Y-259509200D02*
X319932205Y-259413961D01*
X319932205Y-259413961D02*
X319908395Y-259604438D01*
X320063157Y-258366342D02*
X320146490Y-258461580D01*
X320146490Y-258461580D02*
X320039348Y-258556819D01*
X320039348Y-258556819D02*
X319956014Y-258461580D01*
X319956014Y-258461580D02*
X320063157Y-258366342D01*
X320063157Y-258366342D02*
X320039348Y-258556819D01*
X322360777Y-259033009D02*
X323313158Y-259033009D01*
X322098872Y-259604438D02*
X323015539Y-257604438D01*
X323015539Y-257604438D02*
X323432205Y-259604438D01*
X324098872Y-259604438D02*
X324348872Y-257604438D01*
X324348872Y-257604438D02*
X324825063Y-257604438D01*
X324825063Y-257604438D02*
X325098872Y-257699676D01*
X325098872Y-257699676D02*
X325265539Y-257890152D01*
X325265539Y-257890152D02*
X325336967Y-258080628D01*
X325336967Y-258080628D02*
X325384587Y-258461580D01*
X325384587Y-258461580D02*
X325348872Y-258747295D01*
X325348872Y-258747295D02*
X325206015Y-259128247D01*
X325206015Y-259128247D02*
X325086967Y-259318723D01*
X325086967Y-259318723D02*
X324872682Y-259509200D01*
X324872682Y-259509200D02*
X324575063Y-259604438D01*
X324575063Y-259604438D02*
X324098872Y-259604438D01*
X326015539Y-259509200D02*
X326289348Y-259604438D01*
X326289348Y-259604438D02*
X326765539Y-259604438D01*
X326765539Y-259604438D02*
X326967920Y-259509200D01*
X326967920Y-259509200D02*
X327075063Y-259413961D01*
X327075063Y-259413961D02*
X327194110Y-259223485D01*
X327194110Y-259223485D02*
X327217920Y-259033009D01*
X327217920Y-259033009D02*
X327146491Y-258842533D01*
X327146491Y-258842533D02*
X327063158Y-258747295D01*
X327063158Y-258747295D02*
X326884587Y-258652057D01*
X326884587Y-258652057D02*
X326515539Y-258556819D01*
X326515539Y-258556819D02*
X326336967Y-258461580D01*
X326336967Y-258461580D02*
X326253634Y-258366342D01*
X326253634Y-258366342D02*
X326182206Y-258175866D01*
X326182206Y-258175866D02*
X326206015Y-257985390D01*
X326206015Y-257985390D02*
X326325063Y-257794914D01*
X326325063Y-257794914D02*
X326432206Y-257699676D01*
X326432206Y-257699676D02*
X326634587Y-257604438D01*
X326634587Y-257604438D02*
X327110777Y-257604438D01*
X327110777Y-257604438D02*
X327384587Y-257699676D01*
X328801253Y-258556819D02*
X329075063Y-258652057D01*
X329075063Y-258652057D02*
X329158396Y-258747295D01*
X329158396Y-258747295D02*
X329229825Y-258937771D01*
X329229825Y-258937771D02*
X329194110Y-259223485D01*
X329194110Y-259223485D02*
X329075063Y-259413961D01*
X329075063Y-259413961D02*
X328967920Y-259509200D01*
X328967920Y-259509200D02*
X328765539Y-259604438D01*
X328765539Y-259604438D02*
X328003634Y-259604438D01*
X328003634Y-259604438D02*
X328253634Y-257604438D01*
X328253634Y-257604438D02*
X328920301Y-257604438D01*
X328920301Y-257604438D02*
X329098872Y-257699676D01*
X329098872Y-257699676D02*
X329182206Y-257794914D01*
X329182206Y-257794914D02*
X329253634Y-257985390D01*
X329253634Y-257985390D02*
X329229825Y-258175866D01*
X329229825Y-258175866D02*
X329110777Y-258366342D01*
X329110777Y-258366342D02*
X329003634Y-258461580D01*
X329003634Y-258461580D02*
X328801253Y-258556819D01*
X328801253Y-258556819D02*
X328134587Y-258556819D01*
X330777444Y-259509200D02*
X330575063Y-259604438D01*
X330575063Y-259604438D02*
X330194110Y-259604438D01*
X330194110Y-259604438D02*
X330015539Y-259509200D01*
X330015539Y-259509200D02*
X329944110Y-259318723D01*
X329944110Y-259318723D02*
X330039349Y-258556819D01*
X330039349Y-258556819D02*
X330158396Y-258366342D01*
X330158396Y-258366342D02*
X330360777Y-258271104D01*
X330360777Y-258271104D02*
X330741729Y-258271104D01*
X330741729Y-258271104D02*
X330920301Y-258366342D01*
X330920301Y-258366342D02*
X330991729Y-258556819D01*
X330991729Y-258556819D02*
X330967920Y-258747295D01*
X330967920Y-258747295D02*
X329991729Y-258937771D01*
X332491730Y-259509200D02*
X332289349Y-259604438D01*
X332289349Y-259604438D02*
X331908396Y-259604438D01*
X331908396Y-259604438D02*
X331729825Y-259509200D01*
X331729825Y-259509200D02*
X331658396Y-259318723D01*
X331658396Y-259318723D02*
X331753635Y-258556819D01*
X331753635Y-258556819D02*
X331872682Y-258366342D01*
X331872682Y-258366342D02*
X332075063Y-258271104D01*
X332075063Y-258271104D02*
X332456015Y-258271104D01*
X332456015Y-258271104D02*
X332634587Y-258366342D01*
X332634587Y-258366342D02*
X332706015Y-258556819D01*
X332706015Y-258556819D02*
X332682206Y-258747295D01*
X332682206Y-258747295D02*
X331706015Y-258937771D01*
X336003635Y-259604438D02*
X334860778Y-259604438D01*
X335432207Y-259604438D02*
X335682207Y-257604438D01*
X335682207Y-257604438D02*
X335456016Y-257890152D01*
X335456016Y-257890152D02*
X335241731Y-258080628D01*
X335241731Y-258080628D02*
X335039350Y-258175866D01*
X337491731Y-257604438D02*
X337682207Y-257604438D01*
X337682207Y-257604438D02*
X337860778Y-257699676D01*
X337860778Y-257699676D02*
X337944112Y-257794914D01*
X337944112Y-257794914D02*
X338015540Y-257985390D01*
X338015540Y-257985390D02*
X338063159Y-258366342D01*
X338063159Y-258366342D02*
X338003635Y-258842533D01*
X338003635Y-258842533D02*
X337860778Y-259223485D01*
X337860778Y-259223485D02*
X337741731Y-259413961D01*
X337741731Y-259413961D02*
X337634588Y-259509200D01*
X337634588Y-259509200D02*
X337432207Y-259604438D01*
X337432207Y-259604438D02*
X337241731Y-259604438D01*
X337241731Y-259604438D02*
X337063159Y-259509200D01*
X337063159Y-259509200D02*
X336979826Y-259413961D01*
X336979826Y-259413961D02*
X336908397Y-259223485D01*
X336908397Y-259223485D02*
X336860778Y-258842533D01*
X336860778Y-258842533D02*
X336920302Y-258366342D01*
X336920302Y-258366342D02*
X337063159Y-257985390D01*
X337063159Y-257985390D02*
X337182207Y-257794914D01*
X337182207Y-257794914D02*
X337289350Y-257699676D01*
X337289350Y-257699676D02*
X337491731Y-257604438D01*
X338860778Y-259604438D02*
X339241731Y-259604438D01*
X339241731Y-259604438D02*
X339444112Y-259509200D01*
X339444112Y-259509200D02*
X339551255Y-259413961D01*
X339551255Y-259413961D02*
X339777445Y-259128247D01*
X339777445Y-259128247D02*
X339920302Y-258747295D01*
X339920302Y-258747295D02*
X340015540Y-257985390D01*
X340015540Y-257985390D02*
X339944112Y-257794914D01*
X339944112Y-257794914D02*
X339860778Y-257699676D01*
X339860778Y-257699676D02*
X339682207Y-257604438D01*
X339682207Y-257604438D02*
X339301255Y-257604438D01*
X339301255Y-257604438D02*
X339098874Y-257699676D01*
X339098874Y-257699676D02*
X338991731Y-257794914D01*
X338991731Y-257794914D02*
X338872683Y-257985390D01*
X338872683Y-257985390D02*
X338813159Y-258461580D01*
X338813159Y-258461580D02*
X338884588Y-258652057D01*
X338884588Y-258652057D02*
X338967921Y-258747295D01*
X338967921Y-258747295D02*
X339146493Y-258842533D01*
X339146493Y-258842533D02*
X339527445Y-258842533D01*
X339527445Y-258842533D02*
X339729826Y-258747295D01*
X339729826Y-258747295D02*
X339836969Y-258652057D01*
X339836969Y-258652057D02*
X339956016Y-258461580D01*
X341301255Y-257604438D02*
X341491731Y-257604438D01*
X341491731Y-257604438D02*
X341670302Y-257699676D01*
X341670302Y-257699676D02*
X341753636Y-257794914D01*
X341753636Y-257794914D02*
X341825064Y-257985390D01*
X341825064Y-257985390D02*
X341872683Y-258366342D01*
X341872683Y-258366342D02*
X341813159Y-258842533D01*
X341813159Y-258842533D02*
X341670302Y-259223485D01*
X341670302Y-259223485D02*
X341551255Y-259413961D01*
X341551255Y-259413961D02*
X341444112Y-259509200D01*
X341444112Y-259509200D02*
X341241731Y-259604438D01*
X341241731Y-259604438D02*
X341051255Y-259604438D01*
X341051255Y-259604438D02*
X340872683Y-259509200D01*
X340872683Y-259509200D02*
X340789350Y-259413961D01*
X340789350Y-259413961D02*
X340717921Y-259223485D01*
X340717921Y-259223485D02*
X340670302Y-258842533D01*
X340670302Y-258842533D02*
X340729826Y-258366342D01*
X340729826Y-258366342D02*
X340872683Y-257985390D01*
X340872683Y-257985390D02*
X340991731Y-257794914D01*
X340991731Y-257794914D02*
X341098874Y-257699676D01*
X341098874Y-257699676D02*
X341301255Y-257604438D01*
D10*
D11*
X313755826Y-255000414D02*
X313255826Y-255000414D01*
X313255826Y-255786128D02*
X313255826Y-254286128D01*
X313255826Y-254286128D02*
X313970112Y-254286128D01*
X314541540Y-255786128D02*
X314541540Y-254786128D01*
X314541540Y-254286128D02*
X314470112Y-254357557D01*
X314470112Y-254357557D02*
X314541540Y-254428985D01*
X314541540Y-254428985D02*
X314612969Y-254357557D01*
X314612969Y-254357557D02*
X314541540Y-254286128D01*
X314541540Y-254286128D02*
X314541540Y-254428985D01*
X315470112Y-255786128D02*
X315327255Y-255714700D01*
X315327255Y-255714700D02*
X315255826Y-255571842D01*
X315255826Y-255571842D02*
X315255826Y-254286128D01*
X316612969Y-255714700D02*
X316470112Y-255786128D01*
X316470112Y-255786128D02*
X316184398Y-255786128D01*
X316184398Y-255786128D02*
X316041540Y-255714700D01*
X316041540Y-255714700D02*
X315970112Y-255571842D01*
X315970112Y-255571842D02*
X315970112Y-255000414D01*
X315970112Y-255000414D02*
X316041540Y-254857557D01*
X316041540Y-254857557D02*
X316184398Y-254786128D01*
X316184398Y-254786128D02*
X316470112Y-254786128D01*
X316470112Y-254786128D02*
X316612969Y-254857557D01*
X316612969Y-254857557D02*
X316684398Y-255000414D01*
X316684398Y-255000414D02*
X316684398Y-255143271D01*
X316684398Y-255143271D02*
X315970112Y-255286128D01*
X317327254Y-255643271D02*
X317398683Y-255714700D01*
X317398683Y-255714700D02*
X317327254Y-255786128D01*
X317327254Y-255786128D02*
X317255826Y-255714700D01*
X317255826Y-255714700D02*
X317327254Y-255643271D01*
X317327254Y-255643271D02*
X317327254Y-255786128D01*
X317327254Y-254857557D02*
X317398683Y-254928985D01*
X317398683Y-254928985D02*
X317327254Y-255000414D01*
X317327254Y-255000414D02*
X317255826Y-254928985D01*
X317255826Y-254928985D02*
X317327254Y-254857557D01*
X317327254Y-254857557D02*
X317327254Y-255000414D01*
X319827255Y-255786128D02*
X319827255Y-255000414D01*
X319827255Y-255000414D02*
X319755826Y-254857557D01*
X319755826Y-254857557D02*
X319612969Y-254786128D01*
X319612969Y-254786128D02*
X319327255Y-254786128D01*
X319327255Y-254786128D02*
X319184397Y-254857557D01*
X319827255Y-255714700D02*
X319684397Y-255786128D01*
X319684397Y-255786128D02*
X319327255Y-255786128D01*
X319327255Y-255786128D02*
X319184397Y-255714700D01*
X319184397Y-255714700D02*
X319112969Y-255571842D01*
X319112969Y-255571842D02*
X319112969Y-255428985D01*
X319112969Y-255428985D02*
X319184397Y-255286128D01*
X319184397Y-255286128D02*
X319327255Y-255214700D01*
X319327255Y-255214700D02*
X319684397Y-255214700D01*
X319684397Y-255214700D02*
X319827255Y-255143271D01*
X321184398Y-255786128D02*
X321184398Y-254286128D01*
X321184398Y-255714700D02*
X321041540Y-255786128D01*
X321041540Y-255786128D02*
X320755826Y-255786128D01*
X320755826Y-255786128D02*
X320612969Y-255714700D01*
X320612969Y-255714700D02*
X320541540Y-255643271D01*
X320541540Y-255643271D02*
X320470112Y-255500414D01*
X320470112Y-255500414D02*
X320470112Y-255071842D01*
X320470112Y-255071842D02*
X320541540Y-254928985D01*
X320541540Y-254928985D02*
X320612969Y-254857557D01*
X320612969Y-254857557D02*
X320755826Y-254786128D01*
X320755826Y-254786128D02*
X321041540Y-254786128D01*
X321041540Y-254786128D02*
X321184398Y-254857557D01*
X321827255Y-255714700D02*
X321970112Y-255786128D01*
X321970112Y-255786128D02*
X322255826Y-255786128D01*
X322255826Y-255786128D02*
X322398683Y-255714700D01*
X322398683Y-255714700D02*
X322470112Y-255571842D01*
X322470112Y-255571842D02*
X322470112Y-255500414D01*
X322470112Y-255500414D02*
X322398683Y-255357557D01*
X322398683Y-255357557D02*
X322255826Y-255286128D01*
X322255826Y-255286128D02*
X322041541Y-255286128D01*
X322041541Y-255286128D02*
X321898683Y-255214700D01*
X321898683Y-255214700D02*
X321827255Y-255071842D01*
X321827255Y-255071842D02*
X321827255Y-255000414D01*
X321827255Y-255000414D02*
X321898683Y-254857557D01*
X321898683Y-254857557D02*
X322041541Y-254786128D01*
X322041541Y-254786128D02*
X322255826Y-254786128D01*
X322255826Y-254786128D02*
X322398683Y-254857557D01*
X323112969Y-255786128D02*
X323112969Y-254286128D01*
X323112969Y-254857557D02*
X323255827Y-254786128D01*
X323255827Y-254786128D02*
X323541541Y-254786128D01*
X323541541Y-254786128D02*
X323684398Y-254857557D01*
X323684398Y-254857557D02*
X323755827Y-254928985D01*
X323755827Y-254928985D02*
X323827255Y-255071842D01*
X323827255Y-255071842D02*
X323827255Y-255500414D01*
X323827255Y-255500414D02*
X323755827Y-255643271D01*
X323755827Y-255643271D02*
X323684398Y-255714700D01*
X323684398Y-255714700D02*
X323541541Y-255786128D01*
X323541541Y-255786128D02*
X323255827Y-255786128D01*
X323255827Y-255786128D02*
X323112969Y-255714700D01*
X325041541Y-255714700D02*
X324898684Y-255786128D01*
X324898684Y-255786128D02*
X324612970Y-255786128D01*
X324612970Y-255786128D02*
X324470112Y-255714700D01*
X324470112Y-255714700D02*
X324398684Y-255571842D01*
X324398684Y-255571842D02*
X324398684Y-255000414D01*
X324398684Y-255000414D02*
X324470112Y-254857557D01*
X324470112Y-254857557D02*
X324612970Y-254786128D01*
X324612970Y-254786128D02*
X324898684Y-254786128D01*
X324898684Y-254786128D02*
X325041541Y-254857557D01*
X325041541Y-254857557D02*
X325112970Y-255000414D01*
X325112970Y-255000414D02*
X325112970Y-255143271D01*
X325112970Y-255143271D02*
X324398684Y-255286128D01*
X326327255Y-255714700D02*
X326184398Y-255786128D01*
X326184398Y-255786128D02*
X325898684Y-255786128D01*
X325898684Y-255786128D02*
X325755826Y-255714700D01*
X325755826Y-255714700D02*
X325684398Y-255571842D01*
X325684398Y-255571842D02*
X325684398Y-255000414D01*
X325684398Y-255000414D02*
X325755826Y-254857557D01*
X325755826Y-254857557D02*
X325898684Y-254786128D01*
X325898684Y-254786128D02*
X326184398Y-254786128D01*
X326184398Y-254786128D02*
X326327255Y-254857557D01*
X326327255Y-254857557D02*
X326398684Y-255000414D01*
X326398684Y-255000414D02*
X326398684Y-255143271D01*
X326398684Y-255143271D02*
X325684398Y-255286128D01*
X326684398Y-255928985D02*
X327827255Y-255928985D01*
X328970112Y-255786128D02*
X328112969Y-255786128D01*
X328541540Y-255786128D02*
X328541540Y-254286128D01*
X328541540Y-254286128D02*
X328398683Y-254500414D01*
X328398683Y-254500414D02*
X328255826Y-254643271D01*
X328255826Y-254643271D02*
X328112969Y-254714700D01*
X329898683Y-254286128D02*
X330041540Y-254286128D01*
X330041540Y-254286128D02*
X330184397Y-254357557D01*
X330184397Y-254357557D02*
X330255826Y-254428985D01*
X330255826Y-254428985D02*
X330327254Y-254571842D01*
X330327254Y-254571842D02*
X330398683Y-254857557D01*
X330398683Y-254857557D02*
X330398683Y-255214700D01*
X330398683Y-255214700D02*
X330327254Y-255500414D01*
X330327254Y-255500414D02*
X330255826Y-255643271D01*
X330255826Y-255643271D02*
X330184397Y-255714700D01*
X330184397Y-255714700D02*
X330041540Y-255786128D01*
X330041540Y-255786128D02*
X329898683Y-255786128D01*
X329898683Y-255786128D02*
X329755826Y-255714700D01*
X329755826Y-255714700D02*
X329684397Y-255643271D01*
X329684397Y-255643271D02*
X329612968Y-255500414D01*
X329612968Y-255500414D02*
X329541540Y-255214700D01*
X329541540Y-255214700D02*
X329541540Y-254857557D01*
X329541540Y-254857557D02*
X329612968Y-254571842D01*
X329612968Y-254571842D02*
X329684397Y-254428985D01*
X329684397Y-254428985D02*
X329755826Y-254357557D01*
X329755826Y-254357557D02*
X329898683Y-254286128D01*
X331112968Y-255786128D02*
X331398682Y-255786128D01*
X331398682Y-255786128D02*
X331541539Y-255714700D01*
X331541539Y-255714700D02*
X331612968Y-255643271D01*
X331612968Y-255643271D02*
X331755825Y-255428985D01*
X331755825Y-255428985D02*
X331827254Y-255143271D01*
X331827254Y-255143271D02*
X331827254Y-254571842D01*
X331827254Y-254571842D02*
X331755825Y-254428985D01*
X331755825Y-254428985D02*
X331684397Y-254357557D01*
X331684397Y-254357557D02*
X331541539Y-254286128D01*
X331541539Y-254286128D02*
X331255825Y-254286128D01*
X331255825Y-254286128D02*
X331112968Y-254357557D01*
X331112968Y-254357557D02*
X331041539Y-254428985D01*
X331041539Y-254428985D02*
X330970111Y-254571842D01*
X330970111Y-254571842D02*
X330970111Y-254928985D01*
X330970111Y-254928985D02*
X331041539Y-255071842D01*
X331041539Y-255071842D02*
X331112968Y-255143271D01*
X331112968Y-255143271D02*
X331255825Y-255214700D01*
X331255825Y-255214700D02*
X331541539Y-255214700D01*
X331541539Y-255214700D02*
X331684397Y-255143271D01*
X331684397Y-255143271D02*
X331755825Y-255071842D01*
X331755825Y-255071842D02*
X331827254Y-254928985D01*
X332755825Y-254286128D02*
X332898682Y-254286128D01*
X332898682Y-254286128D02*
X333041539Y-254357557D01*
X333041539Y-254357557D02*
X333112968Y-254428985D01*
X333112968Y-254428985D02*
X333184396Y-254571842D01*
X333184396Y-254571842D02*
X333255825Y-254857557D01*
X333255825Y-254857557D02*
X333255825Y-255214700D01*
X333255825Y-255214700D02*
X333184396Y-255500414D01*
X333184396Y-255500414D02*
X333112968Y-255643271D01*
X333112968Y-255643271D02*
X333041539Y-255714700D01*
X333041539Y-255714700D02*
X332898682Y-255786128D01*
X332898682Y-255786128D02*
X332755825Y-255786128D01*
X332755825Y-255786128D02*
X332612968Y-255714700D01*
X332612968Y-255714700D02*
X332541539Y-255643271D01*
X332541539Y-255643271D02*
X332470110Y-255500414D01*
X332470110Y-255500414D02*
X332398682Y-255214700D01*
X332398682Y-255214700D02*
X332398682Y-254857557D01*
X332398682Y-254857557D02*
X332470110Y-254571842D01*
X332470110Y-254571842D02*
X332541539Y-254428985D01*
X332541539Y-254428985D02*
X332612968Y-254357557D01*
X332612968Y-254357557D02*
X332755825Y-254286128D01*
X333898681Y-255643271D02*
X333970110Y-255714700D01*
X333970110Y-255714700D02*
X333898681Y-255786128D01*
X333898681Y-255786128D02*
X333827253Y-255714700D01*
X333827253Y-255714700D02*
X333898681Y-255643271D01*
X333898681Y-255643271D02*
X333898681Y-255786128D01*
X334612967Y-255786128D02*
X334612967Y-254286128D01*
X334755825Y-255214700D02*
X335184396Y-255786128D01*
X335184396Y-254786128D02*
X334612967Y-255357557D01*
X335827253Y-255786128D02*
X335827253Y-254786128D01*
X335827253Y-254286128D02*
X335755825Y-254357557D01*
X335755825Y-254357557D02*
X335827253Y-254428985D01*
X335827253Y-254428985D02*
X335898682Y-254357557D01*
X335898682Y-254357557D02*
X335827253Y-254286128D01*
X335827253Y-254286128D02*
X335827253Y-254428985D01*
X337184397Y-255714700D02*
X337041539Y-255786128D01*
X337041539Y-255786128D02*
X336755825Y-255786128D01*
X336755825Y-255786128D02*
X336612968Y-255714700D01*
X336612968Y-255714700D02*
X336541539Y-255643271D01*
X336541539Y-255643271D02*
X336470111Y-255500414D01*
X336470111Y-255500414D02*
X336470111Y-255071842D01*
X336470111Y-255071842D02*
X336541539Y-254928985D01*
X336541539Y-254928985D02*
X336612968Y-254857557D01*
X336612968Y-254857557D02*
X336755825Y-254786128D01*
X336755825Y-254786128D02*
X337041539Y-254786128D01*
X337041539Y-254786128D02*
X337184397Y-254857557D01*
X338470111Y-255786128D02*
X338470111Y-255000414D01*
X338470111Y-255000414D02*
X338398682Y-254857557D01*
X338398682Y-254857557D02*
X338255825Y-254786128D01*
X338255825Y-254786128D02*
X337970111Y-254786128D01*
X337970111Y-254786128D02*
X337827253Y-254857557D01*
X338470111Y-255714700D02*
X338327253Y-255786128D01*
X338327253Y-255786128D02*
X337970111Y-255786128D01*
X337970111Y-255786128D02*
X337827253Y-255714700D01*
X337827253Y-255714700D02*
X337755825Y-255571842D01*
X337755825Y-255571842D02*
X337755825Y-255428985D01*
X337755825Y-255428985D02*
X337827253Y-255286128D01*
X337827253Y-255286128D02*
X337970111Y-255214700D01*
X337970111Y-255214700D02*
X338327253Y-255214700D01*
X338327253Y-255214700D02*
X338470111Y-255143271D01*
X339827254Y-255786128D02*
X339827254Y-254286128D01*
X339827254Y-255714700D02*
X339684396Y-255786128D01*
X339684396Y-255786128D02*
X339398682Y-255786128D01*
X339398682Y-255786128D02*
X339255825Y-255714700D01*
X339255825Y-255714700D02*
X339184396Y-255643271D01*
X339184396Y-255643271D02*
X339112968Y-255500414D01*
X339112968Y-255500414D02*
X339112968Y-255071842D01*
X339112968Y-255071842D02*
X339184396Y-254928985D01*
X339184396Y-254928985D02*
X339255825Y-254857557D01*
X339255825Y-254857557D02*
X339398682Y-254786128D01*
X339398682Y-254786128D02*
X339684396Y-254786128D01*
X339684396Y-254786128D02*
X339827254Y-254857557D01*
X340184397Y-255928985D02*
X341327254Y-255928985D01*
X341684396Y-254786128D02*
X341684396Y-256286128D01*
X341684396Y-254857557D02*
X341827254Y-254786128D01*
X341827254Y-254786128D02*
X342112968Y-254786128D01*
X342112968Y-254786128D02*
X342255825Y-254857557D01*
X342255825Y-254857557D02*
X342327254Y-254928985D01*
X342327254Y-254928985D02*
X342398682Y-255071842D01*
X342398682Y-255071842D02*
X342398682Y-255500414D01*
X342398682Y-255500414D02*
X342327254Y-255643271D01*
X342327254Y-255643271D02*
X342255825Y-255714700D01*
X342255825Y-255714700D02*
X342112968Y-255786128D01*
X342112968Y-255786128D02*
X341827254Y-255786128D01*
X341827254Y-255786128D02*
X341684396Y-255714700D01*
X343684397Y-255714700D02*
X343541539Y-255786128D01*
X343541539Y-255786128D02*
X343255825Y-255786128D01*
X343255825Y-255786128D02*
X343112968Y-255714700D01*
X343112968Y-255714700D02*
X343041539Y-255643271D01*
X343041539Y-255643271D02*
X342970111Y-255500414D01*
X342970111Y-255500414D02*
X342970111Y-255071842D01*
X342970111Y-255071842D02*
X343041539Y-254928985D01*
X343041539Y-254928985D02*
X343112968Y-254857557D01*
X343112968Y-254857557D02*
X343255825Y-254786128D01*
X343255825Y-254786128D02*
X343541539Y-254786128D01*
X343541539Y-254786128D02*
X343684397Y-254857557D01*
X344327253Y-255786128D02*
X344327253Y-254286128D01*
X344327253Y-254857557D02*
X344470111Y-254786128D01*
X344470111Y-254786128D02*
X344755825Y-254786128D01*
X344755825Y-254786128D02*
X344898682Y-254857557D01*
X344898682Y-254857557D02*
X344970111Y-254928985D01*
X344970111Y-254928985D02*
X345041539Y-255071842D01*
X345041539Y-255071842D02*
X345041539Y-255500414D01*
X345041539Y-255500414D02*
X344970111Y-255643271D01*
X344970111Y-255643271D02*
X344898682Y-255714700D01*
X344898682Y-255714700D02*
X344755825Y-255786128D01*
X344755825Y-255786128D02*
X344470111Y-255786128D01*
X344470111Y-255786128D02*
X344327253Y-255714700D01*
D10*
D11*
X311800000Y-250900000D02*
X419800000Y-250900000D01*
D10*
D11*
X313184398Y-253014700D02*
X313398684Y-253086128D01*
X313398684Y-253086128D02*
X313755826Y-253086128D01*
X313755826Y-253086128D02*
X313898684Y-253014700D01*
X313898684Y-253014700D02*
X313970112Y-252943271D01*
X313970112Y-252943271D02*
X314041541Y-252800414D01*
X314041541Y-252800414D02*
X314041541Y-252657557D01*
X314041541Y-252657557D02*
X313970112Y-252514700D01*
X313970112Y-252514700D02*
X313898684Y-252443271D01*
X313898684Y-252443271D02*
X313755826Y-252371842D01*
X313755826Y-252371842D02*
X313470112Y-252300414D01*
X313470112Y-252300414D02*
X313327255Y-252228985D01*
X313327255Y-252228985D02*
X313255826Y-252157557D01*
X313255826Y-252157557D02*
X313184398Y-252014700D01*
X313184398Y-252014700D02*
X313184398Y-251871842D01*
X313184398Y-251871842D02*
X313255826Y-251728985D01*
X313255826Y-251728985D02*
X313327255Y-251657557D01*
X313327255Y-251657557D02*
X313470112Y-251586128D01*
X313470112Y-251586128D02*
X313827255Y-251586128D01*
X313827255Y-251586128D02*
X314041541Y-251657557D01*
X314684397Y-253086128D02*
X314684397Y-251586128D01*
X315327255Y-253086128D02*
X315327255Y-252300414D01*
X315327255Y-252300414D02*
X315255826Y-252157557D01*
X315255826Y-252157557D02*
X315112969Y-252086128D01*
X315112969Y-252086128D02*
X314898683Y-252086128D01*
X314898683Y-252086128D02*
X314755826Y-252157557D01*
X314755826Y-252157557D02*
X314684397Y-252228985D01*
X316612969Y-253014700D02*
X316470112Y-253086128D01*
X316470112Y-253086128D02*
X316184398Y-253086128D01*
X316184398Y-253086128D02*
X316041540Y-253014700D01*
X316041540Y-253014700D02*
X315970112Y-252871842D01*
X315970112Y-252871842D02*
X315970112Y-252300414D01*
X315970112Y-252300414D02*
X316041540Y-252157557D01*
X316041540Y-252157557D02*
X316184398Y-252086128D01*
X316184398Y-252086128D02*
X316470112Y-252086128D01*
X316470112Y-252086128D02*
X316612969Y-252157557D01*
X316612969Y-252157557D02*
X316684398Y-252300414D01*
X316684398Y-252300414D02*
X316684398Y-252443271D01*
X316684398Y-252443271D02*
X315970112Y-252586128D01*
X317898683Y-253014700D02*
X317755826Y-253086128D01*
X317755826Y-253086128D02*
X317470112Y-253086128D01*
X317470112Y-253086128D02*
X317327254Y-253014700D01*
X317327254Y-253014700D02*
X317255826Y-252871842D01*
X317255826Y-252871842D02*
X317255826Y-252300414D01*
X317255826Y-252300414D02*
X317327254Y-252157557D01*
X317327254Y-252157557D02*
X317470112Y-252086128D01*
X317470112Y-252086128D02*
X317755826Y-252086128D01*
X317755826Y-252086128D02*
X317898683Y-252157557D01*
X317898683Y-252157557D02*
X317970112Y-252300414D01*
X317970112Y-252300414D02*
X317970112Y-252443271D01*
X317970112Y-252443271D02*
X317255826Y-252586128D01*
X318398683Y-252086128D02*
X318970111Y-252086128D01*
X318612968Y-251586128D02*
X318612968Y-252871842D01*
X318612968Y-252871842D02*
X318684397Y-253014700D01*
X318684397Y-253014700D02*
X318827254Y-253086128D01*
X318827254Y-253086128D02*
X318970111Y-253086128D01*
X319470111Y-252943271D02*
X319541540Y-253014700D01*
X319541540Y-253014700D02*
X319470111Y-253086128D01*
X319470111Y-253086128D02*
X319398683Y-253014700D01*
X319398683Y-253014700D02*
X319470111Y-252943271D01*
X319470111Y-252943271D02*
X319470111Y-253086128D01*
X319470111Y-252157557D02*
X319541540Y-252228985D01*
X319541540Y-252228985D02*
X319470111Y-252300414D01*
X319470111Y-252300414D02*
X319398683Y-252228985D01*
X319398683Y-252228985D02*
X319470111Y-252157557D01*
X319470111Y-252157557D02*
X319470111Y-252300414D01*
D10*
D12*
X328594510Y-250078128D02*
X328594510Y-248578128D01*
X328594510Y-248578128D02*
X329165939Y-248578128D01*
X329165939Y-248578128D02*
X329308796Y-248649557D01*
X329308796Y-248649557D02*
X329380225Y-248720985D01*
X329380225Y-248720985D02*
X329451653Y-248863842D01*
X329451653Y-248863842D02*
X329451653Y-249078128D01*
X329451653Y-249078128D02*
X329380225Y-249220985D01*
X329380225Y-249220985D02*
X329308796Y-249292414D01*
X329308796Y-249292414D02*
X329165939Y-249363842D01*
X329165939Y-249363842D02*
X328594510Y-249363842D01*
X330737368Y-250078128D02*
X330737368Y-249292414D01*
X330737368Y-249292414D02*
X330665939Y-249149557D01*
X330665939Y-249149557D02*
X330523082Y-249078128D01*
X330523082Y-249078128D02*
X330237368Y-249078128D01*
X330237368Y-249078128D02*
X330094510Y-249149557D01*
X330737368Y-250006700D02*
X330594510Y-250078128D01*
X330594510Y-250078128D02*
X330237368Y-250078128D01*
X330237368Y-250078128D02*
X330094510Y-250006700D01*
X330094510Y-250006700D02*
X330023082Y-249863842D01*
X330023082Y-249863842D02*
X330023082Y-249720985D01*
X330023082Y-249720985D02*
X330094510Y-249578128D01*
X330094510Y-249578128D02*
X330237368Y-249506700D01*
X330237368Y-249506700D02*
X330594510Y-249506700D01*
X330594510Y-249506700D02*
X330737368Y-249435271D01*
X331451653Y-249078128D02*
X331451653Y-250078128D01*
X331451653Y-249220985D02*
X331523082Y-249149557D01*
X331523082Y-249149557D02*
X331665939Y-249078128D01*
X331665939Y-249078128D02*
X331880225Y-249078128D01*
X331880225Y-249078128D02*
X332023082Y-249149557D01*
X332023082Y-249149557D02*
X332094511Y-249292414D01*
X332094511Y-249292414D02*
X332094511Y-250078128D01*
X332594511Y-249078128D02*
X333165939Y-249078128D01*
X332808796Y-248578128D02*
X332808796Y-249863842D01*
X332808796Y-249863842D02*
X332880225Y-250006700D01*
X332880225Y-250006700D02*
X333023082Y-250078128D01*
X333023082Y-250078128D02*
X333165939Y-250078128D01*
X333594511Y-250006700D02*
X333737368Y-250078128D01*
X333737368Y-250078128D02*
X334023082Y-250078128D01*
X334023082Y-250078128D02*
X334165939Y-250006700D01*
X334165939Y-250006700D02*
X334237368Y-249863842D01*
X334237368Y-249863842D02*
X334237368Y-249792414D01*
X334237368Y-249792414D02*
X334165939Y-249649557D01*
X334165939Y-249649557D02*
X334023082Y-249578128D01*
X334023082Y-249578128D02*
X333808797Y-249578128D01*
X333808797Y-249578128D02*
X333665939Y-249506700D01*
X333665939Y-249506700D02*
X333594511Y-249363842D01*
X333594511Y-249363842D02*
X333594511Y-249292414D01*
X333594511Y-249292414D02*
X333665939Y-249149557D01*
X333665939Y-249149557D02*
X333808797Y-249078128D01*
X333808797Y-249078128D02*
X334023082Y-249078128D01*
X334023082Y-249078128D02*
X334165939Y-249149557D01*
X335808797Y-249078128D02*
X336380225Y-249078128D01*
X336023082Y-250078128D02*
X336023082Y-248792414D01*
X336023082Y-248792414D02*
X336094511Y-248649557D01*
X336094511Y-248649557D02*
X336237368Y-248578128D01*
X336237368Y-248578128D02*
X336380225Y-248578128D01*
X337094511Y-250078128D02*
X336951654Y-250006700D01*
X336951654Y-250006700D02*
X336880225Y-249935271D01*
X336880225Y-249935271D02*
X336808797Y-249792414D01*
X336808797Y-249792414D02*
X336808797Y-249363842D01*
X336808797Y-249363842D02*
X336880225Y-249220985D01*
X336880225Y-249220985D02*
X336951654Y-249149557D01*
X336951654Y-249149557D02*
X337094511Y-249078128D01*
X337094511Y-249078128D02*
X337308797Y-249078128D01*
X337308797Y-249078128D02*
X337451654Y-249149557D01*
X337451654Y-249149557D02*
X337523083Y-249220985D01*
X337523083Y-249220985D02*
X337594511Y-249363842D01*
X337594511Y-249363842D02*
X337594511Y-249792414D01*
X337594511Y-249792414D02*
X337523083Y-249935271D01*
X337523083Y-249935271D02*
X337451654Y-250006700D01*
X337451654Y-250006700D02*
X337308797Y-250078128D01*
X337308797Y-250078128D02*
X337094511Y-250078128D01*
X338237368Y-250078128D02*
X338237368Y-249078128D01*
X338237368Y-249363842D02*
X338308797Y-249220985D01*
X338308797Y-249220985D02*
X338380226Y-249149557D01*
X338380226Y-249149557D02*
X338523083Y-249078128D01*
X338523083Y-249078128D02*
X338665940Y-249078128D01*
X340808796Y-249292414D02*
X341023082Y-249363842D01*
X341023082Y-249363842D02*
X341094511Y-249435271D01*
X341094511Y-249435271D02*
X341165939Y-249578128D01*
X341165939Y-249578128D02*
X341165939Y-249792414D01*
X341165939Y-249792414D02*
X341094511Y-249935271D01*
X341094511Y-249935271D02*
X341023082Y-250006700D01*
X341023082Y-250006700D02*
X340880225Y-250078128D01*
X340880225Y-250078128D02*
X340308796Y-250078128D01*
X340308796Y-250078128D02*
X340308796Y-248578128D01*
X340308796Y-248578128D02*
X340808796Y-248578128D01*
X340808796Y-248578128D02*
X340951654Y-248649557D01*
X340951654Y-248649557D02*
X341023082Y-248720985D01*
X341023082Y-248720985D02*
X341094511Y-248863842D01*
X341094511Y-248863842D02*
X341094511Y-249006700D01*
X341094511Y-249006700D02*
X341023082Y-249149557D01*
X341023082Y-249149557D02*
X340951654Y-249220985D01*
X340951654Y-249220985D02*
X340808796Y-249292414D01*
X340808796Y-249292414D02*
X340308796Y-249292414D01*
X341808796Y-250078128D02*
X341808796Y-249078128D01*
X341808796Y-248578128D02*
X341737368Y-248649557D01*
X341737368Y-248649557D02*
X341808796Y-248720985D01*
X341808796Y-248720985D02*
X341880225Y-248649557D01*
X341880225Y-248649557D02*
X341808796Y-248578128D01*
X341808796Y-248578128D02*
X341808796Y-248720985D01*
X342523082Y-250078128D02*
X342523082Y-249078128D01*
X342523082Y-249363842D02*
X342594511Y-249220985D01*
X342594511Y-249220985D02*
X342665940Y-249149557D01*
X342665940Y-249149557D02*
X342808797Y-249078128D01*
X342808797Y-249078128D02*
X342951654Y-249078128D01*
X344094511Y-250078128D02*
X344094511Y-248578128D01*
X344094511Y-250006700D02*
X343951653Y-250078128D01*
X343951653Y-250078128D02*
X343665939Y-250078128D01*
X343665939Y-250078128D02*
X343523082Y-250006700D01*
X343523082Y-250006700D02*
X343451653Y-249935271D01*
X343451653Y-249935271D02*
X343380225Y-249792414D01*
X343380225Y-249792414D02*
X343380225Y-249363842D01*
X343380225Y-249363842D02*
X343451653Y-249220985D01*
X343451653Y-249220985D02*
X343523082Y-249149557D01*
X343523082Y-249149557D02*
X343665939Y-249078128D01*
X343665939Y-249078128D02*
X343951653Y-249078128D01*
X343951653Y-249078128D02*
X344094511Y-249149557D01*
X344737368Y-250006700D02*
X344880225Y-250078128D01*
X344880225Y-250078128D02*
X345165939Y-250078128D01*
X345165939Y-250078128D02*
X345308796Y-250006700D01*
X345308796Y-250006700D02*
X345380225Y-249863842D01*
X345380225Y-249863842D02*
X345380225Y-249792414D01*
X345380225Y-249792414D02*
X345308796Y-249649557D01*
X345308796Y-249649557D02*
X345165939Y-249578128D01*
X345165939Y-249578128D02*
X344951654Y-249578128D01*
X344951654Y-249578128D02*
X344808796Y-249506700D01*
X344808796Y-249506700D02*
X344737368Y-249363842D01*
X344737368Y-249363842D02*
X344737368Y-249292414D01*
X344737368Y-249292414D02*
X344808796Y-249149557D01*
X344808796Y-249149557D02*
X344951654Y-249078128D01*
X344951654Y-249078128D02*
X345165939Y-249078128D01*
X345165939Y-249078128D02*
X345308796Y-249149557D01*
D10*
D11*
X328924398Y-245585928D02*
X328924398Y-246657357D01*
X328924398Y-246657357D02*
X328852969Y-246871642D01*
X328852969Y-246871642D02*
X328710112Y-247014500D01*
X328710112Y-247014500D02*
X328495826Y-247085928D01*
X328495826Y-247085928D02*
X328352969Y-247085928D01*
X329852969Y-247085928D02*
X329710112Y-247014500D01*
X329710112Y-247014500D02*
X329638683Y-246943071D01*
X329638683Y-246943071D02*
X329567255Y-246800214D01*
X329567255Y-246800214D02*
X329567255Y-246371642D01*
X329567255Y-246371642D02*
X329638683Y-246228785D01*
X329638683Y-246228785D02*
X329710112Y-246157357D01*
X329710112Y-246157357D02*
X329852969Y-246085928D01*
X329852969Y-246085928D02*
X330067255Y-246085928D01*
X330067255Y-246085928D02*
X330210112Y-246157357D01*
X330210112Y-246157357D02*
X330281541Y-246228785D01*
X330281541Y-246228785D02*
X330352969Y-246371642D01*
X330352969Y-246371642D02*
X330352969Y-246800214D01*
X330352969Y-246800214D02*
X330281541Y-246943071D01*
X330281541Y-246943071D02*
X330210112Y-247014500D01*
X330210112Y-247014500D02*
X330067255Y-247085928D01*
X330067255Y-247085928D02*
X329852969Y-247085928D01*
X330995826Y-247085928D02*
X330995826Y-245585928D01*
X331638684Y-247085928D02*
X331638684Y-246300214D01*
X331638684Y-246300214D02*
X331567255Y-246157357D01*
X331567255Y-246157357D02*
X331424398Y-246085928D01*
X331424398Y-246085928D02*
X331210112Y-246085928D01*
X331210112Y-246085928D02*
X331067255Y-246157357D01*
X331067255Y-246157357D02*
X330995826Y-246228785D01*
X332352969Y-246085928D02*
X332352969Y-247085928D01*
X332352969Y-246228785D02*
X332424398Y-246157357D01*
X332424398Y-246157357D02*
X332567255Y-246085928D01*
X332567255Y-246085928D02*
X332781541Y-246085928D01*
X332781541Y-246085928D02*
X332924398Y-246157357D01*
X332924398Y-246157357D02*
X332995827Y-246300214D01*
X332995827Y-246300214D02*
X332995827Y-247085928D01*
X334852969Y-247085928D02*
X334852969Y-245585928D01*
X334852969Y-245585928D02*
X335352969Y-246657357D01*
X335352969Y-246657357D02*
X335852969Y-245585928D01*
X335852969Y-245585928D02*
X335852969Y-247085928D01*
X337210113Y-247014500D02*
X337067255Y-247085928D01*
X337067255Y-247085928D02*
X336781541Y-247085928D01*
X336781541Y-247085928D02*
X336638684Y-247014500D01*
X336638684Y-247014500D02*
X336567255Y-246943071D01*
X336567255Y-246943071D02*
X336495827Y-246800214D01*
X336495827Y-246800214D02*
X336495827Y-246371642D01*
X336495827Y-246371642D02*
X336567255Y-246228785D01*
X336567255Y-246228785D02*
X336638684Y-246157357D01*
X336638684Y-246157357D02*
X336781541Y-246085928D01*
X336781541Y-246085928D02*
X337067255Y-246085928D01*
X337067255Y-246085928D02*
X337210113Y-246157357D01*
X337852969Y-247085928D02*
X337852969Y-245585928D01*
X337852969Y-245585928D02*
X338710112Y-247085928D01*
X338710112Y-247085928D02*
X338710112Y-245585928D01*
X339995827Y-247014500D02*
X339852970Y-247085928D01*
X339852970Y-247085928D02*
X339567256Y-247085928D01*
X339567256Y-247085928D02*
X339424398Y-247014500D01*
X339424398Y-247014500D02*
X339352970Y-246871642D01*
X339352970Y-246871642D02*
X339352970Y-246300214D01*
X339352970Y-246300214D02*
X339424398Y-246157357D01*
X339424398Y-246157357D02*
X339567256Y-246085928D01*
X339567256Y-246085928D02*
X339852970Y-246085928D01*
X339852970Y-246085928D02*
X339995827Y-246157357D01*
X339995827Y-246157357D02*
X340067256Y-246300214D01*
X340067256Y-246300214D02*
X340067256Y-246443071D01*
X340067256Y-246443071D02*
X339352970Y-246585928D01*
X340924398Y-247085928D02*
X340781541Y-247014500D01*
X340781541Y-247014500D02*
X340710112Y-246871642D01*
X340710112Y-246871642D02*
X340710112Y-245585928D01*
X341710112Y-247085928D02*
X341567255Y-247014500D01*
X341567255Y-247014500D02*
X341495826Y-246871642D01*
X341495826Y-246871642D02*
X341495826Y-245585928D01*
X342138683Y-246085928D02*
X342495826Y-247085928D01*
X342852969Y-246085928D02*
X342495826Y-247085928D01*
X342495826Y-247085928D02*
X342352969Y-247443071D01*
X342352969Y-247443071D02*
X342281540Y-247514500D01*
X342281540Y-247514500D02*
X342138683Y-247585928D01*
X344567254Y-246514500D02*
X345710112Y-246514500D01*
X347567254Y-246085928D02*
X347567254Y-247371642D01*
X347567254Y-247371642D02*
X347495826Y-247514500D01*
X347495826Y-247514500D02*
X347352969Y-247585928D01*
X347352969Y-247585928D02*
X347281540Y-247585928D01*
X347567254Y-245585928D02*
X347495826Y-245657357D01*
X347495826Y-245657357D02*
X347567254Y-245728785D01*
X347567254Y-245728785D02*
X347638683Y-245657357D01*
X347638683Y-245657357D02*
X347567254Y-245585928D01*
X347567254Y-245585928D02*
X347567254Y-245728785D01*
X348495826Y-247085928D02*
X348352969Y-247014500D01*
X348352969Y-247014500D02*
X348281540Y-246943071D01*
X348281540Y-246943071D02*
X348210112Y-246800214D01*
X348210112Y-246800214D02*
X348210112Y-246371642D01*
X348210112Y-246371642D02*
X348281540Y-246228785D01*
X348281540Y-246228785D02*
X348352969Y-246157357D01*
X348352969Y-246157357D02*
X348495826Y-246085928D01*
X348495826Y-246085928D02*
X348710112Y-246085928D01*
X348710112Y-246085928D02*
X348852969Y-246157357D01*
X348852969Y-246157357D02*
X348924398Y-246228785D01*
X348924398Y-246228785D02*
X348995826Y-246371642D01*
X348995826Y-246371642D02*
X348995826Y-246800214D01*
X348995826Y-246800214D02*
X348924398Y-246943071D01*
X348924398Y-246943071D02*
X348852969Y-247014500D01*
X348852969Y-247014500D02*
X348710112Y-247085928D01*
X348710112Y-247085928D02*
X348495826Y-247085928D01*
X349638683Y-247085928D02*
X349638683Y-245585928D01*
X350281541Y-247085928D02*
X350281541Y-246300214D01*
X350281541Y-246300214D02*
X350210112Y-246157357D01*
X350210112Y-246157357D02*
X350067255Y-246085928D01*
X350067255Y-246085928D02*
X349852969Y-246085928D01*
X349852969Y-246085928D02*
X349710112Y-246157357D01*
X349710112Y-246157357D02*
X349638683Y-246228785D01*
X350995826Y-246085928D02*
X350995826Y-247085928D01*
X350995826Y-246228785D02*
X351067255Y-246157357D01*
X351067255Y-246157357D02*
X351210112Y-246085928D01*
X351210112Y-246085928D02*
X351424398Y-246085928D01*
X351424398Y-246085928D02*
X351567255Y-246157357D01*
X351567255Y-246157357D02*
X351638684Y-246300214D01*
X351638684Y-246300214D02*
X351638684Y-247085928D01*
X353281541Y-246371642D02*
X353210112Y-246300214D01*
X353210112Y-246300214D02*
X353067255Y-246228785D01*
X353067255Y-246228785D02*
X352924398Y-246228785D01*
X352924398Y-246228785D02*
X352781541Y-246300214D01*
X352781541Y-246300214D02*
X352710112Y-246371642D01*
X352710112Y-246371642D02*
X352638684Y-246514500D01*
X352638684Y-246514500D02*
X352638684Y-246657357D01*
X352638684Y-246657357D02*
X352710112Y-246800214D01*
X352710112Y-246800214D02*
X352781541Y-246871642D01*
X352781541Y-246871642D02*
X352924398Y-246943071D01*
X352924398Y-246943071D02*
X353067255Y-246943071D01*
X353067255Y-246943071D02*
X353210112Y-246871642D01*
X353210112Y-246871642D02*
X353281541Y-246800214D01*
X353281541Y-246228785D02*
X353281541Y-246800214D01*
X353281541Y-246800214D02*
X353352969Y-246871642D01*
X353352969Y-246871642D02*
X353424398Y-246871642D01*
X353424398Y-246871642D02*
X353567255Y-246800214D01*
X353567255Y-246800214D02*
X353638684Y-246657357D01*
X353638684Y-246657357D02*
X353638684Y-246300214D01*
X353638684Y-246300214D02*
X353495827Y-246085928D01*
X353495827Y-246085928D02*
X353281541Y-245943071D01*
X353281541Y-245943071D02*
X352995827Y-245871642D01*
X352995827Y-245871642D02*
X352710112Y-245943071D01*
X352710112Y-245943071D02*
X352495827Y-246085928D01*
X352495827Y-246085928D02*
X352352969Y-246300214D01*
X352352969Y-246300214D02*
X352281541Y-246585928D01*
X352281541Y-246585928D02*
X352352969Y-246871642D01*
X352352969Y-246871642D02*
X352495827Y-247085928D01*
X352495827Y-247085928D02*
X352710112Y-247228785D01*
X352710112Y-247228785D02*
X352995827Y-247300214D01*
X352995827Y-247300214D02*
X353281541Y-247228785D01*
X353281541Y-247228785D02*
X353495827Y-247085928D01*
X354281540Y-246085928D02*
X354281540Y-247585928D01*
X354281540Y-246157357D02*
X354424398Y-246085928D01*
X354424398Y-246085928D02*
X354710112Y-246085928D01*
X354710112Y-246085928D02*
X354852969Y-246157357D01*
X354852969Y-246157357D02*
X354924398Y-246228785D01*
X354924398Y-246228785D02*
X354995826Y-246371642D01*
X354995826Y-246371642D02*
X354995826Y-246800214D01*
X354995826Y-246800214D02*
X354924398Y-246943071D01*
X354924398Y-246943071D02*
X354852969Y-247014500D01*
X354852969Y-247014500D02*
X354710112Y-247085928D01*
X354710112Y-247085928D02*
X354424398Y-247085928D01*
X354424398Y-247085928D02*
X354281540Y-247014500D01*
X356281541Y-247085928D02*
X356281541Y-246300214D01*
X356281541Y-246300214D02*
X356210112Y-246157357D01*
X356210112Y-246157357D02*
X356067255Y-246085928D01*
X356067255Y-246085928D02*
X355781541Y-246085928D01*
X355781541Y-246085928D02*
X355638683Y-246157357D01*
X356281541Y-247014500D02*
X356138683Y-247085928D01*
X356138683Y-247085928D02*
X355781541Y-247085928D01*
X355781541Y-247085928D02*
X355638683Y-247014500D01*
X355638683Y-247014500D02*
X355567255Y-246871642D01*
X355567255Y-246871642D02*
X355567255Y-246728785D01*
X355567255Y-246728785D02*
X355638683Y-246585928D01*
X355638683Y-246585928D02*
X355781541Y-246514500D01*
X355781541Y-246514500D02*
X356138683Y-246514500D01*
X356138683Y-246514500D02*
X356281541Y-246443071D01*
X356995826Y-246085928D02*
X356995826Y-247085928D01*
X356995826Y-246228785D02*
X357067255Y-246157357D01*
X357067255Y-246157357D02*
X357210112Y-246085928D01*
X357210112Y-246085928D02*
X357424398Y-246085928D01*
X357424398Y-246085928D02*
X357567255Y-246157357D01*
X357567255Y-246157357D02*
X357638684Y-246300214D01*
X357638684Y-246300214D02*
X357638684Y-247085928D01*
X358138684Y-246085928D02*
X358710112Y-246085928D01*
X358352969Y-245585928D02*
X358352969Y-246871642D01*
X358352969Y-246871642D02*
X358424398Y-247014500D01*
X358424398Y-247014500D02*
X358567255Y-247085928D01*
X358567255Y-247085928D02*
X358710112Y-247085928D01*
X359138684Y-247014500D02*
X359281541Y-247085928D01*
X359281541Y-247085928D02*
X359567255Y-247085928D01*
X359567255Y-247085928D02*
X359710112Y-247014500D01*
X359710112Y-247014500D02*
X359781541Y-246871642D01*
X359781541Y-246871642D02*
X359781541Y-246800214D01*
X359781541Y-246800214D02*
X359710112Y-246657357D01*
X359710112Y-246657357D02*
X359567255Y-246585928D01*
X359567255Y-246585928D02*
X359352970Y-246585928D01*
X359352970Y-246585928D02*
X359210112Y-246514500D01*
X359210112Y-246514500D02*
X359138684Y-246371642D01*
X359138684Y-246371642D02*
X359138684Y-246300214D01*
X359138684Y-246300214D02*
X359210112Y-246157357D01*
X359210112Y-246157357D02*
X359352970Y-246085928D01*
X359352970Y-246085928D02*
X359567255Y-246085928D01*
X359567255Y-246085928D02*
X359710112Y-246157357D01*
X360210113Y-246085928D02*
X360781541Y-246085928D01*
X360424398Y-247085928D02*
X360424398Y-245800214D01*
X360424398Y-245800214D02*
X360495827Y-245657357D01*
X360495827Y-245657357D02*
X360638684Y-245585928D01*
X360638684Y-245585928D02*
X360781541Y-245585928D01*
X361495827Y-247085928D02*
X361352970Y-247014500D01*
X361352970Y-247014500D02*
X361281541Y-246943071D01*
X361281541Y-246943071D02*
X361210113Y-246800214D01*
X361210113Y-246800214D02*
X361210113Y-246371642D01*
X361210113Y-246371642D02*
X361281541Y-246228785D01*
X361281541Y-246228785D02*
X361352970Y-246157357D01*
X361352970Y-246157357D02*
X361495827Y-246085928D01*
X361495827Y-246085928D02*
X361710113Y-246085928D01*
X361710113Y-246085928D02*
X361852970Y-246157357D01*
X361852970Y-246157357D02*
X361924399Y-246228785D01*
X361924399Y-246228785D02*
X361995827Y-246371642D01*
X361995827Y-246371642D02*
X361995827Y-246800214D01*
X361995827Y-246800214D02*
X361924399Y-246943071D01*
X361924399Y-246943071D02*
X361852970Y-247014500D01*
X361852970Y-247014500D02*
X361710113Y-247085928D01*
X361710113Y-247085928D02*
X361495827Y-247085928D01*
X362638684Y-247085928D02*
X362638684Y-246085928D01*
X362638684Y-246371642D02*
X362710113Y-246228785D01*
X362710113Y-246228785D02*
X362781542Y-246157357D01*
X362781542Y-246157357D02*
X362924399Y-246085928D01*
X362924399Y-246085928D02*
X363067256Y-246085928D01*
X363567255Y-247085928D02*
X363567255Y-245585928D01*
X363567255Y-246157357D02*
X363710113Y-246085928D01*
X363710113Y-246085928D02*
X363995827Y-246085928D01*
X363995827Y-246085928D02*
X364138684Y-246157357D01*
X364138684Y-246157357D02*
X364210113Y-246228785D01*
X364210113Y-246228785D02*
X364281541Y-246371642D01*
X364281541Y-246371642D02*
X364281541Y-246800214D01*
X364281541Y-246800214D02*
X364210113Y-246943071D01*
X364210113Y-246943071D02*
X364138684Y-247014500D01*
X364138684Y-247014500D02*
X363995827Y-247085928D01*
X363995827Y-247085928D02*
X363710113Y-247085928D01*
X363710113Y-247085928D02*
X363567255Y-247014500D01*
X364924398Y-247085928D02*
X364924398Y-246085928D01*
X364924398Y-245585928D02*
X364852970Y-245657357D01*
X364852970Y-245657357D02*
X364924398Y-245728785D01*
X364924398Y-245728785D02*
X364995827Y-245657357D01*
X364995827Y-245657357D02*
X364924398Y-245585928D01*
X364924398Y-245585928D02*
X364924398Y-245728785D01*
X365638684Y-247085928D02*
X365638684Y-246085928D01*
X365638684Y-246371642D02*
X365710113Y-246228785D01*
X365710113Y-246228785D02*
X365781542Y-246157357D01*
X365781542Y-246157357D02*
X365924399Y-246085928D01*
X365924399Y-246085928D02*
X366067256Y-246085928D01*
X367210113Y-247085928D02*
X367210113Y-245585928D01*
X367210113Y-247014500D02*
X367067255Y-247085928D01*
X367067255Y-247085928D02*
X366781541Y-247085928D01*
X366781541Y-247085928D02*
X366638684Y-247014500D01*
X366638684Y-247014500D02*
X366567255Y-246943071D01*
X366567255Y-246943071D02*
X366495827Y-246800214D01*
X366495827Y-246800214D02*
X366495827Y-246371642D01*
X366495827Y-246371642D02*
X366567255Y-246228785D01*
X366567255Y-246228785D02*
X366638684Y-246157357D01*
X366638684Y-246157357D02*
X366781541Y-246085928D01*
X366781541Y-246085928D02*
X367067255Y-246085928D01*
X367067255Y-246085928D02*
X367210113Y-246157357D01*
X367852970Y-247014500D02*
X367995827Y-247085928D01*
X367995827Y-247085928D02*
X368281541Y-247085928D01*
X368281541Y-247085928D02*
X368424398Y-247014500D01*
X368424398Y-247014500D02*
X368495827Y-246871642D01*
X368495827Y-246871642D02*
X368495827Y-246800214D01*
X368495827Y-246800214D02*
X368424398Y-246657357D01*
X368424398Y-246657357D02*
X368281541Y-246585928D01*
X368281541Y-246585928D02*
X368067256Y-246585928D01*
X368067256Y-246585928D02*
X367924398Y-246514500D01*
X367924398Y-246514500D02*
X367852970Y-246371642D01*
X367852970Y-246371642D02*
X367852970Y-246300214D01*
X367852970Y-246300214D02*
X367924398Y-246157357D01*
X367924398Y-246157357D02*
X368067256Y-246085928D01*
X368067256Y-246085928D02*
X368281541Y-246085928D01*
X368281541Y-246085928D02*
X368424398Y-246157357D01*
X369138684Y-246943071D02*
X369210113Y-247014500D01*
X369210113Y-247014500D02*
X369138684Y-247085928D01*
X369138684Y-247085928D02*
X369067256Y-247014500D01*
X369067256Y-247014500D02*
X369138684Y-246943071D01*
X369138684Y-246943071D02*
X369138684Y-247085928D01*
X370495828Y-247014500D02*
X370352970Y-247085928D01*
X370352970Y-247085928D02*
X370067256Y-247085928D01*
X370067256Y-247085928D02*
X369924399Y-247014500D01*
X369924399Y-247014500D02*
X369852970Y-246943071D01*
X369852970Y-246943071D02*
X369781542Y-246800214D01*
X369781542Y-246800214D02*
X369781542Y-246371642D01*
X369781542Y-246371642D02*
X369852970Y-246228785D01*
X369852970Y-246228785D02*
X369924399Y-246157357D01*
X369924399Y-246157357D02*
X370067256Y-246085928D01*
X370067256Y-246085928D02*
X370352970Y-246085928D01*
X370352970Y-246085928D02*
X370495828Y-246157357D01*
X371352970Y-247085928D02*
X371210113Y-247014500D01*
X371210113Y-247014500D02*
X371138684Y-246943071D01*
X371138684Y-246943071D02*
X371067256Y-246800214D01*
X371067256Y-246800214D02*
X371067256Y-246371642D01*
X371067256Y-246371642D02*
X371138684Y-246228785D01*
X371138684Y-246228785D02*
X371210113Y-246157357D01*
X371210113Y-246157357D02*
X371352970Y-246085928D01*
X371352970Y-246085928D02*
X371567256Y-246085928D01*
X371567256Y-246085928D02*
X371710113Y-246157357D01*
X371710113Y-246157357D02*
X371781542Y-246228785D01*
X371781542Y-246228785D02*
X371852970Y-246371642D01*
X371852970Y-246371642D02*
X371852970Y-246800214D01*
X371852970Y-246800214D02*
X371781542Y-246943071D01*
X371781542Y-246943071D02*
X371710113Y-247014500D01*
X371710113Y-247014500D02*
X371567256Y-247085928D01*
X371567256Y-247085928D02*
X371352970Y-247085928D01*
X372495827Y-247085928D02*
X372495827Y-246085928D01*
X372495827Y-246228785D02*
X372567256Y-246157357D01*
X372567256Y-246157357D02*
X372710113Y-246085928D01*
X372710113Y-246085928D02*
X372924399Y-246085928D01*
X372924399Y-246085928D02*
X373067256Y-246157357D01*
X373067256Y-246157357D02*
X373138685Y-246300214D01*
X373138685Y-246300214D02*
X373138685Y-247085928D01*
X373138685Y-246300214D02*
X373210113Y-246157357D01*
X373210113Y-246157357D02*
X373352970Y-246085928D01*
X373352970Y-246085928D02*
X373567256Y-246085928D01*
X373567256Y-246085928D02*
X373710113Y-246157357D01*
X373710113Y-246157357D02*
X373781542Y-246300214D01*
X373781542Y-246300214D02*
X373781542Y-247085928D01*
D10*
D11*
X331800000Y-260900000D02*
X331800000Y-263900000D01*
D10*
D11*
X395800000Y-260900000D02*
X395800000Y-267400000D01*
D10*
D11*
X326811000Y-235497800D02*
X326811000Y-250897800D01*
D14*
G04 #@! TO.N,Net-(D6-A)*
G04 #@! TO.C,J6*
X43500000Y-63500000D03*
D15*
G04 #@! TO.N,GND*
X46040000Y-63500000D03*
G04 #@! TO.N,/UART1_TX*
X48580000Y-63500000D03*
G04 #@! TO.N,/UART1_RX*
X51120000Y-63500000D03*
G04 #@! TO.N,Net-(J6-Pin_5)*
X53660000Y-63500000D03*
G04 #@! TO.N,/I2C0_SDA*
X56200000Y-63500000D03*
G04 #@! TO.N,/I2C0_SCL*
X58740000Y-63500000D03*
G04 #@! TO.N,/AUX_GPIOA*
X61280000Y-63500000D03*
G04 #@! TO.N,/AUX_GPIOB*
X63820000Y-63500000D03*
G04 #@! TO.N,/AUX_GPIOC*
X66360000Y-63500000D03*
G04 #@! TO.N,GND*
X68900000Y-63500000D03*
G04 #@! TD*
D14*
G04 #@! TO.N,Net-(J5-Pin_1)*
G04 #@! TO.C,J5*
X78250000Y-45250000D03*
D15*
G04 #@! TO.N,/GNSS_UART0_TX*
X78250000Y-47790000D03*
G04 #@! TO.N,/GNSS_UART0_RX*
X78250000Y-50330000D03*
G04 #@! TO.N,/GNSS_PPS*
X78250000Y-52870000D03*
G04 #@! TO.N,GND*
X78250000Y-55410000D03*
G04 #@! TD*
D16*
G04 #@! TO.N,GNDPWR*
G04 #@! TO.C,J2*
X40680000Y-43180000D03*
D17*
X36500000Y-43180000D03*
D16*
X40680000Y-51820000D03*
D17*
X36500000Y-51820000D03*
G04 #@! TD*
D18*
G04 #@! TO.N,+3V3*
X73400000Y-56010000D03*
X47700000Y-50000000D03*
X59809999Y-59000000D03*
X48000000Y-56200000D03*
X57600000Y-54000000D03*
X42800000Y-56300000D03*
X54820000Y-46400000D03*
X68400000Y-49100000D03*
X49800000Y-45800000D03*
X67600000Y-44500000D03*
X67080000Y-55900000D03*
X50500000Y-41300000D03*
X48100000Y-44300000D03*
X60100000Y-52400000D03*
X53100000Y-36500000D03*
X73000000Y-49800000D03*
X62900000Y-47100000D03*
X54200000Y-51600000D03*
X61294913Y-43601134D03*
X73000000Y-47800000D03*
X54699999Y-59000000D03*
X66400000Y-38000000D03*
X53700000Y-41700000D03*
X44500000Y-57000000D03*
X49200000Y-56200000D03*
X61100000Y-53300000D03*
X50600000Y-57100000D03*
X57200000Y-42100000D03*
X67200000Y-38000000D03*
X53400000Y-49100000D03*
X55790000Y-59004000D03*
X54200000Y-57400000D03*
X61200000Y-49000000D03*
X48000000Y-55000000D03*
X41900000Y-55900000D03*
X49200000Y-55000000D03*
X74211219Y-45070000D03*
X43800000Y-55500000D03*
X57600000Y-55000000D03*
X62900000Y-49000000D03*
G04 #@! TO.N,GND*
X70900000Y-37400000D03*
X42600000Y-38000000D03*
X71500000Y-42200000D03*
X69500000Y-53076250D03*
X42900000Y-43600000D03*
X61200000Y-50200000D03*
X64400000Y-39400000D03*
X68200000Y-37300000D03*
X67900000Y-53300000D03*
X69400000Y-44200000D03*
X50500000Y-40320000D03*
X43800000Y-43600000D03*
X72000000Y-58600000D03*
X72000000Y-37100000D03*
X51000000Y-58900000D03*
X70500000Y-52120000D03*
X49900000Y-58900000D03*
X63000000Y-50200000D03*
X66300000Y-39400000D03*
X69600000Y-47900000D03*
X73200000Y-57000000D03*
X46300000Y-39200000D03*
X73300000Y-41000000D03*
X39000000Y-45000000D03*
X69200000Y-57000000D03*
X44600000Y-43600000D03*
X70200000Y-57000000D03*
X46100000Y-50800000D03*
X74200000Y-41700000D03*
X73400000Y-43620000D03*
X42900000Y-58800000D03*
X70000000Y-58600000D03*
X59500000Y-50300000D03*
X73300000Y-38200000D03*
X43650000Y-47000000D03*
X68200000Y-43400000D03*
X73300000Y-39800000D03*
X41900000Y-57800000D03*
X73300000Y-42200000D03*
X67900000Y-58700000D03*
X72500000Y-53076250D03*
X51000000Y-59800000D03*
X72500000Y-51000000D03*
X43100000Y-50200000D03*
X39000000Y-46000000D03*
X51000000Y-51700000D03*
X52900000Y-56400000D03*
X69600000Y-49100000D03*
X41900000Y-58800000D03*
X70900000Y-39900000D03*
X65200000Y-40300000D03*
X71600000Y-44200000D03*
X70400000Y-51100000D03*
X42900000Y-57800000D03*
X74300000Y-57000000D03*
X71200000Y-57000000D03*
X74300000Y-54800000D03*
X69400000Y-42000000D03*
X67300000Y-39000000D03*
X46100000Y-52000000D03*
X74300000Y-58600000D03*
X69600000Y-40000000D03*
X64400000Y-43400000D03*
X67900000Y-52100000D03*
X67900000Y-50900000D03*
X73000000Y-48800000D03*
X65600000Y-42400000D03*
X72500000Y-51800000D03*
X39000000Y-49000000D03*
X74200000Y-36300000D03*
X67900000Y-54800000D03*
X69600000Y-46500000D03*
X68400000Y-41400000D03*
X44000000Y-50200000D03*
X55525000Y-57362500D03*
D19*
X52400000Y-46400000D03*
D18*
X66400000Y-43400000D03*
X54000000Y-40800000D03*
X46400000Y-36700000D03*
X70700000Y-47900000D03*
X61300000Y-44900000D03*
X39000000Y-48000000D03*
X71700000Y-47900000D03*
X69800000Y-37300000D03*
X70000000Y-59900000D03*
X69600000Y-45400000D03*
X68300000Y-40000000D03*
X37500000Y-53700000D03*
X72200000Y-57000000D03*
X65100000Y-56900000D03*
X63200000Y-40300000D03*
G04 #@! TO.N,/TL_HI_BIAS*
X58500000Y-37000000D03*
G04 #@! TO.N,/RF_DET_OUT*
X72500000Y-61700000D03*
G04 #@! TO.N,/TL_LO_BIAS*
X58500000Y-39100000D03*
X56449329Y-39033818D03*
G04 #@! TO.N,+1V1*
X54650000Y-45550000D03*
X50200000Y-44600000D03*
X49800000Y-46700000D03*
G04 #@! TO.N,+5V*
X41000000Y-53670000D03*
G04 #@! TO.N,VBUS*
X43450000Y-45000000D03*
X42200000Y-49900000D03*
G04 #@! TO.N,/STATUS_LED*
X56900000Y-47500000D03*
X57200000Y-36900000D03*
G04 #@! TO.N,/DECODE*
X54200000Y-38608818D03*
X62200000Y-41675000D03*
X54800000Y-40900000D03*
X44400000Y-39700000D03*
X63300000Y-44400000D03*
G04 #@! TO.N,Net-(J4-SWDIO{slash}TMS)*
X47400000Y-36500000D03*
X56900000Y-44800000D03*
X56350521Y-37249479D03*
G04 #@! TO.N,Net-(J4-SWDCLK{slash}TCK)*
X57400000Y-37700000D03*
X49100000Y-37900000D03*
X56900000Y-45600000D03*
G04 #@! TO.N,/~{RESET}*
X57037347Y-40537347D03*
X46700000Y-38400000D03*
X47600000Y-41800000D03*
G04 #@! TO.N,/PULSES*
X62900000Y-48000000D03*
X54700000Y-41700000D03*
X66300000Y-44600000D03*
G04 #@! TO.N,/QSPI_SS*
X47900000Y-49100000D03*
X51000000Y-55500000D03*
G04 #@! TO.N,/QSPI_SD1*
X51000000Y-54235000D03*
X48000000Y-48300000D03*
G04 #@! TO.N,/QSPI_SD2*
X51000000Y-53000000D03*
X49800000Y-48200000D03*
G04 #@! TO.N,/QSPI_SD0*
X44700000Y-49100000D03*
X44300000Y-51700000D03*
G04 #@! TO.N,/QSPI_SCLK*
X45300000Y-48500000D03*
X44300000Y-52900000D03*
G04 #@! TO.N,/QSPI_SD3*
X44300000Y-54200000D03*
X45900000Y-47900000D03*
G04 #@! TO.N,/UART1_TX*
X50540871Y-48855531D03*
G04 #@! TO.N,/UART1_RX*
X51900000Y-48500000D03*
G04 #@! TO.N,/I2C1_SDA*
X56300000Y-54400000D03*
G04 #@! TO.N,/I2C1_SCL*
X59100000Y-53700000D03*
G04 #@! TO.N,/TL_BIAS*
X68400000Y-47400000D03*
X64900000Y-45200000D03*
G04 #@! TO.N,/RECOVERED_CLK*
X53900000Y-44000000D03*
G04 #@! TO.N,/RSSI_HOLD*
X50575000Y-42200000D03*
X58900000Y-43601134D03*
G04 #@! TO.N,/RF_LEVEL*
X63600000Y-55275000D03*
X59900000Y-57300000D03*
X65600000Y-47800000D03*
X63575000Y-52445000D03*
G04 #@! TO.N,/I2C0_SCL*
X56900000Y-49100000D03*
X57700000Y-60000000D03*
G04 #@! TO.N,/I2C0_SDA*
X57925000Y-59200000D03*
X58266357Y-50163642D03*
G04 #@! TO.N,/ESP32_ENABLE*
X66100000Y-48900000D03*
X57000000Y-48300000D03*
G04 #@! TO.N,/ESP32_UART0_RX*
X55800000Y-43400000D03*
X57200000Y-50800000D03*
X66400000Y-50200000D03*
G04 #@! TO.N,/ESP32_UART0_TX*
X55000000Y-44200000D03*
X57400000Y-51600000D03*
X66400000Y-51500000D03*
G04 #@! TO.N,/ESP32_SPI_CS*
X63895000Y-46648439D03*
X54900000Y-48800000D03*
G04 #@! TO.N,/ESP32_SPI_MISO*
X54070000Y-48590000D03*
X65595851Y-46624999D03*
G04 #@! TO.N,/ESP32_SPI_MOSI*
X53220000Y-51070000D03*
X64800001Y-46100000D03*
X64320000Y-51800000D03*
G04 #@! TO.N,/ESP32_SPI_CLK*
X66400000Y-46100000D03*
X52654056Y-48795911D03*
G04 #@! TO.N,/GNSS_UART0_TX*
X47000000Y-51500000D03*
X76900000Y-54300000D03*
G04 #@! TO.N,/GNSS_PPS*
X52900000Y-55400000D03*
X52500000Y-50700000D03*
G04 #@! TO.N,/ESP32_GPIO0_BOOT*
X55462109Y-49828908D03*
G04 #@! TO.N,/AUX_GPIOA*
X57400000Y-61900000D03*
X55700000Y-42525000D03*
G04 #@! TO.N,/AUX_GPIOC*
X51400000Y-61400000D03*
X48900000Y-43100000D03*
G04 #@! TO.N,/AUX_GPIOB*
X54000000Y-39925000D03*
X61709739Y-40700000D03*
G04 #@! TO.N,/GNSS_UART0_RX*
X76900000Y-53500000D03*
X47700000Y-51900000D03*
G04 #@! TO.N,Net-(J2-CC1)*
X43900000Y-42590001D03*
X40000000Y-46250000D03*
G04 #@! TO.N,/ESP_LED*
X45700000Y-43000000D03*
X59600000Y-42300000D03*
G04 #@! TO.N,/TL_HI_PWM*
X52707868Y-43745974D03*
X62950521Y-43449479D03*
X63300000Y-39500000D03*
G04 #@! TO.N,/TL_LO_PWM*
X67356400Y-40412407D03*
X67000000Y-45100000D03*
X51900000Y-44000000D03*
G04 #@! TO.N,Net-(SW2-B2)*
X63250000Y-42550000D03*
X66900000Y-48209998D03*
G04 #@! TD*
D20*
G04 #@! TO.N,+1V1*
X54060230Y-45550000D02*
X53110230Y-44600000D01*
X53110230Y-44600000D02*
X50200000Y-44600000D01*
X54650000Y-45550000D02*
X54060230Y-45550000D01*
D21*
G04 #@! TO.N,/DECODE*
X58800000Y-41100000D02*
X59000000Y-41300000D01*
X61825000Y-41300000D02*
X62200000Y-41675000D01*
X56100000Y-41100000D02*
X58800000Y-41100000D01*
X55000000Y-41100000D02*
X54800000Y-40900000D01*
X56100000Y-41100000D02*
X55000000Y-41100000D01*
X59000000Y-41300000D02*
X61825000Y-41300000D01*
G04 #@! TO.N,Net-(J4-SWDIO{slash}TMS)*
X47900000Y-37000000D02*
X47400000Y-36500000D01*
X56101042Y-37000000D02*
X47900000Y-37000000D01*
X56350521Y-37249479D02*
X56101042Y-37000000D01*
G04 #@! TO.N,Net-(J4-SWDCLK{slash}TCK)*
X56200000Y-37700000D02*
X55800000Y-37300000D01*
X49700000Y-37300000D02*
X49100000Y-37900000D01*
X57400000Y-37700000D02*
X56200000Y-37700000D01*
X55800000Y-37300000D02*
X49700000Y-37300000D01*
G04 #@! TO.N,/~{RESET}*
X47600000Y-41800000D02*
X48600000Y-40800000D01*
X56875000Y-40375000D02*
X57037347Y-40537347D01*
X48600000Y-40800000D02*
X53375000Y-40800000D01*
X53800000Y-40375000D02*
X56875000Y-40375000D01*
X53375000Y-40800000D02*
X53800000Y-40375000D01*
G04 #@! TO.N,/PULSES*
X61523959Y-41600000D02*
X58875736Y-41600000D01*
X66300000Y-44600000D02*
X63800000Y-42100000D01*
X62023959Y-42100000D02*
X61523959Y-41600000D01*
X63800000Y-42100000D02*
X62023959Y-42100000D01*
X58875736Y-41600000D02*
X58675736Y-41400000D01*
X58675736Y-41400000D02*
X55000000Y-41400000D01*
X55000000Y-41400000D02*
X54700000Y-41700000D01*
G04 #@! TO.N,/TL_BIAS*
X66349695Y-45675000D02*
X65874695Y-45200000D01*
X66875000Y-45675000D02*
X66500000Y-45675000D01*
X65874695Y-45200000D02*
X64900000Y-45200000D01*
X68400000Y-47200000D02*
X66875000Y-45675000D01*
X66500000Y-45675000D02*
X66349695Y-45675000D01*
G04 #@! TO.N,/RSSI_HOLD*
X56600000Y-43598959D02*
X55951041Y-42950000D01*
X51325000Y-42950000D02*
X50575000Y-42200000D01*
X58897825Y-43598959D02*
X56600000Y-43598959D01*
X58900000Y-43601134D02*
X58897825Y-43598959D01*
X55951041Y-42950000D02*
X51325000Y-42950000D01*
G04 #@! TO.N,/ESP32_ENABLE*
X57575000Y-48575000D02*
X57300000Y-48300000D01*
X65775000Y-48575000D02*
X57575000Y-48575000D01*
X57300000Y-48300000D02*
X57000000Y-48300000D01*
X66100000Y-48900000D02*
X65775000Y-48575000D01*
G04 #@! TO.N,/ESP32_UART0_RX*
X57200000Y-50800000D02*
X65800000Y-50800000D01*
X65800000Y-50800000D02*
X66400000Y-50200000D01*
G04 #@! TO.N,/ESP32_UART0_TX*
X57900000Y-51100000D02*
X62100000Y-51100000D01*
X62100000Y-51100000D02*
X66000000Y-51100000D01*
X57400000Y-51600000D02*
X57900000Y-51100000D01*
X66000000Y-51100000D02*
X66400000Y-51500000D01*
G04 #@! TO.N,/ESP32_SPI_CS*
X63500000Y-46500000D02*
X63746561Y-46500000D01*
X58100000Y-46500000D02*
X63500000Y-46500000D01*
X63746561Y-46500000D02*
X63895000Y-46648439D01*
X54900000Y-48800000D02*
X56625000Y-47075000D01*
X57525000Y-47075000D02*
X58100000Y-46500000D01*
X56625000Y-47075000D02*
X57525000Y-47075000D01*
G04 #@! TO.N,/ESP32_SPI_MISO*
X55672653Y-46572652D02*
X57102348Y-46572652D01*
X63825000Y-45975000D02*
X63900000Y-45975000D01*
X54070000Y-48175305D02*
X55672653Y-46572652D01*
X64549999Y-46624999D02*
X65595851Y-46624999D01*
X57700000Y-45975000D02*
X63825000Y-45975000D01*
X63900000Y-45975000D02*
X64549999Y-46624999D01*
X54070000Y-48590000D02*
X54070000Y-48175305D01*
X57102348Y-46572652D02*
X57700000Y-45975000D01*
G04 #@! TO.N,/ESP32_SPI_MOSI*
X64320000Y-51800000D02*
X60098959Y-51800000D01*
X54278959Y-52280000D02*
X53220000Y-51221041D01*
X59618959Y-52280000D02*
X54278959Y-52280000D01*
X53220000Y-51221041D02*
X53220000Y-51070000D01*
X60098959Y-51800000D02*
X59618959Y-52280000D01*
G04 #@! TO.N,/ESP32_SPI_CLK*
X65625000Y-46100000D02*
X65200000Y-45675000D01*
X56901041Y-46200000D02*
X55621041Y-46200000D01*
X55621041Y-46200000D02*
X53025130Y-48795911D01*
X65200000Y-45675000D02*
X57426041Y-45675000D01*
X66400000Y-46100000D02*
X65625000Y-46100000D01*
X57426041Y-45675000D02*
X56901041Y-46200000D01*
X53025130Y-48795911D02*
X52654056Y-48795911D01*
G04 #@! TO.N,/AUX_GPIOA*
X57400000Y-61900000D02*
X59680000Y-61900000D01*
X59680000Y-61900000D02*
X61280000Y-63500000D01*
G04 #@! TO.N,/AUX_GPIOC*
X51400000Y-61400000D02*
X51425000Y-61425000D01*
X51425000Y-61425000D02*
X64285000Y-61425000D01*
X64285000Y-61425000D02*
X66360000Y-63500000D01*
G04 #@! TO.N,/AUX_GPIOB*
X54000000Y-39925000D02*
X61025000Y-39925000D01*
X61709739Y-40609739D02*
X61709739Y-40700000D01*
X61025000Y-39925000D02*
X61709739Y-40609739D01*
G04 #@! TO.N,/ESP_LED*
X59600000Y-42300000D02*
X59375000Y-42525000D01*
X59375000Y-42525000D02*
X56301041Y-42525000D01*
X54876041Y-42125000D02*
X51225000Y-42125000D01*
X55000521Y-42000520D02*
X54876041Y-42125000D01*
X48375000Y-41725000D02*
X47100000Y-43000000D01*
X55776561Y-42000520D02*
X55000521Y-42000520D01*
X50825000Y-41725000D02*
X48375000Y-41725000D01*
X56301041Y-42525000D02*
X55776561Y-42000520D01*
X47100000Y-43000000D02*
X45700000Y-43000000D01*
X51225000Y-42125000D02*
X50825000Y-41725000D01*
G04 #@! TO.N,/TL_HI_PWM*
X55427175Y-44026134D02*
X62373866Y-44026134D01*
X62373866Y-44026134D02*
X62950521Y-43449479D01*
X52978842Y-43475000D02*
X54876041Y-43475000D01*
X52707868Y-43745974D02*
X52978842Y-43475000D01*
X54876041Y-43475000D02*
X55427175Y-44026134D01*
G04 #@! TO.N,/TL_LO_PWM*
X56175000Y-44625000D02*
X56425000Y-44375000D01*
X65073960Y-43975000D02*
X66198959Y-45100000D01*
X63073958Y-43975000D02*
X65073960Y-43975000D01*
X62673958Y-44375000D02*
X63073958Y-43975000D01*
X52100521Y-44200521D02*
X53499480Y-44200521D01*
X66198959Y-45100000D02*
X67000000Y-45100000D01*
X53499480Y-44200521D02*
X53923959Y-44625000D01*
X56425000Y-44375000D02*
X62673958Y-44375000D01*
X53923959Y-44625000D02*
X56175000Y-44625000D01*
X51900000Y-44000000D02*
X52100521Y-44200521D01*
G04 #@! TD*
G04 #@! TA.AperFunction,Conductor*
G04 #@! TO.N,GND*
G36*
X73543039Y-36419685D02*
G01*
X73588794Y-36472489D01*
X73600000Y-36524000D01*
X73600000Y-47772126D01*
X73592574Y-47797413D01*
X73598977Y-47811980D01*
X73600000Y-47827873D01*
X73600000Y-49772126D01*
X73592574Y-49797413D01*
X73598977Y-49811980D01*
X73600000Y-49827873D01*
X73600000Y-55541622D01*
X73580315Y-55608661D01*
X73527511Y-55654416D01*
X73458353Y-55664360D01*
X73456603Y-55664096D01*
X73437452Y-55661063D01*
X73400000Y-55655131D01*
X73399998Y-55655131D01*
X73399997Y-55655131D01*
X73290341Y-55672498D01*
X73191414Y-55722904D01*
X73191407Y-55722909D01*
X73112909Y-55801407D01*
X73112904Y-55801414D01*
X73062498Y-55900341D01*
X73045131Y-56009997D01*
X73045131Y-56010002D01*
X73062498Y-56119658D01*
X73112904Y-56218585D01*
X73112909Y-56218592D01*
X73191407Y-56297090D01*
X73191410Y-56297092D01*
X73191413Y-56297095D01*
X73290339Y-56347500D01*
X73290341Y-56347501D01*
X73399998Y-56364869D01*
X73400000Y-56364869D01*
X73400001Y-56364869D01*
X73456601Y-56355904D01*
X73525895Y-56364858D01*
X73579347Y-56409854D01*
X73599987Y-56476606D01*
X73600000Y-56478377D01*
X73600000Y-57376000D01*
X73580315Y-57443039D01*
X73527511Y-57488794D01*
X73476000Y-57500000D01*
X68724000Y-57500000D01*
X68656961Y-57480315D01*
X68611206Y-57427511D01*
X68600000Y-57376000D01*
X68600000Y-49799997D01*
X72645131Y-49799997D01*
X72645131Y-49800002D01*
X72662498Y-49909658D01*
X72712904Y-50008585D01*
X72712909Y-50008592D01*
X72791407Y-50087090D01*
X72791410Y-50087092D01*
X72791413Y-50087095D01*
X72890339Y-50137500D01*
X72890341Y-50137501D01*
X72999998Y-50154869D01*
X73000000Y-50154869D01*
X73000002Y-50154869D01*
X73109658Y-50137501D01*
X73109659Y-50137500D01*
X73109661Y-50137500D01*
X73208587Y-50087095D01*
X73287095Y-50008587D01*
X73337500Y-49909661D01*
X73337500Y-49909659D01*
X73337501Y-49909658D01*
X73353527Y-49808475D01*
X73356113Y-49803018D01*
X73353527Y-49791524D01*
X73337501Y-49690341D01*
X73337500Y-49690339D01*
X73287095Y-49591413D01*
X73287092Y-49591410D01*
X73287090Y-49591407D01*
X73208592Y-49512909D01*
X73208588Y-49512906D01*
X73208587Y-49512905D01*
X73204743Y-49510946D01*
X73109658Y-49462498D01*
X73000002Y-49445131D01*
X72999998Y-49445131D01*
X72890341Y-49462498D01*
X72791414Y-49512904D01*
X72791407Y-49512909D01*
X72712909Y-49591407D01*
X72712904Y-49591414D01*
X72662498Y-49690341D01*
X72645131Y-49799997D01*
X68600000Y-49799997D01*
X68600000Y-49447045D01*
X68619685Y-49380006D01*
X68636319Y-49359364D01*
X68687090Y-49308592D01*
X68687095Y-49308587D01*
X68737500Y-49209661D01*
X68737500Y-49209659D01*
X68737501Y-49209658D01*
X68754869Y-49100002D01*
X68754869Y-49099997D01*
X68737501Y-48990341D01*
X68737500Y-48990339D01*
X68687095Y-48891413D01*
X68687092Y-48891410D01*
X68687090Y-48891407D01*
X68636319Y-48840636D01*
X68602834Y-48779313D01*
X68600000Y-48752955D01*
X68600000Y-47799997D01*
X72645131Y-47799997D01*
X72645131Y-47800002D01*
X72662498Y-47909658D01*
X72712904Y-48008585D01*
X72712909Y-48008592D01*
X72791407Y-48087090D01*
X72791410Y-48087092D01*
X72791413Y-48087095D01*
X72890339Y-48137500D01*
X72890341Y-48137501D01*
X72999998Y-48154869D01*
X73000000Y-48154869D01*
X73000002Y-48154869D01*
X73109658Y-48137501D01*
X73109659Y-48137500D01*
X73109661Y-48137500D01*
X73208587Y-48087095D01*
X73287095Y-48008587D01*
X73337500Y-47909661D01*
X73337500Y-47909659D01*
X73337501Y-47909658D01*
X73353527Y-47808475D01*
X73356113Y-47803018D01*
X73353527Y-47791524D01*
X73337501Y-47690341D01*
X73332235Y-47680006D01*
X73287095Y-47591413D01*
X73287092Y-47591410D01*
X73287090Y-47591407D01*
X73208592Y-47512909D01*
X73208588Y-47512906D01*
X73208587Y-47512905D01*
X73202214Y-47509658D01*
X73109658Y-47462498D01*
X73000002Y-47445131D01*
X72999998Y-47445131D01*
X72890341Y-47462498D01*
X72791414Y-47512904D01*
X72791407Y-47512909D01*
X72712909Y-47591407D01*
X72712904Y-47591414D01*
X72662498Y-47690341D01*
X72645131Y-47799997D01*
X68600000Y-47799997D01*
X68600000Y-47747045D01*
X68619685Y-47680006D01*
X68636319Y-47659364D01*
X68687090Y-47608592D01*
X68687095Y-47608587D01*
X68737500Y-47509661D01*
X68737500Y-47509659D01*
X68737501Y-47509658D01*
X68754869Y-47400002D01*
X68754869Y-47399997D01*
X68737501Y-47290341D01*
X68700730Y-47218174D01*
X68687095Y-47191413D01*
X68687092Y-47191410D01*
X68687090Y-47191407D01*
X68636319Y-47140636D01*
X68602834Y-47079313D01*
X68600000Y-47052955D01*
X68600000Y-41100000D01*
X67824000Y-41100000D01*
X67756961Y-41080315D01*
X67711206Y-41027511D01*
X67700000Y-40976000D01*
X67700000Y-40493312D01*
X67701527Y-40473913D01*
X67711269Y-40412407D01*
X67711269Y-40412405D01*
X67701527Y-40350898D01*
X67700000Y-40331500D01*
X67700000Y-36524000D01*
X67719685Y-36456961D01*
X67772489Y-36411206D01*
X67824000Y-36400000D01*
X73476000Y-36400000D01*
X73543039Y-36419685D01*
G37*
G04 #@! TD.AperFunction*
G04 #@! TD*
M02*
