  0
SECTION
  2
HEADER
  9
$ANGBASE
  50
0.0
  9
$ANGDIR
  70
1
  9
$MEASUREMENT
  70
1
  0
ENDSEC
  0
SECTION
  2
TABLES
  0
TABLE
  2
LTYPE
  70
4
  0
LTYPE
  5
40F
  2
CONTINUOUS
  70
0
  3
Solid line
  72
65
  73
0
  40
0.0
  0
LTYPE
  5
410
  2
DASHDOT
 70
0
  3
Dash Dot ____ _ ____ _
 72
65
 73
4
 40
2.0
 49
1.25
 49
-0.25
 49
0.25
 49
-0.25
  0
LTYPE
  5
411
  2
DASHED
 70
0
  3
Dashed __ __ __ __ __
 72
65
 73
2
 40
0.75
 49
0.5
 49
-0.25
  0
LTYPE
  5
43B
  2
DOTTED
 70
0
  3
Dotted .  .  .  .
 72
65
 73
2
 40
0.2
 49
0.0
 49
-0.2
  0
ENDTAB
  0
TABLE
  2
STYLE
  70
4
  0
STYLE
  2
KICAD
  70
0
  40
0
  41
1
  42
1
  50
0
  71
0
  3
isocp.shx
  0
STYLE
  2
KICADB
  70
0
  40
0
  41
1
  42
1
  50
0
  71
0
  3
isocp.shx
  0
STYLE
  2
KICADI
  70
0
  40
0
  41
1
  42
1
  50
15
  71
0
  3
isocp.shx
  0
STYLE
  2
KICADBI
  70
0
  40
0
  41
1
  42
1
  50
15
  71
0
  3
isocp.shx
  0
ENDTAB
  0
TABLE
  2
LAYER
  70
1
  0
LAYER
  2
BLACK
  70
0
  62
7
  6
CONTINUOUS
  0
ENDTAB
  0
ENDSEC
  0
SECTION
  2
ENTITIES
0
LINE
8
BLACK
6
CONTINUOUS
10
35
20
-35.5
11
68.5
21
-35.5
0
LINE
8
BLACK
6
CONTINUOUS
10
68.5
20
-35.5
11
68.5
21
-65.5
0
LINE
8
BLACK
6
CONTINUOUS
10
68.5
20
-65.5
11
35
21
-65.5
0
LINE
8
BLACK
6
CONTINUOUS
10
35
20
-65.5
11
35
21
-35.5
0
LINE
8
BLACK
6
CONTINUOUS
10
40.3
20
-48.2
11
40.5
21
-48.4
0
LINE
8
BLACK
6
CONTINUOUS
10
40.5
20
-48.2
11
40.3
21
-48.4
0
LINE
8
BLACK
6
CONTINUOUS
10
40.9
20
-52.4
11
41.1
21
-52.6
0
LINE
8
BLACK
6
CONTINUOUS
10
41.1
20
-52.4
11
40.9
21
-52.6
0
LINE
8
BLACK
6
CONTINUOUS
10
41.4
20
-40.8
11
41.6
21
-41
0
LINE
8
BLACK
6
CONTINUOUS
10
41.6
20
-40.8
11
41.4
21
-41
0
LINE
8
BLACK
6
CONTINUOUS
10
41.6
20
-48.5
11
41.8
21
-48.7
0
LINE
8
BLACK
6
CONTINUOUS
10
41.8
20
-48.5
11
41.6
21
-48.7
0
LINE
8
BLACK
6
CONTINUOUS
10
41.9
20
-49.3
11
42.1
21
-49.5
0
LINE
8
BLACK
6
CONTINUOUS
10
42.1
20
-49.3
11
41.9
21
-49.5
0
LINE
8
BLACK
6
CONTINUOUS
10
42.4
20
-36.7705
11
42.6
21
-36.9705
0
LINE
8
BLACK
6
CONTINUOUS
10
42.6
20
-36.7705
11
42.4
21
-36.9705
0
LINE
8
BLACK
6
CONTINUOUS
10
42.4
20
-39.7
11
42.6
21
-39.9
0
LINE
8
BLACK
6
CONTINUOUS
10
42.6
20
-39.7
11
42.4
21
-39.9
0
LINE
8
BLACK
6
CONTINUOUS
10
42.5
20
-41.7
11
42.7
21
-41.9
0
LINE
8
BLACK
6
CONTINUOUS
10
42.7
20
-41.7
11
42.5
21
-41.9
0
LINE
8
BLACK
6
CONTINUOUS
10
42.5
20
-50.9
11
42.7
21
-51.1
0
LINE
8
BLACK
6
CONTINUOUS
10
42.7
20
-50.9
11
42.5
21
-51.1
0
LINE
8
BLACK
6
CONTINUOUS
10
43.4
20
-49.9
11
43.6
21
-50.1
0
LINE
8
BLACK
6
CONTINUOUS
10
43.6
20
-49.9
11
43.4
21
-50.1
0
LINE
8
BLACK
6
CONTINUOUS
10
43.4
20
-52
11
43.6
21
-52.2
0
LINE
8
BLACK
6
CONTINUOUS
10
43.6
20
-52
11
43.4
21
-52.2
0
LINE
8
BLACK
6
CONTINUOUS
10
43.4
20
-61
11
43.6
21
-61.2
0
LINE
8
BLACK
6
CONTINUOUS
10
43.6
20
-61
11
43.4
21
-61.2
0
LINE
8
BLACK
6
CONTINUOUS
10
43.7
20
-37.9
11
43.9
21
-38.1
0
LINE
8
BLACK
6
CONTINUOUS
10
43.9
20
-37.9
11
43.7
21
-38.1
0
LINE
8
BLACK
6
CONTINUOUS
10
44
20
-50.4
11
44.2
21
-50.6
0
LINE
8
BLACK
6
CONTINUOUS
10
44.2
20
-50.4
11
44
21
-50.6
0
LINE
8
BLACK
6
CONTINUOUS
10
44.4
20
-41.7
11
44.6
21
-41.9
0
LINE
8
BLACK
6
CONTINUOUS
10
44.6
20
-41.7
11
44.4
21
-41.9
0
LINE
8
BLACK
6
CONTINUOUS
10
44.4
20
-48.4
11
44.6
21
-48.6
0
LINE
8
BLACK
6
CONTINUOUS
10
44.6
20
-48.4
11
44.4
21
-48.6
0
LINE
8
BLACK
6
CONTINUOUS
10
45.5
20
-53.5
11
45.7
21
-53.7
0
LINE
8
BLACK
6
CONTINUOUS
10
45.7
20
-53.5
11
45.5
21
-53.7
0
LINE
8
BLACK
6
CONTINUOUS
10
45.7
20
-42.5
11
45.9
21
-42.7
0
LINE
8
BLACK
6
CONTINUOUS
10
45.9
20
-42.5
11
45.7
21
-42.7
0
LINE
8
BLACK
6
CONTINUOUS
10
45.8255
20
-49.4
11
46.0255
21
-49.6
0
LINE
8
BLACK
6
CONTINUOUS
10
46.0255
20
-49.4
11
45.8255
21
-49.6
0
LINE
8
BLACK
6
CONTINUOUS
10
46
20
-36.1
11
46.2
21
-36.3
0
LINE
8
BLACK
6
CONTINUOUS
10
46.2
20
-36.1
11
46
21
-36.3
0
LINE
8
BLACK
6
CONTINUOUS
10
46
20
-37.9
11
46.2
21
-38.1
0
LINE
8
BLACK
6
CONTINUOUS
10
46.2
20
-37.9
11
46
21
-38.1
0
LINE
8
BLACK
6
CONTINUOUS
10
46.1995
20
-53.5495
11
46.3995
21
-53.7495
0
LINE
8
BLACK
6
CONTINUOUS
10
46.3995
20
-53.5495
11
46.1995
21
-53.7495
0
LINE
8
BLACK
6
CONTINUOUS
10
46.6258
20
-48.0258
11
46.8258
21
-48.2258
0
LINE
8
BLACK
6
CONTINUOUS
10
46.8258
20
-48.0258
11
46.6258
21
-48.2258
0
LINE
8
BLACK
6
CONTINUOUS
10
46.7194
20
-54.0175
11
46.9194
21
-54.2175
0
LINE
8
BLACK
6
CONTINUOUS
10
46.9194
20
-54.0175
11
46.7194
21
-54.2175
0
LINE
8
BLACK
6
CONTINUOUS
10
46.92
20
-43.8
11
47.12
21
-44
0
LINE
8
BLACK
6
CONTINUOUS
10
47.12
20
-43.8
11
46.92
21
-44
0
LINE
8
BLACK
6
CONTINUOUS
10
46.9822
20
-48.6822
11
47.1822
21
-48.8822
0
LINE
8
BLACK
6
CONTINUOUS
10
47.1822
20
-48.6822
11
46.9822
21
-48.8822
0
LINE
8
BLACK
6
CONTINUOUS
10
47.0266
20
-47.3567
11
47.2266
21
-47.5567
0
LINE
8
BLACK
6
CONTINUOUS
10
47.2266
20
-47.3567
11
47.0266
21
-47.5567
0
LINE
8
BLACK
6
CONTINUOUS
10
47.0756
20
-49.7122
11
47.2756
21
-49.9122
0
LINE
8
BLACK
6
CONTINUOUS
10
47.2756
20
-49.7122
11
47.0756
21
-49.9122
0
LINE
8
BLACK
6
CONTINUOUS
10
47.1
20
-61.9
11
47.3
21
-62.1
0
LINE
8
BLACK
6
CONTINUOUS
10
47.3
20
-61.9
11
47.1
21
-62.1
0
LINE
8
BLACK
6
CONTINUOUS
10
47.2795
20
-46.7045
11
47.4795
21
-46.9045
0
LINE
8
BLACK
6
CONTINUOUS
10
47.4795
20
-46.7045
11
47.2795
21
-46.9045
0
LINE
8
BLACK
6
CONTINUOUS
10
47.5
20
-60.8
11
47.7
21
-61
0
LINE
8
BLACK
6
CONTINUOUS
10
47.7
20
-60.8
11
47.5
21
-61
0
LINE
8
BLACK
6
CONTINUOUS
10
47.6
20
-42.2
11
47.8
21
-42.4
0
LINE
8
BLACK
6
CONTINUOUS
10
47.8
20
-42.2
11
47.6
21
-42.4
0
LINE
8
BLACK
6
CONTINUOUS
10
47.764
20
-49.7862
11
47.964
21
-49.9862
0
LINE
8
BLACK
6
CONTINUOUS
10
47.964
20
-49.7862
11
47.764
21
-49.9862
0
LINE
8
BLACK
6
CONTINUOUS
10
48.0245
20
-58.2632
11
48.2245
21
-58.4632
0
LINE
8
BLACK
6
CONTINUOUS
10
48.2245
20
-58.2632
11
48.0245
21
-58.4632
0
LINE
8
BLACK
6
CONTINUOUS
10
48.4
20
-50.1
11
48.6
21
-50.3
0
LINE
8
BLACK
6
CONTINUOUS
10
48.6
20
-50.1
11
48.4
21
-50.3
0
LINE
8
BLACK
6
CONTINUOUS
10
48.7239
20
-58.2493
11
48.9239
21
-58.4493
0
LINE
8
BLACK
6
CONTINUOUS
10
48.9239
20
-58.2493
11
48.7239
21
-58.4493
0
LINE
8
BLACK
6
CONTINUOUS
10
48.8
20
-60.7
11
49
21
-60.9
0
LINE
8
BLACK
6
CONTINUOUS
10
49
20
-60.7
11
48.8
21
-60.9
0
LINE
8
BLACK
6
CONTINUOUS
10
49.2
20
-41.2
11
49.4
21
-41.4
0
LINE
8
BLACK
6
CONTINUOUS
10
49.4
20
-41.2
11
49.2
21
-41.4
0
LINE
8
BLACK
6
CONTINUOUS
10
49.4081
20
-58.3947
11
49.6081
21
-58.5947
0
LINE
8
BLACK
6
CONTINUOUS
10
49.6081
20
-58.3947
11
49.4081
21
-58.5947
0
LINE
8
BLACK
6
CONTINUOUS
10
49.5
20
-38.675
11
49.7
21
-38.875
0
LINE
8
BLACK
6
CONTINUOUS
10
49.7
20
-38.675
11
49.5
21
-38.875
0
LINE
8
BLACK
6
CONTINUOUS
10
49.6
20
-60.8
11
49.8
21
-61
0
LINE
8
BLACK
6
CONTINUOUS
10
49.8
20
-60.8
11
49.6
21
-61
0
LINE
8
BLACK
6
CONTINUOUS
10
49.65
20
-44.4
11
49.85
21
-44.6
0
LINE
8
BLACK
6
CONTINUOUS
10
49.85
20
-44.4
11
49.65
21
-44.6
0
LINE
8
BLACK
6
CONTINUOUS
10
49.65
20
-45.65
11
49.85
21
-45.85
0
LINE
8
BLACK
6
CONTINUOUS
10
49.85
20
-45.65
11
49.65
21
-45.85
0
LINE
8
BLACK
6
CONTINUOUS
10
49.65
20
-47.15
11
49.85
21
-47.35
0
LINE
8
BLACK
6
CONTINUOUS
10
49.85
20
-47.15
11
49.65
21
-47.35
0
LINE
8
BLACK
6
CONTINUOUS
10
49.65
20
-48.4
11
49.85
21
-48.6
0
LINE
8
BLACK
6
CONTINUOUS
10
49.85
20
-48.4
11
49.65
21
-48.6
0
LINE
8
BLACK
6
CONTINUOUS
10
50.1
20
-42
11
50.3
21
-42.2
0
LINE
8
BLACK
6
CONTINUOUS
10
50.3
20
-42
11
50.1
21
-42.2
0
LINE
8
BLACK
6
CONTINUOUS
10
50.2
20
-59.7
11
50.4
21
-59.9
0
LINE
8
BLACK
6
CONTINUOUS
10
50.4
20
-59.7
11
50.2
21
-59.9
0
LINE
8
BLACK
6
CONTINUOUS
10
50.3
20
-55.1
11
50.5
21
-55.3
0
LINE
8
BLACK
6
CONTINUOUS
10
50.5
20
-55.1
11
50.3
21
-55.3
0
LINE
8
BLACK
6
CONTINUOUS
10
50.5
20
-51
11
50.7
21
-51.2
0
LINE
8
BLACK
6
CONTINUOUS
10
50.7
20
-51
11
50.5
21
-51.2
0
LINE
8
BLACK
6
CONTINUOUS
10
50.6
20
-40.22
11
50.8
21
-40.42
0
LINE
8
BLACK
6
CONTINUOUS
10
50.8
20
-40.22
11
50.6
21
-40.42
0
LINE
8
BLACK
6
CONTINUOUS
10
50.7995
20
-42
11
50.9995
21
-42.2
0
LINE
8
BLACK
6
CONTINUOUS
10
50.9995
20
-42
11
50.7995
21
-42.2
0
LINE
8
BLACK
6
CONTINUOUS
10
50.8
20
-40.9505
11
51
21
-41.1505
0
LINE
8
BLACK
6
CONTINUOUS
10
51
20
-40.9505
11
50.8
21
-41.1505
0
LINE
8
BLACK
6
CONTINUOUS
10
50.8
20
-56.9
11
51
21
-57.1
0
LINE
8
BLACK
6
CONTINUOUS
10
51
20
-56.9
11
50.8
21
-57.1
0
LINE
8
BLACK
6
CONTINUOUS
10
50.9
20
-44.4
11
51.1
21
-44.6
0
LINE
8
BLACK
6
CONTINUOUS
10
51.1
20
-44.4
11
50.9
21
-44.6
0
LINE
8
BLACK
6
CONTINUOUS
10
50.9
20
-48.4
11
51.1
21
-48.6
0
LINE
8
BLACK
6
CONTINUOUS
10
51.1
20
-48.4
11
50.9
21
-48.6
0
LINE
8
BLACK
6
CONTINUOUS
10
51.2015
20
-51.0402
11
51.4015
21
-51.2402
0
LINE
8
BLACK
6
CONTINUOUS
10
51.4015
20
-51.0402
11
51.2015
21
-51.2402
0
LINE
8
BLACK
6
CONTINUOUS
10
51.3745
20
-54.4
11
51.5745
21
-54.6
0
LINE
8
BLACK
6
CONTINUOUS
10
51.5745
20
-54.4
11
51.3745
21
-54.6
0
LINE
8
BLACK
6
CONTINUOUS
10
51.95
20
-57.9
11
52.15
21
-58.1
0
LINE
8
BLACK
6
CONTINUOUS
10
52.15
20
-57.9
11
51.95
21
-58.1
0
LINE
8
BLACK
6
CONTINUOUS
10
52
20
-52.8
11
52.2
21
-53
0
LINE
8
BLACK
6
CONTINUOUS
10
52.2
20
-52.8
11
52
21
-53
0
LINE
8
BLACK
6
CONTINUOUS
10
52.02
20
-40.22
11
52.22
21
-40.42
0
LINE
8
BLACK
6
CONTINUOUS
10
52.22
20
-40.22
11
52.02
21
-40.42
0
LINE
8
BLACK
6
CONTINUOUS
10
52.1
20
-41.2
11
52.3
21
-41.4
0
LINE
8
BLACK
6
CONTINUOUS
10
52.3
20
-41.2
11
52.1
21
-41.4
0
LINE
8
BLACK
6
CONTINUOUS
10
52.3755
20
-44.4
11
52.5755
21
-44.6
0
LINE
8
BLACK
6
CONTINUOUS
10
52.5755
20
-44.4
11
52.3755
21
-44.6
0
LINE
8
BLACK
6
CONTINUOUS
10
52.3755
20
-48.4
11
52.5755
21
-48.6
0
LINE
8
BLACK
6
CONTINUOUS
10
52.5755
20
-48.4
11
52.3755
21
-48.6
0
LINE
8
BLACK
6
CONTINUOUS
10
52.6
20
-56.4
11
52.8
21
-56.6
0
LINE
8
BLACK
6
CONTINUOUS
10
52.8
20
-56.4
11
52.6
21
-56.6
0
LINE
8
BLACK
6
CONTINUOUS
10
52.6
20
-60.3
11
52.8
21
-60.5
0
LINE
8
BLACK
6
CONTINUOUS
10
52.8
20
-60.3
11
52.6
21
-60.5
0
LINE
8
BLACK
6
CONTINUOUS
10
52.7
20
-51.9
11
52.9
21
-52.1
0
LINE
8
BLACK
6
CONTINUOUS
10
52.9
20
-51.9
11
52.7
21
-52.1
0
LINE
8
BLACK
6
CONTINUOUS
10
53
20
-53.7
11
53.2
21
-53.9
0
LINE
8
BLACK
6
CONTINUOUS
10
53.2
20
-53.7
11
53
21
-53.9
0
LINE
8
BLACK
6
CONTINUOUS
10
53.2141
20
-41.9011
11
53.4141
21
-42.1011
0
LINE
8
BLACK
6
CONTINUOUS
10
53.4141
20
-41.9011
11
53.2141
21
-42.1011
0
LINE
8
BLACK
6
CONTINUOUS
10
53.4
20
-37.9
11
53.6
21
-38.1
0
LINE
8
BLACK
6
CONTINUOUS
10
53.6
20
-37.9
11
53.4
21
-38.1
0
LINE
8
BLACK
6
CONTINUOUS
10
53.65
20
-44.4
11
53.85
21
-44.6
0
LINE
8
BLACK
6
CONTINUOUS
10
53.85
20
-44.4
11
53.65
21
-44.6
0
LINE
8
BLACK
6
CONTINUOUS
10
53.65
20
-45.65
11
53.85
21
-45.85
0
LINE
8
BLACK
6
CONTINUOUS
10
53.85
20
-45.65
11
53.65
21
-45.85
0
LINE
8
BLACK
6
CONTINUOUS
10
53.65
20
-47.15
11
53.85
21
-47.35
0
LINE
8
BLACK
6
CONTINUOUS
10
53.85
20
-47.15
11
53.65
21
-47.35
0
LINE
8
BLACK
6
CONTINUOUS
10
53.65
20
-48.4
11
53.85
21
-48.6
0
LINE
8
BLACK
6
CONTINUOUS
10
53.85
20
-48.4
11
53.65
21
-48.6
0
LINE
8
BLACK
6
CONTINUOUS
10
53.7
20
-51.9
11
53.9
21
-52.1
0
LINE
8
BLACK
6
CONTINUOUS
10
53.9
20
-51.9
11
53.7
21
-52.1
0
LINE
8
BLACK
6
CONTINUOUS
10
53.9703
20
-41.9648
11
54.1703
21
-42.1648
0
LINE
8
BLACK
6
CONTINUOUS
10
54.1703
20
-41.9648
11
53.9703
21
-42.1648
0
LINE
8
BLACK
6
CONTINUOUS
10
54
20
-53.7
11
54.2
21
-53.9
0
LINE
8
BLACK
6
CONTINUOUS
10
54.2
20
-53.7
11
54
21
-53.9
0
LINE
8
BLACK
6
CONTINUOUS
10
54.3
20
-60.8195
11
54.5
21
-61.0195
0
LINE
8
BLACK
6
CONTINUOUS
10
54.5
20
-60.8195
11
54.3
21
-61.0195
0
LINE
8
BLACK
6
CONTINUOUS
10
54.7405
20
-58
11
54.9405
21
-58.2
0
LINE
8
BLACK
6
CONTINUOUS
10
54.9405
20
-58
11
54.7405
21
-58.2
0
LINE
8
BLACK
6
CONTINUOUS
10
55.3
20
-40.4
11
55.5
21
-40.6
0
LINE
8
BLACK
6
CONTINUOUS
10
55.5
20
-40.4
11
55.3
21
-40.6
0
LINE
8
BLACK
6
CONTINUOUS
10
55.3
20
-41.5
11
55.5
21
-41.7
0
LINE
8
BLACK
6
CONTINUOUS
10
55.5
20
-41.5
11
55.3
21
-41.7
0
LINE
8
BLACK
6
CONTINUOUS
10
55.3505
20
-54.4
11
55.5505
21
-54.6
0
LINE
8
BLACK
6
CONTINUOUS
10
55.5505
20
-54.4
11
55.3505
21
-54.6
0
LINE
8
BLACK
6
CONTINUOUS
10
55.4
20
-50.9
11
55.6
21
-51.1
0
LINE
8
BLACK
6
CONTINUOUS
10
55.6
20
-50.9
11
55.4
21
-51.1
0
LINE
8
BLACK
6
CONTINUOUS
10
56
20
-42.4
11
56.2
21
-42.6
0
LINE
8
BLACK
6
CONTINUOUS
10
56.2
20
-42.4
11
56
21
-42.6
0
LINE
8
BLACK
6
CONTINUOUS
10
56.2
20
-47.8
11
56.4
21
-48
0
LINE
8
BLACK
6
CONTINUOUS
10
56.4
20
-47.8
11
56.2
21
-48
0
LINE
8
BLACK
6
CONTINUOUS
10
56.4
20
-39.4
11
56.6
21
-39.6
0
LINE
8
BLACK
6
CONTINUOUS
10
56.6
20
-39.4
11
56.4
21
-39.6
0
LINE
8
BLACK
6
CONTINUOUS
10
56.4
20
-55.1
11
56.6
21
-55.3
0
LINE
8
BLACK
6
CONTINUOUS
10
56.6
20
-55.1
11
56.4
21
-55.3
0
LINE
8
BLACK
6
CONTINUOUS
10
56.6941
20
-43.7107
11
56.8941
21
-43.9107
0
LINE
8
BLACK
6
CONTINUOUS
10
56.8941
20
-43.7107
11
56.6941
21
-43.9107
0
LINE
8
BLACK
6
CONTINUOUS
10
56.7405
20
-44.4086
11
56.9405
21
-44.6086
0
LINE
8
BLACK
6
CONTINUOUS
10
56.9405
20
-44.4086
11
56.7405
21
-44.6086
0
LINE
8
BLACK
6
CONTINUOUS
10
56.8755
20
-45.1073
11
57.0755
21
-45.3073
0
LINE
8
BLACK
6
CONTINUOUS
10
57.0755
20
-45.1073
11
56.8755
21
-45.3073
0
LINE
8
BLACK
6
CONTINUOUS
10
56.9
20
-52.4
11
57.1
21
-52.6
0
LINE
8
BLACK
6
CONTINUOUS
10
57.1
20
-52.4
11
56.9
21
-52.6
0
LINE
8
BLACK
6
CONTINUOUS
10
57.1
20
-37.1
11
57.3
21
-37.3
0
LINE
8
BLACK
6
CONTINUOUS
10
57.3
20
-37.1
11
57.1
21
-37.3
0
LINE
8
BLACK
6
CONTINUOUS
10
57.1
20
-56.9
11
57.3
21
-57.1
0
LINE
8
BLACK
6
CONTINUOUS
10
57.3
20
-56.9
11
57.1
21
-57.1
0
LINE
8
BLACK
6
CONTINUOUS
10
57.2
20
-53.9
11
57.4
21
-54.1
0
LINE
8
BLACK
6
CONTINUOUS
10
57.4
20
-53.9
11
57.2
21
-54.1
0
LINE
8
BLACK
6
CONTINUOUS
10
57.5
20
-42.1
11
57.7
21
-42.3
0
LINE
8
BLACK
6
CONTINUOUS
10
57.7
20
-42.1
11
57.5
21
-42.3
0
LINE
8
BLACK
6
CONTINUOUS
10
57.5
20
-42.8
11
57.7
21
-43
0
LINE
8
BLACK
6
CONTINUOUS
10
57.7
20
-42.8
11
57.5
21
-43
0
LINE
8
BLACK
6
CONTINUOUS
10
57.8
20
-37.1
11
58
21
-37.3
0
LINE
8
BLACK
6
CONTINUOUS
10
58
20
-37.1
11
57.8
21
-37.3
0
LINE
8
BLACK
6
CONTINUOUS
10
57.9
20
-53.9
11
58.1
21
-54.1
0
LINE
8
BLACK
6
CONTINUOUS
10
58.1
20
-53.9
11
57.9
21
-54.1
0
LINE
8
BLACK
6
CONTINUOUS
10
57.9
20
-56.9
11
58.1
21
-57.1
0
LINE
8
BLACK
6
CONTINUOUS
10
58.1
20
-56.9
11
57.9
21
-57.1
0
LINE
8
BLACK
6
CONTINUOUS
10
57.9245
20
-45.1
11
58.1245
21
-45.3
0
LINE
8
BLACK
6
CONTINUOUS
10
58.1245
20
-45.1
11
57.9245
21
-45.3
0
LINE
8
BLACK
6
CONTINUOUS
10
57.9852
20
-36.2802
11
58.1852
21
-36.4802
0
LINE
8
BLACK
6
CONTINUOUS
10
58.1852
20
-36.2802
11
57.9852
21
-36.4802
0
LINE
8
BLACK
6
CONTINUOUS
10
58.1
20
-43.9
11
58.3
21
-44.1
0
LINE
8
BLACK
6
CONTINUOUS
10
58.3
20
-43.9
11
58.1
21
-44.1
0
LINE
8
BLACK
6
CONTINUOUS
10
58.1
20
-60.6
11
58.3
21
-60.8
0
LINE
8
BLACK
6
CONTINUOUS
10
58.3
20
-60.6
11
58.1
21
-60.8
0
LINE
8
BLACK
6
CONTINUOUS
10
58.1
20
-64.4
11
58.3
21
-64.6
0
LINE
8
BLACK
6
CONTINUOUS
10
58.3
20
-64.4
11
58.1
21
-64.6
0
LINE
8
BLACK
6
CONTINUOUS
10
58.6
20
-53.9
11
58.8
21
-54.1
0
LINE
8
BLACK
6
CONTINUOUS
10
58.8
20
-53.9
11
58.6
21
-54.1
0
LINE
8
BLACK
6
CONTINUOUS
10
58.6
20
-56.9
11
58.8
21
-57.1
0
LINE
8
BLACK
6
CONTINUOUS
10
58.8
20
-56.9
11
58.6
21
-57.1
0
LINE
8
BLACK
6
CONTINUOUS
10
58.6238
20
-45.0819
11
58.8238
21
-45.2819
0
LINE
8
BLACK
6
CONTINUOUS
10
58.8238
20
-45.0819
11
58.6238
21
-45.2819
0
LINE
8
BLACK
6
CONTINUOUS
10
59.4
20
-64.4
11
59.6
21
-64.6
0
LINE
8
BLACK
6
CONTINUOUS
10
59.6
20
-64.4
11
59.4
21
-64.6
0
LINE
8
BLACK
6
CONTINUOUS
10
59.6
20
-45.8
11
59.8
21
-46
0
LINE
8
BLACK
6
CONTINUOUS
10
59.8
20
-45.8
11
59.6
21
-46
0
LINE
8
BLACK
6
CONTINUOUS
10
59.7
20
-36.6
11
59.9
21
-36.8
0
LINE
8
BLACK
6
CONTINUOUS
10
59.9
20
-36.6
11
59.7
21
-36.8
0
LINE
8
BLACK
6
CONTINUOUS
10
59.8945
20
-55.5109
11
60.0945
21
-55.7109
0
LINE
8
BLACK
6
CONTINUOUS
10
60.0945
20
-55.5109
11
59.8945
21
-55.7109
0
LINE
8
BLACK
6
CONTINUOUS
10
60.08
20
-46.4
11
60.28
21
-46.6
0
LINE
8
BLACK
6
CONTINUOUS
10
60.28
20
-46.4
11
60.08
21
-46.6
0
LINE
8
BLACK
6
CONTINUOUS
10
60.5
20
-54.6
11
60.7
21
-54.8
0
LINE
8
BLACK
6
CONTINUOUS
10
60.7
20
-54.6
11
60.5
21
-54.8
0
LINE
8
BLACK
6
CONTINUOUS
10
60.5695
20
-57.3005
11
60.7695
21
-57.5005
0
LINE
8
BLACK
6
CONTINUOUS
10
60.7695
20
-57.3005
11
60.5695
21
-57.5005
0
LINE
8
BLACK
6
CONTINUOUS
10
60.64
20
-64.3
11
60.84
21
-64.5
0
LINE
8
BLACK
6
CONTINUOUS
10
60.84
20
-64.3
11
60.64
21
-64.5
0
LINE
8
BLACK
6
CONTINUOUS
10
61
20
-45.6
11
61.2
21
-45.8
0
LINE
8
BLACK
6
CONTINUOUS
10
61.2
20
-45.6
11
61
21
-45.8
0
LINE
8
BLACK
6
CONTINUOUS
10
61.6788
20
-53.7364
11
61.8788
21
-53.9364
0
LINE
8
BLACK
6
CONTINUOUS
10
61.8788
20
-53.7364
11
61.6788
21
-53.9364
0
LINE
8
BLACK
6
CONTINUOUS
10
61.9
20
-43.4
11
62.1
21
-43.6
0
LINE
8
BLACK
6
CONTINUOUS
10
62.1
20
-43.4
11
61.9
21
-43.6
0
LINE
8
BLACK
6
CONTINUOUS
10
61.9
20
-44.4
11
62.1
21
-44.6
0
LINE
8
BLACK
6
CONTINUOUS
10
62.1
20
-44.4
11
61.9
21
-44.6
0
LINE
8
BLACK
6
CONTINUOUS
10
61.9
20
-45.4
11
62.1
21
-45.6
0
LINE
8
BLACK
6
CONTINUOUS
10
62.1
20
-45.4
11
61.9
21
-45.6
0
LINE
8
BLACK
6
CONTINUOUS
10
61.9
20
-46.4
11
62.1
21
-46.6
0
LINE
8
BLACK
6
CONTINUOUS
10
62.1
20
-46.4
11
61.9
21
-46.6
0
LINE
8
BLACK
6
CONTINUOUS
10
61.9
20
-47.4
11
62.1
21
-47.6
0
LINE
8
BLACK
6
CONTINUOUS
10
62.1
20
-47.4
11
61.9
21
-47.6
0
LINE
8
BLACK
6
CONTINUOUS
10
61.9
20
-48.4
11
62.1
21
-48.6
0
LINE
8
BLACK
6
CONTINUOUS
10
62.1
20
-48.4
11
61.9
21
-48.6
0
LINE
8
BLACK
6
CONTINUOUS
10
61.9
20
-52.9
11
62.1
21
-53.1
0
LINE
8
BLACK
6
CONTINUOUS
10
62.1
20
-52.9
11
61.9
21
-53.1
0
LINE
8
BLACK
6
CONTINUOUS
10
61.9
20
-54.4
11
62.1
21
-54.6
0
LINE
8
BLACK
6
CONTINUOUS
10
62.1
20
-54.4
11
61.9
21
-54.6
0
LINE
8
BLACK
6
CONTINUOUS
10
61.9
20
-55.4
11
62.1
21
-55.6
0
LINE
8
BLACK
6
CONTINUOUS
10
62.1
20
-55.4
11
61.9
21
-55.6
0
LINE
8
BLACK
6
CONTINUOUS
10
61.9
20
-56.4
11
62.1
21
-56.6
0
LINE
8
BLACK
6
CONTINUOUS
10
62.1
20
-56.4
11
61.9
21
-56.6
0
LINE
8
BLACK
6
CONTINUOUS
10
61.9
20
-57.4
11
62.1
21
-57.6
0
LINE
8
BLACK
6
CONTINUOUS
10
62.1
20
-57.4
11
61.9
21
-57.6
0
LINE
8
BLACK
6
CONTINUOUS
10
62.9
20
-43.4
11
63.1
21
-43.6
0
LINE
8
BLACK
6
CONTINUOUS
10
63.1
20
-43.4
11
62.9
21
-43.6
0
LINE
8
BLACK
6
CONTINUOUS
10
62.9
20
-49.15
11
63.1
21
-49.35
0
LINE
8
BLACK
6
CONTINUOUS
10
63.1
20
-49.15
11
62.9
21
-49.35
0
LINE
8
BLACK
6
CONTINUOUS
10
62.9
20
-49.9
11
63.1
21
-50.1
0
LINE
8
BLACK
6
CONTINUOUS
10
63.1
20
-49.9
11
62.9
21
-50.1
0
LINE
8
BLACK
6
CONTINUOUS
10
62.9
20
-50.9
11
63.1
21
-51.1
0
LINE
8
BLACK
6
CONTINUOUS
10
63.1
20
-50.9
11
62.9
21
-51.1
0
LINE
8
BLACK
6
CONTINUOUS
10
62.9
20
-51.9
11
63.1
21
-52.1
0
LINE
8
BLACK
6
CONTINUOUS
10
63.1
20
-51.9
11
62.9
21
-52.1
0
LINE
8
BLACK
6
CONTINUOUS
10
62.9
20
-52.9
11
63.1
21
-53.1
0
LINE
8
BLACK
6
CONTINUOUS
10
63.1
20
-52.9
11
62.9
21
-53.1
0
LINE
8
BLACK
6
CONTINUOUS
10
62.9
20
-53.9
11
63.1
21
-54.1
0
LINE
8
BLACK
6
CONTINUOUS
10
63.1
20
-53.9
11
62.9
21
-54.1
0
LINE
8
BLACK
6
CONTINUOUS
10
62.9
20
-57.4
11
63.1
21
-57.6
0
LINE
8
BLACK
6
CONTINUOUS
10
63.1
20
-57.4
11
62.9
21
-57.6
0
LINE
8
BLACK
6
CONTINUOUS
10
63.9
20
-49.15
11
64.1
21
-49.35
0
LINE
8
BLACK
6
CONTINUOUS
10
64.1
20
-49.15
11
63.9
21
-49.35
0
LINE
8
BLACK
6
CONTINUOUS
10
63.9
20
-51.9
11
64.1
21
-52.1
0
LINE
8
BLACK
6
CONTINUOUS
10
64.1
20
-51.9
11
63.9
21
-52.1
0
LINE
8
BLACK
6
CONTINUOUS
10
63.9
20
-56.4
11
64.1
21
-56.6
0
LINE
8
BLACK
6
CONTINUOUS
10
64.1
20
-56.4
11
63.9
21
-56.6
0
LINE
8
BLACK
6
CONTINUOUS
10
63.9
20
-57.4
11
64.1
21
-57.6
0
LINE
8
BLACK
6
CONTINUOUS
10
64.1
20
-57.4
11
63.9
21
-57.6
0
LINE
8
BLACK
6
CONTINUOUS
10
64.4
20
-42.4
11
64.6
21
-42.6
0
LINE
8
BLACK
6
CONTINUOUS
10
64.6
20
-42.4
11
64.4
21
-42.6
0
LINE
8
BLACK
6
CONTINUOUS
10
64.4
20
-43.4
11
64.6
21
-43.6
0
LINE
8
BLACK
6
CONTINUOUS
10
64.6
20
-43.4
11
64.4
21
-43.6
0
LINE
8
BLACK
6
CONTINUOUS
10
64.4
20
-46.4
11
64.6
21
-46.6
0
LINE
8
BLACK
6
CONTINUOUS
10
64.6
20
-46.4
11
64.4
21
-46.6
0
LINE
8
BLACK
6
CONTINUOUS
10
64.4
20
-47.4
11
64.6
21
-47.6
0
LINE
8
BLACK
6
CONTINUOUS
10
64.6
20
-47.4
11
64.4
21
-47.6
0
LINE
8
BLACK
6
CONTINUOUS
10
65.15
20
-56.4
11
65.35
21
-56.6
0
LINE
8
BLACK
6
CONTINUOUS
10
65.35
20
-56.4
11
65.15
21
-56.6
0
LINE
8
BLACK
6
CONTINUOUS
10
65.4
20
-42.4
11
65.6
21
-42.6
0
LINE
8
BLACK
6
CONTINUOUS
10
65.6
20
-42.4
11
65.4
21
-42.6
0
LINE
8
BLACK
6
CONTINUOUS
10
65.4
20
-47.4
11
65.6
21
-47.6
0
LINE
8
BLACK
6
CONTINUOUS
10
65.6
20
-47.4
11
65.4
21
-47.6
0
LINE
8
BLACK
6
CONTINUOUS
10
66.4
20
-42.4
11
66.6
21
-42.6
0
LINE
8
BLACK
6
CONTINUOUS
10
66.6
20
-42.4
11
66.4
21
-42.6
0
LINE
8
BLACK
6
CONTINUOUS
10
66.4
20
-47.4
11
66.6
21
-47.6
0
LINE
8
BLACK
6
CONTINUOUS
10
66.6
20
-47.4
11
66.4
21
-47.6
0
LINE
8
BLACK
6
CONTINUOUS
10
66.4
20
-55.4
11
66.6
21
-55.6
0
LINE
8
BLACK
6
CONTINUOUS
10
66.6
20
-55.4
11
66.4
21
-55.6
0
LINE
8
BLACK
6
CONTINUOUS
10
66.4
20
-56.4
11
66.6
21
-56.6
0
LINE
8
BLACK
6
CONTINUOUS
10
66.6
20
-56.4
11
66.4
21
-56.6
0
LINE
8
BLACK
6
CONTINUOUS
10
67.4
20
-42.4
11
67.6
21
-42.6
0
LINE
8
BLACK
6
CONTINUOUS
10
67.6
20
-42.4
11
67.4
21
-42.6
0
LINE
8
BLACK
6
CONTINUOUS
10
67.4
20
-43.4
11
67.6
21
-43.6
0
LINE
8
BLACK
6
CONTINUOUS
10
67.6
20
-43.4
11
67.4
21
-43.6
0
LINE
8
BLACK
6
CONTINUOUS
10
67.4
20
-44.4
11
67.6
21
-44.6
0
LINE
8
BLACK
6
CONTINUOUS
10
67.6
20
-44.4
11
67.4
21
-44.6
0
LINE
8
BLACK
6
CONTINUOUS
10
67.4
20
-45.4
11
67.6
21
-45.6
0
LINE
8
BLACK
6
CONTINUOUS
10
67.6
20
-45.4
11
67.4
21
-45.6
0
LINE
8
BLACK
6
CONTINUOUS
10
67.4
20
-46.4
11
67.6
21
-46.6
0
LINE
8
BLACK
6
CONTINUOUS
10
67.6
20
-46.4
11
67.4
21
-46.6
0
LINE
8
BLACK
6
CONTINUOUS
10
67.4
20
-47.4
11
67.6
21
-47.6
0
LINE
8
BLACK
6
CONTINUOUS
10
67.6
20
-47.4
11
67.4
21
-47.6
0
LINE
8
BLACK
6
CONTINUOUS
10
67.4
20
-48.4
11
67.6
21
-48.6
0
LINE
8
BLACK
6
CONTINUOUS
10
67.6
20
-48.4
11
67.4
21
-48.6
0
LINE
8
BLACK
6
CONTINUOUS
10
67.4
20
-49.4
11
67.6
21
-49.6
0
LINE
8
BLACK
6
CONTINUOUS
10
67.6
20
-49.4
11
67.4
21
-49.6
0
LINE
8
BLACK
6
CONTINUOUS
10
67.4
20
-50.4
11
67.6
21
-50.6
0
LINE
8
BLACK
6
CONTINUOUS
10
67.6
20
-50.4
11
67.4
21
-50.6
0
LINE
8
BLACK
6
CONTINUOUS
10
67.4
20
-51.4
11
67.6
21
-51.6
0
LINE
8
BLACK
6
CONTINUOUS
10
67.6
20
-51.4
11
67.4
21
-51.6
0
LINE
8
BLACK
6
CONTINUOUS
10
67.4
20
-52.4
11
67.6
21
-52.6
0
LINE
8
BLACK
6
CONTINUOUS
10
67.6
20
-52.4
11
67.4
21
-52.6
0
LINE
8
BLACK
6
CONTINUOUS
10
67.4
20
-53.4
11
67.6
21
-53.6
0
LINE
8
BLACK
6
CONTINUOUS
10
67.6
20
-53.4
11
67.4
21
-53.6
0
LINE
8
BLACK
6
CONTINUOUS
10
67.4
20
-54.4
11
67.6
21
-54.6
0
LINE
8
BLACK
6
CONTINUOUS
10
67.6
20
-54.4
11
67.4
21
-54.6
0
LINE
8
BLACK
6
CONTINUOUS
10
67.4
20
-55.4
11
67.6
21
-55.6
0
LINE
8
BLACK
6
CONTINUOUS
10
67.6
20
-55.4
11
67.4
21
-55.6
0
CIRCLE
8
BLACK
10
36.5
20
-43.7
40
0.25
0
LINE
8
BLACK
6
CONTINUOUS
10
36.15
20
-43.95
11
36.85
21
-43.95
0
ARC
8
BLACK
10
36.85
20
-43.7
40
0.25
50
270
51
450
0
LINE
8
BLACK
6
CONTINUOUS
10
36.85
20
-43.45
11
36.15
21
-43.45
0
ARC
8
BLACK
10
36.15
20
-43.7
40
0.25
50
90
51
270
0
CIRCLE
8
BLACK
10
36.5
20
-50.3
40
0.25
0
LINE
8
BLACK
6
CONTINUOUS
10
36.15
20
-50.55
11
36.85
21
-50.55
0
ARC
8
BLACK
10
36.85
20
-50.3
40
0.25
50
270
51
450
0
LINE
8
BLACK
6
CONTINUOUS
10
36.85
20
-50.05
11
36.15
21
-50.05
0
ARC
8
BLACK
10
36.15
20
-50.3
40
0.25
50
90
51
270
0
LINE
8
BLACK
6
CONTINUOUS
10
36.975
20
-53.725
11
36.975
21
-54.725
0
LINE
8
BLACK
6
CONTINUOUS
10
36.475
20
-54.225
11
37.475
21
-54.225
0
LINE
8
BLACK
6
CONTINUOUS
10
36.975
20
-56.265
11
36.975
21
-57.265
0
LINE
8
BLACK
6
CONTINUOUS
10
36.475
20
-56.765
11
37.475
21
-56.765
0
LINE
8
BLACK
6
CONTINUOUS
10
39.515
20
-53.725
11
39.515
21
-54.725
0
LINE
8
BLACK
6
CONTINUOUS
10
39.015
20
-54.225
11
40.015
21
-54.225
0
LINE
8
BLACK
6
CONTINUOUS
10
39.515
20
-56.265
11
39.515
21
-57.265
0
LINE
8
BLACK
6
CONTINUOUS
10
39.015
20
-56.765
11
40.015
21
-56.765
0
LINE
8
BLACK
6
CONTINUOUS
10
42.055
20
-53.725
11
42.055
21
-54.725
0
LINE
8
BLACK
6
CONTINUOUS
10
41.555
20
-54.225
11
42.555
21
-54.225
0
LINE
8
BLACK
6
CONTINUOUS
10
42.055
20
-56.265
11
42.055
21
-57.265
0
LINE
8
BLACK
6
CONTINUOUS
10
41.555
20
-56.765
11
42.555
21
-56.765
0
LINE
8
BLACK
6
CONTINUOUS
10
39.2796
20
-62.9546
11
39.2796
21
-61.0454
0
LINE
8
BLACK
6
CONTINUOUS
10
39.2796
20
-61.0454
11
37.3704
21
-61.0454
0
LINE
8
BLACK
6
CONTINUOUS
10
37.3704
20
-61.0454
11
37.3704
21
-62.9546
0
LINE
8
BLACK
6
CONTINUOUS
10
37.3704
20
-62.9546
11
39.2796
21
-62.9546
0
LINE
8
BLACK
6
CONTINUOUS
10
39.4546
20
-39.9546
11
39.4546
21
-38.0454
0
LINE
8
BLACK
6
CONTINUOUS
10
39.4546
20
-38.0454
11
37.5454
21
-38.0454
0
LINE
8
BLACK
6
CONTINUOUS
10
37.5454
20
-38.0454
11
37.5454
21
-39.9546
0
LINE
8
BLACK
6
CONTINUOUS
10
37.5454
20
-39.9546
11
39.4546
21
-39.9546
0
LINE
8
BLACK
6
CONTINUOUS
10
65.9546
20
-39.9546
11
65.9546
21
-38.0454
0
LINE
8
BLACK
6
CONTINUOUS
10
65.9546
20
-38.0454
11
64.0454
21
-38.0454
0
LINE
8
BLACK
6
CONTINUOUS
10
64.0454
20
-38.0454
11
64.0454
21
-39.9546
0
LINE
8
BLACK
6
CONTINUOUS
10
64.0454
20
-39.9546
11
65.9546
21
-39.9546
0
LINE
8
BLACK
6
CONTINUOUS
10
65.9546
20
-62.9546
11
65.9546
21
-61.0454
0
LINE
8
BLACK
6
CONTINUOUS
10
65.9546
20
-61.0454
11
64.0454
21
-61.0454
0
LINE
8
BLACK
6
CONTINUOUS
10
64.0454
20
-61.0454
11
64.0454
21
-62.9546
0
LINE
8
BLACK
6
CONTINUOUS
10
64.0454
20
-62.9546
11
65.9546
21
-62.9546
0
LINE
8
BLACK
6
CONTINUOUS
10
37.5578
20
-68.6648
11
37.5578
21
-66.6648
0
LINE
8
BLACK
6
CONTINUOUS
10
37.5578
20
-66.6648
11
38.034
21
-66.6648
0
LINE
8
BLACK
6
CONTINUOUS
10
38.034
20
-66.6648
11
38.3197
21
-66.7601
0
LINE
8
BLACK
6
CONTINUOUS
10
38.3197
20
-66.7601
11
38.5101
21
-66.9506
0
LINE
8
BLACK
6
CONTINUOUS
10
38.5101
20
-66.9506
11
38.6054
21
-67.141
0
LINE
8
BLACK
6
CONTINUOUS
10
38.6054
20
-67.141
11
38.7006
21
-67.522
0
LINE
8
BLACK
6
CONTINUOUS
10
38.7006
20
-67.522
11
38.7006
21
-67.8077
0
LINE
8
BLACK
6
CONTINUOUS
10
38.7006
20
-67.8077
11
38.6054
21
-68.1886
0
LINE
8
BLACK
6
CONTINUOUS
10
38.6054
20
-68.1886
11
38.5101
21
-68.3791
0
LINE
8
BLACK
6
CONTINUOUS
10
38.5101
20
-68.3791
11
38.3197
21
-68.5696
0
LINE
8
BLACK
6
CONTINUOUS
10
38.3197
20
-68.5696
11
38.034
21
-68.6648
0
LINE
8
BLACK
6
CONTINUOUS
10
38.034
20
-68.6648
11
37.5578
21
-68.6648
0
LINE
8
BLACK
6
CONTINUOUS
10
39.5578
20
-68.6648
11
39.5578
21
-67.3315
0
LINE
8
BLACK
6
CONTINUOUS
10
39.5578
20
-67.7125
11
39.653
21
-67.522
0
LINE
8
BLACK
6
CONTINUOUS
10
39.653
20
-67.522
11
39.7482
21
-67.4267
0
LINE
8
BLACK
6
CONTINUOUS
10
39.7482
20
-67.4267
11
39.9387
21
-67.3315
0
LINE
8
BLACK
6
CONTINUOUS
10
39.9387
20
-67.3315
11
40.1292
21
-67.3315
0
LINE
8
BLACK
6
CONTINUOUS
10
40.7959
20
-68.6648
11
40.7959
21
-67.3315
0
LINE
8
BLACK
6
CONTINUOUS
10
40.7959
20
-66.6648
11
40.7006
21
-66.7601
0
LINE
8
BLACK
6
CONTINUOUS
10
40.7006
20
-66.7601
11
40.7959
21
-66.8553
0
LINE
8
BLACK
6
CONTINUOUS
10
40.7959
20
-66.8553
11
40.8911
21
-66.7601
0
LINE
8
BLACK
6
CONTINUOUS
10
40.8911
20
-66.7601
11
40.7959
21
-66.6648
0
LINE
8
BLACK
6
CONTINUOUS
10
40.7959
20
-66.6648
11
40.7959
21
-66.8553
0
LINE
8
BLACK
6
CONTINUOUS
10
42.034
20
-68.6648
11
41.8435
21
-68.5696
0
LINE
8
BLACK
6
CONTINUOUS
10
41.8435
20
-68.5696
11
41.7482
21
-68.3791
0
LINE
8
BLACK
6
CONTINUOUS
10
41.7482
20
-68.3791
11
41.7482
21
-66.6648
0
LINE
8
BLACK
6
CONTINUOUS
10
43.0816
20
-68.6648
11
42.8911
21
-68.5696
0
LINE
8
BLACK
6
CONTINUOUS
10
42.8911
20
-68.5696
11
42.7959
21
-68.3791
0
LINE
8
BLACK
6
CONTINUOUS
10
42.7959
20
-68.3791
11
42.7959
21
-66.6648
0
LINE
8
BLACK
6
CONTINUOUS
10
45.3673
20
-68.6648
11
45.3673
21
-66.6648
0
LINE
8
BLACK
6
CONTINUOUS
10
45.3673
20
-66.6648
11
46.034
21
-68.0934
0
LINE
8
BLACK
6
CONTINUOUS
10
46.034
20
-68.0934
11
46.7006
21
-66.6648
0
LINE
8
BLACK
6
CONTINUOUS
10
46.7006
20
-66.6648
11
46.7006
21
-68.6648
0
LINE
8
BLACK
6
CONTINUOUS
10
48.5101
20
-68.6648
11
48.5101
21
-67.6172
0
LINE
8
BLACK
6
CONTINUOUS
10
48.5101
20
-67.6172
11
48.4149
21
-67.4267
0
LINE
8
BLACK
6
CONTINUOUS
10
48.4149
20
-67.4267
11
48.2244
21
-67.3315
0
LINE
8
BLACK
6
CONTINUOUS
10
48.2244
20
-67.3315
11
47.8435
21
-67.3315
0
LINE
8
BLACK
6
CONTINUOUS
10
47.8435
20
-67.3315
11
47.653
21
-67.4267
0
LINE
8
BLACK
6
CONTINUOUS
10
48.5101
20
-68.5696
11
48.3197
21
-68.6648
0
LINE
8
BLACK
6
CONTINUOUS
10
48.3197
20
-68.6648
11
47.8435
21
-68.6648
0
LINE
8
BLACK
6
CONTINUOUS
10
47.8435
20
-68.6648
11
47.653
21
-68.5696
0
LINE
8
BLACK
6
CONTINUOUS
10
47.653
20
-68.5696
11
47.5578
21
-68.3791
0
LINE
8
BLACK
6
CONTINUOUS
10
47.5578
20
-68.3791
11
47.5578
21
-68.1886
0
LINE
8
BLACK
6
CONTINUOUS
10
47.5578
20
-68.1886
11
47.653
21
-67.9982
0
LINE
8
BLACK
6
CONTINUOUS
10
47.653
20
-67.9982
11
47.8435
21
-67.9029
0
LINE
8
BLACK
6
CONTINUOUS
10
47.8435
20
-67.9029
11
48.3197
21
-67.9029
0
LINE
8
BLACK
6
CONTINUOUS
10
48.3197
20
-67.9029
11
48.5101
21
-67.8077
0
LINE
8
BLACK
6
CONTINUOUS
10
49.4625
20
-67.3315
11
49.4625
21
-69.3315
0
LINE
8
BLACK
6
CONTINUOUS
10
49.4625
20
-67.4267
11
49.653
21
-67.3315
0
LINE
8
BLACK
6
CONTINUOUS
10
49.653
20
-67.3315
11
50.034
21
-67.3315
0
LINE
8
BLACK
6
CONTINUOUS
10
50.034
20
-67.3315
11
50.2244
21
-67.4267
0
LINE
8
BLACK
6
CONTINUOUS
10
50.2244
20
-67.4267
11
50.3197
21
-67.522
0
LINE
8
BLACK
6
CONTINUOUS
10
50.3197
20
-67.522
11
50.4149
21
-67.7125
0
LINE
8
BLACK
6
CONTINUOUS
10
50.4149
20
-67.7125
11
50.4149
21
-68.2839
0
LINE
8
BLACK
6
CONTINUOUS
10
50.4149
20
-68.2839
11
50.3197
21
-68.4744
0
LINE
8
BLACK
6
CONTINUOUS
10
50.3197
20
-68.4744
11
50.2244
21
-68.5696
0
LINE
8
BLACK
6
CONTINUOUS
10
50.2244
20
-68.5696
11
50.034
21
-68.6648
0
LINE
8
BLACK
6
CONTINUOUS
10
50.034
20
-68.6648
11
49.653
21
-68.6648
0
LINE
8
BLACK
6
CONTINUOUS
10
49.653
20
-68.6648
11
49.4625
21
-68.5696
0
LINE
8
BLACK
6
CONTINUOUS
10
51.2721
20
-68.4744
11
51.3673
21
-68.5696
0
LINE
8
BLACK
6
CONTINUOUS
10
51.3673
20
-68.5696
11
51.2721
21
-68.6648
0
LINE
8
BLACK
6
CONTINUOUS
10
51.2721
20
-68.6648
11
51.1768
21
-68.5696
0
LINE
8
BLACK
6
CONTINUOUS
10
51.1768
20
-68.5696
11
51.2721
21
-68.4744
0
LINE
8
BLACK
6
CONTINUOUS
10
51.2721
20
-68.4744
11
51.2721
21
-68.6648
0
LINE
8
BLACK
6
CONTINUOUS
10
51.2721
20
-67.4267
11
51.3673
21
-67.522
0
LINE
8
BLACK
6
CONTINUOUS
10
51.3673
20
-67.522
11
51.2721
21
-67.6172
0
LINE
8
BLACK
6
CONTINUOUS
10
51.2721
20
-67.6172
11
51.1768
21
-67.522
0
LINE
8
BLACK
6
CONTINUOUS
10
51.1768
20
-67.522
11
51.2721
21
-67.4267
0
LINE
8
BLACK
6
CONTINUOUS
10
51.2721
20
-67.4267
11
51.2721
21
-67.6172
0
LINE
8
BLACK
6
CONTINUOUS
10
34.75
20
-71.85
11
34.95
21
-72.05
0
LINE
8
BLACK
6
CONTINUOUS
10
34.95
20
-71.85
11
34.75
21
-72.05
0
LINE
8
BLACK
6
CONTINUOUS
10
37.9387
20
-70.8648
11
38.1292
21
-70.8648
0
LINE
8
BLACK
6
CONTINUOUS
10
38.1292
20
-70.8648
11
38.3197
21
-70.9601
0
LINE
8
BLACK
6
CONTINUOUS
10
38.3197
20
-70.9601
11
38.4149
21
-71.0553
0
LINE
8
BLACK
6
CONTINUOUS
10
38.4149
20
-71.0553
11
38.5101
21
-71.2458
0
LINE
8
BLACK
6
CONTINUOUS
10
38.5101
20
-71.2458
11
38.6054
21
-71.6267
0
LINE
8
BLACK
6
CONTINUOUS
10
38.6054
20
-71.6267
11
38.6054
21
-72.1029
0
LINE
8
BLACK
6
CONTINUOUS
10
38.6054
20
-72.1029
11
38.5101
21
-72.4839
0
LINE
8
BLACK
6
CONTINUOUS
10
38.5101
20
-72.4839
11
38.4149
21
-72.6744
0
LINE
8
BLACK
6
CONTINUOUS
10
38.4149
20
-72.6744
11
38.3197
21
-72.7696
0
LINE
8
BLACK
6
CONTINUOUS
10
38.3197
20
-72.7696
11
38.1292
21
-72.8648
0
LINE
8
BLACK
6
CONTINUOUS
10
38.1292
20
-72.8648
11
37.9387
21
-72.8648
0
LINE
8
BLACK
6
CONTINUOUS
10
37.9387
20
-72.8648
11
37.7482
21
-72.7696
0
LINE
8
BLACK
6
CONTINUOUS
10
37.7482
20
-72.7696
11
37.653
21
-72.6744
0
LINE
8
BLACK
6
CONTINUOUS
10
37.653
20
-72.6744
11
37.5578
21
-72.4839
0
LINE
8
BLACK
6
CONTINUOUS
10
37.5578
20
-72.4839
11
37.4625
21
-72.1029
0
LINE
8
BLACK
6
CONTINUOUS
10
37.4625
20
-72.1029
11
37.4625
21
-71.6267
0
LINE
8
BLACK
6
CONTINUOUS
10
37.4625
20
-71.6267
11
37.5578
21
-71.2458
0
LINE
8
BLACK
6
CONTINUOUS
10
37.5578
20
-71.2458
11
37.653
21
-71.0553
0
LINE
8
BLACK
6
CONTINUOUS
10
37.653
20
-71.0553
11
37.7482
21
-70.9601
0
LINE
8
BLACK
6
CONTINUOUS
10
37.7482
20
-70.9601
11
37.9387
21
-70.8648
0
LINE
8
BLACK
6
CONTINUOUS
10
39.4625
20
-72.6744
11
39.5578
21
-72.7696
0
LINE
8
BLACK
6
CONTINUOUS
10
39.5578
20
-72.7696
11
39.4625
21
-72.8648
0
LINE
8
BLACK
6
CONTINUOUS
10
39.4625
20
-72.8648
11
39.3673
21
-72.7696
0
LINE
8
BLACK
6
CONTINUOUS
10
39.3673
20
-72.7696
11
39.4625
21
-72.6744
0
LINE
8
BLACK
6
CONTINUOUS
10
39.4625
20
-72.6744
11
39.4625
21
-72.8648
0
LINE
8
BLACK
6
CONTINUOUS
10
40.3197
20
-71.0553
11
40.4149
21
-70.9601
0
LINE
8
BLACK
6
CONTINUOUS
10
40.4149
20
-70.9601
11
40.6054
21
-70.8648
0
LINE
8
BLACK
6
CONTINUOUS
10
40.6054
20
-70.8648
11
41.0816
21
-70.8648
0
LINE
8
BLACK
6
CONTINUOUS
10
41.0816
20
-70.8648
11
41.2721
21
-70.9601
0
LINE
8
BLACK
6
CONTINUOUS
10
41.2721
20
-70.9601
11
41.3673
21
-71.0553
0
LINE
8
BLACK
6
CONTINUOUS
10
41.3673
20
-71.0553
11
41.4625
21
-71.2458
0
LINE
8
BLACK
6
CONTINUOUS
10
41.4625
20
-71.2458
11
41.4625
21
-71.4363
0
LINE
8
BLACK
6
CONTINUOUS
10
41.4625
20
-71.4363
11
41.3673
21
-71.722
0
LINE
8
BLACK
6
CONTINUOUS
10
41.3673
20
-71.722
11
40.2244
21
-72.8648
0
LINE
8
BLACK
6
CONTINUOUS
10
40.2244
20
-72.8648
11
41.4625
21
-72.8648
0
LINE
8
BLACK
6
CONTINUOUS
10
42.7006
20
-70.8648
11
42.8911
21
-70.8648
0
LINE
8
BLACK
6
CONTINUOUS
10
42.8911
20
-70.8648
11
43.0816
21
-70.9601
0
LINE
8
BLACK
6
CONTINUOUS
10
43.0816
20
-70.9601
11
43.1768
21
-71.0553
0
LINE
8
BLACK
6
CONTINUOUS
10
43.1768
20
-71.0553
11
43.2721
21
-71.2458
0
LINE
8
BLACK
6
CONTINUOUS
10
43.2721
20
-71.2458
11
43.3673
21
-71.6267
0
LINE
8
BLACK
6
CONTINUOUS
10
43.3673
20
-71.6267
11
43.3673
21
-72.1029
0
LINE
8
BLACK
6
CONTINUOUS
10
43.3673
20
-72.1029
11
43.2721
21
-72.4839
0
LINE
8
BLACK
6
CONTINUOUS
10
43.2721
20
-72.4839
11
43.1768
21
-72.6744
0
LINE
8
BLACK
6
CONTINUOUS
10
43.1768
20
-72.6744
11
43.0816
21
-72.7696
0
LINE
8
BLACK
6
CONTINUOUS
10
43.0816
20
-72.7696
11
42.8911
21
-72.8648
0
LINE
8
BLACK
6
CONTINUOUS
10
42.8911
20
-72.8648
11
42.7006
21
-72.8648
0
LINE
8
BLACK
6
CONTINUOUS
10
42.7006
20
-72.8648
11
42.5101
21
-72.7696
0
LINE
8
BLACK
6
CONTINUOUS
10
42.5101
20
-72.7696
11
42.4149
21
-72.6744
0
LINE
8
BLACK
6
CONTINUOUS
10
42.4149
20
-72.6744
11
42.3197
21
-72.4839
0
LINE
8
BLACK
6
CONTINUOUS
10
42.3197
20
-72.4839
11
42.2244
21
-72.1029
0
LINE
8
BLACK
6
CONTINUOUS
10
42.2244
20
-72.1029
11
42.2244
21
-71.6267
0
LINE
8
BLACK
6
CONTINUOUS
10
42.2244
20
-71.6267
11
42.3197
21
-71.2458
0
LINE
8
BLACK
6
CONTINUOUS
10
42.3197
20
-71.2458
11
42.4149
21
-71.0553
0
LINE
8
BLACK
6
CONTINUOUS
10
42.4149
20
-71.0553
11
42.5101
21
-70.9601
0
LINE
8
BLACK
6
CONTINUOUS
10
42.5101
20
-70.9601
11
42.7006
21
-70.8648
0
LINE
8
BLACK
6
CONTINUOUS
10
44.6054
20
-70.8648
11
44.7959
21
-70.8648
0
LINE
8
BLACK
6
CONTINUOUS
10
44.7959
20
-70.8648
11
44.9863
21
-70.9601
0
LINE
8
BLACK
6
CONTINUOUS
10
44.9863
20
-70.9601
11
45.0816
21
-71.0553
0
LINE
8
BLACK
6
CONTINUOUS
10
45.0816
20
-71.0553
11
45.1768
21
-71.2458
0
LINE
8
BLACK
6
CONTINUOUS
10
45.1768
20
-71.2458
11
45.2721
21
-71.6267
0
LINE
8
BLACK
6
CONTINUOUS
10
45.2721
20
-71.6267
11
45.2721
21
-72.1029
0
LINE
8
BLACK
6
CONTINUOUS
10
45.2721
20
-72.1029
11
45.1768
21
-72.4839
0
LINE
8
BLACK
6
CONTINUOUS
10
45.1768
20
-72.4839
11
45.0816
21
-72.6744
0
LINE
8
BLACK
6
CONTINUOUS
10
45.0816
20
-72.6744
11
44.9863
21
-72.7696
0
LINE
8
BLACK
6
CONTINUOUS
10
44.9863
20
-72.7696
11
44.7959
21
-72.8648
0
LINE
8
BLACK
6
CONTINUOUS
10
44.7959
20
-72.8648
11
44.6054
21
-72.8648
0
LINE
8
BLACK
6
CONTINUOUS
10
44.6054
20
-72.8648
11
44.4149
21
-72.7696
0
LINE
8
BLACK
6
CONTINUOUS
10
44.4149
20
-72.7696
11
44.3197
21
-72.6744
0
LINE
8
BLACK
6
CONTINUOUS
10
44.3197
20
-72.6744
11
44.2244
21
-72.4839
0
LINE
8
BLACK
6
CONTINUOUS
10
44.2244
20
-72.4839
11
44.1292
21
-72.1029
0
LINE
8
BLACK
6
CONTINUOUS
10
44.1292
20
-72.1029
11
44.1292
21
-71.6267
0
LINE
8
BLACK
6
CONTINUOUS
10
44.1292
20
-71.6267
11
44.2244
21
-71.2458
0
LINE
8
BLACK
6
CONTINUOUS
10
44.2244
20
-71.2458
11
44.3197
21
-71.0553
0
LINE
8
BLACK
6
CONTINUOUS
10
44.3197
20
-71.0553
11
44.4149
21
-70.9601
0
LINE
8
BLACK
6
CONTINUOUS
10
44.4149
20
-70.9601
11
44.6054
21
-70.8648
0
LINE
8
BLACK
6
CONTINUOUS
10
46.1292
20
-72.8648
11
46.1292
21
-71.5315
0
LINE
8
BLACK
6
CONTINUOUS
10
46.1292
20
-71.722
11
46.2244
21
-71.6267
0
LINE
8
BLACK
6
CONTINUOUS
10
46.2244
20
-71.6267
11
46.4149
21
-71.5315
0
LINE
8
BLACK
6
CONTINUOUS
10
46.4149
20
-71.5315
11
46.7006
21
-71.5315
0
LINE
8
BLACK
6
CONTINUOUS
10
46.7006
20
-71.5315
11
46.8911
21
-71.6267
0
LINE
8
BLACK
6
CONTINUOUS
10
46.8911
20
-71.6267
11
46.9863
21
-71.8172
0
LINE
8
BLACK
6
CONTINUOUS
10
46.9863
20
-71.8172
11
46.9863
21
-72.8648
0
LINE
8
BLACK
6
CONTINUOUS
10
46.9863
20
-71.8172
11
47.0816
21
-71.6267
0
LINE
8
BLACK
6
CONTINUOUS
10
47.0816
20
-71.6267
11
47.2721
21
-71.5315
0
LINE
8
BLACK
6
CONTINUOUS
10
47.2721
20
-71.5315
11
47.5578
21
-71.5315
0
LINE
8
BLACK
6
CONTINUOUS
10
47.5578
20
-71.5315
11
47.7482
21
-71.6267
0
LINE
8
BLACK
6
CONTINUOUS
10
47.7482
20
-71.6267
11
47.8435
21
-71.8172
0
LINE
8
BLACK
6
CONTINUOUS
10
47.8435
20
-71.8172
11
47.8435
21
-72.8648
0
LINE
8
BLACK
6
CONTINUOUS
10
48.7959
20
-72.8648
11
48.7959
21
-71.5315
0
LINE
8
BLACK
6
CONTINUOUS
10
48.7959
20
-71.722
11
48.8911
21
-71.6267
0
LINE
8
BLACK
6
CONTINUOUS
10
48.8911
20
-71.6267
11
49.0816
21
-71.5315
0
LINE
8
BLACK
6
CONTINUOUS
10
49.0816
20
-71.5315
11
49.3673
21
-71.5315
0
LINE
8
BLACK
6
CONTINUOUS
10
49.3673
20
-71.5315
11
49.5578
21
-71.6267
0
LINE
8
BLACK
6
CONTINUOUS
10
49.5578
20
-71.6267
11
49.653
21
-71.8172
0
LINE
8
BLACK
6
CONTINUOUS
10
49.653
20
-71.8172
11
49.653
21
-72.8648
0
LINE
8
BLACK
6
CONTINUOUS
10
49.653
20
-71.8172
11
49.7482
21
-71.6267
0
LINE
8
BLACK
6
CONTINUOUS
10
49.7482
20
-71.6267
11
49.9387
21
-71.5315
0
LINE
8
BLACK
6
CONTINUOUS
10
49.9387
20
-71.5315
11
50.2244
21
-71.5315
0
LINE
8
BLACK
6
CONTINUOUS
10
50.2244
20
-71.5315
11
50.4149
21
-71.6267
0
LINE
8
BLACK
6
CONTINUOUS
10
50.4149
20
-71.6267
11
50.5101
21
-71.8172
0
LINE
8
BLACK
6
CONTINUOUS
10
50.5101
20
-71.8172
11
50.5101
21
-72.8648
0
LINE
8
BLACK
6
CONTINUOUS
10
54.4149
20
-70.7696
11
52.7006
21
-73.341
0
LINE
8
BLACK
6
CONTINUOUS
10
56.9863
20
-70.8648
11
57.1768
21
-70.8648
0
LINE
8
BLACK
6
CONTINUOUS
10
57.1768
20
-70.8648
11
57.3673
21
-70.9601
0
LINE
8
BLACK
6
CONTINUOUS
10
57.3673
20
-70.9601
11
57.4625
21
-71.0553
0
LINE
8
BLACK
6
CONTINUOUS
10
57.4625
20
-71.0553
11
57.5578
21
-71.2458
0
LINE
8
BLACK
6
CONTINUOUS
10
57.5578
20
-71.2458
11
57.653
21
-71.6267
0
LINE
8
BLACK
6
CONTINUOUS
10
57.653
20
-71.6267
11
57.653
21
-72.1029
0
LINE
8
BLACK
6
CONTINUOUS
10
57.653
20
-72.1029
11
57.5578
21
-72.4839
0
LINE
8
BLACK
6
CONTINUOUS
10
57.5578
20
-72.4839
11
57.4625
21
-72.6744
0
LINE
8
BLACK
6
CONTINUOUS
10
57.4625
20
-72.6744
11
57.3673
21
-72.7696
0
LINE
8
BLACK
6
CONTINUOUS
10
57.3673
20
-72.7696
11
57.1768
21
-72.8648
0
LINE
8
BLACK
6
CONTINUOUS
10
57.1768
20
-72.8648
11
56.9863
21
-72.8648
0
LINE
8
BLACK
6
CONTINUOUS
10
56.9863
20
-72.8648
11
56.7959
21
-72.7696
0
LINE
8
BLACK
6
CONTINUOUS
10
56.7959
20
-72.7696
11
56.7006
21
-72.6744
0
LINE
8
BLACK
6
CONTINUOUS
10
56.7006
20
-72.6744
11
56.6054
21
-72.4839
0
LINE
8
BLACK
6
CONTINUOUS
10
56.6054
20
-72.4839
11
56.5102
21
-72.1029
0
LINE
8
BLACK
6
CONTINUOUS
10
56.5102
20
-72.1029
11
56.5102
21
-71.6267
0
LINE
8
BLACK
6
CONTINUOUS
10
56.5102
20
-71.6267
11
56.6054
21
-71.2458
0
LINE
8
BLACK
6
CONTINUOUS
10
56.6054
20
-71.2458
11
56.7006
21
-71.0553
0
LINE
8
BLACK
6
CONTINUOUS
10
56.7006
20
-71.0553
11
56.7959
21
-70.9601
0
LINE
8
BLACK
6
CONTINUOUS
10
56.7959
20
-70.9601
11
56.9863
21
-70.8648
0
LINE
8
BLACK
6
CONTINUOUS
10
58.5102
20
-72.6744
11
58.6054
21
-72.7696
0
LINE
8
BLACK
6
CONTINUOUS
10
58.6054
20
-72.7696
11
58.5102
21
-72.8648
0
LINE
8
BLACK
6
CONTINUOUS
10
58.5102
20
-72.8648
11
58.4149
21
-72.7696
0
LINE
8
BLACK
6
CONTINUOUS
10
58.4149
20
-72.7696
11
58.5102
21
-72.6744
0
LINE
8
BLACK
6
CONTINUOUS
10
58.5102
20
-72.6744
11
58.5102
21
-72.8648
0
LINE
8
BLACK
6
CONTINUOUS
10
59.8435
20
-70.8648
11
60.034
21
-70.8648
0
LINE
8
BLACK
6
CONTINUOUS
10
60.034
20
-70.8648
11
60.2244
21
-70.9601
0
LINE
8
BLACK
6
CONTINUOUS
10
60.2244
20
-70.9601
11
60.3197
21
-71.0553
0
LINE
8
BLACK
6
CONTINUOUS
10
60.3197
20
-71.0553
11
60.4149
21
-71.2458
0
LINE
8
BLACK
6
CONTINUOUS
10
60.4149
20
-71.2458
11
60.5102
21
-71.6267
0
LINE
8
BLACK
6
CONTINUOUS
10
60.5102
20
-71.6267
11
60.5102
21
-72.1029
0
LINE
8
BLACK
6
CONTINUOUS
10
60.5102
20
-72.1029
11
60.4149
21
-72.4839
0
LINE
8
BLACK
6
CONTINUOUS
10
60.4149
20
-72.4839
11
60.3197
21
-72.6744
0
LINE
8
BLACK
6
CONTINUOUS
10
60.3197
20
-72.6744
11
60.2244
21
-72.7696
0
LINE
8
BLACK
6
CONTINUOUS
10
60.2244
20
-72.7696
11
60.034
21
-72.8648
0
LINE
8
BLACK
6
CONTINUOUS
10
60.034
20
-72.8648
11
59.8435
21
-72.8648
0
LINE
8
BLACK
6
CONTINUOUS
10
59.8435
20
-72.8648
11
59.653
21
-72.7696
0
LINE
8
BLACK
6
CONTINUOUS
10
59.653
20
-72.7696
11
59.5578
21
-72.6744
0
LINE
8
BLACK
6
CONTINUOUS
10
59.5578
20
-72.6744
11
59.4625
21
-72.4839
0
LINE
8
BLACK
6
CONTINUOUS
10
59.4625
20
-72.4839
11
59.3673
21
-72.1029
0
LINE
8
BLACK
6
CONTINUOUS
10
59.3673
20
-72.1029
11
59.3673
21
-71.6267
0
LINE
8
BLACK
6
CONTINUOUS
10
59.3673
20
-71.6267
11
59.4625
21
-71.2458
0
LINE
8
BLACK
6
CONTINUOUS
10
59.4625
20
-71.2458
11
59.5578
21
-71.0553
0
LINE
8
BLACK
6
CONTINUOUS
10
59.5578
20
-71.0553
11
59.653
21
-70.9601
0
LINE
8
BLACK
6
CONTINUOUS
10
59.653
20
-70.9601
11
59.8435
21
-70.8648
0
LINE
8
BLACK
6
CONTINUOUS
10
61.7482
20
-70.8648
11
61.9387
21
-70.8648
0
LINE
8
BLACK
6
CONTINUOUS
10
61.9387
20
-70.8648
11
62.1292
21
-70.9601
0
LINE
8
BLACK
6
CONTINUOUS
10
62.1292
20
-70.9601
11
62.2244
21
-71.0553
0
LINE
8
BLACK
6
CONTINUOUS
10
62.2244
20
-71.0553
11
62.3197
21
-71.2458
0
LINE
8
BLACK
6
CONTINUOUS
10
62.3197
20
-71.2458
11
62.4149
21
-71.6267
0
LINE
8
BLACK
6
CONTINUOUS
10
62.4149
20
-71.6267
11
62.4149
21
-72.1029
0
LINE
8
BLACK
6
CONTINUOUS
10
62.4149
20
-72.1029
11
62.3197
21
-72.4839
0
LINE
8
BLACK
6
CONTINUOUS
10
62.3197
20
-72.4839
11
62.2244
21
-72.6744
0
LINE
8
BLACK
6
CONTINUOUS
10
62.2244
20
-72.6744
11
62.1292
21
-72.7696
0
LINE
8
BLACK
6
CONTINUOUS
10
62.1292
20
-72.7696
11
61.9387
21
-72.8648
0
LINE
8
BLACK
6
CONTINUOUS
10
61.9387
20
-72.8648
11
61.7482
21
-72.8648
0
LINE
8
BLACK
6
CONTINUOUS
10
61.7482
20
-72.8648
11
61.5578
21
-72.7696
0
LINE
8
BLACK
6
CONTINUOUS
10
61.5578
20
-72.7696
11
61.4625
21
-72.6744
0
LINE
8
BLACK
6
CONTINUOUS
10
61.4625
20
-72.6744
11
61.3673
21
-72.4839
0
LINE
8
BLACK
6
CONTINUOUS
10
61.3673
20
-72.4839
11
61.2721
21
-72.1029
0
LINE
8
BLACK
6
CONTINUOUS
10
61.2721
20
-72.1029
11
61.2721
21
-71.6267
0
LINE
8
BLACK
6
CONTINUOUS
10
61.2721
20
-71.6267
11
61.3673
21
-71.2458
0
LINE
8
BLACK
6
CONTINUOUS
10
61.3673
20
-71.2458
11
61.4625
21
-71.0553
0
LINE
8
BLACK
6
CONTINUOUS
10
61.4625
20
-71.0553
11
61.5578
21
-70.9601
0
LINE
8
BLACK
6
CONTINUOUS
10
61.5578
20
-70.9601
11
61.7482
21
-70.8648
0
LINE
8
BLACK
6
CONTINUOUS
10
63.0816
20
-70.8648
11
64.4149
21
-70.8648
0
LINE
8
BLACK
6
CONTINUOUS
10
64.4149
20
-70.8648
11
63.5578
21
-72.8648
0
LINE
8
BLACK
6
CONTINUOUS
10
65.2721
20
-72.8648
11
65.653
21
-72.8648
0
LINE
8
BLACK
6
CONTINUOUS
10
65.653
20
-72.8648
11
65.8435
21
-72.7696
0
LINE
8
BLACK
6
CONTINUOUS
10
65.8435
20
-72.7696
11
65.9387
21
-72.6744
0
LINE
8
BLACK
6
CONTINUOUS
10
65.9387
20
-72.6744
11
66.1292
21
-72.3886
0
LINE
8
BLACK
6
CONTINUOUS
10
66.1292
20
-72.3886
11
66.2244
21
-72.0077
0
LINE
8
BLACK
6
CONTINUOUS
10
66.2244
20
-72.0077
11
66.2244
21
-71.2458
0
LINE
8
BLACK
6
CONTINUOUS
10
66.2244
20
-71.2458
11
66.1292
21
-71.0553
0
LINE
8
BLACK
6
CONTINUOUS
10
66.1292
20
-71.0553
11
66.034
21
-70.9601
0
LINE
8
BLACK
6
CONTINUOUS
10
66.034
20
-70.9601
11
65.8435
21
-70.8648
0
LINE
8
BLACK
6
CONTINUOUS
10
65.8435
20
-70.8648
11
65.4625
21
-70.8648
0
LINE
8
BLACK
6
CONTINUOUS
10
65.4625
20
-70.8648
11
65.2721
21
-70.9601
0
LINE
8
BLACK
6
CONTINUOUS
10
65.2721
20
-70.9601
11
65.1768
21
-71.0553
0
LINE
8
BLACK
6
CONTINUOUS
10
65.1768
20
-71.0553
11
65.0816
21
-71.2458
0
LINE
8
BLACK
6
CONTINUOUS
10
65.0816
20
-71.2458
11
65.0816
21
-71.722
0
LINE
8
BLACK
6
CONTINUOUS
10
65.0816
20
-71.722
11
65.1768
21
-71.9125
0
LINE
8
BLACK
6
CONTINUOUS
10
65.1768
20
-71.9125
11
65.2721
21
-72.0077
0
LINE
8
BLACK
6
CONTINUOUS
10
65.2721
20
-72.0077
11
65.4625
21
-72.1029
0
LINE
8
BLACK
6
CONTINUOUS
10
65.4625
20
-72.1029
11
65.8435
21
-72.1029
0
LINE
8
BLACK
6
CONTINUOUS
10
65.8435
20
-72.1029
11
66.034
21
-72.0077
0
LINE
8
BLACK
6
CONTINUOUS
10
66.034
20
-72.0077
11
66.1292
21
-71.9125
0
LINE
8
BLACK
6
CONTINUOUS
10
66.1292
20
-71.9125
11
66.2244
21
-71.722
0
LINE
8
BLACK
6
CONTINUOUS
10
66.9863
20
-70.8648
11
66.9863
21
-71.2458
0
LINE
8
BLACK
6
CONTINUOUS
10
67.7482
20
-70.8648
11
67.7482
21
-71.2458
0
LINE
8
BLACK
6
CONTINUOUS
10
70.7006
20
-73.6267
11
70.6054
21
-73.5315
0
LINE
8
BLACK
6
CONTINUOUS
10
70.6054
20
-73.5315
11
70.4149
21
-73.2458
0
LINE
8
BLACK
6
CONTINUOUS
10
70.4149
20
-73.2458
11
70.3197
21
-73.0553
0
LINE
8
BLACK
6
CONTINUOUS
10
70.3197
20
-73.0553
11
70.2244
21
-72.7696
0
LINE
8
BLACK
6
CONTINUOUS
10
70.2244
20
-72.7696
11
70.1292
21
-72.2934
0
LINE
8
BLACK
6
CONTINUOUS
10
70.1292
20
-72.2934
11
70.1292
21
-71.9125
0
LINE
8
BLACK
6
CONTINUOUS
10
70.1292
20
-71.9125
11
70.2244
21
-71.4363
0
LINE
8
BLACK
6
CONTINUOUS
10
70.2244
20
-71.4363
11
70.3197
21
-71.1506
0
LINE
8
BLACK
6
CONTINUOUS
10
70.3197
20
-71.1506
11
70.4149
21
-70.9601
0
LINE
8
BLACK
6
CONTINUOUS
10
70.4149
20
-70.9601
11
70.6054
21
-70.6744
0
LINE
8
BLACK
6
CONTINUOUS
10
70.6054
20
-70.6744
11
70.7006
21
-70.5791
0
LINE
8
BLACK
6
CONTINUOUS
10
72.5102
20
-72.8648
11
71.3673
21
-72.8648
0
LINE
8
BLACK
6
CONTINUOUS
10
71.9387
20
-72.8648
11
71.9387
21
-70.8648
0
LINE
8
BLACK
6
CONTINUOUS
10
71.9387
20
-70.8648
11
71.7482
21
-71.1506
0
LINE
8
BLACK
6
CONTINUOUS
10
71.7482
20
-71.1506
11
71.5578
21
-71.341
0
LINE
8
BLACK
6
CONTINUOUS
10
71.5578
20
-71.341
11
71.3673
21
-71.4363
0
LINE
8
BLACK
6
CONTINUOUS
10
74.2244
20
-70.8648
11
73.8435
21
-70.8648
0
LINE
8
BLACK
6
CONTINUOUS
10
73.8435
20
-70.8648
11
73.653
21
-70.9601
0
LINE
8
BLACK
6
CONTINUOUS
10
73.653
20
-70.9601
11
73.5578
21
-71.0553
0
LINE
8
BLACK
6
CONTINUOUS
10
73.5578
20
-71.0553
11
73.3673
21
-71.341
0
LINE
8
BLACK
6
CONTINUOUS
10
73.3673
20
-71.341
11
73.2721
21
-71.722
0
LINE
8
BLACK
6
CONTINUOUS
10
73.2721
20
-71.722
11
73.2721
21
-72.4839
0
LINE
8
BLACK
6
CONTINUOUS
10
73.2721
20
-72.4839
11
73.3673
21
-72.6744
0
LINE
8
BLACK
6
CONTINUOUS
10
73.3673
20
-72.6744
11
73.4625
21
-72.7696
0
LINE
8
BLACK
6
CONTINUOUS
10
73.4625
20
-72.7696
11
73.653
21
-72.8648
0
LINE
8
BLACK
6
CONTINUOUS
10
73.653
20
-72.8648
11
74.034
21
-72.8648
0
LINE
8
BLACK
6
CONTINUOUS
10
74.034
20
-72.8648
11
74.2244
21
-72.7696
0
LINE
8
BLACK
6
CONTINUOUS
10
74.2244
20
-72.7696
11
74.3197
21
-72.6744
0
LINE
8
BLACK
6
CONTINUOUS
10
74.3197
20
-72.6744
11
74.4149
21
-72.4839
0
LINE
8
BLACK
6
CONTINUOUS
10
74.4149
20
-72.4839
11
74.4149
21
-72.0077
0
LINE
8
BLACK
6
CONTINUOUS
10
74.4149
20
-72.0077
11
74.3197
21
-71.8172
0
LINE
8
BLACK
6
CONTINUOUS
10
74.3197
20
-71.8172
11
74.2244
21
-71.722
0
LINE
8
BLACK
6
CONTINUOUS
10
74.2244
20
-71.722
11
74.034
21
-71.6267
0
LINE
8
BLACK
6
CONTINUOUS
10
74.034
20
-71.6267
11
73.653
21
-71.6267
0
LINE
8
BLACK
6
CONTINUOUS
10
73.653
20
-71.6267
11
73.4625
21
-71.722
0
LINE
8
BLACK
6
CONTINUOUS
10
73.4625
20
-71.722
11
73.3673
21
-71.8172
0
LINE
8
BLACK
6
CONTINUOUS
10
73.3673
20
-71.8172
11
73.2721
21
-72.0077
0
LINE
8
BLACK
6
CONTINUOUS
10
76.1292
20
-71.5315
11
76.1292
21
-72.8648
0
LINE
8
BLACK
6
CONTINUOUS
10
75.653
20
-70.7696
11
75.1768
21
-72.1982
0
LINE
8
BLACK
6
CONTINUOUS
10
75.1768
20
-72.1982
11
76.4149
21
-72.1982
0
LINE
8
BLACK
6
CONTINUOUS
10
78.7006
20
-72.8648
11
78.7006
21
-70.8648
0
LINE
8
BLACK
6
CONTINUOUS
10
79.5578
20
-72.8648
11
79.5578
21
-71.8172
0
LINE
8
BLACK
6
CONTINUOUS
10
79.5578
20
-71.8172
11
79.4625
21
-71.6267
0
LINE
8
BLACK
6
CONTINUOUS
10
79.4625
20
-71.6267
11
79.2721
21
-71.5315
0
LINE
8
BLACK
6
CONTINUOUS
10
79.2721
20
-71.5315
11
78.9863
21
-71.5315
0
LINE
8
BLACK
6
CONTINUOUS
10
78.9863
20
-71.5315
11
78.7959
21
-71.6267
0
LINE
8
BLACK
6
CONTINUOUS
10
78.7959
20
-71.6267
11
78.7006
21
-71.722
0
LINE
8
BLACK
6
CONTINUOUS
10
80.7959
20
-72.8648
11
80.6054
21
-72.7696
0
LINE
8
BLACK
6
CONTINUOUS
10
80.6054
20
-72.7696
11
80.5102
21
-72.6744
0
LINE
8
BLACK
6
CONTINUOUS
10
80.5102
20
-72.6744
11
80.4149
21
-72.4839
0
LINE
8
BLACK
6
CONTINUOUS
10
80.4149
20
-72.4839
11
80.4149
21
-71.9125
0
LINE
8
BLACK
6
CONTINUOUS
10
80.4149
20
-71.9125
11
80.5102
21
-71.722
0
LINE
8
BLACK
6
CONTINUOUS
10
80.5102
20
-71.722
11
80.6054
21
-71.6267
0
LINE
8
BLACK
6
CONTINUOUS
10
80.6054
20
-71.6267
11
80.7959
21
-71.5315
0
LINE
8
BLACK
6
CONTINUOUS
10
80.7959
20
-71.5315
11
81.0816
21
-71.5315
0
LINE
8
BLACK
6
CONTINUOUS
10
81.0816
20
-71.5315
11
81.2721
21
-71.6267
0
LINE
8
BLACK
6
CONTINUOUS
10
81.2721
20
-71.6267
11
81.3673
21
-71.722
0
LINE
8
BLACK
6
CONTINUOUS
10
81.3673
20
-71.722
11
81.4625
21
-71.9125
0
LINE
8
BLACK
6
CONTINUOUS
10
81.4625
20
-71.9125
11
81.4625
21
-72.4839
0
LINE
8
BLACK
6
CONTINUOUS
10
81.4625
20
-72.4839
11
81.3673
21
-72.6744
0
LINE
8
BLACK
6
CONTINUOUS
10
81.3673
20
-72.6744
11
81.2721
21
-72.7696
0
LINE
8
BLACK
6
CONTINUOUS
10
81.2721
20
-72.7696
11
81.0816
21
-72.8648
0
LINE
8
BLACK
6
CONTINUOUS
10
81.0816
20
-72.8648
11
80.7959
21
-72.8648
0
LINE
8
BLACK
6
CONTINUOUS
10
82.6054
20
-72.8648
11
82.4149
21
-72.7696
0
LINE
8
BLACK
6
CONTINUOUS
10
82.4149
20
-72.7696
11
82.3197
21
-72.5791
0
LINE
8
BLACK
6
CONTINUOUS
10
82.3197
20
-72.5791
11
82.3197
21
-70.8648
0
LINE
8
BLACK
6
CONTINUOUS
10
84.1292
20
-72.7696
11
83.9387
21
-72.8648
0
LINE
8
BLACK
6
CONTINUOUS
10
83.9387
20
-72.8648
11
83.5578
21
-72.8648
0
LINE
8
BLACK
6
CONTINUOUS
10
83.5578
20
-72.8648
11
83.3673
21
-72.7696
0
LINE
8
BLACK
6
CONTINUOUS
10
83.3673
20
-72.7696
11
83.2721
21
-72.5791
0
LINE
8
BLACK
6
CONTINUOUS
10
83.2721
20
-72.5791
11
83.2721
21
-71.8172
0
LINE
8
BLACK
6
CONTINUOUS
10
83.2721
20
-71.8172
11
83.3673
21
-71.6267
0
LINE
8
BLACK
6
CONTINUOUS
10
83.3673
20
-71.6267
11
83.5578
21
-71.5315
0
LINE
8
BLACK
6
CONTINUOUS
10
83.5578
20
-71.5315
11
83.9387
21
-71.5315
0
LINE
8
BLACK
6
CONTINUOUS
10
83.9387
20
-71.5315
11
84.1292
21
-71.6267
0
LINE
8
BLACK
6
CONTINUOUS
10
84.1292
20
-71.6267
11
84.2244
21
-71.8172
0
LINE
8
BLACK
6
CONTINUOUS
10
84.2244
20
-71.8172
11
84.2244
21
-72.0077
0
LINE
8
BLACK
6
CONTINUOUS
10
84.2244
20
-72.0077
11
83.2721
21
-72.1982
0
LINE
8
BLACK
6
CONTINUOUS
10
84.9863
20
-72.7696
11
85.1768
21
-72.8648
0
LINE
8
BLACK
6
CONTINUOUS
10
85.1768
20
-72.8648
11
85.5578
21
-72.8648
0
LINE
8
BLACK
6
CONTINUOUS
10
85.5578
20
-72.8648
11
85.7482
21
-72.7696
0
LINE
8
BLACK
6
CONTINUOUS
10
85.7482
20
-72.7696
11
85.8435
21
-72.5791
0
LINE
8
BLACK
6
CONTINUOUS
10
85.8435
20
-72.5791
11
85.8435
21
-72.4839
0
LINE
8
BLACK
6
CONTINUOUS
10
85.8435
20
-72.4839
11
85.7482
21
-72.2934
0
LINE
8
BLACK
6
CONTINUOUS
10
85.7482
20
-72.2934
11
85.5578
21
-72.1982
0
LINE
8
BLACK
6
CONTINUOUS
10
85.5578
20
-72.1982
11
85.2721
21
-72.1982
0
LINE
8
BLACK
6
CONTINUOUS
10
85.2721
20
-72.1982
11
85.0816
21
-72.1029
0
LINE
8
BLACK
6
CONTINUOUS
10
85.0816
20
-72.1029
11
84.9863
21
-71.9125
0
LINE
8
BLACK
6
CONTINUOUS
10
84.9863
20
-71.9125
11
84.9863
21
-71.8172
0
LINE
8
BLACK
6
CONTINUOUS
10
84.9863
20
-71.8172
11
85.0816
21
-71.6267
0
LINE
8
BLACK
6
CONTINUOUS
10
85.0816
20
-71.6267
11
85.2721
21
-71.5315
0
LINE
8
BLACK
6
CONTINUOUS
10
85.2721
20
-71.5315
11
85.5578
21
-71.5315
0
LINE
8
BLACK
6
CONTINUOUS
10
85.5578
20
-71.5315
11
85.7482
21
-71.6267
0
LINE
8
BLACK
6
CONTINUOUS
10
86.5102
20
-73.6267
11
86.6054
21
-73.5315
0
LINE
8
BLACK
6
CONTINUOUS
10
86.6054
20
-73.5315
11
86.7959
21
-73.2458
0
LINE
8
BLACK
6
CONTINUOUS
10
86.7959
20
-73.2458
11
86.8911
21
-73.0553
0
LINE
8
BLACK
6
CONTINUOUS
10
86.8911
20
-73.0553
11
86.9863
21
-72.7696
0
LINE
8
BLACK
6
CONTINUOUS
10
86.9863
20
-72.7696
11
87.0816
21
-72.2934
0
LINE
8
BLACK
6
CONTINUOUS
10
87.0816
20
-72.2934
11
87.0816
21
-71.9125
0
LINE
8
BLACK
6
CONTINUOUS
10
87.0816
20
-71.9125
11
86.9863
21
-71.4363
0
LINE
8
BLACK
6
CONTINUOUS
10
86.9863
20
-71.4363
11
86.8911
21
-71.1506
0
LINE
8
BLACK
6
CONTINUOUS
10
86.8911
20
-71.1506
11
86.7959
21
-70.9601
0
LINE
8
BLACK
6
CONTINUOUS
10
86.7959
20
-70.9601
11
86.6054
21
-70.6744
0
LINE
8
BLACK
6
CONTINUOUS
10
86.6054
20
-70.6744
11
86.5102
21
-70.5791
0
CIRCLE
8
BLACK
10
34.7
20
-74.59
40
0.25
0
LINE
8
BLACK
6
CONTINUOUS
10
37.9387
20
-73.5048
11
38.1292
21
-73.5048
0
LINE
8
BLACK
6
CONTINUOUS
10
38.1292
20
-73.5048
11
38.3197
21
-73.6001
0
LINE
8
BLACK
6
CONTINUOUS
10
38.3197
20
-73.6001
11
38.4149
21
-73.6953
0
LINE
8
BLACK
6
CONTINUOUS
10
38.4149
20
-73.6953
11
38.5101
21
-73.8858
0
LINE
8
BLACK
6
CONTINUOUS
10
38.5101
20
-73.8858
11
38.6054
21
-74.2667
0
LINE
8
BLACK
6
CONTINUOUS
10
38.6054
20
-74.2667
11
38.6054
21
-74.7429
0
LINE
8
BLACK
6
CONTINUOUS
10
38.6054
20
-74.7429
11
38.5101
21
-75.1239
0
LINE
8
BLACK
6
CONTINUOUS
10
38.5101
20
-75.1239
11
38.4149
21
-75.3144
0
LINE
8
BLACK
6
CONTINUOUS
10
38.4149
20
-75.3144
11
38.3197
21
-75.4096
0
LINE
8
BLACK
6
CONTINUOUS
10
38.3197
20
-75.4096
11
38.1292
21
-75.5048
0
LINE
8
BLACK
6
CONTINUOUS
10
38.1292
20
-75.5048
11
37.9387
21
-75.5048
0
LINE
8
BLACK
6
CONTINUOUS
10
37.9387
20
-75.5048
11
37.7482
21
-75.4096
0
LINE
8
BLACK
6
CONTINUOUS
10
37.7482
20
-75.4096
11
37.653
21
-75.3144
0
LINE
8
BLACK
6
CONTINUOUS
10
37.653
20
-75.3144
11
37.5578
21
-75.1239
0
LINE
8
BLACK
6
CONTINUOUS
10
37.5578
20
-75.1239
11
37.4625
21
-74.7429
0
LINE
8
BLACK
6
CONTINUOUS
10
37.4625
20
-74.7429
11
37.4625
21
-74.2667
0
LINE
8
BLACK
6
CONTINUOUS
10
37.4625
20
-74.2667
11
37.5578
21
-73.8858
0
LINE
8
BLACK
6
CONTINUOUS
10
37.5578
20
-73.8858
11
37.653
21
-73.6953
0
LINE
8
BLACK
6
CONTINUOUS
10
37.653
20
-73.6953
11
37.7482
21
-73.6001
0
LINE
8
BLACK
6
CONTINUOUS
10
37.7482
20
-73.6001
11
37.9387
21
-73.5048
0
LINE
8
BLACK
6
CONTINUOUS
10
39.4625
20
-75.3144
11
39.5578
21
-75.4096
0
LINE
8
BLACK
6
CONTINUOUS
10
39.5578
20
-75.4096
11
39.4625
21
-75.5048
0
LINE
8
BLACK
6
CONTINUOUS
10
39.4625
20
-75.5048
11
39.3673
21
-75.4096
0
LINE
8
BLACK
6
CONTINUOUS
10
39.3673
20
-75.4096
11
39.4625
21
-75.3144
0
LINE
8
BLACK
6
CONTINUOUS
10
39.4625
20
-75.3144
11
39.4625
21
-75.5048
0
LINE
8
BLACK
6
CONTINUOUS
10
41.3673
20
-73.5048
11
40.4149
21
-73.5048
0
LINE
8
BLACK
6
CONTINUOUS
10
40.4149
20
-73.5048
11
40.3197
21
-74.4572
0
LINE
8
BLACK
6
CONTINUOUS
10
40.3197
20
-74.4572
11
40.4149
21
-74.362
0
LINE
8
BLACK
6
CONTINUOUS
10
40.4149
20
-74.362
11
40.6054
21
-74.2667
0
LINE
8
BLACK
6
CONTINUOUS
10
40.6054
20
-74.2667
11
41.0816
21
-74.2667
0
LINE
8
BLACK
6
CONTINUOUS
10
41.0816
20
-74.2667
11
41.2721
21
-74.362
0
LINE
8
BLACK
6
CONTINUOUS
10
41.2721
20
-74.362
11
41.3673
21
-74.4572
0
LINE
8
BLACK
6
CONTINUOUS
10
41.3673
20
-74.4572
11
41.4625
21
-74.6477
0
LINE
8
BLACK
6
CONTINUOUS
10
41.4625
20
-74.6477
11
41.4625
21
-75.1239
0
LINE
8
BLACK
6
CONTINUOUS
10
41.4625
20
-75.1239
11
41.3673
21
-75.3144
0
LINE
8
BLACK
6
CONTINUOUS
10
41.3673
20
-75.3144
11
41.2721
21
-75.4096
0
LINE
8
BLACK
6
CONTINUOUS
10
41.2721
20
-75.4096
11
41.0816
21
-75.5048
0
LINE
8
BLACK
6
CONTINUOUS
10
41.0816
20
-75.5048
11
40.6054
21
-75.5048
0
LINE
8
BLACK
6
CONTINUOUS
10
40.6054
20
-75.5048
11
40.4149
21
-75.4096
0
LINE
8
BLACK
6
CONTINUOUS
10
40.4149
20
-75.4096
11
40.3197
21
-75.3144
0
LINE
8
BLACK
6
CONTINUOUS
10
42.7006
20
-73.5048
11
42.8911
21
-73.5048
0
LINE
8
BLACK
6
CONTINUOUS
10
42.8911
20
-73.5048
11
43.0816
21
-73.6001
0
LINE
8
BLACK
6
CONTINUOUS
10
43.0816
20
-73.6001
11
43.1768
21
-73.6953
0
LINE
8
BLACK
6
CONTINUOUS
10
43.1768
20
-73.6953
11
43.2721
21
-73.8858
0
LINE
8
BLACK
6
CONTINUOUS
10
43.2721
20
-73.8858
11
43.3673
21
-74.2667
0
LINE
8
BLACK
6
CONTINUOUS
10
43.3673
20
-74.2667
11
43.3673
21
-74.7429
0
LINE
8
BLACK
6
CONTINUOUS
10
43.3673
20
-74.7429
11
43.2721
21
-75.1239
0
LINE
8
BLACK
6
CONTINUOUS
10
43.2721
20
-75.1239
11
43.1768
21
-75.3144
0
LINE
8
BLACK
6
CONTINUOUS
10
43.1768
20
-75.3144
11
43.0816
21
-75.4096
0
LINE
8
BLACK
6
CONTINUOUS
10
43.0816
20
-75.4096
11
42.8911
21
-75.5048
0
LINE
8
BLACK
6
CONTINUOUS
10
42.8911
20
-75.5048
11
42.7006
21
-75.5048
0
LINE
8
BLACK
6
CONTINUOUS
10
42.7006
20
-75.5048
11
42.5101
21
-75.4096
0
LINE
8
BLACK
6
CONTINUOUS
10
42.5101
20
-75.4096
11
42.4149
21
-75.3144
0
LINE
8
BLACK
6
CONTINUOUS
10
42.4149
20
-75.3144
11
42.3197
21
-75.1239
0
LINE
8
BLACK
6
CONTINUOUS
10
42.3197
20
-75.1239
11
42.2244
21
-74.7429
0
LINE
8
BLACK
6
CONTINUOUS
10
42.2244
20
-74.7429
11
42.2244
21
-74.2667
0
LINE
8
BLACK
6
CONTINUOUS
10
42.2244
20
-74.2667
11
42.3197
21
-73.8858
0
LINE
8
BLACK
6
CONTINUOUS
10
42.3197
20
-73.8858
11
42.4149
21
-73.6953
0
LINE
8
BLACK
6
CONTINUOUS
10
42.4149
20
-73.6953
11
42.5101
21
-73.6001
0
LINE
8
BLACK
6
CONTINUOUS
10
42.5101
20
-73.6001
11
42.7006
21
-73.5048
0
LINE
8
BLACK
6
CONTINUOUS
10
44.6054
20
-73.5048
11
44.7959
21
-73.5048
0
LINE
8
BLACK
6
CONTINUOUS
10
44.7959
20
-73.5048
11
44.9863
21
-73.6001
0
LINE
8
BLACK
6
CONTINUOUS
10
44.9863
20
-73.6001
11
45.0816
21
-73.6953
0
LINE
8
BLACK
6
CONTINUOUS
10
45.0816
20
-73.6953
11
45.1768
21
-73.8858
0
LINE
8
BLACK
6
CONTINUOUS
10
45.1768
20
-73.8858
11
45.2721
21
-74.2667
0
LINE
8
BLACK
6
CONTINUOUS
10
45.2721
20
-74.2667
11
45.2721
21
-74.7429
0
LINE
8
BLACK
6
CONTINUOUS
10
45.2721
20
-74.7429
11
45.1768
21
-75.1239
0
LINE
8
BLACK
6
CONTINUOUS
10
45.1768
20
-75.1239
11
45.0816
21
-75.3144
0
LINE
8
BLACK
6
CONTINUOUS
10
45.0816
20
-75.3144
11
44.9863
21
-75.4096
0
LINE
8
BLACK
6
CONTINUOUS
10
44.9863
20
-75.4096
11
44.7959
21
-75.5048
0
LINE
8
BLACK
6
CONTINUOUS
10
44.7959
20
-75.5048
11
44.6054
21
-75.5048
0
LINE
8
BLACK
6
CONTINUOUS
10
44.6054
20
-75.5048
11
44.4149
21
-75.4096
0
LINE
8
BLACK
6
CONTINUOUS
10
44.4149
20
-75.4096
11
44.3197
21
-75.3144
0
LINE
8
BLACK
6
CONTINUOUS
10
44.3197
20
-75.3144
11
44.2244
21
-75.1239
0
LINE
8
BLACK
6
CONTINUOUS
10
44.2244
20
-75.1239
11
44.1292
21
-74.7429
0
LINE
8
BLACK
6
CONTINUOUS
10
44.1292
20
-74.7429
11
44.1292
21
-74.2667
0
LINE
8
BLACK
6
CONTINUOUS
10
44.1292
20
-74.2667
11
44.2244
21
-73.8858
0
LINE
8
BLACK
6
CONTINUOUS
10
44.2244
20
-73.8858
11
44.3197
21
-73.6953
0
LINE
8
BLACK
6
CONTINUOUS
10
44.3197
20
-73.6953
11
44.4149
21
-73.6001
0
LINE
8
BLACK
6
CONTINUOUS
10
44.4149
20
-73.6001
11
44.6054
21
-73.5048
0
LINE
8
BLACK
6
CONTINUOUS
10
46.1292
20
-75.5048
11
46.1292
21
-74.1715
0
LINE
8
BLACK
6
CONTINUOUS
10
46.1292
20
-74.362
11
46.2244
21
-74.2667
0
LINE
8
BLACK
6
CONTINUOUS
10
46.2244
20
-74.2667
11
46.4149
21
-74.1715
0
LINE
8
BLACK
6
CONTINUOUS
10
46.4149
20
-74.1715
11
46.7006
21
-74.1715
0
LINE
8
BLACK
6
CONTINUOUS
10
46.7006
20
-74.1715
11
46.8911
21
-74.2667
0
LINE
8
BLACK
6
CONTINUOUS
10
46.8911
20
-74.2667
11
46.9863
21
-74.4572
0
LINE
8
BLACK
6
CONTINUOUS
10
46.9863
20
-74.4572
11
46.9863
21
-75.5048
0
LINE
8
BLACK
6
CONTINUOUS
10
46.9863
20
-74.4572
11
47.0816
21
-74.2667
0
LINE
8
BLACK
6
CONTINUOUS
10
47.0816
20
-74.2667
11
47.2721
21
-74.1715
0
LINE
8
BLACK
6
CONTINUOUS
10
47.2721
20
-74.1715
11
47.5578
21
-74.1715
0
LINE
8
BLACK
6
CONTINUOUS
10
47.5578
20
-74.1715
11
47.7482
21
-74.2667
0
LINE
8
BLACK
6
CONTINUOUS
10
47.7482
20
-74.2667
11
47.8435
21
-74.4572
0
LINE
8
BLACK
6
CONTINUOUS
10
47.8435
20
-74.4572
11
47.8435
21
-75.5048
0
LINE
8
BLACK
6
CONTINUOUS
10
48.7959
20
-75.5048
11
48.7959
21
-74.1715
0
LINE
8
BLACK
6
CONTINUOUS
10
48.7959
20
-74.362
11
48.8911
21
-74.2667
0
LINE
8
BLACK
6
CONTINUOUS
10
48.8911
20
-74.2667
11
49.0816
21
-74.1715
0
LINE
8
BLACK
6
CONTINUOUS
10
49.0816
20
-74.1715
11
49.3673
21
-74.1715
0
LINE
8
BLACK
6
CONTINUOUS
10
49.3673
20
-74.1715
11
49.5578
21
-74.2667
0
LINE
8
BLACK
6
CONTINUOUS
10
49.5578
20
-74.2667
11
49.653
21
-74.4572
0
LINE
8
BLACK
6
CONTINUOUS
10
49.653
20
-74.4572
11
49.653
21
-75.5048
0
LINE
8
BLACK
6
CONTINUOUS
10
49.653
20
-74.4572
11
49.7482
21
-74.2667
0
LINE
8
BLACK
6
CONTINUOUS
10
49.7482
20
-74.2667
11
49.9387
21
-74.1715
0
LINE
8
BLACK
6
CONTINUOUS
10
49.9387
20
-74.1715
11
50.2244
21
-74.1715
0
LINE
8
BLACK
6
CONTINUOUS
10
50.2244
20
-74.1715
11
50.4149
21
-74.2667
0
LINE
8
BLACK
6
CONTINUOUS
10
50.4149
20
-74.2667
11
50.5101
21
-74.4572
0
LINE
8
BLACK
6
CONTINUOUS
10
50.5101
20
-74.4572
11
50.5101
21
-75.5048
0
LINE
8
BLACK
6
CONTINUOUS
10
54.4149
20
-73.4096
11
52.7006
21
-75.981
0
LINE
8
BLACK
6
CONTINUOUS
10
56.9863
20
-73.5048
11
57.1768
21
-73.5048
0
LINE
8
BLACK
6
CONTINUOUS
10
57.1768
20
-73.5048
11
57.3673
21
-73.6001
0
LINE
8
BLACK
6
CONTINUOUS
10
57.3673
20
-73.6001
11
57.4625
21
-73.6953
0
LINE
8
BLACK
6
CONTINUOUS
10
57.4625
20
-73.6953
11
57.5578
21
-73.8858
0
LINE
8
BLACK
6
CONTINUOUS
10
57.5578
20
-73.8858
11
57.653
21
-74.2667
0
LINE
8
BLACK
6
CONTINUOUS
10
57.653
20
-74.2667
11
57.653
21
-74.7429
0
LINE
8
BLACK
6
CONTINUOUS
10
57.653
20
-74.7429
11
57.5578
21
-75.1239
0
LINE
8
BLACK
6
CONTINUOUS
10
57.5578
20
-75.1239
11
57.4625
21
-75.3144
0
LINE
8
BLACK
6
CONTINUOUS
10
57.4625
20
-75.3144
11
57.3673
21
-75.4096
0
LINE
8
BLACK
6
CONTINUOUS
10
57.3673
20
-75.4096
11
57.1768
21
-75.5048
0
LINE
8
BLACK
6
CONTINUOUS
10
57.1768
20
-75.5048
11
56.9863
21
-75.5048
0
LINE
8
BLACK
6
CONTINUOUS
10
56.9863
20
-75.5048
11
56.7959
21
-75.4096
0
LINE
8
BLACK
6
CONTINUOUS
10
56.7959
20
-75.4096
11
56.7006
21
-75.3144
0
LINE
8
BLACK
6
CONTINUOUS
10
56.7006
20
-75.3144
11
56.6054
21
-75.1239
0
LINE
8
BLACK
6
CONTINUOUS
10
56.6054
20
-75.1239
11
56.5102
21
-74.7429
0
LINE
8
BLACK
6
CONTINUOUS
10
56.5102
20
-74.7429
11
56.5102
21
-74.2667
0
LINE
8
BLACK
6
CONTINUOUS
10
56.5102
20
-74.2667
11
56.6054
21
-73.8858
0
LINE
8
BLACK
6
CONTINUOUS
10
56.6054
20
-73.8858
11
56.7006
21
-73.6953
0
LINE
8
BLACK
6
CONTINUOUS
10
56.7006
20
-73.6953
11
56.7959
21
-73.6001
0
LINE
8
BLACK
6
CONTINUOUS
10
56.7959
20
-73.6001
11
56.9863
21
-73.5048
0
LINE
8
BLACK
6
CONTINUOUS
10
58.5102
20
-75.3144
11
58.6054
21
-75.4096
0
LINE
8
BLACK
6
CONTINUOUS
10
58.6054
20
-75.4096
11
58.5102
21
-75.5048
0
LINE
8
BLACK
6
CONTINUOUS
10
58.5102
20
-75.5048
11
58.4149
21
-75.4096
0
LINE
8
BLACK
6
CONTINUOUS
10
58.4149
20
-75.4096
11
58.5102
21
-75.3144
0
LINE
8
BLACK
6
CONTINUOUS
10
58.5102
20
-75.3144
11
58.5102
21
-75.5048
0
LINE
8
BLACK
6
CONTINUOUS
10
59.8435
20
-73.5048
11
60.034
21
-73.5048
0
LINE
8
BLACK
6
CONTINUOUS
10
60.034
20
-73.5048
11
60.2244
21
-73.6001
0
LINE
8
BLACK
6
CONTINUOUS
10
60.2244
20
-73.6001
11
60.3197
21
-73.6953
0
LINE
8
BLACK
6
CONTINUOUS
10
60.3197
20
-73.6953
11
60.4149
21
-73.8858
0
LINE
8
BLACK
6
CONTINUOUS
10
60.4149
20
-73.8858
11
60.5102
21
-74.2667
0
LINE
8
BLACK
6
CONTINUOUS
10
60.5102
20
-74.2667
11
60.5102
21
-74.7429
0
LINE
8
BLACK
6
CONTINUOUS
10
60.5102
20
-74.7429
11
60.4149
21
-75.1239
0
LINE
8
BLACK
6
CONTINUOUS
10
60.4149
20
-75.1239
11
60.3197
21
-75.3144
0
LINE
8
BLACK
6
CONTINUOUS
10
60.3197
20
-75.3144
11
60.2244
21
-75.4096
0
LINE
8
BLACK
6
CONTINUOUS
10
60.2244
20
-75.4096
11
60.034
21
-75.5048
0
LINE
8
BLACK
6
CONTINUOUS
10
60.034
20
-75.5048
11
59.8435
21
-75.5048
0
LINE
8
BLACK
6
CONTINUOUS
10
59.8435
20
-75.5048
11
59.653
21
-75.4096
0
LINE
8
BLACK
6
CONTINUOUS
10
59.653
20
-75.4096
11
59.5578
21
-75.3144
0
LINE
8
BLACK
6
CONTINUOUS
10
59.5578
20
-75.3144
11
59.4625
21
-75.1239
0
LINE
8
BLACK
6
CONTINUOUS
10
59.4625
20
-75.1239
11
59.3673
21
-74.7429
0
LINE
8
BLACK
6
CONTINUOUS
10
59.3673
20
-74.7429
11
59.3673
21
-74.2667
0
LINE
8
BLACK
6
CONTINUOUS
10
59.3673
20
-74.2667
11
59.4625
21
-73.8858
0
LINE
8
BLACK
6
CONTINUOUS
10
59.4625
20
-73.8858
11
59.5578
21
-73.6953
0
LINE
8
BLACK
6
CONTINUOUS
10
59.5578
20
-73.6953
11
59.653
21
-73.6001
0
LINE
8
BLACK
6
CONTINUOUS
10
59.653
20
-73.6001
11
59.8435
21
-73.5048
0
LINE
8
BLACK
6
CONTINUOUS
10
62.4149
20
-75.5048
11
61.2721
21
-75.5048
0
LINE
8
BLACK
6
CONTINUOUS
10
61.8435
20
-75.5048
11
61.8435
21
-73.5048
0
LINE
8
BLACK
6
CONTINUOUS
10
61.8435
20
-73.5048
11
61.653
21
-73.7906
0
LINE
8
BLACK
6
CONTINUOUS
10
61.653
20
-73.7906
11
61.4625
21
-73.981
0
LINE
8
BLACK
6
CONTINUOUS
10
61.4625
20
-73.981
11
61.2721
21
-74.0763
0
LINE
8
BLACK
6
CONTINUOUS
10
63.3673
20
-75.5048
11
63.7482
21
-75.5048
0
LINE
8
BLACK
6
CONTINUOUS
10
63.7482
20
-75.5048
11
63.9387
21
-75.4096
0
LINE
8
BLACK
6
CONTINUOUS
10
63.9387
20
-75.4096
11
64.034
21
-75.3144
0
LINE
8
BLACK
6
CONTINUOUS
10
64.034
20
-75.3144
11
64.2244
21
-75.0286
0
LINE
8
BLACK
6
CONTINUOUS
10
64.2244
20
-75.0286
11
64.3197
21
-74.6477
0
LINE
8
BLACK
6
CONTINUOUS
10
64.3197
20
-74.6477
11
64.3197
21
-73.8858
0
LINE
8
BLACK
6
CONTINUOUS
10
64.3197
20
-73.8858
11
64.2244
21
-73.6953
0
LINE
8
BLACK
6
CONTINUOUS
10
64.2244
20
-73.6953
11
64.1292
21
-73.6001
0
LINE
8
BLACK
6
CONTINUOUS
10
64.1292
20
-73.6001
11
63.9387
21
-73.5048
0
LINE
8
BLACK
6
CONTINUOUS
10
63.9387
20
-73.5048
11
63.5578
21
-73.5048
0
LINE
8
BLACK
6
CONTINUOUS
10
63.5578
20
-73.5048
11
63.3673
21
-73.6001
0
LINE
8
BLACK
6
CONTINUOUS
10
63.3673
20
-73.6001
11
63.2721
21
-73.6953
0
LINE
8
BLACK
6
CONTINUOUS
10
63.2721
20
-73.6953
11
63.1768
21
-73.8858
0
LINE
8
BLACK
6
CONTINUOUS
10
63.1768
20
-73.8858
11
63.1768
21
-74.362
0
LINE
8
BLACK
6
CONTINUOUS
10
63.1768
20
-74.362
11
63.2721
21
-74.5525
0
LINE
8
BLACK
6
CONTINUOUS
10
63.2721
20
-74.5525
11
63.3673
21
-74.6477
0
LINE
8
BLACK
6
CONTINUOUS
10
63.3673
20
-74.6477
11
63.5578
21
-74.7429
0
LINE
8
BLACK
6
CONTINUOUS
10
63.5578
20
-74.7429
11
63.9387
21
-74.7429
0
LINE
8
BLACK
6
CONTINUOUS
10
63.9387
20
-74.7429
11
64.1292
21
-74.6477
0
LINE
8
BLACK
6
CONTINUOUS
10
64.1292
20
-74.6477
11
64.2244
21
-74.5525
0
LINE
8
BLACK
6
CONTINUOUS
10
64.2244
20
-74.5525
11
64.3197
21
-74.362
0
LINE
8
BLACK
6
CONTINUOUS
10
64.9863
20
-73.5048
11
66.3197
21
-73.5048
0
LINE
8
BLACK
6
CONTINUOUS
10
66.3197
20
-73.5048
11
65.4625
21
-75.5048
0
LINE
8
BLACK
6
CONTINUOUS
10
66.9863
20
-73.5048
11
66.9863
21
-73.8858
0
LINE
8
BLACK
6
CONTINUOUS
10
67.7482
20
-73.5048
11
67.7482
21
-73.8858
0
LINE
8
BLACK
6
CONTINUOUS
10
70.7006
20
-76.2667
11
70.6054
21
-76.1715
0
LINE
8
BLACK
6
CONTINUOUS
10
70.6054
20
-76.1715
11
70.4149
21
-75.8858
0
LINE
8
BLACK
6
CONTINUOUS
10
70.4149
20
-75.8858
11
70.3197
21
-75.6953
0
LINE
8
BLACK
6
CONTINUOUS
10
70.3197
20
-75.6953
11
70.2244
21
-75.4096
0
LINE
8
BLACK
6
CONTINUOUS
10
70.2244
20
-75.4096
11
70.1292
21
-74.9334
0
LINE
8
BLACK
6
CONTINUOUS
10
70.1292
20
-74.9334
11
70.1292
21
-74.5525
0
LINE
8
BLACK
6
CONTINUOUS
10
70.1292
20
-74.5525
11
70.2244
21
-74.0763
0
LINE
8
BLACK
6
CONTINUOUS
10
70.2244
20
-74.0763
11
70.3197
21
-73.7906
0
LINE
8
BLACK
6
CONTINUOUS
10
70.3197
20
-73.7906
11
70.4149
21
-73.6001
0
LINE
8
BLACK
6
CONTINUOUS
10
70.4149
20
-73.6001
11
70.6054
21
-73.3144
0
LINE
8
BLACK
6
CONTINUOUS
10
70.6054
20
-73.3144
11
70.7006
21
-73.2191
0
LINE
8
BLACK
6
CONTINUOUS
10
71.8435
20
-73.5048
11
72.034
21
-73.5048
0
LINE
8
BLACK
6
CONTINUOUS
10
72.034
20
-73.5048
11
72.2244
21
-73.6001
0
LINE
8
BLACK
6
CONTINUOUS
10
72.2244
20
-73.6001
11
72.3197
21
-73.6953
0
LINE
8
BLACK
6
CONTINUOUS
10
72.3197
20
-73.6953
11
72.4149
21
-73.8858
0
LINE
8
BLACK
6
CONTINUOUS
10
72.4149
20
-73.8858
11
72.5102
21
-74.2667
0
LINE
8
BLACK
6
CONTINUOUS
10
72.5102
20
-74.2667
11
72.5102
21
-74.7429
0
LINE
8
BLACK
6
CONTINUOUS
10
72.5102
20
-74.7429
11
72.4149
21
-75.1239
0
LINE
8
BLACK
6
CONTINUOUS
10
72.4149
20
-75.1239
11
72.3197
21
-75.3144
0
LINE
8
BLACK
6
CONTINUOUS
10
72.3197
20
-75.3144
11
72.2244
21
-75.4096
0
LINE
8
BLACK
6
CONTINUOUS
10
72.2244
20
-75.4096
11
72.034
21
-75.5048
0
LINE
8
BLACK
6
CONTINUOUS
10
72.034
20
-75.5048
11
71.8435
21
-75.5048
0
LINE
8
BLACK
6
CONTINUOUS
10
71.8435
20
-75.5048
11
71.653
21
-75.4096
0
LINE
8
BLACK
6
CONTINUOUS
10
71.653
20
-75.4096
11
71.5578
21
-75.3144
0
LINE
8
BLACK
6
CONTINUOUS
10
71.5578
20
-75.3144
11
71.4625
21
-75.1239
0
LINE
8
BLACK
6
CONTINUOUS
10
71.4625
20
-75.1239
11
71.3673
21
-74.7429
0
LINE
8
BLACK
6
CONTINUOUS
10
71.3673
20
-74.7429
11
71.3673
21
-74.2667
0
LINE
8
BLACK
6
CONTINUOUS
10
71.3673
20
-74.2667
11
71.4625
21
-73.8858
0
LINE
8
BLACK
6
CONTINUOUS
10
71.4625
20
-73.8858
11
71.5578
21
-73.6953
0
LINE
8
BLACK
6
CONTINUOUS
10
71.5578
20
-73.6953
11
71.653
21
-73.6001
0
LINE
8
BLACK
6
CONTINUOUS
10
71.653
20
-73.6001
11
71.8435
21
-73.5048
0
LINE
8
BLACK
6
CONTINUOUS
10
74.8911
20
-75.5048
11
74.8911
21
-73.5048
0
LINE
8
BLACK
6
CONTINUOUS
10
75.7482
20
-75.5048
11
75.7482
21
-74.4572
0
LINE
8
BLACK
6
CONTINUOUS
10
75.7482
20
-74.4572
11
75.653
21
-74.2667
0
LINE
8
BLACK
6
CONTINUOUS
10
75.653
20
-74.2667
11
75.4625
21
-74.1715
0
LINE
8
BLACK
6
CONTINUOUS
10
75.4625
20
-74.1715
11
75.1768
21
-74.1715
0
LINE
8
BLACK
6
CONTINUOUS
10
75.1768
20
-74.1715
11
74.9863
21
-74.2667
0
LINE
8
BLACK
6
CONTINUOUS
10
74.9863
20
-74.2667
11
74.8911
21
-74.362
0
LINE
8
BLACK
6
CONTINUOUS
10
76.9863
20
-75.5048
11
76.7959
21
-75.4096
0
LINE
8
BLACK
6
CONTINUOUS
10
76.7959
20
-75.4096
11
76.7006
21
-75.3144
0
LINE
8
BLACK
6
CONTINUOUS
10
76.7006
20
-75.3144
11
76.6054
21
-75.1239
0
LINE
8
BLACK
6
CONTINUOUS
10
76.6054
20
-75.1239
11
76.6054
21
-74.5525
0
LINE
8
BLACK
6
CONTINUOUS
10
76.6054
20
-74.5525
11
76.7006
21
-74.362
0
LINE
8
BLACK
6
CONTINUOUS
10
76.7006
20
-74.362
11
76.7959
21
-74.2667
0
LINE
8
BLACK
6
CONTINUOUS
10
76.7959
20
-74.2667
11
76.9863
21
-74.1715
0
LINE
8
BLACK
6
CONTINUOUS
10
76.9863
20
-74.1715
11
77.2721
21
-74.1715
0
LINE
8
BLACK
6
CONTINUOUS
10
77.2721
20
-74.1715
11
77.4625
21
-74.2667
0
LINE
8
BLACK
6
CONTINUOUS
10
77.4625
20
-74.2667
11
77.5578
21
-74.362
0
LINE
8
BLACK
6
CONTINUOUS
10
77.5578
20
-74.362
11
77.653
21
-74.5525
0
LINE
8
BLACK
6
CONTINUOUS
10
77.653
20
-74.5525
11
77.653
21
-75.1239
0
LINE
8
BLACK
6
CONTINUOUS
10
77.653
20
-75.1239
11
77.5578
21
-75.3144
0
LINE
8
BLACK
6
CONTINUOUS
10
77.5578
20
-75.3144
11
77.4625
21
-75.4096
0
LINE
8
BLACK
6
CONTINUOUS
10
77.4625
20
-75.4096
11
77.2721
21
-75.5048
0
LINE
8
BLACK
6
CONTINUOUS
10
77.2721
20
-75.5048
11
76.9863
21
-75.5048
0
LINE
8
BLACK
6
CONTINUOUS
10
78.7959
20
-75.5048
11
78.6054
21
-75.4096
0
LINE
8
BLACK
6
CONTINUOUS
10
78.6054
20
-75.4096
11
78.5102
21
-75.2191
0
LINE
8
BLACK
6
CONTINUOUS
10
78.5102
20
-75.2191
11
78.5102
21
-73.5048
0
LINE
8
BLACK
6
CONTINUOUS
10
80.3197
20
-75.4096
11
80.1292
21
-75.5048
0
LINE
8
BLACK
6
CONTINUOUS
10
80.1292
20
-75.5048
11
79.7482
21
-75.5048
0
LINE
8
BLACK
6
CONTINUOUS
10
79.7482
20
-75.5048
11
79.5578
21
-75.4096
0
LINE
8
BLACK
6
CONTINUOUS
10
79.5578
20
-75.4096
11
79.4625
21
-75.2191
0
LINE
8
BLACK
6
CONTINUOUS
10
79.4625
20
-75.2191
11
79.4625
21
-74.4572
0
LINE
8
BLACK
6
CONTINUOUS
10
79.4625
20
-74.4572
11
79.5578
21
-74.2667
0
LINE
8
BLACK
6
CONTINUOUS
10
79.5578
20
-74.2667
11
79.7482
21
-74.1715
0
LINE
8
BLACK
6
CONTINUOUS
10
79.7482
20
-74.1715
11
80.1292
21
-74.1715
0
LINE
8
BLACK
6
CONTINUOUS
10
80.1292
20
-74.1715
11
80.3197
21
-74.2667
0
LINE
8
BLACK
6
CONTINUOUS
10
80.3197
20
-74.2667
11
80.4149
21
-74.4572
0
LINE
8
BLACK
6
CONTINUOUS
10
80.4149
20
-74.4572
11
80.4149
21
-74.6477
0
LINE
8
BLACK
6
CONTINUOUS
10
80.4149
20
-74.6477
11
79.4625
21
-74.8382
0
LINE
8
BLACK
6
CONTINUOUS
10
81.1768
20
-75.4096
11
81.3673
21
-75.5048
0
LINE
8
BLACK
6
CONTINUOUS
10
81.3673
20
-75.5048
11
81.7482
21
-75.5048
0
LINE
8
BLACK
6
CONTINUOUS
10
81.7482
20
-75.5048
11
81.9387
21
-75.4096
0
LINE
8
BLACK
6
CONTINUOUS
10
81.9387
20
-75.4096
11
82.034
21
-75.2191
0
LINE
8
BLACK
6
CONTINUOUS
10
82.034
20
-75.2191
11
82.034
21
-75.1239
0
LINE
8
BLACK
6
CONTINUOUS
10
82.034
20
-75.1239
11
81.9387
21
-74.9334
0
LINE
8
BLACK
6
CONTINUOUS
10
81.9387
20
-74.9334
11
81.7482
21
-74.8382
0
LINE
8
BLACK
6
CONTINUOUS
10
81.7482
20
-74.8382
11
81.4625
21
-74.8382
0
LINE
8
BLACK
6
CONTINUOUS
10
81.4625
20
-74.8382
11
81.2721
21
-74.7429
0
LINE
8
BLACK
6
CONTINUOUS
10
81.2721
20
-74.7429
11
81.1768
21
-74.5525
0
LINE
8
BLACK
6
CONTINUOUS
10
81.1768
20
-74.5525
11
81.1768
21
-74.4572
0
LINE
8
BLACK
6
CONTINUOUS
10
81.1768
20
-74.4572
11
81.2721
21
-74.2667
0
LINE
8
BLACK
6
CONTINUOUS
10
81.2721
20
-74.2667
11
81.4625
21
-74.1715
0
LINE
8
BLACK
6
CONTINUOUS
10
81.4625
20
-74.1715
11
81.7482
21
-74.1715
0
LINE
8
BLACK
6
CONTINUOUS
10
81.7482
20
-74.1715
11
81.9387
21
-74.2667
0
LINE
8
BLACK
6
CONTINUOUS
10
84.4149
20
-74.7429
11
85.9387
21
-74.7429
0
LINE
8
BLACK
6
CONTINUOUS
10
85.1768
20
-75.5048
11
85.1768
21
-73.981
0
LINE
8
BLACK
6
CONTINUOUS
10
88.3197
20
-73.6953
11
88.4149
21
-73.6001
0
LINE
8
BLACK
6
CONTINUOUS
10
88.4149
20
-73.6001
11
88.6054
21
-73.5048
0
LINE
8
BLACK
6
CONTINUOUS
10
88.6054
20
-73.5048
11
89.0816
21
-73.5048
0
LINE
8
BLACK
6
CONTINUOUS
10
89.0816
20
-73.5048
11
89.2721
21
-73.6001
0
LINE
8
BLACK
6
CONTINUOUS
10
89.2721
20
-73.6001
11
89.3673
21
-73.6953
0
LINE
8
BLACK
6
CONTINUOUS
10
89.3673
20
-73.6953
11
89.4625
21
-73.8858
0
LINE
8
BLACK
6
CONTINUOUS
10
89.4625
20
-73.8858
11
89.4625
21
-74.0763
0
LINE
8
BLACK
6
CONTINUOUS
10
89.4625
20
-74.0763
11
89.3673
21
-74.362
0
LINE
8
BLACK
6
CONTINUOUS
10
89.3673
20
-74.362
11
88.2244
21
-75.5048
0
LINE
8
BLACK
6
CONTINUOUS
10
88.2244
20
-75.5048
11
89.4625
21
-75.5048
0
LINE
8
BLACK
6
CONTINUOUS
10
91.7482
20
-75.4096
11
91.9387
21
-75.5048
0
LINE
8
BLACK
6
CONTINUOUS
10
91.9387
20
-75.5048
11
92.3197
21
-75.5048
0
LINE
8
BLACK
6
CONTINUOUS
10
92.3197
20
-75.5048
11
92.5102
21
-75.4096
0
LINE
8
BLACK
6
CONTINUOUS
10
92.5102
20
-75.4096
11
92.6054
21
-75.2191
0
LINE
8
BLACK
6
CONTINUOUS
10
92.6054
20
-75.2191
11
92.6054
21
-75.1239
0
LINE
8
BLACK
6
CONTINUOUS
10
92.6054
20
-75.1239
11
92.5102
21
-74.9334
0
LINE
8
BLACK
6
CONTINUOUS
10
92.5102
20
-74.9334
11
92.3197
21
-74.8382
0
LINE
8
BLACK
6
CONTINUOUS
10
92.3197
20
-74.8382
11
92.034
21
-74.8382
0
LINE
8
BLACK
6
CONTINUOUS
10
92.034
20
-74.8382
11
91.8435
21
-74.7429
0
LINE
8
BLACK
6
CONTINUOUS
10
91.8435
20
-74.7429
11
91.7482
21
-74.5525
0
LINE
8
BLACK
6
CONTINUOUS
10
91.7482
20
-74.5525
11
91.7482
21
-74.4572
0
LINE
8
BLACK
6
CONTINUOUS
10
91.7482
20
-74.4572
11
91.8435
21
-74.2667
0
LINE
8
BLACK
6
CONTINUOUS
10
91.8435
20
-74.2667
11
92.034
21
-74.1715
0
LINE
8
BLACK
6
CONTINUOUS
10
92.034
20
-74.1715
11
92.3197
21
-74.1715
0
LINE
8
BLACK
6
CONTINUOUS
10
92.3197
20
-74.1715
11
92.5102
21
-74.2667
0
LINE
8
BLACK
6
CONTINUOUS
10
93.7482
20
-75.5048
11
93.5578
21
-75.4096
0
LINE
8
BLACK
6
CONTINUOUS
10
93.5578
20
-75.4096
11
93.4625
21
-75.2191
0
LINE
8
BLACK
6
CONTINUOUS
10
93.4625
20
-75.2191
11
93.4625
21
-73.5048
0
LINE
8
BLACK
6
CONTINUOUS
10
94.7959
20
-75.5048
11
94.6054
21
-75.4096
0
LINE
8
BLACK
6
CONTINUOUS
10
94.6054
20
-75.4096
11
94.5102
21
-75.3144
0
LINE
8
BLACK
6
CONTINUOUS
10
94.5102
20
-75.3144
11
94.4149
21
-75.1239
0
LINE
8
BLACK
6
CONTINUOUS
10
94.4149
20
-75.1239
11
94.4149
21
-74.5525
0
LINE
8
BLACK
6
CONTINUOUS
10
94.4149
20
-74.5525
11
94.5102
21
-74.362
0
LINE
8
BLACK
6
CONTINUOUS
10
94.5102
20
-74.362
11
94.6054
21
-74.2667
0
LINE
8
BLACK
6
CONTINUOUS
10
94.6054
20
-74.2667
11
94.7959
21
-74.1715
0
LINE
8
BLACK
6
CONTINUOUS
10
94.7959
20
-74.1715
11
95.0816
21
-74.1715
0
LINE
8
BLACK
6
CONTINUOUS
10
95.0816
20
-74.1715
11
95.2721
21
-74.2667
0
LINE
8
BLACK
6
CONTINUOUS
10
95.2721
20
-74.2667
11
95.3673
21
-74.362
0
LINE
8
BLACK
6
CONTINUOUS
10
95.3673
20
-74.362
11
95.4625
21
-74.5525
0
LINE
8
BLACK
6
CONTINUOUS
10
95.4625
20
-74.5525
11
95.4625
21
-75.1239
0
LINE
8
BLACK
6
CONTINUOUS
10
95.4625
20
-75.1239
11
95.3673
21
-75.3144
0
LINE
8
BLACK
6
CONTINUOUS
10
95.3673
20
-75.3144
11
95.2721
21
-75.4096
0
LINE
8
BLACK
6
CONTINUOUS
10
95.2721
20
-75.4096
11
95.0816
21
-75.5048
0
LINE
8
BLACK
6
CONTINUOUS
10
95.0816
20
-75.5048
11
94.7959
21
-75.5048
0
LINE
8
BLACK
6
CONTINUOUS
10
96.034
20
-74.1715
11
96.7959
21
-74.1715
0
LINE
8
BLACK
6
CONTINUOUS
10
96.3197
20
-73.5048
11
96.3197
21
-75.2191
0
LINE
8
BLACK
6
CONTINUOUS
10
96.3197
20
-75.2191
11
96.4149
21
-75.4096
0
LINE
8
BLACK
6
CONTINUOUS
10
96.4149
20
-75.4096
11
96.6054
21
-75.5048
0
LINE
8
BLACK
6
CONTINUOUS
10
96.6054
20
-75.5048
11
96.7959
21
-75.5048
0
LINE
8
BLACK
6
CONTINUOUS
10
97.3673
20
-75.4096
11
97.5578
21
-75.5048
0
LINE
8
BLACK
6
CONTINUOUS
10
97.5578
20
-75.5048
11
97.9387
21
-75.5048
0
LINE
8
BLACK
6
CONTINUOUS
10
97.9387
20
-75.5048
11
98.1292
21
-75.4096
0
LINE
8
BLACK
6
CONTINUOUS
10
98.1292
20
-75.4096
11
98.2244
21
-75.2191
0
LINE
8
BLACK
6
CONTINUOUS
10
98.2244
20
-75.2191
11
98.2244
21
-75.1239
0
LINE
8
BLACK
6
CONTINUOUS
10
98.2244
20
-75.1239
11
98.1292
21
-74.9334
0
LINE
8
BLACK
6
CONTINUOUS
10
98.1292
20
-74.9334
11
97.9387
21
-74.8382
0
LINE
8
BLACK
6
CONTINUOUS
10
97.9387
20
-74.8382
11
97.653
21
-74.8382
0
LINE
8
BLACK
6
CONTINUOUS
10
97.653
20
-74.8382
11
97.4625
21
-74.7429
0
LINE
8
BLACK
6
CONTINUOUS
10
97.4625
20
-74.7429
11
97.3673
21
-74.5525
0
LINE
8
BLACK
6
CONTINUOUS
10
97.3673
20
-74.5525
11
97.3673
21
-74.4572
0
LINE
8
BLACK
6
CONTINUOUS
10
97.3673
20
-74.4572
11
97.4625
21
-74.2667
0
LINE
8
BLACK
6
CONTINUOUS
10
97.4625
20
-74.2667
11
97.653
21
-74.1715
0
LINE
8
BLACK
6
CONTINUOUS
10
97.653
20
-74.1715
11
97.9387
21
-74.1715
0
LINE
8
BLACK
6
CONTINUOUS
10
97.9387
20
-74.1715
11
98.1292
21
-74.2667
0
LINE
8
BLACK
6
CONTINUOUS
10
98.8911
20
-76.2667
11
98.9863
21
-76.1715
0
LINE
8
BLACK
6
CONTINUOUS
10
98.9863
20
-76.1715
11
99.1768
21
-75.8858
0
LINE
8
BLACK
6
CONTINUOUS
10
99.1768
20
-75.8858
11
99.2721
21
-75.6953
0
LINE
8
BLACK
6
CONTINUOUS
10
99.2721
20
-75.6953
11
99.3673
21
-75.4096
0
LINE
8
BLACK
6
CONTINUOUS
10
99.3673
20
-75.4096
11
99.4625
21
-74.9334
0
LINE
8
BLACK
6
CONTINUOUS
10
99.4625
20
-74.9334
11
99.4625
21
-74.5525
0
LINE
8
BLACK
6
CONTINUOUS
10
99.4625
20
-74.5525
11
99.3673
21
-74.0763
0
LINE
8
BLACK
6
CONTINUOUS
10
99.3673
20
-74.0763
11
99.2721
21
-73.7906
0
LINE
8
BLACK
6
CONTINUOUS
10
99.2721
20
-73.7906
11
99.1768
21
-73.6001
0
LINE
8
BLACK
6
CONTINUOUS
10
99.1768
20
-73.6001
11
98.9863
21
-73.3144
0
LINE
8
BLACK
6
CONTINUOUS
10
98.9863
20
-73.3144
11
98.8911
21
-73.2191
0
LINE
8
BLACK
6
CONTINUOUS
10
34.45
20
-76.73
11
34.45
21
-77.73
0
LINE
8
BLACK
6
CONTINUOUS
10
33.95
20
-77.23
11
34.95
21
-77.23
0
LINE
8
BLACK
6
CONTINUOUS
10
38.6054
20
-78.1448
11
37.4625
21
-78.1448
0
LINE
8
BLACK
6
CONTINUOUS
10
38.034
20
-78.1448
11
38.034
21
-76.1448
0
LINE
8
BLACK
6
CONTINUOUS
10
38.034
20
-76.1448
11
37.8435
21
-76.4306
0
LINE
8
BLACK
6
CONTINUOUS
10
37.8435
20
-76.4306
11
37.653
21
-76.621
0
LINE
8
BLACK
6
CONTINUOUS
10
37.653
20
-76.621
11
37.4625
21
-76.7163
0
LINE
8
BLACK
6
CONTINUOUS
10
39.4625
20
-77.9544
11
39.5578
21
-78.0496
0
LINE
8
BLACK
6
CONTINUOUS
10
39.5578
20
-78.0496
11
39.4625
21
-78.1448
0
LINE
8
BLACK
6
CONTINUOUS
10
39.4625
20
-78.1448
11
39.3673
21
-78.0496
0
LINE
8
BLACK
6
CONTINUOUS
10
39.3673
20
-78.0496
11
39.4625
21
-77.9544
0
LINE
8
BLACK
6
CONTINUOUS
10
39.4625
20
-77.9544
11
39.4625
21
-78.1448
0
LINE
8
BLACK
6
CONTINUOUS
10
40.7959
20
-76.1448
11
40.9863
21
-76.1448
0
LINE
8
BLACK
6
CONTINUOUS
10
40.9863
20
-76.1448
11
41.1768
21
-76.2401
0
LINE
8
BLACK
6
CONTINUOUS
10
41.1768
20
-76.2401
11
41.2721
21
-76.3353
0
LINE
8
BLACK
6
CONTINUOUS
10
41.2721
20
-76.3353
11
41.3673
21
-76.5258
0
LINE
8
BLACK
6
CONTINUOUS
10
41.3673
20
-76.5258
11
41.4625
21
-76.9067
0
LINE
8
BLACK
6
CONTINUOUS
10
41.4625
20
-76.9067
11
41.4625
21
-77.3829
0
LINE
8
BLACK
6
CONTINUOUS
10
41.4625
20
-77.3829
11
41.3673
21
-77.7639
0
LINE
8
BLACK
6
CONTINUOUS
10
41.3673
20
-77.7639
11
41.2721
21
-77.9544
0
LINE
8
BLACK
6
CONTINUOUS
10
41.2721
20
-77.9544
11
41.1768
21
-78.0496
0
LINE
8
BLACK
6
CONTINUOUS
10
41.1768
20
-78.0496
11
40.9863
21
-78.1448
0
LINE
8
BLACK
6
CONTINUOUS
10
40.9863
20
-78.1448
11
40.7959
21
-78.1448
0
LINE
8
BLACK
6
CONTINUOUS
10
40.7959
20
-78.1448
11
40.6054
21
-78.0496
0
LINE
8
BLACK
6
CONTINUOUS
10
40.6054
20
-78.0496
11
40.5101
21
-77.9544
0
LINE
8
BLACK
6
CONTINUOUS
10
40.5101
20
-77.9544
11
40.4149
21
-77.7639
0
LINE
8
BLACK
6
CONTINUOUS
10
40.4149
20
-77.7639
11
40.3197
21
-77.3829
0
LINE
8
BLACK
6
CONTINUOUS
10
40.3197
20
-77.3829
11
40.3197
21
-76.9067
0
LINE
8
BLACK
6
CONTINUOUS
10
40.3197
20
-76.9067
11
40.4149
21
-76.5258
0
LINE
8
BLACK
6
CONTINUOUS
10
40.4149
20
-76.5258
11
40.5101
21
-76.3353
0
LINE
8
BLACK
6
CONTINUOUS
10
40.5101
20
-76.3353
11
40.6054
21
-76.2401
0
LINE
8
BLACK
6
CONTINUOUS
10
40.6054
20
-76.2401
11
40.7959
21
-76.1448
0
LINE
8
BLACK
6
CONTINUOUS
10
42.7006
20
-76.1448
11
42.8911
21
-76.1448
0
LINE
8
BLACK
6
CONTINUOUS
10
42.8911
20
-76.1448
11
43.0816
21
-76.2401
0
LINE
8
BLACK
6
CONTINUOUS
10
43.0816
20
-76.2401
11
43.1768
21
-76.3353
0
LINE
8
BLACK
6
CONTINUOUS
10
43.1768
20
-76.3353
11
43.2721
21
-76.5258
0
LINE
8
BLACK
6
CONTINUOUS
10
43.2721
20
-76.5258
11
43.3673
21
-76.9067
0
LINE
8
BLACK
6
CONTINUOUS
10
43.3673
20
-76.9067
11
43.3673
21
-77.3829
0
LINE
8
BLACK
6
CONTINUOUS
10
43.3673
20
-77.3829
11
43.2721
21
-77.7639
0
LINE
8
BLACK
6
CONTINUOUS
10
43.2721
20
-77.7639
11
43.1768
21
-77.9544
0
LINE
8
BLACK
6
CONTINUOUS
10
43.1768
20
-77.9544
11
43.0816
21
-78.0496
0
LINE
8
BLACK
6
CONTINUOUS
10
43.0816
20
-78.0496
11
42.8911
21
-78.1448
0
LINE
8
BLACK
6
CONTINUOUS
10
42.8911
20
-78.1448
11
42.7006
21
-78.1448
0
LINE
8
BLACK
6
CONTINUOUS
10
42.7006
20
-78.1448
11
42.5101
21
-78.0496
0
LINE
8
BLACK
6
CONTINUOUS
10
42.5101
20
-78.0496
11
42.4149
21
-77.9544
0
LINE
8
BLACK
6
CONTINUOUS
10
42.4149
20
-77.9544
11
42.3197
21
-77.7639
0
LINE
8
BLACK
6
CONTINUOUS
10
42.3197
20
-77.7639
11
42.2244
21
-77.3829
0
LINE
8
BLACK
6
CONTINUOUS
10
42.2244
20
-77.3829
11
42.2244
21
-76.9067
0
LINE
8
BLACK
6
CONTINUOUS
10
42.2244
20
-76.9067
11
42.3197
21
-76.5258
0
LINE
8
BLACK
6
CONTINUOUS
10
42.3197
20
-76.5258
11
42.4149
21
-76.3353
0
LINE
8
BLACK
6
CONTINUOUS
10
42.4149
20
-76.3353
11
42.5101
21
-76.2401
0
LINE
8
BLACK
6
CONTINUOUS
10
42.5101
20
-76.2401
11
42.7006
21
-76.1448
0
LINE
8
BLACK
6
CONTINUOUS
10
44.6054
20
-76.1448
11
44.7959
21
-76.1448
0
LINE
8
BLACK
6
CONTINUOUS
10
44.7959
20
-76.1448
11
44.9863
21
-76.2401
0
LINE
8
BLACK
6
CONTINUOUS
10
44.9863
20
-76.2401
11
45.0816
21
-76.3353
0
LINE
8
BLACK
6
CONTINUOUS
10
45.0816
20
-76.3353
11
45.1768
21
-76.5258
0
LINE
8
BLACK
6
CONTINUOUS
10
45.1768
20
-76.5258
11
45.2721
21
-76.9067
0
LINE
8
BLACK
6
CONTINUOUS
10
45.2721
20
-76.9067
11
45.2721
21
-77.3829
0
LINE
8
BLACK
6
CONTINUOUS
10
45.2721
20
-77.3829
11
45.1768
21
-77.7639
0
LINE
8
BLACK
6
CONTINUOUS
10
45.1768
20
-77.7639
11
45.0816
21
-77.9544
0
LINE
8
BLACK
6
CONTINUOUS
10
45.0816
20
-77.9544
11
44.9863
21
-78.0496
0
LINE
8
BLACK
6
CONTINUOUS
10
44.9863
20
-78.0496
11
44.7959
21
-78.1448
0
LINE
8
BLACK
6
CONTINUOUS
10
44.7959
20
-78.1448
11
44.6054
21
-78.1448
0
LINE
8
BLACK
6
CONTINUOUS
10
44.6054
20
-78.1448
11
44.4149
21
-78.0496
0
LINE
8
BLACK
6
CONTINUOUS
10
44.4149
20
-78.0496
11
44.3197
21
-77.9544
0
LINE
8
BLACK
6
CONTINUOUS
10
44.3197
20
-77.9544
11
44.2244
21
-77.7639
0
LINE
8
BLACK
6
CONTINUOUS
10
44.2244
20
-77.7639
11
44.1292
21
-77.3829
0
LINE
8
BLACK
6
CONTINUOUS
10
44.1292
20
-77.3829
11
44.1292
21
-76.9067
0
LINE
8
BLACK
6
CONTINUOUS
10
44.1292
20
-76.9067
11
44.2244
21
-76.5258
0
LINE
8
BLACK
6
CONTINUOUS
10
44.2244
20
-76.5258
11
44.3197
21
-76.3353
0
LINE
8
BLACK
6
CONTINUOUS
10
44.3197
20
-76.3353
11
44.4149
21
-76.2401
0
LINE
8
BLACK
6
CONTINUOUS
10
44.4149
20
-76.2401
11
44.6054
21
-76.1448
0
LINE
8
BLACK
6
CONTINUOUS
10
46.1292
20
-78.1448
11
46.1292
21
-76.8115
0
LINE
8
BLACK
6
CONTINUOUS
10
46.1292
20
-77.002
11
46.2244
21
-76.9067
0
LINE
8
BLACK
6
CONTINUOUS
10
46.2244
20
-76.9067
11
46.4149
21
-76.8115
0
LINE
8
BLACK
6
CONTINUOUS
10
46.4149
20
-76.8115
11
46.7006
21
-76.8115
0
LINE
8
BLACK
6
CONTINUOUS
10
46.7006
20
-76.8115
11
46.8911
21
-76.9067
0
LINE
8
BLACK
6
CONTINUOUS
10
46.8911
20
-76.9067
11
46.9863
21
-77.0972
0
LINE
8
BLACK
6
CONTINUOUS
10
46.9863
20
-77.0972
11
46.9863
21
-78.1448
0
LINE
8
BLACK
6
CONTINUOUS
10
46.9863
20
-77.0972
11
47.0816
21
-76.9067
0
LINE
8
BLACK
6
CONTINUOUS
10
47.0816
20
-76.9067
11
47.2721
21
-76.8115
0
LINE
8
BLACK
6
CONTINUOUS
10
47.2721
20
-76.8115
11
47.5578
21
-76.8115
0
LINE
8
BLACK
6
CONTINUOUS
10
47.5578
20
-76.8115
11
47.7482
21
-76.9067
0
LINE
8
BLACK
6
CONTINUOUS
10
47.7482
20
-76.9067
11
47.8435
21
-77.0972
0
LINE
8
BLACK
6
CONTINUOUS
10
47.8435
20
-77.0972
11
47.8435
21
-78.1448
0
LINE
8
BLACK
6
CONTINUOUS
10
48.7959
20
-78.1448
11
48.7959
21
-76.8115
0
LINE
8
BLACK
6
CONTINUOUS
10
48.7959
20
-77.002
11
48.8911
21
-76.9067
0
LINE
8
BLACK
6
CONTINUOUS
10
48.8911
20
-76.9067
11
49.0816
21
-76.8115
0
LINE
8
BLACK
6
CONTINUOUS
10
49.0816
20
-76.8115
11
49.3673
21
-76.8115
0
LINE
8
BLACK
6
CONTINUOUS
10
49.3673
20
-76.8115
11
49.5578
21
-76.9067
0
LINE
8
BLACK
6
CONTINUOUS
10
49.5578
20
-76.9067
11
49.653
21
-77.0972
0
LINE
8
BLACK
6
CONTINUOUS
10
49.653
20
-77.0972
11
49.653
21
-78.1448
0
LINE
8
BLACK
6
CONTINUOUS
10
49.653
20
-77.0972
11
49.7482
21
-76.9067
0
LINE
8
BLACK
6
CONTINUOUS
10
49.7482
20
-76.9067
11
49.9387
21
-76.8115
0
LINE
8
BLACK
6
CONTINUOUS
10
49.9387
20
-76.8115
11
50.2244
21
-76.8115
0
LINE
8
BLACK
6
CONTINUOUS
10
50.2244
20
-76.8115
11
50.4149
21
-76.9067
0
LINE
8
BLACK
6
CONTINUOUS
10
50.4149
20
-76.9067
11
50.5101
21
-77.0972
0
LINE
8
BLACK
6
CONTINUOUS
10
50.5101
20
-77.0972
11
50.5101
21
-78.1448
0
LINE
8
BLACK
6
CONTINUOUS
10
54.4149
20
-76.0496
11
52.7006
21
-78.621
0
LINE
8
BLACK
6
CONTINUOUS
10
56.9863
20
-76.1448
11
57.1768
21
-76.1448
0
LINE
8
BLACK
6
CONTINUOUS
10
57.1768
20
-76.1448
11
57.3673
21
-76.2401
0
LINE
8
BLACK
6
CONTINUOUS
10
57.3673
20
-76.2401
11
57.4625
21
-76.3353
0
LINE
8
BLACK
6
CONTINUOUS
10
57.4625
20
-76.3353
11
57.5578
21
-76.5258
0
LINE
8
BLACK
6
CONTINUOUS
10
57.5578
20
-76.5258
11
57.653
21
-76.9067
0
LINE
8
BLACK
6
CONTINUOUS
10
57.653
20
-76.9067
11
57.653
21
-77.3829
0
LINE
8
BLACK
6
CONTINUOUS
10
57.653
20
-77.3829
11
57.5578
21
-77.7639
0
LINE
8
BLACK
6
CONTINUOUS
10
57.5578
20
-77.7639
11
57.4625
21
-77.9544
0
LINE
8
BLACK
6
CONTINUOUS
10
57.4625
20
-77.9544
11
57.3673
21
-78.0496
0
LINE
8
BLACK
6
CONTINUOUS
10
57.3673
20
-78.0496
11
57.1768
21
-78.1448
0
LINE
8
BLACK
6
CONTINUOUS
10
57.1768
20
-78.1448
11
56.9863
21
-78.1448
0
LINE
8
BLACK
6
CONTINUOUS
10
56.9863
20
-78.1448
11
56.7959
21
-78.0496
0
LINE
8
BLACK
6
CONTINUOUS
10
56.7959
20
-78.0496
11
56.7006
21
-77.9544
0
LINE
8
BLACK
6
CONTINUOUS
10
56.7006
20
-77.9544
11
56.6054
21
-77.7639
0
LINE
8
BLACK
6
CONTINUOUS
10
56.6054
20
-77.7639
11
56.5102
21
-77.3829
0
LINE
8
BLACK
6
CONTINUOUS
10
56.5102
20
-77.3829
11
56.5102
21
-76.9067
0
LINE
8
BLACK
6
CONTINUOUS
10
56.5102
20
-76.9067
11
56.6054
21
-76.5258
0
LINE
8
BLACK
6
CONTINUOUS
10
56.6054
20
-76.5258
11
56.7006
21
-76.3353
0
LINE
8
BLACK
6
CONTINUOUS
10
56.7006
20
-76.3353
11
56.7959
21
-76.2401
0
LINE
8
BLACK
6
CONTINUOUS
10
56.7959
20
-76.2401
11
56.9863
21
-76.1448
0
LINE
8
BLACK
6
CONTINUOUS
10
58.5102
20
-77.9544
11
58.6054
21
-78.0496
0
LINE
8
BLACK
6
CONTINUOUS
10
58.6054
20
-78.0496
11
58.5102
21
-78.1448
0
LINE
8
BLACK
6
CONTINUOUS
10
58.5102
20
-78.1448
11
58.4149
21
-78.0496
0
LINE
8
BLACK
6
CONTINUOUS
10
58.4149
20
-78.0496
11
58.5102
21
-77.9544
0
LINE
8
BLACK
6
CONTINUOUS
10
58.5102
20
-77.9544
11
58.5102
21
-78.1448
0
LINE
8
BLACK
6
CONTINUOUS
10
59.8435
20
-76.1448
11
60.034
21
-76.1448
0
LINE
8
BLACK
6
CONTINUOUS
10
60.034
20
-76.1448
11
60.2244
21
-76.2401
0
LINE
8
BLACK
6
CONTINUOUS
10
60.2244
20
-76.2401
11
60.3197
21
-76.3353
0
LINE
8
BLACK
6
CONTINUOUS
10
60.3197
20
-76.3353
11
60.4149
21
-76.5258
0
LINE
8
BLACK
6
CONTINUOUS
10
60.4149
20
-76.5258
11
60.5102
21
-76.9067
0
LINE
8
BLACK
6
CONTINUOUS
10
60.5102
20
-76.9067
11
60.5102
21
-77.3829
0
LINE
8
BLACK
6
CONTINUOUS
10
60.5102
20
-77.3829
11
60.4149
21
-77.7639
0
LINE
8
BLACK
6
CONTINUOUS
10
60.4149
20
-77.7639
11
60.3197
21
-77.9544
0
LINE
8
BLACK
6
CONTINUOUS
10
60.3197
20
-77.9544
11
60.2244
21
-78.0496
0
LINE
8
BLACK
6
CONTINUOUS
10
60.2244
20
-78.0496
11
60.034
21
-78.1448
0
LINE
8
BLACK
6
CONTINUOUS
10
60.034
20
-78.1448
11
59.8435
21
-78.1448
0
LINE
8
BLACK
6
CONTINUOUS
10
59.8435
20
-78.1448
11
59.653
21
-78.0496
0
LINE
8
BLACK
6
CONTINUOUS
10
59.653
20
-78.0496
11
59.5578
21
-77.9544
0
LINE
8
BLACK
6
CONTINUOUS
10
59.5578
20
-77.9544
11
59.4625
21
-77.7639
0
LINE
8
BLACK
6
CONTINUOUS
10
59.4625
20
-77.7639
11
59.3673
21
-77.3829
0
LINE
8
BLACK
6
CONTINUOUS
10
59.3673
20
-77.3829
11
59.3673
21
-76.9067
0
LINE
8
BLACK
6
CONTINUOUS
10
59.3673
20
-76.9067
11
59.4625
21
-76.5258
0
LINE
8
BLACK
6
CONTINUOUS
10
59.4625
20
-76.5258
11
59.5578
21
-76.3353
0
LINE
8
BLACK
6
CONTINUOUS
10
59.5578
20
-76.3353
11
59.653
21
-76.2401
0
LINE
8
BLACK
6
CONTINUOUS
10
59.653
20
-76.2401
11
59.8435
21
-76.1448
0
LINE
8
BLACK
6
CONTINUOUS
10
61.1768
20
-76.1448
11
62.4149
21
-76.1448
0
LINE
8
BLACK
6
CONTINUOUS
10
62.4149
20
-76.1448
11
61.7482
21
-76.9067
0
LINE
8
BLACK
6
CONTINUOUS
10
61.7482
20
-76.9067
11
62.034
21
-76.9067
0
LINE
8
BLACK
6
CONTINUOUS
10
62.034
20
-76.9067
11
62.2244
21
-77.002
0
LINE
8
BLACK
6
CONTINUOUS
10
62.2244
20
-77.002
11
62.3197
21
-77.0972
0
LINE
8
BLACK
6
CONTINUOUS
10
62.3197
20
-77.0972
11
62.4149
21
-77.2877
0
LINE
8
BLACK
6
CONTINUOUS
10
62.4149
20
-77.2877
11
62.4149
21
-77.7639
0
LINE
8
BLACK
6
CONTINUOUS
10
62.4149
20
-77.7639
11
62.3197
21
-77.9544
0
LINE
8
BLACK
6
CONTINUOUS
10
62.3197
20
-77.9544
11
62.2244
21
-78.0496
0
LINE
8
BLACK
6
CONTINUOUS
10
62.2244
20
-78.0496
11
62.034
21
-78.1448
0
LINE
8
BLACK
6
CONTINUOUS
10
62.034
20
-78.1448
11
61.4625
21
-78.1448
0
LINE
8
BLACK
6
CONTINUOUS
10
61.4625
20
-78.1448
11
61.2721
21
-78.0496
0
LINE
8
BLACK
6
CONTINUOUS
10
61.2721
20
-78.0496
11
61.1768
21
-77.9544
0
LINE
8
BLACK
6
CONTINUOUS
10
63.3673
20
-78.1448
11
63.7482
21
-78.1448
0
LINE
8
BLACK
6
CONTINUOUS
10
63.7482
20
-78.1448
11
63.9387
21
-78.0496
0
LINE
8
BLACK
6
CONTINUOUS
10
63.9387
20
-78.0496
11
64.034
21
-77.9544
0
LINE
8
BLACK
6
CONTINUOUS
10
64.034
20
-77.9544
11
64.2244
21
-77.6686
0
LINE
8
BLACK
6
CONTINUOUS
10
64.2244
20
-77.6686
11
64.3197
21
-77.2877
0
LINE
8
BLACK
6
CONTINUOUS
10
64.3197
20
-77.2877
11
64.3197
21
-76.5258
0
LINE
8
BLACK
6
CONTINUOUS
10
64.3197
20
-76.5258
11
64.2244
21
-76.3353
0
LINE
8
BLACK
6
CONTINUOUS
10
64.2244
20
-76.3353
11
64.1292
21
-76.2401
0
LINE
8
BLACK
6
CONTINUOUS
10
64.1292
20
-76.2401
11
63.9387
21
-76.1448
0
LINE
8
BLACK
6
CONTINUOUS
10
63.9387
20
-76.1448
11
63.5578
21
-76.1448
0
LINE
8
BLACK
6
CONTINUOUS
10
63.5578
20
-76.1448
11
63.3673
21
-76.2401
0
LINE
8
BLACK
6
CONTINUOUS
10
63.3673
20
-76.2401
11
63.2721
21
-76.3353
0
LINE
8
BLACK
6
CONTINUOUS
10
63.2721
20
-76.3353
11
63.1768
21
-76.5258
0
LINE
8
BLACK
6
CONTINUOUS
10
63.1768
20
-76.5258
11
63.1768
21
-77.002
0
LINE
8
BLACK
6
CONTINUOUS
10
63.1768
20
-77.002
11
63.2721
21
-77.1925
0
LINE
8
BLACK
6
CONTINUOUS
10
63.2721
20
-77.1925
11
63.3673
21
-77.2877
0
LINE
8
BLACK
6
CONTINUOUS
10
63.3673
20
-77.2877
11
63.5578
21
-77.3829
0
LINE
8
BLACK
6
CONTINUOUS
10
63.5578
20
-77.3829
11
63.9387
21
-77.3829
0
LINE
8
BLACK
6
CONTINUOUS
10
63.9387
20
-77.3829
11
64.1292
21
-77.2877
0
LINE
8
BLACK
6
CONTINUOUS
10
64.1292
20
-77.2877
11
64.2244
21
-77.1925
0
LINE
8
BLACK
6
CONTINUOUS
10
64.2244
20
-77.1925
11
64.3197
21
-77.002
0
LINE
8
BLACK
6
CONTINUOUS
10
66.034
20
-76.8115
11
66.034
21
-78.1448
0
LINE
8
BLACK
6
CONTINUOUS
10
65.5578
20
-76.0496
11
65.0816
21
-77.4782
0
LINE
8
BLACK
6
CONTINUOUS
10
65.0816
20
-77.4782
11
66.3197
21
-77.4782
0
LINE
8
BLACK
6
CONTINUOUS
10
66.9863
20
-76.1448
11
66.9863
21
-76.5258
0
LINE
8
BLACK
6
CONTINUOUS
10
67.7482
20
-76.1448
11
67.7482
21
-76.5258
0
LINE
8
BLACK
6
CONTINUOUS
10
70.7006
20
-78.9067
11
70.6054
21
-78.8115
0
LINE
8
BLACK
6
CONTINUOUS
10
70.6054
20
-78.8115
11
70.4149
21
-78.5258
0
LINE
8
BLACK
6
CONTINUOUS
10
70.4149
20
-78.5258
11
70.3197
21
-78.3353
0
LINE
8
BLACK
6
CONTINUOUS
10
70.3197
20
-78.3353
11
70.2244
21
-78.0496
0
LINE
8
BLACK
6
CONTINUOUS
10
70.2244
20
-78.0496
11
70.1292
21
-77.5734
0
LINE
8
BLACK
6
CONTINUOUS
10
70.1292
20
-77.5734
11
70.1292
21
-77.1925
0
LINE
8
BLACK
6
CONTINUOUS
10
70.1292
20
-77.1925
11
70.2244
21
-76.7163
0
LINE
8
BLACK
6
CONTINUOUS
10
70.2244
20
-76.7163
11
70.3197
21
-76.4306
0
LINE
8
BLACK
6
CONTINUOUS
10
70.3197
20
-76.4306
11
70.4149
21
-76.2401
0
LINE
8
BLACK
6
CONTINUOUS
10
70.4149
20
-76.2401
11
70.6054
21
-75.9544
0
LINE
8
BLACK
6
CONTINUOUS
10
70.6054
20
-75.9544
11
70.7006
21
-75.8591
0
LINE
8
BLACK
6
CONTINUOUS
10
72.3197
20
-76.1448
11
71.9387
21
-76.1448
0
LINE
8
BLACK
6
CONTINUOUS
10
71.9387
20
-76.1448
11
71.7482
21
-76.2401
0
LINE
8
BLACK
6
CONTINUOUS
10
71.7482
20
-76.2401
11
71.653
21
-76.3353
0
LINE
8
BLACK
6
CONTINUOUS
10
71.653
20
-76.3353
11
71.4625
21
-76.621
0
LINE
8
BLACK
6
CONTINUOUS
10
71.4625
20
-76.621
11
71.3673
21
-77.002
0
LINE
8
BLACK
6
CONTINUOUS
10
71.3673
20
-77.002
11
71.3673
21
-77.7639
0
LINE
8
BLACK
6
CONTINUOUS
10
71.3673
20
-77.7639
11
71.4625
21
-77.9544
0
LINE
8
BLACK
6
CONTINUOUS
10
71.4625
20
-77.9544
11
71.5578
21
-78.0496
0
LINE
8
BLACK
6
CONTINUOUS
10
71.5578
20
-78.0496
11
71.7482
21
-78.1448
0
LINE
8
BLACK
6
CONTINUOUS
10
71.7482
20
-78.1448
11
72.1292
21
-78.1448
0
LINE
8
BLACK
6
CONTINUOUS
10
72.1292
20
-78.1448
11
72.3197
21
-78.0496
0
LINE
8
BLACK
6
CONTINUOUS
10
72.3197
20
-78.0496
11
72.4149
21
-77.9544
0
LINE
8
BLACK
6
CONTINUOUS
10
72.4149
20
-77.9544
11
72.5102
21
-77.7639
0
LINE
8
BLACK
6
CONTINUOUS
10
72.5102
20
-77.7639
11
72.5102
21
-77.2877
0
LINE
8
BLACK
6
CONTINUOUS
10
72.5102
20
-77.2877
11
72.4149
21
-77.0972
0
LINE
8
BLACK
6
CONTINUOUS
10
72.4149
20
-77.0972
11
72.3197
21
-77.002
0
LINE
8
BLACK
6
CONTINUOUS
10
72.3197
20
-77.002
11
72.1292
21
-76.9067
0
LINE
8
BLACK
6
CONTINUOUS
10
72.1292
20
-76.9067
11
71.7482
21
-76.9067
0
LINE
8
BLACK
6
CONTINUOUS
10
71.7482
20
-76.9067
11
71.5578
21
-77.002
0
LINE
8
BLACK
6
CONTINUOUS
10
71.5578
20
-77.002
11
71.4625
21
-77.0972
0
LINE
8
BLACK
6
CONTINUOUS
10
71.4625
20
-77.0972
11
71.3673
21
-77.2877
0
LINE
8
BLACK
6
CONTINUOUS
10
74.8911
20
-78.1448
11
74.8911
21
-76.1448
0
LINE
8
BLACK
6
CONTINUOUS
10
75.7482
20
-78.1448
11
75.7482
21
-77.0972
0
LINE
8
BLACK
6
CONTINUOUS
10
75.7482
20
-77.0972
11
75.653
21
-76.9067
0
LINE
8
BLACK
6
CONTINUOUS
10
75.653
20
-76.9067
11
75.4625
21
-76.8115
0
LINE
8
BLACK
6
CONTINUOUS
10
75.4625
20
-76.8115
11
75.1768
21
-76.8115
0
LINE
8
BLACK
6
CONTINUOUS
10
75.1768
20
-76.8115
11
74.9863
21
-76.9067
0
LINE
8
BLACK
6
CONTINUOUS
10
74.9863
20
-76.9067
11
74.8911
21
-77.002
0
LINE
8
BLACK
6
CONTINUOUS
10
76.9863
20
-78.1448
11
76.7959
21
-78.0496
0
LINE
8
BLACK
6
CONTINUOUS
10
76.7959
20
-78.0496
11
76.7006
21
-77.9544
0
LINE
8
BLACK
6
CONTINUOUS
10
76.7006
20
-77.9544
11
76.6054
21
-77.7639
0
LINE
8
BLACK
6
CONTINUOUS
10
76.6054
20
-77.7639
11
76.6054
21
-77.1925
0
LINE
8
BLACK
6
CONTINUOUS
10
76.6054
20
-77.1925
11
76.7006
21
-77.002
0
LINE
8
BLACK
6
CONTINUOUS
10
76.7006
20
-77.002
11
76.7959
21
-76.9067
0
LINE
8
BLACK
6
CONTINUOUS
10
76.7959
20
-76.9067
11
76.9863
21
-76.8115
0
LINE
8
BLACK
6
CONTINUOUS
10
76.9863
20
-76.8115
11
77.2721
21
-76.8115
0
LINE
8
BLACK
6
CONTINUOUS
10
77.2721
20
-76.8115
11
77.4625
21
-76.9067
0
LINE
8
BLACK
6
CONTINUOUS
10
77.4625
20
-76.9067
11
77.5578
21
-77.002
0
LINE
8
BLACK
6
CONTINUOUS
10
77.5578
20
-77.002
11
77.653
21
-77.1925
0
LINE
8
BLACK
6
CONTINUOUS
10
77.653
20
-77.1925
11
77.653
21
-77.7639
0
LINE
8
BLACK
6
CONTINUOUS
10
77.653
20
-77.7639
11
77.5578
21
-77.9544
0
LINE
8
BLACK
6
CONTINUOUS
10
77.5578
20
-77.9544
11
77.4625
21
-78.0496
0
LINE
8
BLACK
6
CONTINUOUS
10
77.4625
20
-78.0496
11
77.2721
21
-78.1448
0
LINE
8
BLACK
6
CONTINUOUS
10
77.2721
20
-78.1448
11
76.9863
21
-78.1448
0
LINE
8
BLACK
6
CONTINUOUS
10
78.7959
20
-78.1448
11
78.6054
21
-78.0496
0
LINE
8
BLACK
6
CONTINUOUS
10
78.6054
20
-78.0496
11
78.5102
21
-77.8591
0
LINE
8
BLACK
6
CONTINUOUS
10
78.5102
20
-77.8591
11
78.5102
21
-76.1448
0
LINE
8
BLACK
6
CONTINUOUS
10
80.3197
20
-78.0496
11
80.1292
21
-78.1448
0
LINE
8
BLACK
6
CONTINUOUS
10
80.1292
20
-78.1448
11
79.7482
21
-78.1448
0
LINE
8
BLACK
6
CONTINUOUS
10
79.7482
20
-78.1448
11
79.5578
21
-78.0496
0
LINE
8
BLACK
6
CONTINUOUS
10
79.5578
20
-78.0496
11
79.4625
21
-77.8591
0
LINE
8
BLACK
6
CONTINUOUS
10
79.4625
20
-77.8591
11
79.4625
21
-77.0972
0
LINE
8
BLACK
6
CONTINUOUS
10
79.4625
20
-77.0972
11
79.5578
21
-76.9067
0
LINE
8
BLACK
6
CONTINUOUS
10
79.5578
20
-76.9067
11
79.7482
21
-76.8115
0
LINE
8
BLACK
6
CONTINUOUS
10
79.7482
20
-76.8115
11
80.1292
21
-76.8115
0
LINE
8
BLACK
6
CONTINUOUS
10
80.1292
20
-76.8115
11
80.3197
21
-76.9067
0
LINE
8
BLACK
6
CONTINUOUS
10
80.3197
20
-76.9067
11
80.4149
21
-77.0972
0
LINE
8
BLACK
6
CONTINUOUS
10
80.4149
20
-77.0972
11
80.4149
21
-77.2877
0
LINE
8
BLACK
6
CONTINUOUS
10
80.4149
20
-77.2877
11
79.4625
21
-77.4782
0
LINE
8
BLACK
6
CONTINUOUS
10
81.1768
20
-78.0496
11
81.3673
21
-78.1448
0
LINE
8
BLACK
6
CONTINUOUS
10
81.3673
20
-78.1448
11
81.7482
21
-78.1448
0
LINE
8
BLACK
6
CONTINUOUS
10
81.7482
20
-78.1448
11
81.9387
21
-78.0496
0
LINE
8
BLACK
6
CONTINUOUS
10
81.9387
20
-78.0496
11
82.034
21
-77.8591
0
LINE
8
BLACK
6
CONTINUOUS
10
82.034
20
-77.8591
11
82.034
21
-77.7639
0
LINE
8
BLACK
6
CONTINUOUS
10
82.034
20
-77.7639
11
81.9387
21
-77.5734
0
LINE
8
BLACK
6
CONTINUOUS
10
81.9387
20
-77.5734
11
81.7482
21
-77.4782
0
LINE
8
BLACK
6
CONTINUOUS
10
81.7482
20
-77.4782
11
81.4625
21
-77.4782
0
LINE
8
BLACK
6
CONTINUOUS
10
81.4625
20
-77.4782
11
81.2721
21
-77.3829
0
LINE
8
BLACK
6
CONTINUOUS
10
81.2721
20
-77.3829
11
81.1768
21
-77.1925
0
LINE
8
BLACK
6
CONTINUOUS
10
81.1768
20
-77.1925
11
81.1768
21
-77.0972
0
LINE
8
BLACK
6
CONTINUOUS
10
81.1768
20
-77.0972
11
81.2721
21
-76.9067
0
LINE
8
BLACK
6
CONTINUOUS
10
81.2721
20
-76.9067
11
81.4625
21
-76.8115
0
LINE
8
BLACK
6
CONTINUOUS
10
81.4625
20
-76.8115
11
81.7482
21
-76.8115
0
LINE
8
BLACK
6
CONTINUOUS
10
81.7482
20
-76.8115
11
81.9387
21
-76.9067
0
LINE
8
BLACK
6
CONTINUOUS
10
82.7006
20
-78.9067
11
82.7959
21
-78.8115
0
LINE
8
BLACK
6
CONTINUOUS
10
82.7959
20
-78.8115
11
82.9863
21
-78.5258
0
LINE
8
BLACK
6
CONTINUOUS
10
82.9863
20
-78.5258
11
83.0816
21
-78.3353
0
LINE
8
BLACK
6
CONTINUOUS
10
83.0816
20
-78.3353
11
83.1768
21
-78.0496
0
LINE
8
BLACK
6
CONTINUOUS
10
83.1768
20
-78.0496
11
83.2721
21
-77.5734
0
LINE
8
BLACK
6
CONTINUOUS
10
83.2721
20
-77.5734
11
83.2721
21
-77.1925
0
LINE
8
BLACK
6
CONTINUOUS
10
83.2721
20
-77.1925
11
83.1768
21
-76.7163
0
LINE
8
BLACK
6
CONTINUOUS
10
83.1768
20
-76.7163
11
83.0816
21
-76.4306
0
LINE
8
BLACK
6
CONTINUOUS
10
83.0816
20
-76.4306
11
82.9863
21
-76.2401
0
LINE
8
BLACK
6
CONTINUOUS
10
82.9863
20
-76.2401
11
82.7959
21
-75.9544
0
LINE
8
BLACK
6
CONTINUOUS
10
82.7959
20
-75.9544
11
82.7006
21
-75.8591
0
LINE
8
BLACK
6
CONTINUOUS
10
34.6571
20
-80.5771
11
34.6571
21
-79.1629
0
LINE
8
BLACK
6
CONTINUOUS
10
34.6571
20
-79.1629
11
33.2429
21
-79.1629
0
LINE
8
BLACK
6
CONTINUOUS
10
33.2429
20
-79.1629
11
33.2429
21
-80.5771
0
LINE
8
BLACK
6
CONTINUOUS
10
33.2429
20
-80.5771
11
34.6571
21
-80.5771
0
LINE
8
BLACK
6
CONTINUOUS
10
37.4625
20
-78.9753
11
37.5578
21
-78.8801
0
LINE
8
BLACK
6
CONTINUOUS
10
37.5578
20
-78.8801
11
37.7482
21
-78.7848
0
LINE
8
BLACK
6
CONTINUOUS
10
37.7482
20
-78.7848
11
38.2244
21
-78.7848
0
LINE
8
BLACK
6
CONTINUOUS
10
38.2244
20
-78.7848
11
38.4149
21
-78.8801
0
LINE
8
BLACK
6
CONTINUOUS
10
38.4149
20
-78.8801
11
38.5101
21
-78.9753
0
LINE
8
BLACK
6
CONTINUOUS
10
38.5101
20
-78.9753
11
38.6054
21
-79.1658
0
LINE
8
BLACK
6
CONTINUOUS
10
38.6054
20
-79.1658
11
38.6054
21
-79.3563
0
LINE
8
BLACK
6
CONTINUOUS
10
38.6054
20
-79.3563
11
38.5101
21
-79.642
0
LINE
8
BLACK
6
CONTINUOUS
10
38.5101
20
-79.642
11
37.3673
21
-80.7848
0
LINE
8
BLACK
6
CONTINUOUS
10
37.3673
20
-80.7848
11
38.6054
21
-80.7848
0
LINE
8
BLACK
6
CONTINUOUS
10
39.4625
20
-80.5944
11
39.5578
21
-80.6896
0
LINE
8
BLACK
6
CONTINUOUS
10
39.5578
20
-80.6896
11
39.4625
21
-80.7848
0
LINE
8
BLACK
6
CONTINUOUS
10
39.4625
20
-80.7848
11
39.3673
21
-80.6896
0
LINE
8
BLACK
6
CONTINUOUS
10
39.3673
20
-80.6896
11
39.4625
21
-80.5944
0
LINE
8
BLACK
6
CONTINUOUS
10
39.4625
20
-80.5944
11
39.4625
21
-80.7848
0
LINE
8
BLACK
6
CONTINUOUS
10
40.2244
20
-78.7848
11
41.5578
21
-78.7848
0
LINE
8
BLACK
6
CONTINUOUS
10
41.5578
20
-78.7848
11
40.7006
21
-80.7848
0
LINE
8
BLACK
6
CONTINUOUS
10
42.7006
20
-78.7848
11
42.8911
21
-78.7848
0
LINE
8
BLACK
6
CONTINUOUS
10
42.8911
20
-78.7848
11
43.0816
21
-78.8801
0
LINE
8
BLACK
6
CONTINUOUS
10
43.0816
20
-78.8801
11
43.1768
21
-78.9753
0
LINE
8
BLACK
6
CONTINUOUS
10
43.1768
20
-78.9753
11
43.2721
21
-79.1658
0
LINE
8
BLACK
6
CONTINUOUS
10
43.2721
20
-79.1658
11
43.3673
21
-79.5467
0
LINE
8
BLACK
6
CONTINUOUS
10
43.3673
20
-79.5467
11
43.3673
21
-80.0229
0
LINE
8
BLACK
6
CONTINUOUS
10
43.3673
20
-80.0229
11
43.2721
21
-80.4039
0
LINE
8
BLACK
6
CONTINUOUS
10
43.2721
20
-80.4039
11
43.1768
21
-80.5944
0
LINE
8
BLACK
6
CONTINUOUS
10
43.1768
20
-80.5944
11
43.0816
21
-80.6896
0
LINE
8
BLACK
6
CONTINUOUS
10
43.0816
20
-80.6896
11
42.8911
21
-80.7848
0
LINE
8
BLACK
6
CONTINUOUS
10
42.8911
20
-80.7848
11
42.7006
21
-80.7848
0
LINE
8
BLACK
6
CONTINUOUS
10
42.7006
20
-80.7848
11
42.5101
21
-80.6896
0
LINE
8
BLACK
6
CONTINUOUS
10
42.5101
20
-80.6896
11
42.4149
21
-80.5944
0
LINE
8
BLACK
6
CONTINUOUS
10
42.4149
20
-80.5944
11
42.3197
21
-80.4039
0
LINE
8
BLACK
6
CONTINUOUS
10
42.3197
20
-80.4039
11
42.2244
21
-80.0229
0
LINE
8
BLACK
6
CONTINUOUS
10
42.2244
20
-80.0229
11
42.2244
21
-79.5467
0
LINE
8
BLACK
6
CONTINUOUS
10
42.2244
20
-79.5467
11
42.3197
21
-79.1658
0
LINE
8
BLACK
6
CONTINUOUS
10
42.3197
20
-79.1658
11
42.4149
21
-78.9753
0
LINE
8
BLACK
6
CONTINUOUS
10
42.4149
20
-78.9753
11
42.5101
21
-78.8801
0
LINE
8
BLACK
6
CONTINUOUS
10
42.5101
20
-78.8801
11
42.7006
21
-78.7848
0
LINE
8
BLACK
6
CONTINUOUS
10
44.6054
20
-78.7848
11
44.7959
21
-78.7848
0
LINE
8
BLACK
6
CONTINUOUS
10
44.7959
20
-78.7848
11
44.9863
21
-78.8801
0
LINE
8
BLACK
6
CONTINUOUS
10
44.9863
20
-78.8801
11
45.0816
21
-78.9753
0
LINE
8
BLACK
6
CONTINUOUS
10
45.0816
20
-78.9753
11
45.1768
21
-79.1658
0
LINE
8
BLACK
6
CONTINUOUS
10
45.1768
20
-79.1658
11
45.2721
21
-79.5467
0
LINE
8
BLACK
6
CONTINUOUS
10
45.2721
20
-79.5467
11
45.2721
21
-80.0229
0
LINE
8
BLACK
6
CONTINUOUS
10
45.2721
20
-80.0229
11
45.1768
21
-80.4039
0
LINE
8
BLACK
6
CONTINUOUS
10
45.1768
20
-80.4039
11
45.0816
21
-80.5944
0
LINE
8
BLACK
6
CONTINUOUS
10
45.0816
20
-80.5944
11
44.9863
21
-80.6896
0
LINE
8
BLACK
6
CONTINUOUS
10
44.9863
20
-80.6896
11
44.7959
21
-80.7848
0
LINE
8
BLACK
6
CONTINUOUS
10
44.7959
20
-80.7848
11
44.6054
21
-80.7848
0
LINE
8
BLACK
6
CONTINUOUS
10
44.6054
20
-80.7848
11
44.4149
21
-80.6896
0
LINE
8
BLACK
6
CONTINUOUS
10
44.4149
20
-80.6896
11
44.3197
21
-80.5944
0
LINE
8
BLACK
6
CONTINUOUS
10
44.3197
20
-80.5944
11
44.2244
21
-80.4039
0
LINE
8
BLACK
6
CONTINUOUS
10
44.2244
20
-80.4039
11
44.1292
21
-80.0229
0
LINE
8
BLACK
6
CONTINUOUS
10
44.1292
20
-80.0229
11
44.1292
21
-79.5467
0
LINE
8
BLACK
6
CONTINUOUS
10
44.1292
20
-79.5467
11
44.2244
21
-79.1658
0
LINE
8
BLACK
6
CONTINUOUS
10
44.2244
20
-79.1658
11
44.3197
21
-78.9753
0
LINE
8
BLACK
6
CONTINUOUS
10
44.3197
20
-78.9753
11
44.4149
21
-78.8801
0
LINE
8
BLACK
6
CONTINUOUS
10
44.4149
20
-78.8801
11
44.6054
21
-78.7848
0
LINE
8
BLACK
6
CONTINUOUS
10
46.1292
20
-80.7848
11
46.1292
21
-79.4515
0
LINE
8
BLACK
6
CONTINUOUS
10
46.1292
20
-79.642
11
46.2244
21
-79.5467
0
LINE
8
BLACK
6
CONTINUOUS
10
46.2244
20
-79.5467
11
46.4149
21
-79.4515
0
LINE
8
BLACK
6
CONTINUOUS
10
46.4149
20
-79.4515
11
46.7006
21
-79.4515
0
LINE
8
BLACK
6
CONTINUOUS
10
46.7006
20
-79.4515
11
46.8911
21
-79.5467
0
LINE
8
BLACK
6
CONTINUOUS
10
46.8911
20
-79.5467
11
46.9863
21
-79.7372
0
LINE
8
BLACK
6
CONTINUOUS
10
46.9863
20
-79.7372
11
46.9863
21
-80.7848
0
LINE
8
BLACK
6
CONTINUOUS
10
46.9863
20
-79.7372
11
47.0816
21
-79.5467
0
LINE
8
BLACK
6
CONTINUOUS
10
47.0816
20
-79.5467
11
47.2721
21
-79.4515
0
LINE
8
BLACK
6
CONTINUOUS
10
47.2721
20
-79.4515
11
47.5578
21
-79.4515
0
LINE
8
BLACK
6
CONTINUOUS
10
47.5578
20
-79.4515
11
47.7482
21
-79.5467
0
LINE
8
BLACK
6
CONTINUOUS
10
47.7482
20
-79.5467
11
47.8435
21
-79.7372
0
LINE
8
BLACK
6
CONTINUOUS
10
47.8435
20
-79.7372
11
47.8435
21
-80.7848
0
LINE
8
BLACK
6
CONTINUOUS
10
48.7959
20
-80.7848
11
48.7959
21
-79.4515
0
LINE
8
BLACK
6
CONTINUOUS
10
48.7959
20
-79.642
11
48.8911
21
-79.5467
0
LINE
8
BLACK
6
CONTINUOUS
10
48.8911
20
-79.5467
11
49.0816
21
-79.4515
0
LINE
8
BLACK
6
CONTINUOUS
10
49.0816
20
-79.4515
11
49.3673
21
-79.4515
0
LINE
8
BLACK
6
CONTINUOUS
10
49.3673
20
-79.4515
11
49.5578
21
-79.5467
0
LINE
8
BLACK
6
CONTINUOUS
10
49.5578
20
-79.5467
11
49.653
21
-79.7372
0
LINE
8
BLACK
6
CONTINUOUS
10
49.653
20
-79.7372
11
49.653
21
-80.7848
0
LINE
8
BLACK
6
CONTINUOUS
10
49.653
20
-79.7372
11
49.7482
21
-79.5467
0
LINE
8
BLACK
6
CONTINUOUS
10
49.7482
20
-79.5467
11
49.9387
21
-79.4515
0
LINE
8
BLACK
6
CONTINUOUS
10
49.9387
20
-79.4515
11
50.2244
21
-79.4515
0
LINE
8
BLACK
6
CONTINUOUS
10
50.2244
20
-79.4515
11
50.4149
21
-79.5467
0
LINE
8
BLACK
6
CONTINUOUS
10
50.4149
20
-79.5467
11
50.5101
21
-79.7372
0
LINE
8
BLACK
6
CONTINUOUS
10
50.5101
20
-79.7372
11
50.5101
21
-80.7848
0
LINE
8
BLACK
6
CONTINUOUS
10
54.4149
20
-78.6896
11
52.7006
21
-81.261
0
LINE
8
BLACK
6
CONTINUOUS
10
56.9863
20
-78.7848
11
57.1768
21
-78.7848
0
LINE
8
BLACK
6
CONTINUOUS
10
57.1768
20
-78.7848
11
57.3673
21
-78.8801
0
LINE
8
BLACK
6
CONTINUOUS
10
57.3673
20
-78.8801
11
57.4625
21
-78.9753
0
LINE
8
BLACK
6
CONTINUOUS
10
57.4625
20
-78.9753
11
57.5578
21
-79.1658
0
LINE
8
BLACK
6
CONTINUOUS
10
57.5578
20
-79.1658
11
57.653
21
-79.5467
0
LINE
8
BLACK
6
CONTINUOUS
10
57.653
20
-79.5467
11
57.653
21
-80.0229
0
LINE
8
BLACK
6
CONTINUOUS
10
57.653
20
-80.0229
11
57.5578
21
-80.4039
0
LINE
8
BLACK
6
CONTINUOUS
10
57.5578
20
-80.4039
11
57.4625
21
-80.5944
0
LINE
8
BLACK
6
CONTINUOUS
10
57.4625
20
-80.5944
11
57.3673
21
-80.6896
0
LINE
8
BLACK
6
CONTINUOUS
10
57.3673
20
-80.6896
11
57.1768
21
-80.7848
0
LINE
8
BLACK
6
CONTINUOUS
10
57.1768
20
-80.7848
11
56.9863
21
-80.7848
0
LINE
8
BLACK
6
CONTINUOUS
10
56.9863
20
-80.7848
11
56.7959
21
-80.6896
0
LINE
8
BLACK
6
CONTINUOUS
10
56.7959
20
-80.6896
11
56.7006
21
-80.5944
0
LINE
8
BLACK
6
CONTINUOUS
10
56.7006
20
-80.5944
11
56.6054
21
-80.4039
0
LINE
8
BLACK
6
CONTINUOUS
10
56.6054
20
-80.4039
11
56.5102
21
-80.0229
0
LINE
8
BLACK
6
CONTINUOUS
10
56.5102
20
-80.0229
11
56.5102
21
-79.5467
0
LINE
8
BLACK
6
CONTINUOUS
10
56.5102
20
-79.5467
11
56.6054
21
-79.1658
0
LINE
8
BLACK
6
CONTINUOUS
10
56.6054
20
-79.1658
11
56.7006
21
-78.9753
0
LINE
8
BLACK
6
CONTINUOUS
10
56.7006
20
-78.9753
11
56.7959
21
-78.8801
0
LINE
8
BLACK
6
CONTINUOUS
10
56.7959
20
-78.8801
11
56.9863
21
-78.7848
0
LINE
8
BLACK
6
CONTINUOUS
10
58.5102
20
-80.5944
11
58.6054
21
-80.6896
0
LINE
8
BLACK
6
CONTINUOUS
10
58.6054
20
-80.6896
11
58.5102
21
-80.7848
0
LINE
8
BLACK
6
CONTINUOUS
10
58.5102
20
-80.7848
11
58.4149
21
-80.6896
0
LINE
8
BLACK
6
CONTINUOUS
10
58.4149
20
-80.6896
11
58.5102
21
-80.5944
0
LINE
8
BLACK
6
CONTINUOUS
10
58.5102
20
-80.5944
11
58.5102
21
-80.7848
0
LINE
8
BLACK
6
CONTINUOUS
10
60.5102
20
-80.7848
11
59.3673
21
-80.7848
0
LINE
8
BLACK
6
CONTINUOUS
10
59.9387
20
-80.7848
11
59.9387
21
-78.7848
0
LINE
8
BLACK
6
CONTINUOUS
10
59.9387
20
-78.7848
11
59.7482
21
-79.0706
0
LINE
8
BLACK
6
CONTINUOUS
10
59.7482
20
-79.0706
11
59.5578
21
-79.261
0
LINE
8
BLACK
6
CONTINUOUS
10
59.5578
20
-79.261
11
59.3673
21
-79.3563
0
LINE
8
BLACK
6
CONTINUOUS
10
61.7482
20
-78.7848
11
61.9387
21
-78.7848
0
LINE
8
BLACK
6
CONTINUOUS
10
61.9387
20
-78.7848
11
62.1292
21
-78.8801
0
LINE
8
BLACK
6
CONTINUOUS
10
62.1292
20
-78.8801
11
62.2244
21
-78.9753
0
LINE
8
BLACK
6
CONTINUOUS
10
62.2244
20
-78.9753
11
62.3197
21
-79.1658
0
LINE
8
BLACK
6
CONTINUOUS
10
62.3197
20
-79.1658
11
62.4149
21
-79.5467
0
LINE
8
BLACK
6
CONTINUOUS
10
62.4149
20
-79.5467
11
62.4149
21
-80.0229
0
LINE
8
BLACK
6
CONTINUOUS
10
62.4149
20
-80.0229
11
62.3197
21
-80.4039
0
LINE
8
BLACK
6
CONTINUOUS
10
62.3197
20
-80.4039
11
62.2244
21
-80.5944
0
LINE
8
BLACK
6
CONTINUOUS
10
62.2244
20
-80.5944
11
62.1292
21
-80.6896
0
LINE
8
BLACK
6
CONTINUOUS
10
62.1292
20
-80.6896
11
61.9387
21
-80.7848
0
LINE
8
BLACK
6
CONTINUOUS
10
61.9387
20
-80.7848
11
61.7482
21
-80.7848
0
LINE
8
BLACK
6
CONTINUOUS
10
61.7482
20
-80.7848
11
61.5578
21
-80.6896
0
LINE
8
BLACK
6
CONTINUOUS
10
61.5578
20
-80.6896
11
61.4625
21
-80.5944
0
LINE
8
BLACK
6
CONTINUOUS
10
61.4625
20
-80.5944
11
61.3673
21
-80.4039
0
LINE
8
BLACK
6
CONTINUOUS
10
61.3673
20
-80.4039
11
61.2721
21
-80.0229
0
LINE
8
BLACK
6
CONTINUOUS
10
61.2721
20
-80.0229
11
61.2721
21
-79.5467
0
LINE
8
BLACK
6
CONTINUOUS
10
61.2721
20
-79.5467
11
61.3673
21
-79.1658
0
LINE
8
BLACK
6
CONTINUOUS
10
61.3673
20
-79.1658
11
61.4625
21
-78.9753
0
LINE
8
BLACK
6
CONTINUOUS
10
61.4625
20
-78.9753
11
61.5578
21
-78.8801
0
LINE
8
BLACK
6
CONTINUOUS
10
61.5578
20
-78.8801
11
61.7482
21
-78.7848
0
LINE
8
BLACK
6
CONTINUOUS
10
64.1292
20
-78.7848
11
63.7482
21
-78.7848
0
LINE
8
BLACK
6
CONTINUOUS
10
63.7482
20
-78.7848
11
63.5578
21
-78.8801
0
LINE
8
BLACK
6
CONTINUOUS
10
63.5578
20
-78.8801
11
63.4625
21
-78.9753
0
LINE
8
BLACK
6
CONTINUOUS
10
63.4625
20
-78.9753
11
63.2721
21
-79.261
0
LINE
8
BLACK
6
CONTINUOUS
10
63.2721
20
-79.261
11
63.1768
21
-79.642
0
LINE
8
BLACK
6
CONTINUOUS
10
63.1768
20
-79.642
11
63.1768
21
-80.4039
0
LINE
8
BLACK
6
CONTINUOUS
10
63.1768
20
-80.4039
11
63.2721
21
-80.5944
0
LINE
8
BLACK
6
CONTINUOUS
10
63.2721
20
-80.5944
11
63.3673
21
-80.6896
0
LINE
8
BLACK
6
CONTINUOUS
10
63.3673
20
-80.6896
11
63.5578
21
-80.7848
0
LINE
8
BLACK
6
CONTINUOUS
10
63.5578
20
-80.7848
11
63.9387
21
-80.7848
0
LINE
8
BLACK
6
CONTINUOUS
10
63.9387
20
-80.7848
11
64.1292
21
-80.6896
0
LINE
8
BLACK
6
CONTINUOUS
10
64.1292
20
-80.6896
11
64.2244
21
-80.5944
0
LINE
8
BLACK
6
CONTINUOUS
10
64.2244
20
-80.5944
11
64.3197
21
-80.4039
0
LINE
8
BLACK
6
CONTINUOUS
10
64.3197
20
-80.4039
11
64.3197
21
-79.9277
0
LINE
8
BLACK
6
CONTINUOUS
10
64.3197
20
-79.9277
11
64.2244
21
-79.7372
0
LINE
8
BLACK
6
CONTINUOUS
10
64.2244
20
-79.7372
11
64.1292
21
-79.642
0
LINE
8
BLACK
6
CONTINUOUS
10
64.1292
20
-79.642
11
63.9387
21
-79.5467
0
LINE
8
BLACK
6
CONTINUOUS
10
63.9387
20
-79.5467
11
63.5578
21
-79.5467
0
LINE
8
BLACK
6
CONTINUOUS
10
63.5578
20
-79.5467
11
63.3673
21
-79.642
0
LINE
8
BLACK
6
CONTINUOUS
10
63.3673
20
-79.642
11
63.2721
21
-79.7372
0
LINE
8
BLACK
6
CONTINUOUS
10
63.2721
20
-79.7372
11
63.1768
21
-79.9277
0
LINE
8
BLACK
6
CONTINUOUS
10
64.9863
20
-78.7848
11
66.2244
21
-78.7848
0
LINE
8
BLACK
6
CONTINUOUS
10
66.2244
20
-78.7848
11
65.5578
21
-79.5467
0
LINE
8
BLACK
6
CONTINUOUS
10
65.5578
20
-79.5467
11
65.8435
21
-79.5467
0
LINE
8
BLACK
6
CONTINUOUS
10
65.8435
20
-79.5467
11
66.034
21
-79.642
0
LINE
8
BLACK
6
CONTINUOUS
10
66.034
20
-79.642
11
66.1292
21
-79.7372
0
LINE
8
BLACK
6
CONTINUOUS
10
66.1292
20
-79.7372
11
66.2244
21
-79.9277
0
LINE
8
BLACK
6
CONTINUOUS
10
66.2244
20
-79.9277
11
66.2244
21
-80.4039
0
LINE
8
BLACK
6
CONTINUOUS
10
66.2244
20
-80.4039
11
66.1292
21
-80.5944
0
LINE
8
BLACK
6
CONTINUOUS
10
66.1292
20
-80.5944
11
66.034
21
-80.6896
0
LINE
8
BLACK
6
CONTINUOUS
10
66.034
20
-80.6896
11
65.8435
21
-80.7848
0
LINE
8
BLACK
6
CONTINUOUS
10
65.8435
20
-80.7848
11
65.2721
21
-80.7848
0
LINE
8
BLACK
6
CONTINUOUS
10
65.2721
20
-80.7848
11
65.0816
21
-80.6896
0
LINE
8
BLACK
6
CONTINUOUS
10
65.0816
20
-80.6896
11
64.9863
21
-80.5944
0
LINE
8
BLACK
6
CONTINUOUS
10
66.9863
20
-78.7848
11
66.9863
21
-79.1658
0
LINE
8
BLACK
6
CONTINUOUS
10
67.7482
20
-78.7848
11
67.7482
21
-79.1658
0
LINE
8
BLACK
6
CONTINUOUS
10
70.7006
20
-81.5467
11
70.6054
21
-81.4515
0
LINE
8
BLACK
6
CONTINUOUS
10
70.6054
20
-81.4515
11
70.4149
21
-81.1658
0
LINE
8
BLACK
6
CONTINUOUS
10
70.4149
20
-81.1658
11
70.3197
21
-80.9753
0
LINE
8
BLACK
6
CONTINUOUS
10
70.3197
20
-80.9753
11
70.2244
21
-80.6896
0
LINE
8
BLACK
6
CONTINUOUS
10
70.2244
20
-80.6896
11
70.1292
21
-80.2134
0
LINE
8
BLACK
6
CONTINUOUS
10
70.1292
20
-80.2134
11
70.1292
21
-79.8325
0
LINE
8
BLACK
6
CONTINUOUS
10
70.1292
20
-79.8325
11
70.2244
21
-79.3563
0
LINE
8
BLACK
6
CONTINUOUS
10
70.2244
20
-79.3563
11
70.3197
21
-79.0706
0
LINE
8
BLACK
6
CONTINUOUS
10
70.3197
20
-79.0706
11
70.4149
21
-78.8801
0
LINE
8
BLACK
6
CONTINUOUS
10
70.4149
20
-78.8801
11
70.6054
21
-78.5944
0
LINE
8
BLACK
6
CONTINUOUS
10
70.6054
20
-78.5944
11
70.7006
21
-78.4991
0
LINE
8
BLACK
6
CONTINUOUS
10
72.3197
20
-79.4515
11
72.3197
21
-80.7848
0
LINE
8
BLACK
6
CONTINUOUS
10
71.8435
20
-78.6896
11
71.3673
21
-80.1182
0
LINE
8
BLACK
6
CONTINUOUS
10
71.3673
20
-80.1182
11
72.6054
21
-80.1182
0
LINE
8
BLACK
6
CONTINUOUS
10
74.8911
20
-80.7848
11
74.8911
21
-78.7848
0
LINE
8
BLACK
6
CONTINUOUS
10
75.7482
20
-80.7848
11
75.7482
21
-79.7372
0
LINE
8
BLACK
6
CONTINUOUS
10
75.7482
20
-79.7372
11
75.653
21
-79.5467
0
LINE
8
BLACK
6
CONTINUOUS
10
75.653
20
-79.5467
11
75.4625
21
-79.4515
0
LINE
8
BLACK
6
CONTINUOUS
10
75.4625
20
-79.4515
11
75.1768
21
-79.4515
0
LINE
8
BLACK
6
CONTINUOUS
10
75.1768
20
-79.4515
11
74.9863
21
-79.5467
0
LINE
8
BLACK
6
CONTINUOUS
10
74.9863
20
-79.5467
11
74.8911
21
-79.642
0
LINE
8
BLACK
6
CONTINUOUS
10
76.9863
20
-80.7848
11
76.7959
21
-80.6896
0
LINE
8
BLACK
6
CONTINUOUS
10
76.7959
20
-80.6896
11
76.7006
21
-80.5944
0
LINE
8
BLACK
6
CONTINUOUS
10
76.7006
20
-80.5944
11
76.6054
21
-80.4039
0
LINE
8
BLACK
6
CONTINUOUS
10
76.6054
20
-80.4039
11
76.6054
21
-79.8325
0
LINE
8
BLACK
6
CONTINUOUS
10
76.6054
20
-79.8325
11
76.7006
21
-79.642
0
LINE
8
BLACK
6
CONTINUOUS
10
76.7006
20
-79.642
11
76.7959
21
-79.5467
0
LINE
8
BLACK
6
CONTINUOUS
10
76.7959
20
-79.5467
11
76.9863
21
-79.4515
0
LINE
8
BLACK
6
CONTINUOUS
10
76.9863
20
-79.4515
11
77.2721
21
-79.4515
0
LINE
8
BLACK
6
CONTINUOUS
10
77.2721
20
-79.4515
11
77.4625
21
-79.5467
0
LINE
8
BLACK
6
CONTINUOUS
10
77.4625
20
-79.5467
11
77.5578
21
-79.642
0
LINE
8
BLACK
6
CONTINUOUS
10
77.5578
20
-79.642
11
77.653
21
-79.8325
0
LINE
8
BLACK
6
CONTINUOUS
10
77.653
20
-79.8325
11
77.653
21
-80.4039
0
LINE
8
BLACK
6
CONTINUOUS
10
77.653
20
-80.4039
11
77.5578
21
-80.5944
0
LINE
8
BLACK
6
CONTINUOUS
10
77.5578
20
-80.5944
11
77.4625
21
-80.6896
0
LINE
8
BLACK
6
CONTINUOUS
10
77.4625
20
-80.6896
11
77.2721
21
-80.7848
0
LINE
8
BLACK
6
CONTINUOUS
10
77.2721
20
-80.7848
11
76.9863
21
-80.7848
0
LINE
8
BLACK
6
CONTINUOUS
10
78.7959
20
-80.7848
11
78.6054
21
-80.6896
0
LINE
8
BLACK
6
CONTINUOUS
10
78.6054
20
-80.6896
11
78.5102
21
-80.4991
0
LINE
8
BLACK
6
CONTINUOUS
10
78.5102
20
-80.4991
11
78.5102
21
-78.7848
0
LINE
8
BLACK
6
CONTINUOUS
10
80.3197
20
-80.6896
11
80.1292
21
-80.7848
0
LINE
8
BLACK
6
CONTINUOUS
10
80.1292
20
-80.7848
11
79.7482
21
-80.7848
0
LINE
8
BLACK
6
CONTINUOUS
10
79.7482
20
-80.7848
11
79.5578
21
-80.6896
0
LINE
8
BLACK
6
CONTINUOUS
10
79.5578
20
-80.6896
11
79.4625
21
-80.4991
0
LINE
8
BLACK
6
CONTINUOUS
10
79.4625
20
-80.4991
11
79.4625
21
-79.7372
0
LINE
8
BLACK
6
CONTINUOUS
10
79.4625
20
-79.7372
11
79.5578
21
-79.5467
0
LINE
8
BLACK
6
CONTINUOUS
10
79.5578
20
-79.5467
11
79.7482
21
-79.4515
0
LINE
8
BLACK
6
CONTINUOUS
10
79.7482
20
-79.4515
11
80.1292
21
-79.4515
0
LINE
8
BLACK
6
CONTINUOUS
10
80.1292
20
-79.4515
11
80.3197
21
-79.5467
0
LINE
8
BLACK
6
CONTINUOUS
10
80.3197
20
-79.5467
11
80.4149
21
-79.7372
0
LINE
8
BLACK
6
CONTINUOUS
10
80.4149
20
-79.7372
11
80.4149
21
-79.9277
0
LINE
8
BLACK
6
CONTINUOUS
10
80.4149
20
-79.9277
11
79.4625
21
-80.1182
0
LINE
8
BLACK
6
CONTINUOUS
10
81.1768
20
-80.6896
11
81.3673
21
-80.7848
0
LINE
8
BLACK
6
CONTINUOUS
10
81.3673
20
-80.7848
11
81.7482
21
-80.7848
0
LINE
8
BLACK
6
CONTINUOUS
10
81.7482
20
-80.7848
11
81.9387
21
-80.6896
0
LINE
8
BLACK
6
CONTINUOUS
10
81.9387
20
-80.6896
11
82.034
21
-80.4991
0
LINE
8
BLACK
6
CONTINUOUS
10
82.034
20
-80.4991
11
82.034
21
-80.4039
0
LINE
8
BLACK
6
CONTINUOUS
10
82.034
20
-80.4039
11
81.9387
21
-80.2134
0
LINE
8
BLACK
6
CONTINUOUS
10
81.9387
20
-80.2134
11
81.7482
21
-80.1182
0
LINE
8
BLACK
6
CONTINUOUS
10
81.7482
20
-80.1182
11
81.4625
21
-80.1182
0
LINE
8
BLACK
6
CONTINUOUS
10
81.4625
20
-80.1182
11
81.2721
21
-80.0229
0
LINE
8
BLACK
6
CONTINUOUS
10
81.2721
20
-80.0229
11
81.1768
21
-79.8325
0
LINE
8
BLACK
6
CONTINUOUS
10
81.1768
20
-79.8325
11
81.1768
21
-79.7372
0
LINE
8
BLACK
6
CONTINUOUS
10
81.1768
20
-79.7372
11
81.2721
21
-79.5467
0
LINE
8
BLACK
6
CONTINUOUS
10
81.2721
20
-79.5467
11
81.4625
21
-79.4515
0
LINE
8
BLACK
6
CONTINUOUS
10
81.4625
20
-79.4515
11
81.7482
21
-79.4515
0
LINE
8
BLACK
6
CONTINUOUS
10
81.7482
20
-79.4515
11
81.9387
21
-79.5467
0
LINE
8
BLACK
6
CONTINUOUS
10
82.7006
20
-81.5467
11
82.7959
21
-81.4515
0
LINE
8
BLACK
6
CONTINUOUS
10
82.7959
20
-81.4515
11
82.9863
21
-81.1658
0
LINE
8
BLACK
6
CONTINUOUS
10
82.9863
20
-81.1658
11
83.0816
21
-80.9753
0
LINE
8
BLACK
6
CONTINUOUS
10
83.0816
20
-80.9753
11
83.1768
21
-80.6896
0
LINE
8
BLACK
6
CONTINUOUS
10
83.1768
20
-80.6896
11
83.2721
21
-80.2134
0
LINE
8
BLACK
6
CONTINUOUS
10
83.2721
20
-80.2134
11
83.2721
21
-79.8325
0
LINE
8
BLACK
6
CONTINUOUS
10
83.2721
20
-79.8325
11
83.1768
21
-79.3563
0
LINE
8
BLACK
6
CONTINUOUS
10
83.1768
20
-79.3563
11
83.0816
21
-79.0706
0
LINE
8
BLACK
6
CONTINUOUS
10
83.0816
20
-79.0706
11
82.9863
21
-78.8801
0
LINE
8
BLACK
6
CONTINUOUS
10
82.9863
20
-78.8801
11
82.7959
21
-78.5944
0
LINE
8
BLACK
6
CONTINUOUS
10
82.7959
20
-78.5944
11
82.7006
21
-78.4991
0
LINE
8
BLACK
6
CONTINUOUS
10
86.3197
20
-81.5467
11
86.2244
21
-81.4515
0
LINE
8
BLACK
6
CONTINUOUS
10
86.2244
20
-81.4515
11
86.034
21
-81.1658
0
LINE
8
BLACK
6
CONTINUOUS
10
86.034
20
-81.1658
11
85.9387
21
-80.9753
0
LINE
8
BLACK
6
CONTINUOUS
10
85.9387
20
-80.9753
11
85.8435
21
-80.6896
0
LINE
8
BLACK
6
CONTINUOUS
10
85.8435
20
-80.6896
11
85.7482
21
-80.2134
0
LINE
8
BLACK
6
CONTINUOUS
10
85.7482
20
-80.2134
11
85.7482
21
-79.8325
0
LINE
8
BLACK
6
CONTINUOUS
10
85.7482
20
-79.8325
11
85.8435
21
-79.3563
0
LINE
8
BLACK
6
CONTINUOUS
10
85.8435
20
-79.3563
11
85.9387
21
-79.0706
0
LINE
8
BLACK
6
CONTINUOUS
10
85.9387
20
-79.0706
11
86.034
21
-78.8801
0
LINE
8
BLACK
6
CONTINUOUS
10
86.034
20
-78.8801
11
86.2244
21
-78.5944
0
LINE
8
BLACK
6
CONTINUOUS
10
86.2244
20
-78.5944
11
86.3197
21
-78.4991
0
LINE
8
BLACK
6
CONTINUOUS
10
87.0816
20
-79.4515
11
87.0816
21
-80.7848
0
LINE
8
BLACK
6
CONTINUOUS
10
87.0816
20
-79.642
11
87.1768
21
-79.5467
0
LINE
8
BLACK
6
CONTINUOUS
10
87.1768
20
-79.5467
11
87.3673
21
-79.4515
0
LINE
8
BLACK
6
CONTINUOUS
10
87.3673
20
-79.4515
11
87.653
21
-79.4515
0
LINE
8
BLACK
6
CONTINUOUS
10
87.653
20
-79.4515
11
87.8435
21
-79.5467
0
LINE
8
BLACK
6
CONTINUOUS
10
87.8435
20
-79.5467
11
87.9387
21
-79.7372
0
LINE
8
BLACK
6
CONTINUOUS
10
87.9387
20
-79.7372
11
87.9387
21
-80.7848
0
LINE
8
BLACK
6
CONTINUOUS
10
89.1768
20
-80.7848
11
88.9863
21
-80.6896
0
LINE
8
BLACK
6
CONTINUOUS
10
88.9863
20
-80.6896
11
88.8911
21
-80.5944
0
LINE
8
BLACK
6
CONTINUOUS
10
88.8911
20
-80.5944
11
88.7959
21
-80.4039
0
LINE
8
BLACK
6
CONTINUOUS
10
88.7959
20
-80.4039
11
88.7959
21
-79.8325
0
LINE
8
BLACK
6
CONTINUOUS
10
88.7959
20
-79.8325
11
88.8911
21
-79.642
0
LINE
8
BLACK
6
CONTINUOUS
10
88.8911
20
-79.642
11
88.9863
21
-79.5467
0
LINE
8
BLACK
6
CONTINUOUS
10
88.9863
20
-79.5467
11
89.1768
21
-79.4515
0
LINE
8
BLACK
6
CONTINUOUS
10
89.1768
20
-79.4515
11
89.4625
21
-79.4515
0
LINE
8
BLACK
6
CONTINUOUS
10
89.4625
20
-79.4515
11
89.653
21
-79.5467
0
LINE
8
BLACK
6
CONTINUOUS
10
89.653
20
-79.5467
11
89.7482
21
-79.642
0
LINE
8
BLACK
6
CONTINUOUS
10
89.7482
20
-79.642
11
89.8435
21
-79.8325
0
LINE
8
BLACK
6
CONTINUOUS
10
89.8435
20
-79.8325
11
89.8435
21
-80.4039
0
LINE
8
BLACK
6
CONTINUOUS
10
89.8435
20
-80.4039
11
89.7482
21
-80.5944
0
LINE
8
BLACK
6
CONTINUOUS
10
89.7482
20
-80.5944
11
89.653
21
-80.6896
0
LINE
8
BLACK
6
CONTINUOUS
10
89.653
20
-80.6896
11
89.4625
21
-80.7848
0
LINE
8
BLACK
6
CONTINUOUS
10
89.4625
20
-80.7848
11
89.1768
21
-80.7848
0
LINE
8
BLACK
6
CONTINUOUS
10
90.4149
20
-79.4515
11
91.1768
21
-79.4515
0
LINE
8
BLACK
6
CONTINUOUS
10
90.7006
20
-78.7848
11
90.7006
21
-80.4991
0
LINE
8
BLACK
6
CONTINUOUS
10
90.7006
20
-80.4991
11
90.7959
21
-80.6896
0
LINE
8
BLACK
6
CONTINUOUS
10
90.7959
20
-80.6896
11
90.9863
21
-80.7848
0
LINE
8
BLACK
6
CONTINUOUS
10
90.9863
20
-80.7848
11
91.1768
21
-80.7848
0
LINE
8
BLACK
6
CONTINUOUS
10
93.3673
20
-79.4515
11
93.3673
21
-81.4515
0
LINE
8
BLACK
6
CONTINUOUS
10
93.3673
20
-79.5467
11
93.5578
21
-79.4515
0
LINE
8
BLACK
6
CONTINUOUS
10
93.5578
20
-79.4515
11
93.9387
21
-79.4515
0
LINE
8
BLACK
6
CONTINUOUS
10
93.9387
20
-79.4515
11
94.1292
21
-79.5467
0
LINE
8
BLACK
6
CONTINUOUS
10
94.1292
20
-79.5467
11
94.2244
21
-79.642
0
LINE
8
BLACK
6
CONTINUOUS
10
94.2244
20
-79.642
11
94.3197
21
-79.8325
0
LINE
8
BLACK
6
CONTINUOUS
10
94.3197
20
-79.8325
11
94.3197
21
-80.4039
0
LINE
8
BLACK
6
CONTINUOUS
10
94.3197
20
-80.4039
11
94.2244
21
-80.5944
0
LINE
8
BLACK
6
CONTINUOUS
10
94.2244
20
-80.5944
11
94.1292
21
-80.6896
0
LINE
8
BLACK
6
CONTINUOUS
10
94.1292
20
-80.6896
11
93.9387
21
-80.7848
0
LINE
8
BLACK
6
CONTINUOUS
10
93.9387
20
-80.7848
11
93.5578
21
-80.7848
0
LINE
8
BLACK
6
CONTINUOUS
10
93.5578
20
-80.7848
11
93.3673
21
-80.6896
0
LINE
8
BLACK
6
CONTINUOUS
10
95.4625
20
-80.7848
11
95.2721
21
-80.6896
0
LINE
8
BLACK
6
CONTINUOUS
10
95.2721
20
-80.6896
11
95.1768
21
-80.4991
0
LINE
8
BLACK
6
CONTINUOUS
10
95.1768
20
-80.4991
11
95.1768
21
-78.7848
0
LINE
8
BLACK
6
CONTINUOUS
10
97.0816
20
-80.7848
11
97.0816
21
-79.7372
0
LINE
8
BLACK
6
CONTINUOUS
10
97.0816
20
-79.7372
11
96.9863
21
-79.5467
0
LINE
8
BLACK
6
CONTINUOUS
10
96.9863
20
-79.5467
11
96.7959
21
-79.4515
0
LINE
8
BLACK
6
CONTINUOUS
10
96.7959
20
-79.4515
11
96.4149
21
-79.4515
0
LINE
8
BLACK
6
CONTINUOUS
10
96.4149
20
-79.4515
11
96.2244
21
-79.5467
0
LINE
8
BLACK
6
CONTINUOUS
10
97.0816
20
-80.6896
11
96.8911
21
-80.7848
0
LINE
8
BLACK
6
CONTINUOUS
10
96.8911
20
-80.7848
11
96.4149
21
-80.7848
0
LINE
8
BLACK
6
CONTINUOUS
10
96.4149
20
-80.7848
11
96.2244
21
-80.6896
0
LINE
8
BLACK
6
CONTINUOUS
10
96.2244
20
-80.6896
11
96.1292
21
-80.4991
0
LINE
8
BLACK
6
CONTINUOUS
10
96.1292
20
-80.4991
11
96.1292
21
-80.3086
0
LINE
8
BLACK
6
CONTINUOUS
10
96.1292
20
-80.3086
11
96.2244
21
-80.1182
0
LINE
8
BLACK
6
CONTINUOUS
10
96.2244
20
-80.1182
11
96.4149
21
-80.0229
0
LINE
8
BLACK
6
CONTINUOUS
10
96.4149
20
-80.0229
11
96.8911
21
-80.0229
0
LINE
8
BLACK
6
CONTINUOUS
10
96.8911
20
-80.0229
11
97.0816
21
-79.9277
0
LINE
8
BLACK
6
CONTINUOUS
10
97.7482
20
-79.4515
11
98.5102
21
-79.4515
0
LINE
8
BLACK
6
CONTINUOUS
10
98.034
20
-78.7848
11
98.034
21
-80.4991
0
LINE
8
BLACK
6
CONTINUOUS
10
98.034
20
-80.4991
11
98.1292
21
-80.6896
0
LINE
8
BLACK
6
CONTINUOUS
10
98.1292
20
-80.6896
11
98.3197
21
-80.7848
0
LINE
8
BLACK
6
CONTINUOUS
10
98.3197
20
-80.7848
11
98.5102
21
-80.7848
0
LINE
8
BLACK
6
CONTINUOUS
10
99.9387
20
-80.6896
11
99.7482
21
-80.7848
0
LINE
8
BLACK
6
CONTINUOUS
10
99.7482
20
-80.7848
11
99.3673
21
-80.7848
0
LINE
8
BLACK
6
CONTINUOUS
10
99.3673
20
-80.7848
11
99.1768
21
-80.6896
0
LINE
8
BLACK
6
CONTINUOUS
10
99.1768
20
-80.6896
11
99.0816
21
-80.4991
0
LINE
8
BLACK
6
CONTINUOUS
10
99.0816
20
-80.4991
11
99.0816
21
-79.7372
0
LINE
8
BLACK
6
CONTINUOUS
10
99.0816
20
-79.7372
11
99.1768
21
-79.5467
0
LINE
8
BLACK
6
CONTINUOUS
10
99.1768
20
-79.5467
11
99.3673
21
-79.4515
0
LINE
8
BLACK
6
CONTINUOUS
10
99.3673
20
-79.4515
11
99.7482
21
-79.4515
0
LINE
8
BLACK
6
CONTINUOUS
10
99.7482
20
-79.4515
11
99.9387
21
-79.5467
0
LINE
8
BLACK
6
CONTINUOUS
10
99.9387
20
-79.5467
11
100.034
21
-79.7372
0
LINE
8
BLACK
6
CONTINUOUS
10
100.034
20
-79.7372
11
100.034
21
-79.9277
0
LINE
8
BLACK
6
CONTINUOUS
10
100.034
20
-79.9277
11
99.0816
21
-80.1182
0
LINE
8
BLACK
6
CONTINUOUS
10
101.748
20
-80.7848
11
101.748
21
-78.7848
0
LINE
8
BLACK
6
CONTINUOUS
10
101.748
20
-80.6896
11
101.558
21
-80.7848
0
LINE
8
BLACK
6
CONTINUOUS
10
101.558
20
-80.7848
11
101.177
21
-80.7848
0
LINE
8
BLACK
6
CONTINUOUS
10
101.177
20
-80.7848
11
100.986
21
-80.6896
0
LINE
8
BLACK
6
CONTINUOUS
10
100.986
20
-80.6896
11
100.891
21
-80.5944
0
LINE
8
BLACK
6
CONTINUOUS
10
100.891
20
-80.5944
11
100.796
21
-80.4039
0
LINE
8
BLACK
6
CONTINUOUS
10
100.796
20
-80.4039
11
100.796
21
-79.8325
0
LINE
8
BLACK
6
CONTINUOUS
10
100.796
20
-79.8325
11
100.891
21
-79.642
0
LINE
8
BLACK
6
CONTINUOUS
10
100.891
20
-79.642
11
100.986
21
-79.5467
0
LINE
8
BLACK
6
CONTINUOUS
10
100.986
20
-79.5467
11
101.177
21
-79.4515
0
LINE
8
BLACK
6
CONTINUOUS
10
101.177
20
-79.4515
11
101.558
21
-79.4515
0
LINE
8
BLACK
6
CONTINUOUS
10
101.558
20
-79.4515
11
101.748
21
-79.5467
0
LINE
8
BLACK
6
CONTINUOUS
10
102.51
20
-81.5467
11
102.605
21
-81.4515
0
LINE
8
BLACK
6
CONTINUOUS
10
102.605
20
-81.4515
11
102.796
21
-81.1658
0
LINE
8
BLACK
6
CONTINUOUS
10
102.796
20
-81.1658
11
102.891
21
-80.9753
0
LINE
8
BLACK
6
CONTINUOUS
10
102.891
20
-80.9753
11
102.986
21
-80.6896
0
LINE
8
BLACK
6
CONTINUOUS
10
102.986
20
-80.6896
11
103.082
21
-80.2134
0
LINE
8
BLACK
6
CONTINUOUS
10
103.082
20
-80.2134
11
103.082
21
-79.8325
0
LINE
8
BLACK
6
CONTINUOUS
10
103.082
20
-79.8325
11
102.986
21
-79.3563
0
LINE
8
BLACK
6
CONTINUOUS
10
102.986
20
-79.3563
11
102.891
21
-79.0706
0
LINE
8
BLACK
6
CONTINUOUS
10
102.891
20
-79.0706
11
102.796
21
-78.8801
0
LINE
8
BLACK
6
CONTINUOUS
10
102.796
20
-78.8801
11
102.605
21
-78.5944
0
LINE
8
BLACK
6
CONTINUOUS
10
102.605
20
-78.5944
11
102.51
21
-78.4991
  0
ENDSEC
  0
EOF
