M48
; DRILL file {KiCad 7.0.7} date Sat Nov 25 16:39:27 2023
; FORMAT={-:-/ absolute / metric / decimal}
; #@! TF.CreationDate,2023-11-25T16:39:27-08:00
; #@! TF.GenerationSoftware,Kicad,Pcbnew,7.0.7
; #@! TF.FileFunction,MixedPlating,1,4
FMAT,2
METRIC
; #@! TA.AperFunction,Plated,PTH,ViaDrill
T1C0.200
; #@! TA.AperFunction,Plated,PTH,ComponentDrill
T2C0.500
; #@! TA.AperFunction,Plated,PTH,ComponentDrill
T3C1.000
; #@! TA.AperFunction,NonPlated,NPTH,ComponentDrill
T4C2.700
%
G90
G05
T1
X40.4Y-48.3
X41.0Y-52.5
X41.5Y-40.9
X41.7Y-48.6
X42.0Y-49.4
X42.5Y-36.87
X42.5Y-39.8
X42.6Y-41.8
X42.6Y-51.0
X43.5Y-50.0
X43.5Y-52.1
X43.5Y-61.1
X43.8Y-38.0
X44.1Y-50.5
X44.5Y-41.8
X44.5Y-48.5
X45.6Y-53.6
X45.8Y-42.6
X45.925Y-49.5
X46.1Y-36.2
X46.1Y-38.0
X46.3Y-53.649
X46.726Y-48.126
X46.819Y-54.117
X47.02Y-43.9
X47.082Y-48.782
X47.127Y-47.457
X47.176Y-49.812
X47.2Y-62.0
X47.38Y-46.804
X47.6Y-60.9
X47.7Y-42.3
X47.864Y-49.886
X48.124Y-58.363
X48.5Y-50.2
X48.824Y-58.349
X48.9Y-60.8
X49.3Y-41.3
X49.508Y-58.495
X49.6Y-38.775
X49.7Y-60.9
X49.75Y-44.5
X49.75Y-45.75
X49.75Y-47.25
X49.75Y-48.5
X50.2Y-42.1
X50.3Y-59.8
X50.4Y-55.2
X50.6Y-51.1
X50.7Y-40.32
X50.9Y-42.1
X50.9Y-41.05
X50.9Y-57.0
X51.0Y-44.5
X51.0Y-48.5
X51.302Y-51.14
X51.474Y-54.5
X52.05Y-58.0
X52.1Y-52.9
X52.12Y-40.32
X52.2Y-41.3
X52.475Y-44.5
X52.475Y-48.5
X52.7Y-56.5
X52.7Y-60.4
X52.8Y-52.0
X53.1Y-53.8
X53.314Y-42.001
X53.5Y-38.0
X53.75Y-44.5
X53.75Y-45.75
X53.75Y-47.25
X53.75Y-48.5
X53.8Y-52.0
X54.07Y-42.065
X54.1Y-53.8
X54.4Y-60.919
X54.84Y-58.1
X55.4Y-40.5
X55.4Y-41.6
X55.45Y-54.5
X55.5Y-51.0
X56.1Y-42.5
X56.3Y-47.9
X56.5Y-39.5
X56.5Y-55.2
X56.794Y-43.811
X56.84Y-44.509
X56.975Y-45.207
X57.0Y-52.5
X57.2Y-37.2
X57.2Y-57.0
X57.3Y-54.0
X57.6Y-42.2
X57.6Y-42.9
X57.9Y-37.2
X58.0Y-54.0
X58.0Y-57.0
X58.024Y-45.2
X58.085Y-36.38
X58.2Y-44.0
X58.2Y-60.7
X58.2Y-64.5
X58.7Y-54.0
X58.7Y-57.0
X58.724Y-45.182
X59.5Y-64.5
X59.7Y-45.9
X59.8Y-36.7
X59.994Y-55.611
X60.18Y-46.5
X60.6Y-54.7
X60.669Y-57.4
X60.74Y-64.4
X61.1Y-45.7
X61.779Y-53.836
X62.0Y-43.5
X62.0Y-44.5
X62.0Y-45.5
X62.0Y-46.5
X62.0Y-47.5
X62.0Y-48.5
X62.0Y-53.0
X62.0Y-54.5
X62.0Y-55.5
X62.0Y-56.5
X62.0Y-57.5
X63.0Y-43.5
X63.0Y-49.25
X63.0Y-50.0
X63.0Y-51.0
X63.0Y-52.0
X63.0Y-53.0
X63.0Y-54.0
X63.0Y-57.5
X64.0Y-49.25
X64.0Y-52.0
X64.0Y-56.5
X64.0Y-57.5
X64.5Y-42.5
X64.5Y-43.5
X64.5Y-46.5
X64.5Y-47.5
X65.25Y-56.5
X65.5Y-42.5
X65.5Y-47.5
X66.5Y-42.5
X66.5Y-47.5
X66.5Y-55.5
X66.5Y-56.5
X67.5Y-42.5
X67.5Y-43.5
X67.5Y-44.5
X67.5Y-45.5
X67.5Y-46.5
X67.5Y-47.5
X67.5Y-48.5
X67.5Y-49.5
X67.5Y-50.5
X67.5Y-51.5
X67.5Y-52.5
X67.5Y-53.5
X67.5Y-54.5
X67.5Y-55.5
T3
X36.975Y-54.225
X36.975Y-56.765
X39.515Y-54.225
X39.515Y-56.765
X42.055Y-54.225
X42.055Y-56.765
T4
X38.325Y-62.0
X38.5Y-39.0
X65.0Y-39.0
X65.0Y-62.0
T2
G00X36.15Y-43.7
M15
G01X36.85Y-43.7
M16
G05
G00X36.15Y-50.3
M15
G01X36.85Y-50.3
M16
G05
T0
M30
