M48
; DRILL file {KiCad 8.0.1} date 2024-06-13T03:10:41-0700
; FORMAT={-:-/ absolute / metric / decimal}
; #@! TF.CreationDate,2024-06-13T03:10:41-07:00
; #@! TF.GenerationSoftware,Kicad,Pcbnew,8.0.1
; #@! TF.FileFunction,MixedPlating,1,6
FMAT,2
METRIC
; #@! TA.AperFunction,Plated,PTH,ViaDrill
T1C0.300
; #@! TA.AperFunction,Plated,PTH,ComponentDrill
T2C0.600
; #@! TA.AperFunction,Plated,PTH,ComponentDrill
T3C1.000
; #@! TA.AperFunction,Plated,PTH,ViaDrill
T4C2.000
; #@! TA.AperFunction,NonPlated,NPTH,ComponentDrill
T5C0.650
; #@! TA.AperFunction,NonPlated,NPTH,ComponentDrill
T6C2.700
%
G90
G05
T1
X37.5Y-53.7
X39.0Y-45.0
X39.0Y-46.0
X39.0Y-48.0
X39.0Y-49.0
X40.0Y-46.25
X41.0Y-53.67
X41.9Y-55.9
X41.9Y-57.8
X41.9Y-58.8
X42.2Y-49.9
X42.6Y-38.0
X42.8Y-56.3
X42.9Y-43.6
X42.9Y-57.8
X42.9Y-58.8
X43.1Y-50.2
X43.45Y-45.0
X43.65Y-47.0
X43.8Y-43.6
X43.8Y-55.5
X43.9Y-42.59
X44.0Y-50.2
X44.3Y-51.7
X44.3Y-52.9
X44.3Y-54.2
X44.4Y-39.7
X44.5Y-57.0
X44.6Y-43.6
X44.7Y-49.1
X45.3Y-48.5
X45.9Y-47.9
X46.1Y-50.8
X46.1Y-52.0
X46.3Y-39.2
X46.4Y-36.7
X46.7Y-38.4
X47.0Y-51.5
X47.4Y-36.5
X47.7Y-50.0
X47.7Y-51.9
X47.9Y-49.1
X48.0Y-48.3
X48.0Y-55.0
X48.0Y-56.2
X48.1Y-44.3
X48.9Y-41.8
X48.9Y-43.1
X49.1Y-37.9
X49.2Y-55.0
X49.2Y-56.2
X49.8Y-40.7
X49.8Y-41.7
X49.8Y-45.8
X49.8Y-46.7
X49.8Y-48.2
X49.9Y-58.9
X50.2Y-44.6
X50.541Y-48.856
X50.575Y-42.2
X50.6Y-57.1
X51.0Y-51.7
X51.0Y-53.0
X51.0Y-54.235
X51.0Y-55.5
X51.0Y-58.9
X51.0Y-59.8
X51.4Y-61.4
X51.9Y-44.0
X51.9Y-48.5
X52.5Y-50.7
X52.654Y-48.796
X52.708Y-43.746
X52.9Y-56.4
X53.1Y-36.5
X53.22Y-51.07
X53.4Y-49.1
X53.7Y-41.7
X53.9Y-44.0
X54.0Y-39.925
X54.0Y-40.8
X54.07Y-48.59
X54.2Y-38.609
X54.2Y-51.6
X54.2Y-57.4
X54.511Y-41.454
X54.65Y-45.55
X54.7Y-59.0
X54.82Y-46.4
X54.9Y-48.8
X55.0Y-42.1
X55.0Y-44.2
X55.462Y-49.829
X55.525Y-57.362
X55.7Y-42.525
X55.79Y-59.004
X55.8Y-43.4
X56.3Y-54.4
X56.351Y-37.249
X56.449Y-39.034
X56.9Y-44.8
X56.9Y-45.6
X56.9Y-47.5
X56.9Y-49.1
X57.0Y-48.3
X57.037Y-40.537
X57.2Y-36.9
X57.2Y-42.1
X57.2Y-50.8
X57.4Y-37.7
X57.4Y-51.6
X57.4Y-61.9
X57.6Y-54.0
X57.6Y-55.0
X57.7Y-60.0
X57.925Y-59.2
X58.266Y-50.164
X58.4Y-43.3
X58.5Y-37.0
X58.5Y-39.1
X59.1Y-53.7
X59.5Y-50.3
X59.81Y-59.0
X59.9Y-57.3
X60.1Y-52.4
X61.1Y-53.3
X61.2Y-49.0
X61.2Y-50.2
X61.295Y-43.601
X61.3Y-44.9
X61.71Y-40.7
X62.2Y-41.675
X62.9Y-47.1
X62.9Y-48.0
X62.9Y-49.0
X62.951Y-43.449
X63.0Y-50.2
X63.2Y-40.3
X63.3Y-39.5
X63.3Y-42.6
X63.3Y-44.4
X63.575Y-52.445
X63.6Y-55.275
X63.895Y-46.648
X64.32Y-51.8
X64.375Y-49.788
X64.4Y-39.4
X64.4Y-43.4
X64.8Y-46.1
X64.9Y-45.2
X65.1Y-56.9
X65.2Y-40.3
X65.596Y-46.625
X65.6Y-42.4
X66.3Y-39.4
X66.3Y-44.6
X66.4Y-38.0
X66.4Y-43.4
X66.4Y-46.1
X66.4Y-48.9
X66.4Y-50.2
X66.4Y-51.5
X67.0Y-45.1
X67.08Y-55.9
X67.2Y-38.0
X67.356Y-40.412
X67.6Y-44.5
X68.2Y-37.3
X68.3Y-40.0
X68.4Y-41.4
X68.4Y-43.4
X68.4Y-44.5
X68.5Y-50.2
X68.7Y-47.2
X68.9Y-48.6
X69.0Y-51.5
X69.0Y-57.0
X69.3Y-52.8
X69.4Y-41.4
X69.4Y-43.0
X69.4Y-44.5
X69.6Y-40.0
X69.6Y-46.3
X69.8Y-37.3
X69.8Y-59.9
X70.0Y-57.0
X70.6Y-44.5
X70.9Y-37.4
X70.9Y-40.0
X71.0Y-57.0
X71.6Y-43.4
X71.7Y-47.5
X71.8Y-48.8
X72.0Y-37.1
X72.0Y-46.3
X72.0Y-57.0
X72.3Y-52.8
X72.3Y-61.7
X72.5Y-50.0
X72.5Y-51.0
X72.5Y-52.0
X73.0Y-57.0
X73.2Y-41.4
X73.2Y-44.6
X73.3Y-38.2
X73.3Y-39.8
X73.815Y-45.5
X74.6Y-55.8
X76.9Y-53.5
X76.9Y-54.3
T3
X43.5Y-63.5
X46.04Y-63.5
X48.58Y-63.5
X51.12Y-63.5
X53.66Y-63.5
X56.2Y-63.5
X58.74Y-63.5
X61.28Y-63.5
X63.82Y-63.5
X66.36Y-63.5
X68.9Y-63.5
X78.25Y-45.25
X78.25Y-47.79
X78.25Y-50.33
X78.25Y-52.87
X78.25Y-55.41
T4
X52.4Y-46.4
T5
X40.165Y-44.61
X40.165Y-50.39
T6
X38.5Y-39.0
X38.5Y-62.0
X76.5Y-39.0
X76.5Y-62.0
T2
G00X36.9Y-43.18
M15
G01X36.1Y-43.18
M16
G05
G00X36.9Y-51.82
M15
G01X36.1Y-51.82
M16
G05
G00X41.23Y-43.18
M15
G01X40.13Y-43.18
M16
G05
G00X41.23Y-51.82
M15
G01X40.13Y-51.82
M16
G05
M30
