G04 #@! TF.GenerationSoftware,KiCad,Pcbnew,7.0.7*
G04 #@! TF.CreationDate,2023-11-25T23:15:17-08:00*
G04 #@! TF.ProjectId,adsbee_1090,61647362-6565-45f3-9130-39302e6b6963,A*
G04 #@! TF.SameCoordinates,Original*
G04 #@! TF.FileFunction,Soldermask,Top*
G04 #@! TF.FilePolarity,Negative*
%FSLAX46Y46*%
G04 Gerber Fmt 4.6, Leading zero omitted, Abs format (unit mm)*
G04 Created by KiCad (PCBNEW 7.0.7) date 2023-11-25 23:15:17*
%MOMM*%
%LPD*%
G01*
G04 APERTURE LIST*
G04 Aperture macros list*
%AMRoundRect*
0 Rectangle with rounded corners*
0 $1 Rounding radius*
0 $2 $3 $4 $5 $6 $7 $8 $9 X,Y pos of 4 corners*
0 Add a 4 corners polygon primitive as box body*
4,1,4,$2,$3,$4,$5,$6,$7,$8,$9,$2,$3,0*
0 Add four circle primitives for the rounded corners*
1,1,$1+$1,$2,$3*
1,1,$1+$1,$4,$5*
1,1,$1+$1,$6,$7*
1,1,$1+$1,$8,$9*
0 Add four rect primitives between the rounded corners*
20,1,$1+$1,$2,$3,$4,$5,0*
20,1,$1+$1,$4,$5,$6,$7,0*
20,1,$1+$1,$6,$7,$8,$9,0*
20,1,$1+$1,$8,$9,$2,$3,0*%
G04 Aperture macros list end*
%ADD10C,0.100000*%
%ADD11C,0.150000*%
%ADD12C,0.300000*%
%ADD13C,0.400000*%
%ADD14R,1.200000X1.400000*%
%ADD15RoundRect,0.140000X-0.140000X-0.170000X0.140000X-0.170000X0.140000X0.170000X-0.140000X0.170000X0*%
%ADD16RoundRect,0.135000X0.185000X-0.135000X0.185000X0.135000X-0.185000X0.135000X-0.185000X-0.135000X0*%
%ADD17RoundRect,0.225000X-0.225000X-0.250000X0.225000X-0.250000X0.225000X0.250000X-0.225000X0.250000X0*%
%ADD18R,1.230000X1.360000*%
%ADD19RoundRect,0.150000X0.150000X0.200000X-0.150000X0.200000X-0.150000X-0.200000X0.150000X-0.200000X0*%
%ADD20RoundRect,0.140000X0.140000X0.170000X-0.140000X0.170000X-0.140000X-0.170000X0.140000X-0.170000X0*%
%ADD21RoundRect,0.140000X-0.170000X0.140000X-0.170000X-0.140000X0.170000X-0.140000X0.170000X0.140000X0*%
%ADD22RoundRect,0.140000X0.170000X-0.140000X0.170000X0.140000X-0.170000X0.140000X-0.170000X-0.140000X0*%
%ADD23RoundRect,0.135000X0.135000X0.185000X-0.135000X0.185000X-0.135000X-0.185000X0.135000X-0.185000X0*%
%ADD24RoundRect,0.050000X0.050000X-0.387500X0.050000X0.387500X-0.050000X0.387500X-0.050000X-0.387500X0*%
%ADD25RoundRect,0.050000X0.387500X-0.050000X0.387500X0.050000X-0.387500X0.050000X-0.387500X-0.050000X0*%
%ADD26R,3.200000X3.200000*%
%ADD27RoundRect,0.100000X-0.575000X0.100000X-0.575000X-0.100000X0.575000X-0.100000X0.575000X0.100000X0*%
%ADD28O,1.600000X0.900000*%
%ADD29RoundRect,0.250000X-0.450000X0.550000X-0.450000X-0.550000X0.450000X-0.550000X0.450000X0.550000X0*%
%ADD30RoundRect,0.250000X-0.700000X0.700000X-0.700000X-0.700000X0.700000X-0.700000X0.700000X0.700000X0*%
%ADD31RoundRect,0.135000X-0.185000X0.135000X-0.185000X-0.135000X0.185000X-0.135000X0.185000X0.135000X0*%
%ADD32RoundRect,0.150000X0.150000X-0.650000X0.150000X0.650000X-0.150000X0.650000X-0.150000X-0.650000X0*%
%ADD33RoundRect,0.225000X-0.250000X0.225000X-0.250000X-0.225000X0.250000X-0.225000X0.250000X0.225000X0*%
%ADD34R,0.550000X0.280000*%
%ADD35R,0.600000X1.740000*%
%ADD36RoundRect,0.150000X-0.512500X-0.150000X0.512500X-0.150000X0.512500X0.150000X-0.512500X0.150000X0*%
%ADD37RoundRect,0.225000X-0.375000X0.225000X-0.375000X-0.225000X0.375000X-0.225000X0.375000X0.225000X0*%
%ADD38R,1.000000X0.700000*%
%ADD39R,0.600000X0.700000*%
%ADD40RoundRect,0.135000X-0.135000X-0.185000X0.135000X-0.185000X0.135000X0.185000X-0.135000X0.185000X0*%
%ADD41C,5.000000*%
%ADD42R,1.050000X1.000000*%
%ADD43R,2.200000X1.050000*%
%ADD44R,0.650000X0.400000*%
%ADD45RoundRect,0.218750X0.256250X-0.218750X0.256250X0.218750X-0.256250X0.218750X-0.256250X-0.218750X0*%
%ADD46RoundRect,0.218750X-0.218750X-0.256250X0.218750X-0.256250X0.218750X0.256250X-0.218750X0.256250X0*%
%ADD47R,0.740000X2.310000*%
%ADD48R,0.740000X1.400000*%
%ADD49R,1.700000X1.700000*%
%ADD50O,1.700000X1.700000*%
G04 APERTURE END LIST*
D10*
D11*
X311800000Y-235400000D02*
X419800000Y-235400000D01*
X419800000Y-267400000D01*
X311800000Y-267400000D01*
X311800000Y-235400000D01*
D10*
D11*
X10000000Y-10000000D02*
X421800000Y-10000000D01*
X421800000Y-269400000D01*
X10000000Y-269400000D01*
X10000000Y-10000000D01*
D10*
D11*
X12000000Y-12000000D02*
X419800000Y-12000000D01*
X419800000Y-267400000D01*
X12000000Y-267400000D01*
X12000000Y-12000000D01*
D10*
D11*
X60000000Y-12000000D02*
X60000000Y-10000000D01*
D10*
D11*
X110000000Y-12000000D02*
X110000000Y-10000000D01*
D10*
D11*
X160000000Y-12000000D02*
X160000000Y-10000000D01*
D10*
D11*
X210000000Y-12000000D02*
X210000000Y-10000000D01*
D10*
D11*
X260000000Y-12000000D02*
X260000000Y-10000000D01*
D10*
D11*
X310000000Y-12000000D02*
X310000000Y-10000000D01*
D10*
D11*
X360000000Y-12000000D02*
X360000000Y-10000000D01*
D10*
D11*
X410000000Y-12000000D02*
X410000000Y-10000000D01*
D10*
D11*
X36089160Y-11593604D02*
X35346303Y-11593604D01*
X35717731Y-11593604D02*
X35717731Y-10293604D01*
X35717731Y-10293604D02*
X35593922Y-10479319D01*
X35593922Y-10479319D02*
X35470112Y-10603128D01*
X35470112Y-10603128D02*
X35346303Y-10665033D01*
D10*
D11*
X85346303Y-10417414D02*
X85408207Y-10355509D01*
X85408207Y-10355509D02*
X85532017Y-10293604D01*
X85532017Y-10293604D02*
X85841541Y-10293604D01*
X85841541Y-10293604D02*
X85965350Y-10355509D01*
X85965350Y-10355509D02*
X86027255Y-10417414D01*
X86027255Y-10417414D02*
X86089160Y-10541223D01*
X86089160Y-10541223D02*
X86089160Y-10665033D01*
X86089160Y-10665033D02*
X86027255Y-10850747D01*
X86027255Y-10850747D02*
X85284398Y-11593604D01*
X85284398Y-11593604D02*
X86089160Y-11593604D01*
D10*
D11*
X135284398Y-10293604D02*
X136089160Y-10293604D01*
X136089160Y-10293604D02*
X135655826Y-10788842D01*
X135655826Y-10788842D02*
X135841541Y-10788842D01*
X135841541Y-10788842D02*
X135965350Y-10850747D01*
X135965350Y-10850747D02*
X136027255Y-10912652D01*
X136027255Y-10912652D02*
X136089160Y-11036461D01*
X136089160Y-11036461D02*
X136089160Y-11345985D01*
X136089160Y-11345985D02*
X136027255Y-11469795D01*
X136027255Y-11469795D02*
X135965350Y-11531700D01*
X135965350Y-11531700D02*
X135841541Y-11593604D01*
X135841541Y-11593604D02*
X135470112Y-11593604D01*
X135470112Y-11593604D02*
X135346303Y-11531700D01*
X135346303Y-11531700D02*
X135284398Y-11469795D01*
D10*
D11*
X185965350Y-10726938D02*
X185965350Y-11593604D01*
X185655826Y-10231700D02*
X185346303Y-11160271D01*
X185346303Y-11160271D02*
X186151064Y-11160271D01*
D10*
D11*
X236027255Y-10293604D02*
X235408207Y-10293604D01*
X235408207Y-10293604D02*
X235346303Y-10912652D01*
X235346303Y-10912652D02*
X235408207Y-10850747D01*
X235408207Y-10850747D02*
X235532017Y-10788842D01*
X235532017Y-10788842D02*
X235841541Y-10788842D01*
X235841541Y-10788842D02*
X235965350Y-10850747D01*
X235965350Y-10850747D02*
X236027255Y-10912652D01*
X236027255Y-10912652D02*
X236089160Y-11036461D01*
X236089160Y-11036461D02*
X236089160Y-11345985D01*
X236089160Y-11345985D02*
X236027255Y-11469795D01*
X236027255Y-11469795D02*
X235965350Y-11531700D01*
X235965350Y-11531700D02*
X235841541Y-11593604D01*
X235841541Y-11593604D02*
X235532017Y-11593604D01*
X235532017Y-11593604D02*
X235408207Y-11531700D01*
X235408207Y-11531700D02*
X235346303Y-11469795D01*
D10*
D11*
X285965350Y-10293604D02*
X285717731Y-10293604D01*
X285717731Y-10293604D02*
X285593922Y-10355509D01*
X285593922Y-10355509D02*
X285532017Y-10417414D01*
X285532017Y-10417414D02*
X285408207Y-10603128D01*
X285408207Y-10603128D02*
X285346303Y-10850747D01*
X285346303Y-10850747D02*
X285346303Y-11345985D01*
X285346303Y-11345985D02*
X285408207Y-11469795D01*
X285408207Y-11469795D02*
X285470112Y-11531700D01*
X285470112Y-11531700D02*
X285593922Y-11593604D01*
X285593922Y-11593604D02*
X285841541Y-11593604D01*
X285841541Y-11593604D02*
X285965350Y-11531700D01*
X285965350Y-11531700D02*
X286027255Y-11469795D01*
X286027255Y-11469795D02*
X286089160Y-11345985D01*
X286089160Y-11345985D02*
X286089160Y-11036461D01*
X286089160Y-11036461D02*
X286027255Y-10912652D01*
X286027255Y-10912652D02*
X285965350Y-10850747D01*
X285965350Y-10850747D02*
X285841541Y-10788842D01*
X285841541Y-10788842D02*
X285593922Y-10788842D01*
X285593922Y-10788842D02*
X285470112Y-10850747D01*
X285470112Y-10850747D02*
X285408207Y-10912652D01*
X285408207Y-10912652D02*
X285346303Y-11036461D01*
D10*
D11*
X335284398Y-10293604D02*
X336151064Y-10293604D01*
X336151064Y-10293604D02*
X335593922Y-11593604D01*
D10*
D11*
X385593922Y-10850747D02*
X385470112Y-10788842D01*
X385470112Y-10788842D02*
X385408207Y-10726938D01*
X385408207Y-10726938D02*
X385346303Y-10603128D01*
X385346303Y-10603128D02*
X385346303Y-10541223D01*
X385346303Y-10541223D02*
X385408207Y-10417414D01*
X385408207Y-10417414D02*
X385470112Y-10355509D01*
X385470112Y-10355509D02*
X385593922Y-10293604D01*
X385593922Y-10293604D02*
X385841541Y-10293604D01*
X385841541Y-10293604D02*
X385965350Y-10355509D01*
X385965350Y-10355509D02*
X386027255Y-10417414D01*
X386027255Y-10417414D02*
X386089160Y-10541223D01*
X386089160Y-10541223D02*
X386089160Y-10603128D01*
X386089160Y-10603128D02*
X386027255Y-10726938D01*
X386027255Y-10726938D02*
X385965350Y-10788842D01*
X385965350Y-10788842D02*
X385841541Y-10850747D01*
X385841541Y-10850747D02*
X385593922Y-10850747D01*
X385593922Y-10850747D02*
X385470112Y-10912652D01*
X385470112Y-10912652D02*
X385408207Y-10974557D01*
X385408207Y-10974557D02*
X385346303Y-11098366D01*
X385346303Y-11098366D02*
X385346303Y-11345985D01*
X385346303Y-11345985D02*
X385408207Y-11469795D01*
X385408207Y-11469795D02*
X385470112Y-11531700D01*
X385470112Y-11531700D02*
X385593922Y-11593604D01*
X385593922Y-11593604D02*
X385841541Y-11593604D01*
X385841541Y-11593604D02*
X385965350Y-11531700D01*
X385965350Y-11531700D02*
X386027255Y-11469795D01*
X386027255Y-11469795D02*
X386089160Y-11345985D01*
X386089160Y-11345985D02*
X386089160Y-11098366D01*
X386089160Y-11098366D02*
X386027255Y-10974557D01*
X386027255Y-10974557D02*
X385965350Y-10912652D01*
X385965350Y-10912652D02*
X385841541Y-10850747D01*
D10*
D11*
X60000000Y-267400000D02*
X60000000Y-269400000D01*
D10*
D11*
X110000000Y-267400000D02*
X110000000Y-269400000D01*
D10*
D11*
X160000000Y-267400000D02*
X160000000Y-269400000D01*
D10*
D11*
X210000000Y-267400000D02*
X210000000Y-269400000D01*
D10*
D11*
X260000000Y-267400000D02*
X260000000Y-269400000D01*
D10*
D11*
X310000000Y-267400000D02*
X310000000Y-269400000D01*
D10*
D11*
X360000000Y-267400000D02*
X360000000Y-269400000D01*
D10*
D11*
X410000000Y-267400000D02*
X410000000Y-269400000D01*
D10*
D11*
X36089160Y-268993604D02*
X35346303Y-268993604D01*
X35717731Y-268993604D02*
X35717731Y-267693604D01*
X35717731Y-267693604D02*
X35593922Y-267879319D01*
X35593922Y-267879319D02*
X35470112Y-268003128D01*
X35470112Y-268003128D02*
X35346303Y-268065033D01*
D10*
D11*
X85346303Y-267817414D02*
X85408207Y-267755509D01*
X85408207Y-267755509D02*
X85532017Y-267693604D01*
X85532017Y-267693604D02*
X85841541Y-267693604D01*
X85841541Y-267693604D02*
X85965350Y-267755509D01*
X85965350Y-267755509D02*
X86027255Y-267817414D01*
X86027255Y-267817414D02*
X86089160Y-267941223D01*
X86089160Y-267941223D02*
X86089160Y-268065033D01*
X86089160Y-268065033D02*
X86027255Y-268250747D01*
X86027255Y-268250747D02*
X85284398Y-268993604D01*
X85284398Y-268993604D02*
X86089160Y-268993604D01*
D10*
D11*
X135284398Y-267693604D02*
X136089160Y-267693604D01*
X136089160Y-267693604D02*
X135655826Y-268188842D01*
X135655826Y-268188842D02*
X135841541Y-268188842D01*
X135841541Y-268188842D02*
X135965350Y-268250747D01*
X135965350Y-268250747D02*
X136027255Y-268312652D01*
X136027255Y-268312652D02*
X136089160Y-268436461D01*
X136089160Y-268436461D02*
X136089160Y-268745985D01*
X136089160Y-268745985D02*
X136027255Y-268869795D01*
X136027255Y-268869795D02*
X135965350Y-268931700D01*
X135965350Y-268931700D02*
X135841541Y-268993604D01*
X135841541Y-268993604D02*
X135470112Y-268993604D01*
X135470112Y-268993604D02*
X135346303Y-268931700D01*
X135346303Y-268931700D02*
X135284398Y-268869795D01*
D10*
D11*
X185965350Y-268126938D02*
X185965350Y-268993604D01*
X185655826Y-267631700D02*
X185346303Y-268560271D01*
X185346303Y-268560271D02*
X186151064Y-268560271D01*
D10*
D11*
X236027255Y-267693604D02*
X235408207Y-267693604D01*
X235408207Y-267693604D02*
X235346303Y-268312652D01*
X235346303Y-268312652D02*
X235408207Y-268250747D01*
X235408207Y-268250747D02*
X235532017Y-268188842D01*
X235532017Y-268188842D02*
X235841541Y-268188842D01*
X235841541Y-268188842D02*
X235965350Y-268250747D01*
X235965350Y-268250747D02*
X236027255Y-268312652D01*
X236027255Y-268312652D02*
X236089160Y-268436461D01*
X236089160Y-268436461D02*
X236089160Y-268745985D01*
X236089160Y-268745985D02*
X236027255Y-268869795D01*
X236027255Y-268869795D02*
X235965350Y-268931700D01*
X235965350Y-268931700D02*
X235841541Y-268993604D01*
X235841541Y-268993604D02*
X235532017Y-268993604D01*
X235532017Y-268993604D02*
X235408207Y-268931700D01*
X235408207Y-268931700D02*
X235346303Y-268869795D01*
D10*
D11*
X285965350Y-267693604D02*
X285717731Y-267693604D01*
X285717731Y-267693604D02*
X285593922Y-267755509D01*
X285593922Y-267755509D02*
X285532017Y-267817414D01*
X285532017Y-267817414D02*
X285408207Y-268003128D01*
X285408207Y-268003128D02*
X285346303Y-268250747D01*
X285346303Y-268250747D02*
X285346303Y-268745985D01*
X285346303Y-268745985D02*
X285408207Y-268869795D01*
X285408207Y-268869795D02*
X285470112Y-268931700D01*
X285470112Y-268931700D02*
X285593922Y-268993604D01*
X285593922Y-268993604D02*
X285841541Y-268993604D01*
X285841541Y-268993604D02*
X285965350Y-268931700D01*
X285965350Y-268931700D02*
X286027255Y-268869795D01*
X286027255Y-268869795D02*
X286089160Y-268745985D01*
X286089160Y-268745985D02*
X286089160Y-268436461D01*
X286089160Y-268436461D02*
X286027255Y-268312652D01*
X286027255Y-268312652D02*
X285965350Y-268250747D01*
X285965350Y-268250747D02*
X285841541Y-268188842D01*
X285841541Y-268188842D02*
X285593922Y-268188842D01*
X285593922Y-268188842D02*
X285470112Y-268250747D01*
X285470112Y-268250747D02*
X285408207Y-268312652D01*
X285408207Y-268312652D02*
X285346303Y-268436461D01*
D10*
D11*
X335284398Y-267693604D02*
X336151064Y-267693604D01*
X336151064Y-267693604D02*
X335593922Y-268993604D01*
D10*
D11*
X385593922Y-268250747D02*
X385470112Y-268188842D01*
X385470112Y-268188842D02*
X385408207Y-268126938D01*
X385408207Y-268126938D02*
X385346303Y-268003128D01*
X385346303Y-268003128D02*
X385346303Y-267941223D01*
X385346303Y-267941223D02*
X385408207Y-267817414D01*
X385408207Y-267817414D02*
X385470112Y-267755509D01*
X385470112Y-267755509D02*
X385593922Y-267693604D01*
X385593922Y-267693604D02*
X385841541Y-267693604D01*
X385841541Y-267693604D02*
X385965350Y-267755509D01*
X385965350Y-267755509D02*
X386027255Y-267817414D01*
X386027255Y-267817414D02*
X386089160Y-267941223D01*
X386089160Y-267941223D02*
X386089160Y-268003128D01*
X386089160Y-268003128D02*
X386027255Y-268126938D01*
X386027255Y-268126938D02*
X385965350Y-268188842D01*
X385965350Y-268188842D02*
X385841541Y-268250747D01*
X385841541Y-268250747D02*
X385593922Y-268250747D01*
X385593922Y-268250747D02*
X385470112Y-268312652D01*
X385470112Y-268312652D02*
X385408207Y-268374557D01*
X385408207Y-268374557D02*
X385346303Y-268498366D01*
X385346303Y-268498366D02*
X385346303Y-268745985D01*
X385346303Y-268745985D02*
X385408207Y-268869795D01*
X385408207Y-268869795D02*
X385470112Y-268931700D01*
X385470112Y-268931700D02*
X385593922Y-268993604D01*
X385593922Y-268993604D02*
X385841541Y-268993604D01*
X385841541Y-268993604D02*
X385965350Y-268931700D01*
X385965350Y-268931700D02*
X386027255Y-268869795D01*
X386027255Y-268869795D02*
X386089160Y-268745985D01*
X386089160Y-268745985D02*
X386089160Y-268498366D01*
X386089160Y-268498366D02*
X386027255Y-268374557D01*
X386027255Y-268374557D02*
X385965350Y-268312652D01*
X385965350Y-268312652D02*
X385841541Y-268250747D01*
D10*
D11*
X10000000Y-60000000D02*
X12000000Y-60000000D01*
D10*
D11*
X10000000Y-110000000D02*
X12000000Y-110000000D01*
D10*
D11*
X10000000Y-160000000D02*
X12000000Y-160000000D01*
D10*
D11*
X10000000Y-210000000D02*
X12000000Y-210000000D01*
D10*
D11*
X10000000Y-260000000D02*
X12000000Y-260000000D01*
D10*
D11*
X10690476Y-35222176D02*
X11309523Y-35222176D01*
X10566666Y-35593604D02*
X10999999Y-34293604D01*
X10999999Y-34293604D02*
X11433333Y-35593604D01*
D10*
D11*
X11092857Y-84912652D02*
X11278571Y-84974557D01*
X11278571Y-84974557D02*
X11340476Y-85036461D01*
X11340476Y-85036461D02*
X11402380Y-85160271D01*
X11402380Y-85160271D02*
X11402380Y-85345985D01*
X11402380Y-85345985D02*
X11340476Y-85469795D01*
X11340476Y-85469795D02*
X11278571Y-85531700D01*
X11278571Y-85531700D02*
X11154761Y-85593604D01*
X11154761Y-85593604D02*
X10659523Y-85593604D01*
X10659523Y-85593604D02*
X10659523Y-84293604D01*
X10659523Y-84293604D02*
X11092857Y-84293604D01*
X11092857Y-84293604D02*
X11216666Y-84355509D01*
X11216666Y-84355509D02*
X11278571Y-84417414D01*
X11278571Y-84417414D02*
X11340476Y-84541223D01*
X11340476Y-84541223D02*
X11340476Y-84665033D01*
X11340476Y-84665033D02*
X11278571Y-84788842D01*
X11278571Y-84788842D02*
X11216666Y-84850747D01*
X11216666Y-84850747D02*
X11092857Y-84912652D01*
X11092857Y-84912652D02*
X10659523Y-84912652D01*
D10*
D11*
X11402380Y-135469795D02*
X11340476Y-135531700D01*
X11340476Y-135531700D02*
X11154761Y-135593604D01*
X11154761Y-135593604D02*
X11030952Y-135593604D01*
X11030952Y-135593604D02*
X10845238Y-135531700D01*
X10845238Y-135531700D02*
X10721428Y-135407890D01*
X10721428Y-135407890D02*
X10659523Y-135284080D01*
X10659523Y-135284080D02*
X10597619Y-135036461D01*
X10597619Y-135036461D02*
X10597619Y-134850747D01*
X10597619Y-134850747D02*
X10659523Y-134603128D01*
X10659523Y-134603128D02*
X10721428Y-134479319D01*
X10721428Y-134479319D02*
X10845238Y-134355509D01*
X10845238Y-134355509D02*
X11030952Y-134293604D01*
X11030952Y-134293604D02*
X11154761Y-134293604D01*
X11154761Y-134293604D02*
X11340476Y-134355509D01*
X11340476Y-134355509D02*
X11402380Y-134417414D01*
D10*
D11*
X10659523Y-185593604D02*
X10659523Y-184293604D01*
X10659523Y-184293604D02*
X10969047Y-184293604D01*
X10969047Y-184293604D02*
X11154761Y-184355509D01*
X11154761Y-184355509D02*
X11278571Y-184479319D01*
X11278571Y-184479319D02*
X11340476Y-184603128D01*
X11340476Y-184603128D02*
X11402380Y-184850747D01*
X11402380Y-184850747D02*
X11402380Y-185036461D01*
X11402380Y-185036461D02*
X11340476Y-185284080D01*
X11340476Y-185284080D02*
X11278571Y-185407890D01*
X11278571Y-185407890D02*
X11154761Y-185531700D01*
X11154761Y-185531700D02*
X10969047Y-185593604D01*
X10969047Y-185593604D02*
X10659523Y-185593604D01*
D10*
D11*
X10721428Y-234912652D02*
X11154762Y-234912652D01*
X11340476Y-235593604D02*
X10721428Y-235593604D01*
X10721428Y-235593604D02*
X10721428Y-234293604D01*
X10721428Y-234293604D02*
X11340476Y-234293604D01*
D10*
D11*
X421800000Y-60000000D02*
X419800000Y-60000000D01*
D10*
D11*
X421800000Y-110000000D02*
X419800000Y-110000000D01*
D10*
D11*
X421800000Y-160000000D02*
X419800000Y-160000000D01*
D10*
D11*
X421800000Y-210000000D02*
X419800000Y-210000000D01*
D10*
D11*
X421800000Y-260000000D02*
X419800000Y-260000000D01*
D10*
D11*
X420490476Y-35222176D02*
X421109523Y-35222176D01*
X420366666Y-35593604D02*
X420799999Y-34293604D01*
X420799999Y-34293604D02*
X421233333Y-35593604D01*
D10*
D11*
X420892857Y-84912652D02*
X421078571Y-84974557D01*
X421078571Y-84974557D02*
X421140476Y-85036461D01*
X421140476Y-85036461D02*
X421202380Y-85160271D01*
X421202380Y-85160271D02*
X421202380Y-85345985D01*
X421202380Y-85345985D02*
X421140476Y-85469795D01*
X421140476Y-85469795D02*
X421078571Y-85531700D01*
X421078571Y-85531700D02*
X420954761Y-85593604D01*
X420954761Y-85593604D02*
X420459523Y-85593604D01*
X420459523Y-85593604D02*
X420459523Y-84293604D01*
X420459523Y-84293604D02*
X420892857Y-84293604D01*
X420892857Y-84293604D02*
X421016666Y-84355509D01*
X421016666Y-84355509D02*
X421078571Y-84417414D01*
X421078571Y-84417414D02*
X421140476Y-84541223D01*
X421140476Y-84541223D02*
X421140476Y-84665033D01*
X421140476Y-84665033D02*
X421078571Y-84788842D01*
X421078571Y-84788842D02*
X421016666Y-84850747D01*
X421016666Y-84850747D02*
X420892857Y-84912652D01*
X420892857Y-84912652D02*
X420459523Y-84912652D01*
D10*
D11*
X421202380Y-135469795D02*
X421140476Y-135531700D01*
X421140476Y-135531700D02*
X420954761Y-135593604D01*
X420954761Y-135593604D02*
X420830952Y-135593604D01*
X420830952Y-135593604D02*
X420645238Y-135531700D01*
X420645238Y-135531700D02*
X420521428Y-135407890D01*
X420521428Y-135407890D02*
X420459523Y-135284080D01*
X420459523Y-135284080D02*
X420397619Y-135036461D01*
X420397619Y-135036461D02*
X420397619Y-134850747D01*
X420397619Y-134850747D02*
X420459523Y-134603128D01*
X420459523Y-134603128D02*
X420521428Y-134479319D01*
X420521428Y-134479319D02*
X420645238Y-134355509D01*
X420645238Y-134355509D02*
X420830952Y-134293604D01*
X420830952Y-134293604D02*
X420954761Y-134293604D01*
X420954761Y-134293604D02*
X421140476Y-134355509D01*
X421140476Y-134355509D02*
X421202380Y-134417414D01*
D10*
D11*
X420459523Y-185593604D02*
X420459523Y-184293604D01*
X420459523Y-184293604D02*
X420769047Y-184293604D01*
X420769047Y-184293604D02*
X420954761Y-184355509D01*
X420954761Y-184355509D02*
X421078571Y-184479319D01*
X421078571Y-184479319D02*
X421140476Y-184603128D01*
X421140476Y-184603128D02*
X421202380Y-184850747D01*
X421202380Y-184850747D02*
X421202380Y-185036461D01*
X421202380Y-185036461D02*
X421140476Y-185284080D01*
X421140476Y-185284080D02*
X421078571Y-185407890D01*
X421078571Y-185407890D02*
X420954761Y-185531700D01*
X420954761Y-185531700D02*
X420769047Y-185593604D01*
X420769047Y-185593604D02*
X420459523Y-185593604D01*
D10*
D11*
X420521428Y-234912652D02*
X420954762Y-234912652D01*
X421140476Y-235593604D02*
X420521428Y-235593604D01*
X420521428Y-235593604D02*
X420521428Y-234293604D01*
X420521428Y-234293604D02*
X421140476Y-234293604D01*
D10*
D11*
X335255826Y-263186128D02*
X335255826Y-261686128D01*
X335255826Y-261686128D02*
X335612969Y-261686128D01*
X335612969Y-261686128D02*
X335827255Y-261757557D01*
X335827255Y-261757557D02*
X335970112Y-261900414D01*
X335970112Y-261900414D02*
X336041541Y-262043271D01*
X336041541Y-262043271D02*
X336112969Y-262328985D01*
X336112969Y-262328985D02*
X336112969Y-262543271D01*
X336112969Y-262543271D02*
X336041541Y-262828985D01*
X336041541Y-262828985D02*
X335970112Y-262971842D01*
X335970112Y-262971842D02*
X335827255Y-263114700D01*
X335827255Y-263114700D02*
X335612969Y-263186128D01*
X335612969Y-263186128D02*
X335255826Y-263186128D01*
X337398684Y-263186128D02*
X337398684Y-262400414D01*
X337398684Y-262400414D02*
X337327255Y-262257557D01*
X337327255Y-262257557D02*
X337184398Y-262186128D01*
X337184398Y-262186128D02*
X336898684Y-262186128D01*
X336898684Y-262186128D02*
X336755826Y-262257557D01*
X337398684Y-263114700D02*
X337255826Y-263186128D01*
X337255826Y-263186128D02*
X336898684Y-263186128D01*
X336898684Y-263186128D02*
X336755826Y-263114700D01*
X336755826Y-263114700D02*
X336684398Y-262971842D01*
X336684398Y-262971842D02*
X336684398Y-262828985D01*
X336684398Y-262828985D02*
X336755826Y-262686128D01*
X336755826Y-262686128D02*
X336898684Y-262614700D01*
X336898684Y-262614700D02*
X337255826Y-262614700D01*
X337255826Y-262614700D02*
X337398684Y-262543271D01*
X337898684Y-262186128D02*
X338470112Y-262186128D01*
X338112969Y-261686128D02*
X338112969Y-262971842D01*
X338112969Y-262971842D02*
X338184398Y-263114700D01*
X338184398Y-263114700D02*
X338327255Y-263186128D01*
X338327255Y-263186128D02*
X338470112Y-263186128D01*
X339541541Y-263114700D02*
X339398684Y-263186128D01*
X339398684Y-263186128D02*
X339112970Y-263186128D01*
X339112970Y-263186128D02*
X338970112Y-263114700D01*
X338970112Y-263114700D02*
X338898684Y-262971842D01*
X338898684Y-262971842D02*
X338898684Y-262400414D01*
X338898684Y-262400414D02*
X338970112Y-262257557D01*
X338970112Y-262257557D02*
X339112970Y-262186128D01*
X339112970Y-262186128D02*
X339398684Y-262186128D01*
X339398684Y-262186128D02*
X339541541Y-262257557D01*
X339541541Y-262257557D02*
X339612970Y-262400414D01*
X339612970Y-262400414D02*
X339612970Y-262543271D01*
X339612970Y-262543271D02*
X338898684Y-262686128D01*
X340255826Y-263043271D02*
X340327255Y-263114700D01*
X340327255Y-263114700D02*
X340255826Y-263186128D01*
X340255826Y-263186128D02*
X340184398Y-263114700D01*
X340184398Y-263114700D02*
X340255826Y-263043271D01*
X340255826Y-263043271D02*
X340255826Y-263186128D01*
X340255826Y-262257557D02*
X340327255Y-262328985D01*
X340327255Y-262328985D02*
X340255826Y-262400414D01*
X340255826Y-262400414D02*
X340184398Y-262328985D01*
X340184398Y-262328985D02*
X340255826Y-262257557D01*
X340255826Y-262257557D02*
X340255826Y-262400414D01*
X342041541Y-261828985D02*
X342112969Y-261757557D01*
X342112969Y-261757557D02*
X342255827Y-261686128D01*
X342255827Y-261686128D02*
X342612969Y-261686128D01*
X342612969Y-261686128D02*
X342755827Y-261757557D01*
X342755827Y-261757557D02*
X342827255Y-261828985D01*
X342827255Y-261828985D02*
X342898684Y-261971842D01*
X342898684Y-261971842D02*
X342898684Y-262114700D01*
X342898684Y-262114700D02*
X342827255Y-262328985D01*
X342827255Y-262328985D02*
X341970112Y-263186128D01*
X341970112Y-263186128D02*
X342898684Y-263186128D01*
X343827255Y-261686128D02*
X343970112Y-261686128D01*
X343970112Y-261686128D02*
X344112969Y-261757557D01*
X344112969Y-261757557D02*
X344184398Y-261828985D01*
X344184398Y-261828985D02*
X344255826Y-261971842D01*
X344255826Y-261971842D02*
X344327255Y-262257557D01*
X344327255Y-262257557D02*
X344327255Y-262614700D01*
X344327255Y-262614700D02*
X344255826Y-262900414D01*
X344255826Y-262900414D02*
X344184398Y-263043271D01*
X344184398Y-263043271D02*
X344112969Y-263114700D01*
X344112969Y-263114700D02*
X343970112Y-263186128D01*
X343970112Y-263186128D02*
X343827255Y-263186128D01*
X343827255Y-263186128D02*
X343684398Y-263114700D01*
X343684398Y-263114700D02*
X343612969Y-263043271D01*
X343612969Y-263043271D02*
X343541540Y-262900414D01*
X343541540Y-262900414D02*
X343470112Y-262614700D01*
X343470112Y-262614700D02*
X343470112Y-262257557D01*
X343470112Y-262257557D02*
X343541540Y-261971842D01*
X343541540Y-261971842D02*
X343612969Y-261828985D01*
X343612969Y-261828985D02*
X343684398Y-261757557D01*
X343684398Y-261757557D02*
X343827255Y-261686128D01*
X344898683Y-261828985D02*
X344970111Y-261757557D01*
X344970111Y-261757557D02*
X345112969Y-261686128D01*
X345112969Y-261686128D02*
X345470111Y-261686128D01*
X345470111Y-261686128D02*
X345612969Y-261757557D01*
X345612969Y-261757557D02*
X345684397Y-261828985D01*
X345684397Y-261828985D02*
X345755826Y-261971842D01*
X345755826Y-261971842D02*
X345755826Y-262114700D01*
X345755826Y-262114700D02*
X345684397Y-262328985D01*
X345684397Y-262328985D02*
X344827254Y-263186128D01*
X344827254Y-263186128D02*
X345755826Y-263186128D01*
X346255825Y-261686128D02*
X347184397Y-261686128D01*
X347184397Y-261686128D02*
X346684397Y-262257557D01*
X346684397Y-262257557D02*
X346898682Y-262257557D01*
X346898682Y-262257557D02*
X347041540Y-262328985D01*
X347041540Y-262328985D02*
X347112968Y-262400414D01*
X347112968Y-262400414D02*
X347184397Y-262543271D01*
X347184397Y-262543271D02*
X347184397Y-262900414D01*
X347184397Y-262900414D02*
X347112968Y-263043271D01*
X347112968Y-263043271D02*
X347041540Y-263114700D01*
X347041540Y-263114700D02*
X346898682Y-263186128D01*
X346898682Y-263186128D02*
X346470111Y-263186128D01*
X346470111Y-263186128D02*
X346327254Y-263114700D01*
X346327254Y-263114700D02*
X346255825Y-263043271D01*
X347827253Y-262614700D02*
X348970111Y-262614700D01*
X350470111Y-263186128D02*
X349612968Y-263186128D01*
X350041539Y-263186128D02*
X350041539Y-261686128D01*
X350041539Y-261686128D02*
X349898682Y-261900414D01*
X349898682Y-261900414D02*
X349755825Y-262043271D01*
X349755825Y-262043271D02*
X349612968Y-262114700D01*
X351898682Y-263186128D02*
X351041539Y-263186128D01*
X351470110Y-263186128D02*
X351470110Y-261686128D01*
X351470110Y-261686128D02*
X351327253Y-261900414D01*
X351327253Y-261900414D02*
X351184396Y-262043271D01*
X351184396Y-262043271D02*
X351041539Y-262114700D01*
X352541538Y-262614700D02*
X353684396Y-262614700D01*
X354327253Y-261828985D02*
X354398681Y-261757557D01*
X354398681Y-261757557D02*
X354541539Y-261686128D01*
X354541539Y-261686128D02*
X354898681Y-261686128D01*
X354898681Y-261686128D02*
X355041539Y-261757557D01*
X355041539Y-261757557D02*
X355112967Y-261828985D01*
X355112967Y-261828985D02*
X355184396Y-261971842D01*
X355184396Y-261971842D02*
X355184396Y-262114700D01*
X355184396Y-262114700D02*
X355112967Y-262328985D01*
X355112967Y-262328985D02*
X354255824Y-263186128D01*
X354255824Y-263186128D02*
X355184396Y-263186128D01*
X356541538Y-261686128D02*
X355827252Y-261686128D01*
X355827252Y-261686128D02*
X355755824Y-262400414D01*
X355755824Y-262400414D02*
X355827252Y-262328985D01*
X355827252Y-262328985D02*
X355970110Y-262257557D01*
X355970110Y-262257557D02*
X356327252Y-262257557D01*
X356327252Y-262257557D02*
X356470110Y-262328985D01*
X356470110Y-262328985D02*
X356541538Y-262400414D01*
X356541538Y-262400414D02*
X356612967Y-262543271D01*
X356612967Y-262543271D02*
X356612967Y-262900414D01*
X356612967Y-262900414D02*
X356541538Y-263043271D01*
X356541538Y-263043271D02*
X356470110Y-263114700D01*
X356470110Y-263114700D02*
X356327252Y-263186128D01*
X356327252Y-263186128D02*
X355970110Y-263186128D01*
X355970110Y-263186128D02*
X355827252Y-263114700D01*
X355827252Y-263114700D02*
X355755824Y-263043271D01*
D10*
D11*
X311800000Y-263900000D02*
X419800000Y-263900000D01*
D10*
D11*
X313255826Y-265986128D02*
X313255826Y-264486128D01*
X314112969Y-265986128D02*
X313470112Y-265128985D01*
X314112969Y-264486128D02*
X313255826Y-265343271D01*
X314755826Y-265986128D02*
X314755826Y-264986128D01*
X314755826Y-264486128D02*
X314684398Y-264557557D01*
X314684398Y-264557557D02*
X314755826Y-264628985D01*
X314755826Y-264628985D02*
X314827255Y-264557557D01*
X314827255Y-264557557D02*
X314755826Y-264486128D01*
X314755826Y-264486128D02*
X314755826Y-264628985D01*
X316327255Y-265843271D02*
X316255827Y-265914700D01*
X316255827Y-265914700D02*
X316041541Y-265986128D01*
X316041541Y-265986128D02*
X315898684Y-265986128D01*
X315898684Y-265986128D02*
X315684398Y-265914700D01*
X315684398Y-265914700D02*
X315541541Y-265771842D01*
X315541541Y-265771842D02*
X315470112Y-265628985D01*
X315470112Y-265628985D02*
X315398684Y-265343271D01*
X315398684Y-265343271D02*
X315398684Y-265128985D01*
X315398684Y-265128985D02*
X315470112Y-264843271D01*
X315470112Y-264843271D02*
X315541541Y-264700414D01*
X315541541Y-264700414D02*
X315684398Y-264557557D01*
X315684398Y-264557557D02*
X315898684Y-264486128D01*
X315898684Y-264486128D02*
X316041541Y-264486128D01*
X316041541Y-264486128D02*
X316255827Y-264557557D01*
X316255827Y-264557557D02*
X316327255Y-264628985D01*
X317612970Y-265986128D02*
X317612970Y-265200414D01*
X317612970Y-265200414D02*
X317541541Y-265057557D01*
X317541541Y-265057557D02*
X317398684Y-264986128D01*
X317398684Y-264986128D02*
X317112970Y-264986128D01*
X317112970Y-264986128D02*
X316970112Y-265057557D01*
X317612970Y-265914700D02*
X317470112Y-265986128D01*
X317470112Y-265986128D02*
X317112970Y-265986128D01*
X317112970Y-265986128D02*
X316970112Y-265914700D01*
X316970112Y-265914700D02*
X316898684Y-265771842D01*
X316898684Y-265771842D02*
X316898684Y-265628985D01*
X316898684Y-265628985D02*
X316970112Y-265486128D01*
X316970112Y-265486128D02*
X317112970Y-265414700D01*
X317112970Y-265414700D02*
X317470112Y-265414700D01*
X317470112Y-265414700D02*
X317612970Y-265343271D01*
X318970113Y-265986128D02*
X318970113Y-264486128D01*
X318970113Y-265914700D02*
X318827255Y-265986128D01*
X318827255Y-265986128D02*
X318541541Y-265986128D01*
X318541541Y-265986128D02*
X318398684Y-265914700D01*
X318398684Y-265914700D02*
X318327255Y-265843271D01*
X318327255Y-265843271D02*
X318255827Y-265700414D01*
X318255827Y-265700414D02*
X318255827Y-265271842D01*
X318255827Y-265271842D02*
X318327255Y-265128985D01*
X318327255Y-265128985D02*
X318398684Y-265057557D01*
X318398684Y-265057557D02*
X318541541Y-264986128D01*
X318541541Y-264986128D02*
X318827255Y-264986128D01*
X318827255Y-264986128D02*
X318970113Y-265057557D01*
X320827255Y-265200414D02*
X321327255Y-265200414D01*
X321541541Y-265986128D02*
X320827255Y-265986128D01*
X320827255Y-265986128D02*
X320827255Y-264486128D01*
X320827255Y-264486128D02*
X321541541Y-264486128D01*
X322184398Y-265843271D02*
X322255827Y-265914700D01*
X322255827Y-265914700D02*
X322184398Y-265986128D01*
X322184398Y-265986128D02*
X322112970Y-265914700D01*
X322112970Y-265914700D02*
X322184398Y-265843271D01*
X322184398Y-265843271D02*
X322184398Y-265986128D01*
X322898684Y-265986128D02*
X322898684Y-264486128D01*
X322898684Y-264486128D02*
X323255827Y-264486128D01*
X323255827Y-264486128D02*
X323470113Y-264557557D01*
X323470113Y-264557557D02*
X323612970Y-264700414D01*
X323612970Y-264700414D02*
X323684399Y-264843271D01*
X323684399Y-264843271D02*
X323755827Y-265128985D01*
X323755827Y-265128985D02*
X323755827Y-265343271D01*
X323755827Y-265343271D02*
X323684399Y-265628985D01*
X323684399Y-265628985D02*
X323612970Y-265771842D01*
X323612970Y-265771842D02*
X323470113Y-265914700D01*
X323470113Y-265914700D02*
X323255827Y-265986128D01*
X323255827Y-265986128D02*
X322898684Y-265986128D01*
X324398684Y-265843271D02*
X324470113Y-265914700D01*
X324470113Y-265914700D02*
X324398684Y-265986128D01*
X324398684Y-265986128D02*
X324327256Y-265914700D01*
X324327256Y-265914700D02*
X324398684Y-265843271D01*
X324398684Y-265843271D02*
X324398684Y-265986128D01*
X325041542Y-265557557D02*
X325755828Y-265557557D01*
X324898685Y-265986128D02*
X325398685Y-264486128D01*
X325398685Y-264486128D02*
X325898685Y-265986128D01*
X326398684Y-265843271D02*
X326470113Y-265914700D01*
X326470113Y-265914700D02*
X326398684Y-265986128D01*
X326398684Y-265986128D02*
X326327256Y-265914700D01*
X326327256Y-265914700D02*
X326398684Y-265843271D01*
X326398684Y-265843271D02*
X326398684Y-265986128D01*
X329398684Y-265986128D02*
X329398684Y-264486128D01*
X329541542Y-265414700D02*
X329970113Y-265986128D01*
X329970113Y-264986128D02*
X329398684Y-265557557D01*
X330612970Y-265986128D02*
X330612970Y-264986128D01*
X330612970Y-264486128D02*
X330541542Y-264557557D01*
X330541542Y-264557557D02*
X330612970Y-264628985D01*
X330612970Y-264628985D02*
X330684399Y-264557557D01*
X330684399Y-264557557D02*
X330612970Y-264486128D01*
X330612970Y-264486128D02*
X330612970Y-264628985D01*
X331970114Y-265914700D02*
X331827256Y-265986128D01*
X331827256Y-265986128D02*
X331541542Y-265986128D01*
X331541542Y-265986128D02*
X331398685Y-265914700D01*
X331398685Y-265914700D02*
X331327256Y-265843271D01*
X331327256Y-265843271D02*
X331255828Y-265700414D01*
X331255828Y-265700414D02*
X331255828Y-265271842D01*
X331255828Y-265271842D02*
X331327256Y-265128985D01*
X331327256Y-265128985D02*
X331398685Y-265057557D01*
X331398685Y-265057557D02*
X331541542Y-264986128D01*
X331541542Y-264986128D02*
X331827256Y-264986128D01*
X331827256Y-264986128D02*
X331970114Y-265057557D01*
X333255828Y-265986128D02*
X333255828Y-265200414D01*
X333255828Y-265200414D02*
X333184399Y-265057557D01*
X333184399Y-265057557D02*
X333041542Y-264986128D01*
X333041542Y-264986128D02*
X332755828Y-264986128D01*
X332755828Y-264986128D02*
X332612970Y-265057557D01*
X333255828Y-265914700D02*
X333112970Y-265986128D01*
X333112970Y-265986128D02*
X332755828Y-265986128D01*
X332755828Y-265986128D02*
X332612970Y-265914700D01*
X332612970Y-265914700D02*
X332541542Y-265771842D01*
X332541542Y-265771842D02*
X332541542Y-265628985D01*
X332541542Y-265628985D02*
X332612970Y-265486128D01*
X332612970Y-265486128D02*
X332755828Y-265414700D01*
X332755828Y-265414700D02*
X333112970Y-265414700D01*
X333112970Y-265414700D02*
X333255828Y-265343271D01*
X334612971Y-265986128D02*
X334612971Y-264486128D01*
X334612971Y-265914700D02*
X334470113Y-265986128D01*
X334470113Y-265986128D02*
X334184399Y-265986128D01*
X334184399Y-265986128D02*
X334041542Y-265914700D01*
X334041542Y-265914700D02*
X333970113Y-265843271D01*
X333970113Y-265843271D02*
X333898685Y-265700414D01*
X333898685Y-265700414D02*
X333898685Y-265271842D01*
X333898685Y-265271842D02*
X333970113Y-265128985D01*
X333970113Y-265128985D02*
X334041542Y-265057557D01*
X334041542Y-265057557D02*
X334184399Y-264986128D01*
X334184399Y-264986128D02*
X334470113Y-264986128D01*
X334470113Y-264986128D02*
X334612971Y-265057557D01*
X336327256Y-264486128D02*
X337327256Y-264486128D01*
X337327256Y-264486128D02*
X336684399Y-265986128D01*
X337898684Y-265843271D02*
X337970113Y-265914700D01*
X337970113Y-265914700D02*
X337898684Y-265986128D01*
X337898684Y-265986128D02*
X337827256Y-265914700D01*
X337827256Y-265914700D02*
X337898684Y-265843271D01*
X337898684Y-265843271D02*
X337898684Y-265986128D01*
X338898685Y-264486128D02*
X339041542Y-264486128D01*
X339041542Y-264486128D02*
X339184399Y-264557557D01*
X339184399Y-264557557D02*
X339255828Y-264628985D01*
X339255828Y-264628985D02*
X339327256Y-264771842D01*
X339327256Y-264771842D02*
X339398685Y-265057557D01*
X339398685Y-265057557D02*
X339398685Y-265414700D01*
X339398685Y-265414700D02*
X339327256Y-265700414D01*
X339327256Y-265700414D02*
X339255828Y-265843271D01*
X339255828Y-265843271D02*
X339184399Y-265914700D01*
X339184399Y-265914700D02*
X339041542Y-265986128D01*
X339041542Y-265986128D02*
X338898685Y-265986128D01*
X338898685Y-265986128D02*
X338755828Y-265914700D01*
X338755828Y-265914700D02*
X338684399Y-265843271D01*
X338684399Y-265843271D02*
X338612970Y-265700414D01*
X338612970Y-265700414D02*
X338541542Y-265414700D01*
X338541542Y-265414700D02*
X338541542Y-265057557D01*
X338541542Y-265057557D02*
X338612970Y-264771842D01*
X338612970Y-264771842D02*
X338684399Y-264628985D01*
X338684399Y-264628985D02*
X338755828Y-264557557D01*
X338755828Y-264557557D02*
X338898685Y-264486128D01*
X340041541Y-265843271D02*
X340112970Y-265914700D01*
X340112970Y-265914700D02*
X340041541Y-265986128D01*
X340041541Y-265986128D02*
X339970113Y-265914700D01*
X339970113Y-265914700D02*
X340041541Y-265843271D01*
X340041541Y-265843271D02*
X340041541Y-265986128D01*
X340612970Y-264486128D02*
X341612970Y-264486128D01*
X341612970Y-264486128D02*
X340970113Y-265986128D01*
D10*
D11*
X311800000Y-260900000D02*
X419800000Y-260900000D01*
D10*
D12*
X399211653Y-263178328D02*
X398711653Y-262464042D01*
X398354510Y-263178328D02*
X398354510Y-261678328D01*
X398354510Y-261678328D02*
X398925939Y-261678328D01*
X398925939Y-261678328D02*
X399068796Y-261749757D01*
X399068796Y-261749757D02*
X399140225Y-261821185D01*
X399140225Y-261821185D02*
X399211653Y-261964042D01*
X399211653Y-261964042D02*
X399211653Y-262178328D01*
X399211653Y-262178328D02*
X399140225Y-262321185D01*
X399140225Y-262321185D02*
X399068796Y-262392614D01*
X399068796Y-262392614D02*
X398925939Y-262464042D01*
X398925939Y-262464042D02*
X398354510Y-262464042D01*
X400425939Y-263106900D02*
X400283082Y-263178328D01*
X400283082Y-263178328D02*
X399997368Y-263178328D01*
X399997368Y-263178328D02*
X399854510Y-263106900D01*
X399854510Y-263106900D02*
X399783082Y-262964042D01*
X399783082Y-262964042D02*
X399783082Y-262392614D01*
X399783082Y-262392614D02*
X399854510Y-262249757D01*
X399854510Y-262249757D02*
X399997368Y-262178328D01*
X399997368Y-262178328D02*
X400283082Y-262178328D01*
X400283082Y-262178328D02*
X400425939Y-262249757D01*
X400425939Y-262249757D02*
X400497368Y-262392614D01*
X400497368Y-262392614D02*
X400497368Y-262535471D01*
X400497368Y-262535471D02*
X399783082Y-262678328D01*
X400997367Y-262178328D02*
X401354510Y-263178328D01*
X401354510Y-263178328D02*
X401711653Y-262178328D01*
X402283081Y-263035471D02*
X402354510Y-263106900D01*
X402354510Y-263106900D02*
X402283081Y-263178328D01*
X402283081Y-263178328D02*
X402211653Y-263106900D01*
X402211653Y-263106900D02*
X402283081Y-263035471D01*
X402283081Y-263035471D02*
X402283081Y-263178328D01*
X402283081Y-262249757D02*
X402354510Y-262321185D01*
X402354510Y-262321185D02*
X402283081Y-262392614D01*
X402283081Y-262392614D02*
X402211653Y-262321185D01*
X402211653Y-262321185D02*
X402283081Y-262249757D01*
X402283081Y-262249757D02*
X402283081Y-262392614D01*
X404068796Y-262749757D02*
X404783082Y-262749757D01*
X403925939Y-263178328D02*
X404425939Y-261678328D01*
X404425939Y-261678328D02*
X404925939Y-263178328D01*
D10*
D11*
X313184398Y-263114700D02*
X313398684Y-263186128D01*
X313398684Y-263186128D02*
X313755826Y-263186128D01*
X313755826Y-263186128D02*
X313898684Y-263114700D01*
X313898684Y-263114700D02*
X313970112Y-263043271D01*
X313970112Y-263043271D02*
X314041541Y-262900414D01*
X314041541Y-262900414D02*
X314041541Y-262757557D01*
X314041541Y-262757557D02*
X313970112Y-262614700D01*
X313970112Y-262614700D02*
X313898684Y-262543271D01*
X313898684Y-262543271D02*
X313755826Y-262471842D01*
X313755826Y-262471842D02*
X313470112Y-262400414D01*
X313470112Y-262400414D02*
X313327255Y-262328985D01*
X313327255Y-262328985D02*
X313255826Y-262257557D01*
X313255826Y-262257557D02*
X313184398Y-262114700D01*
X313184398Y-262114700D02*
X313184398Y-261971842D01*
X313184398Y-261971842D02*
X313255826Y-261828985D01*
X313255826Y-261828985D02*
X313327255Y-261757557D01*
X313327255Y-261757557D02*
X313470112Y-261686128D01*
X313470112Y-261686128D02*
X313827255Y-261686128D01*
X313827255Y-261686128D02*
X314041541Y-261757557D01*
X314684397Y-263186128D02*
X314684397Y-262186128D01*
X314684397Y-261686128D02*
X314612969Y-261757557D01*
X314612969Y-261757557D02*
X314684397Y-261828985D01*
X314684397Y-261828985D02*
X314755826Y-261757557D01*
X314755826Y-261757557D02*
X314684397Y-261686128D01*
X314684397Y-261686128D02*
X314684397Y-261828985D01*
X315255826Y-262186128D02*
X316041541Y-262186128D01*
X316041541Y-262186128D02*
X315255826Y-263186128D01*
X315255826Y-263186128D02*
X316041541Y-263186128D01*
X317184398Y-263114700D02*
X317041541Y-263186128D01*
X317041541Y-263186128D02*
X316755827Y-263186128D01*
X316755827Y-263186128D02*
X316612969Y-263114700D01*
X316612969Y-263114700D02*
X316541541Y-262971842D01*
X316541541Y-262971842D02*
X316541541Y-262400414D01*
X316541541Y-262400414D02*
X316612969Y-262257557D01*
X316612969Y-262257557D02*
X316755827Y-262186128D01*
X316755827Y-262186128D02*
X317041541Y-262186128D01*
X317041541Y-262186128D02*
X317184398Y-262257557D01*
X317184398Y-262257557D02*
X317255827Y-262400414D01*
X317255827Y-262400414D02*
X317255827Y-262543271D01*
X317255827Y-262543271D02*
X316541541Y-262686128D01*
X317898683Y-263043271D02*
X317970112Y-263114700D01*
X317970112Y-263114700D02*
X317898683Y-263186128D01*
X317898683Y-263186128D02*
X317827255Y-263114700D01*
X317827255Y-263114700D02*
X317898683Y-263043271D01*
X317898683Y-263043271D02*
X317898683Y-263186128D01*
X317898683Y-262257557D02*
X317970112Y-262328985D01*
X317970112Y-262328985D02*
X317898683Y-262400414D01*
X317898683Y-262400414D02*
X317827255Y-262328985D01*
X317827255Y-262328985D02*
X317898683Y-262257557D01*
X317898683Y-262257557D02*
X317898683Y-262400414D01*
X320255826Y-262400414D02*
X320470112Y-262471842D01*
X320470112Y-262471842D02*
X320541541Y-262543271D01*
X320541541Y-262543271D02*
X320612969Y-262686128D01*
X320612969Y-262686128D02*
X320612969Y-262900414D01*
X320612969Y-262900414D02*
X320541541Y-263043271D01*
X320541541Y-263043271D02*
X320470112Y-263114700D01*
X320470112Y-263114700D02*
X320327255Y-263186128D01*
X320327255Y-263186128D02*
X319755826Y-263186128D01*
X319755826Y-263186128D02*
X319755826Y-261686128D01*
X319755826Y-261686128D02*
X320255826Y-261686128D01*
X320255826Y-261686128D02*
X320398684Y-261757557D01*
X320398684Y-261757557D02*
X320470112Y-261828985D01*
X320470112Y-261828985D02*
X320541541Y-261971842D01*
X320541541Y-261971842D02*
X320541541Y-262114700D01*
X320541541Y-262114700D02*
X320470112Y-262257557D01*
X320470112Y-262257557D02*
X320398684Y-262328985D01*
X320398684Y-262328985D02*
X320255826Y-262400414D01*
X320255826Y-262400414D02*
X319755826Y-262400414D01*
D10*
D11*
X398255826Y-265986128D02*
X398255826Y-264486128D01*
X399612970Y-265986128D02*
X399612970Y-264486128D01*
X399612970Y-265914700D02*
X399470112Y-265986128D01*
X399470112Y-265986128D02*
X399184398Y-265986128D01*
X399184398Y-265986128D02*
X399041541Y-265914700D01*
X399041541Y-265914700D02*
X398970112Y-265843271D01*
X398970112Y-265843271D02*
X398898684Y-265700414D01*
X398898684Y-265700414D02*
X398898684Y-265271842D01*
X398898684Y-265271842D02*
X398970112Y-265128985D01*
X398970112Y-265128985D02*
X399041541Y-265057557D01*
X399041541Y-265057557D02*
X399184398Y-264986128D01*
X399184398Y-264986128D02*
X399470112Y-264986128D01*
X399470112Y-264986128D02*
X399612970Y-265057557D01*
X400327255Y-265843271D02*
X400398684Y-265914700D01*
X400398684Y-265914700D02*
X400327255Y-265986128D01*
X400327255Y-265986128D02*
X400255827Y-265914700D01*
X400255827Y-265914700D02*
X400327255Y-265843271D01*
X400327255Y-265843271D02*
X400327255Y-265986128D01*
X400327255Y-265057557D02*
X400398684Y-265128985D01*
X400398684Y-265128985D02*
X400327255Y-265200414D01*
X400327255Y-265200414D02*
X400255827Y-265128985D01*
X400255827Y-265128985D02*
X400327255Y-265057557D01*
X400327255Y-265057557D02*
X400327255Y-265200414D01*
X402970113Y-265986128D02*
X402112970Y-265986128D01*
X402541541Y-265986128D02*
X402541541Y-264486128D01*
X402541541Y-264486128D02*
X402398684Y-264700414D01*
X402398684Y-264700414D02*
X402255827Y-264843271D01*
X402255827Y-264843271D02*
X402112970Y-264914700D01*
X404684398Y-264414700D02*
X403398684Y-266343271D01*
X405970113Y-265986128D02*
X405112970Y-265986128D01*
X405541541Y-265986128D02*
X405541541Y-264486128D01*
X405541541Y-264486128D02*
X405398684Y-264700414D01*
X405398684Y-264700414D02*
X405255827Y-264843271D01*
X405255827Y-264843271D02*
X405112970Y-264914700D01*
D10*
D11*
X311800000Y-256900000D02*
X419800000Y-256900000D01*
D10*
D13*
X313491728Y-257604438D02*
X314634585Y-257604438D01*
X313813157Y-259604438D02*
X314063157Y-257604438D01*
X315051252Y-259604438D02*
X315217919Y-258271104D01*
X315301252Y-257604438D02*
X315194109Y-257699676D01*
X315194109Y-257699676D02*
X315277443Y-257794914D01*
X315277443Y-257794914D02*
X315384586Y-257699676D01*
X315384586Y-257699676D02*
X315301252Y-257604438D01*
X315301252Y-257604438D02*
X315277443Y-257794914D01*
X315884586Y-258271104D02*
X316646490Y-258271104D01*
X316253633Y-257604438D02*
X316039348Y-259318723D01*
X316039348Y-259318723D02*
X316110776Y-259509200D01*
X316110776Y-259509200D02*
X316289348Y-259604438D01*
X316289348Y-259604438D02*
X316479824Y-259604438D01*
X317432205Y-259604438D02*
X317253633Y-259509200D01*
X317253633Y-259509200D02*
X317182205Y-259318723D01*
X317182205Y-259318723D02*
X317396490Y-257604438D01*
X318967919Y-259509200D02*
X318765538Y-259604438D01*
X318765538Y-259604438D02*
X318384585Y-259604438D01*
X318384585Y-259604438D02*
X318206014Y-259509200D01*
X318206014Y-259509200D02*
X318134585Y-259318723D01*
X318134585Y-259318723D02*
X318229824Y-258556819D01*
X318229824Y-258556819D02*
X318348871Y-258366342D01*
X318348871Y-258366342D02*
X318551252Y-258271104D01*
X318551252Y-258271104D02*
X318932204Y-258271104D01*
X318932204Y-258271104D02*
X319110776Y-258366342D01*
X319110776Y-258366342D02*
X319182204Y-258556819D01*
X319182204Y-258556819D02*
X319158395Y-258747295D01*
X319158395Y-258747295D02*
X318182204Y-258937771D01*
X319932205Y-259413961D02*
X320015538Y-259509200D01*
X320015538Y-259509200D02*
X319908395Y-259604438D01*
X319908395Y-259604438D02*
X319825062Y-259509200D01*
X319825062Y-259509200D02*
X319932205Y-259413961D01*
X319932205Y-259413961D02*
X319908395Y-259604438D01*
X320063157Y-258366342D02*
X320146490Y-258461580D01*
X320146490Y-258461580D02*
X320039348Y-258556819D01*
X320039348Y-258556819D02*
X319956014Y-258461580D01*
X319956014Y-258461580D02*
X320063157Y-258366342D01*
X320063157Y-258366342D02*
X320039348Y-258556819D01*
X322360777Y-259033009D02*
X323313158Y-259033009D01*
X322098872Y-259604438D02*
X323015539Y-257604438D01*
X323015539Y-257604438D02*
X323432205Y-259604438D01*
X324098872Y-259604438D02*
X324348872Y-257604438D01*
X324348872Y-257604438D02*
X324825063Y-257604438D01*
X324825063Y-257604438D02*
X325098872Y-257699676D01*
X325098872Y-257699676D02*
X325265539Y-257890152D01*
X325265539Y-257890152D02*
X325336967Y-258080628D01*
X325336967Y-258080628D02*
X325384587Y-258461580D01*
X325384587Y-258461580D02*
X325348872Y-258747295D01*
X325348872Y-258747295D02*
X325206015Y-259128247D01*
X325206015Y-259128247D02*
X325086967Y-259318723D01*
X325086967Y-259318723D02*
X324872682Y-259509200D01*
X324872682Y-259509200D02*
X324575063Y-259604438D01*
X324575063Y-259604438D02*
X324098872Y-259604438D01*
X326015539Y-259509200D02*
X326289348Y-259604438D01*
X326289348Y-259604438D02*
X326765539Y-259604438D01*
X326765539Y-259604438D02*
X326967920Y-259509200D01*
X326967920Y-259509200D02*
X327075063Y-259413961D01*
X327075063Y-259413961D02*
X327194110Y-259223485D01*
X327194110Y-259223485D02*
X327217920Y-259033009D01*
X327217920Y-259033009D02*
X327146491Y-258842533D01*
X327146491Y-258842533D02*
X327063158Y-258747295D01*
X327063158Y-258747295D02*
X326884587Y-258652057D01*
X326884587Y-258652057D02*
X326515539Y-258556819D01*
X326515539Y-258556819D02*
X326336967Y-258461580D01*
X326336967Y-258461580D02*
X326253634Y-258366342D01*
X326253634Y-258366342D02*
X326182206Y-258175866D01*
X326182206Y-258175866D02*
X326206015Y-257985390D01*
X326206015Y-257985390D02*
X326325063Y-257794914D01*
X326325063Y-257794914D02*
X326432206Y-257699676D01*
X326432206Y-257699676D02*
X326634587Y-257604438D01*
X326634587Y-257604438D02*
X327110777Y-257604438D01*
X327110777Y-257604438D02*
X327384587Y-257699676D01*
X328801253Y-258556819D02*
X329075063Y-258652057D01*
X329075063Y-258652057D02*
X329158396Y-258747295D01*
X329158396Y-258747295D02*
X329229825Y-258937771D01*
X329229825Y-258937771D02*
X329194110Y-259223485D01*
X329194110Y-259223485D02*
X329075063Y-259413961D01*
X329075063Y-259413961D02*
X328967920Y-259509200D01*
X328967920Y-259509200D02*
X328765539Y-259604438D01*
X328765539Y-259604438D02*
X328003634Y-259604438D01*
X328003634Y-259604438D02*
X328253634Y-257604438D01*
X328253634Y-257604438D02*
X328920301Y-257604438D01*
X328920301Y-257604438D02*
X329098872Y-257699676D01*
X329098872Y-257699676D02*
X329182206Y-257794914D01*
X329182206Y-257794914D02*
X329253634Y-257985390D01*
X329253634Y-257985390D02*
X329229825Y-258175866D01*
X329229825Y-258175866D02*
X329110777Y-258366342D01*
X329110777Y-258366342D02*
X329003634Y-258461580D01*
X329003634Y-258461580D02*
X328801253Y-258556819D01*
X328801253Y-258556819D02*
X328134587Y-258556819D01*
X330777444Y-259509200D02*
X330575063Y-259604438D01*
X330575063Y-259604438D02*
X330194110Y-259604438D01*
X330194110Y-259604438D02*
X330015539Y-259509200D01*
X330015539Y-259509200D02*
X329944110Y-259318723D01*
X329944110Y-259318723D02*
X330039349Y-258556819D01*
X330039349Y-258556819D02*
X330158396Y-258366342D01*
X330158396Y-258366342D02*
X330360777Y-258271104D01*
X330360777Y-258271104D02*
X330741729Y-258271104D01*
X330741729Y-258271104D02*
X330920301Y-258366342D01*
X330920301Y-258366342D02*
X330991729Y-258556819D01*
X330991729Y-258556819D02*
X330967920Y-258747295D01*
X330967920Y-258747295D02*
X329991729Y-258937771D01*
X332491730Y-259509200D02*
X332289349Y-259604438D01*
X332289349Y-259604438D02*
X331908396Y-259604438D01*
X331908396Y-259604438D02*
X331729825Y-259509200D01*
X331729825Y-259509200D02*
X331658396Y-259318723D01*
X331658396Y-259318723D02*
X331753635Y-258556819D01*
X331753635Y-258556819D02*
X331872682Y-258366342D01*
X331872682Y-258366342D02*
X332075063Y-258271104D01*
X332075063Y-258271104D02*
X332456015Y-258271104D01*
X332456015Y-258271104D02*
X332634587Y-258366342D01*
X332634587Y-258366342D02*
X332706015Y-258556819D01*
X332706015Y-258556819D02*
X332682206Y-258747295D01*
X332682206Y-258747295D02*
X331706015Y-258937771D01*
X336003635Y-259604438D02*
X334860778Y-259604438D01*
X335432207Y-259604438D02*
X335682207Y-257604438D01*
X335682207Y-257604438D02*
X335456016Y-257890152D01*
X335456016Y-257890152D02*
X335241731Y-258080628D01*
X335241731Y-258080628D02*
X335039350Y-258175866D01*
X337491731Y-257604438D02*
X337682207Y-257604438D01*
X337682207Y-257604438D02*
X337860778Y-257699676D01*
X337860778Y-257699676D02*
X337944112Y-257794914D01*
X337944112Y-257794914D02*
X338015540Y-257985390D01*
X338015540Y-257985390D02*
X338063159Y-258366342D01*
X338063159Y-258366342D02*
X338003635Y-258842533D01*
X338003635Y-258842533D02*
X337860778Y-259223485D01*
X337860778Y-259223485D02*
X337741731Y-259413961D01*
X337741731Y-259413961D02*
X337634588Y-259509200D01*
X337634588Y-259509200D02*
X337432207Y-259604438D01*
X337432207Y-259604438D02*
X337241731Y-259604438D01*
X337241731Y-259604438D02*
X337063159Y-259509200D01*
X337063159Y-259509200D02*
X336979826Y-259413961D01*
X336979826Y-259413961D02*
X336908397Y-259223485D01*
X336908397Y-259223485D02*
X336860778Y-258842533D01*
X336860778Y-258842533D02*
X336920302Y-258366342D01*
X336920302Y-258366342D02*
X337063159Y-257985390D01*
X337063159Y-257985390D02*
X337182207Y-257794914D01*
X337182207Y-257794914D02*
X337289350Y-257699676D01*
X337289350Y-257699676D02*
X337491731Y-257604438D01*
X338860778Y-259604438D02*
X339241731Y-259604438D01*
X339241731Y-259604438D02*
X339444112Y-259509200D01*
X339444112Y-259509200D02*
X339551255Y-259413961D01*
X339551255Y-259413961D02*
X339777445Y-259128247D01*
X339777445Y-259128247D02*
X339920302Y-258747295D01*
X339920302Y-258747295D02*
X340015540Y-257985390D01*
X340015540Y-257985390D02*
X339944112Y-257794914D01*
X339944112Y-257794914D02*
X339860778Y-257699676D01*
X339860778Y-257699676D02*
X339682207Y-257604438D01*
X339682207Y-257604438D02*
X339301255Y-257604438D01*
X339301255Y-257604438D02*
X339098874Y-257699676D01*
X339098874Y-257699676D02*
X338991731Y-257794914D01*
X338991731Y-257794914D02*
X338872683Y-257985390D01*
X338872683Y-257985390D02*
X338813159Y-258461580D01*
X338813159Y-258461580D02*
X338884588Y-258652057D01*
X338884588Y-258652057D02*
X338967921Y-258747295D01*
X338967921Y-258747295D02*
X339146493Y-258842533D01*
X339146493Y-258842533D02*
X339527445Y-258842533D01*
X339527445Y-258842533D02*
X339729826Y-258747295D01*
X339729826Y-258747295D02*
X339836969Y-258652057D01*
X339836969Y-258652057D02*
X339956016Y-258461580D01*
X341301255Y-257604438D02*
X341491731Y-257604438D01*
X341491731Y-257604438D02*
X341670302Y-257699676D01*
X341670302Y-257699676D02*
X341753636Y-257794914D01*
X341753636Y-257794914D02*
X341825064Y-257985390D01*
X341825064Y-257985390D02*
X341872683Y-258366342D01*
X341872683Y-258366342D02*
X341813159Y-258842533D01*
X341813159Y-258842533D02*
X341670302Y-259223485D01*
X341670302Y-259223485D02*
X341551255Y-259413961D01*
X341551255Y-259413961D02*
X341444112Y-259509200D01*
X341444112Y-259509200D02*
X341241731Y-259604438D01*
X341241731Y-259604438D02*
X341051255Y-259604438D01*
X341051255Y-259604438D02*
X340872683Y-259509200D01*
X340872683Y-259509200D02*
X340789350Y-259413961D01*
X340789350Y-259413961D02*
X340717921Y-259223485D01*
X340717921Y-259223485D02*
X340670302Y-258842533D01*
X340670302Y-258842533D02*
X340729826Y-258366342D01*
X340729826Y-258366342D02*
X340872683Y-257985390D01*
X340872683Y-257985390D02*
X340991731Y-257794914D01*
X340991731Y-257794914D02*
X341098874Y-257699676D01*
X341098874Y-257699676D02*
X341301255Y-257604438D01*
D10*
D11*
X313755826Y-255000414D02*
X313255826Y-255000414D01*
X313255826Y-255786128D02*
X313255826Y-254286128D01*
X313255826Y-254286128D02*
X313970112Y-254286128D01*
X314541540Y-255786128D02*
X314541540Y-254786128D01*
X314541540Y-254286128D02*
X314470112Y-254357557D01*
X314470112Y-254357557D02*
X314541540Y-254428985D01*
X314541540Y-254428985D02*
X314612969Y-254357557D01*
X314612969Y-254357557D02*
X314541540Y-254286128D01*
X314541540Y-254286128D02*
X314541540Y-254428985D01*
X315470112Y-255786128D02*
X315327255Y-255714700D01*
X315327255Y-255714700D02*
X315255826Y-255571842D01*
X315255826Y-255571842D02*
X315255826Y-254286128D01*
X316612969Y-255714700D02*
X316470112Y-255786128D01*
X316470112Y-255786128D02*
X316184398Y-255786128D01*
X316184398Y-255786128D02*
X316041540Y-255714700D01*
X316041540Y-255714700D02*
X315970112Y-255571842D01*
X315970112Y-255571842D02*
X315970112Y-255000414D01*
X315970112Y-255000414D02*
X316041540Y-254857557D01*
X316041540Y-254857557D02*
X316184398Y-254786128D01*
X316184398Y-254786128D02*
X316470112Y-254786128D01*
X316470112Y-254786128D02*
X316612969Y-254857557D01*
X316612969Y-254857557D02*
X316684398Y-255000414D01*
X316684398Y-255000414D02*
X316684398Y-255143271D01*
X316684398Y-255143271D02*
X315970112Y-255286128D01*
X317327254Y-255643271D02*
X317398683Y-255714700D01*
X317398683Y-255714700D02*
X317327254Y-255786128D01*
X317327254Y-255786128D02*
X317255826Y-255714700D01*
X317255826Y-255714700D02*
X317327254Y-255643271D01*
X317327254Y-255643271D02*
X317327254Y-255786128D01*
X317327254Y-254857557D02*
X317398683Y-254928985D01*
X317398683Y-254928985D02*
X317327254Y-255000414D01*
X317327254Y-255000414D02*
X317255826Y-254928985D01*
X317255826Y-254928985D02*
X317327254Y-254857557D01*
X317327254Y-254857557D02*
X317327254Y-255000414D01*
X319827255Y-255786128D02*
X319827255Y-255000414D01*
X319827255Y-255000414D02*
X319755826Y-254857557D01*
X319755826Y-254857557D02*
X319612969Y-254786128D01*
X319612969Y-254786128D02*
X319327255Y-254786128D01*
X319327255Y-254786128D02*
X319184397Y-254857557D01*
X319827255Y-255714700D02*
X319684397Y-255786128D01*
X319684397Y-255786128D02*
X319327255Y-255786128D01*
X319327255Y-255786128D02*
X319184397Y-255714700D01*
X319184397Y-255714700D02*
X319112969Y-255571842D01*
X319112969Y-255571842D02*
X319112969Y-255428985D01*
X319112969Y-255428985D02*
X319184397Y-255286128D01*
X319184397Y-255286128D02*
X319327255Y-255214700D01*
X319327255Y-255214700D02*
X319684397Y-255214700D01*
X319684397Y-255214700D02*
X319827255Y-255143271D01*
X321184398Y-255786128D02*
X321184398Y-254286128D01*
X321184398Y-255714700D02*
X321041540Y-255786128D01*
X321041540Y-255786128D02*
X320755826Y-255786128D01*
X320755826Y-255786128D02*
X320612969Y-255714700D01*
X320612969Y-255714700D02*
X320541540Y-255643271D01*
X320541540Y-255643271D02*
X320470112Y-255500414D01*
X320470112Y-255500414D02*
X320470112Y-255071842D01*
X320470112Y-255071842D02*
X320541540Y-254928985D01*
X320541540Y-254928985D02*
X320612969Y-254857557D01*
X320612969Y-254857557D02*
X320755826Y-254786128D01*
X320755826Y-254786128D02*
X321041540Y-254786128D01*
X321041540Y-254786128D02*
X321184398Y-254857557D01*
X321827255Y-255714700D02*
X321970112Y-255786128D01*
X321970112Y-255786128D02*
X322255826Y-255786128D01*
X322255826Y-255786128D02*
X322398683Y-255714700D01*
X322398683Y-255714700D02*
X322470112Y-255571842D01*
X322470112Y-255571842D02*
X322470112Y-255500414D01*
X322470112Y-255500414D02*
X322398683Y-255357557D01*
X322398683Y-255357557D02*
X322255826Y-255286128D01*
X322255826Y-255286128D02*
X322041541Y-255286128D01*
X322041541Y-255286128D02*
X321898683Y-255214700D01*
X321898683Y-255214700D02*
X321827255Y-255071842D01*
X321827255Y-255071842D02*
X321827255Y-255000414D01*
X321827255Y-255000414D02*
X321898683Y-254857557D01*
X321898683Y-254857557D02*
X322041541Y-254786128D01*
X322041541Y-254786128D02*
X322255826Y-254786128D01*
X322255826Y-254786128D02*
X322398683Y-254857557D01*
X323112969Y-255786128D02*
X323112969Y-254286128D01*
X323112969Y-254857557D02*
X323255827Y-254786128D01*
X323255827Y-254786128D02*
X323541541Y-254786128D01*
X323541541Y-254786128D02*
X323684398Y-254857557D01*
X323684398Y-254857557D02*
X323755827Y-254928985D01*
X323755827Y-254928985D02*
X323827255Y-255071842D01*
X323827255Y-255071842D02*
X323827255Y-255500414D01*
X323827255Y-255500414D02*
X323755827Y-255643271D01*
X323755827Y-255643271D02*
X323684398Y-255714700D01*
X323684398Y-255714700D02*
X323541541Y-255786128D01*
X323541541Y-255786128D02*
X323255827Y-255786128D01*
X323255827Y-255786128D02*
X323112969Y-255714700D01*
X325041541Y-255714700D02*
X324898684Y-255786128D01*
X324898684Y-255786128D02*
X324612970Y-255786128D01*
X324612970Y-255786128D02*
X324470112Y-255714700D01*
X324470112Y-255714700D02*
X324398684Y-255571842D01*
X324398684Y-255571842D02*
X324398684Y-255000414D01*
X324398684Y-255000414D02*
X324470112Y-254857557D01*
X324470112Y-254857557D02*
X324612970Y-254786128D01*
X324612970Y-254786128D02*
X324898684Y-254786128D01*
X324898684Y-254786128D02*
X325041541Y-254857557D01*
X325041541Y-254857557D02*
X325112970Y-255000414D01*
X325112970Y-255000414D02*
X325112970Y-255143271D01*
X325112970Y-255143271D02*
X324398684Y-255286128D01*
X326327255Y-255714700D02*
X326184398Y-255786128D01*
X326184398Y-255786128D02*
X325898684Y-255786128D01*
X325898684Y-255786128D02*
X325755826Y-255714700D01*
X325755826Y-255714700D02*
X325684398Y-255571842D01*
X325684398Y-255571842D02*
X325684398Y-255000414D01*
X325684398Y-255000414D02*
X325755826Y-254857557D01*
X325755826Y-254857557D02*
X325898684Y-254786128D01*
X325898684Y-254786128D02*
X326184398Y-254786128D01*
X326184398Y-254786128D02*
X326327255Y-254857557D01*
X326327255Y-254857557D02*
X326398684Y-255000414D01*
X326398684Y-255000414D02*
X326398684Y-255143271D01*
X326398684Y-255143271D02*
X325684398Y-255286128D01*
X326684398Y-255928985D02*
X327827255Y-255928985D01*
X328970112Y-255786128D02*
X328112969Y-255786128D01*
X328541540Y-255786128D02*
X328541540Y-254286128D01*
X328541540Y-254286128D02*
X328398683Y-254500414D01*
X328398683Y-254500414D02*
X328255826Y-254643271D01*
X328255826Y-254643271D02*
X328112969Y-254714700D01*
X329898683Y-254286128D02*
X330041540Y-254286128D01*
X330041540Y-254286128D02*
X330184397Y-254357557D01*
X330184397Y-254357557D02*
X330255826Y-254428985D01*
X330255826Y-254428985D02*
X330327254Y-254571842D01*
X330327254Y-254571842D02*
X330398683Y-254857557D01*
X330398683Y-254857557D02*
X330398683Y-255214700D01*
X330398683Y-255214700D02*
X330327254Y-255500414D01*
X330327254Y-255500414D02*
X330255826Y-255643271D01*
X330255826Y-255643271D02*
X330184397Y-255714700D01*
X330184397Y-255714700D02*
X330041540Y-255786128D01*
X330041540Y-255786128D02*
X329898683Y-255786128D01*
X329898683Y-255786128D02*
X329755826Y-255714700D01*
X329755826Y-255714700D02*
X329684397Y-255643271D01*
X329684397Y-255643271D02*
X329612968Y-255500414D01*
X329612968Y-255500414D02*
X329541540Y-255214700D01*
X329541540Y-255214700D02*
X329541540Y-254857557D01*
X329541540Y-254857557D02*
X329612968Y-254571842D01*
X329612968Y-254571842D02*
X329684397Y-254428985D01*
X329684397Y-254428985D02*
X329755826Y-254357557D01*
X329755826Y-254357557D02*
X329898683Y-254286128D01*
X331112968Y-255786128D02*
X331398682Y-255786128D01*
X331398682Y-255786128D02*
X331541539Y-255714700D01*
X331541539Y-255714700D02*
X331612968Y-255643271D01*
X331612968Y-255643271D02*
X331755825Y-255428985D01*
X331755825Y-255428985D02*
X331827254Y-255143271D01*
X331827254Y-255143271D02*
X331827254Y-254571842D01*
X331827254Y-254571842D02*
X331755825Y-254428985D01*
X331755825Y-254428985D02*
X331684397Y-254357557D01*
X331684397Y-254357557D02*
X331541539Y-254286128D01*
X331541539Y-254286128D02*
X331255825Y-254286128D01*
X331255825Y-254286128D02*
X331112968Y-254357557D01*
X331112968Y-254357557D02*
X331041539Y-254428985D01*
X331041539Y-254428985D02*
X330970111Y-254571842D01*
X330970111Y-254571842D02*
X330970111Y-254928985D01*
X330970111Y-254928985D02*
X331041539Y-255071842D01*
X331041539Y-255071842D02*
X331112968Y-255143271D01*
X331112968Y-255143271D02*
X331255825Y-255214700D01*
X331255825Y-255214700D02*
X331541539Y-255214700D01*
X331541539Y-255214700D02*
X331684397Y-255143271D01*
X331684397Y-255143271D02*
X331755825Y-255071842D01*
X331755825Y-255071842D02*
X331827254Y-254928985D01*
X332755825Y-254286128D02*
X332898682Y-254286128D01*
X332898682Y-254286128D02*
X333041539Y-254357557D01*
X333041539Y-254357557D02*
X333112968Y-254428985D01*
X333112968Y-254428985D02*
X333184396Y-254571842D01*
X333184396Y-254571842D02*
X333255825Y-254857557D01*
X333255825Y-254857557D02*
X333255825Y-255214700D01*
X333255825Y-255214700D02*
X333184396Y-255500414D01*
X333184396Y-255500414D02*
X333112968Y-255643271D01*
X333112968Y-255643271D02*
X333041539Y-255714700D01*
X333041539Y-255714700D02*
X332898682Y-255786128D01*
X332898682Y-255786128D02*
X332755825Y-255786128D01*
X332755825Y-255786128D02*
X332612968Y-255714700D01*
X332612968Y-255714700D02*
X332541539Y-255643271D01*
X332541539Y-255643271D02*
X332470110Y-255500414D01*
X332470110Y-255500414D02*
X332398682Y-255214700D01*
X332398682Y-255214700D02*
X332398682Y-254857557D01*
X332398682Y-254857557D02*
X332470110Y-254571842D01*
X332470110Y-254571842D02*
X332541539Y-254428985D01*
X332541539Y-254428985D02*
X332612968Y-254357557D01*
X332612968Y-254357557D02*
X332755825Y-254286128D01*
X333898681Y-255643271D02*
X333970110Y-255714700D01*
X333970110Y-255714700D02*
X333898681Y-255786128D01*
X333898681Y-255786128D02*
X333827253Y-255714700D01*
X333827253Y-255714700D02*
X333898681Y-255643271D01*
X333898681Y-255643271D02*
X333898681Y-255786128D01*
X334612967Y-255786128D02*
X334612967Y-254286128D01*
X334755825Y-255214700D02*
X335184396Y-255786128D01*
X335184396Y-254786128D02*
X334612967Y-255357557D01*
X335827253Y-255786128D02*
X335827253Y-254786128D01*
X335827253Y-254286128D02*
X335755825Y-254357557D01*
X335755825Y-254357557D02*
X335827253Y-254428985D01*
X335827253Y-254428985D02*
X335898682Y-254357557D01*
X335898682Y-254357557D02*
X335827253Y-254286128D01*
X335827253Y-254286128D02*
X335827253Y-254428985D01*
X337184397Y-255714700D02*
X337041539Y-255786128D01*
X337041539Y-255786128D02*
X336755825Y-255786128D01*
X336755825Y-255786128D02*
X336612968Y-255714700D01*
X336612968Y-255714700D02*
X336541539Y-255643271D01*
X336541539Y-255643271D02*
X336470111Y-255500414D01*
X336470111Y-255500414D02*
X336470111Y-255071842D01*
X336470111Y-255071842D02*
X336541539Y-254928985D01*
X336541539Y-254928985D02*
X336612968Y-254857557D01*
X336612968Y-254857557D02*
X336755825Y-254786128D01*
X336755825Y-254786128D02*
X337041539Y-254786128D01*
X337041539Y-254786128D02*
X337184397Y-254857557D01*
X338470111Y-255786128D02*
X338470111Y-255000414D01*
X338470111Y-255000414D02*
X338398682Y-254857557D01*
X338398682Y-254857557D02*
X338255825Y-254786128D01*
X338255825Y-254786128D02*
X337970111Y-254786128D01*
X337970111Y-254786128D02*
X337827253Y-254857557D01*
X338470111Y-255714700D02*
X338327253Y-255786128D01*
X338327253Y-255786128D02*
X337970111Y-255786128D01*
X337970111Y-255786128D02*
X337827253Y-255714700D01*
X337827253Y-255714700D02*
X337755825Y-255571842D01*
X337755825Y-255571842D02*
X337755825Y-255428985D01*
X337755825Y-255428985D02*
X337827253Y-255286128D01*
X337827253Y-255286128D02*
X337970111Y-255214700D01*
X337970111Y-255214700D02*
X338327253Y-255214700D01*
X338327253Y-255214700D02*
X338470111Y-255143271D01*
X339827254Y-255786128D02*
X339827254Y-254286128D01*
X339827254Y-255714700D02*
X339684396Y-255786128D01*
X339684396Y-255786128D02*
X339398682Y-255786128D01*
X339398682Y-255786128D02*
X339255825Y-255714700D01*
X339255825Y-255714700D02*
X339184396Y-255643271D01*
X339184396Y-255643271D02*
X339112968Y-255500414D01*
X339112968Y-255500414D02*
X339112968Y-255071842D01*
X339112968Y-255071842D02*
X339184396Y-254928985D01*
X339184396Y-254928985D02*
X339255825Y-254857557D01*
X339255825Y-254857557D02*
X339398682Y-254786128D01*
X339398682Y-254786128D02*
X339684396Y-254786128D01*
X339684396Y-254786128D02*
X339827254Y-254857557D01*
X340184397Y-255928985D02*
X341327254Y-255928985D01*
X341684396Y-254786128D02*
X341684396Y-256286128D01*
X341684396Y-254857557D02*
X341827254Y-254786128D01*
X341827254Y-254786128D02*
X342112968Y-254786128D01*
X342112968Y-254786128D02*
X342255825Y-254857557D01*
X342255825Y-254857557D02*
X342327254Y-254928985D01*
X342327254Y-254928985D02*
X342398682Y-255071842D01*
X342398682Y-255071842D02*
X342398682Y-255500414D01*
X342398682Y-255500414D02*
X342327254Y-255643271D01*
X342327254Y-255643271D02*
X342255825Y-255714700D01*
X342255825Y-255714700D02*
X342112968Y-255786128D01*
X342112968Y-255786128D02*
X341827254Y-255786128D01*
X341827254Y-255786128D02*
X341684396Y-255714700D01*
X343684397Y-255714700D02*
X343541539Y-255786128D01*
X343541539Y-255786128D02*
X343255825Y-255786128D01*
X343255825Y-255786128D02*
X343112968Y-255714700D01*
X343112968Y-255714700D02*
X343041539Y-255643271D01*
X343041539Y-255643271D02*
X342970111Y-255500414D01*
X342970111Y-255500414D02*
X342970111Y-255071842D01*
X342970111Y-255071842D02*
X343041539Y-254928985D01*
X343041539Y-254928985D02*
X343112968Y-254857557D01*
X343112968Y-254857557D02*
X343255825Y-254786128D01*
X343255825Y-254786128D02*
X343541539Y-254786128D01*
X343541539Y-254786128D02*
X343684397Y-254857557D01*
X344327253Y-255786128D02*
X344327253Y-254286128D01*
X344327253Y-254857557D02*
X344470111Y-254786128D01*
X344470111Y-254786128D02*
X344755825Y-254786128D01*
X344755825Y-254786128D02*
X344898682Y-254857557D01*
X344898682Y-254857557D02*
X344970111Y-254928985D01*
X344970111Y-254928985D02*
X345041539Y-255071842D01*
X345041539Y-255071842D02*
X345041539Y-255500414D01*
X345041539Y-255500414D02*
X344970111Y-255643271D01*
X344970111Y-255643271D02*
X344898682Y-255714700D01*
X344898682Y-255714700D02*
X344755825Y-255786128D01*
X344755825Y-255786128D02*
X344470111Y-255786128D01*
X344470111Y-255786128D02*
X344327253Y-255714700D01*
D10*
D11*
X311800000Y-250900000D02*
X419800000Y-250900000D01*
D10*
D11*
X313184398Y-253014700D02*
X313398684Y-253086128D01*
X313398684Y-253086128D02*
X313755826Y-253086128D01*
X313755826Y-253086128D02*
X313898684Y-253014700D01*
X313898684Y-253014700D02*
X313970112Y-252943271D01*
X313970112Y-252943271D02*
X314041541Y-252800414D01*
X314041541Y-252800414D02*
X314041541Y-252657557D01*
X314041541Y-252657557D02*
X313970112Y-252514700D01*
X313970112Y-252514700D02*
X313898684Y-252443271D01*
X313898684Y-252443271D02*
X313755826Y-252371842D01*
X313755826Y-252371842D02*
X313470112Y-252300414D01*
X313470112Y-252300414D02*
X313327255Y-252228985D01*
X313327255Y-252228985D02*
X313255826Y-252157557D01*
X313255826Y-252157557D02*
X313184398Y-252014700D01*
X313184398Y-252014700D02*
X313184398Y-251871842D01*
X313184398Y-251871842D02*
X313255826Y-251728985D01*
X313255826Y-251728985D02*
X313327255Y-251657557D01*
X313327255Y-251657557D02*
X313470112Y-251586128D01*
X313470112Y-251586128D02*
X313827255Y-251586128D01*
X313827255Y-251586128D02*
X314041541Y-251657557D01*
X314684397Y-253086128D02*
X314684397Y-251586128D01*
X315327255Y-253086128D02*
X315327255Y-252300414D01*
X315327255Y-252300414D02*
X315255826Y-252157557D01*
X315255826Y-252157557D02*
X315112969Y-252086128D01*
X315112969Y-252086128D02*
X314898683Y-252086128D01*
X314898683Y-252086128D02*
X314755826Y-252157557D01*
X314755826Y-252157557D02*
X314684397Y-252228985D01*
X316612969Y-253014700D02*
X316470112Y-253086128D01*
X316470112Y-253086128D02*
X316184398Y-253086128D01*
X316184398Y-253086128D02*
X316041540Y-253014700D01*
X316041540Y-253014700D02*
X315970112Y-252871842D01*
X315970112Y-252871842D02*
X315970112Y-252300414D01*
X315970112Y-252300414D02*
X316041540Y-252157557D01*
X316041540Y-252157557D02*
X316184398Y-252086128D01*
X316184398Y-252086128D02*
X316470112Y-252086128D01*
X316470112Y-252086128D02*
X316612969Y-252157557D01*
X316612969Y-252157557D02*
X316684398Y-252300414D01*
X316684398Y-252300414D02*
X316684398Y-252443271D01*
X316684398Y-252443271D02*
X315970112Y-252586128D01*
X317898683Y-253014700D02*
X317755826Y-253086128D01*
X317755826Y-253086128D02*
X317470112Y-253086128D01*
X317470112Y-253086128D02*
X317327254Y-253014700D01*
X317327254Y-253014700D02*
X317255826Y-252871842D01*
X317255826Y-252871842D02*
X317255826Y-252300414D01*
X317255826Y-252300414D02*
X317327254Y-252157557D01*
X317327254Y-252157557D02*
X317470112Y-252086128D01*
X317470112Y-252086128D02*
X317755826Y-252086128D01*
X317755826Y-252086128D02*
X317898683Y-252157557D01*
X317898683Y-252157557D02*
X317970112Y-252300414D01*
X317970112Y-252300414D02*
X317970112Y-252443271D01*
X317970112Y-252443271D02*
X317255826Y-252586128D01*
X318398683Y-252086128D02*
X318970111Y-252086128D01*
X318612968Y-251586128D02*
X318612968Y-252871842D01*
X318612968Y-252871842D02*
X318684397Y-253014700D01*
X318684397Y-253014700D02*
X318827254Y-253086128D01*
X318827254Y-253086128D02*
X318970111Y-253086128D01*
X319470111Y-252943271D02*
X319541540Y-253014700D01*
X319541540Y-253014700D02*
X319470111Y-253086128D01*
X319470111Y-253086128D02*
X319398683Y-253014700D01*
X319398683Y-253014700D02*
X319470111Y-252943271D01*
X319470111Y-252943271D02*
X319470111Y-253086128D01*
X319470111Y-252157557D02*
X319541540Y-252228985D01*
X319541540Y-252228985D02*
X319470111Y-252300414D01*
X319470111Y-252300414D02*
X319398683Y-252228985D01*
X319398683Y-252228985D02*
X319470111Y-252157557D01*
X319470111Y-252157557D02*
X319470111Y-252300414D01*
D10*
D12*
X313354510Y-249078328D02*
X313354510Y-250578328D01*
X313354510Y-249149757D02*
X313497368Y-249078328D01*
X313497368Y-249078328D02*
X313783082Y-249078328D01*
X313783082Y-249078328D02*
X313925939Y-249149757D01*
X313925939Y-249149757D02*
X313997368Y-249221185D01*
X313997368Y-249221185D02*
X314068796Y-249364042D01*
X314068796Y-249364042D02*
X314068796Y-249792614D01*
X314068796Y-249792614D02*
X313997368Y-249935471D01*
X313997368Y-249935471D02*
X313925939Y-250006900D01*
X313925939Y-250006900D02*
X313783082Y-250078328D01*
X313783082Y-250078328D02*
X313497368Y-250078328D01*
X313497368Y-250078328D02*
X313354510Y-250006900D01*
X315354511Y-250078328D02*
X315354511Y-249292614D01*
X315354511Y-249292614D02*
X315283082Y-249149757D01*
X315283082Y-249149757D02*
X315140225Y-249078328D01*
X315140225Y-249078328D02*
X314854511Y-249078328D01*
X314854511Y-249078328D02*
X314711653Y-249149757D01*
X315354511Y-250006900D02*
X315211653Y-250078328D01*
X315211653Y-250078328D02*
X314854511Y-250078328D01*
X314854511Y-250078328D02*
X314711653Y-250006900D01*
X314711653Y-250006900D02*
X314640225Y-249864042D01*
X314640225Y-249864042D02*
X314640225Y-249721185D01*
X314640225Y-249721185D02*
X314711653Y-249578328D01*
X314711653Y-249578328D02*
X314854511Y-249506900D01*
X314854511Y-249506900D02*
X315211653Y-249506900D01*
X315211653Y-249506900D02*
X315354511Y-249435471D01*
X316068796Y-249078328D02*
X316068796Y-250078328D01*
X316068796Y-249221185D02*
X316140225Y-249149757D01*
X316140225Y-249149757D02*
X316283082Y-249078328D01*
X316283082Y-249078328D02*
X316497368Y-249078328D01*
X316497368Y-249078328D02*
X316640225Y-249149757D01*
X316640225Y-249149757D02*
X316711654Y-249292614D01*
X316711654Y-249292614D02*
X316711654Y-250078328D01*
X317211654Y-249078328D02*
X317783082Y-249078328D01*
X317425939Y-248578328D02*
X317425939Y-249864042D01*
X317425939Y-249864042D02*
X317497368Y-250006900D01*
X317497368Y-250006900D02*
X317640225Y-250078328D01*
X317640225Y-250078328D02*
X317783082Y-250078328D01*
X318211654Y-250006900D02*
X318354511Y-250078328D01*
X318354511Y-250078328D02*
X318640225Y-250078328D01*
X318640225Y-250078328D02*
X318783082Y-250006900D01*
X318783082Y-250006900D02*
X318854511Y-249864042D01*
X318854511Y-249864042D02*
X318854511Y-249792614D01*
X318854511Y-249792614D02*
X318783082Y-249649757D01*
X318783082Y-249649757D02*
X318640225Y-249578328D01*
X318640225Y-249578328D02*
X318425940Y-249578328D01*
X318425940Y-249578328D02*
X318283082Y-249506900D01*
X318283082Y-249506900D02*
X318211654Y-249364042D01*
X318211654Y-249364042D02*
X318211654Y-249292614D01*
X318211654Y-249292614D02*
X318283082Y-249149757D01*
X318283082Y-249149757D02*
X318425940Y-249078328D01*
X318425940Y-249078328D02*
X318640225Y-249078328D01*
X318640225Y-249078328D02*
X318783082Y-249149757D01*
X319283083Y-249078328D02*
X319854511Y-249078328D01*
X319497368Y-250078328D02*
X319497368Y-248792614D01*
X319497368Y-248792614D02*
X319568797Y-248649757D01*
X319568797Y-248649757D02*
X319711654Y-248578328D01*
X319711654Y-248578328D02*
X319854511Y-248578328D01*
X320568797Y-250078328D02*
X320425940Y-250006900D01*
X320425940Y-250006900D02*
X320354511Y-249935471D01*
X320354511Y-249935471D02*
X320283083Y-249792614D01*
X320283083Y-249792614D02*
X320283083Y-249364042D01*
X320283083Y-249364042D02*
X320354511Y-249221185D01*
X320354511Y-249221185D02*
X320425940Y-249149757D01*
X320425940Y-249149757D02*
X320568797Y-249078328D01*
X320568797Y-249078328D02*
X320783083Y-249078328D01*
X320783083Y-249078328D02*
X320925940Y-249149757D01*
X320925940Y-249149757D02*
X320997369Y-249221185D01*
X320997369Y-249221185D02*
X321068797Y-249364042D01*
X321068797Y-249364042D02*
X321068797Y-249792614D01*
X321068797Y-249792614D02*
X320997369Y-249935471D01*
X320997369Y-249935471D02*
X320925940Y-250006900D01*
X320925940Y-250006900D02*
X320783083Y-250078328D01*
X320783083Y-250078328D02*
X320568797Y-250078328D01*
X321711654Y-250078328D02*
X321711654Y-249078328D01*
X321711654Y-249364042D02*
X321783083Y-249221185D01*
X321783083Y-249221185D02*
X321854512Y-249149757D01*
X321854512Y-249149757D02*
X321997369Y-249078328D01*
X321997369Y-249078328D02*
X322140226Y-249078328D01*
X322640225Y-250078328D02*
X322640225Y-248578328D01*
X322640225Y-249149757D02*
X322783083Y-249078328D01*
X322783083Y-249078328D02*
X323068797Y-249078328D01*
X323068797Y-249078328D02*
X323211654Y-249149757D01*
X323211654Y-249149757D02*
X323283083Y-249221185D01*
X323283083Y-249221185D02*
X323354511Y-249364042D01*
X323354511Y-249364042D02*
X323354511Y-249792614D01*
X323354511Y-249792614D02*
X323283083Y-249935471D01*
X323283083Y-249935471D02*
X323211654Y-250006900D01*
X323211654Y-250006900D02*
X323068797Y-250078328D01*
X323068797Y-250078328D02*
X322783083Y-250078328D01*
X322783083Y-250078328D02*
X322640225Y-250006900D01*
X323997368Y-250078328D02*
X323997368Y-249078328D01*
X323997368Y-248578328D02*
X323925940Y-248649757D01*
X323925940Y-248649757D02*
X323997368Y-248721185D01*
X323997368Y-248721185D02*
X324068797Y-248649757D01*
X324068797Y-248649757D02*
X323997368Y-248578328D01*
X323997368Y-248578328D02*
X323997368Y-248721185D01*
X324711654Y-250078328D02*
X324711654Y-249078328D01*
X324711654Y-249364042D02*
X324783083Y-249221185D01*
X324783083Y-249221185D02*
X324854512Y-249149757D01*
X324854512Y-249149757D02*
X324997369Y-249078328D01*
X324997369Y-249078328D02*
X325140226Y-249078328D01*
X326283083Y-250078328D02*
X326283083Y-248578328D01*
X326283083Y-250006900D02*
X326140225Y-250078328D01*
X326140225Y-250078328D02*
X325854511Y-250078328D01*
X325854511Y-250078328D02*
X325711654Y-250006900D01*
X325711654Y-250006900D02*
X325640225Y-249935471D01*
X325640225Y-249935471D02*
X325568797Y-249792614D01*
X325568797Y-249792614D02*
X325568797Y-249364042D01*
X325568797Y-249364042D02*
X325640225Y-249221185D01*
X325640225Y-249221185D02*
X325711654Y-249149757D01*
X325711654Y-249149757D02*
X325854511Y-249078328D01*
X325854511Y-249078328D02*
X326140225Y-249078328D01*
X326140225Y-249078328D02*
X326283083Y-249149757D01*
X326925940Y-250006900D02*
X327068797Y-250078328D01*
X327068797Y-250078328D02*
X327354511Y-250078328D01*
X327354511Y-250078328D02*
X327497368Y-250006900D01*
X327497368Y-250006900D02*
X327568797Y-249864042D01*
X327568797Y-249864042D02*
X327568797Y-249792614D01*
X327568797Y-249792614D02*
X327497368Y-249649757D01*
X327497368Y-249649757D02*
X327354511Y-249578328D01*
X327354511Y-249578328D02*
X327140226Y-249578328D01*
X327140226Y-249578328D02*
X326997368Y-249506900D01*
X326997368Y-249506900D02*
X326925940Y-249364042D01*
X326925940Y-249364042D02*
X326925940Y-249292614D01*
X326925940Y-249292614D02*
X326997368Y-249149757D01*
X326997368Y-249149757D02*
X327140226Y-249078328D01*
X327140226Y-249078328D02*
X327354511Y-249078328D01*
X327354511Y-249078328D02*
X327497368Y-249149757D01*
X328211654Y-249935471D02*
X328283083Y-250006900D01*
X328283083Y-250006900D02*
X328211654Y-250078328D01*
X328211654Y-250078328D02*
X328140226Y-250006900D01*
X328140226Y-250006900D02*
X328211654Y-249935471D01*
X328211654Y-249935471D02*
X328211654Y-250078328D01*
X329568798Y-250006900D02*
X329425940Y-250078328D01*
X329425940Y-250078328D02*
X329140226Y-250078328D01*
X329140226Y-250078328D02*
X328997369Y-250006900D01*
X328997369Y-250006900D02*
X328925940Y-249935471D01*
X328925940Y-249935471D02*
X328854512Y-249792614D01*
X328854512Y-249792614D02*
X328854512Y-249364042D01*
X328854512Y-249364042D02*
X328925940Y-249221185D01*
X328925940Y-249221185D02*
X328997369Y-249149757D01*
X328997369Y-249149757D02*
X329140226Y-249078328D01*
X329140226Y-249078328D02*
X329425940Y-249078328D01*
X329425940Y-249078328D02*
X329568798Y-249149757D01*
X330425940Y-250078328D02*
X330283083Y-250006900D01*
X330283083Y-250006900D02*
X330211654Y-249935471D01*
X330211654Y-249935471D02*
X330140226Y-249792614D01*
X330140226Y-249792614D02*
X330140226Y-249364042D01*
X330140226Y-249364042D02*
X330211654Y-249221185D01*
X330211654Y-249221185D02*
X330283083Y-249149757D01*
X330283083Y-249149757D02*
X330425940Y-249078328D01*
X330425940Y-249078328D02*
X330640226Y-249078328D01*
X330640226Y-249078328D02*
X330783083Y-249149757D01*
X330783083Y-249149757D02*
X330854512Y-249221185D01*
X330854512Y-249221185D02*
X330925940Y-249364042D01*
X330925940Y-249364042D02*
X330925940Y-249792614D01*
X330925940Y-249792614D02*
X330854512Y-249935471D01*
X330854512Y-249935471D02*
X330783083Y-250006900D01*
X330783083Y-250006900D02*
X330640226Y-250078328D01*
X330640226Y-250078328D02*
X330425940Y-250078328D01*
X331568797Y-250078328D02*
X331568797Y-249078328D01*
X331568797Y-249221185D02*
X331640226Y-249149757D01*
X331640226Y-249149757D02*
X331783083Y-249078328D01*
X331783083Y-249078328D02*
X331997369Y-249078328D01*
X331997369Y-249078328D02*
X332140226Y-249149757D01*
X332140226Y-249149757D02*
X332211655Y-249292614D01*
X332211655Y-249292614D02*
X332211655Y-250078328D01*
X332211655Y-249292614D02*
X332283083Y-249149757D01*
X332283083Y-249149757D02*
X332425940Y-249078328D01*
X332425940Y-249078328D02*
X332640226Y-249078328D01*
X332640226Y-249078328D02*
X332783083Y-249149757D01*
X332783083Y-249149757D02*
X332854512Y-249292614D01*
X332854512Y-249292614D02*
X332854512Y-250078328D01*
D10*
D11*
X313684398Y-245586128D02*
X313684398Y-246657557D01*
X313684398Y-246657557D02*
X313612969Y-246871842D01*
X313612969Y-246871842D02*
X313470112Y-247014700D01*
X313470112Y-247014700D02*
X313255826Y-247086128D01*
X313255826Y-247086128D02*
X313112969Y-247086128D01*
X314612969Y-247086128D02*
X314470112Y-247014700D01*
X314470112Y-247014700D02*
X314398683Y-246943271D01*
X314398683Y-246943271D02*
X314327255Y-246800414D01*
X314327255Y-246800414D02*
X314327255Y-246371842D01*
X314327255Y-246371842D02*
X314398683Y-246228985D01*
X314398683Y-246228985D02*
X314470112Y-246157557D01*
X314470112Y-246157557D02*
X314612969Y-246086128D01*
X314612969Y-246086128D02*
X314827255Y-246086128D01*
X314827255Y-246086128D02*
X314970112Y-246157557D01*
X314970112Y-246157557D02*
X315041541Y-246228985D01*
X315041541Y-246228985D02*
X315112969Y-246371842D01*
X315112969Y-246371842D02*
X315112969Y-246800414D01*
X315112969Y-246800414D02*
X315041541Y-246943271D01*
X315041541Y-246943271D02*
X314970112Y-247014700D01*
X314970112Y-247014700D02*
X314827255Y-247086128D01*
X314827255Y-247086128D02*
X314612969Y-247086128D01*
X315755826Y-247086128D02*
X315755826Y-245586128D01*
X316398684Y-247086128D02*
X316398684Y-246300414D01*
X316398684Y-246300414D02*
X316327255Y-246157557D01*
X316327255Y-246157557D02*
X316184398Y-246086128D01*
X316184398Y-246086128D02*
X315970112Y-246086128D01*
X315970112Y-246086128D02*
X315827255Y-246157557D01*
X315827255Y-246157557D02*
X315755826Y-246228985D01*
X317112969Y-246086128D02*
X317112969Y-247086128D01*
X317112969Y-246228985D02*
X317184398Y-246157557D01*
X317184398Y-246157557D02*
X317327255Y-246086128D01*
X317327255Y-246086128D02*
X317541541Y-246086128D01*
X317541541Y-246086128D02*
X317684398Y-246157557D01*
X317684398Y-246157557D02*
X317755827Y-246300414D01*
X317755827Y-246300414D02*
X317755827Y-247086128D01*
X319612969Y-247086128D02*
X319612969Y-245586128D01*
X319612969Y-245586128D02*
X320112969Y-246657557D01*
X320112969Y-246657557D02*
X320612969Y-245586128D01*
X320612969Y-245586128D02*
X320612969Y-247086128D01*
X321970113Y-247014700D02*
X321827255Y-247086128D01*
X321827255Y-247086128D02*
X321541541Y-247086128D01*
X321541541Y-247086128D02*
X321398684Y-247014700D01*
X321398684Y-247014700D02*
X321327255Y-246943271D01*
X321327255Y-246943271D02*
X321255827Y-246800414D01*
X321255827Y-246800414D02*
X321255827Y-246371842D01*
X321255827Y-246371842D02*
X321327255Y-246228985D01*
X321327255Y-246228985D02*
X321398684Y-246157557D01*
X321398684Y-246157557D02*
X321541541Y-246086128D01*
X321541541Y-246086128D02*
X321827255Y-246086128D01*
X321827255Y-246086128D02*
X321970113Y-246157557D01*
X322612969Y-247086128D02*
X322612969Y-245586128D01*
X322612969Y-245586128D02*
X323470112Y-247086128D01*
X323470112Y-247086128D02*
X323470112Y-245586128D01*
X324755827Y-247014700D02*
X324612970Y-247086128D01*
X324612970Y-247086128D02*
X324327256Y-247086128D01*
X324327256Y-247086128D02*
X324184398Y-247014700D01*
X324184398Y-247014700D02*
X324112970Y-246871842D01*
X324112970Y-246871842D02*
X324112970Y-246300414D01*
X324112970Y-246300414D02*
X324184398Y-246157557D01*
X324184398Y-246157557D02*
X324327256Y-246086128D01*
X324327256Y-246086128D02*
X324612970Y-246086128D01*
X324612970Y-246086128D02*
X324755827Y-246157557D01*
X324755827Y-246157557D02*
X324827256Y-246300414D01*
X324827256Y-246300414D02*
X324827256Y-246443271D01*
X324827256Y-246443271D02*
X324112970Y-246586128D01*
X325684398Y-247086128D02*
X325541541Y-247014700D01*
X325541541Y-247014700D02*
X325470112Y-246871842D01*
X325470112Y-246871842D02*
X325470112Y-245586128D01*
X326470112Y-247086128D02*
X326327255Y-247014700D01*
X326327255Y-247014700D02*
X326255826Y-246871842D01*
X326255826Y-246871842D02*
X326255826Y-245586128D01*
X326898683Y-246086128D02*
X327255826Y-247086128D01*
X327612969Y-246086128D02*
X327255826Y-247086128D01*
X327255826Y-247086128D02*
X327112969Y-247443271D01*
X327112969Y-247443271D02*
X327041540Y-247514700D01*
X327041540Y-247514700D02*
X326898683Y-247586128D01*
X329327254Y-246514700D02*
X330470112Y-246514700D01*
X332327254Y-246086128D02*
X332327254Y-247371842D01*
X332327254Y-247371842D02*
X332255826Y-247514700D01*
X332255826Y-247514700D02*
X332112969Y-247586128D01*
X332112969Y-247586128D02*
X332041540Y-247586128D01*
X332327254Y-245586128D02*
X332255826Y-245657557D01*
X332255826Y-245657557D02*
X332327254Y-245728985D01*
X332327254Y-245728985D02*
X332398683Y-245657557D01*
X332398683Y-245657557D02*
X332327254Y-245586128D01*
X332327254Y-245586128D02*
X332327254Y-245728985D01*
X333041540Y-247086128D02*
X333041540Y-245586128D01*
X333184398Y-246514700D02*
X333612969Y-247086128D01*
X333612969Y-246086128D02*
X333041540Y-246657557D01*
X334898684Y-247086128D02*
X334898684Y-246300414D01*
X334898684Y-246300414D02*
X334827255Y-246157557D01*
X334827255Y-246157557D02*
X334684398Y-246086128D01*
X334684398Y-246086128D02*
X334398684Y-246086128D01*
X334398684Y-246086128D02*
X334255826Y-246157557D01*
X334898684Y-247014700D02*
X334755826Y-247086128D01*
X334755826Y-247086128D02*
X334398684Y-247086128D01*
X334398684Y-247086128D02*
X334255826Y-247014700D01*
X334255826Y-247014700D02*
X334184398Y-246871842D01*
X334184398Y-246871842D02*
X334184398Y-246728985D01*
X334184398Y-246728985D02*
X334255826Y-246586128D01*
X334255826Y-246586128D02*
X334398684Y-246514700D01*
X334398684Y-246514700D02*
X334755826Y-246514700D01*
X334755826Y-246514700D02*
X334898684Y-246443271D01*
X335612969Y-247086128D02*
X335612969Y-246086128D01*
X335612969Y-245586128D02*
X335541541Y-245657557D01*
X335541541Y-245657557D02*
X335612969Y-245728985D01*
X335612969Y-245728985D02*
X335684398Y-245657557D01*
X335684398Y-245657557D02*
X335612969Y-245586128D01*
X335612969Y-245586128D02*
X335612969Y-245728985D01*
X336541541Y-247086128D02*
X336398684Y-247014700D01*
X336398684Y-247014700D02*
X336327255Y-246871842D01*
X336327255Y-246871842D02*
X336327255Y-245586128D01*
X337112969Y-247086128D02*
X337112969Y-246086128D01*
X337112969Y-245586128D02*
X337041541Y-245657557D01*
X337041541Y-245657557D02*
X337112969Y-245728985D01*
X337112969Y-245728985D02*
X337184398Y-245657557D01*
X337184398Y-245657557D02*
X337112969Y-245586128D01*
X337112969Y-245586128D02*
X337112969Y-245728985D01*
X337827255Y-247086128D02*
X337827255Y-246086128D01*
X337827255Y-246228985D02*
X337898684Y-246157557D01*
X337898684Y-246157557D02*
X338041541Y-246086128D01*
X338041541Y-246086128D02*
X338255827Y-246086128D01*
X338255827Y-246086128D02*
X338398684Y-246157557D01*
X338398684Y-246157557D02*
X338470113Y-246300414D01*
X338470113Y-246300414D02*
X338470113Y-247086128D01*
X338470113Y-246300414D02*
X338541541Y-246157557D01*
X338541541Y-246157557D02*
X338684398Y-246086128D01*
X338684398Y-246086128D02*
X338898684Y-246086128D01*
X338898684Y-246086128D02*
X339041541Y-246157557D01*
X339041541Y-246157557D02*
X339112970Y-246300414D01*
X339112970Y-246300414D02*
X339112970Y-247086128D01*
X340470113Y-247014700D02*
X340327255Y-247086128D01*
X340327255Y-247086128D02*
X340041541Y-247086128D01*
X340041541Y-247086128D02*
X339898684Y-247014700D01*
X339898684Y-247014700D02*
X339827255Y-246943271D01*
X339827255Y-246943271D02*
X339755827Y-246800414D01*
X339755827Y-246800414D02*
X339755827Y-246371842D01*
X339755827Y-246371842D02*
X339827255Y-246228985D01*
X339827255Y-246228985D02*
X339898684Y-246157557D01*
X339898684Y-246157557D02*
X340041541Y-246086128D01*
X340041541Y-246086128D02*
X340327255Y-246086128D01*
X340327255Y-246086128D02*
X340470113Y-246157557D01*
X341112969Y-246086128D02*
X341112969Y-247086128D01*
X341112969Y-246228985D02*
X341184398Y-246157557D01*
X341184398Y-246157557D02*
X341327255Y-246086128D01*
X341327255Y-246086128D02*
X341541541Y-246086128D01*
X341541541Y-246086128D02*
X341684398Y-246157557D01*
X341684398Y-246157557D02*
X341755827Y-246300414D01*
X341755827Y-246300414D02*
X341755827Y-247086128D01*
X343041541Y-247014700D02*
X342898684Y-247086128D01*
X342898684Y-247086128D02*
X342612970Y-247086128D01*
X342612970Y-247086128D02*
X342470112Y-247014700D01*
X342470112Y-247014700D02*
X342398684Y-246871842D01*
X342398684Y-246871842D02*
X342398684Y-246300414D01*
X342398684Y-246300414D02*
X342470112Y-246157557D01*
X342470112Y-246157557D02*
X342612970Y-246086128D01*
X342612970Y-246086128D02*
X342898684Y-246086128D01*
X342898684Y-246086128D02*
X343041541Y-246157557D01*
X343041541Y-246157557D02*
X343112970Y-246300414D01*
X343112970Y-246300414D02*
X343112970Y-246443271D01*
X343112970Y-246443271D02*
X342398684Y-246586128D01*
X343970112Y-247086128D02*
X343827255Y-247014700D01*
X343827255Y-247014700D02*
X343755826Y-246871842D01*
X343755826Y-246871842D02*
X343755826Y-245586128D01*
X344755826Y-247086128D02*
X344612969Y-247014700D01*
X344612969Y-247014700D02*
X344541540Y-246871842D01*
X344541540Y-246871842D02*
X344541540Y-245586128D01*
X345184397Y-246086128D02*
X345541540Y-247086128D01*
X345898683Y-246086128D02*
X345541540Y-247086128D01*
X345541540Y-247086128D02*
X345398683Y-247443271D01*
X345398683Y-247443271D02*
X345327254Y-247514700D01*
X345327254Y-247514700D02*
X345184397Y-247586128D01*
X347398683Y-246371842D02*
X347327254Y-246300414D01*
X347327254Y-246300414D02*
X347184397Y-246228985D01*
X347184397Y-246228985D02*
X347041540Y-246228985D01*
X347041540Y-246228985D02*
X346898683Y-246300414D01*
X346898683Y-246300414D02*
X346827254Y-246371842D01*
X346827254Y-246371842D02*
X346755826Y-246514700D01*
X346755826Y-246514700D02*
X346755826Y-246657557D01*
X346755826Y-246657557D02*
X346827254Y-246800414D01*
X346827254Y-246800414D02*
X346898683Y-246871842D01*
X346898683Y-246871842D02*
X347041540Y-246943271D01*
X347041540Y-246943271D02*
X347184397Y-246943271D01*
X347184397Y-246943271D02*
X347327254Y-246871842D01*
X347327254Y-246871842D02*
X347398683Y-246800414D01*
X347398683Y-246228985D02*
X347398683Y-246800414D01*
X347398683Y-246800414D02*
X347470111Y-246871842D01*
X347470111Y-246871842D02*
X347541540Y-246871842D01*
X347541540Y-246871842D02*
X347684397Y-246800414D01*
X347684397Y-246800414D02*
X347755826Y-246657557D01*
X347755826Y-246657557D02*
X347755826Y-246300414D01*
X347755826Y-246300414D02*
X347612969Y-246086128D01*
X347612969Y-246086128D02*
X347398683Y-245943271D01*
X347398683Y-245943271D02*
X347112969Y-245871842D01*
X347112969Y-245871842D02*
X346827254Y-245943271D01*
X346827254Y-245943271D02*
X346612969Y-246086128D01*
X346612969Y-246086128D02*
X346470111Y-246300414D01*
X346470111Y-246300414D02*
X346398683Y-246586128D01*
X346398683Y-246586128D02*
X346470111Y-246871842D01*
X346470111Y-246871842D02*
X346612969Y-247086128D01*
X346612969Y-247086128D02*
X346827254Y-247228985D01*
X346827254Y-247228985D02*
X347112969Y-247300414D01*
X347112969Y-247300414D02*
X347398683Y-247228985D01*
X347398683Y-247228985D02*
X347612969Y-247086128D01*
X349041540Y-246086128D02*
X349041540Y-247300414D01*
X349041540Y-247300414D02*
X348970111Y-247443271D01*
X348970111Y-247443271D02*
X348898682Y-247514700D01*
X348898682Y-247514700D02*
X348755825Y-247586128D01*
X348755825Y-247586128D02*
X348541540Y-247586128D01*
X348541540Y-247586128D02*
X348398682Y-247514700D01*
X349041540Y-247014700D02*
X348898682Y-247086128D01*
X348898682Y-247086128D02*
X348612968Y-247086128D01*
X348612968Y-247086128D02*
X348470111Y-247014700D01*
X348470111Y-247014700D02*
X348398682Y-246943271D01*
X348398682Y-246943271D02*
X348327254Y-246800414D01*
X348327254Y-246800414D02*
X348327254Y-246371842D01*
X348327254Y-246371842D02*
X348398682Y-246228985D01*
X348398682Y-246228985D02*
X348470111Y-246157557D01*
X348470111Y-246157557D02*
X348612968Y-246086128D01*
X348612968Y-246086128D02*
X348898682Y-246086128D01*
X348898682Y-246086128D02*
X349041540Y-246157557D01*
X349755825Y-247086128D02*
X349755825Y-246086128D01*
X349755825Y-246228985D02*
X349827254Y-246157557D01*
X349827254Y-246157557D02*
X349970111Y-246086128D01*
X349970111Y-246086128D02*
X350184397Y-246086128D01*
X350184397Y-246086128D02*
X350327254Y-246157557D01*
X350327254Y-246157557D02*
X350398683Y-246300414D01*
X350398683Y-246300414D02*
X350398683Y-247086128D01*
X350398683Y-246300414D02*
X350470111Y-246157557D01*
X350470111Y-246157557D02*
X350612968Y-246086128D01*
X350612968Y-246086128D02*
X350827254Y-246086128D01*
X350827254Y-246086128D02*
X350970111Y-246157557D01*
X350970111Y-246157557D02*
X351041540Y-246300414D01*
X351041540Y-246300414D02*
X351041540Y-247086128D01*
X352398683Y-247086128D02*
X352398683Y-246300414D01*
X352398683Y-246300414D02*
X352327254Y-246157557D01*
X352327254Y-246157557D02*
X352184397Y-246086128D01*
X352184397Y-246086128D02*
X351898683Y-246086128D01*
X351898683Y-246086128D02*
X351755825Y-246157557D01*
X352398683Y-247014700D02*
X352255825Y-247086128D01*
X352255825Y-247086128D02*
X351898683Y-247086128D01*
X351898683Y-247086128D02*
X351755825Y-247014700D01*
X351755825Y-247014700D02*
X351684397Y-246871842D01*
X351684397Y-246871842D02*
X351684397Y-246728985D01*
X351684397Y-246728985D02*
X351755825Y-246586128D01*
X351755825Y-246586128D02*
X351898683Y-246514700D01*
X351898683Y-246514700D02*
X352255825Y-246514700D01*
X352255825Y-246514700D02*
X352398683Y-246443271D01*
X353112968Y-247086128D02*
X353112968Y-246086128D01*
X353112968Y-245586128D02*
X353041540Y-245657557D01*
X353041540Y-245657557D02*
X353112968Y-245728985D01*
X353112968Y-245728985D02*
X353184397Y-245657557D01*
X353184397Y-245657557D02*
X353112968Y-245586128D01*
X353112968Y-245586128D02*
X353112968Y-245728985D01*
X354041540Y-247086128D02*
X353898683Y-247014700D01*
X353898683Y-247014700D02*
X353827254Y-246871842D01*
X353827254Y-246871842D02*
X353827254Y-245586128D01*
X354612968Y-246943271D02*
X354684397Y-247014700D01*
X354684397Y-247014700D02*
X354612968Y-247086128D01*
X354612968Y-247086128D02*
X354541540Y-247014700D01*
X354541540Y-247014700D02*
X354612968Y-246943271D01*
X354612968Y-246943271D02*
X354612968Y-247086128D01*
X355970112Y-247014700D02*
X355827254Y-247086128D01*
X355827254Y-247086128D02*
X355541540Y-247086128D01*
X355541540Y-247086128D02*
X355398683Y-247014700D01*
X355398683Y-247014700D02*
X355327254Y-246943271D01*
X355327254Y-246943271D02*
X355255826Y-246800414D01*
X355255826Y-246800414D02*
X355255826Y-246371842D01*
X355255826Y-246371842D02*
X355327254Y-246228985D01*
X355327254Y-246228985D02*
X355398683Y-246157557D01*
X355398683Y-246157557D02*
X355541540Y-246086128D01*
X355541540Y-246086128D02*
X355827254Y-246086128D01*
X355827254Y-246086128D02*
X355970112Y-246157557D01*
X356827254Y-247086128D02*
X356684397Y-247014700D01*
X356684397Y-247014700D02*
X356612968Y-246943271D01*
X356612968Y-246943271D02*
X356541540Y-246800414D01*
X356541540Y-246800414D02*
X356541540Y-246371842D01*
X356541540Y-246371842D02*
X356612968Y-246228985D01*
X356612968Y-246228985D02*
X356684397Y-246157557D01*
X356684397Y-246157557D02*
X356827254Y-246086128D01*
X356827254Y-246086128D02*
X357041540Y-246086128D01*
X357041540Y-246086128D02*
X357184397Y-246157557D01*
X357184397Y-246157557D02*
X357255826Y-246228985D01*
X357255826Y-246228985D02*
X357327254Y-246371842D01*
X357327254Y-246371842D02*
X357327254Y-246800414D01*
X357327254Y-246800414D02*
X357255826Y-246943271D01*
X357255826Y-246943271D02*
X357184397Y-247014700D01*
X357184397Y-247014700D02*
X357041540Y-247086128D01*
X357041540Y-247086128D02*
X356827254Y-247086128D01*
X357970111Y-247086128D02*
X357970111Y-246086128D01*
X357970111Y-246228985D02*
X358041540Y-246157557D01*
X358041540Y-246157557D02*
X358184397Y-246086128D01*
X358184397Y-246086128D02*
X358398683Y-246086128D01*
X358398683Y-246086128D02*
X358541540Y-246157557D01*
X358541540Y-246157557D02*
X358612969Y-246300414D01*
X358612969Y-246300414D02*
X358612969Y-247086128D01*
X358612969Y-246300414D02*
X358684397Y-246157557D01*
X358684397Y-246157557D02*
X358827254Y-246086128D01*
X358827254Y-246086128D02*
X359041540Y-246086128D01*
X359041540Y-246086128D02*
X359184397Y-246157557D01*
X359184397Y-246157557D02*
X359255826Y-246300414D01*
X359255826Y-246300414D02*
X359255826Y-247086128D01*
D10*
D11*
D10*
D11*
D10*
D11*
D10*
D11*
X331800000Y-260900000D02*
X331800000Y-263900000D01*
D10*
D11*
X395800000Y-260900000D02*
X395800000Y-267400000D01*
D14*
G04 #@! TO.C,Y1*
X58050000Y-48700000D03*
X58050000Y-50900000D03*
X59750000Y-50900000D03*
X59750000Y-48700000D03*
G04 #@! TD*
D15*
G04 #@! TO.C,C25*
X41020000Y-51000000D03*
X41980000Y-51000000D03*
G04 #@! TD*
D16*
G04 #@! TO.C,R12*
X43500000Y-60510000D03*
X43500000Y-59490000D03*
G04 #@! TD*
D17*
G04 #@! TO.C,C19*
X44825000Y-50500000D03*
X46375000Y-50500000D03*
G04 #@! TD*
D18*
G04 #@! TO.C,SW1*
X47180000Y-63000000D03*
X42820000Y-63000000D03*
G04 #@! TD*
D19*
G04 #@! TO.C,D1*
X65200000Y-48500000D03*
X66600000Y-48500000D03*
G04 #@! TD*
D15*
G04 #@! TO.C,C17*
X45020000Y-48500000D03*
X45980000Y-48500000D03*
G04 #@! TD*
D20*
G04 #@! TO.C,C24*
X60180000Y-47100000D03*
X59220000Y-47100000D03*
G04 #@! TD*
G04 #@! TO.C,C16*
X53770000Y-51479999D03*
X52810000Y-51479999D03*
G04 #@! TD*
D15*
G04 #@! TO.C,C23*
X57620000Y-52500000D03*
X58580000Y-52500000D03*
G04 #@! TD*
G04 #@! TO.C,C9*
X54420000Y-59200000D03*
X55380000Y-59200000D03*
G04 #@! TD*
D21*
G04 #@! TO.C,C13*
X50100000Y-40320000D03*
X50100000Y-41280000D03*
G04 #@! TD*
D22*
G04 #@! TO.C,C1*
X61100000Y-54080000D03*
X61100000Y-53120000D03*
G04 #@! TD*
D23*
G04 #@! TO.C,R15*
X58310000Y-47100000D03*
X57290000Y-47100000D03*
G04 #@! TD*
D24*
G04 #@! TO.C,U6*
X49190000Y-49917499D03*
X49590000Y-49917499D03*
X49990000Y-49917499D03*
X50390000Y-49917499D03*
X50790000Y-49917499D03*
X51190000Y-49917499D03*
X51590000Y-49917499D03*
X51990000Y-49917499D03*
X52390000Y-49917499D03*
X52790000Y-49917499D03*
X53190000Y-49917499D03*
X53590000Y-49917499D03*
X53990000Y-49917499D03*
X54390000Y-49917499D03*
D25*
X55227500Y-49079999D03*
X55227500Y-48679999D03*
X55227500Y-48279999D03*
X55227500Y-47879999D03*
X55227500Y-47479999D03*
X55227500Y-47079999D03*
X55227500Y-46679999D03*
X55227500Y-46279999D03*
X55227500Y-45879999D03*
X55227500Y-45479999D03*
X55227500Y-45079999D03*
X55227500Y-44679999D03*
X55227500Y-44279999D03*
X55227500Y-43879999D03*
D24*
X54390000Y-43042499D03*
X53990000Y-43042499D03*
X53590000Y-43042499D03*
X53190000Y-43042499D03*
X52790000Y-43042499D03*
X52390000Y-43042499D03*
X51990000Y-43042499D03*
X51590000Y-43042499D03*
X51190000Y-43042499D03*
X50790000Y-43042499D03*
X50390000Y-43042499D03*
X49990000Y-43042499D03*
X49590000Y-43042499D03*
X49190000Y-43042499D03*
D25*
X48352500Y-43879999D03*
X48352500Y-44279999D03*
X48352500Y-44679999D03*
X48352500Y-45079999D03*
X48352500Y-45479999D03*
X48352500Y-45879999D03*
X48352500Y-46279999D03*
X48352500Y-46679999D03*
X48352500Y-47079999D03*
X48352500Y-47479999D03*
X48352500Y-47879999D03*
X48352500Y-48279999D03*
X48352500Y-48679999D03*
X48352500Y-49079999D03*
D26*
X51790000Y-46479999D03*
G04 #@! TD*
D21*
G04 #@! TO.C,C12*
X47000000Y-42320000D03*
X47000000Y-43280000D03*
G04 #@! TD*
D27*
G04 #@! TO.C,J2*
X39175000Y-45700000D03*
X39175000Y-46350000D03*
X39175000Y-47000000D03*
X39175000Y-47650000D03*
X39175000Y-48300000D03*
D28*
X36500000Y-43700000D03*
D29*
X38950000Y-43800000D03*
D30*
X36500000Y-45800000D03*
X36500000Y-48200000D03*
D29*
X38950000Y-50200000D03*
D28*
X36500000Y-50300000D03*
G04 #@! TD*
D31*
G04 #@! TO.C,R5*
X59899999Y-56390000D03*
X59899999Y-57410000D03*
G04 #@! TD*
D21*
G04 #@! TO.C,C8*
X59900000Y-53820000D03*
X59900000Y-54780000D03*
G04 #@! TD*
D31*
G04 #@! TO.C,R4*
X52100000Y-53490000D03*
X52100000Y-54510000D03*
G04 #@! TD*
D32*
G04 #@! TO.C,U5*
X45095000Y-59600000D03*
X46365000Y-59600000D03*
X47635000Y-59600000D03*
X48905000Y-59600000D03*
X48905000Y-52400000D03*
X47635000Y-52400000D03*
X46365000Y-52400000D03*
X45095000Y-52400000D03*
G04 #@! TD*
D21*
G04 #@! TO.C,C11*
X45800000Y-43420000D03*
X45800000Y-44380000D03*
G04 #@! TD*
D33*
G04 #@! TO.C,C22*
X50362501Y-37225000D03*
X50362501Y-38775000D03*
G04 #@! TD*
D34*
G04 #@! TO.C,U1*
X58800000Y-56250000D03*
X58800000Y-55750000D03*
X58800000Y-55250000D03*
X58800000Y-54750000D03*
X57200000Y-54750000D03*
X57200000Y-55250000D03*
X57200000Y-55750000D03*
X57200000Y-56250000D03*
D35*
X58000000Y-55500000D03*
G04 #@! TD*
D18*
G04 #@! TO.C,SW2*
X42820000Y-38000000D03*
X47180000Y-38000000D03*
G04 #@! TD*
D21*
G04 #@! TO.C,C5*
X63000000Y-45020000D03*
X63000000Y-45980000D03*
G04 #@! TD*
D36*
G04 #@! TO.C,U4*
X52362500Y-37050000D03*
X52362500Y-38000000D03*
X52362500Y-38950000D03*
X54637500Y-38950000D03*
X54637500Y-37050000D03*
G04 #@! TD*
D37*
G04 #@! TO.C,D2*
X42500000Y-40850000D03*
X42500000Y-44150000D03*
G04 #@! TD*
D38*
G04 #@! TO.C,CR1*
X41750000Y-47700000D03*
D39*
X43450000Y-47700000D03*
X43450000Y-45700000D03*
X41550000Y-45700000D03*
G04 #@! TD*
D31*
G04 #@! TO.C,R2*
X52150000Y-58740000D03*
X52150000Y-59760000D03*
G04 #@! TD*
D33*
G04 #@! TO.C,C21*
X56500001Y-37224998D03*
X56500001Y-38774998D03*
G04 #@! TD*
D40*
G04 #@! TO.C,R3*
X57390000Y-58100000D03*
X58410000Y-58100000D03*
G04 #@! TD*
D41*
G04 #@! TO.C,H1*
X65000000Y-39000000D03*
G04 #@! TD*
D20*
G04 #@! TO.C,C15*
X59080000Y-45900000D03*
X58120000Y-45900000D03*
G04 #@! TD*
D42*
G04 #@! TO.C,J1*
X64475000Y-45000000D03*
D43*
X66000000Y-46475000D03*
X66000000Y-43525000D03*
G04 #@! TD*
D23*
G04 #@! TO.C,R6*
X55410000Y-60200000D03*
X54390000Y-60200000D03*
G04 #@! TD*
G04 #@! TO.C,R8*
X57010000Y-40500000D03*
X55990000Y-40500000D03*
G04 #@! TD*
G04 #@! TO.C,R9*
X57010000Y-41600000D03*
X55990000Y-41600000D03*
G04 #@! TD*
D40*
G04 #@! TO.C,R11*
X44990000Y-46200000D03*
X46010000Y-46200000D03*
G04 #@! TD*
D16*
G04 #@! TO.C,R14*
X42400000Y-60510000D03*
X42400000Y-59490000D03*
G04 #@! TD*
D33*
G04 #@! TO.C,C18*
X44500000Y-42625000D03*
X44500000Y-44175000D03*
G04 #@! TD*
D21*
G04 #@! TO.C,C10*
X57600000Y-43520000D03*
X57600000Y-44480000D03*
G04 #@! TD*
D33*
G04 #@! TO.C,C7*
X55500000Y-55325000D03*
X55500000Y-56875000D03*
G04 #@! TD*
D44*
G04 #@! TO.C,U2*
X61150000Y-55350000D03*
X61150000Y-56000000D03*
X61150000Y-56650000D03*
X63050000Y-56650000D03*
X63050000Y-56000000D03*
X63050000Y-55350000D03*
G04 #@! TD*
D20*
G04 #@! TO.C,C6*
X65180000Y-55300000D03*
X64220000Y-55300000D03*
G04 #@! TD*
D45*
G04 #@! TO.C,D4*
X61000000Y-38287500D03*
X61000000Y-36712500D03*
G04 #@! TD*
D40*
G04 #@! TO.C,R7*
X40990000Y-50000000D03*
X42010000Y-50000000D03*
G04 #@! TD*
D21*
G04 #@! TO.C,C14*
X52800000Y-40320000D03*
X52800000Y-41280000D03*
G04 #@! TD*
D41*
G04 #@! TO.C,H2*
X65000000Y-62000000D03*
G04 #@! TD*
D20*
G04 #@! TO.C,C4*
X54080000Y-54500000D03*
X53120000Y-54500000D03*
G04 #@! TD*
D40*
G04 #@! TO.C,R10*
X44990000Y-47200000D03*
X46010000Y-47200000D03*
G04 #@! TD*
D45*
G04 #@! TO.C,D3*
X59000000Y-38287500D03*
X59000000Y-36712500D03*
G04 #@! TD*
D15*
G04 #@! TO.C,C3*
X55419999Y-58100001D03*
X56379999Y-58100001D03*
G04 #@! TD*
D21*
G04 #@! TO.C,C2*
X53250000Y-58770000D03*
X53250000Y-59730000D03*
G04 #@! TD*
D16*
G04 #@! TO.C,R1*
X51049999Y-59760000D03*
X51049999Y-58740000D03*
G04 #@! TD*
D46*
G04 #@! TO.C,L1*
X56612499Y-59400000D03*
X58187499Y-59400000D03*
G04 #@! TD*
D44*
G04 #@! TO.C,U3*
X52050000Y-55850000D03*
X52050000Y-56500000D03*
X52050000Y-57150000D03*
X53950000Y-57150000D03*
X53950000Y-55850000D03*
G04 #@! TD*
D41*
G04 #@! TO.C,H4*
X38325000Y-62000000D03*
G04 #@! TD*
D31*
G04 #@! TO.C,R13*
X49000000Y-36890000D03*
X49000000Y-37910000D03*
G04 #@! TD*
D41*
G04 #@! TO.C,H3*
X38500000Y-39000000D03*
G04 #@! TD*
D16*
G04 #@! TO.C,R16*
X53800000Y-41310000D03*
X53800000Y-40290000D03*
G04 #@! TD*
D22*
G04 #@! TO.C,C20*
X43500000Y-51480000D03*
X43500000Y-50520000D03*
G04 #@! TD*
D47*
G04 #@! TO.C,X1*
X66470000Y-50920000D03*
D48*
X65200000Y-50465000D03*
X63930000Y-50465000D03*
X63930000Y-53535000D03*
X65200000Y-53535000D03*
X66470000Y-53535000D03*
G04 #@! TD*
D49*
G04 #@! TO.C,J3*
X36975000Y-54225000D03*
D50*
X36975000Y-56765000D03*
X39515000Y-54225000D03*
X39515000Y-56765000D03*
X42055000Y-54225000D03*
X42055000Y-56765000D03*
G04 #@! TD*
M02*
