  0
SECTION
  2
HEADER
  9
$ACADVER
  1
AC1032
  9
$ACADMAINTVER
 90
       55
  9
$DWGCODEPAGE
  3
ISO8859-1
  9
$LASTSAVEDBY
  1
jkail
  9
$REQUIREDVERSIONS
160
                 0
  9
$INSBASE
 10
0.0
 20
0.0
 30
0.0
  9
$EXTMIN
 10
1.000000000000000E+20
 20
1.000000000000000E+20
 30
1.000000000000000E+20
  9
$EXTMAX
 10
-1.000000000000000E+20
 20
-1.000000000000000E+20
 30
-1.000000000000000E+20
  9
$LIMMIN
 10
0.0
 20
0.0
  9
$LIMMAX
 10
420.0
 20
297.0
  9
$ORTHOMODE
 70
     0
  9
$REGENMODE
 70
     1
  9
$FILLMODE
 70
     1
  9
$QTEXTMODE
 70
     0
  9
$MIRRTEXT
 70
     1
  9
$LTSCALE
 40
1.0
  9
$ATTMODE
 70
     1
  9
$TEXTSIZE
 40
2.5
  9
$TRACEWID
 40
1.0
  9
$TEXTSTYLE
  7
Standard
  9
$CLAYER
  8
0
  9
$CELTYPE
  6
ByLayer
  9
$CECOLOR
 62
   256
  9
$CELTSCALE
 40
1.0
  9
$DISPSILH
 70
     0
  9
$DIMSCALE
 40
1.0
  9
$DIMASZ
 40
2.5
  9
$DIMEXO
 40
0.625
  9
$DIMDLI
 40
3.75
  9
$DIMRND
 40
0.0
  9
$DIMDLE
 40
0.0
  9
$DIMEXE
 40
1.25
  9
$DIMTP
 40
0.0
  9
$DIMTM
 40
0.0
  9
$DIMTXT
 40
2.5
  9
$DIMCEN
 40
2.5
  9
$DIMTSZ
 40
0.0
  9
$DIMTOL
 70
     0
  9
$DIMLIM
 70
     0
  9
$DIMTIH
 70
     0
  9
$DIMTOH
 70
     0
  9
$DIMSE1
 70
     0
  9
$DIMSE2
 70
     0
  9
$DIMTAD
 70
     1
  9
$DIMZIN
 70
     8
  9
$DIMBLK
  1

  9
$DIMASO
 70
     1
  9
$DIMSHO
 70
     1
  9
$DIMPOST
  1

  9
$DIMAPOST
  1

  9
$DIMALT
 70
     0
  9
$DIMALTD
 70
     3
  9
$DIMALTF
 40
0.03937007874016
  9
$DIMLFAC
 40
1.0
  9
$DIMTOFL
 70
     1
  9
$DIMTVP
 40
0.0
  9
$DIMTIX
 70
     0
  9
$DIMSOXD
 70
     0
  9
$DIMSAH
 70
     0
  9
$DIMBLK1
  1

  9
$DIMBLK2
  1

  9
$DIMSTYLE
  2
ISO-25
  9
$DIMCLRD
 70
     0
  9
$DIMCLRE
 70
     0
  9
$DIMCLRT
 70
     0
  9
$DIMTFAC
 40
1.0
  9
$DIMGAP
 40
0.625
  9
$DIMJUST
 70
     0
  9
$DIMSD1
 70
     0
  9
$DIMSD2
 70
     0
  9
$DIMTOLJ
 70
     0
  9
$DIMTZIN
 70
     8
  9
$DIMALTZ
 70
     0
  9
$DIMALTTZ
 70
     0
  9
$DIMUPT
 70
     0
  9
$DIMDEC
 70
     2
  9
$DIMTDEC
 70
     2
  9
$DIMALTU
 70
     2
  9
$DIMALTTD
 70
     3
  9
$DIMTXSTY
  7
Standard
  9
$DIMAUNIT
 70
     0
  9
$DIMADEC
 70
     0
  9
$DIMALTRND
 40
0.0
  9
$DIMAZIN
 70
     0
  9
$DIMDSEP
 70
    44
  9
$DIMATFIT
 70
     3
  9
$DIMFRAC
 70
     0
  9
$DIMLDRBLK
  1

  9
$DIMLUNIT
 70
     2
  9
$DIMLWD
 70
    -2
  9
$DIMLWE
 70
    -2
  9
$DIMTMOVE
 70
     0
  9
$DIMFXL
 40
1.0
  9
$DIMFXLON
 70
     0
  9
$DIMJOGANG
 40
0.7853981633974483
  9
$DIMTFILL
 70
     0
  9
$DIMTFILLCLR
 70
     0
  9
$DIMARCSYM
 70
     0
  9
$DIMLTYPE
  6

  9
$DIMLTEX1
  6

  9
$DIMLTEX2
  6

  9
$DIMTXTDIRECTION
 70
     0
  9
$LUNITS
 70
     2
  9
$LUPREC
 70
     4
  9
$SKETCHINC
 40
1.0
  9
$FILLETRAD
 40
0.0
  9
$AUNITS
 70
     0
  9
$AUPREC
 70
     0
  9
$MENU
  1
.
  9
$ELEVATION
 40
0.0
  9
$PELEVATION
 40
0.0
  9
$THICKNESS
 40
0.0
  9
$LIMCHECK
 70
     0
  9
$CHAMFERA
 40
0.0
  9
$CHAMFERB
 40
0.0
  9
$CHAMFERC
 40
0.0
  9
$CHAMFERD
 40
0.0
  9
$SKPOLY
 70
     0
  9
$TDCREATE
 40
2460585.469655232
  9
$TDUCREATE
 40
2460585.761321898
  9
$TDUPDATE
 40
2460585.469655266
  9
$TDUUPDATE
 40
2460585.761321933
  9
$TDINDWG
 40
0.0000000116
  9
$TDUSRTIMER
 40
0.0000000116
  9
$USRTIMER
 70
     1
  9
$ANGBASE
 50
0.0
  9
$ANGDIR
 70
     0
  9
$PDMODE
 70
     0
  9
$PDSIZE
 40
0.0
  9
$PLINEWID
 40
0.0
  9
$SPLFRAME
 70
     0
  9
$SPLINETYPE
 70
     6
  9
$SPLINESEGS
 70
     8
  9
$HANDSEED
  5
90
  9
$SURFTAB1
 70
     6
  9
$SURFTAB2
 70
     6
  9
$SURFTYPE
 70
     6
  9
$SURFU
 70
     6
  9
$SURFV
 70
     6
  9
$UCSBASE
  2

  9
$UCSNAME
  2

  9
$UCSORG
 10
0.0
 20
0.0
 30
0.0
  9
$UCSXDIR
 10
1.0
 20
0.0
 30
0.0
  9
$UCSYDIR
 10
0.0
 20
1.0
 30
0.0
  9
$UCSORTHOREF
  2

  9
$UCSORTHOVIEW
 70
     0
  9
$UCSORGTOP
 10
0.0
 20
0.0
 30
0.0
  9
$UCSORGBOTTOM
 10
0.0
 20
0.0
 30
0.0
  9
$UCSORGLEFT
 10
0.0
 20
0.0
 30
0.0
  9
$UCSORGRIGHT
 10
0.0
 20
0.0
 30
0.0
  9
$UCSORGFRONT
 10
0.0
 20
0.0
 30
0.0
  9
$UCSORGBACK
 10
0.0
 20
0.0
 30
0.0
  9
$PUCSBASE
  2

  9
$PUCSNAME
  2

  9
$PUCSORG
 10
0.0
 20
0.0
 30
0.0
  9
$PUCSXDIR
 10
1.0
 20
0.0
 30
0.0
  9
$PUCSYDIR
 10
0.0
 20
1.0
 30
0.0
  9
$PUCSORTHOREF
  2

  9
$PUCSORTHOVIEW
 70
     0
  9
$PUCSORGTOP
 10
0.0
 20
0.0
 30
0.0
  9
$PUCSORGBOTTOM
 10
0.0
 20
0.0
 30
0.0
  9
$PUCSORGLEFT
 10
0.0
 20
0.0
 30
0.0
  9
$PUCSORGRIGHT
 10
0.0
 20
0.0
 30
0.0
  9
$PUCSORGFRONT
 10
0.0
 20
0.0
 30
0.0
  9
$PUCSORGBACK
 10
0.0
 20
0.0
 30
0.0
  9
$USERI1
 70
     0
  9
$USERI2
 70
     0
  9
$USERI3
 70
     0
  9
$USERI4
 70
     0
  9
$USERI5
 70
     0
  9
$USERR1
 40
0.0
  9
$USERR2
 40
0.0
  9
$USERR3
 40
0.0
  9
$USERR4
 40
0.0
  9
$USERR5
 40
0.0
  9
$WORLDVIEW
 70
     1
  9
$SHADEDGE
 70
     3
  9
$SHADEDIF
 70
    70
  9
$TILEMODE
 70
     1
  9
$MAXACTVP
 70
    64
  9
$PINSBASE
 10
0.0
 20
0.0
 30
0.0
  9
$PLIMCHECK
 70
     0
  9
$PEXTMIN
 10
63.58466666666667
 20
101.6846666666667
 30
0.0
  9
$PEXTMAX
 10
0.0
 20
0.0
 30
0.0
  9
$PLIMMIN
 10
-20.0
 20
-7.5
  9
$PLIMMAX
 10
277.0
 20
202.5
  9
$UNITMODE
 70
     0
  9
$VISRETAIN
 70
     1
  9
$PLINEGEN
 70
     0
  9
$PSLTSCALE
 70
     1
  9
$TREEDEPTH
 70
  3020
  9
$CMLSTYLE
  2
Standard
  9
$CMLJUST
 70
     0
  9
$CMLSCALE
 40
20.0
  9
$PROXYGRAPHICS
 70
     1
  9
$MEASUREMENT
 70
     1
  9
$CELWEIGHT
370
    -1
  9
$ENDCAPS
280
     0
  9
$JOINSTYLE
280
     0
  9
$LWDISPLAY
290
     0
  9
$INSUNITS
 70
     1
  9
$HYPERLINKBASE
  1

  9
$STYLESHEET
  1

  9
$XEDIT
290
     1
  9
$CEPSNTYPE
380
     0
  9
$PSTYLEMODE
290
     1
  9
$FINGERPRINTGUID
  2
{cbab5d5a-7475-4e71-a43f-2b6e0783d4a7}
  9
$VERSIONGUID
  2
{FAEB1C32-E019-11D5-929B-00C0DF256EC4}
  9
$EXTNAMES
290
     1
  9
$PSVPSCALE
 40
0.0
  9
$OLESTARTUP
290
     0
  9
$SORTENTS
280
   127
  9
$INDEXCTL
280
     0
  9
$HIDETEXT
280
     1
  9
$XCLIPFRAME
280
     2
  9
$HALOGAP
280
     0
  9
$OBSCOLOR
 70
   257
  9
$OBSLTYPE
280
     0
  9
$INTERSECTIONDISPLAY
280
     0
  9
$INTERSECTIONCOLOR
 70
   257
  9
$DIMASSOC
280
     2
  9
$PROJECTNAME
  1

  9
$CAMERADISPLAY
290
     0
  9
$LENSLENGTH
 40
50.0
  9
$CAMERAHEIGHT
 40
0.0
  9
$STEPSPERSEC
 40
2.0
  9
$STEPSIZE
 40
6.0
  9
$3DDWFPREC
 40
2.0
  9
$PSOLWIDTH
 40
5.0
  9
$PSOLHEIGHT
 40
80.0
  9
$LOFTANG1
 40
1.570796326794897
  9
$LOFTANG2
 40
1.570796326794897
  9
$LOFTMAG1
 40
0.0
  9
$LOFTMAG2
 40
0.0
  9
$LOFTPARAM
 70
     7
  9
$LOFTNORMALS
280
     1
  9
$LATITUDE
 40
37.795
  9
$LONGITUDE
 40
-122.394
  9
$NORTHDIRECTION
 40
0.0
  9
$TIMEZONE
 70
 -8000
  9
$LIGHTGLYPHDISPLAY
280
     1
  9
$TILEMODELIGHTSYNCH
280
     1
  9
$CMATERIAL
347
44
  9
$SOLIDHIST
280
     0
  9
$SHOWHIST
280
     1
  9
$DWFFRAME
280
     2
  9
$DGNFRAME
280
     2
  9
$REALWORLDSCALE
290
     1
  9
$INTERFERECOLOR
 62
   256
  9
$CSHADOW
280
     0
  9
$SHADOWPLANELOCATION
 40
0.0
  0
ENDSEC
  0
SECTION
  2
CLASSES
  0
CLASS
  1
ACDBDICTIONARYWDFLT
  2
AcDbDictionaryWithDefault
  3
ObjectDBX Classes
 90
        0
 91
        3
280
     0
281
     0
  0
CLASS
  1
VISUALSTYLE
  2
AcDbVisualStyle
  3
ObjectDBX Classes
 90
     4095
 91
        3
280
     0
281
     0
  0
CLASS
  1
MATERIAL
  2
AcDbMaterial
  3
ObjectDBX Classes
 90
     1153
 91
        3
280
     0
281
     0
  0
CLASS
  1
SCALE
  2
AcDbScale
  3
ObjectDBX Classes
 90
     1153
 91
        3
280
     0
281
     0
  0
CLASS
  1
TABLESTYLE
  2
AcDbTableStyle
  3
ObjectDBX Classes
 90
     4095
 91
        3
280
     0
281
     0
  0
CLASS
  1
MLEADERSTYLE
  2
AcDbMLeaderStyle
  3
ACDB_MLEADERSTYLE_CLASS
 90
     4095
 91
        3
280
     0
281
     0
  0
CLASS
  1
SUN
  2
AcDbSun
  3
SCENEOE
 90
     1153
 91
        3
280
     0
281
     0
  0
CLASS
  1
DICTIONARYVAR
  2
AcDbDictionaryVar
  3
ObjectDBX Classes
 90
        0
 91
        3
280
     0
281
     0
  0
CLASS
  1
CELLSTYLEMAP
  2
AcDbCellStyleMap
  3
ObjectDBX Classes
 90
     1152
 91
        3
280
     0
281
     0
  0
ENDSEC
  0
SECTION
  2
TABLES
  0
TABLE
  2
VPORT
  5
8
330
0
100
AcDbSymbolTable
 70
     1
  0
VPORT
  5
29
330
8
100
AcDbSymbolTableRecord
100
AcDbViewportTableRecord
  2
*Active
 70
     0
 10
0.0
 20
0.0
 11
1.0
 21
1.0
 12
6.717231552936642
 22
1.25
 13
0.0
 23
0.0
 14
10.0
 24
10.0
 15
10.0
 25
10.0
 16
0.0
 26
0.0
 36
1.0
 17
0.0
 27
0.0
 37
0.0
 40
2.5
 41
1.972972972850329
 42
50.0
 43
0.0
 44
0.0
 50
0.0
 51
0.0
 71
     0
 72
   100
 73
     1
 74
     3
 75
     0
 76
     0
 77
     0
 78
     0
281
     0
 65
     1
110
0.0
120
0.0
130
0.0
111
1.0
121
0.0
131
0.0
112
0.0
122
1.0
132
0.0
 79
     0
146
0.0
348
2F
 60
     3
 61
     5
292
     1
282
     1
141
0.0
142
0.0
 63
   250
361
5D
  0
ENDTAB
  0
TABLE
  2
LTYPE
  5
5
330
0
100
AcDbSymbolTable
 70
     1
  0
LTYPE
  5
14
330
5
100
AcDbSymbolTableRecord
100
AcDbLinetypeTableRecord
  2
ByBlock
 70
     0
  3

 72
    65
 73
     0
 40
0.0
  0
LTYPE
  5
15
330
5
100
AcDbSymbolTableRecord
100
AcDbLinetypeTableRecord
  2
ByLayer
 70
     0
  3

 72
    65
 73
     0
 40
0.0
  0
LTYPE
  5
16
330
5
100
AcDbSymbolTableRecord
100
AcDbLinetypeTableRecord
  2
Continuous
 70
     0
  3
Solid line
 72
    65
 73
     0
 40
0.0
  0
ENDTAB
  0
TABLE
  2
LAYER
  5
2
330
0
100
AcDbSymbolTable
 70
     1
  0
LAYER
  5
10
330
2
100
AcDbSymbolTableRecord
100
AcDbLayerTableRecord
  2
0
 70
     0
 62
     7
  6
Continuous
370
    -3
390
F
347
46
348
0
  0
ENDTAB
  0
TABLE
  2
STYLE
  5
3
330
0
100
AcDbSymbolTable
 70
     1
  0
STYLE
  5
11
330
3
100
AcDbSymbolTableRecord
100
AcDbTextStyleTableRecord
  2
Standard
 70
     0
 40
0.0
 41
1.0
 50
0.0
 71
     0
 42
2.5
  3
txt
  4

  0
ENDTAB
  0
TABLE
  2
VIEW
  5
6
330
0
100
AcDbSymbolTable
 70
     0
  0
ENDTAB
  0
TABLE
  2
UCS
  5
7
330
0
100
AcDbSymbolTable
 70
     0
  0
ENDTAB
  0
TABLE
  2
APPID
  5
9
330
0
100
AcDbSymbolTable
 70
     1
  0
APPID
  5
12
330
9
100
AcDbSymbolTableRecord
100
AcDbRegAppTableRecord
  2
ACAD
 70
     0
  0
ENDTAB
  0
TABLE
  2
DIMSTYLE
  5
A
330
0
100
AcDbSymbolTable
 70
     1
100
AcDbDimStyleTable
  0
DIMSTYLE
105
27
330
A
100
AcDbSymbolTableRecord
100
AcDbDimStyleTableRecord
  2
ISO-25
 70
     0
 41
2.5
 42
0.625
 43
3.75
 44
1.25
 73
     0
 74
     0
 77
     1
 78
     8
140
2.5
141
2.5
143
0.03937007874016
147
0.625
171
     3
172
     1
178
     0
271
     2
272
     2
274
     3
278
    44
283
     0
284
     8
340
11
  0
ENDTAB
  0
TABLE
  2
BLOCK_RECORD
  5
1
330
0
100
AcDbSymbolTable
 70
     0
  0
BLOCK_RECORD
  5
1F
330
1
100
AcDbSymbolTableRecord
100
AcDbBlockTableRecord
  2
*Model_Space
340
22
 70
     0
280
     1
281
     0
  0
BLOCK_RECORD
  5
7D
330
1
100
AcDbSymbolTableRecord
100
AcDbBlockTableRecord
  2
*Paper_Space
340
7E
 70
     0
280
     1
281
     0
  0
ENDTAB
  0
ENDSEC
  0
SECTION
  2
BLOCKS
  0
BLOCK
  5
20
330
1F
100
AcDbEntity
  8
0
100
AcDbBlockBegin
  2
*Model_Space
 70
     0
 10
0.0
 20
0.0
 30
0.0
  3
*Model_Space
  1

  0
ENDBLK
  5
21
330
1F
100
AcDbEntity
  8
0
100
AcDbBlockEnd
  0
BLOCK
  5
7F
330
7D
100
AcDbEntity
 67
     1
  8
0
100
AcDbBlockBegin
  2
*Paper_Space
 70
     0
 10
0.0
 20
0.0
 30
0.0
  3
*Paper_Space
  1

  0
ENDBLK
  5
80
330
7D
100
AcDbEntity
 67
     1
  8
0
100
AcDbBlockEnd
  0
ENDSEC
  0
SECTION
  2
ENTITIES
  0
HATCH
  5
5E
330
1F
100
AcDbEntity
  8
0
 62
    18
420
        0
440
 33554687
100
AcDbHatch
 10
0.0
 20
0.0
 30
0.0
210
0.0
220
0.0
230
1.0
  2
SOLID
 70
     1
 71
     1
 91
       10
 92
        0
 93
        1
 72
     4
 94
        3
 73
     0
 74
     1
 95
       23
 96
       19
 40
0.0
 40
0.0
 40
0.0
 40
0.0
 40
1.0
 40
1.0
 40
1.0
 40
2.0
 40
2.0
 40
2.0
 40
3.0
 40
3.0
 40
3.0
 40
4.0
 40
4.0
 40
4.0
 40
5.0
 40
5.0
 40
5.0
 40
6.0
 40
6.0
 40
6.0
 40
6.0
 10
8.240882571193
 20
1.156785789469366
 10
8.232646911678609
 20
1.178256957466925
 10
8.243392465307862
 20
1.202375132344039
 10
8.264863633305419
 20
1.210610791858427
 10
8.28633480130298
 20
1.218846451372817
 10
8.310452976180093
 20
1.208100897743564
 10
8.318688635694482
 20
1.186629729746005
 10
8.32937749803242
 20
1.158762822601568
 10
8.337689647864975
 20
1.129567514337188
 10
8.343339151169053
 20
1.099246988584677
 10
8.34755149332322
 20
1.076639615530901
 10
8.332617062107763
 20
1.054865409541406
 10
8.310009689053988
 20
1.050653067387241
 10
8.287402316000211
 20
1.046440725233075
 10
8.265628110010718
 20
1.061375156448531
 10
8.261415767856551
 20
1.083982529502308
 10
8.256708938458832
 20
1.109243784215309
 10
8.249787894151936
 20
1.133568743525468
 10
8.240882571193
 20
1.156785789469366
 97
        0
 97
        0
 92
        0
 93
        1
 72
     4
 94
        3
 73
     0
 74
     1
 95
       23
 96
       19
 40
0.0
 40
0.0
 40
0.0
 40
0.0
 40
1.0
 40
1.0
 40
1.0
 40
2.0
 40
2.0
 40
2.0
 40
3.0
 40
3.0
 40
3.0
 40
4.0
 40
4.0
 40
4.0
 40
5.0
 40
5.0
 40
5.0
 40
6.0
 40
6.0
 40
6.0
 40
6.0
 10
8.106708617957278
 20
1.336587606040107
 10
8.08849663175001
 20
1.350628998464029
 10
8.085110638743261
 20
1.376814649755536
 10
8.09915203116718
 20
1.395026635962804
 10
8.113193423591103
 20
1.413238622170073
 10
8.13937907488261
 20
1.416624615176823
 10
8.15759106108988
 20
1.4025832227529
 10
8.181548250826106
 20
1.384112293847497
 10
8.203847542248889
 20
1.363467930654658
 10
8.224163018782045
 20
1.340888426984221
 10
8.23954429696492
 20
1.323793005834763
 10
8.238152630358455
 20
1.29742604646781
 10
8.221057209208997
 20
1.282044768284936
 10
8.203961788059539
 20
1.26666349010206
 10
8.177594828692586
 20
1.268055156708524
 10
8.16221355050971
 20
1.285150577857982
 10
8.145275582876785
 20
1.303976171326745
 10
8.126682853051676
 20
1.321187524459975
 10
8.106708617957278
 20
1.336587606040107
 97
        0
 97
        0
 92
        0
 93
        1
 72
     4
 94
        3
 73
     0
 74
     1
 95
       23
 96
       19
 40
0.0
 40
0.0
 40
0.0
 40
0.0
 40
1.0
 40
1.0
 40
1.0
 40
2.0
 40
2.0
 40
2.0
 40
3.0
 40
3.0
 40
3.0
 40
4.0
 40
4.0
 40
4.0
 40
5.0
 40
5.0
 40
5.0
 40
6.0
 40
6.0
 40
6.0
 40
6.0
 10
7.898687620003494
 20
1.420730347006897
 10
7.875829994778745
 20
1.423253462521755
 10
7.859320952841291
 20
1.443859403813271
 10
7.861844068356147
 20
1.466717029038021
 10
7.864367183871006
 20
1.489574654262769
 10
7.884973125162524
 20
1.506083696200222
 10
7.907830750387271
 20
1.503560580685366
 10
7.938265980217327
 20
1.500201019058671
 10
7.96803991721707
 20
1.494056559583105
 10
7.996841771687955
 20
1.485351803678048
 10
8.018854834165255
 20
1.478698817642672
 10
8.031325267421822
 20
1.455425623263827
 10
8.024672281386449
 20
1.433412560786528
 10
8.018019295351074
 20
1.411399498309229
 10
7.99474610097223
 20
1.39892906505266
 10
7.972733038494931
 20
1.405582051088035
 10
7.948773634625186
 20
1.412823277951659
 10
7.924005780127661
 20
1.417935627870991
 10
7.898687620003494
 20
1.420730347006897
 97
        0
 97
        0
 92
        0
 93
        1
 72
     4
 94
        3
 73
     0
 74
     1
 95
       23
 96
       19
 40
0.0
 40
0.0
 40
0.0
 40
0.0
 40
1.0
 40
1.0
 40
1.0
 40
2.0
 40
2.0
 40
2.0
 40
3.0
 40
3.0
 40
3.0
 40
4.0
 40
4.0
 40
4.0
 40
5.0
 40
5.0
 40
5.0
 40
6.0
 40
6.0
 40
6.0
 40
6.0
 10
7.677236786495886
 20
1.384258909921833
 10
7.656396731438494
 20
1.374536294634722
 10
7.631583720766661
 20
1.383562245199711
 10
7.62186110547955
 20
1.404402300257103
 10
7.612138490192438
 20
1.425242355314496
 10
7.621164440757425
 20
1.45005536598633
 10
7.642004495814818
 20
1.45977798127344
 10
7.669129578079647
 20
1.472432781789364
 10
7.697696853230569
 20
1.482765156884692
 10
7.727495371505959
 20
1.49048118363932
 10
7.749757598727575
 20
1.49624576358494
 10
7.772511810237863
 20
1.482851767140748
 10
7.778276390183485
 20
1.46058953991913
 10
7.784040970129107
 20
1.438327312697515
 10
7.770646973684912
 20
1.415573101187223
 10
7.748384746463295
 20
1.409808521241604
 10
7.723585838852673
 20
1.403387093409499
 10
7.699810808559648
 20
1.394790481522977
 10
7.677236786495886
 20
1.384258909921833
 97
        0
 97
        0
 92
        0
 93
        1
 72
     4
 94
        3
 73
     0
 74
     1
 95
       23
 96
       19
 40
0.0
 40
0.0
 40
0.0
 40
0.0
 40
1.0
 40
1.0
 40
1.0
 40
2.0
 40
2.0
 40
2.0
 40
3.0
 40
3.0
 40
3.0
 40
4.0
 40
4.0
 40
4.0
 40
5.0
 40
5.0
 40
5.0
 40
6.0
 40
6.0
 40
6.0
 40
6.0
 10
7.555957191460666
 20
0.7172073969156552
 10
7.57205467702702
 20
0.7007846047883275
 10
7.571790569372876
 20
0.6743822653209781
 10
7.555367777245548
 20
0.6582847797546227
 10
7.538944985118224
 20
0.6421872941882718
 10
7.512542645650873
 20
0.642451401842413
 10
7.496445160084519
 20
0.6588741939697407
 10
7.477113918816137
 20
0.6785960912564448
 10
7.459364340124917
 20
0.6999689771745077
 10
7.443441761958185
 20
0.7228127781874001
 10
7.43029192098505
 20
0.7416785892009159
 10
7.434932563442437
 20
0.7676712366186909
 10
7.453798374455951
 20
0.7808210775918267
 10
7.472664185469466
 20
0.7939709185649599
 10
7.498656832887241
 20
0.7893302761075756
 10
7.511806673860375
 20
0.7704644650940615
 10
7.525069464002851
 20
0.7514366081906196
 10
7.539855138548671
 20
0.7336348486879762
 10
7.555957191460666
 20
0.7172073969156552
 97
        0
 97
        0
 92
        0
 93
        1
 72
     4
 94
        3
 73
     0
 74
     1
 95
       23
 96
       19
 40
0.0
 40
0.0
 40
0.0
 40
0.0
 40
1.0
 40
1.0
 40
1.0
 40
2.0
 40
2.0
 40
2.0
 40
3.0
 40
3.0
 40
3.0
 40
4.0
 40
4.0
 40
4.0
 40
5.0
 40
5.0
 40
5.0
 40
6.0
 40
6.0
 40
6.0
 40
6.0
 10
8.163427794239762
 20
0.7316262563896556
 10
8.17869550050702
 20
0.7488231830962846
 10
8.205052663521835
 20
0.750389465322634
 10
8.222249590228463
 20
0.7351217590553771
 10
8.239446516935091
 20
0.7198540527881185
 10
8.24101279916144
 20
0.6934968897733063
 10
8.225745092894183
 20
0.6762999630666773
 10
8.205681348984763
 20
0.6537009735766341
 10
8.183542885298698
 20
0.6328783916568632
 10
8.159566904381457
 20
0.6141557908106394
 10
8.141441967749952
 20
0.6000022112308905
 10
8.115235907932773
 20
0.6032264492898047
 10
8.101082328353023
 20
0.6213513859213098
 10
8.086928748773271
 20
0.639476322552814
 10
8.090152986832187
 20
0.6656823823699929
 10
8.108277923463692
 20
0.6798359619497409
 10
8.128258803229226
 20
0.6954388287395412
 10
8.146707258129718
 20
0.7127929209202231
 10
8.163427794239762
 20
0.7316262563896556
 97
        0
 97
        0
 92
        0
 93
        1
 72
     4
 94
        3
 73
     0
 74
     1
 95
       29
 96
       25
 40
0.0
 40
0.0
 40
0.0
 40
0.0
 40
1.0
 40
1.0
 40
1.0
 40
2.0
 40
2.0
 40
2.0
 40
3.0
 40
3.0
 40
3.0
 40
4.0
 40
4.0
 40
4.0
 40
5.0
 40
5.0
 40
5.0
 40
6.0
 40
6.0
 40
6.0
 40
7.0
 40
7.0
 40
7.0
 40
8.0
 40
8.0
 40
8.0
 40
8.0
 10
7.974730985311132
 20
0.6103635856076242
 10
7.996725866411636
 20
0.6170764350913389
 10
8.020032901344154
 20
0.6046693643308156
 10
8.02674575082787
 20
0.5826744832303117
 10
8.033458600311585
 20
0.5606796021298077
 10
8.021051529551062
 20
0.5373725671972913
 10
7.99905664845056
 20
0.5306597177135757
 10
7.977073786485782
 20
0.5239505364765176
 10
7.954365760207395
 20
0.5186836998638196
 10
7.931022342402608
 20
0.5149864656995469
 10
7.924080369961594
 20
0.5138869652797275
 10
7.917148955850935
 20
0.5129368673973378
 10
7.910231390951446
 20
0.5121336923675095
 10
7.887388386522341
 20
0.5094814684953342
 10
7.866689495856383
 20
0.5258738205962654
 10
7.864037271984211
 20
0.5487168250253731
 10
7.861385048112038
 20
0.5715598294544826
 10
7.877777400212968
 20
0.5922587201204363
 10
7.900620404642074
 20
0.5949109439926117
 10
7.906398334844411
 20
0.5955817998978379
 10
7.912187820260797
 20
0.5963754642670009
 10
7.917986136982583
 20
0.5972938274158075
 10
7.937455797827872
 20
0.6003775187520954
 10
7.956396100914938
 20
0.6047677690769246
 10
7.974730985311132
 20
0.6103635856076242
 97
        0
 97
        0
 92
        0
 93
        1
 72
     4
 94
        3
 73
     0
 74
     1
 95
       23
 96
       19
 40
0.0
 40
0.0
 40
0.0
 40
0.0
 40
1.0
 40
1.0
 40
1.0
 40
2.0
 40
2.0
 40
2.0
 40
3.0
 40
3.0
 40
3.0
 40
4.0
 40
4.0
 40
4.0
 40
5.0
 40
5.0
 40
5.0
 40
6.0
 40
6.0
 40
6.0
 40
6.0
 10
7.507180721768578
 20
1.237840321313577
 10
7.494432211655416
 20
1.218701025801176
 10
7.468543359262299
 20
1.213512518889797
 10
7.449404063749897
 20
1.226261029002957
 10
7.430264768237499
 20
1.239009539116121
 10
7.425076261326117
 20
1.264898391509236
 10
7.43782477143928
 20
1.284037687021637
 10
7.454612473862365
 20
1.309241008413517
 10
7.473668960091284
 20
1.332908677437269
 10
7.494755665194204
 20
1.354713255605097
 10
7.510742218371499
 20
1.371244052933895
 10
7.537142181333918
 20
1.371685910133778
 10
7.553672978662717
 20
1.355699356956482
 10
7.570203775991517
 20
1.339712803779184
 10
7.570645633191399
 20
1.313312840816769
 10
7.554659080014102
 20
1.296782043487969
 10
7.537073368492497
 20
1.278597646274736
 10
7.521181187487713
 20
1.258859173581897
 10
7.507180721768578
 20
1.237840321313577
 97
        0
 97
        0
 92
        0
 93
        1
 72
     4
 94
        3
 73
     0
 74
     1
 95
       23
 96
       19
 40
0.0
 40
0.0
 40
0.0
 40
0.0
 40
1.0
 40
1.0
 40
1.0
 40
2.0
 40
2.0
 40
2.0
 40
3.0
 40
3.0
 40
3.0
 40
4.0
 40
4.0
 40
4.0
 40
5.0
 40
5.0
 40
5.0
 40
6.0
 40
6.0
 40
6.0
 40
6.0
 10
7.750387868437535
 20
0.6049777338698226
 10
7.772666964437818
 20
0.5992786967382866
 10
7.786127868639328
 20
0.5765640023692269
 10
7.780428831507793
 20
0.554284906368947
 10
7.774729794376257
 20
0.5320058103686645
 10
7.752015100007198
 20
0.5185449061671523
 10
7.729736004006917
 20
0.5242439432986892
 10
7.700191843979738
 20
0.5318013982785867
 10
7.671564762878998
 20
0.5420261144217733
 10
7.644175945437278
 20
0.554687116098961
 10
7.623301900435063
 20
0.5643365403336924
 10
7.614188932498966
 20
0.5891177246798405
 10
7.623838356733699
 20
0.6099917696820567
 10
7.633487780968429
 20
0.630865814684272
 10
7.65826896531458
 20
0.6399787826203687
 10
7.679143010316797
 20
0.6303293583856364
 10
7.701949554920835
 20
0.6197865994623282
 10
7.725786579795466
 20
0.6112707925043832
 10
7.750387868437535
 20
0.6049777338698226
 97
        0
 97
        0
 92
        0
 93
        1
 72
     4
 94
        3
 73
     0
 74
     1
 95
       23
 96
       19
 40
0.0
 40
0.0
 40
0.0
 40
0.0
 40
1.0
 40
1.0
 40
1.0
 40
2.0
 40
2.0
 40
2.0
 40
3.0
 40
3.0
 40
3.0
 40
4.0
 40
4.0
 40
4.0
 40
5.0
 40
5.0
 40
5.0
 40
6.0
 40
6.0
 40
6.0
 40
6.0
 10
8.26186543778275
 20
0.9333404359481445
 10
8.265987708523246
 20
0.9559644061293131
 10
8.287702262714353
 20
0.9709854386665135
 10
8.31032623289552
 20
0.9668631679260216
 10
8.33295020307669
 20
0.962740897185526
 10
8.34797123561389
 20
0.9410263429944186
 10
8.343848964873398
 20
0.9184023728132509
 10
8.338371640477963
 20
0.8883415564341623
 10
8.330163581012211
 20
0.8590692605841976
 10
8.319452785867718
 20
0.8309020981360371
 10
8.31127918516511
 20
0.8094072291117627
 10
8.28719215194282
 20
0.798592049374454
 10
8.265697282918545
 20
0.8067656500770601
 10
8.24420241389427
 20
0.8149392507796644
 10
8.233387234156961
 20
0.8390262840019576
 10
8.241560834859566
 20
0.860521153026232
 10
8.250474601710117
 20
0.8839625050003255
 10
8.257307084087524
 20
0.9083231421874522
 10
8.26186543778275
 20
0.9333404359481445
 97
        0
 97
        0
 75
     0
 76
     1
 98
        0
  0
HATCH
  5
5F
330
1F
100
AcDbEntity
  8
0
 62
    18
420
        0
440
 33554687
100
AcDbHatch
 10
0.0
 20
0.0
 30
0.0
210
0.0
220
0.0
230
1.0
  2
SOLID
 70
     1
 71
     1
 91
       11
 92
        0
 93
        1
 72
     4
 94
        3
 73
     0
 74
     1
 95
       23
 96
       19
 40
0.0
 40
0.0
 40
0.0
 40
0.0
 40
1.0
 40
1.0
 40
1.0
 40
2.0
 40
2.0
 40
2.0
 40
3.0
 40
3.0
 40
3.0
 40
4.0
 40
4.0
 40
4.0
 40
5.0
 40
5.0
 40
5.0
 40
6.0
 40
6.0
 40
6.0
 40
6.0
 10
7.455580278281714
 20
0.4697455930916004
 10
7.47425167038988
 20
0.456321128127982
 10
7.478511509525811
 20
0.4302633643571188
 10
7.465087044562193
 20
0.4115919722489512
 10
7.451662579598574
 20
0.3929205801407853
 10
7.42560481582771
 20
0.3886607410048519
 10
7.406933423719543
 20
0.4020852059684703
 10
7.38305922724534
 20
0.4192504131606167
 10
7.360197307585165
 20
0.4378208593387853
 10
7.338482601316616
 20
0.4576983053225341
 10
7.321519891344952
 20
0.4732258168177328
 10
7.320354692273296
 20
0.4996037544423011
 10
7.335882203768494
 20
0.516566464413966
 10
7.351409715263696
 20
0.5335291743856292
 10
7.377787652888262
 20
0.5346943734572829
 10
7.394750362859926
 20
0.519166861962086
 10
7.414047452112876
 20
0.50150248075769
 10
7.434364126678847
 20
0.4849997038834211
 10
7.455580278281714
 20
0.4697455930916004
 97
        0
 97
        0
 92
        0
 93
        1
 72
     4
 94
        3
 73
     0
 74
     1
 95
       23
 96
       19
 40
0.0
 40
0.0
 40
0.0
 40
0.0
 40
1.0
 40
1.0
 40
1.0
 40
2.0
 40
2.0
 40
2.0
 40
3.0
 40
3.0
 40
3.0
 40
4.0
 40
4.0
 40
4.0
 40
5.0
 40
5.0
 40
5.0
 40
6.0
 40
6.0
 40
6.0
 40
6.0
 10
8.122708824395882
 20
1.60285881015815
 10
8.101923664307398
 20
1.612698234069761
 10
8.093037115275312
 20
1.637561510774622
 10
8.102876539186921
 20
1.658346670863106
 10
8.11271596309853
 20
1.679131830951593
 10
8.137579239803394
 20
1.688018379983677
 10
8.158364399891877
 20
1.678178956072067
 10
8.184997021840248
 20
1.665571419920693
 10
8.210826612120666
 20
1.65141197127087
 10
8.235718438727357
 20
1.635798054241794
 10
8.255199488891087
 20
1.623578159506788
 10
8.261094625837952
 20
1.597841014315845
 10
8.248874731102946
 20
1.578359964152114
 10
8.236654836367943
 20
1.558878913988385
 10
8.210917691176997
 20
1.552983777041519
 10
8.191436641013269
 20
1.565203671776525
 10
8.169320601391949
 20
1.579076418566678
 10
8.146371536318814
 20
1.591657190708655
 10
8.122708824395882
 20
1.60285881015815
 97
        0
 97
        0
 92
        0
 93
        1
 72
     4
 94
        3
 73
     0
 74
     1
 95
       23
 96
       19
 40
0.0
 40
0.0
 40
0.0
 40
0.0
 40
1.0
 40
1.0
 40
1.0
 40
2.0
 40
2.0
 40
2.0
 40
3.0
 40
3.0
 40
3.0
 40
4.0
 40
4.0
 40
4.0
 40
5.0
 40
5.0
 40
5.0
 40
6.0
 40
6.0
 40
6.0
 40
6.0
 10
7.743253237756188
 20
0.3525903889414579
 10
7.765996394761701
 20
0.3491865745753273
 10
7.781697487300018
 20
0.3279585512263381
 10
7.778293672933888
 20
0.3052153942208271
 10
7.77488985856776
 20
0.2824722372153161
 10
7.75366183521877
 20
0.2667711446769996
 10
7.73091867821326
 20
0.2701749590431266
 10
7.701631867097298
 20
0.2745581178275689
 10
7.672804862601252
 20
0.2806751299544192
 10
7.644565921623476
 20
0.2884331847355384
 10
7.622391075564369
 20
0.2945252570489032
 10
7.609333903789538
 20
0.3174744083936627
 10
7.615425976102902
 20
0.3396492544527678
 10
7.621518048416267
 20
0.3618241005118747
 10
7.644467199761025
 20
0.3748812722867072
 10
7.666642045820131
 20
0.3687891999733424
 10
7.691695336952721
 20
0.3619063354492464
 10
7.7172702872691
 20
0.356479081268601
 10
7.743253237756188
 20
0.3525903889414579
 97
        0
 97
        0
 92
        0
 93
        1
 72
     4
 94
        3
 73
     0
 74
     1
 95
       23
 96
       19
 40
0.0
 40
0.0
 40
0.0
 40
0.0
 40
1.0
 40
1.0
 40
1.0
 40
2.0
 40
2.0
 40
2.0
 40
3.0
 40
3.0
 40
3.0
 40
4.0
 40
4.0
 40
4.0
 40
5.0
 40
5.0
 40
5.0
 40
6.0
 40
6.0
 40
6.0
 40
6.0
 10
7.51934284246614
 20
1.582597150235467
 10
7.499262771807379
 20
1.571388764751574
 10
7.473860515151738
 20
1.578591447515868
 10
7.462652129667847
 20
1.59867151817463
 10
7.451443744183955
 20
1.618751588833391
 10
7.458646426948249
 20
1.644153845489031
 10
7.47872649760701
 20
1.655362230972925
 10
7.504265677534317
 20
1.669617806983201
 10
7.530798786735767
 20
1.682437833410692
 10
7.558234789836096
 20
1.693697021508716
 10
7.579509468633479
 20
1.702427725082005
 10
7.603870032176633
 20
1.692243608720635
 10
7.612600735749924
 20
1.670968929923254
 10
7.621331439323213
 20
1.649694251125875
 10
7.611147322961841
 20
1.625333687582716
 10
7.58987264416446
 20
1.616602984009428
 10
7.565534856443566
 20
1.606615241668194
 10
7.541998006097793
 20
1.595242912867453
 10
7.51934284246614
 20
1.582597150235467
 97
        0
 97
        0
 92
        0
 93
        1
 72
     4
 94
        3
 73
     0
 74
     1
 95
       23
 96
       19
 40
0.0
 40
0.0
 40
0.0
 40
0.0
 40
1.0
 40
1.0
 40
1.0
 40
2.0
 40
2.0
 40
2.0
 40
3.0
 40
3.0
 40
3.0
 40
4.0
 40
4.0
 40
4.0
 40
5.0
 40
5.0
 40
5.0
 40
6.0
 40
6.0
 40
6.0
 40
6.0
 10
7.818655199768881
 20
1.665744905850572
 10
7.795672699050532
 20
1.664943779426453
 10
7.776363411365627
 20
1.682952241084899
 10
7.77556228494151
 20
1.705934741803246
 10
7.77476115851739
 20
1.728917242521596
 10
7.792769620175835
 20
1.748226530206503
 10
7.815752120894184
 20
1.749027656630621
 10
7.845455133304644
 20
1.750063047357224
 10
7.87490337857147
 20
1.749306251840374
 10
7.90397706434018
 20
1.74684505633414
 10
7.926891564730815
 20
1.744905258750935
 10
7.943920362238784
 20
1.724726722192631
 10
7.941980564655578
 20
1.701812221801995
 10
7.940040767072372
 20
1.678897721411357
 10
7.91986223051407
 20
1.66186892390339
 10
7.896947730123433
 20
1.663808721486594
 10
7.871147181714831
 20
1.665992833755912
 10
7.845014224753672
 20
1.66666373151224
 10
7.818655199768881
 20
1.665744905850572
 97
        0
 97
        0
 92
        0
 93
        1
 72
     4
 94
        3
 73
     0
 74
     1
 95
       23
 96
       19
 40
0.0
 40
0.0
 40
0.0
 40
0.0
 40
1.0
 40
1.0
 40
1.0
 40
2.0
 40
2.0
 40
2.0
 40
3.0
 40
3.0
 40
3.0
 40
4.0
 40
4.0
 40
4.0
 40
5.0
 40
5.0
 40
5.0
 40
6.0
 40
6.0
 40
6.0
 40
6.0
 10
8.052690320251088
 20
0.3802400361274074
 10
8.07447965980756
 20
0.3875927107774313
 10
8.0981392779415
 20
0.3758719705295555
 10
8.105491952591526
 20
0.3540826309730836
 10
8.112844627241548
 20
0.3322932914166117
 10
8.101123886993673
 20
0.3086336732826691
 10
8.079334547437199
 20
0.3012809986326452
 10
8.05174368485822
 20
0.2919706367774371
 10
8.02334392416029
 20
0.2841998797586474
 10
7.99421876689911
 20
0.2780854778695385
 10
7.971712909221507
 20
0.2733607013656414
 10
7.949605089160948
 20
0.2877966832987191
 10
7.944880312657052
 20
0.3103025409763216
 10
7.940155536153154
 20
0.3328083986539259
 10
7.954591518086231
 20
0.3549162187144859
 10
7.977097375763837
 20
0.359640995218383
 10
8.002963865661052
 20
0.365071287431876
 10
8.02818646052066
 20
0.3719713638346711
 10
8.052690320251088
 20
0.3802400361274074
 97
        0
 97
        0
 92
        0
 93
        1
 72
     4
 94
        3
 73
     0
 74
     1
 95
       23
 96
       19
 40
0.0
 40
0.0
 40
0.0
 40
0.0
 40
1.0
 40
1.0
 40
1.0
 40
2.0
 40
2.0
 40
2.0
 40
3.0
 40
3.0
 40
3.0
 40
4.0
 40
4.0
 40
4.0
 40
5.0
 40
5.0
 40
5.0
 40
6.0
 40
6.0
 40
6.0
 40
6.0
 10
8.315052310114977
 20
0.5463159600411842
 10
8.331039045541976
 20
0.5628465811185528
 10
8.357439013374226
 20
0.563288147260999
 10
8.373969634451592
 20
0.5473014118340025
 10
8.390500255528961
 20
0.5313146764070016
 10
8.390941821671408
 20
0.5049147085747521
 10
8.374955086244409
 20
0.4883840874973835
 10
8.354542248746338
 20
0.4672767836744534
 10
8.332853476290865
 20
0.4473404148189246
 10
8.30998623347637
 20
0.4287082871523431
 10
8.29215840545032
 20
0.4141822522257037
 10
8.265891173638735
 20
0.4168628893064472
 10
8.251365138712096
 20
0.4346907173324954
 10
8.23683910378546
 20
0.4525185453585454
 10
8.239519740866202
 20
0.4787857771701294
 10
8.257347568892254
 20
0.4933118120967688
 10
8.277658158499094
 20
0.5098607901090304
 10
8.296921713064089
 20
0.527568540899658
 10
8.315052310114977
 20
0.5463159600411842
 97
        0
 97
        0
 92
        0
 93
        1
 72
     4
 94
        3
 73
     0
 74
     1
 95
       23
 96
       19
 40
0.0
 40
0.0
 40
0.0
 40
0.0
 40
1.0
 40
1.0
 40
1.0
 40
2.0
 40
2.0
 40
2.0
 40
3.0
 40
3.0
 40
3.0
 40
4.0
 40
4.0
 40
4.0
 40
5.0
 40
5.0
 40
5.0
 40
6.0
 40
6.0
 40
6.0
 40
6.0
 10
7.291378971419907
 20
1.371554883467826
 10
7.278630461306746
 20
1.352415587955425
 10
7.252741608913627
 20
1.347227081044045
 10
7.233602313401225
 20
1.359975591157206
 10
7.214463017888825
 20
1.372724101270365
 10
7.209274510977447
 20
1.398612953663487
 10
7.222023021090608
 20
1.417752249175885
 10
7.238329948230816
 20
1.442233784246673
 10
7.256072509893391
 20
1.4657436089987
 10
7.275152480412848
 20
1.488146622436311
 10
7.290063066071784
 20
1.505654094501803
 10
7.316382415893286
 20
1.507762436783185
 10
7.333889887958777
 20
1.492851851124252
 10
7.351397360024267
 20
1.477941265465316
 10
7.35350570230565
 20
1.451621915643813
 10
7.338595116646716
 20
1.434114443578324
 10
7.321638733616321
 20
1.414204870002421
 10
7.305870948876379
 20
1.393311640660346
 10
7.291378971419907
 20
1.371554883467826
 97
        0
 97
        0
 92
        0
 93
        1
 72
     4
 94
        3
 73
     0
 74
     1
 95
       23
 96
       19
 40
0.0
 40
0.0
 40
0.0
 40
0.0
 40
1.0
 40
1.0
 40
1.0
 40
2.0
 40
2.0
 40
2.0
 40
3.0
 40
3.0
 40
3.0
 40
4.0
 40
4.0
 40
4.0
 40
5.0
 40
5.0
 40
5.0
 40
6.0
 40
6.0
 40
6.0
 40
6.0
 10
8.472843853527543
 20
0.8139898858753893
 10
8.47954754556477
 20
0.8359875597498325
 10
8.502849413190697
 20
0.8484043325731498
 10
8.52484708706514
 20
0.8417006405359215
 10
8.546844760939585
 20
0.8349969484986923
 10
8.559261533762902
 20
0.8116950808727657
 10
8.552557841725674
 20
0.7896974069983216
 10
8.543948954596605
 20
0.7614479751277266
 10
8.53368661589234
 20
0.7338296331355476
 10
8.521866447675583
 20
0.706974919330996
 10
8.512602197196992
 20
0.6859270974511364
 10
8.487992640295142
 20
0.6763603325174392
 10
8.466944818415282
 20
0.6856245829960281
 10
8.44589699653542
 20
0.6948888334746197
 10
8.436330231601724
 20
0.7194983903764713
 10
8.445594482080315
 20
0.7405462122563327
 10
8.456088832460651
 20
0.7643887473929389
 10
8.46520058853668
 20
0.7889090722474377
 10
8.472843853527543
 20
0.8139898858753893
 97
        0
 97
        0
 92
        0
 93
        1
 72
     4
 94
        3
 73
     0
 74
     1
 95
       29
 96
       25
 40
0.0
 40
0.0
 40
0.0
 40
0.0
 40
1.0
 40
1.0
 40
1.0
 40
2.0
 40
2.0
 40
2.0
 40
3.0
 40
3.0
 40
3.0
 40
4.0
 40
4.0
 40
4.0
 40
5.0
 40
5.0
 40
5.0
 40
6.0
 40
6.0
 40
6.0
 40
7.0
 40
7.0
 40
7.0
 40
8.0
 40
8.0
 40
8.0
 40
8.0
 10
8.490554342249412
 20
1.12404772263323
 10
8.48644412749142
 20
1.146673886193575
 10
8.50147672870241
 20
1.168380433202103
 10
8.524102892262755
 20
1.172490647960097
 10
8.546729055823102
 20
1.176600862718089
 10
8.568435602831629
 20
1.161568261507099
 10
8.572545817589623
 20
1.138942097946752
 10
8.573561620765627
 20
1.13335024200766
 10
8.574516746504107
 20
1.127732916421994
 10
8.575410386860547
 20
1.122090693267942
 10
8.57915770905923
 20
1.098431032060024
 10
8.581741561652306
 20
1.074853580869397
 10
8.58320532769093
 20
1.051416756353856
 10
8.58463879729607
 20
1.028465017689706
 10
8.567168692956947
 20
1.008667322455604
 10
8.544216954292798
 20
1.007233852850466
 10
8.521265215628647
 20
1.005800383245326
 10
8.501467520394545
 20
1.023270487584447
 10
8.500034050789406
 20
1.046222226248598
 10
8.498732695712047
 20
1.067058637106408
 10
8.496434566279332
 20
1.088019964960328
 10
8.493103025144285
 20
1.109054487847924
 10
8.492307924822196
 20
1.114074553710845
 10
8.491458134727674
 20
1.119072470087602
 10
8.490554342249412
 20
1.12404772263323
 97
        0
 97
        0
 92
        0
 93
        1
 72
     4
 94
        3
 73
     0
 74
     1
 95
       23
 96
       19
 40
0.0
 40
0.0
 40
0.0
 40
0.0
 40
1.0
 40
1.0
 40
1.0
 40
2.0
 40
2.0
 40
2.0
 40
3.0
 40
3.0
 40
3.0
 40
4.0
 40
4.0
 40
4.0
 40
5.0
 40
5.0
 40
5.0
 40
6.0
 40
6.0
 40
6.0
 40
6.0
 10
8.364685018734544
 20
1.407907124290237
 10
8.350656357120469
 20
1.426128918826839
 10
8.354060649048574
 20
1.452312197434959
 10
8.372282443585178
 20
1.466340859049031
 10
8.39050423812178
 20
1.480369520663105
 10
8.416687516729898
 20
1.476965228735001
 10
8.430716178343971
 20
1.458743434198396
 10
8.448599862734367
 20
1.435514359930022
 10
8.465168764566167
 20
1.411146985025885
 10
8.480292766883423
 20
1.385736443286235
 10
8.49205432660738
 20
1.365975298185908
 10
8.485559678231548
 20
1.340382861321154
 10
8.465798533131217
 20
1.328621301597198
 10
8.446037388030891
 20
1.316859741873242
 10
8.420444951166138
 20
1.323354390249077
 10
8.408683391442182
 20
1.343115535349403
 10
8.395261221118263
 20
1.365666749776517
 10
8.38055633724348
 20
1.387291907183235
 10
8.364685018734544
 20
1.407907124290237
 97
        0
 97
        0
 75
     0
 76
     1
 98
        0
  0
HATCH
  5
60
330
1F
100
AcDbEntity
  8
0
 62
    18
420
        0
440
 33554687
100
AcDbHatch
 10
0.0
 20
0.0
 30
0.0
210
0.0
220
0.0
230
1.0
  2
SOLID
 70
     1
 71
     1
 91
        6
 92
        0
 93
        1
 72
     4
 94
        3
 73
     0
 74
     1
 95
       23
 96
       19
 40
0.0
 40
0.0
 40
0.0
 40
0.0
 40
1.0
 40
1.0
 40
1.0
 40
2.0
 40
2.0
 40
2.0
 40
3.0
 40
3.0
 40
3.0
 40
4.0
 40
4.0
 40
4.0
 40
5.0
 40
5.0
 40
5.0
 40
6.0
 40
6.0
 40
6.0
 40
6.0
 10
8.006910295671332
 20
1.100303346561806
 10
7.994493579840395
 20
1.119659542231155
 10
8.000127557020617
 20
1.145455115171775
 10
8.019483752689965
 20
1.157871831002714
 10
8.038839948359312
 20
1.170288546833651
 10
8.064635521299932
 20
1.164654569653432
 10
8.07705223713087
 20
1.145298373984082
 10
8.085962874388954
 20
1.131407741335765
 10
8.09357055104305
 20
1.116527590113428
 10
8.099676165383107
 20
1.100803080999407
 10
8.107999927538573
 20
1.079365914059826
 10
8.097353506621008
 20
1.055203815561388
 10
8.075916339681426
 20
1.046880053405924
 10
8.054479172741841
 20
1.038556291250457
 10
8.030317074243406
 20
1.049202712168023
 10
8.021993312087941
 20
1.070639879107605
 10
8.017922887159536
 20
1.081122924763581
 10
8.012850742938912
 20
1.091042889832326
 10
8.006910295671332
 20
1.100303346561806
 97
        0
 97
        0
 92
        0
 93
        1
 72
     4
 94
        3
 73
     0
 74
     1
 95
       23
 96
       19
 40
0.0
 40
0.0
 40
0.0
 40
0.0
 40
1.0
 40
1.0
 40
1.0
 40
2.0
 40
2.0
 40
2.0
 40
3.0
 40
3.0
 40
3.0
 40
4.0
 40
4.0
 40
4.0
 40
5.0
 40
5.0
 40
5.0
 40
6.0
 40
6.0
 40
6.0
 40
6.0
 10
7.866698478355633
 20
1.177874742995719
 10
7.843702749242195
 20
1.178058006079186
 10
7.82518192116428
 20
1.19687640690153
 10
7.825365184247746
 20
1.219872136014966
 10
7.825548447331209
 20
1.242867865128405
 10
7.844366848153554
 20
1.261388693206317
 10
7.867362577266992
 20
1.261205430122852
 10
7.884257748346321
 20
1.261070785070619
 10
7.90086473020002
 20
1.259231037702558
 10
7.916987461093815
 20
1.255829463877878
 10
7.939488581382422
 20
1.251082177434661
 10
7.953902441941922
 20
1.228959928318138
 10
7.949155155498706
 20
1.206458808029532
 10
7.944407869055489
 20
1.183957687740924
 10
7.922285619938968
 20
1.169543827181422
 10
7.899784499650361
 20
1.174291113624639
 10
7.889035136458449
 20
1.176559014311345
 10
7.87796284363702
 20
1.177784972312453
 10
7.866698478355633
 20
1.177874742995719
 97
        0
 97
        0
 92
        0
 93
        1
 72
     4
 94
        3
 73
     0
 74
     1
 95
       23
 96
       19
 40
0.0
 40
0.0
 40
0.0
 40
0.0
 40
1.0
 40
1.0
 40
1.0
 40
2.0
 40
2.0
 40
2.0
 40
3.0
 40
3.0
 40
3.0
 40
4.0
 40
4.0
 40
4.0
 40
5.0
 40
5.0
 40
5.0
 40
6.0
 40
6.0
 40
6.0
 40
6.0
 10
7.725125226657523
 20
1.102798070738386
 10
7.712376716544362
 20
1.083658775225985
 10
7.686487864151243
 20
1.078470268314605
 10
7.667348568638841
 20
1.091218778427766
 10
7.648209273126442
 20
1.103967288540925
 10
7.643020766215062
 20
1.129856140934048
 10
7.655769276328223
 20
1.148995436446445
 10
7.664982884630753
 20
1.162827795716065
 10
7.675552348762722
 20
1.175742400427181
 10
7.687322121272634
 20
1.187526522578488
 10
7.703573164016783
 20
1.203797378503859
 10
7.729976819510852
 20
1.20381346429321
 10
7.746247675436223
 20
1.187562421549061
 10
7.762518531361594
 20
1.171311378804912
 10
7.762534617150943
 20
1.144907723310842
 10
7.746283574406794
 20
1.128636867385471
 10
7.738390940580079
 20
1.120734610903347
 10
7.731303734907653
 20
1.112073844470013
 10
7.725125226657523
 20
1.102798070738386
 97
        0
 97
        0
 92
        0
 93
        1
 72
     4
 94
        3
 73
     0
 74
     1
 95
       23
 96
       19
 40
0.0
 40
0.0
 40
0.0
 40
0.0
 40
1.0
 40
1.0
 40
1.0
 40
2.0
 40
2.0
 40
2.0
 40
3.0
 40
3.0
 40
3.0
 40
4.0
 40
4.0
 40
4.0
 40
5.0
 40
5.0
 40
5.0
 40
6.0
 40
6.0
 40
6.0
 40
6.0
 10
7.740193563880867
 20
0.8969523452151371
 10
7.7556160037193
 20
0.8798940483409963
 10
7.754287895356153
 20
0.8535238111335346
 10
7.737229598482012
 20
0.8381013712951031
 10
7.720171301607873
 20
0.8226789314566707
 10
7.693801064400411
 20
0.8240070398198176
 10
7.678378624561979
 20
0.8410653366939558
 10
7.671299241962434
 20
0.8488956288742973
 10
7.664694093337515
 20
0.8571902415984107
 10
7.658616521020258
 20
0.8659096117408014
 10
7.645466680047124
 20
0.8847754227543154
 10
7.65010732250451
 20
0.9107680701720922
 10
7.668973133518024
 20
0.923917911145228
 10
7.687838944531538
 20
0.9370677521183595
 10
7.713831591949314
 20
0.9324271096609769
 10
7.726981432922448
 20
0.913561298647461
 10
7.73104451206874
 20
0.9077320811334593
 10
7.735460737958389
 20
0.9021871816278582
 10
7.740193563880867
 20
0.8969523452151371
 97
        0
 97
        0
 92
        0
 93
        1
 72
     4
 94
        3
 73
     0
 74
     1
 95
       23
 96
       19
 40
0.0
 40
0.0
 40
0.0
 40
0.0
 40
1.0
 40
1.0
 40
1.0
 40
2.0
 40
2.0
 40
2.0
 40
3.0
 40
3.0
 40
3.0
 40
4.0
 40
4.0
 40
4.0
 40
5.0
 40
5.0
 40
5.0
 40
6.0
 40
6.0
 40
6.0
 40
6.0
 10
7.891222321655598
 20
0.8433730959347709
 10
7.913941147407778
 20
0.8469356931977892
 10
7.935278328432743
 20
0.8313832661167861
 10
7.938840925695762
 20
0.8086644403646064
 10
7.942403522958779
 20
0.7859456146124266
 10
7.926851095877775
 20
0.7646084335874619
 10
7.904132270125595
 20
0.7610458363244437
 10
7.887366877526992
 20
0.7584168121646231
 10
7.870724815051108
 20
0.7575166078600493
 10
7.854387777192946
 20
0.7582066671017804
 10
7.831411804748508
 20
0.7591771479356169
 10
7.813546137514008
 20
0.7786186297841846
 10
7.814516618347843
 20
0.8015946022286213
 10
7.815487099181682
 20
0.8245705746730572
 10
7.834928581030249
 20
0.8424362419075573
 10
7.857904553474685
 20
0.8414657610737208
 10
7.868846849472027
 20
0.8410035700361362
 10
7.879993120259466
 20
0.8416122160989881
 10
7.891222321655598
 20
0.8433730959347709
 97
        0
 97
        0
 92
        0
 93
        1
 72
     4
 94
        3
 73
     0
 74
     1
 95
       23
 96
       19
 40
0.0
 40
0.0
 40
0.0
 40
0.0
 40
1.0
 40
1.0
 40
1.0
 40
2.0
 40
2.0
 40
2.0
 40
3.0
 40
3.0
 40
3.0
 40
4.0
 40
4.0
 40
4.0
 40
5.0
 40
5.0
 40
5.0
 40
6.0
 40
6.0
 40
6.0
 40
6.0
 10
8.018608563378002
 20
0.9406027837655584
 10
8.028070343342828
 20
0.9615625514816761
 10
8.052768780316828
 20
0.970897458725104
 10
8.073728548032946
 20
0.9614356787602789
 10
8.094688315749064
 20
0.9519738987954556
 10
8.10402322299249
 20
0.9272754618214547
 10
8.094561443027667
 20
0.906315694105337
 10
8.087701399146969
 20
0.8911193011648644
 10
8.079360111543203
 20
0.8766626375307016
 10
8.06969097117322
 20
0.8631592193052509
 10
8.056302700455136
 20
0.8444618571919555
 10
8.03025323747028
 20
0.8401515485715967
 10
8.011555875356986
 20
0.8535398192896819
 10
7.992858513243693
 20
0.8669280900077663
 10
7.988548204623332
 20
0.8929775529926216
 10
8.001936475341418
 20
0.9116749151059134
 10
8.008417850935373
 20
0.9207264669473938
 10
8.014010168972657
 20
0.9304164045682599
 10
8.018608563378002
 20
0.9406027837655584
 97
        0
 97
        0
 75
     0
 76
     1
 98
        0
  0
HATCH
  5
61
330
1F
100
AcDbEntity
  8
0
 62
     7
420
 16777215
440
 33554687
100
AcDbHatch
 10
0.0
 20
0.0
 30
0.0
210
0.0
220
0.0
230
1.0
  2
SOLID
 70
     1
 71
     1
 91
        1
 92
        0
 93
        1
 72
     4
 94
        3
 73
     0
 74
     1
 95
       20
 96
       16
 40
0.0
 40
0.0
 40
0.0
 40
0.0
 40
1.0
 40
1.0
 40
1.0
 40
2.0
 40
2.0
 40
2.0
 40
3.0
 40
3.0
 40
3.0
 40
4.0
 40
4.0
 40
4.0
 40
5.0
 40
5.0
 40
5.0
 40
5.0
 10
6.356096508005842
 20
1.371855806985571
 10
6.356096508005842
 20
1.371855806985571
 10
6.626432267072635
 20
1.963001246745917
 10
6.797397321589703
 20
2.088547352542882
 10
6.958480635952274
 20
2.206836922795791
 10
7.301697483741109
 20
2.199109171555528
 10
7.381886835108251
 20
2.125132441767364
 10
7.462076186475391
 20
2.0511557119792
 10
7.389341429750827
 20
1.74984473478957
 10
7.278533429792551
 20
1.644686973813897
 10
7.142466292921767
 20
1.515558071017257
 10
6.56548401388354
 20
1.350359024987536
 10
6.56548401388354
 20
1.350359024987536
 10
6.56548401388354
 20
1.350359024987536
 10
6.356096508005842
 20
1.371855806985571
 10
6.356096508005842
 20
1.371855806985571
 97
        0
 97
        0
 75
     0
 76
     1
 98
        0
  0
HATCH
  5
62
330
1F
100
AcDbEntity
  8
0
 62
    18
420
        0
440
 33554687
100
AcDbHatch
 10
0.0
 20
0.0
 30
0.0
210
0.0
220
0.0
230
1.0
  2
SOLID
 70
     1
 71
     1
 91
        2
 92
        0
 93
        1
 72
     4
 94
        3
 73
     0
 74
     1
 95
       41
 96
       37
 40
0.0
 40
0.0
 40
0.0
 40
0.0
 40
1.0
 40
1.0
 40
1.0
 40
2.0
 40
2.0
 40
2.0
 40
3.0
 40
3.0
 40
3.0
 40
4.0
 40
4.0
 40
4.0
 40
5.0
 40
5.0
 40
5.0
 40
6.0
 40
6.0
 40
6.0
 40
7.0
 40
7.0
 40
7.0
 40
8.0
 40
8.0
 40
8.0
 40
9.0
 40
9.0
 40
9.0
 40
10.0
 40
10.0
 40
10.0
 40
11.0
 40
11.0
 40
11.0
 40
12.0
 40
12.0
 40
12.0
 40
12.0
 10
6.318204110967216
 20
1.389184319840927
 10
6.318204110967216
 20
1.389184319840928
 10
6.452033304538231
 20
1.681727773395473
 10
6.591536895604689
 20
1.900759625008047
 10
6.654076867883383
 20
1.998952408600805
 10
6.718546707673004
 20
2.082338779658259
 10
6.772735236777191
 20
2.122131466105868
 10
6.876126517973585
 20
2.198055594368411
 10
7.04924912872922
 20
2.227216682257424
 10
7.190061705547002
 20
2.219890216621699
 10
7.290072511993419
 20
2.214686663407988
 10
7.373583651380153
 20
2.189481269110343
 10
7.410139388372224
 20
2.155757665769442
 10
7.440835444976508
 20
2.12743976761635
 10
7.458004599500582
 20
2.074251666438817
 10
7.45753432259685
 20
2.008310151926837
 10
7.456602303857596
 20
1.877623897227968
 10
7.391279175342786
 20
1.694240802161305
 10
7.30721557298443
 20
1.614463708387546
 10
7.263964303831799
 20
1.573417875729618
 10
7.179168765954774
 20
1.528045943767824
 10
7.080946091624232
 20
1.485878720753683
 10
6.862483613246274
 20
1.392092269623425
 10
6.576952998104723
 20
1.310301896882224
 10
6.576952998104723
 20
1.310301896882224
 10
6.571848116254708
 20
1.308840289119559
 10
6.566510906687038
 20
1.308367922141389
 10
6.561228669909462
 20
1.308910223330874
 10
6.561228669909462
 20
1.308910223330874
 10
6.351841163991417
 20
1.33040700533305
 10
6.351841163991417
 20
1.33040700533305
 10
6.338482204009152
 20
1.33177850385974
 10
6.326603187466129
 20
1.339504640473844
 10
6.31993297396728
 20
1.351160157274752
 10
6.313262760468429
 20
1.362815674075659
 10
6.312619126587509
 20
1.376971590027536
 10
6.318204110967216
 20
1.389184319840927
 97
        0
 97
        0
 92
        0
 93
        1
 72
     4
 94
        3
 73
     0
 74
     1
 95
       35
 96
       31
 40
0.0
 40
0.0
 40
0.0
 40
0.0
 40
1.0
 40
1.0
 40
1.0
 40
2.0
 40
2.0
 40
2.0
 40
3.0
 40
3.0
 40
3.0
 40
4.0
 40
4.0
 40
4.0
 40
5.0
 40
5.0
 40
5.0
 40
6.0
 40
6.0
 40
6.0
 40
7.0
 40
7.0
 40
7.0
 40
8.0
 40
8.0
 40
8.0
 40
9.0
 40
9.0
 40
9.0
 40
10.0
 40
10.0
 40
10.0
 40
10.0
 10
6.418812623439425
 20
1.407302548134814
 10
6.418812623439425
 20
1.407302548134814
 10
6.561672535651972
 20
1.392636007474018
 10
6.561679168744556
 20
1.392637879761837
 10
6.607979052986118
 20
1.406150905407263
 10
6.854808696092881
 20
1.479485385664482
 10
7.048072205568149
 20
1.562453860714489
 10
7.135254403220133
 20
1.59988138135888
 10
7.211461569341761
 20
1.638478061843704
 10
7.249851286600676
 20
1.674910239240251
 10
7.310823320223249
 20
1.732773232348125
 10
7.357641665836235
 20
1.856073874667631
 10
7.370723182820921
 20
1.959568153617726
 10
7.374931102771489
 20
1.992859066412743
 10
7.375601921781539
 20
2.024097367224645
 10
7.371422331106475
 20
2.05028796001928
 10
7.368415182909986
 20
2.069131669848867
 10
7.363846185401958
 20
2.085086475269805
 10
7.353634281844276
 20
2.094507217765287
 10
7.32602746003262
 20
2.119975217726036
 10
7.261259704071049
 20
2.13273973778771
 10
7.185731736644075
 20
2.136669451101644
 10
7.063278900546983
 20
2.143040661088259
 10
6.911970094043379
 20
2.120988057529865
 10
6.822059406402217
 20
2.054963238979897
 10
6.773668093127638
 20
2.019427667379105
 10
6.717673917509842
 20
1.943680556581909
 10
6.661824618022435
 20
1.855992667084037
 10
6.560976015784958
 20
1.697652255115061
 10
6.463193326882596
 20
1.500095711257328
 10
6.418812623439425
 20
1.407302548134814
 97
        0
 97
        0
 75
     0
 76
     1
 98
        0
  0
HATCH
  5
63
330
1F
100
AcDbEntity
  8
0
 62
    18
420
        0
440
 33554687
100
AcDbHatch
 10
0.0
 20
0.0
 30
0.0
210
0.0
220
0.0
230
1.0
  2
SOLID
 70
     1
 71
     1
 91
        1
 92
        0
 93
        1
 72
     4
 94
        3
 73
     0
 74
     1
 95
       17
 96
       13
 40
0.0
 40
0.0
 40
0.0
 40
0.0
 40
1.0
 40
1.0
 40
1.0
 40
2.0
 40
2.0
 40
2.0
 40
3.0
 40
3.0
 40
3.0
 40
4.0
 40
4.0
 40
4.0
 40
4.0
 10
5.718651306195667
 20
1.12087487023757
 10
5.752007634679607
 20
1.12087487023757
 10
5.779088741314452
 20
1.093793763602724
 10
5.779088741314452
 20
1.060437435118785
 10
5.779088741314452
 20
1.027081106634846
 10
5.752007634679607
 20
1.0
 10
5.718651306195667
 20
1.0
 10
5.685294977711729
 20
1.0
 10
5.658213871076883
 20
1.027081106634846
 10
5.658213871076883
 20
1.060437435118785
 10
5.658213871076883
 20
1.093793763602724
 10
5.685294977711729
 20
1.12087487023757
 10
5.718651306195667
 20
1.12087487023757
 97
        0
 97
        0
 75
     0
 76
     1
 98
        0
  0
SPLINE
  5
64
330
1F
100
AcDbEntity
  8
0
  6
Continuous
 62
    18
420
        0
370
    35
100
AcDbSpline
210
0.0
220
0.0
230
1.0
 70
    11
 71
     3
 72
    17
 73
    13
 74
     0
 42
0.000000001
 43
0.0
 40
0.0
 40
0.0
 40
0.0
 40
0.0
 40
1.0
 40
1.0
 40
1.0
 40
2.0
 40
2.0
 40
2.0
 40
3.0
 40
3.0
 40
3.0
 40
4.0
 40
4.0
 40
4.0
 40
4.0
 10
5.718651306195667
 20
1.12087487023757
 30
0.0
 10
5.752007634679607
 20
1.12087487023757
 30
0.0
 10
5.779088741314452
 20
1.093793763602724
 30
0.0
 10
5.779088741314452
 20
1.060437435118785
 30
0.0
 10
5.779088741314452
 20
1.027081106634846
 30
0.0
 10
5.752007634679607
 20
1.0
 30
0.0
 10
5.718651306195667
 20
1.0
 30
0.0
 10
5.685294977711729
 20
1.0
 30
0.0
 10
5.658213871076883
 20
1.027081106634846
 30
0.0
 10
5.658213871076883
 20
1.060437435118785
 30
0.0
 10
5.658213871076883
 20
1.093793763602724
 30
0.0
 10
5.685294977711729
 20
1.12087487023757
 30
0.0
 10
5.718651306195667
 20
1.12087487023757
 30
0.0
  0
HATCH
  5
65
330
1F
100
AcDbEntity
  8
0
 62
     7
420
 16777215
440
 33554687
100
AcDbHatch
 10
0.0
 20
0.0
 30
0.0
210
0.0
220
0.0
230
1.0
  2
SOLID
 70
     1
 71
     1
 91
        1
 92
        0
 93
        1
 72
     4
 94
        3
 73
     0
 74
     1
 95
       23
 96
       19
 40
0.0
 40
0.0
 40
0.0
 40
0.0
 40
1.0
 40
1.0
 40
1.0
 40
2.0
 40
2.0
 40
2.0
 40
3.0
 40
3.0
 40
3.0
 40
4.0
 40
4.0
 40
4.0
 40
5.0
 40
5.0
 40
5.0
 40
6.0
 40
6.0
 40
6.0
 40
6.0
 10
6.886874508077138
 20
1.5
 10
7.162832020324138
 20
1.5
 10
7.386874508077138
 20
1.275957512247
 10
7.386874508077138
 20
1.0
 10
7.386874508077138
 20
0.7240424877529987
 10
7.162832020324138
 20
0.5
 10
6.886874508077138
 20
0.5
 10
6.886874508077138
 20
0.5
 10
6.217231552936642
 20
0.5
 10
6.217231552936642
 20
0.5
 10
5.941274040689641
 20
0.5
 10
5.717231552936642
 20
0.7240424877529987
 10
5.717231552936642
 20
1.0
 10
5.717231552936642
 20
1.275957512247
 10
5.941274040689641
 20
1.5
 10
6.217231552936642
 20
1.5
 10
6.217231552936642
 20
1.5
 10
6.886874508077138
 20
1.5
 10
6.886874508077138
 20
1.5
 97
        0
 97
        0
 75
     0
 76
     1
 98
        0
  0
HATCH
  5
66
330
1F
100
AcDbEntity
  8
0
 62
    18
420
        0
440
 33554687
100
AcDbHatch
 10
0.0
 20
0.0
 30
0.0
210
0.0
220
0.0
230
1.0
  2
SOLID
 70
     1
 71
     1
 91
        2
 92
        0
 93
        1
 72
     4
 94
        3
 73
     0
 74
     1
 95
       23
 96
       19
 40
0.0
 40
0.0
 40
0.0
 40
0.0
 40
1.0
 40
1.0
 40
1.0
 40
2.0
 40
2.0
 40
2.0
 40
3.0
 40
3.0
 40
3.0
 40
4.0
 40
4.0
 40
4.0
 40
5.0
 40
5.0
 40
5.0
 40
6.0
 40
6.0
 40
6.0
 40
6.0
 10
6.886874508062561
 20
1.541666666666666
 10
7.185828479678054
 20
1.541666666666666
 10
7.428541174743805
 20
1.298953971600917
 10
7.428541174743805
 20
1.0
 10
7.428541174743805
 20
0.701046028399082
 10
7.185828479678054
 20
0.4583333333333321
 10
6.886874508077138
 20
0.4583333333333321
 10
6.886874508077138
 20
0.4583333333333321
 10
6.217231552936642
 20
0.4583333333333321
 10
6.217231552936642
 20
0.4583333333333321
 10
5.918277581335724
 20
0.4583333333333321
 10
5.675564886269975
 20
0.701046028399082
 10
5.675564886269975
 20
1.0
 10
5.675564886269975
 20
1.298953971600917
 10
5.918277581335724
 20
1.541666666666666
 10
6.217231552936642
 20
1.541666666666666
 10
6.217231552936642
 20
1.541666666666666
 10
6.886874508062561
 20
1.541666666666666
 10
6.886874508062561
 20
1.541666666666666
 97
        0
 97
        0
 92
        0
 93
        1
 72
     4
 94
        3
 73
     0
 74
     1
 95
       23
 96
       19
 40
0.0
 40
0.0
 40
0.0
 40
0.0
 40
1.0
 40
1.0
 40
1.0
 40
2.0
 40
2.0
 40
2.0
 40
3.0
 40
3.0
 40
3.0
 40
4.0
 40
4.0
 40
4.0
 40
5.0
 40
5.0
 40
5.0
 40
6.0
 40
6.0
 40
6.0
 40
6.0
 10
6.886874508077138
 20
1.458333333333333
 10
6.886874508077138
 20
1.458333333333333
 10
6.217231552936642
 20
1.458333333333333
 10
6.217231552936642
 20
1.458333333333333
 10
5.964270500043559
 20
1.458333333333333
 10
5.758898219603308
 20
1.252961052893083
 10
5.758898219603308
 20
1.0
 10
5.758898219603308
 20
0.7470389471069163
 10
5.964270500043559
 20
0.5416666666666661
 10
6.217231552936642
 20
0.5416666666666661
 10
6.217231552936642
 20
0.5416666666666661
 10
6.886874508077138
 20
0.5416666666666661
 10
6.886874508077138
 20
0.5416666666666661
 10
7.13983556097022
 20
0.5416666666666661
 10
7.345207841410472
 20
0.7470389471069163
 10
7.345207841410472
 20
1.0
 10
7.345207841410472
 20
1.252961052893083
 10
7.13983556097022
 20
1.458333333333333
 10
6.886874508077138
 20
1.458333333333333
 97
        0
 97
        0
 75
     0
 76
     1
 98
        0
  0
HATCH
  5
67
330
1F
100
AcDbEntity
  8
0
 62
    18
420
        0
440
 33554687
100
AcDbHatch
 10
0.0
 20
0.0
 30
0.0
210
0.0
220
0.0
230
1.0
  2
SOLID
 70
     1
 71
     1
 91
        1
 92
        0
 93
        1
 72
     4
 94
        3
 73
     0
 74
     1
 95
       17
 96
       13
 40
0.0
 40
0.0
 40
0.0
 40
0.0
 40
1.0
 40
1.0
 40
1.0
 40
2.0
 40
2.0
 40
2.0
 40
3.0
 40
3.0
 40
3.0
 40
4.0
 40
4.0
 40
4.0
 40
4.0
 10
6.113031332422357
 20
1.12087487023757
 10
6.146387660906295
 20
1.12087487023757
 10
6.173468767541141
 20
1.093793763602724
 10
6.173468767541141
 20
1.060437435118785
 10
6.173468767541141
 20
1.027081106634846
 10
6.146387660906295
 20
1.0
 10
6.113031332422357
 20
1.0
 10
6.079675003938418
 20
1.0
 10
6.052593897303572
 20
1.027081106634846
 10
6.052593897303572
 20
1.060437435118785
 10
6.052593897303572
 20
1.093793763602724
 10
6.079675003938418
 20
1.12087487023757
 10
6.113031332422357
 20
1.12087487023757
 97
        0
 97
        0
 75
     0
 76
     1
 98
        0
  0
SPLINE
  5
68
330
1F
100
AcDbEntity
  8
0
  6
Continuous
 62
    18
420
        0
370
    35
100
AcDbSpline
210
0.0
220
0.0
230
1.0
 70
    11
 71
     3
 72
    17
 73
    13
 74
     0
 42
0.000000001
 43
0.0
 40
0.0
 40
0.0
 40
0.0
 40
0.0
 40
1.0
 40
1.0
 40
1.0
 40
2.0
 40
2.0
 40
2.0
 40
3.0
 40
3.0
 40
3.0
 40
4.0
 40
4.0
 40
4.0
 40
4.0
 10
6.113031332422357
 20
1.12087487023757
 30
0.0
 10
6.146387660906295
 20
1.12087487023757
 30
0.0
 10
6.173468767541141
 20
1.093793763602724
 30
0.0
 10
6.173468767541141
 20
1.060437435118785
 30
0.0
 10
6.173468767541141
 20
1.027081106634846
 30
0.0
 10
6.146387660906295
 20
1.0
 30
0.0
 10
6.113031332422357
 20
1.0
 30
0.0
 10
6.079675003938418
 20
1.0
 30
0.0
 10
6.052593897303572
 20
1.027081106634846
 30
0.0
 10
6.052593897303572
 20
1.060437435118785
 30
0.0
 10
6.052593897303572
 20
1.093793763602724
 30
0.0
 10
6.079675003938418
 20
1.12087487023757
 30
0.0
 10
6.113031332422357
 20
1.12087487023757
 30
0.0
  0
HATCH
  5
69
330
1F
100
AcDbEntity
  8
0
 62
    18
420
        0
440
 33554687
100
AcDbHatch
 10
0.0
 20
0.0
 30
0.0
210
0.0
220
0.0
230
1.0
  2
SOLID
 70
     1
 71
     1
 91
        1
 92
        0
 93
        1
 72
     4
 94
        3
 73
     0
 74
     1
 95
       29
 96
       25
 40
0.0
 40
0.0
 40
0.0
 40
0.0
 40
1.0
 40
1.0
 40
1.0
 40
2.0
 40
2.0
 40
2.0
 40
3.0
 40
3.0
 40
3.0
 40
4.0
 40
4.0
 40
4.0
 40
5.0
 40
5.0
 40
5.0
 40
6.0
 40
6.0
 40
6.0
 40
7.0
 40
7.0
 40
7.0
 40
8.0
 40
8.0
 40
8.0
 40
8.0
 10
5.738359937842819
 20
0.9363232483087156
 10
5.73350824127817
 20
0.958802086874373
 10
5.747819244134099
 20
0.9809910138303968
 10
5.770298082699758
 20
0.9858427103950449
 10
5.792776921265416
 20
0.990694406959693
 10
5.814965848221438
 20
0.976383404103764
 10
5.819817544797287
 20
0.9539045654862139
 10
5.819817544797287
 20
0.9539045654862139
 10
5.828241044534907
 20
0.9166666666666661
 10
5.867635735256022
 20
0.9166666666666661
 10
5.91238365617976
 20
0.9166666666666661
 10
5.929514043995922
 20
0.9484788265948856
 10
5.929514043995922
 20
0.9484788265948856
 10
5.939286223278605
 20
0.9692956864657551
 10
5.964120642077837
 20
0.9782625658062223
 10
5.984937501948707
 20
0.9684903865235395
 10
6.005754361819577
 20
0.9587182072408567
 10
6.014721241160045
 20
0.9338837884416247
 10
6.004949061848273
 20
0.9130669285087905
 10
6.004949061848273
 20
0.9130669285087905
 10
5.969756752667278
 20
0.833333333333333
 10
5.867635735256022
 20
0.833333333333333
 10
5.760200523896907
 20
0.833333333333333
 10
5.738359937842819
 20
0.9363232483087156
 10
5.738359937842819
 20
0.9363232483087156
 97
        0
 97
        0
 75
     0
 76
     1
 98
        0
  0
HATCH
  5
6A
330
1F
100
AcDbEntity
  8
0
 62
    18
420
        0
440
 33554687
100
AcDbHatch
 10
0.0
 20
0.0
 30
0.0
210
0.0
220
0.0
230
1.0
  2
SOLID
 70
     1
 71
     1
 91
        1
 92
        0
 93
        1
 72
     4
 94
        3
 73
     0
 74
     1
 95
       23
 96
       19
 40
0.0
 40
0.0
 40
0.0
 40
0.0
 40
1.0
 40
1.0
 40
1.0
 40
2.0
 40
2.0
 40
2.0
 40
3.0
 40
3.0
 40
3.0
 40
4.0
 40
4.0
 40
4.0
 40
5.0
 40
5.0
 40
5.0
 40
6.0
 40
6.0
 40
6.0
 40
6.0
 10
6.498103418354766
 20
1.5
 10
6.498103418354766
 20
1.5
 10
6.64418884140935
 20
1.499999999999998
 10
6.64418884140935
 20
1.499999999999998
 10
6.64418884140935
 20
1.499999999999998
 10
6.936359687518516
 20
1.394075374626259
 10
6.936359687518516
 20
0.9999999999999982
 10
6.936359687518516
 20
0.6059246253737403
 10
6.64418884140935
 20
0.4999999999999982
 10
6.64418884140935
 20
0.4999999999999982
 10
6.64418884140935
 20
0.4999999999999982
 10
6.498103418354766
 20
0.4999999999999982
 10
6.498103418354766
 20
0.4999999999999982
 10
6.498103418354766
 20
0.4999999999999982
 10
6.790274264463934
 20
0.6059246253737403
 10
6.790274264463934
 20
0.9999999999999982
 10
6.790274264463934
 20
1.394075374626259
 10
6.498103418354766
 20
1.499999999999998
 10
6.498103418354766
 20
1.5
 97
        0
 97
        0
 75
     0
 76
     1
 98
        0
  0
SPLINE
  5
6B
330
1F
100
AcDbEntity
  8
0
  6
Continuous
 62
    18
420
        0
370
    35
100
AcDbSpline
210
0.0
220
0.0
230
1.0
 70
    11
 71
     3
 72
    23
 73
    19
 74
     0
 42
0.000000001
 43
0.0
 40
0.0
 40
0.0
 40
0.0
 40
0.0
 40
1.0
 40
1.0
 40
1.0
 40
2.0
 40
2.0
 40
2.0
 40
3.0
 40
3.0
 40
3.0
 40
4.0
 40
4.0
 40
4.0
 40
5.0
 40
5.0
 40
5.0
 40
6.0
 40
6.0
 40
6.0
 40
6.0
 10
6.498103418354766
 20
1.499999999999998
 30
0.0
 10
6.498103418354766
 20
1.499999999999998
 30
0.0
 10
6.64418884140935
 20
1.499999999999998
 30
0.0
 10
6.64418884140935
 20
1.499999999999998
 30
0.0
 10
6.64418884140935
 20
1.499999999999998
 30
0.0
 10
6.936359687518516
 20
1.394075374626259
 30
0.0
 10
6.936359687518516
 20
0.9999999999999982
 30
0.0
 10
6.936359687518516
 20
0.6059246253737403
 30
0.0
 10
6.64418884140935
 20
0.4999999999999982
 30
0.0
 10
6.64418884140935
 20
0.4999999999999982
 30
0.0
 10
6.64418884140935
 20
0.4999999999999982
 30
0.0
 10
6.498103418354766
 20
0.4999999999999982
 30
0.0
 10
6.498103418354766
 20
0.4999999999999982
 30
0.0
 10
6.498103418354766
 20
0.4999999999999982
 30
0.0
 10
6.790274264463934
 20
0.6059246253737403
 30
0.0
 10
6.790274264463934
 20
0.9999999999999982
 30
0.0
 10
6.790274264463934
 20
1.394075374626259
 30
0.0
 10
6.498103418354766
 20
1.499999999999998
 30
0.0
 10
6.498103418354766
 20
1.499999999999998
 30
0.0
  0
HATCH
  5
6C
330
1F
100
AcDbEntity
  8
0
 62
    18
420
        0
440
 33554687
100
AcDbHatch
 10
0.0
 20
0.0
 30
0.0
210
0.0
220
0.0
230
1.0
  2
SOLID
 70
     1
 71
     1
 91
        1
 92
        0
 93
        1
 72
     4
 94
        3
 73
     0
 74
     1
 95
       23
 96
       19
 40
0.0
 40
0.0
 40
0.0
 40
0.0
 40
1.0
 40
1.0
 40
1.0
 40
2.0
 40
2.0
 40
2.0
 40
3.0
 40
3.0
 40
3.0
 40
4.0
 40
4.0
 40
4.0
 40
5.0
 40
5.0
 40
5.0
 40
6.0
 40
6.0
 40
6.0
 40
6.0
 10
6.779731552936642
 20
1.5
 10
6.779731552936642
 20
1.5
 10
6.934888833897541
 20
1.499999999999998
 10
6.934888833897541
 20
1.499999999999998
 10
6.934888833897541
 20
1.499999999999998
 10
7.245203395819342
 20
1.394075374626259
 10
7.245203395819342
 20
0.9999999999999982
 10
7.245203395819342
 20
0.6059246253737403
 10
6.934888833897541
 20
0.4999999999999982
 10
6.934888833897541
 20
0.4999999999999982
 10
6.934888833897541
 20
0.4999999999999982
 10
6.779731552936642
 20
0.4999999999999982
 10
6.779731552936642
 20
0.4999999999999982
 10
6.779731552936642
 20
0.4999999999999982
 10
7.090046114858442
 20
0.6059246253737403
 10
7.090046114858442
 20
0.9999999999999982
 10
7.090046114858442
 20
1.394075374626259
 10
6.779731552936642
 20
1.499999999999998
 10
6.779731552936642
 20
1.5
 97
        0
 97
        0
 75
     0
 76
     1
 98
        0
  0
SPLINE
  5
6D
330
1F
100
AcDbEntity
  8
0
  6
Continuous
 62
    18
420
        0
370
    35
100
AcDbSpline
210
0.0
220
0.0
230
1.0
 70
    11
 71
     3
 72
    23
 73
    19
 74
     0
 42
0.000000001
 43
0.0
 40
0.0
 40
0.0
 40
0.0
 40
0.0
 40
1.0
 40
1.0
 40
1.0
 40
2.0
 40
2.0
 40
2.0
 40
3.0
 40
3.0
 40
3.0
 40
4.0
 40
4.0
 40
4.0
 40
5.0
 40
5.0
 40
5.0
 40
6.0
 40
6.0
 40
6.0
 40
6.0
 10
6.779731552936642
 20
1.499999999999998
 30
0.0
 10
6.779731552936642
 20
1.499999999999998
 30
0.0
 10
6.934888833897541
 20
1.499999999999998
 30
0.0
 10
6.934888833897541
 20
1.499999999999998
 30
0.0
 10
6.934888833897541
 20
1.499999999999998
 30
0.0
 10
7.245203395819342
 20
1.394075374626259
 30
0.0
 10
7.245203395819342
 20
0.9999999999999982
 30
0.0
 10
7.245203395819342
 20
0.6059246253737403
 30
0.0
 10
6.934888833897541
 20
0.4999999999999982
 30
0.0
 10
6.934888833897541
 20
0.4999999999999982
 30
0.0
 10
6.934888833897541
 20
0.4999999999999982
 30
0.0
 10
6.779731552936642
 20
0.4999999999999982
 30
0.0
 10
6.779731552936642
 20
0.4999999999999982
 30
0.0
 10
6.779731552936642
 20
0.4999999999999982
 30
0.0
 10
7.090046114858442
 20
0.6059246253737403
 30
0.0
 10
7.090046114858442
 20
0.9999999999999982
 30
0.0
 10
7.090046114858442
 20
1.394075374626259
 30
0.0
 10
6.779731552936642
 20
1.499999999999998
 30
0.0
 10
6.779731552936642
 20
1.499999999999998
 30
0.0
  0
HATCH
  5
6E
330
1F
100
AcDbEntity
  8
0
 62
    18
420
        0
440
 33554687
100
AcDbHatch
 10
0.0
 20
0.0
 30
0.0
210
0.0
220
0.0
230
1.0
  2
SOLID
 70
     1
 71
     1
 91
        1
 92
        0
 93
        1
 72
     4
 94
        3
 73
     0
 74
     1
 95
       17
 96
       13
 40
0.0
 40
0.0
 40
0.0
 40
0.0
 40
1.0
 40
1.0
 40
1.0
 40
2.0
 40
2.0
 40
2.0
 40
3.0
 40
3.0
 40
3.0
 40
4.0
 40
4.0
 40
4.0
 40
4.0
 10
6.520573984338447
 20
1.328001090859041
 10
6.62911225112825
 20
1.328001090859041
 10
6.717231552936642
 20
1.221971685046635
 10
6.717231552936642
 20
1.091373193008482
 10
6.717231552936642
 20
0.960774700970326
 10
6.62911225112825
 20
0.8547452951579224
 10
6.520573984338447
 20
0.8547452951579224
 10
6.412035717548644
 20
0.8547452951579224
 10
6.323916415740253
 20
0.960774700970326
 10
6.323916415740253
 20
1.091373193008482
 10
6.323916415740253
 20
1.221971685046635
 10
6.412035717548644
 20
1.328001090859041
 10
6.520573984338447
 20
1.328001090859041
 97
        0
 97
        0
 75
     0
 76
     1
 98
        0
  0
SPLINE
  5
6F
330
1F
100
AcDbEntity
  8
0
  6
Continuous
 62
     7
420
 16777215
370
    35
100
AcDbSpline
210
0.0
220
0.0
230
1.0
 70
    11
 71
     3
 72
    17
 73
    13
 74
     0
 42
0.000000001
 43
0.0
 40
0.0
 40
0.0
 40
0.0
 40
0.0
 40
1.0
 40
1.0
 40
1.0
 40
2.0
 40
2.0
 40
2.0
 40
3.0
 40
3.0
 40
3.0
 40
4.0
 40
4.0
 40
4.0
 40
4.0
 10
6.520573984338447
 20
1.328001090859041
 30
0.0
 10
6.62911225112825
 20
1.328001090859041
 30
0.0
 10
6.717231552936642
 20
1.221971685046635
 30
0.0
 10
6.717231552936642
 20
1.091373193008482
 30
0.0
 10
6.717231552936642
 20
0.960774700970326
 30
0.0
 10
6.62911225112825
 20
0.8547452951579224
 30
0.0
 10
6.520573984338447
 20
0.8547452951579224
 30
0.0
 10
6.412035717548644
 20
0.8547452951579224
 30
0.0
 10
6.323916415740253
 20
0.960774700970326
 30
0.0
 10
6.323916415740253
 20
1.091373193008482
 30
0.0
 10
6.323916415740253
 20
1.221971685046635
 30
0.0
 10
6.412035717548644
 20
1.328001090859041
 30
0.0
 10
6.520573984338447
 20
1.328001090859041
 30
0.0
  0
HATCH
  5
70
330
1F
100
AcDbEntity
  8
0
 62
     7
420
 16777215
440
 33554687
100
AcDbHatch
 10
0.0
 20
0.0
 30
0.0
210
0.0
220
0.0
230
1.0
  2
SOLID
 70
     1
 71
     1
 91
        1
 92
        0
 93
        1
 72
     4
 94
        3
 73
     0
 74
     1
 95
       17
 96
       13
 40
0.0
 40
0.0
 40
0.0
 40
0.0
 40
1.0
 40
1.0
 40
1.0
 40
2.0
 40
2.0
 40
2.0
 40
3.0
 40
3.0
 40
3.0
 40
4.0
 40
4.0
 40
4.0
 40
4.0
 10
6.575077019120508
 20
1.249775131072136
 10
6.634598552230943
 20
1.249775131072136
 10
6.682922485304374
 20
1.178797602534779
 10
6.682922485304374
 20
1.09137319300848
 10
6.682922485304374
 20
1.003948783482181
 10
6.634598552230943
 20
0.9329712549448255
 10
6.575077019120508
 20
0.9329712549448255
 10
6.515555486010073
 20
0.9329712549448255
 10
6.467231552936642
 20
1.003948783482181
 10
6.467231552936642
 20
1.09137319300848
 10
6.467231552936642
 20
1.178797602534779
 10
6.515555486010073
 20
1.249775131072136
 10
6.575077019120508
 20
1.249775131072136
 97
        0
 97
        0
 75
     0
 76
     1
 98
        0
  0
HATCH
  5
71
330
1F
100
AcDbEntity
  8
0
 62
    18
420
        0
440
 33554687
100
AcDbHatch
 10
0.0
 20
0.0
 30
0.0
210
0.0
220
0.0
230
1.0
  2
SOLID
 70
     1
 71
     1
 91
        2
 92
        0
 93
        1
 72
     4
 94
        3
 73
     0
 74
     1
 95
       29
 96
       25
 40
0.0
 40
0.0
 40
0.0
 40
0.0
 40
1.0
 40
1.0
 40
1.0
 40
2.0
 40
2.0
 40
2.0
 40
3.0
 40
3.0
 40
3.0
 40
4.0
 40
4.0
 40
4.0
 40
5.0
 40
5.0
 40
5.0
 40
6.0
 40
6.0
 40
6.0
 40
7.0
 40
7.0
 40
7.0
 40
8.0
 40
8.0
 40
8.0
 40
8.0
 10
6.575077019120508
 20
1.291441797738803
 10
6.610108001524577
 20
1.291441797738803
 10
6.643022680751579
 20
1.275831270687517
 10
6.669285376727019
 20
1.247547588969548
 10
6.702085251884723
 20
1.212223674386781
 10
6.724589151971041
 20
1.155633648577636
 10
6.724589151971041
 20
1.09137319300848
 10
6.724589151971041
 20
1.027112737439321
 10
6.702085251884724
 20
0.9705227116301796
 10
6.669285376727018
 20
0.9351987970474109
 10
6.643022680751579
 20
0.9069151153294444
 10
6.610108001524577
 20
0.8913045882781594
 10
6.575077019120508
 20
0.8913045882781594
 10
6.540046036716438
 20
0.8913045882781594
 10
6.507131357489436
 20
0.9069151153294444
 10
6.480868661513999
 20
0.93519879704741
 10
6.448068786356292
 20
0.9705227116301796
 10
6.425564886269975
 20
1.027112737439321
 10
6.425564886269975
 20
1.09137319300848
 10
6.425564886269975
 20
1.155633648577636
 10
6.448068786356295
 20
1.212223674386781
 10
6.480868661513998
 20
1.247547588969548
 10
6.507131357489437
 20
1.275831270687516
 10
6.540046036716438
 20
1.291441797738803
 10
6.575077019120508
 20
1.291441797738803
 97
        0
 97
        0
 92
        0
 93
        1
 72
     4
 94
        3
 73
     0
 74
     1
 95
       29
 96
       25
 40
0.0
 40
0.0
 40
0.0
 40
0.0
 40
1.0
 40
1.0
 40
1.0
 40
2.0
 40
2.0
 40
2.0
 40
3.0
 40
3.0
 40
3.0
 40
4.0
 40
4.0
 40
4.0
 40
5.0
 40
5.0
 40
5.0
 40
6.0
 40
6.0
 40
6.0
 40
7.0
 40
7.0
 40
7.0
 40
8.0
 40
8.0
 40
8.0
 40
8.0
 10
6.575077019120508
 20
1.208108464405469
 10
6.558265105086247
 20
1.208108464405469
 10
6.544303164773175
 20
1.196106199536303
 10
6.533275615675
 20
1.179909087028441
 10
6.517869458825444
 20
1.157280735652763
 10
6.508898219603308
 20
1.125870967144704
 10
6.508898219603308
 20
1.09137319300848
 10
6.508898219603308
 20
1.056875418872256
 10
6.517869458825444
 20
1.025465650364199
 10
6.533275615675
 20
1.00283729898852
 10
6.544303164773176
 20
0.9866401864806562
 10
6.558265105086248
 20
0.9746379216114924
 10
6.575077019120508
 20
0.9746379216114924
 10
6.591888933154769
 20
0.9746379216114924
 10
6.605850873467842
 20
0.986640186480658
 10
6.616878422566015
 20
1.002837298988517
 10
6.632284579415572
 20
1.025465650364196
 10
6.641255818637707
 20
1.056875418872256
 10
6.641255818637707
 20
1.09137319300848
 10
6.641255818637707
 20
1.125870967144704
 10
6.632284579415573
 20
1.157280735652762
 10
6.616878422566016
 20
1.179909087028441
 10
6.605850873467841
 20
1.196106199536303
 10
6.591888933154769
 20
1.208108464405469
 10
6.575077019120508
 20
1.208108464405469
 97
        0
 97
        0
 75
     0
 76
     1
 98
        0
  0
HATCH
  5
72
330
1F
100
AcDbEntity
  8
0
 62
     7
420
 16777215
440
 33554687
100
AcDbHatch
 10
0.0
 20
0.0
 30
0.0
210
0.0
220
0.0
230
1.0
  2
SOLID
 70
     1
 71
     1
 91
        1
 92
        0
 93
        1
 72
     4
 94
        3
 73
     0
 74
     1
 95
       20
 96
       16
 40
0.0
 40
0.0
 40
0.0
 40
0.0
 40
1.0
 40
1.0
 40
1.0
 40
2.0
 40
2.0
 40
2.0
 40
3.0
 40
3.0
 40
3.0
 40
4.0
 40
4.0
 40
4.0
 40
5.0
 40
5.0
 40
5.0
 40
5.0
 10
6.715983427557354
 20
1.357502768088128
 10
6.715983427557354
 20
1.357502768088128
 10
7.155182665395266
 20
1.949264455023443
 10
7.386874508077138
 20
2.056347327008755
 10
7.605174616455373
 20
2.157240834044925
 10
8.022110558266075
 20
2.092724554501459
 10
8.10613448364858
 20
2.0
 10
8.190158409031087
 20
1.907275445498541
 10
8.0455980699188
 20
1.594997228848652
 10
7.891018060372171
 20
1.5
 10
7.701200905253515
 20
1.383347764196067
 10
6.967231552936642
 20
1.300086585176409
 10
6.967231552936642
 20
1.300086585176409
 10
6.967231552936642
 20
1.300086585176409
 10
6.715983427557354
 20
1.357502768088128
 10
6.715983427557354
 20
1.357502768088128
 97
        0
 97
        0
 75
     0
 76
     1
 98
        0
  0
HATCH
  5
73
330
1F
100
AcDbEntity
  8
0
 62
    18
420
        0
440
 33554687
100
AcDbHatch
 10
0.0
 20
0.0
 30
0.0
210
0.0
220
0.0
230
1.0
  2
SOLID
 70
     1
 71
     1
 91
        2
 92
        0
 93
        1
 72
     4
 94
        3
 73
     0
 74
     1
 95
       41
 96
       37
 40
0.0
 40
0.0
 40
0.0
 40
0.0
 40
1.0
 40
1.0
 40
1.0
 40
2.0
 40
2.0
 40
2.0
 40
3.0
 40
3.0
 40
3.0
 40
4.0
 40
4.0
 40
4.0
 40
5.0
 40
5.0
 40
5.0
 40
6.0
 40
6.0
 40
6.0
 40
7.0
 40
7.0
 40
7.0
 40
8.0
 40
8.0
 40
8.0
 40
9.0
 40
9.0
 40
9.0
 40
10.0
 40
10.0
 40
10.0
 40
11.0
 40
11.0
 40
11.0
 40
12.0
 40
12.0
 40
12.0
 40
12.0
 10
6.682525076555518
 20
1.382335203718752
 10
6.682525076555518
 20
1.382335203718752
 10
6.899701963971227
 20
1.674882700443563
 10
7.110175089109876
 20
1.887487330062056
 10
7.203746523009818
 20
1.982006381052834
 10
7.296641227222888
 20
2.060545115209715
 10
7.369393812080057
 20
2.094169759222572
 10
7.507029085405324
 20
2.157781754291341
 10
7.719704100126349
 20
2.160337078104998
 10
7.886975879927483
 20
2.129944039198464
 10
8.00468814656178
 20
2.108555891694767
 10
8.09973005246846
 20
2.069119070931468
 10
8.137010216079307
 20
2.027978567832847
 10
8.169178511819789
 20
1.992479263580771
 10
8.179750561311653
 20
1.932534509944061
 10
8.16694210583613
 20
1.861653617548253
 10
8.14170296127583
 20
1.721982359514098
 10
8.029449474688521
 20
1.536167147154336
 10
7.912833973269119
 20
1.464501027401009
 10
7.853320432196875
 20
1.427926948401948
 10
7.742907381784638
 20
1.39365034411776
 10
7.61709448049533
 20
1.364764965846661
 10
7.334168939056585
 20
1.299808103686546
 10
6.97192808200777
 20
1.258685453237836
 10
6.97192808200777
 20
1.258685453237836
 10
6.967257665188013
 20
1.258155642883837
 10
6.962531268343219
 20
1.258419908705476
 10
6.95794902382017
 20
1.259467060753872
 10
6.95794902382017
 20
1.259467060753872
 10
6.706700898377268
 20
1.316883243680129
 10
6.706700898377268
 20
1.316883243680129
 10
6.692982640870635
 20
1.320018192389184
 10
6.681773540655636
 20
1.329865596711347
 10
6.676897810280589
 20
1.343065814351087
 10
6.672022079905542
 20
1.356266031990829
 10
6.674138524731915
 20
1.371035458547435
 10
6.682525076555518
 20
1.382335203718752
 97
        0
 97
        0
 92
        0
 93
        1
 72
     4
 94
        3
 73
     0
 74
     1
 95
       35
 96
       31
 40
0.0
 40
0.0
 40
0.0
 40
0.0
 40
1.0
 40
1.0
 40
1.0
 40
2.0
 40
2.0
 40
2.0
 40
3.0
 40
3.0
 40
3.0
 40
4.0
 40
4.0
 40
4.0
 40
5.0
 40
5.0
 40
5.0
 40
6.0
 40
6.0
 40
6.0
 40
7.0
 40
7.0
 40
7.0
 40
8.0
 40
8.0
 40
8.0
 40
9.0
 40
9.0
 40
9.0
 40
10.0
 40
10.0
 40
10.0
 40
10.0
 10
6.788220688916333
 20
1.383735280960848
 10
6.788220688916333
 20
1.383735280960848
 10
6.969539955917038
 20
1.342299863587253
 10
6.969546932666669
 20
1.342300618197596
 10
7.020772948122419
 20
1.348308803277438
 10
7.342533450709195
 20
1.387229955121682
 10
7.598447138222206
 20
1.445985166970481
 10
7.713401827505049
 20
1.472377608842051
 10
7.814824889245167
 20
1.502081399011089
 10
7.869202147475225
 20
1.535498972598992
 10
7.954929507726757
 20
1.588182768416387
 10
8.036144636949071
 20
1.713996532277748
 10
8.071567565542924
 20
1.824066696100298
 10
8.082829913659639
 20
1.859062348674563
 10
8.089436973571749
 20
1.892419407612733
 10
8.089201968800705
 20
1.921172972010019
 10
8.089031178374409
 20
1.94206971167673
 10
8.086025892572508
 20
1.960139359521539
 10
8.075258751217852
 20
1.972021432167153
 10
8.045312512784848
 20
2.005068586356323
 10
7.966633623832835
 20
2.030772581361174
 10
7.872078255462765
 20
2.047953154157792
 10
7.720981463642022
 20
2.075407221292846
 10
7.528681305377999
 20
2.075985683384832
 10
7.40435520407422
 20
2.018524894794939
 10
7.338092054056115
 20
1.987899524783638
 10
7.254621760134813
 20
1.914947457424312
 10
7.16939677501444
 20
1.828859381410701
 10
7.015991890537756
 20
1.673900934224875
 10
6.858995621709004
 20
1.475673674236013
 10
6.788220688916333
 20
1.383735280960848
 97
        0
 97
        0
 75
     0
 76
     1
 98
        0
  0
HATCH
  5
74
330
1F
100
AcDbEntity
  8
0
 62
    18
420
        0
440
 33554687
100
AcDbHatch
 10
0.0
 20
0.0
 30
0.0
210
0.0
220
0.0
230
1.0
  2
SOLID
 70
     1
 71
     1
 91
        1
 92
        0
 93
        1
 72
     4
 94
        3
 73
     0
 74
     1
 95
       41
 96
       37
 40
0.0
 40
0.0
 40
0.0
 40
0.0
 40
1.0
 40
1.0
 40
1.0
 40
2.0
 40
2.0
 40
2.0
 40
3.0
 40
3.0
 40
3.0
 40
4.0
 40
4.0
 40
4.0
 40
5.0
 40
5.0
 40
5.0
 40
6.0
 40
6.0
 40
6.0
 40
7.0
 40
7.0
 40
7.0
 40
8.0
 40
8.0
 40
8.0
 40
9.0
 40
9.0
 40
9.0
 40
10.0
 40
10.0
 40
10.0
 40
11.0
 40
11.0
 40
11.0
 40
12.0
 40
12.0
 40
12.0
 40
12.0
 10
6.433541399703631
 20
0.9869899606693764
 10
6.447072717261752
 20
1.005584062965858
 10
6.473154480972906
 20
1.009694401628017
 10
6.491748582350747
 20
0.9961630847384102
 10
6.510342683728587
 20
0.9826317678488046
 10
6.514453022390744
 20
0.9565500041376511
 10
6.500921705970761
 20
0.9379559034051432
 10
6.500921705970761
 20
0.937955903405145
 10
6.435804182808397
 20
0.8485410187559665
 10
6.370977821593347
 20
0.7823553825899454
 10
6.340098698603184
 20
0.7508287881452418
 10
6.308752776832214
 20
0.7246945471097401
 10
6.283697576129095
 20
0.7125221168222087
 10
6.258004327379085
 20
0.7000397071630138
 10
6.222201068584178
 20
0.6940838575122639
 10
6.184410765622977
 20
0.6932100888361203
 10
6.107209778879762
 20
0.6914250858406978
 10
6.021400086937142
 20
0.7092067209800961
 10
6.021400088639213
 20
0.7092067206260051
 10
5.998885664854325
 20
0.713890508030528
 10
5.984409450380769
 20
0.7359720047351841
 10
5.989093237785291
 20
0.7584864285200723
 10
5.993777025189813
 20
0.7810008523049614
 10
6.01585852189447
 20
0.7954770667785169
 10
6.038372948080122
 20
0.7907932788745526
 10
6.038372948080122
 20
0.7907932788745526
 10
6.094431657061009
 20
0.7791412920559466
 10
6.153680303640771
 20
0.7768089062343773
 10
6.188135678058864
 20
0.7754525338713165
 10
6.224016413311955
 20
0.7761747801522745
 10
6.247282228616107
 20
0.7874778831777904
 10
6.265963143353848
 20
0.796553529190243
 10
6.288420921721902
 20
0.8171605219665006
 10
6.31144409645479
 20
0.840666445138754
 10
6.372385130423779
 20
0.9028852867682033
 10
6.433541399703631
 20
0.9869899606693764
 10
6.433541399703631
 20
0.9869899606693764
 97
        0
 97
        0
 75
     0
 76
     1
 98
        0
  0
HATCH
  5
75
330
1F
100
AcDbEntity
  8
0
 62
    18
420
        0
440
 33554687
100
AcDbHatch
 10
0.0
 20
0.0
 30
0.0
210
0.0
220
0.0
230
1.0
  2
SOLID
 70
     1
 71
     1
 91
        1
 92
        0
 93
        1
 72
     4
 94
        3
 73
     0
 74
     1
 95
       17
 96
       13
 40
0.0
 40
0.0
 40
0.0
 40
0.0
 40
1.0
 40
1.0
 40
1.0
 40
2.0
 40
2.0
 40
2.0
 40
3.0
 40
3.0
 40
3.0
 40
4.0
 40
4.0
 40
4.0
 40
4.0
 10
6.068703600139252
 20
0.7885671870696456
 10
6.104946767885596
 20
0.7885671870696456
 10
6.134371621732924
 20
0.76707446099749
 10
6.134371621732924
 20
0.7406014501067295
 10
6.134371621732924
 20
0.714128439215969
 10
6.104946767885596
 20
0.6926357131438134
 10
6.068703600139252
 20
0.6926357131438134
 10
6.032460432392909
 20
0.6926357131438134
 10
6.00303557854558
 20
0.714128439215969
 10
6.00303557854558
 20
0.7406014501067295
 10
6.00303557854558
 20
0.76707446099749
 10
6.032460432392909
 20
0.7885671870696456
 10
6.068703600139252
 20
0.7885671870696456
 97
        0
 97
        0
 75
     0
 76
     1
 98
        0
  0
SPLINE
  5
76
330
1F
100
AcDbEntity
  8
0
  6
Continuous
 62
    18
420
        0
370
   120
100
AcDbSpline
210
0.0
220
0.0
230
1.0
 70
    11
 71
     3
 72
    17
 73
    13
 74
     0
 42
0.000000001
 43
0.0
 40
0.0
 40
0.0
 40
0.0
 40
0.0
 40
1.0
 40
1.0
 40
1.0
 40
2.0
 40
2.0
 40
2.0
 40
3.0
 40
3.0
 40
3.0
 40
4.0
 40
4.0
 40
4.0
 40
4.0
 10
6.068703600139252
 20
0.7885671870696456
 30
0.0
 10
6.104946767885596
 20
0.7885671870696456
 30
0.0
 10
6.134371621732924
 20
0.76707446099749
 30
0.0
 10
6.134371621732924
 20
0.7406014501067295
 30
0.0
 10
6.134371621732924
 20
0.714128439215969
 30
0.0
 10
6.104946767885596
 20
0.6926357131438134
 30
0.0
 10
6.068703600139252
 20
0.6926357131438134
 30
0.0
 10
6.032460432392909
 20
0.6926357131438134
 30
0.0
 10
6.00303557854558
 20
0.714128439215969
 30
0.0
 10
6.00303557854558
 20
0.7406014501067295
 30
0.0
 10
6.00303557854558
 20
0.76707446099749
 30
0.0
 10
6.032460432392909
 20
0.7885671870696456
 30
0.0
 10
6.068703600139252
 20
0.7885671870696456
 30
0.0
  0
HATCH
  5
77
330
1F
100
AcDbEntity
  8
0
 62
    18
420
        0
440
 33554687
100
AcDbHatch
 10
0.0
 20
0.0
 30
0.0
210
0.0
220
0.0
230
1.0
  2
SOLID
 70
     1
 71
     1
 91
        1
 92
        0
 93
        1
 72
     4
 94
        3
 73
     0
 74
     1
 95
       29
 96
       25
 40
0.0
 40
0.0
 40
0.0
 40
0.0
 40
1.0
 40
1.0
 40
1.0
 40
2.0
 40
2.0
 40
2.0
 40
3.0
 40
3.0
 40
3.0
 40
4.0
 40
4.0
 40
4.0
 40
5.0
 40
5.0
 40
5.0
 40
6.0
 40
6.0
 40
6.0
 40
7.0
 40
7.0
 40
7.0
 40
8.0
 40
8.0
 40
8.0
 40
8.0
 10
6.420521533581153
 20
1.202318577262684
 10
6.420521533581153
 20
1.202318577262684
 10
6.399470925468258
 20
1.328587893715431
 10
6.329398335218334
 20
1.441373176292619
 10
6.259325744968412
 20
1.554158458869805
 10
6.117184602487001
 20
1.496502469721807
 10
6.117184602487001
 20
1.496502469721807
 10
6.117184602487001
 20
1.496502469721807
 10
6.04062332478651
 20
1.48413428306807
 10
6.04062332478651
 20
1.48413428306807
 10
6.04062332478651
 20
1.48413428306807
 10
6.080206187282412
 20
1.5638611767541
 10
6.166070179401874
 20
1.565422755540404
 10
6.239953509820627
 20
1.566766446167819
 10
6.294435585857777
 20
1.559724948218935
 10
6.313836840239381
 20
1.551534065967981
 10
6.366662610744504
 20
1.52923191696706
 10
6.382217644082292
 20
1.521081567916721
 10
6.431739827634333
 20
1.441373176292619
 10
6.501812417884258
 20
1.328587893715431
 10
6.498098160810176
 20
1.266257674284529
 10
6.498098160810176
 20
1.266257674284529
 10
6.498098160810176
 20
1.266257674284529
 10
6.420521533581153
 20
1.202318577262684
 10
6.420521533581153
 20
1.202318577262684
 97
        0
 97
        0
 75
     0
 76
     1
 98
        0
  0
SPLINE
  5
78
330
1F
100
AcDbEntity
  8
0
  6
Continuous
 62
    18
420
        0
370
    35
100
AcDbSpline
210
0.0
220
0.0
230
1.0
 70
    11
 71
     3
 72
    29
 73
    25
 74
     0
 42
0.000000001
 43
0.0
 40
0.0
 40
0.0
 40
0.0
 40
0.0
 40
1.0
 40
1.0
 40
1.0
 40
2.0
 40
2.0
 40
2.0
 40
3.0
 40
3.0
 40
3.0
 40
4.0
 40
4.0
 40
4.0
 40
5.0
 40
5.0
 40
5.0
 40
6.0
 40
6.0
 40
6.0
 40
7.0
 40
7.0
 40
7.0
 40
8.0
 40
8.0
 40
8.0
 40
8.0
 10
6.420521533581153
 20
1.202318577262684
 30
0.0
 10
6.420521533581153
 20
1.202318577262684
 30
0.0
 10
6.399470925468258
 20
1.328587893715431
 30
0.0
 10
6.329398335218334
 20
1.441373176292619
 30
0.0
 10
6.259325744968412
 20
1.554158458869805
 30
0.0
 10
6.117184602487001
 20
1.496502469721807
 30
0.0
 10
6.117184602487001
 20
1.496502469721807
 30
0.0
 10
6.117184602487001
 20
1.496502469721807
 30
0.0
 10
6.04062332478651
 20
1.48413428306807
 30
0.0
 10
6.04062332478651
 20
1.48413428306807
 30
0.0
 10
6.04062332478651
 20
1.48413428306807
 30
0.0
 10
6.080206187282412
 20
1.5638611767541
 30
0.0
 10
6.166070179401874
 20
1.565422755540404
 30
0.0
 10
6.239953509820627
 20
1.566766446167819
 30
0.0
 10
6.294435585857777
 20
1.559724948218935
 30
0.0
 10
6.313836840239381
 20
1.551534065967981
 30
0.0
 10
6.366662610744504
 20
1.52923191696706
 30
0.0
 10
6.382217644082292
 20
1.521081567916721
 30
0.0
 10
6.431739827634333
 20
1.441373176292619
 30
0.0
 10
6.501812417884258
 20
1.328587893715431
 30
0.0
 10
6.498098160810176
 20
1.266257674284529
 30
0.0
 10
6.498098160810176
 20
1.266257674284529
 30
0.0
 10
6.498098160810176
 20
1.266257674284529
 30
0.0
 10
6.420521533581153
 20
1.202318577262684
 30
0.0
 10
6.420521533581153
 20
1.202318577262684
 30
0.0
  0
HATCH
  5
79
330
1F
100
AcDbEntity
  8
0
 62
    18
420
        0
440
 33554687
100
AcDbHatch
 10
0.0
 20
0.0
 30
0.0
210
0.0
220
0.0
230
1.0
  2
SOLID
 70
     1
 71
     1
 91
        1
 92
        0
 93
        1
 72
     4
 94
        3
 73
     0
 74
     1
 95
       41
 96
       37
 40
0.0
 40
0.0
 40
0.0
 40
0.0
 40
1.0
 40
1.0
 40
1.0
 40
2.0
 40
2.0
 40
2.0
 40
3.0
 40
3.0
 40
3.0
 40
4.0
 40
4.0
 40
4.0
 40
5.0
 40
5.0
 40
5.0
 40
6.0
 40
6.0
 40
6.0
 40
7.0
 40
7.0
 40
7.0
 40
8.0
 40
8.0
 40
8.0
 40
9.0
 40
9.0
 40
9.0
 40
10.0
 40
10.0
 40
10.0
 40
11.0
 40
11.0
 40
11.0
 40
12.0
 40
12.0
 40
12.0
 40
12.0
 10
5.935758608152034
 20
1.399448125023815
 10
5.944310392756501
 20
1.378100897501367
 10
5.933922116532732
 20
1.353826693100383
 10
5.912574889010283
 20
1.345274908495917
 10
5.891227661487836
 20
1.33672312389145
 10
5.866953457086852
 20
1.347111400115219
 10
5.858401672476869
 20
1.368458627651436
 10
5.858401672476869
 20
1.368458627651436
 10
5.798217301631246
 20
1.52146464086711
 10
5.694275793990403
 20
1.590083202686075
 10
5.688367312915716
 20
1.593983776028542
 10
5.678421107572934
 20
1.595008737241132
 10
5.666121915942157
 20
1.59632580228319
 10
5.637186329203129
 20
1.599424383955016
 10
5.598685240682252
 20
1.598278555294278
 10
5.555738444394644
 20
1.594805024862677
 10
5.379265004057141
 20
1.580531879520788
 10
5.131800774146231
 20
1.525880583645556
 10
5.131800773294961
 20
1.525880583457799
 10
5.109344055003131
 20
1.520927509020874
 10
5.087090780932997
 20
1.535138247051028
 10
5.082137706496072
 20
1.557594965342858
 10
5.077184632059145
 20
1.580051683634688
 10
5.0913953700893
 20
1.60230495770482
 10
5.113852087590599
 20
1.607258031967387
 10
5.113852087590599
 20
1.607258031967387
 10
5.36788125682615
 20
1.663216617379025
 10
5.549020394327131
 20
1.677867123606539
 10
5.598031242460619
 20
1.681831113640397
 10
5.641973709817962
 20
1.682721500589444
 10
5.67499497729092
 20
1.679185401767775
 10
5.704023465837836
 20
1.676076871659728
 10
5.72624214537477
 20
1.668834818606489
 10
5.740187311882879
 20
1.659628705554724
 10
5.862863434880054
 20
1.578642203428168
 10
5.935758608152034
 20
1.399448125023815
 10
5.935758608152034
 20
1.399448125023815
 97
        0
 97
        0
 75
     0
 76
     1
 98
        0
  0
HATCH
  5
7A
330
1F
100
AcDbEntity
  8
0
 62
    18
420
        0
440
 33554687
100
AcDbHatch
 10
0.0
 20
0.0
 30
0.0
210
0.0
220
0.0
230
1.0
  2
SOLID
 70
     1
 71
     1
 91
        1
 92
        0
 93
        1
 72
     4
 94
        3
 73
     0
 74
     1
 95
       44
 96
       40
 40
0.0
 40
0.0
 40
0.0
 40
0.0
 40
1.0
 40
1.0
 40
1.0
 40
2.0
 40
2.0
 40
2.0
 40
3.0
 40
3.0
 40
3.0
 40
4.0
 40
4.0
 40
4.0
 40
5.0
 40
5.0
 40
5.0
 40
6.0
 40
6.0
 40
6.0
 40
7.0
 40
7.0
 40
7.0
 40
8.0
 40
8.0
 40
8.0
 40
9.0
 40
9.0
 40
9.0
 40
10.0
 40
10.0
 40
10.0
 40
11.0
 40
11.0
 40
11.0
 40
12.0
 40
12.0
 40
12.0
 40
13.0
 40
13.0
 40
13.0
 40
13.0
 10
6.173050089571151
 20
1.356676749016618
 10
6.181601874170931
 20
1.335329521492293
 10
6.171213597941832
 20
1.311055317093587
 10
6.149866370417508
 20
1.302503532493807
 10
6.128519142893182
 20
1.293951747894027
 10
6.104244938494478
 20
1.304340024123126
 10
6.095693153892584
 20
1.325687251652728
 10
6.095693153892584
 20
1.325687251652728
 10
6.035508783046962
 20
1.478693264868402
 10
5.931567275406118
 20
1.547311826687367
 10
5.929511623757816
 20
1.54866889628265
 10
5.926424994084285
 20
1.548016299166788
 10
5.922921324429034
 20
1.548110880003834
 10
5.916586640473614
 20
1.548281883485863
 10
5.90948218141066
 20
1.547682041826957
 10
5.901726593933496
 20
1.546557882200066
 10
5.878056456263141
 20
1.543126934743111
 10
5.849505478455785
 20
1.534934309399459
 10
5.818459642534923
 20
1.524041445416489
 10
5.662940202741947
 20
1.469475283671292
 10
5.450204165667417
 20
1.347775244428817
 10
5.45020416475764
 20
1.347775243909022
 10
5.430236909915959
 20
1.336367094326214
 10
5.404764062287057
 20
1.343316001857388
 10
5.393355912704248
 20
1.363283256699069
 10
5.38194776312144
 20
1.38325051154075
 10
5.388896670652614
 20
1.408723359169652
 10
5.408863924505865
 20
1.420131508187728
 10
5.408863924505864
 20
1.420131508187728
 10
5.629593464271571
 20
1.546089009160208
 10
5.790869928419072
 20
1.602675103092133
 10
5.835739450860745
 20
1.618418200046707
 10
5.876458021534087
 20
1.628787528206679
 10
5.907677024613421
 20
1.63098963881867
 10
5.937897347460276
 20
1.633121305017932
 10
5.961609208551021
 20
1.627333876478977
 10
5.977478793298594
 20
1.616857329556016
 10
6.100154916299098
 20
1.535870827427263
 10
6.173050089571151
 20
1.356676749016618
 10
6.173050089571151
 20
1.356676749016618
 97
        0
 97
        0
 75
     0
 76
     1
 98
        0
  0
HATCH
  5
7B
330
1F
100
AcDbEntity
  8
0
 62
    18
420
        0
440
 33554687
100
AcDbHatch
 10
0.0
 20
0.0
 30
0.0
210
0.0
220
0.0
230
1.0
  2
SOLID
 70
     1
 71
     1
 91
        1
 92
        0
 93
        3
 72
     1
 10
7.386874508077138
 20
1.09137319300848
 11
7.845982714737288
 21
1.0
 72
     1
 10
7.845982714737288
 20
1.0
 11
7.386874508077138
 21
0.9329712549448255
 72
     1
 10
7.386874508077138
 20
0.9329712549448255
 11
7.386874508077138
 21
1.09137319300848
 97
        0
 75
     0
 76
     1
 98
        0
  0
HATCH
  5
7C
330
1F
100
AcDbEntity
  8
0
 62
    18
420
        0
440
 33554687
100
AcDbHatch
 10
0.0
 20
0.0
 30
0.0
210
0.0
220
0.0
230
1.0
  2
SOLID
 70
     1
 71
     1
 91
        1
 92
        0
 93
        1
 72
     4
 94
        3
 73
     0
 74
     1
 95
       35
 96
       31
 40
0.0
 40
0.0
 40
0.0
 40
0.0
 40
1.0
 40
1.0
 40
1.0
 40
2.0
 40
2.0
 40
2.0
 40
3.0
 40
3.0
 40
3.0
 40
4.0
 40
4.0
 40
4.0
 40
5.0
 40
5.0
 40
5.0
 40
6.0
 40
6.0
 40
6.0
 40
7.0
 40
7.0
 40
7.0
 40
8.0
 40
8.0
 40
8.0
 40
9.0
 40
9.0
 40
9.0
 40
10.0
 40
10.0
 40
10.0
 40
10.0
 10
7.378741387159373
 20
1.050508006660586
 10
7.356187276835223
 20
1.054996798291127
 10
7.341520530098703
 20
1.076952203602096
 10
7.346009321729244
 20
1.099506313926246
 10
7.350498113359785
 20
1.122060424250395
 10
7.372453518670754
 20
1.136727170986916
 10
7.395007628968757
 20
1.132238379361579
 10
7.395007628968757
 20
1.132238379361579
 10
7.854115835642635
 20
1.040865186350366
 10
7.854115835642635
 20
1.040865186350366
 10
7.87400637065654
 20
1.036906508057475
 10
7.888157571383615
 20
1.019201486789802
 10
7.887635577629942
 20
0.9989275616768127
 10
7.887113583876267
 20
0.9786536365638234
 10
7.872070032540231
 20
0.9617002940229904
 10
7.852002137819288
 20
0.9587704273988793
 10
7.852002137819288
 20
0.9587704273988793
 10
7.392893931081259
 20
0.891741682332337
 10
7.392893931081259
 20
0.891741682332337
 10
7.370138710502959
 20
0.8884194723375769
 10
7.348967145459409
 20
0.9041966113624049
 10
7.34564493546465
 20
0.9269518319407046
 10
7.34232272546989
 20
0.9497070525190043
 10
7.358099864494718
 20
0.9708786175625557
 10
7.380855085061782
 20
0.9742008275556744
 10
7.380855085061782
 20
0.9742008275556744
 10
7.600802680949283
 20
1.00631265322793
 10
7.600802680949283
 20
1.00631265322793
 10
7.600802680949283
 20
1.00631265322793
 10
7.378741387159373
 20
1.050508006660586
 10
7.378741387159373
 20
1.050508006660586
 97
        0
 97
        0
 75
     0
 76
     1
 98
        0
  0
VIEWPORT
  5
81
330
7D
100
AcDbEntity
 67
     1
  8
0
100
AcDbViewport
 10
128.5
 20
97.5
 30
0.0
 40
314.226
 41
222.18
 68
     1
 69
     1
 12
31.79233333333334
 22
50.84233333333334
 13
0.0
 23
0.0
 14
10.0
 24
10.0
 15
10.0
 25
10.0
 16
0.0
 26
0.0
 36
1.0
 17
0.0
 27
0.0
 37
0.0
 42
50.0
 43
0.0
 44
0.0
 45
222.18
 50
0.0
 51
0.0
 72
   100
 90
   557152
  1

281
     0
 71
     1
 74
     0
110
0.0
120
0.0
130
0.0
111
1.0
121
0.0
131
0.0
112
0.0
122
1.0
132
0.0
 79
     0
146
0.0
170
     0
 61
     5
348
2F
292
     1
282
     1
141
0.0
142
0.0
 63
   256
361
82
  0
VIEWPORT
  5
83
330
7D
100
AcDbEntity
 67
     1
  8
0
100
AcDbViewport
 10
2.001666666666667
 20
1.251666666666667
 30
0.0
 40
4.003333333333334
 41
2.503333333333333
 68
     2
 69
     2
 12
6.718333333333334
 22
1.249811086410237
 13
0.0
 23
0.0
 14
10.0
 24
10.0
 15
10.0
 25
10.0
 16
0.0
 26
0.0
 36
1.0
 17
0.0
 27
0.0
 37
0.0
 42
50.0
 43
0.0
 44
0.0
 45
2.503333333333333
 50
0.0
 51
0.0
 72
   100
 90
   557152
  1

281
     0
 71
     1
 74
     0
110
0.0
120
0.0
130
0.0
111
1.0
121
0.0
131
0.0
112
0.0
122
1.0
132
0.0
 79
     0
146
0.0
170
     0
 61
     5
348
2F
292
     1
282
     1
141
0.0
142
0.0
 63
   256
361
84
  0
ENDSEC
  0
SECTION
  2
OBJECTS
  0
DICTIONARY
  5
C
330
0
100
AcDbDictionary
281
     1
  3
ACAD_DETAILVIEWSTYLE
350
8C
  3
ACAD_GROUP
350
D
  3
ACAD_LAYOUT
350
1A
  3
ACAD_MATERIAL
350
43
  3
ACAD_MLEADERSTYLE
350
5B
  3
ACAD_MLINESTYLE
350
17
  3
ACAD_PLOTSETTINGS
350
19
  3
ACAD_PLOTSTYLENAME
350
E
  3
ACAD_SCALELIST
350
47
  3
ACAD_SECTIONVIEWSTYLE
350
8D
  3
ACAD_TABLESTYLE
350
59
  3
ACAD_VISUALSTYLE
350
2A
  3
ACDB_RECOMPOSE_DATA
350
89
  3
AcDbVariableDictionary
350
85
  0
SUN
  5
5D
330
29
100
AcDbSun
 90
        1
290
     0
 63
     7
421
 16777215
 40
1.0
291
     1
 91
  2455826
 92
 54000000
292
     0
 70
     2
 71
   256
280
     1
  0
SUN
  5
82
330
81
100
AcDbSun
 90
        1
290
     0
 63
     7
421
 16777215
 40
1.0
291
     1
 91
  2455826
 92
 54000000
292
     0
 70
     2
 71
   256
280
     1
  0
SUN
  5
84
330
83
100
AcDbSun
 90
        1
290
     0
 63
     7
421
 16777215
 40
1.0
291
     1
 91
  2455826
 92
 54000000
292
     0
 70
     2
 71
   256
280
     1
  0
DICTIONARY
  5
8C
102
{ACAD_REACTORS
330
C
102
}
330
C
100
AcDbDictionary
281
     1
  0
DICTIONARY
  5
D
102
{ACAD_REACTORS
330
C
102
}
330
C
100
AcDbDictionary
281
     1
  0
DICTIONARY
  5
1A
102
{ACAD_REACTORS
330
C
102
}
330
C
100
AcDbDictionary
281
     1
  3
Layout1
350
7E
  3
Model
350
22
  0
DICTIONARY
  5
43
102
{ACAD_REACTORS
330
C
102
}
330
C
100
AcDbDictionary
281
     1
  3
ByBlock
350
45
  3
ByLayer
350
44
  3
Global
350
46
  0
DICTIONARY
  5
5B
102
{ACAD_REACTORS
330
C
102
}
330
C
100
AcDbDictionary
281
     1
  3
Standard
350
5C
  0
DICTIONARY
  5
17
102
{ACAD_REACTORS
330
C
102
}
330
C
100
AcDbDictionary
281
     1
  3
Standard
350
18
  0
DICTIONARY
  5
19
102
{ACAD_REACTORS
330
C
102
}
330
C
100
AcDbDictionary
281
     1
  0
ACDBDICTIONARYWDFLT
  5
E
102
{ACAD_REACTORS
330
C
102
}
330
C
100
AcDbDictionary
281
     1
  3
Normal
350
F
100
AcDbDictionaryWithDefault
340
F
  0
DICTIONARY
  5
47
102
{ACAD_REACTORS
330
C
102
}
330
C
100
AcDbDictionary
281
     1
  3
A0
350
48
  3
A1
350
49
  3
A2
350
4A
  3
A3
350
4B
  3
A4
350
4C
  3
A5
350
4D
  3
A6
350
4E
  3
A7
350
4F
  3
A8
350
50
  3
A9
350
51
  3
B0
350
52
  3
B1
350
53
  3
B2
350
54
  3
B3
350
55
  3
B4
350
56
  3
B5
350
57
  3
B6
350
58
  0
DICTIONARY
  5
8D
102
{ACAD_REACTORS
330
C
102
}
330
C
100
AcDbDictionary
281
     1
  0
DICTIONARY
  5
59
102
{ACAD_REACTORS
330
C
102
}
330
C
100
AcDbDictionary
281
     1
  3
Standard
350
5A
  0
DICTIONARY
  5
2A
102
{ACAD_REACTORS
330
C
102
}
330
C
100
AcDbDictionary
281
     1
  3
2dWireframe
350
2F
  3
Basic
350
32
  3
Brighten
350
36
  3
ColorChange
350
3A
  3
Conceptual
350
34
  3
Dim
350
35
  3
EdgeColorOff
350
3D
  3
Facepattern
350
39
  3
Flat
350
2B
  3
FlatWithEdges
350
2C
  3
Gouraud
350
2D
  3
GouraudWithEdges
350
2E
  3
Hidden
350
31
  3
JitterOff
350
3B
  3
Linepattern
350
38
  3
OverhangOff
350
3C
  3
Realistic
350
33
  3
Shaded
350
42
  3
Shaded with edges
350
41
  3
Shades of Gray
350
3E
  3
Sketchy
350
3F
  3
Thicken
350
37
  3
Wireframe
350
30
  3
X-Ray
350
40
  0
XRECORD
  5
89
102
{ACAD_REACTORS
330
C
102
}
330
C
100
AcDbXrecord
280
     1
 90
        1
330
5A
  0
DICTIONARY
  5
85
102
{ACAD_REACTORS
330
C
102
}
330
C
100
AcDbDictionary
281
     1
  3
CANNOSCALE
350
86
  3
CENTEREXE
350
8E
  3
CENTERLTYPEFILE
350
8F
  3
CMLEADERSTYLE
350
8B
  3
CTABLESTYLE
350
8A
  0
LAYOUT
  5
7E
102
{ACAD_REACTORS
330
1A
102
}
330
1A
100
AcDbPlotSettings
  1

  2
none_device
  4
ISO_A4_(210.00_x_297.00_MM)
  6

 40
0.0
 41
0.0
 42
0.0
 43
0.0
 44
63.58466666666667
 45
101.6846666666667
 46
0.0
 47
0.0
 48
0.0
 49
0.0
140
0.0
141
0.0
142
1.0
143
1.0
 70
   688
 72
     0
 73
     3
 74
     5
  7

 75
    16
 76
     0
 77
     2
 78
   300
147
1.0
148
0.0
149
0.0
100
AcDbLayout
  1
Layout1
 70
     1
 71
     1
 10
-20.0
 20
-7.5
 11
277.0
 21
202.5
 12
0.0
 22
0.0
 32
0.0
 14
63.58466666666667
 24
101.6846666666667
 34
0.0
 15
0.0
 25
0.0
 35
0.0
146
0.0
 13
0.0
 23
0.0
 33
0.0
 16
1.0
 26
0.0
 36
0.0
 17
0.0
 27
1.0
 37
0.0
 76
     0
330
7D
331
81
  0
LAYOUT
  5
22
102
{ACAD_REACTORS
330
1A
102
}
330
1A
100
AcDbPlotSettings
  1

  2
none_device
  4
Letter_(8.50_x_11.00_Inches)
  6

 40
6.35
 41
6.35
 42
6.35000508
 43
6.35000508
 44
215.9
 45
279.4
 46
0.0
 47
0.0
 48
0.0
 49
0.0
140
0.0
141
0.0
142
1.0
143
1.0
 70
  1712
 72
     1
 73
     0
 74
     0
  7

 75
     0
 76
     0
 77
     2
 78
   300
147
1.0
148
0.0
149
0.0
100
AcDbLayout
  1
Model
 70
     1
 71
     0
 10
0.0
 20
0.0
 11
420.0
 21
297.0
 12
0.0
 22
0.0
 32
0.0
 14
1.000000000000000E+20
 24
1.000000000000000E+20
 34
1.000000000000000E+20
 15
-1.000000000000000E+20
 25
-1.000000000000000E+20
 35
-1.000000000000000E+20
146
0.0
 13
0.0
 23
0.0
 33
0.0
 16
1.0
 26
0.0
 36
0.0
 17
0.0
 27
1.0
 37
0.0
 76
     0
330
1F
331
29
  0
MATERIAL
  5
45
102
{ACAD_REACTORS
330
43
102
}
330
43
100
AcDbMaterial
  1
ByBlock
 72
     1
 94
      127
  0
MATERIAL
  5
44
102
{ACAD_REACTORS
330
43
102
}
330
43
100
AcDbMaterial
  1
ByLayer
 72
     1
 94
      127
  0
MATERIAL
  5
46
102
{ACAD_REACTORS
330
43
102
}
330
43
100
AcDbMaterial
  1
Global
 72
     1
 94
      127
  0
MLEADERSTYLE
  5
5C
102
{ACAD_REACTORS
330
5B
102
}
330
5B
100
AcDbMLeaderStyle
179
     2
170
     2
171
     1
172
     0
 90
        2
 40
0.0
 41
0.0
173
     1
 91
-1056964608
340
14
 92
       -2
290
     1
 42
2.0
291
     1
 43
8.0
  3
Standard
341
0
 44
4.0
300

342
11
174
     1
178
     6
175
     1
176
     0
 93
-1056964608
 45
4.0
292
     0
297
     0
 46
4.0
343
0
 94
-1056964608
 47
1.0
 49
1.0
140
1.0
293
     1
141
0.0
294
     1
177
     0
142
1.0
295
     0
296
     0
143
3.75
271
     0
272
     9
273
     9
298
     0
  0
MLINESTYLE
  5
18
102
{ACAD_REACTORS
330
17
102
}
330
17
100
AcDbMlineStyle
  2
Standard
 70
     0
  3

 62
   256
 51
90.0
 52
90.0
 71
     2
 49
0.5
 62
   256
  6
BYLAYER
 49
-0.5
 62
   256
  6
BYLAYER
  0
ACDBPLACEHOLDER
  5
F
102
{ACAD_REACTORS
330
E
102
}
330
E
  0
SCALE
  5
48
102
{ACAD_REACTORS
330
47
102
}
330
47
100
AcDbScale
 70
     0
300
1:1
140
1.0
141
1.0
290
     1
  0
SCALE
  5
49
102
{ACAD_REACTORS
330
47
102
}
330
47
100
AcDbScale
 70
     0
300
1:2
140
1.0
141
2.0
290
     0
  0
SCALE
  5
4A
102
{ACAD_REACTORS
330
47
102
}
330
47
100
AcDbScale
 70
     0
300
1:4
140
1.0
141
4.0
290
     0
  0
SCALE
  5
4B
102
{ACAD_REACTORS
330
47
102
}
330
47
100
AcDbScale
 70
     0
300
1:5
140
1.0
141
5.0
290
     0
  0
SCALE
  5
4C
102
{ACAD_REACTORS
330
47
102
}
330
47
100
AcDbScale
 70
     0
300
1:8
140
1.0
141
8.0
290
     0
  0
SCALE
  5
4D
102
{ACAD_REACTORS
330
47
102
}
330
47
100
AcDbScale
 70
     0
300
1:10
140
1.0
141
10.0
290
     0
  0
SCALE
  5
4E
102
{ACAD_REACTORS
330
47
102
}
330
47
100
AcDbScale
 70
     0
300
1:16
140
1.0
141
16.0
290
     0
  0
SCALE
  5
4F
102
{ACAD_REACTORS
330
47
102
}
330
47
100
AcDbScale
 70
     0
300
1:20
140
1.0
141
20.0
290
     0
  0
SCALE
  5
50
102
{ACAD_REACTORS
330
47
102
}
330
47
100
AcDbScale
 70
     0
300
1:30
140
1.0
141
30.0
290
     0
  0
SCALE
  5
51
102
{ACAD_REACTORS
330
47
102
}
330
47
100
AcDbScale
 70
     0
300
1:40
140
1.0
141
40.0
290
     0
  0
SCALE
  5
52
102
{ACAD_REACTORS
330
47
102
}
330
47
100
AcDbScale
 70
     0
300
1:50
140
1.0
141
50.0
290
     0
  0
SCALE
  5
53
102
{ACAD_REACTORS
330
47
102
}
330
47
100
AcDbScale
 70
     0
300
1:100
140
1.0
141
100.0
290
     0
  0
SCALE
  5
54
102
{ACAD_REACTORS
330
47
102
}
330
47
100
AcDbScale
 70
     0
300
2:1
140
2.0
141
1.0
290
     0
  0
SCALE
  5
55
102
{ACAD_REACTORS
330
47
102
}
330
47
100
AcDbScale
 70
     0
300
4:1
140
4.0
141
1.0
290
     0
  0
SCALE
  5
56
102
{ACAD_REACTORS
330
47
102
}
330
47
100
AcDbScale
 70
     0
300
8:1
140
8.0
141
1.0
290
     0
  0
SCALE
  5
57
102
{ACAD_REACTORS
330
47
102
}
330
47
100
AcDbScale
 70
     0
300
10:1
140
10.0
141
1.0
290
     0
  0
SCALE
  5
58
102
{ACAD_REACTORS
330
47
102
}
330
47
100
AcDbScale
 70
     0
300
100:1
140
100.0
141
1.0
290
     0
  0
TABLESTYLE
  5
5A
102
{ACAD_REACTORS
330
59
102
}
102
{ACAD_XDICTIONARY
360
87
102
}
330
59
100
AcDbTableStyle
  3
Standard
 70
     0
 71
     0
 40
0.06
 41
0.06
280
     0
281
     0
  7
Standard
140
4.5
170
     2
 62
     0
 63
   257
283
     0
 90
        4
 91
        0
  1

274
    -2
284
     1
 64
     0
275
    -2
285
     1
 65
     0
276
    -2
286
     1
 66
     0
277
    -2
287
     1
 67
     0
278
    -2
288
     1
 68
     0
279
    -2
289
     1
 69
     0
  7
Standard
140
6.0
170
     5
 62
     0
 63
   257
283
     0
 90
        4
 91
        0
  1

274
    -2
284
     1
 64
     0
275
    -2
285
     1
 65
     0
276
    -2
286
     1
 66
     0
277
    -2
287
     1
 67
     0
278
    -2
288
     1
 68
     0
279
    -2
289
     1
 69
     0
  7
Standard
140
4.5
170
     5
 62
     0
 63
   257
283
     0
 90
        4
 91
        0
  1

274
    -2
284
     1
 64
     0
275
    -2
285
     1
 65
     0
276
    -2
286
     1
 66
     0
277
    -2
287
     1
 67
     0
278
    -2
288
     1
 68
     0
279
    -2
289
     1
 69
     0
  0
VISUALSTYLE
  5
2F
102
{ACAD_REACTORS
330
2A
102
}
330
2A
100
AcDbVisualStyle
  2
2dWireframe
 70
     4
177
     3
291
     0
 70
    58
 90
        0
176
     1
 90
        2
176
     1
 90
        0
176
     1
 90
        0
176
     1
 40
0.6
176
     1
 40
30.0
176
     1
 62
     7
420
 16777215
176
     1
 90
        1
176
     1
 90
        4
176
     1
 62
     7
176
     1
 62
   257
176
     1
 90
        1
176
     1
 90
        1
176
     1
 40
1.0
176
     1
 90
        0
176
     1
 62
   257
176
     1
 40
1.0
176
     1
 90
        1
176
     1
 90
        6
176
     1
 90
        2
176
     1
 62
     7
176
     1
 90
        5
176
     1
 90
        0
176
     1
 90
        0
176
     1
290
     0
176
     1
 90
        1
176
     1
 40
0.0
176
     1
 90
        0
176
     1
290
     1
176
     1
290
     1
176
     1
290
     0
176
     1
290
     0
176
     1
290
     0
176
     1
290
     0
176
     1
290
     0
176
     1
290
     0
176
     1
290
     0
176
     1
 90
       50
176
     1
 40
0.0
176
     1
 40
1.0
176
     1
 90
        0
176
     1
 62
    18
420
        0
176
     1
 90
       50
176
     1
 90
        3
176
     1
 62
     5
420
      255
176
     1
290
     0
176
     1
 90
       50
176
     1
 90
       50
176
     1
 90
       50
176
     1
290
     0
176
     1
 90
       50
176
     1
 62
   256
176
     0
 40
1.0
176
     0
 90
        2
176
     1
  1
strokes_ogs.tif
176
     1
290
     0
176
     1
 40
1.0
176
     1
 40
1.0
176
     1
  0
VISUALSTYLE
  5
32
102
{ACAD_REACTORS
330
2A
102
}
330
2A
100
AcDbVisualStyle
  2
Basic
 70
     7
177
     3
291
     1
 70
    58
 90
        1
176
     1
 90
        0
176
     1
 90
        1
176
     1
 90
        0
176
     1
 40
0.6
176
     1
 40
30.0
176
     1
 62
     7
420
 16777215
176
     1
 90
        0
176
     1
 90
        4
176
     1
 62
     7
176
     1
 62
   257
176
     1
 90
        1
176
     1
 90
        1
176
     1
 40
1.0
176
     1
 90
        8
176
     1
 62
     7
176
     1
 40
1.0
176
     1
 90
        1
176
     1
 90
        6
176
     1
 90
        2
176
     1
 62
     7
176
     1
 90
        5
176
     1
 90
        0
176
     1
 90
        0
176
     1
290
     0
176
     1
 90
        1
176
     1
 40
0.0
176
     1
 90
        0
176
     1
290
     0
176
     1
290
     1
176
     1
290
     1
176
     1
290
     0
176
     1
290
     0
176
     1
290
     0
176
     1
290
     0
176
     1
290
     0
176
     1
290
     0
176
     1
 90
       50
176
     1
 40
0.0
176
     1
 40
1.0
176
     1
 90
        0
176
     1
 62
    18
420
        0
176
     1
 90
       50
176
     1
 90
        3
176
     1
 62
     5
420
      255
176
     1
290
     0
176
     1
 90
       50
176
     1
 90
       50
176
     1
 90
       50
176
     1
290
     0
176
     1
 90
       50
176
     1
 62
   256
176
     0
 40
1.0
176
     0
 90
        2
176
     1
  1
strokes_ogs.tif
176
     1
290
     0
176
     1
 40
1.0
176
     1
 40
1.0
176
     1
  0
VISUALSTYLE
  5
36
102
{ACAD_REACTORS
330
2A
102
}
330
2A
100
AcDbVisualStyle
  2
Brighten
 70
    12
177
     3
291
     1
 70
    58
 90
        2
176
     1
 90
        2
176
     1
 90
        0
176
     1
 90
        0
176
     1
 40
0.6
176
     1
 40
30.0
176
     1
 62
     7
420
 16777215
176
     1
 90
        1
176
     1
 90
        4
176
     1
 62
     7
176
     1
 62
   257
176
     1
 90
        1
176
     1
 90
        1
176
     1
 40
1.0
176
     1
 90
        8
176
     1
 62
     7
176
     1
 40
1.0
176
     1
 90
        1
176
     1
 90
        6
176
     1
 90
        2
176
     1
 62
     7
176
     1
 90
        5
176
     1
 90
        0
176
     1
 90
        0
176
     1
290
     0
176
     1
 90
        1
176
     1
 40
50.0
176
     1
 90
        0
176
     1
290
     0
176
     1
290
     1
176
     1
290
     1
176
     1
290
     0
176
     1
290
     0
176
     1
290
     0
176
     1
290
     0
176
     1
290
     0
176
     1
290
     0
176
     1
 90
       50
176
     1
 40
0.0
176
     1
 40
1.0
176
     1
 90
        0
176
     1
 62
    18
420
        0
176
     1
 90
       50
176
     1
 90
        3
176
     1
 62
     5
420
      255
176
     1
290
     0
176
     1
 90
       50
176
     1
 90
       50
176
     1
 90
       50
176
     1
290
     0
176
     1
 90
       50
176
     1
 62
   256
176
     0
 40
1.0
176
     0
 90
        2
176
     1
  1
strokes_ogs.tif
176
     1
290
     0
176
     1
 40
1.0
176
     1
 40
1.0
176
     1
  0
VISUALSTYLE
  5
3A
102
{ACAD_REACTORS
330
2A
102
}
330
2A
100
AcDbVisualStyle
  2
ColorChange
 70
    16
177
     3
291
     1
 70
    58
 90
        2
176
     1
 90
        2
176
     1
 90
        3
176
     1
 90
        0
176
     1
 40
0.6
176
     1
 40
30.0
176
     1
 62
     8
420
  8421504
176
     1
 90
        1
176
     1
 90
        4
176
     1
 62
     7
176
     1
 62
   257
176
     1
 90
        1
176
     1
 90
        1
176
     1
 40
1.0
176
     1
 90
        8
176
     1
 62
     8
420
  8421504
176
     1
 40
1.0
176
     1
 90
        1
176
     1
 90
        6
176
     1
 90
        2
176
     1
 62
     7
176
     1
 90
        5
176
     1
 90
        0
176
     1
 90
        0
176
     1
290
     0
176
     1
 90
        1
176
     1
 40
0.0
176
     1
 90
        0
176
     1
290
     0
176
     1
290
     1
176
     1
290
     1
176
     1
290
     0
176
     1
290
     0
176
     1
290
     0
176
     1
290
     0
176
     1
290
     0
176
     1
290
     0
176
     1
 90
       50
176
     1
 40
0.0
176
     1
 40
1.0
176
     1
 90
        0
176
     1
 62
    18
420
        0
176
     1
 90
       50
176
     1
 90
        3
176
     1
 62
     5
420
      255
176
     1
290
     0
176
     1
 90
       50
176
     1
 90
       50
176
     1
 90
       50
176
     1
290
     0
176
     1
 90
       50
176
     1
 62
   256
176
     0
 40
1.0
176
     0
 90
        2
176
     1
  1
strokes_ogs.tif
176
     1
290
     0
176
     1
 40
1.0
176
     1
 40
1.0
176
     1
  0
VISUALSTYLE
  5
34
102
{ACAD_REACTORS
330
2A
102
}
330
2A
100
AcDbVisualStyle
  2
Conceptual
 70
     9
177
     3
291
     0
 70
    58
 90
        3
176
     1
 90
        2
176
     1
 90
        0
176
     1
 90
        0
176
     1
 40
0.6
176
     1
 40
30.0
176
     1
 62
     7
420
 16777215
176
     1
 90
        2
176
     1
 90
        2
176
     1
 62
     7
176
     1
 62
   257
176
     1
 90
        1
176
     1
 90
        1
176
     1
 40
179.0
176
     1
 90
        8
176
     1
 62
     7
176
     1
 40
1.0
176
     1
 90
        1
176
     1
 90
        6
176
     1
 90
        2
176
     1
 62
     7
176
     1
 90
        3
176
     1
 90
        0
176
     1
 90
        0
176
     1
290
     0
176
     1
 90
        1
176
     1
 40
0.0
176
     1
 90
        0
176
     1
290
     0
176
     1
290
     1
176
     1
290
     1
176
     1
290
     0
176
     1
290
     0
176
     1
290
     0
176
     1
290
     0
176
     1
290
     0
176
     1
290
     0
176
     1
 90
       50
176
     1
 40
0.0
176
     1
 40
1.0
176
     1
 90
        0
176
     1
 62
    18
420
        0
176
     1
 90
       50
176
     1
 90
        3
176
     1
 62
     5
420
      255
176
     1
290
     0
176
     1
 90
       50
176
     1
 90
       50
176
     1
 90
       50
176
     1
290
     0
176
     1
 90
       50
176
     1
 62
   256
176
     0
 40
1.0
176
     0
 90
        2
176
     1
  1
strokes_ogs.tif
176
     1
290
     0
176
     1
 40
1.0
176
     1
 40
1.0
176
     1
  0
VISUALSTYLE
  5
35
102
{ACAD_REACTORS
330
2A
102
}
330
2A
100
AcDbVisualStyle
  2
Dim
 70
    11
177
     3
291
     1
 70
    58
 90
        2
176
     1
 90
        2
176
     1
 90
        0
176
     1
 90
        0
176
     1
 40
0.6
176
     1
 40
30.0
176
     1
 62
     7
420
 16777215
176
     1
 90
        1
176
     1
 90
        4
176
     1
 62
     7
176
     1
 62
   257
176
     1
 90
        1
176
     1
 90
        1
176
     1
 40
1.0
176
     1
 90
        8
176
     1
 62
     7
176
     1
 40
1.0
176
     1
 90
        1
176
     1
 90
        6
176
     1
 90
        2
176
     1
 62
     7
176
     1
 90
        5
176
     1
 90
        0
176
     1
 90
        0
176
     1
290
     0
176
     1
 90
        1
176
     1
 40
-50.0
176
     1
 90
        0
176
     1
290
     0
176
     1
290
     1
176
     1
290
     1
176
     1
290
     0
176
     1
290
     0
176
     1
290
     0
176
     1
290
     0
176
     1
290
     0
176
     1
290
     0
176
     1
 90
       50
176
     1
 40
0.0
176
     1
 40
1.0
176
     1
 90
        0
176
     1
 62
    18
420
        0
176
     1
 90
       50
176
     1
 90
        3
176
     1
 62
     5
420
      255
176
     1
290
     0
176
     1
 90
       50
176
     1
 90
       50
176
     1
 90
       50
176
     1
290
     0
176
     1
 90
       50
176
     1
 62
   256
176
     0
 40
1.0
176
     0
 90
        2
176
     1
  1
strokes_ogs.tif
176
     1
290
     0
176
     1
 40
1.0
176
     1
 40
1.0
176
     1
  0
VISUALSTYLE
  5
3D
102
{ACAD_REACTORS
330
2A
102
}
330
2A
100
AcDbVisualStyle
  2
EdgeColorOff
 70
    22
177
     3
291
     1
 70
    58
 90
        2
176
     0
 90
        2
176
     0
 90
        0
176
     0
 90
        0
176
     0
 40
0.6
176
     0
 40
30.0
176
     0
 62
     7
420
 16777215
176
     0
 90
        1
176
     0
 90
        4
176
     0
 62
     7
176
     0
 62
   257
176
     0
 90
        1
176
     0
 90
        1
176
     0
 40
1.0
176
     0
 90
        8
176
     2
 62
     7
176
     0
 40
1.0
176
     0
 90
        1
176
     0
 90
        6
176
     0
 90
        2
176
     0
 62
     7
176
     0
 90
        5
176
     0
 90
        0
176
     0
 90
        0
176
     0
290
     0
176
     0
 90
        1
176
     0
 40
0.0
176
     0
 90
        0
176
     0
290
     0
176
     0
290
     1
176
     0
290
     1
176
     0
290
     0
176
     0
290
     0
176
     0
290
     0
176
     0
290
     0
176
     0
290
     0
176
     0
290
     0
176
     0
 90
       50
176
     0
 40
0.0
176
     0
 40
1.0
176
     0
 90
        0
176
     0
 62
    18
420
        0
176
     0
 90
       50
176
     0
 90
        3
176
     0
 62
     5
420
      255
176
     0
290
     0
176
     0
 90
       50
176
     0
 90
       50
176
     0
 90
       50
176
     0
290
     0
176
     0
 90
       50
176
     0
 62
   256
176
     0
 40
1.0
176
     0
 90
        2
176
     0
  1
strokes_ogs.tif
176
     0
290
     0
176
     0
 40
1.0
176
     0
 40
1.0
176
     0
  0
VISUALSTYLE
  5
39
102
{ACAD_REACTORS
330
2A
102
}
330
2A
100
AcDbVisualStyle
  2
Facepattern
 70
    15
177
     3
291
     1
 70
    58
 90
        2
176
     1
 90
        2
176
     1
 90
        0
176
     1
 90
        0
176
     1
 40
0.6
176
     1
 40
30.0
176
     1
 62
     7
420
 16777215
176
     1
 90
        1
176
     1
 90
        4
176
     1
 62
     7
176
     1
 62
   257
176
     1
 90
        1
176
     1
 90
        1
176
     1
 40
1.0
176
     1
 90
        8
176
     1
 62
     7
176
     1
 40
1.0
176
     1
 90
        1
176
     1
 90
        6
176
     1
 90
        2
176
     1
 62
     7
176
     1
 90
        5
176
     1
 90
        0
176
     1
 90
        0
176
     1
290
     0
176
     1
 90
        1
176
     1
 40
0.0
176
     1
 90
        0
176
     1
290
     0
176
     1
290
     1
176
     1
290
     1
176
     1
290
     0
176
     1
290
     0
176
     1
290
     0
176
     1
290
     0
176
     1
290
     0
176
     1
290
     0
176
     1
 90
       50
176
     1
 40
0.0
176
     1
 40
1.0
176
     1
 90
        0
176
     1
 62
    18
420
        0
176
     1
 90
       50
176
     1
 90
        3
176
     1
 62
     5
420
      255
176
     1
290
     0
176
     1
 90
       50
176
     1
 90
       50
176
     1
 90
       50
176
     1
290
     0
176
     1
 90
       50
176
     1
 62
   256
176
     0
 40
1.0
176
     0
 90
        2
176
     1
  1
strokes_ogs.tif
176
     1
290
     0
176
     1
 40
1.0
176
     1
 40
1.0
176
     1
  0
VISUALSTYLE
  5
2B
102
{ACAD_REACTORS
330
2A
102
}
330
2A
100
AcDbVisualStyle
  2
Flat
 70
     0
177
     3
291
     1
 70
    58
 90
        2
176
     1
 90
        1
176
     1
 90
        1
176
     1
 90
        2
176
     1
 40
0.6
176
     1
 40
30.0
176
     1
 62
     7
420
 16777215
176
     1
 90
        0
176
     1
 90
        0
176
     1
 62
     7
176
     1
 62
   257
176
     1
 90
        1
176
     1
 90
        1
176
     1
 40
1.0
176
     1
 90
        8
176
     1
 62
     7
176
     1
 40
1.0
176
     1
 90
        1
176
     1
 90
        6
176
     1
 90
        2
176
     1
 62
     7
176
     1
 90
        5
176
     1
 90
        0
176
     1
 90
        0
176
     1
290
     0
176
     1
 90
       13
176
     1
 40
0.0
176
     1
 90
        0
176
     1
290
     0
176
     1
290
     1
176
     1
290
     1
176
     1
290
     0
176
     1
290
     0
176
     1
290
     0
176
     1
290
     0
176
     1
290
     0
176
     1
290
     0
176
     1
 90
       50
176
     1
 40
0.0
176
     1
 40
1.0
176
     1
 90
        0
176
     1
 62
    18
420
        0
176
     1
 90
       50
176
     1
 90
        3
176
     1
 62
     5
420
      255
176
     1
290
     0
176
     1
 90
       50
176
     1
 90
       50
176
     1
 90
       50
176
     1
290
     0
176
     1
 90
       50
176
     1
 62
   256
176
     0
 40
1.0
176
     0
 90
        2
176
     1
  1
strokes_ogs.tif
176
     1
290
     0
176
     1
 40
1.0
176
     1
 40
1.0
176
     1
  0
VISUALSTYLE
  5
2C
102
{ACAD_REACTORS
330
2A
102
}
330
2A
100
AcDbVisualStyle
  2
FlatWithEdges
 70
     1
177
     3
291
     1
 70
    58
 90
        2
176
     1
 90
        1
176
     1
 90
        1
176
     1
 90
        2
176
     1
 40
0.6
176
     1
 40
30.0
176
     1
 62
     7
420
 16777215
176
     1
 90
        1
176
     1
 90
        0
176
     1
 62
     7
176
     1
 62
   257
176
     1
 90
        1
176
     1
 90
        1
176
     1
 40
1.0
176
     1
 90
        0
176
     1
 62
   257
176
     1
 40
1.0
176
     1
 90
        1
176
     1
 90
        6
176
     1
 90
        2
176
     1
 62
     7
176
     1
 90
        5
176
     1
 90
        0
176
     1
 90
        0
176
     1
290
     0
176
     1
 90
       13
176
     1
 40
0.0
176
     1
 90
        0
176
     1
290
     0
176
     1
290
     1
176
     1
290
     1
176
     1
290
     0
176
     1
290
     0
176
     1
290
     0
176
     1
290
     0
176
     1
290
     0
176
     1
290
     0
176
     1
 90
       50
176
     1
 40
0.0
176
     1
 40
1.0
176
     1
 90
        0
176
     1
 62
    18
420
        0
176
     1
 90
       50
176
     1
 90
        3
176
     1
 62
     5
420
      255
176
     1
290
     0
176
     1
 90
       50
176
     1
 90
       50
176
     1
 90
       50
176
     1
290
     0
176
     1
 90
       50
176
     1
 62
   256
176
     0
 40
1.0
176
     0
 90
        2
176
     1
  1
strokes_ogs.tif
176
     1
290
     0
176
     1
 40
1.0
176
     1
 40
1.0
176
     1
  0
VISUALSTYLE
  5
2D
102
{ACAD_REACTORS
330
2A
102
}
330
2A
100
AcDbVisualStyle
  2
Gouraud
 70
     2
177
     3
291
     1
 70
    58
 90
        2
176
     1
 90
        2
176
     1
 90
        1
176
     1
 90
        2
176
     1
 40
0.6
176
     1
 40
30.0
176
     1
 62
     7
420
 16777215
176
     1
 90
        0
176
     1
 90
        0
176
     1
 62
     7
176
     1
 62
   257
176
     1
 90
        1
176
     1
 90
        1
176
     1
 40
1.0
176
     1
 90
        0
176
     1
 62
     7
176
     1
 40
1.0
176
     1
 90
        1
176
     1
 90
        6
176
     1
 90
        2
176
     1
 62
     7
176
     1
 90
        5
176
     1
 90
        0
176
     1
 90
        0
176
     1
290
     0
176
     1
 90
       13
176
     1
 40
0.0
176
     1
 90
        0
176
     1
290
     0
176
     1
290
     1
176
     1
290
     1
176
     1
290
     0
176
     1
290
     0
176
     1
290
     0
176
     1
290
     0
176
     1
290
     0
176
     1
290
     0
176
     1
 90
       50
176
     1
 40
0.0
176
     1
 40
1.0
176
     1
 90
        0
176
     1
 62
    18
420
        0
176
     1
 90
       50
176
     1
 90
        3
176
     1
 62
     5
420
      255
176
     1
290
     0
176
     1
 90
       50
176
     1
 90
       50
176
     1
 90
       50
176
     1
290
     0
176
     1
 90
       50
176
     1
 62
   256
176
     0
 40
1.0
176
     0
 90
        2
176
     1
  1
strokes_ogs.tif
176
     1
290
     0
176
     1
 40
1.0
176
     1
 40
1.0
176
     1
  0
VISUALSTYLE
  5
2E
102
{ACAD_REACTORS
330
2A
102
}
330
2A
100
AcDbVisualStyle
  2
GouraudWithEdges
 70
     3
177
     3
291
     1
 70
    58
 90
        2
176
     1
 90
        2
176
     1
 90
        1
176
     1
 90
        2
176
     1
 40
0.6
176
     1
 40
30.0
176
     1
 62
     7
420
 16777215
176
     1
 90
        1
176
     1
 90
        0
176
     1
 62
     7
176
     1
 62
   257
176
     1
 90
        1
176
     1
 90
        1
176
     1
 40
1.0
176
     1
 90
        0
176
     1
 62
   257
176
     1
 40
1.0
176
     1
 90
        1
176
     1
 90
        6
176
     1
 90
        2
176
     1
 62
     7
176
     1
 90
        5
176
     1
 90
        0
176
     1
 90
        0
176
     1
290
     0
176
     1
 90
       13
176
     1
 40
0.0
176
     1
 90
        0
176
     1
290
     0
176
     1
290
     1
176
     1
290
     1
176
     1
290
     0
176
     1
290
     0
176
     1
290
     0
176
     1
290
     0
176
     1
290
     0
176
     1
290
     0
176
     1
 90
       50
176
     1
 40
0.0
176
     1
 40
1.0
176
     1
 90
        0
176
     1
 62
    18
420
        0
176
     1
 90
       50
176
     1
 90
        3
176
     1
 62
     5
420
      255
176
     1
290
     0
176
     1
 90
       50
176
     1
 90
       50
176
     1
 90
       50
176
     1
290
     0
176
     1
 90
       50
176
     1
 62
   256
176
     0
 40
1.0
176
     0
 90
        2
176
     1
  1
strokes_ogs.tif
176
     1
290
     0
176
     1
 40
1.0
176
     1
 40
1.0
176
     1
  0
VISUALSTYLE
  5
31
102
{ACAD_REACTORS
330
2A
102
}
330
2A
100
AcDbVisualStyle
  2
Hidden
 70
     6
177
     3
291
     0
 70
    58
 90
        1
176
     1
 90
        2
176
     1
 90
        2
176
     1
 90
        0
176
     1
 40
0.6
176
     1
 40
30.0
176
     1
 62
     7
420
 16777215
176
     1
 90
        2
176
     1
 90
        2
176
     1
 62
     7
176
     1
 62
   257
176
     1
 90
        2
176
     1
 90
        1
176
     1
 40
40.0
176
     1
 90
        0
176
     1
 62
   257
176
     1
 40
1.0
176
     1
 90
        1
176
     1
 90
        6
176
     1
 90
        2
176
     1
 62
     7
176
     1
 90
        3
176
     1
 90
        0
176
     1
 90
        0
176
     1
290
     0
176
     1
 90
        1
176
     1
 40
0.0
176
     1
 90
        0
176
     1
290
     0
176
     1
290
     1
176
     1
290
     1
176
     1
290
     0
176
     1
290
     0
176
     1
290
     0
176
     1
290
     0
176
     1
290
     0
176
     1
290
     0
176
     1
 90
       50
176
     1
 40
0.0
176
     1
 40
1.0
176
     1
 90
        0
176
     1
 62
    18
420
        0
176
     1
 90
       50
176
     1
 90
        3
176
     1
 62
     5
420
      255
176
     1
290
     0
176
     1
 90
       50
176
     1
 90
       50
176
     1
 90
       50
176
     1
290
     0
176
     1
 90
       50
176
     1
 62
   256
176
     0
 40
1.0
176
     0
 90
        2
176
     1
  1
strokes_ogs.tif
176
     1
290
     0
176
     1
 40
1.0
176
     1
 40
1.0
176
     1
  0
VISUALSTYLE
  5
3B
102
{ACAD_REACTORS
330
2A
102
}
330
2A
100
AcDbVisualStyle
  2
JitterOff
 70
    20
177
     3
291
     1
 70
    58
 90
        2
176
     0
 90
        2
176
     0
 90
        0
176
     0
 90
        0
176
     0
 40
0.6
176
     0
 40
30.0
176
     0
 62
     7
420
 16777215
176
     0
 90
        1
176
     0
 90
        4
176
     0
 62
     7
176
     0
 62
   257
176
     0
 90
        1
176
     0
 90
        1
176
     0
 40
1.0
176
     0
 90
       10
176
     2
 62
     7
176
     0
 40
1.0
176
     0
 90
        1
176
     0
 90
        6
176
     0
 90
        2
176
     0
 62
     7
176
     0
 90
        5
176
     0
 90
        0
176
     0
 90
        0
176
     0
290
     0
176
     0
 90
        1
176
     0
 40
0.0
176
     0
 90
        0
176
     0
290
     0
176
     0
290
     1
176
     0
290
     1
176
     0
290
     0
176
     0
290
     0
176
     0
290
     0
176
     0
290
     0
176
     0
290
     0
176
     0
290
     0
176
     0
 90
       50
176
     0
 40
0.0
176
     0
 40
1.0
176
     0
 90
        0
176
     0
 62
    18
420
        0
176
     0
 90
       50
176
     0
 90
        3
176
     0
 62
     5
420
      255
176
     0
290
     0
176
     0
 90
       50
176
     0
 90
       50
176
     0
 90
       50
176
     0
290
     0
176
     0
 90
       50
176
     0
 62
   256
176
     0
 40
1.0
176
     0
 90
        2
176
     0
  1
strokes_ogs.tif
176
     0
290
     0
176
     0
 40
1.0
176
     0
 40
1.0
176
     0
  0
VISUALSTYLE
  5
38
102
{ACAD_REACTORS
330
2A
102
}
330
2A
100
AcDbVisualStyle
  2
Linepattern
 70
    14
177
     3
291
     1
 70
    58
 90
        2
176
     1
 90
        2
176
     1
 90
        0
176
     1
 90
        0
176
     1
 40
0.6
176
     1
 40
30.0
176
     1
 62
     7
420
 16777215
176
     1
 90
        1
176
     1
 90
        4
176
     1
 62
     7
176
     1
 62
   257
176
     1
 90
        7
176
     1
 90
        7
176
     1
 40
1.0
176
     1
 90
        8
176
     1
 62
     7
176
     1
 40
1.0
176
     1
 90
        1
176
     1
 90
        6
176
     1
 90
        2
176
     1
 62
     7
176
     1
 90
        5
176
     1
 90
        0
176
     1
 90
        0
176
     1
290
     0
176
     1
 90
        1
176
     1
 40
0.0
176
     1
 90
        0
176
     1
290
     0
176
     1
290
     1
176
     1
290
     1
176
     1
290
     0
176
     1
290
     0
176
     1
290
     0
176
     1
290
     0
176
     1
290
     0
176
     1
290
     0
176
     1
 90
       50
176
     1
 40
0.0
176
     1
 40
1.0
176
     1
 90
        0
176
     1
 62
    18
420
        0
176
     1
 90
       50
176
     1
 90
        3
176
     1
 62
     5
420
      255
176
     1
290
     0
176
     1
 90
       50
176
     1
 90
       50
176
     1
 90
       50
176
     1
290
     0
176
     1
 90
       50
176
     1
 62
   256
176
     0
 40
1.0
176
     0
 90
        2
176
     1
  1
strokes_ogs.tif
176
     1
290
     0
176
     1
 40
1.0
176
     1
 40
1.0
176
     1
  0
VISUALSTYLE
  5
3C
102
{ACAD_REACTORS
330
2A
102
}
330
2A
100
AcDbVisualStyle
  2
OverhangOff
 70
    21
177
     3
291
     1
 70
    58
 90
        2
176
     0
 90
        2
176
     0
 90
        0
176
     0
 90
        0
176
     0
 40
0.6
176
     0
 40
30.0
176
     0
 62
     7
420
 16777215
176
     0
 90
        1
176
     0
 90
        4
176
     0
 62
     7
176
     0
 62
   257
176
     0
 90
        1
176
     0
 90
        1
176
     0
 40
1.0
176
     0
 90
        9
176
     2
 62
     7
176
     0
 40
1.0
176
     0
 90
        1
176
     0
 90
        6
176
     0
 90
        2
176
     0
 62
     7
176
     0
 90
        5
176
     0
 90
        0
176
     0
 90
        0
176
     0
290
     0
176
     0
 90
        1
176
     0
 40
0.0
176
     0
 90
        0
176
     0
290
     0
176
     0
290
     1
176
     0
290
     1
176
     0
290
     0
176
     0
290
     0
176
     0
290
     0
176
     0
290
     0
176
     0
290
     0
176
     0
290
     0
176
     0
 90
       50
176
     0
 40
0.0
176
     0
 40
1.0
176
     0
 90
        0
176
     0
 62
    18
420
        0
176
     0
 90
       50
176
     0
 90
        3
176
     0
 62
     5
420
      255
176
     0
290
     0
176
     0
 90
       50
176
     0
 90
       50
176
     0
 90
       50
176
     0
290
     0
176
     0
 90
       50
176
     0
 62
   256
176
     0
 40
1.0
176
     0
 90
        2
176
     0
  1
strokes_ogs.tif
176
     0
290
     0
176
     0
 40
1.0
176
     0
 40
1.0
176
     0
  0
VISUALSTYLE
  5
33
102
{ACAD_REACTORS
330
2A
102
}
330
2A
100
AcDbVisualStyle
  2
Realistic
 70
     8
177
     3
291
     0
 70
    58
 90
        2
176
     1
 90
        3
176
     1
 90
        0
176
     1
 90
        2
176
     1
 40
0.6
176
     1
 40
30.0
176
     1
 62
     7
420
 16777215
176
     1
 90
        0
176
     1
 90
        0
176
     1
 62
     7
176
     1
 62
   257
176
     1
 90
        1
176
     1
 90
        1
176
     1
 40
1.0
176
     1
 90
        8
176
     1
 62
   257
176
     1
 40
1.0
176
     1
 90
        1
176
     1
 90
        6
176
     1
 90
        2
176
     1
 62
     7
176
     1
 90
        3
176
     1
 90
        0
176
     1
 90
        0
176
     1
290
     0
176
     1
 90
       13
176
     1
 40
0.0
176
     1
 90
        0
176
     1
290
     0
176
     1
290
     1
176
     1
290
     1
176
     1
290
     0
176
     1
290
     0
176
     1
290
     0
176
     1
290
     0
176
     1
290
     0
176
     1
290
     0
176
     1
 90
       50
176
     1
 40
0.0
176
     1
 40
1.0
176
     1
 90
        0
176
     1
 62
    18
420
        0
176
     1
 90
       50
176
     1
 90
        3
176
     1
 62
     5
420
      255
176
     1
290
     0
176
     1
 90
       50
176
     1
 90
       50
176
     1
 90
       50
176
     1
290
     0
176
     1
 90
       50
176
     1
 62
   256
176
     0
 40
1.0
176
     0
 90
        2
176
     1
  1
strokes_ogs.tif
176
     1
290
     0
176
     1
 40
1.0
176
     1
 40
1.0
176
     1
  0
VISUALSTYLE
  5
42
102
{ACAD_REACTORS
330
2A
102
}
330
2A
100
AcDbVisualStyle
  2
Shaded
 70
    27
177
     3
291
     0
 70
    58
 90
        2
176
     1
 90
        2
176
     1
 90
        1
176
     1
 90
        2
176
     1
 40
0.6
176
     1
 40
30.0
176
     1
 62
     7
420
 16777215
176
     1
 90
        0
176
     1
 90
        4
176
     1
 62
     7
176
     1
 62
   257
176
     1
 90
        1
176
     1
 90
        1
176
     1
 40
1.0
176
     1
 90
        8
176
     1
 62
   257
176
     1
 40
1.0
176
     1
 90
        1
176
     1
 90
        6
176
     1
 90
        2
176
     1
 62
     8
420
  7895160
176
     1
 90
        3
176
     1
 90
        0
176
     1
 90
        0
176
     1
290
     0
176
     1
 90
        5
176
     1
 40
0.0
176
     1
 90
        0
176
     1
290
     0
176
     1
290
     1
176
     1
290
     1
176
     1
290
     0
176
     1
290
     0
176
     1
290
     0
176
     1
290
     0
176
     1
290
     0
176
     1
290
     0
176
     1
 90
       50
176
     1
 40
0.0
176
     1
 40
1.0
176
     1
 90
        0
176
     1
 62
    18
420
        0
176
     1
 90
       50
176
     1
 90
        3
176
     1
 62
     5
420
      255
176
     1
290
     0
176
     1
 90
       50
176
     1
 90
       50
176
     1
 90
       50
176
     1
290
     0
176
     1
 90
       50
176
     1
 62
   256
176
     0
 40
1.0
176
     0
 90
        2
176
     1
  1
strokes_ogs.tif
176
     1
290
     0
176
     1
 40
1.0
176
     1
 40
1.0
176
     1
  0
VISUALSTYLE
  5
41
102
{ACAD_REACTORS
330
2A
102
}
330
2A
100
AcDbVisualStyle
  2
Shaded with edges
 70
    26
177
     3
291
     0
 70
    58
 90
        2
176
     1
 90
        2
176
     1
 90
        1
176
     1
 90
        2
176
     1
 40
0.6
176
     1
 40
30.0
176
     1
 62
     7
420
 16777215
176
     1
 90
        1
176
     1
 90
       10
176
     1
 62
     7
176
     1
 62
   257
176
     1
 90
        2
176
     1
 90
        1
176
     1
 40
1.0
176
     1
 90
        8
176
     1
 62
   257
176
     1
 40
1.0
176
     1
 90
        1
176
     1
 90
        6
176
     1
 90
        2
176
     1
 62
     7
176
     1
 90
        3
176
     1
 90
        0
176
     1
 90
        0
176
     1
290
     0
176
     1
 90
        5
176
     1
 40
0.0
176
     1
 90
        0
176
     1
290
     0
176
     1
290
     1
176
     1
290
     1
176
     1
290
     0
176
     1
290
     0
176
     1
290
     0
176
     1
290
     0
176
     1
290
     0
176
     1
290
     0
176
     1
 90
       50
176
     1
 40
0.0
176
     1
 40
1.0
176
     1
 90
        0
176
     1
 62
    18
420
        0
176
     1
 90
       50
176
     1
 90
        3
176
     1
 62
     5
420
      255
176
     1
290
     0
176
     1
 90
       50
176
     1
 90
       50
176
     1
 90
       50
176
     1
290
     0
176
     1
 90
       50
176
     1
 62
   256
176
     0
 40
1.0
176
     0
 90
        2
176
     1
  1
strokes_ogs.tif
176
     1
290
     0
176
     1
 40
1.0
176
     1
 40
1.0
176
     1
  0
VISUALSTYLE
  5
3E
102
{ACAD_REACTORS
330
2A
102
}
330
2A
100
AcDbVisualStyle
  2
Shades of Gray
 70
    23
177
     3
291
     0
 70
    58
 90
        2
176
     1
 90
        2
176
     1
 90
        3
176
     1
 90
        0
176
     1
 40
0.6
176
     1
 40
30.0
176
     1
 62
     7
420
 16777215
176
     1
 90
        2
176
     1
 90
        2
176
     1
 62
     7
176
     1
 62
     7
176
     1
 90
        1
176
     1
 90
        1
176
     1
 40
40.0
176
     1
 90
        8
176
     1
 62
     7
176
     1
 40
1.0
176
     1
 90
        1
176
     1
 90
        6
176
     1
 90
        2
176
     1
 62
     7
176
     1
 90
        3
176
     1
 90
        0
176
     1
 90
        0
176
     1
290
     0
176
     1
 90
        1
176
     1
 40
0.0
176
     1
 90
        0
176
     1
290
     0
176
     1
290
     1
176
     1
290
     1
176
     1
290
     0
176
     1
290
     0
176
     1
290
     0
176
     1
290
     0
176
     1
290
     0
176
     1
290
     0
176
     1
 90
       50
176
     1
 40
0.0
176
     1
 40
1.0
176
     1
 90
        0
176
     1
 62
    18
420
        0
176
     1
 90
       50
176
     1
 90
        3
176
     1
 62
     5
420
      255
176
     1
290
     0
176
     1
 90
       50
176
     1
 90
       50
176
     1
 90
       50
176
     1
290
     0
176
     1
 90
       50
176
     1
 62
   256
176
     0
 40
1.0
176
     0
 90
        2
176
     1
  1
strokes_ogs.tif
176
     1
290
     0
176
     1
 40
1.0
176
     1
 40
1.0
176
     1
  0
VISUALSTYLE
  5
3F
102
{ACAD_REACTORS
330
2A
102
}
330
2A
100
AcDbVisualStyle
  2
Sketchy
 70
    24
177
     3
291
     0
 70
    58
 90
        1
176
     1
 90
        2
176
     1
 90
        2
176
     1
 90
        0
176
     1
 40
0.6
176
     1
 40
30.0
176
     1
 62
     7
420
 16777215
176
     1
 90
        2
176
     1
 90
        2
176
     1
 62
     7
176
     1
 62
     7
176
     1
 90
        1
176
     1
 90
        1
176
     1
 40
40.0
176
     1
 90
       11
176
     1
 62
     7
176
     1
 40
1.0
176
     1
 90
        1
176
     1
 90
        6
176
     1
 90
        2
176
     1
 62
     7
176
     1
 90
        6
176
     1
 90
        0
176
     1
 90
        0
176
     1
290
     0
176
     1
 90
        1
176
     1
 40
0.0
176
     1
 90
        0
176
     1
290
     0
176
     1
290
     1
176
     1
290
     1
176
     1
290
     0
176
     1
290
     0
176
     1
290
     0
176
     1
290
     0
176
     1
290
     0
176
     1
290
     0
176
     1
 90
       50
176
     1
 40
0.0
176
     1
 40
1.0
176
     1
 90
        0
176
     1
 62
    18
420
        0
176
     1
 90
       50
176
     1
 90
        3
176
     1
 62
     5
420
      255
176
     1
290
     0
176
     1
 90
       50
176
     1
 90
       50
176
     1
 90
       50
176
     1
290
     0
176
     1
 90
       50
176
     1
 62
   256
176
     0
 40
1.0
176
     0
 90
        2
176
     1
  1
strokes_ogs.tif
176
     1
290
     0
176
     1
 40
1.0
176
     1
 40
1.0
176
     1
  0
VISUALSTYLE
  5
37
102
{ACAD_REACTORS
330
2A
102
}
330
2A
100
AcDbVisualStyle
  2
Thicken
 70
    13
177
     3
291
     1
 70
    58
 90
        2
176
     1
 90
        2
176
     1
 90
        0
176
     1
 90
        0
176
     1
 40
0.6
176
     1
 40
30.0
176
     1
 62
     7
420
 16777215
176
     1
 90
        1
176
     1
 90
        4
176
     1
 62
     7
176
     1
 62
   257
176
     1
 90
        1
176
     1
 90
        1
176
     1
 40
1.0
176
     1
 90
       12
176
     1
 62
     7
176
     1
 40
1.0
176
     1
 90
        1
176
     1
 90
        6
176
     1
 90
        2
176
     1
 62
     7
176
     1
 90
        5
176
     1
 90
        0
176
     1
 90
        0
176
     1
290
     0
176
     1
 90
        1
176
     1
 40
0.0
176
     1
 90
        0
176
     1
290
     0
176
     1
290
     1
176
     1
290
     1
176
     1
290
     0
176
     1
290
     0
176
     1
290
     0
176
     1
290
     0
176
     1
290
     0
176
     1
290
     0
176
     1
 90
       50
176
     1
 40
0.0
176
     1
 40
1.0
176
     1
 90
        0
176
     1
 62
    18
420
        0
176
     1
 90
       50
176
     1
 90
        3
176
     1
 62
     5
420
      255
176
     1
290
     0
176
     1
 90
       50
176
     1
 90
       50
176
     1
 90
       50
176
     1
290
     0
176
     1
 90
       50
176
     1
 62
   256
176
     0
 40
1.0
176
     0
 90
        2
176
     1
  1
strokes_ogs.tif
176
     1
290
     0
176
     1
 40
1.0
176
     1
 40
1.0
176
     1
  0
VISUALSTYLE
  5
30
102
{ACAD_REACTORS
330
2A
102
}
330
2A
100
AcDbVisualStyle
  2
Wireframe
 70
     5
177
     3
291
     0
 70
    58
 90
        0
176
     1
 90
        2
176
     1
 90
        0
176
     1
 90
        0
176
     1
 40
0.6
176
     1
 40
30.0
176
     1
 62
     7
420
 16777215
176
     1
 90
        1
176
     1
 90
        4
176
     1
 62
     7
176
     1
 62
   257
176
     1
 90
        1
176
     1
 90
        1
176
     1
 40
1.0
176
     1
 90
        0
176
     1
 62
   257
176
     1
 40
1.0
176
     1
 90
        1
176
     1
 90
        6
176
     1
 90
        2
176
     1
 62
     7
176
     1
 90
        3
176
     1
 90
        0
176
     1
 90
        0
176
     1
290
     0
176
     1
 90
        1
176
     1
 40
0.0
176
     1
 90
        0
176
     1
290
     0
176
     1
290
     1
176
     1
290
     1
176
     1
290
     0
176
     1
290
     0
176
     1
290
     0
176
     1
290
     0
176
     1
290
     0
176
     1
290
     0
176
     1
 90
       50
176
     1
 40
0.0
176
     1
 40
1.0
176
     1
 90
        0
176
     1
 62
    18
420
        0
176
     1
 90
       50
176
     1
 90
        3
176
     1
 62
     5
420
      255
176
     1
290
     0
176
     1
 90
       50
176
     1
 90
       50
176
     1
 90
       50
176
     1
290
     0
176
     1
 90
       50
176
     1
 62
   256
176
     0
 40
1.0
176
     0
 90
        2
176
     1
  1
strokes_ogs.tif
176
     1
290
     0
176
     1
 40
1.0
176
     1
 40
1.0
176
     1
  0
VISUALSTYLE
  5
40
102
{ACAD_REACTORS
330
2A
102
}
330
2A
100
AcDbVisualStyle
  2
X-Ray
 70
    25
177
     3
291
     0
 70
    58
 90
        2
176
     1
 90
        2
176
     1
 90
        1
176
     1
 90
        1
176
     1
 40
0.5
176
     1
 40
30.0
176
     1
 62
     7
420
 16777215
176
     1
 90
        1
176
     1
 90
        0
176
     1
 62
     7
176
     1
 62
   257
176
     1
 90
        1
176
     1
 90
        1
176
     1
 40
1.0
176
     1
 90
        8
176
     1
 62
     7
176
     1
 40
1.0
176
     1
 90
        1
176
     1
 90
        6
176
     1
 90
        2
176
     1
 62
     7
176
     1
 90
        3
176
     1
 90
        0
176
     1
 90
        0
176
     1
290
     0
176
     1
 90
       13
176
     1
 40
0.0
176
     1
 90
        0
176
     1
290
     0
176
     1
290
     1
176
     1
290
     1
176
     1
290
     0
176
     1
290
     0
176
     1
290
     0
176
     1
290
     0
176
     1
290
     0
176
     1
290
     0
176
     1
 90
       50
176
     1
 40
0.0
176
     1
 40
1.0
176
     1
 90
        0
176
     1
 62
    18
420
        0
176
     1
 90
       50
176
     1
 90
        3
176
     1
 62
     5
420
      255
176
     1
290
     0
176
     1
 90
       50
176
     1
 90
       50
176
     1
 90
       50
176
     1
290
     0
176
     1
 90
       50
176
     1
 62
   256
176
     0
 40
1.0
176
     0
 90
        2
176
     1
  1
strokes_ogs.tif
176
     1
290
     0
176
     1
 40
1.0
176
     1
 40
1.0
176
     1
  0
DICTIONARYVAR
  5
86
102
{ACAD_REACTORS
330
85
102
}
330
85
100
DictionaryVariables
280
     0
  1
1:1
  0
DICTIONARYVAR
  5
8E
102
{ACAD_REACTORS
330
85
102
}
330
85
100
DictionaryVariables
280
     0
  1
3.500000
  0
DICTIONARYVAR
  5
8F
102
{ACAD_REACTORS
330
85
102
}
330
85
100
DictionaryVariables
280
     0
  1
acadiso.lin
  0
DICTIONARYVAR
  5
8B
102
{ACAD_REACTORS
330
85
102
}
330
85
100
DictionaryVariables
280
     0
  1
Standard
  0
DICTIONARYVAR
  5
8A
102
{ACAD_REACTORS
330
85
102
}
330
85
100
DictionaryVariables
280
     0
  1
Standard
  0
DICTIONARY
  5
87
330
5A
100
AcDbDictionary
280
     1
281
     1
  3
ACAD_ROUNDTRIP_2008_TABLESTYLE_CELLSTYLEMAP
360
88
  0
CELLSTYLEMAP
  5
88
102
{ACAD_REACTORS
330
87
102
}
330
87
100
AcDbCellStyleMap
 90
        3
300
CELLSTYLE
  1
TABLEFORMAT_BEGIN
 90
        5
170
     1
 91
        0
 92
    32768
 62
   257
 93
        1
300
CONTENTFORMAT
  1
CONTENTFORMAT_BEGIN
 90
        0
 91
        0
 92
        4
 93
        0
300

 40
0.0
140
1.0
 94
        5
 62
     0
340
11
144
6.0
309
CONTENTFORMAT_END
171
     1
301
MARGIN
  1
CELLMARGIN_BEGIN
 40
1.5
 40
1.5
 40
1.5
 40
1.5
 40
1.5
 40
1.5
309
CELLMARGIN_END
 94
        6
 95
        1
302
GRIDFORMAT
  1
GRIDFORMAT_BEGIN
 90
        0
 91
        1
 62
     0
 92
       -2
340
14
 93
        0
 40
0.045
309
GRIDFORMAT_END
 95
        2
302
GRIDFORMAT
  1
GRIDFORMAT_BEGIN
 90
        0
 91
        1
 62
     0
 92
       -2
340
14
 93
        0
 40
0.045
309
GRIDFORMAT_END
 95
        4
302
GRIDFORMAT
  1
GRIDFORMAT_BEGIN
 90
        0
 91
        1
 62
     0
 92
       -2
340
14
 93
        0
 40
0.045
309
GRIDFORMAT_END
 95
        8
302
GRIDFORMAT
  1
GRIDFORMAT_BEGIN
 90
        0
 91
        1
 62
     0
 92
       -2
340
14
 93
        0
 40
0.045
309
GRIDFORMAT_END
 95
       16
302
GRIDFORMAT
  1
GRIDFORMAT_BEGIN
 90
        0
 91
        1
 62
     0
 92
       -2
340
14
 93
        0
 40
0.045
309
GRIDFORMAT_END
 95
       32
302
GRIDFORMAT
  1
GRIDFORMAT_BEGIN
 90
        0
 91
        1
 62
     0
 92
       -2
340
14
 93
        0
 40
0.045
309
GRIDFORMAT_END
309
TABLEFORMAT_END
  1
CELLSTYLE_BEGIN
 90
        1
 91
        1
300
_TITLE
309
CELLSTYLE_END
300
CELLSTYLE
  1
TABLEFORMAT_BEGIN
 90
        5
170
     1
 91
        0
 92
        0
 62
   257
 93
        1
300
CONTENTFORMAT
  1
CONTENTFORMAT_BEGIN
 90
        0
 91
        0
 92
        4
 93
        0
300

 40
0.0
140
1.0
 94
        5
 62
     0
340
11
144
4.5
309
CONTENTFORMAT_END
171
     1
301
MARGIN
  1
CELLMARGIN_BEGIN
 40
1.5
 40
1.5
 40
1.5
 40
1.5
 40
1.5
 40
1.5
309
CELLMARGIN_END
 94
        6
 95
        1
302
GRIDFORMAT
  1
GRIDFORMAT_BEGIN
 90
        0
 91
        1
 62
     0
 92
       -2
340
14
 93
        0
 40
0.045
309
GRIDFORMAT_END
 95
        2
302
GRIDFORMAT
  1
GRIDFORMAT_BEGIN
 90
        0
 91
        1
 62
     0
 92
       -2
340
14
 93
        0
 40
0.045
309
GRIDFORMAT_END
 95
        4
302
GRIDFORMAT
  1
GRIDFORMAT_BEGIN
 90
        0
 91
        1
 62
     0
 92
       -2
340
14
 93
        0
 40
0.045
309
GRIDFORMAT_END
 95
        8
302
GRIDFORMAT
  1
GRIDFORMAT_BEGIN
 90
        0
 91
        1
 62
     0
 92
       -2
340
14
 93
        0
 40
0.045
309
GRIDFORMAT_END
 95
       16
302
GRIDFORMAT
  1
GRIDFORMAT_BEGIN
 90
        0
 91
        1
 62
     0
 92
       -2
340
14
 93
        0
 40
0.045
309
GRIDFORMAT_END
 95
       32
302
GRIDFORMAT
  1
GRIDFORMAT_BEGIN
 90
        0
 91
        1
 62
     0
 92
       -2
340
14
 93
        0
 40
0.045
309
GRIDFORMAT_END
309
TABLEFORMAT_END
  1
CELLSTYLE_BEGIN
 90
        2
 91
        1
300
_HEADER
309
CELLSTYLE_END
300
CELLSTYLE
  1
TABLEFORMAT_BEGIN
 90
        5
170
     1
 91
        0
 92
        0
 62
   257
 93
        1
300
CONTENTFORMAT
  1
CONTENTFORMAT_BEGIN
 90
        0
 91
        0
 92
        4
 93
        0
300

 40
0.0
140
1.0
 94
        2
 62
     0
340
11
144
4.5
309
CONTENTFORMAT_END
171
     1
301
MARGIN
  1
CELLMARGIN_BEGIN
 40
1.5
 40
1.5
 40
1.5
 40
1.5
 40
1.5
 40
1.5
309
CELLMARGIN_END
 94
        6
 95
        1
302
GRIDFORMAT
  1
GRIDFORMAT_BEGIN
 90
        0
 91
        1
 62
     0
 92
       -2
340
14
 93
        0
 40
0.045
309
GRIDFORMAT_END
 95
        2
302
GRIDFORMAT
  1
GRIDFORMAT_BEGIN
 90
        0
 91
        1
 62
     0
 92
       -2
340
14
 93
        0
 40
0.045
309
GRIDFORMAT_END
 95
        4
302
GRIDFORMAT
  1
GRIDFORMAT_BEGIN
 90
        0
 91
        1
 62
     0
 92
       -2
340
14
 93
        0
 40
0.045
309
GRIDFORMAT_END
 95
        8
302
GRIDFORMAT
  1
GRIDFORMAT_BEGIN
 90
        0
 91
        1
 62
     0
 92
       -2
340
14
 93
        0
 40
0.045
309
GRIDFORMAT_END
 95
       16
302
GRIDFORMAT
  1
GRIDFORMAT_BEGIN
 90
        0
 91
        1
 62
     0
 92
       -2
340
14
 93
        0
 40
0.045
309
GRIDFORMAT_END
 95
       32
302
GRIDFORMAT
  1
GRIDFORMAT_BEGIN
 90
        0
 91
        1
 62
     0
 92
       -2
340
14
 93
        0
 40
0.045
309
GRIDFORMAT_END
309
TABLEFORMAT_END
  1
CELLSTYLE_BEGIN
 90
        3
 91
        2
300
_DATA
309
CELLSTYLE_END
  0
ENDSEC
  0
EOF
