<?xml version="1.0" encoding="UTF-8" standalone="no"?>
<!DOCTYPE svg PUBLIC "-//W3C//DTD SVG 1.1//EN" "http://www.w3.org/Graphics/SVG/1.1/DTD/svg11.dtd">
<svg width="100%" height="100%" viewBox="0 0 1200 750" version="1.1" xmlns="http://www.w3.org/2000/svg" xmlns:xlink="http://www.w3.org/1999/xlink" xml:space="preserve" xmlns:serif="http://www.serif.com/" style="fill-rule:evenodd;clip-rule:evenodd;stroke-linecap:round;stroke-linejoin:round;stroke-miterlimit:1.5;">
    <g transform="matrix(1,0,0,1,-7.00918,-1803.5)">
        <g id="bee_logo_color_no_text" transform="matrix(1,0,0,1,-442.991,1203.5)">
            <rect x="450" y="600" width="1200" height="750" style="fill:none;"/>
            <g transform="matrix(0.994522,0.104528,-0.104528,0.994522,87.2326,-144.135)">
                <g transform="matrix(1.05106,-0.281631,0.281631,1.05106,-272.607,404.399)">
                    <path d="M1257.32,889.691C1280.35,864.696 1313.36,849.029 1350,849.029C1419.56,849.029 1476.04,905.505 1476.04,975.067C1476.04,1044.63 1419.56,1101.11 1350,1101.11C1300.11,1101.11 1256.95,1072.05 1236.53,1029.96" style="fill:none;stroke:black;stroke-width:11.49px;stroke-dasharray:11.49,45.95,0,0;"/>
                </g>
                <g transform="matrix(1.6139,-0.432442,0.432442,1.6139,-1183.02,60.1386)">
                    <path d="M1257.32,889.691C1280.35,864.696 1313.36,849.029 1350,849.029C1419.56,849.029 1476.04,905.505 1476.04,975.067C1476.04,1044.63 1419.56,1101.11 1350,1101.11C1300.11,1101.11 1256.95,1072.05 1236.53,1029.96" style="fill:none;stroke:black;stroke-width:7.48px;stroke-dasharray:7.48,44.89,0,0;"/>
                </g>
                <g transform="matrix(0.482636,-0.129322,0.129322,0.482636,646.85,752.077)">
                    <path d="M1257.32,889.691C1280.35,864.696 1313.36,849.029 1350,849.029C1419.56,849.029 1476.04,905.505 1476.04,975.067C1476.04,1044.63 1419.56,1101.11 1350,1101.11C1300.11,1101.11 1256.95,1072.05 1236.53,1029.96" style="fill:none;stroke:black;stroke-width:25.02px;stroke-dasharray:25.02,50.03,0,0;"/>
                </g>
            </g>
            <g transform="matrix(0.801795,-0.122029,0.138252,0.90839,-30.2624,210.144)">
                <path d="M1049.63,942.749C1049.63,942.749 1181.38,765.221 1250.89,733.096C1316.38,702.828 1441.46,722.183 1466.67,750C1491.88,777.817 1448.51,871.501 1402.14,900C1345.19,934.996 1125,959.974 1125,959.974L1049.63,942.749Z" style="fill:white;stroke:black;stroke-width:14.42px;"/>
            </g>
            <g transform="matrix(1,0,0,1,-95.5731,38.5425)">
                <circle cx="845.999" cy="993.326" r="18.131" style="stroke:black;stroke-width:4.17px;"/>
            </g>
            <path d="M1100.89,900C1183.68,900 1250.89,967.213 1250.89,1050C1250.89,1132.79 1183.68,1200 1100.89,1200L900,1200C817.213,1200 750,1132.79 750,1050C750,967.213 817.213,900 900,900L1100.89,900Z" style="fill:rgb(255,204,0);stroke:black;stroke-width:12.5px;"/>
            <g transform="matrix(1,0,0,1,22.7409,38.5425)">
                <circle cx="845.999" cy="993.326" r="18.131" style="stroke:black;stroke-width:4.17px;"/>
            </g>
            <path d="M768.557,1066.47C768.557,1066.47 773.097,1087.5 795.121,1087.5C817.145,1087.5 825,1070.77 825,1070.77" style="fill:none;stroke:black;stroke-width:12.5px;"/>
            <g transform="matrix(1.16868,0,0,1,-199.03,2.27374e-13)">
                <path d="M1012.5,900L1050,900C1050,900 1125,931.777 1125,1050C1125,1168.22 1050,1200 1050,1200L1012.5,1200C1012.5,1200 1087.5,1168.22 1087.5,1050C1087.5,931.777 1012.5,900 1012.5,900" style="stroke:black;stroke-width:3.83px;"/>
            </g>
            <g transform="matrix(1.24126,0,0,1,-188.024,2.27374e-13)">
                <path d="M1012.5,900L1050,900C1050,900 1125,931.777 1125,1050C1125,1168.22 1050,1200 1050,1200L1012.5,1200C1012.5,1200 1087.5,1168.22 1087.5,1050C1087.5,931.777 1012.5,900 1012.5,900" style="stroke:black;stroke-width:3.7px;"/>
            </g>
            <g transform="matrix(1,0,0,1,-18.75,-8.09475)">
                <ellipse cx="1009.75" cy="1030.68" rx="58.997" ry="70.988" style="stroke:black;stroke-width:4.17px;"/>
            </g>
            <g transform="matrix(1,0,0,1.15124,2.21694,-117.823)">
                <ellipse cx="1005.14" cy="990.591" rx="32.354" ry="41.278" style="fill:white;stroke:black;stroke-width:3.86px;"/>
            </g>
            <path d="M1049.63,942.749C1049.63,942.749 1181.38,765.221 1250.89,733.096C1316.38,702.828 1441.46,722.183 1466.67,750C1491.88,777.817 1448.51,871.501 1402.14,900C1345.19,934.996 1125,959.974 1125,959.974L1049.63,942.749Z" style="fill:white;stroke:black;stroke-width:12.5px;"/>
            <path d="M975,1061.26C975,1061.26 936.345,1114.38 914.478,1125C893.286,1135.3 843.796,1125 843.796,1125" style="fill:none;stroke:black;stroke-width:14.04px;"/>
            <g transform="matrix(0.785784,0,0,0.83616,187.469,182.394)">
                <ellipse cx="850.071" cy="1130.67" rx="25.071" ry="17.209" style="stroke:black;stroke-width:17.3px;"/>
            </g>
            <g transform="matrix(1.18213,0,0,1.49889,-179.268,-461.652)">
                <path d="M964.574,968.022C964.574,968.022 959.232,942.749 941.449,920.175C923.666,897.602 887.594,909.141 887.594,909.141L868.164,911.617C868.164,911.617 878.21,895.66 900,895.347C918.75,895.078 932.576,896.487 937.5,898.127C950.906,902.591 954.854,904.222 967.421,920.175C985.204,942.749 984.262,955.224 984.262,955.224L964.574,968.022Z" style="stroke:black;stroke-width:3.09px;"/>
            </g>
            <path d="M803.955,934.814C803.955,934.814 783.992,884.984 750,862.543C725.197,846.169 571.678,880.029 571.678,880.029" style="fill:none;stroke:black;stroke-width:12.5px;"/>
            <g transform="matrix(1,0,0,1,71.1874,12.8314)">
                <path d="M803.955,934.814C803.955,934.814 783.992,884.984 750,862.543C725.197,846.169 592.503,921.983 592.503,921.983" style="fill:none;stroke:black;stroke-width:12.5px;"/>
            </g>
            <path d="M1250.89,1022.59L1388.62,1050L1250.89,1070.11" style="stroke:black;stroke-width:12.5px;"/>
        </g>
    </g>
</svg>
